M48
; DRILL file {KiCad (6.0.2)} date Tue Dec 13 09:46:02 2022
; FORMAT={-:-/ absolute / inch / decimal}
; #@! TF.CreationDate,2022-12-13T09:46:02-05:00
; #@! TF.GenerationSoftware,Kicad,Pcbnew,(6.0.2)
; #@! TF.FileFunction,Plated,1,2,PTH
FMAT,2
INCH
; #@! TA.AperFunction,Plated,PTH,ViaDrill
T1C0.0157
; #@! TA.AperFunction,Plated,PTH,ComponentDrill
T2C0.0177
; #@! TA.AperFunction,Plated,PTH,ComponentDrill
T3C0.0315
; #@! TA.AperFunction,Plated,PTH,ComponentDrill
T4C0.0394
; #@! TA.AperFunction,Plated,PTH,ComponentDrill
T5C0.0512
; #@! TA.AperFunction,Plated,PTH,ComponentDrill
T6C0.1260
%
G90
G05
T1
X5.2468Y-3.1039
X5.2468Y-3.6389
X5.4868Y-4.8939
X5.4868Y-4.9839
X5.8788Y-2.9239
X6.1428Y-2.6799
X6.1468Y-2.8039
X6.1828Y-2.6059
X6.1968Y-2.7979
X6.1968Y-2.9039
X6.1968Y-2.9339
X6.2268Y-2.9039
X6.2268Y-2.9339
X6.2328Y-2.6779
X6.2388Y-2.7959
X6.2568Y-3.1539
X6.2768Y-3.3139
X6.2811Y-2.7939
X6.3768Y-2.9539
X6.3868Y-3.0639
X6.4618Y-4.0189
X6.4868Y-4.0589
X6.5118Y-4.0189
X6.5168Y-3.3639
X6.5468Y-3.4039
X6.5568Y-2.8139
X6.5768Y-3.3639
T3
X7.2897Y-2.8146
X7.2897Y-2.8933
T4
X5.1024Y-3.1024
X5.1024Y-3.2024
X5.1024Y-3.3024
X5.1024Y-3.4024
X5.1024Y-3.5024
X5.1024Y-3.6024
X5.1024Y-3.7024
X5.1024Y-3.8024
X5.1024Y-3.9024
X5.1024Y-4.0024
X5.315Y-3.937
X5.315Y-4.037
X5.315Y-4.137
X5.315Y-4.237
X5.315Y-4.337
X5.315Y-4.437
X5.315Y-4.537
X5.315Y-4.637
X5.315Y-4.737
X5.315Y-4.837
X5.315Y-4.937
X5.315Y-5.037
X5.315Y-5.137
X5.315Y-5.237
X5.315Y-5.337
X5.915Y-3.937
X5.915Y-4.037
X5.915Y-4.137
X5.915Y-4.237
X5.915Y-4.337
X5.915Y-4.437
X5.915Y-4.537
X5.915Y-4.637
X5.915Y-4.737
X5.915Y-4.837
X5.915Y-4.937
X5.915Y-5.037
X5.915Y-5.137
X5.915Y-5.237
X5.915Y-5.337
T5
X7.315Y-2.1055
X7.315Y-2.3024
X7.315Y-4.0155
X7.315Y-4.2124
X7.315Y-4.6555
X7.315Y-4.8524
T6
X5.0236Y-1.7638
X5.0236Y-5.3071
X7.3858Y-1.7638
X7.3858Y-5.3071
T2
G00X7.4404Y-3.362
M15
G01X7.4719Y-3.362
M16
G05
G00X7.4719Y-3.6435
M15
G01X7.4404Y-3.6435
M16
G05
T0
M30
