%TF.GenerationSoftware,KiCad,Pcbnew,(6.0.2)*%
%TF.CreationDate,2022-12-13T09:45:59-05:00*%
%TF.ProjectId,BREAD_Slice,42524541-445f-4536-9c69-63652e6b6963,rev?*%
%TF.SameCoordinates,Original*%
%TF.FileFunction,Soldermask,Bot*%
%TF.FilePolarity,Negative*%
%FSLAX46Y46*%
G04 Gerber Fmt 4.6, Leading zero omitted, Abs format (unit mm)*
G04 Created by KiCad (PCBNEW (6.0.2)) date 2022-12-13 09:45:59*
%MOMM*%
%LPD*%
G01*
G04 APERTURE LIST*
%ADD10C,5.600000*%
%ADD11R,1.600000X1.600000*%
%ADD12O,1.600000X1.600000*%
%ADD13R,1.700000X1.700000*%
%ADD14O,1.700000X1.700000*%
%ADD15O,1.900000X1.050000*%
%ADD16R,2.500000X2.500000*%
%ADD17C,2.500000*%
%ADD18R,1.308000X1.308000*%
%ADD19C,1.308000*%
G04 APERTURE END LIST*
%TO.C,SJ1*%
G36*
X158845800Y-82777000D02*
G01*
X154680200Y-82777000D01*
X154680200Y-80999000D01*
X158845800Y-80999000D01*
X158845800Y-82777000D01*
G37*
%TO.C,SJ2*%
G36*
X158845800Y-86079000D02*
G01*
X154680200Y-86079000D01*
X154680200Y-84301000D01*
X158845800Y-84301000D01*
X158845800Y-86079000D01*
G37*
%TD*%
D10*
%TO.C,H1*%
X127600000Y-44800000D03*
%TD*%
%TO.C,H2*%
X187600000Y-44800000D03*
%TD*%
%TO.C,H3*%
X127600000Y-134800000D03*
%TD*%
%TO.C,H4*%
X187600000Y-134800000D03*
%TD*%
D11*
%TO.C,A1*%
X135000000Y-100000000D03*
D12*
X135000000Y-102540000D03*
X135000000Y-105080000D03*
X135000000Y-107620000D03*
X135000000Y-110160000D03*
X135000000Y-112700000D03*
X135000000Y-115240000D03*
X135000000Y-117780000D03*
X135000000Y-120320000D03*
X135000000Y-122860000D03*
X135000000Y-125400000D03*
X135000000Y-127940000D03*
X135000000Y-130480000D03*
X135000000Y-133020000D03*
X135000000Y-135560000D03*
X150240000Y-135560000D03*
X150240000Y-133020000D03*
X150240000Y-130480000D03*
X150240000Y-127940000D03*
X150240000Y-125400000D03*
X150240000Y-122860000D03*
X150240000Y-120320000D03*
X150240000Y-117780000D03*
X150240000Y-115240000D03*
X150240000Y-112700000D03*
X150240000Y-110160000D03*
X150240000Y-107620000D03*
X150240000Y-105080000D03*
X150240000Y-102540000D03*
X150240000Y-100000000D03*
%TD*%
D13*
%TO.C,J1*%
X129600000Y-78800000D03*
D14*
X129600000Y-81340000D03*
X129600000Y-83880000D03*
X129600000Y-86420000D03*
X129600000Y-88960000D03*
X129600000Y-91500000D03*
X129600000Y-94040000D03*
X129600000Y-96580000D03*
X129600000Y-99120000D03*
X129600000Y-101660000D03*
%TD*%
D15*
%TO.C,J2*%
X189385000Y-92545000D03*
X189385000Y-85395000D03*
%TD*%
D16*
%TO.C,J4*%
X185800000Y-118250000D03*
D17*
X185800000Y-123250000D03*
%TD*%
D16*
%TO.C,J5*%
X185800000Y-101994000D03*
D17*
X185800000Y-106994000D03*
%TD*%
D16*
%TO.C,J3*%
X185800000Y-53480000D03*
D17*
X185800000Y-58480000D03*
%TD*%
D18*
%TO.C,BATT1*%
X185157500Y-73490000D03*
D19*
X185157500Y-71490000D03*
%TD*%
M02*
