%TF.GenerationSoftware,KiCad,Pcbnew,(6.0.2)*%
%TF.CreationDate,2022-12-13T09:45:59-05:00*%
%TF.ProjectId,BREAD_Slice,42524541-445f-4536-9c69-63652e6b6963,rev?*%
%TF.SameCoordinates,Original*%
%TF.FileFunction,Copper,L2,Bot*%
%TF.FilePolarity,Positive*%
%FSLAX46Y46*%
G04 Gerber Fmt 4.6, Leading zero omitted, Abs format (unit mm)*
G04 Created by KiCad (PCBNEW (6.0.2)) date 2022-12-13 09:45:59*
%MOMM*%
%LPD*%
G01*
G04 APERTURE LIST*
%TA.AperFunction,ComponentPad*%
%ADD10C,5.600000*%
%TD*%
%TA.AperFunction,ComponentPad*%
%ADD11R,1.600000X1.600000*%
%TD*%
%TA.AperFunction,ComponentPad*%
%ADD12O,1.600000X1.600000*%
%TD*%
%TA.AperFunction,ComponentPad*%
%ADD13R,1.700000X1.700000*%
%TD*%
%TA.AperFunction,ComponentPad*%
%ADD14O,1.700000X1.700000*%
%TD*%
%TA.AperFunction,ComponentPad*%
%ADD15O,1.900000X1.050000*%
%TD*%
%TA.AperFunction,ComponentPad*%
%ADD16R,2.500000X2.500000*%
%TD*%
%TA.AperFunction,ComponentPad*%
%ADD17C,2.500000*%
%TD*%
%TA.AperFunction,ComponentPad*%
%ADD18R,1.308000X1.308000*%
%TD*%
%TA.AperFunction,ComponentPad*%
%ADD19C,1.308000*%
%TD*%
%TA.AperFunction,SMDPad,CuDef*%
%ADD20R,1.168400X1.600200*%
%TD*%
%TA.AperFunction,ViaPad*%
%ADD21C,0.800000*%
%TD*%
%TA.AperFunction,Conductor*%
%ADD22C,0.500000*%
%TD*%
%TA.AperFunction,Conductor*%
%ADD23C,0.250000*%
%TD*%
%TA.AperFunction,Conductor*%
%ADD24C,1.500000*%
%TD*%
%TA.AperFunction,Conductor*%
%ADD25C,0.300000*%
%TD*%
G04 APERTURE END LIST*
D10*
%TO.P,H1,1*%
%TO.N,N/C*%
X127600000Y-44800000D03*
%TD*%
%TO.P,H2,1*%
%TO.N,N/C*%
X187600000Y-44800000D03*
%TD*%
%TO.P,H3,1*%
%TO.N,N/C*%
X127600000Y-134800000D03*
%TD*%
%TO.P,H4,1*%
%TO.N,N/C*%
X187600000Y-134800000D03*
%TD*%
D11*
%TO.P,A1,1,D1/TX*%
%TO.N,unconnected-(A1-Pad1)*%
X135000000Y-100000000D03*
D12*
%TO.P,A1,2,D0/RX*%
%TO.N,unconnected-(A1-Pad2)*%
X135000000Y-102540000D03*
%TO.P,A1,3,~{RESET}*%
%TO.N,unconnected-(A1-Pad3)*%
X135000000Y-105080000D03*
%TO.P,A1,4,GND*%
%TO.N,GND*%
X135000000Y-107620000D03*
%TO.P,A1,5,D2*%
%TO.N,/E_STOP*%
X135000000Y-110160000D03*
%TO.P,A1,6,D3*%
%TO.N,/INT*%
X135000000Y-112700000D03*
%TO.P,A1,7,D4*%
%TO.N,/SYNC*%
X135000000Y-115240000D03*
%TO.P,A1,8,D5*%
%TO.N,/~{CHG}*%
X135000000Y-117780000D03*
%TO.P,A1,9,D6*%
%TO.N,/~{PGOOD}*%
X135000000Y-120320000D03*
%TO.P,A1,10,D7*%
%TO.N,/CHGI*%
X135000000Y-122860000D03*
%TO.P,A1,11,D8*%
%TO.N,/PGOODI*%
X135000000Y-125400000D03*
%TO.P,A1,12,D9*%
%TO.N,unconnected-(A1-Pad12)*%
X135000000Y-127940000D03*
%TO.P,A1,13,D10*%
%TO.N,unconnected-(A1-Pad13)*%
X135000000Y-130480000D03*
%TO.P,A1,14,D11*%
%TO.N,unconnected-(A1-Pad14)*%
X135000000Y-133020000D03*
%TO.P,A1,15,D12*%
%TO.N,unconnected-(A1-Pad15)*%
X135000000Y-135560000D03*
%TO.P,A1,16,D13*%
%TO.N,unconnected-(A1-Pad16)*%
X150240000Y-135560000D03*
%TO.P,A1,17,3V3*%
%TO.N,unconnected-(A1-Pad17)*%
X150240000Y-133020000D03*
%TO.P,A1,18,AREF*%
%TO.N,unconnected-(A1-Pad18)*%
X150240000Y-130480000D03*
%TO.P,A1,19,A0*%
%TO.N,/ISET*%
X150240000Y-127940000D03*
%TO.P,A1,20,A1*%
%TO.N,unconnected-(A1-Pad20)*%
X150240000Y-125400000D03*
%TO.P,A1,21,A2*%
%TO.N,unconnected-(A1-Pad21)*%
X150240000Y-122860000D03*
%TO.P,A1,22,A3*%
%TO.N,unconnected-(A1-Pad22)*%
X150240000Y-120320000D03*
%TO.P,A1,23,A4*%
%TO.N,/I2C_DAT*%
X150240000Y-117780000D03*
%TO.P,A1,24,A5*%
%TO.N,/I2C_CLK*%
X150240000Y-115240000D03*
%TO.P,A1,25,A6*%
%TO.N,unconnected-(A1-Pad25)*%
X150240000Y-112700000D03*
%TO.P,A1,26,A7*%
%TO.N,unconnected-(A1-Pad26)*%
X150240000Y-110160000D03*
%TO.P,A1,27,+5V*%
%TO.N,+5V*%
X150240000Y-107620000D03*
%TO.P,A1,28,~{RESET}*%
%TO.N,unconnected-(A1-Pad28)*%
X150240000Y-105080000D03*
%TO.P,A1,29,GND*%
%TO.N,GND*%
X150240000Y-102540000D03*
%TO.P,A1,30,VIN*%
%TO.N,/PWR*%
X150240000Y-100000000D03*
%TD*%
D13*
%TO.P,J1,1,Pin_1*%
%TO.N,GND*%
X129600000Y-78800000D03*
D14*
%TO.P,J1,2,Pin_2*%
%TO.N,/PWR*%
X129600000Y-81340000D03*
%TO.P,J1,3,Pin_3*%
%TO.N,/I2C_CLK*%
X129600000Y-83880000D03*
%TO.P,J1,4,Pin_4*%
%TO.N,/I2C_DAT*%
X129600000Y-86420000D03*
%TO.P,J1,5,Pin_5*%
%TO.N,GND*%
X129600000Y-88960000D03*
%TO.P,J1,6,Pin_6*%
%TO.N,/E_STOP*%
X129600000Y-91500000D03*
%TO.P,J1,7,Pin_7*%
%TO.N,/INT*%
X129600000Y-94040000D03*
%TO.P,J1,8,Pin_8*%
%TO.N,/SYNC*%
X129600000Y-96580000D03*
%TO.P,J1,9,Pin_9*%
%TO.N,/PWR*%
X129600000Y-99120000D03*
%TO.P,J1,10,Pin_10*%
%TO.N,GND*%
X129600000Y-101660000D03*
%TD*%
D15*
%TO.P,J2,6,Shield*%
%TO.N,unconnected-(J2-Pad6)*%
X189385000Y-92545000D03*
X189385000Y-85395000D03*
%TD*%
D16*
%TO.P,J4,1,Pin_1*%
%TO.N,/PWR*%
X185800000Y-118250000D03*
D17*
%TO.P,J4,2,Pin_2*%
%TO.N,GND*%
X185800000Y-123250000D03*
%TD*%
D16*
%TO.P,J5,1,Pin_1*%
%TO.N,GND*%
X185800000Y-101994000D03*
D17*
%TO.P,J5,2,Pin_2*%
%TO.N,Net-(D2-PadA)*%
X185800000Y-106994000D03*
%TD*%
D16*
%TO.P,J3,1,Pin_1*%
%TO.N,/THERM*%
X185800000Y-53480000D03*
D17*
%TO.P,J3,2,Pin_2*%
%TO.N,GND*%
X185800000Y-58480000D03*
%TD*%
D18*
%TO.P,BATT1,1,2*%
%TO.N,VLIPO*%
X185157500Y-73490000D03*
D19*
%TO.P,BATT1,2,1*%
%TO.N,GND*%
X185157500Y-71490000D03*
%TD*%
D20*
%TO.P,SJ1,1,1*%
%TO.N,/OUT*%
X158160000Y-81888000D03*
%TO.P,SJ1,2,2*%
%TO.N,/EN1*%
X156763000Y-81888000D03*
%TO.P,SJ1,3,3*%
%TO.N,GND*%
X155366000Y-81888000D03*
%TD*%
%TO.P,SJ2,1,1*%
%TO.N,/OUT*%
X158160000Y-85190000D03*
%TO.P,SJ2,2,2*%
%TO.N,/EN2*%
X156763000Y-85190000D03*
%TO.P,SJ2,3,3*%
%TO.N,GND*%
X155366000Y-85190000D03*
%TD*%
D21*
%TO.N,GND*%
X157399502Y-74522000D03*
X158160000Y-74522000D03*
X157398000Y-73760000D03*
X158160000Y-73760000D03*
X156026400Y-68070400D03*
X133268000Y-78840000D03*
X133268000Y-92429000D03*
X158312400Y-68019600D03*
X157042400Y-66190800D03*
X166288000Y-86460000D03*
X165399000Y-102081000D03*
X164129000Y-102081000D03*
X167050000Y-85444000D03*
X165526000Y-85444000D03*
X164764000Y-103097000D03*
%TO.N,/CHGI*%
X139364000Y-124306000D03*
%TO.N,/PGOODI*%
X139364000Y-126592000D03*
%TO.N,/OUT*%
X159430000Y-84174000D03*
X158922000Y-80110000D03*
X149320800Y-74268000D03*
%TO.N,/~{CHG}*%
X156128000Y-71220000D03*
%TO.N,/~{PGOOD}*%
X157398000Y-71067600D03*
%TO.N,/ISET*%
X162224000Y-77824000D03*
%TO.N,/THERM*%
X161970000Y-75030000D03*
X166542000Y-71474000D03*
%TO.N,/EN1*%
X158464800Y-71016800D03*
%TO.N,/EN2*%
X159540503Y-70966000D03*
%TD*%
D22*
%TO.N,GND*%
X133268000Y-92429000D02*
X129799000Y-88960000D01*
X133268000Y-78840000D02*
X129640000Y-78840000D01*
X129640000Y-78840000D02*
X129600000Y-78800000D01*
D23*
%TO.N,/CHGI*%
X137918000Y-122860000D02*
X135000000Y-122860000D01*
X139364000Y-124306000D02*
X137918000Y-122860000D01*
D22*
%TO.N,/I2C_CLK*%
X150240000Y-115240000D02*
X143887000Y-115240000D01*
X140507000Y-111860000D02*
X140507000Y-94787000D01*
X140507000Y-94787000D02*
X129600000Y-83880000D01*
X143887000Y-115240000D02*
X140507000Y-111860000D01*
%TO.N,/I2C_DAT*%
X143061500Y-117780000D02*
X150240000Y-117780000D01*
X129600000Y-86420000D02*
X138475000Y-95295000D01*
X138475000Y-95295000D02*
X138475000Y-113193500D01*
X138475000Y-113193500D02*
X143061500Y-117780000D01*
%TO.N,/SYNC*%
X130982000Y-97962000D02*
X129600000Y-96580000D01*
X135000000Y-115240000D02*
X133536500Y-115240000D01*
X133536500Y-115240000D02*
X130982000Y-112685500D01*
X130982000Y-112685500D02*
X130982000Y-97962000D01*
%TO.N,/E_STOP*%
X133028500Y-94928500D02*
X129600000Y-91500000D01*
X135000000Y-110160000D02*
X133028500Y-110160000D01*
X133028500Y-110160000D02*
X133028500Y-94928500D01*
D23*
%TO.N,/PGOODI*%
X139364000Y-126592000D02*
X138172000Y-125400000D01*
X138172000Y-125400000D02*
X135000000Y-125400000D01*
D22*
%TO.N,/INT*%
X135000000Y-112700000D02*
X133790500Y-112700000D01*
X131682010Y-96122010D02*
X129600000Y-94040000D01*
X131682010Y-110591510D02*
X131682010Y-96122010D01*
X133790500Y-112700000D02*
X131682010Y-110591510D01*
D24*
%TO.N,/PWR*%
X133250489Y-134835328D02*
X133250489Y-136284672D01*
X134733817Y-137768000D02*
X176448000Y-137768000D01*
X187999511Y-126216489D02*
X187999511Y-120449511D01*
X129600000Y-81340000D02*
X134879000Y-81340000D01*
X128465500Y-99120000D02*
X129600000Y-99120000D01*
X127402500Y-81340000D02*
X125648000Y-83094500D01*
X128397919Y-99120000D02*
X127800489Y-99717430D01*
X127800489Y-129385328D02*
X133250489Y-134835328D01*
X129600000Y-99120000D02*
X128397919Y-99120000D01*
X125648000Y-96302500D02*
X128465500Y-99120000D01*
X125648000Y-83094500D02*
X125648000Y-96302500D01*
X150240000Y-96701000D02*
X150240000Y-100000000D01*
X187999511Y-120449511D02*
X185800000Y-118250000D01*
X176448000Y-137768000D02*
X187999511Y-126216489D01*
X129600000Y-81340000D02*
X127402500Y-81340000D01*
X134879000Y-81340000D02*
X150240000Y-96701000D01*
X127800489Y-99717430D02*
X127800489Y-129385328D01*
X133250489Y-136284672D02*
X134733817Y-137768000D01*
D23*
%TO.N,/OUT*%
X149320800Y-74268000D02*
X149320800Y-81178122D01*
X158414000Y-85190000D02*
X159430000Y-84174000D01*
X158160000Y-86240100D02*
X158160000Y-85190000D01*
X154551878Y-86409200D02*
X157990900Y-86409200D01*
X158922000Y-80110000D02*
X158922000Y-81126000D01*
X157990900Y-86409200D02*
X158160000Y-86240100D01*
X149320800Y-81178122D02*
X154551878Y-86409200D01*
X158160000Y-85190000D02*
X158414000Y-85190000D01*
X158922000Y-81126000D02*
X158160000Y-81888000D01*
D22*
%TO.N,/~{CHG}*%
X133750489Y-119029511D02*
X135000000Y-117780000D01*
X134482435Y-121569511D02*
X133750489Y-120837565D01*
X156128000Y-71136209D02*
X157597239Y-69666970D01*
X156128000Y-71220000D02*
X156128000Y-71136209D01*
X157597239Y-69666970D02*
X160078581Y-69666970D01*
X160839534Y-70427923D02*
X160839534Y-114068520D01*
X153338543Y-121569511D02*
X134482435Y-121569511D01*
X160078581Y-69666970D02*
X160839534Y-70427923D01*
X160839534Y-114068520D02*
X153338543Y-121569511D01*
X133750489Y-120837565D02*
X133750489Y-119029511D01*
D23*
%TO.N,/~{PGOOD}*%
X158215497Y-70241489D02*
X159840606Y-70241489D01*
X157398000Y-71067600D02*
X157398000Y-71058986D01*
X160265014Y-109470475D02*
X150540000Y-119195489D01*
X160265014Y-70665897D02*
X160265014Y-109470475D01*
X159840606Y-70241489D02*
X160265014Y-70665897D01*
X136124511Y-119195489D02*
X135000000Y-120320000D01*
X157398000Y-71058986D02*
X158215497Y-70241489D01*
X150540000Y-119195489D02*
X136124511Y-119195489D01*
D25*
%TO.N,/ISET*%
X162224000Y-115956000D02*
X150240000Y-127940000D01*
X162224000Y-77824000D02*
X162224000Y-115956000D01*
D23*
%TO.N,/THERM*%
X177210000Y-71474000D02*
X187374511Y-61309489D01*
X187374511Y-61309489D02*
X187374511Y-55054511D01*
X161970000Y-75030000D02*
X165526000Y-71474000D01*
X187374511Y-55054511D02*
X185800000Y-53480000D01*
X165526000Y-71474000D02*
X166542000Y-71474000D01*
X166542000Y-71474000D02*
X177210000Y-71474000D01*
%TO.N,/EN1*%
X156763000Y-80837900D02*
X156763000Y-81888000D01*
X158922000Y-78678900D02*
X156763000Y-80837900D01*
X158922000Y-71474000D02*
X158922000Y-78678900D01*
X158464800Y-71016800D02*
X158922000Y-71474000D01*
D25*
%TO.N,/EN2*%
X159684000Y-73665994D02*
X159684000Y-82447322D01*
X156763000Y-84089900D02*
X156763000Y-85190000D01*
X159540503Y-70966000D02*
X159540503Y-73522497D01*
X159540503Y-73522497D02*
X159684000Y-73665994D01*
X159684000Y-82447322D02*
X158211322Y-83920000D01*
X156932900Y-83920000D02*
X156763000Y-84089900D01*
X158211322Y-83920000D02*
X156932900Y-83920000D01*
%TD*%
%TA.AperFunction,Conductor*%
%TO.N,GND*%
G36*
X189997172Y-40759733D02*
G01*
X190203359Y-40891088D01*
X190291164Y-40947026D01*
X190300168Y-40953330D01*
X190616743Y-41196246D01*
X190625160Y-41203310D01*
X190629558Y-41207339D01*
X190919346Y-41472881D01*
X190927115Y-41480650D01*
X191146898Y-41720501D01*
X191178172Y-41784236D01*
X191180000Y-41805623D01*
X191180000Y-137794377D01*
X191159998Y-137862498D01*
X191146901Y-137879495D01*
X190927119Y-138119346D01*
X190919346Y-138127119D01*
X190625156Y-138396694D01*
X190616736Y-138403759D01*
X190486149Y-138503962D01*
X190419929Y-138529563D01*
X190409445Y-138530000D01*
X177475821Y-138530000D01*
X177407700Y-138509998D01*
X177361207Y-138456342D01*
X177351103Y-138386068D01*
X177380597Y-138321488D01*
X177386726Y-138314905D01*
X180944989Y-134756642D01*
X184494918Y-134756642D01*
X184509436Y-135103032D01*
X184529430Y-135232186D01*
X184549890Y-135364348D01*
X184562475Y-135445646D01*
X184653375Y-135780212D01*
X184781001Y-136102560D01*
X184782647Y-136105656D01*
X184782649Y-136105660D01*
X184827727Y-136190439D01*
X184943765Y-136408673D01*
X184945750Y-136411572D01*
X185137645Y-136691829D01*
X185137650Y-136691835D01*
X185139636Y-136694736D01*
X185366173Y-136957182D01*
X185620553Y-137192740D01*
X185899605Y-137398475D01*
X186199852Y-137571823D01*
X186517550Y-137710621D01*
X186520906Y-137711660D01*
X186520909Y-137711661D01*
X186845379Y-137812102D01*
X186848739Y-137813142D01*
X186852191Y-137813800D01*
X186852197Y-137813802D01*
X187185842Y-137877448D01*
X187185847Y-137877449D01*
X187189293Y-137878106D01*
X187417780Y-137895687D01*
X187531469Y-137904435D01*
X187531470Y-137904435D01*
X187534966Y-137904704D01*
X187764159Y-137896700D01*
X187877933Y-137892727D01*
X187877937Y-137892727D01*
X187881449Y-137892604D01*
X187884928Y-137892090D01*
X187884931Y-137892090D01*
X188220932Y-137842474D01*
X188220938Y-137842473D01*
X188224424Y-137841958D01*
X188227828Y-137841059D01*
X188227831Y-137841058D01*
X188556226Y-137754293D01*
X188556227Y-137754293D01*
X188559617Y-137753397D01*
X188882848Y-137628023D01*
X189190090Y-137467401D01*
X189477513Y-137273532D01*
X189741534Y-137048832D01*
X189770771Y-137017698D01*
X189976452Y-136798671D01*
X189976456Y-136798666D01*
X189978863Y-136796103D01*
X189980968Y-136793289D01*
X189980974Y-136793282D01*
X190184432Y-136521313D01*
X190186541Y-136518494D01*
X190203808Y-136489064D01*
X190266785Y-136381721D01*
X190361980Y-136219465D01*
X190407457Y-136117323D01*
X190501562Y-135905961D01*
X190501564Y-135905956D01*
X190502994Y-135902744D01*
X190607824Y-135572278D01*
X190675164Y-135232186D01*
X190696128Y-134982527D01*
X190703991Y-134888891D01*
X190703992Y-134888880D01*
X190704174Y-134886707D01*
X190705092Y-134821038D01*
X190705355Y-134802178D01*
X190705355Y-134802166D01*
X190705385Y-134800000D01*
X190705129Y-134795408D01*
X190690635Y-134536184D01*
X190686032Y-134453846D01*
X190684252Y-134443318D01*
X190628803Y-134115488D01*
X190628802Y-134115484D01*
X190628214Y-134112007D01*
X190617104Y-134073260D01*
X190596340Y-134000849D01*
X190532652Y-133778742D01*
X190449633Y-133577323D01*
X190401875Y-133461452D01*
X190401871Y-133461444D01*
X190400537Y-133458207D01*
X190233516Y-133154397D01*
X190033670Y-132871097D01*
X189803490Y-132611839D01*
X189621204Y-132447708D01*
X189548464Y-132382213D01*
X189548461Y-132382211D01*
X189545846Y-132379856D01*
X189263948Y-132178037D01*
X189260885Y-132176325D01*
X189260880Y-132176322D01*
X189008455Y-132035246D01*
X188961311Y-132008898D01*
X188958066Y-132007534D01*
X188958062Y-132007532D01*
X188644948Y-131875912D01*
X188641706Y-131874549D01*
X188638343Y-131873559D01*
X188638334Y-131873556D01*
X188433222Y-131813189D01*
X188309117Y-131776663D01*
X188021006Y-131725861D01*
X187971150Y-131717070D01*
X187971148Y-131717070D01*
X187967690Y-131716460D01*
X187964181Y-131716239D01*
X187964179Y-131716239D01*
X187625198Y-131694912D01*
X187625192Y-131694912D01*
X187621680Y-131694691D01*
X187523499Y-131699493D01*
X187278906Y-131711455D01*
X187278897Y-131711456D01*
X187275399Y-131711627D01*
X187271931Y-131712189D01*
X187271928Y-131712189D01*
X186936639Y-131766494D01*
X186936636Y-131766495D01*
X186933164Y-131767057D01*
X186929777Y-131768003D01*
X186929771Y-131768004D01*
X186653857Y-131845041D01*
X186599241Y-131860290D01*
X186455928Y-131918192D01*
X186281055Y-131988845D01*
X186281051Y-131988847D01*
X186277791Y-131990164D01*
X186274704Y-131991833D01*
X186274700Y-131991835D01*
X186188719Y-132038325D01*
X185972822Y-132155060D01*
X185688134Y-132352923D01*
X185685492Y-132355236D01*
X185685488Y-132355239D01*
X185585780Y-132442527D01*
X185427276Y-132581287D01*
X185193499Y-132837306D01*
X184989717Y-133117787D01*
X184818470Y-133419237D01*
X184800377Y-133461452D01*
X184683966Y-133733060D01*
X184681893Y-133737896D01*
X184669561Y-133778742D01*
X184584365Y-134060924D01*
X184581687Y-134069793D01*
X184519102Y-134410792D01*
X184494918Y-134756642D01*
X180944989Y-134756642D01*
X188696970Y-127004661D01*
X188707113Y-126995559D01*
X188733257Y-126974539D01*
X188733258Y-126974538D01*
X188738064Y-126970674D01*
X188771668Y-126930626D01*
X188774820Y-126927014D01*
X188776801Y-126924830D01*
X188778984Y-126922647D01*
X188780930Y-126920277D01*
X188780948Y-126920258D01*
X188807429Y-126888019D01*
X188808212Y-126887075D01*
X188870487Y-126812859D01*
X188873163Y-126807992D01*
X188876684Y-126803705D01*
X188896308Y-126767108D01*
X188922426Y-126718397D01*
X188923055Y-126717238D01*
X188969735Y-126632327D01*
X188971413Y-126627036D01*
X188974036Y-126622145D01*
X188978735Y-126606778D01*
X189002353Y-126529526D01*
X189002745Y-126528267D01*
X189027216Y-126451122D01*
X189032027Y-126435957D01*
X189032645Y-126430443D01*
X189034269Y-126425133D01*
X189044065Y-126328692D01*
X189044198Y-126327445D01*
X189045745Y-126313658D01*
X189050011Y-126275625D01*
X189050011Y-126272120D01*
X189050095Y-126270619D01*
X189050543Y-126264923D01*
X189054466Y-126226302D01*
X189054466Y-126226296D01*
X189055088Y-126220173D01*
X189050570Y-126172376D01*
X189050011Y-126160519D01*
X189050011Y-120513643D01*
X189050748Y-120500035D01*
X189054371Y-120466689D01*
X189054371Y-120466685D01*
X189055036Y-120460564D01*
X189053471Y-120442679D01*
X189050485Y-120408539D01*
X189050156Y-120403715D01*
X189050011Y-120400752D01*
X189050011Y-120397670D01*
X189047703Y-120374133D01*
X189045643Y-120353119D01*
X189045521Y-120351806D01*
X189041419Y-120304925D01*
X189037081Y-120255335D01*
X189035533Y-120250006D01*
X189034991Y-120244481D01*
X189006978Y-120151698D01*
X189006636Y-120150543D01*
X188997353Y-120118591D01*
X188979605Y-120057501D01*
X188977049Y-120052571D01*
X188975446Y-120047260D01*
X188933567Y-119968495D01*
X188929948Y-119961688D01*
X188929336Y-119960522D01*
X188899296Y-119902571D01*
X188884797Y-119874599D01*
X188881337Y-119870264D01*
X188878729Y-119865360D01*
X188855930Y-119837405D01*
X188817447Y-119790221D01*
X188816619Y-119789194D01*
X188786340Y-119751264D01*
X188786337Y-119751261D01*
X188784142Y-119748511D01*
X188781650Y-119746019D01*
X188780678Y-119744932D01*
X188776963Y-119740583D01*
X188752417Y-119710486D01*
X188752414Y-119710483D01*
X188748522Y-119705711D01*
X188711527Y-119675106D01*
X188702748Y-119667117D01*
X187387405Y-118351773D01*
X187353379Y-118289461D01*
X187350500Y-118262678D01*
X187350500Y-116955354D01*
X187347382Y-116929154D01*
X187337584Y-116907094D01*
X187306663Y-116837482D01*
X187301939Y-116826847D01*
X187222713Y-116747759D01*
X187212076Y-116743056D01*
X187212074Y-116743055D01*
X187140619Y-116711465D01*
X187120327Y-116702494D01*
X187094646Y-116699500D01*
X184505354Y-116699500D01*
X184501650Y-116699941D01*
X184501647Y-116699941D01*
X184494254Y-116700821D01*
X184479154Y-116702618D01*
X184470514Y-116706456D01*
X184470513Y-116706456D01*
X184434528Y-116722440D01*
X184376847Y-116748061D01*
X184297759Y-116827287D01*
X184293056Y-116837924D01*
X184293055Y-116837926D01*
X184266735Y-116897462D01*
X184252494Y-116929673D01*
X184249500Y-116955354D01*
X184249500Y-119544646D01*
X184252618Y-119570846D01*
X184298061Y-119673153D01*
X184306294Y-119681372D01*
X184306295Y-119681373D01*
X184326740Y-119701782D01*
X184377287Y-119752241D01*
X184387924Y-119756944D01*
X184387926Y-119756945D01*
X184447462Y-119783265D01*
X184479673Y-119797506D01*
X184505354Y-119800500D01*
X185812679Y-119800500D01*
X185880800Y-119820502D01*
X185901774Y-119837405D01*
X186912106Y-120847738D01*
X186946132Y-120910050D01*
X186949011Y-120936833D01*
X186949011Y-121666632D01*
X186929009Y-121734753D01*
X186875353Y-121781246D01*
X186805079Y-121791350D01*
X186751191Y-121770160D01*
X186698588Y-121733668D01*
X186690562Y-121728940D01*
X186464593Y-121617505D01*
X186455960Y-121614017D01*
X186215998Y-121537205D01*
X186206938Y-121535029D01*
X185958260Y-121494529D01*
X185948973Y-121493717D01*
X185697053Y-121490419D01*
X185687742Y-121490989D01*
X185438097Y-121524964D01*
X185428978Y-121526902D01*
X185187098Y-121597404D01*
X185178367Y-121600667D01*
X184949558Y-121706151D01*
X184941406Y-121710670D01*
X184762353Y-121828062D01*
X184753216Y-121838803D01*
X184757789Y-121848579D01*
X186070115Y-123160905D01*
X186104141Y-123223217D01*
X186099076Y-123294032D01*
X186070115Y-123339095D01*
X184762270Y-124646940D01*
X184755612Y-124659133D01*
X184764325Y-124670653D01*
X184862018Y-124742284D01*
X184869928Y-124747227D01*
X185092890Y-124864533D01*
X185101453Y-124868256D01*
X185339304Y-124951318D01*
X185348313Y-124953732D01*
X185595842Y-125000727D01*
X185605098Y-125001781D01*
X185856857Y-125011673D01*
X185866171Y-125011347D01*
X186116615Y-124983920D01*
X186125792Y-124982219D01*
X186369431Y-124918074D01*
X186378251Y-124915037D01*
X186609736Y-124815583D01*
X186618008Y-124811276D01*
X186756708Y-124725446D01*
X186825160Y-124706608D01*
X186892930Y-124727769D01*
X186938501Y-124782210D01*
X186949011Y-124832590D01*
X186949011Y-125729168D01*
X186929009Y-125797289D01*
X186912106Y-125818263D01*
X176049773Y-136680595D01*
X175987461Y-136714621D01*
X175960678Y-136717500D01*
X150908411Y-136717500D01*
X150840290Y-136697498D01*
X150793797Y-136643842D01*
X150783693Y-136573568D01*
X150813187Y-136508988D01*
X150846844Y-136481566D01*
X150860960Y-136473661D01*
X150860967Y-136473656D01*
X150866001Y-136470837D01*
X150928433Y-136418913D01*
X151017073Y-136345191D01*
X151021505Y-136341505D01*
X151150837Y-136186001D01*
X151249664Y-136009531D01*
X151284822Y-135905961D01*
X151312820Y-135823481D01*
X151312820Y-135823479D01*
X151314678Y-135818007D01*
X151315507Y-135812291D01*
X151315508Y-135812286D01*
X151332809Y-135692956D01*
X151343700Y-135617842D01*
X151345215Y-135560000D01*
X151326708Y-135358591D01*
X151271807Y-135163926D01*
X151182351Y-134982527D01*
X151164079Y-134958057D01*
X151064788Y-134825091D01*
X151064787Y-134825090D01*
X151061335Y-134820467D01*
X151038350Y-134799220D01*
X150917053Y-134687094D01*
X150917051Y-134687092D01*
X150912812Y-134683174D01*
X150885374Y-134665862D01*
X150746637Y-134578325D01*
X150741757Y-134575246D01*
X150553898Y-134500298D01*
X150355526Y-134460839D01*
X150349752Y-134460763D01*
X150349748Y-134460763D01*
X150247257Y-134459422D01*
X150153286Y-134458192D01*
X150147589Y-134459171D01*
X150147588Y-134459171D01*
X149959646Y-134491465D01*
X149959645Y-134491465D01*
X149953949Y-134492444D01*
X149764193Y-134562449D01*
X149590371Y-134665862D01*
X149438305Y-134799220D01*
X149313089Y-134958057D01*
X149218914Y-135137053D01*
X149158937Y-135330213D01*
X149135164Y-135531069D01*
X149148392Y-135732894D01*
X149198178Y-135928928D01*
X149282856Y-136112607D01*
X149286189Y-136117323D01*
X149392319Y-136267494D01*
X149399588Y-136277780D01*
X149544466Y-136418913D01*
X149549270Y-136422123D01*
X149645968Y-136486735D01*
X149691496Y-136541212D01*
X149700343Y-136611655D01*
X149669702Y-136675699D01*
X149609300Y-136713011D01*
X149575966Y-136717500D01*
X135668411Y-136717500D01*
X135600290Y-136697498D01*
X135553797Y-136643842D01*
X135543693Y-136573568D01*
X135573187Y-136508988D01*
X135606844Y-136481566D01*
X135620960Y-136473661D01*
X135620967Y-136473656D01*
X135626001Y-136470837D01*
X135688433Y-136418913D01*
X135777073Y-136345191D01*
X135781505Y-136341505D01*
X135910837Y-136186001D01*
X136009664Y-136009531D01*
X136044822Y-135905961D01*
X136072820Y-135823481D01*
X136072820Y-135823479D01*
X136074678Y-135818007D01*
X136075507Y-135812291D01*
X136075508Y-135812286D01*
X136092809Y-135692956D01*
X136103700Y-135617842D01*
X136105215Y-135560000D01*
X136086708Y-135358591D01*
X136031807Y-135163926D01*
X135942351Y-134982527D01*
X135924079Y-134958057D01*
X135824788Y-134825091D01*
X135824787Y-134825090D01*
X135821335Y-134820467D01*
X135798350Y-134799220D01*
X135677053Y-134687094D01*
X135677051Y-134687092D01*
X135672812Y-134683174D01*
X135645374Y-134665862D01*
X135506637Y-134578325D01*
X135501757Y-134575246D01*
X135313898Y-134500298D01*
X135115526Y-134460839D01*
X135109752Y-134460763D01*
X135109748Y-134460763D01*
X135007257Y-134459422D01*
X134913286Y-134458192D01*
X134907589Y-134459171D01*
X134907588Y-134459171D01*
X134719646Y-134491465D01*
X134719645Y-134491465D01*
X134713949Y-134492444D01*
X134524193Y-134562449D01*
X134519232Y-134565401D01*
X134519231Y-134565401D01*
X134443352Y-134610544D01*
X134374581Y-134628184D01*
X134307191Y-134605843D01*
X134262577Y-134550615D01*
X134258328Y-134538749D01*
X134257955Y-134537513D01*
X134257614Y-134536360D01*
X134247137Y-134500298D01*
X134230583Y-134443318D01*
X134228027Y-134438388D01*
X134226424Y-134433077D01*
X134214575Y-134410792D01*
X134180926Y-134347505D01*
X134180314Y-134346339D01*
X134138610Y-134265886D01*
X134135775Y-134260416D01*
X134132315Y-134256081D01*
X134129707Y-134251177D01*
X134068425Y-134176038D01*
X134067597Y-134175011D01*
X134037318Y-134137081D01*
X134037315Y-134137078D01*
X134035120Y-134134328D01*
X134032628Y-134131836D01*
X134031656Y-134130749D01*
X134027941Y-134126400D01*
X134003395Y-134096303D01*
X134003392Y-134096300D01*
X133999500Y-134091528D01*
X133962505Y-134060923D01*
X133953726Y-134052934D01*
X132891861Y-132991069D01*
X133895164Y-132991069D01*
X133908392Y-133192894D01*
X133958178Y-133388928D01*
X134042856Y-133572607D01*
X134159588Y-133737780D01*
X134304466Y-133878913D01*
X134472637Y-133991282D01*
X134477940Y-133993560D01*
X134477943Y-133993562D01*
X134566291Y-134031519D01*
X134658470Y-134071122D01*
X134855740Y-134115760D01*
X134861509Y-134115987D01*
X134861512Y-134115987D01*
X134937683Y-134118979D01*
X135057842Y-134123700D01*
X135161870Y-134108617D01*
X135252286Y-134095508D01*
X135252291Y-134095507D01*
X135258007Y-134094678D01*
X135263479Y-134092820D01*
X135263481Y-134092820D01*
X135444067Y-134031519D01*
X135444069Y-134031518D01*
X135449531Y-134029664D01*
X135626001Y-133930837D01*
X135688433Y-133878913D01*
X135777073Y-133805191D01*
X135781505Y-133801505D01*
X135910837Y-133646001D01*
X136009664Y-133469531D01*
X136012407Y-133461452D01*
X136072820Y-133283481D01*
X136072820Y-133283479D01*
X136074678Y-133278007D01*
X136075507Y-133272291D01*
X136075508Y-133272286D01*
X136093017Y-133151520D01*
X136103700Y-133077842D01*
X136105215Y-133020000D01*
X136102557Y-132991069D01*
X149135164Y-132991069D01*
X149148392Y-133192894D01*
X149198178Y-133388928D01*
X149282856Y-133572607D01*
X149399588Y-133737780D01*
X149544466Y-133878913D01*
X149712637Y-133991282D01*
X149717940Y-133993560D01*
X149717943Y-133993562D01*
X149806291Y-134031519D01*
X149898470Y-134071122D01*
X150095740Y-134115760D01*
X150101509Y-134115987D01*
X150101512Y-134115987D01*
X150177683Y-134118979D01*
X150297842Y-134123700D01*
X150401870Y-134108617D01*
X150492286Y-134095508D01*
X150492291Y-134095507D01*
X150498007Y-134094678D01*
X150503479Y-134092820D01*
X150503481Y-134092820D01*
X150684067Y-134031519D01*
X150684069Y-134031518D01*
X150689531Y-134029664D01*
X150866001Y-133930837D01*
X150928433Y-133878913D01*
X151017073Y-133805191D01*
X151021505Y-133801505D01*
X151150837Y-133646001D01*
X151249664Y-133469531D01*
X151252407Y-133461452D01*
X151312820Y-133283481D01*
X151312820Y-133283479D01*
X151314678Y-133278007D01*
X151315507Y-133272291D01*
X151315508Y-133272286D01*
X151333017Y-133151520D01*
X151343700Y-133077842D01*
X151345215Y-133020000D01*
X151326708Y-132818591D01*
X151271807Y-132623926D01*
X151182351Y-132442527D01*
X151164079Y-132418057D01*
X151064788Y-132285091D01*
X151064787Y-132285090D01*
X151061335Y-132280467D01*
X151038350Y-132259220D01*
X150917053Y-132147094D01*
X150917051Y-132147092D01*
X150912812Y-132143174D01*
X150885374Y-132125862D01*
X150746637Y-132038325D01*
X150741757Y-132035246D01*
X150553898Y-131960298D01*
X150355526Y-131920839D01*
X150349752Y-131920763D01*
X150349748Y-131920763D01*
X150247257Y-131919422D01*
X150153286Y-131918192D01*
X150147589Y-131919171D01*
X150147588Y-131919171D01*
X149959646Y-131951465D01*
X149959645Y-131951465D01*
X149953949Y-131952444D01*
X149764193Y-132022449D01*
X149590371Y-132125862D01*
X149438305Y-132259220D01*
X149313089Y-132418057D01*
X149218914Y-132597053D01*
X149158937Y-132790213D01*
X149135164Y-132991069D01*
X136102557Y-132991069D01*
X136086708Y-132818591D01*
X136031807Y-132623926D01*
X135942351Y-132442527D01*
X135924079Y-132418057D01*
X135824788Y-132285091D01*
X135824787Y-132285090D01*
X135821335Y-132280467D01*
X135798350Y-132259220D01*
X135677053Y-132147094D01*
X135677051Y-132147092D01*
X135672812Y-132143174D01*
X135645374Y-132125862D01*
X135506637Y-132038325D01*
X135501757Y-132035246D01*
X135313898Y-131960298D01*
X135115526Y-131920839D01*
X135109752Y-131920763D01*
X135109748Y-131920763D01*
X135007257Y-131919422D01*
X134913286Y-131918192D01*
X134907589Y-131919171D01*
X134907588Y-131919171D01*
X134719646Y-131951465D01*
X134719645Y-131951465D01*
X134713949Y-131952444D01*
X134524193Y-132022449D01*
X134350371Y-132125862D01*
X134198305Y-132259220D01*
X134073089Y-132418057D01*
X133978914Y-132597053D01*
X133918937Y-132790213D01*
X133895164Y-132991069D01*
X132891861Y-132991069D01*
X130351862Y-130451069D01*
X133895164Y-130451069D01*
X133908392Y-130652894D01*
X133958178Y-130848928D01*
X134042856Y-131032607D01*
X134159588Y-131197780D01*
X134304466Y-131338913D01*
X134472637Y-131451282D01*
X134477940Y-131453560D01*
X134477943Y-131453562D01*
X134566291Y-131491519D01*
X134658470Y-131531122D01*
X134855740Y-131575760D01*
X134861509Y-131575987D01*
X134861512Y-131575987D01*
X134937683Y-131578979D01*
X135057842Y-131583700D01*
X135144132Y-131571189D01*
X135252286Y-131555508D01*
X135252291Y-131555507D01*
X135258007Y-131554678D01*
X135263479Y-131552820D01*
X135263481Y-131552820D01*
X135444067Y-131491519D01*
X135444069Y-131491518D01*
X135449531Y-131489664D01*
X135626001Y-131390837D01*
X135688433Y-131338913D01*
X135777073Y-131265191D01*
X135781505Y-131261505D01*
X135910837Y-131106001D01*
X136009664Y-130929531D01*
X136074678Y-130738007D01*
X136075507Y-130732291D01*
X136075508Y-130732286D01*
X136103167Y-130541516D01*
X136103700Y-130537842D01*
X136105215Y-130480000D01*
X136102557Y-130451069D01*
X149135164Y-130451069D01*
X149148392Y-130652894D01*
X149198178Y-130848928D01*
X149282856Y-131032607D01*
X149399588Y-131197780D01*
X149544466Y-131338913D01*
X149712637Y-131451282D01*
X149717940Y-131453560D01*
X149717943Y-131453562D01*
X149806291Y-131491519D01*
X149898470Y-131531122D01*
X150095740Y-131575760D01*
X150101509Y-131575987D01*
X150101512Y-131575987D01*
X150177683Y-131578979D01*
X150297842Y-131583700D01*
X150384132Y-131571189D01*
X150492286Y-131555508D01*
X150492291Y-131555507D01*
X150498007Y-131554678D01*
X150503479Y-131552820D01*
X150503481Y-131552820D01*
X150684067Y-131491519D01*
X150684069Y-131491518D01*
X150689531Y-131489664D01*
X150866001Y-131390837D01*
X150928433Y-131338913D01*
X151017073Y-131265191D01*
X151021505Y-131261505D01*
X151150837Y-131106001D01*
X151249664Y-130929531D01*
X151314678Y-130738007D01*
X151315507Y-130732291D01*
X151315508Y-130732286D01*
X151343167Y-130541516D01*
X151343700Y-130537842D01*
X151345215Y-130480000D01*
X151326708Y-130278591D01*
X151271807Y-130083926D01*
X151182351Y-129902527D01*
X151164079Y-129878057D01*
X151064788Y-129745091D01*
X151064787Y-129745090D01*
X151061335Y-129740467D01*
X151038350Y-129719220D01*
X150917053Y-129607094D01*
X150917051Y-129607092D01*
X150912812Y-129603174D01*
X150882742Y-129584201D01*
X150746637Y-129498325D01*
X150741757Y-129495246D01*
X150553898Y-129420298D01*
X150355526Y-129380839D01*
X150349752Y-129380763D01*
X150349748Y-129380763D01*
X150247257Y-129379422D01*
X150153286Y-129378192D01*
X150147589Y-129379171D01*
X150147588Y-129379171D01*
X149959646Y-129411465D01*
X149959645Y-129411465D01*
X149953949Y-129412444D01*
X149764193Y-129482449D01*
X149759232Y-129485401D01*
X149759231Y-129485401D01*
X149600327Y-129579939D01*
X149590371Y-129585862D01*
X149438305Y-129719220D01*
X149313089Y-129878057D01*
X149218914Y-130057053D01*
X149158937Y-130250213D01*
X149135164Y-130451069D01*
X136102557Y-130451069D01*
X136086708Y-130278591D01*
X136031807Y-130083926D01*
X135942351Y-129902527D01*
X135924079Y-129878057D01*
X135824788Y-129745091D01*
X135824787Y-129745090D01*
X135821335Y-129740467D01*
X135798350Y-129719220D01*
X135677053Y-129607094D01*
X135677051Y-129607092D01*
X135672812Y-129603174D01*
X135642742Y-129584201D01*
X135506637Y-129498325D01*
X135501757Y-129495246D01*
X135313898Y-129420298D01*
X135115526Y-129380839D01*
X135109752Y-129380763D01*
X135109748Y-129380763D01*
X135007257Y-129379422D01*
X134913286Y-129378192D01*
X134907589Y-129379171D01*
X134907588Y-129379171D01*
X134719646Y-129411465D01*
X134719645Y-129411465D01*
X134713949Y-129412444D01*
X134524193Y-129482449D01*
X134519232Y-129485401D01*
X134519231Y-129485401D01*
X134360327Y-129579939D01*
X134350371Y-129585862D01*
X134198305Y-129719220D01*
X134073089Y-129878057D01*
X133978914Y-130057053D01*
X133918937Y-130250213D01*
X133895164Y-130451069D01*
X130351862Y-130451069D01*
X128887894Y-128987101D01*
X128853868Y-128924789D01*
X128850989Y-128898006D01*
X128850989Y-127911069D01*
X133895164Y-127911069D01*
X133908392Y-128112894D01*
X133958178Y-128308928D01*
X134042856Y-128492607D01*
X134159588Y-128657780D01*
X134304466Y-128798913D01*
X134472637Y-128911282D01*
X134477940Y-128913560D01*
X134477943Y-128913562D01*
X134566291Y-128951519D01*
X134658470Y-128991122D01*
X134855740Y-129035760D01*
X134861509Y-129035987D01*
X134861512Y-129035987D01*
X134937683Y-129038979D01*
X135057842Y-129043700D01*
X135144132Y-129031189D01*
X135252286Y-129015508D01*
X135252291Y-129015507D01*
X135258007Y-129014678D01*
X135263479Y-129012820D01*
X135263481Y-129012820D01*
X135444067Y-128951519D01*
X135444069Y-128951518D01*
X135449531Y-128949664D01*
X135626001Y-128850837D01*
X135688433Y-128798913D01*
X135777073Y-128725191D01*
X135781505Y-128721505D01*
X135910837Y-128566001D01*
X136009664Y-128389531D01*
X136074678Y-128198007D01*
X136075507Y-128192291D01*
X136075508Y-128192286D01*
X136103167Y-128001516D01*
X136103700Y-127997842D01*
X136105215Y-127940000D01*
X136086708Y-127738591D01*
X136031807Y-127543926D01*
X135942351Y-127362527D01*
X135924079Y-127338057D01*
X135824788Y-127205091D01*
X135824787Y-127205090D01*
X135821335Y-127200467D01*
X135803264Y-127183762D01*
X135677053Y-127067094D01*
X135677051Y-127067092D01*
X135672812Y-127063174D01*
X135645374Y-127045862D01*
X135506637Y-126958325D01*
X135501757Y-126955246D01*
X135313898Y-126880298D01*
X135115526Y-126840839D01*
X135109752Y-126840763D01*
X135109748Y-126840763D01*
X135007257Y-126839422D01*
X134913286Y-126838192D01*
X134907589Y-126839171D01*
X134907588Y-126839171D01*
X134719646Y-126871465D01*
X134719645Y-126871465D01*
X134713949Y-126872444D01*
X134524193Y-126942449D01*
X134350371Y-127045862D01*
X134198305Y-127179220D01*
X134073089Y-127338057D01*
X133978914Y-127517053D01*
X133918937Y-127710213D01*
X133895164Y-127911069D01*
X128850989Y-127911069D01*
X128850989Y-125371069D01*
X133895164Y-125371069D01*
X133908392Y-125572894D01*
X133958178Y-125768928D01*
X134042856Y-125952607D01*
X134159588Y-126117780D01*
X134304466Y-126258913D01*
X134309270Y-126262123D01*
X134313691Y-126265077D01*
X134472637Y-126371282D01*
X134477940Y-126373560D01*
X134477943Y-126373562D01*
X134653163Y-126448842D01*
X134658470Y-126451122D01*
X134855740Y-126495760D01*
X134861509Y-126495987D01*
X134861512Y-126495987D01*
X134937683Y-126498979D01*
X135057842Y-126503700D01*
X135144132Y-126491189D01*
X135252286Y-126475508D01*
X135252291Y-126475507D01*
X135258007Y-126474678D01*
X135263479Y-126472820D01*
X135263481Y-126472820D01*
X135444067Y-126411519D01*
X135444069Y-126411518D01*
X135449531Y-126409664D01*
X135572017Y-126341069D01*
X135620964Y-126313658D01*
X135620965Y-126313657D01*
X135626001Y-126310837D01*
X135688433Y-126258913D01*
X135777073Y-126185191D01*
X135781505Y-126181505D01*
X135910837Y-126026001D01*
X135987038Y-125889933D01*
X136037774Y-125840272D01*
X136096972Y-125825500D01*
X137943562Y-125825500D01*
X138011683Y-125845502D01*
X138032657Y-125862405D01*
X138625680Y-126455428D01*
X138659706Y-126517740D01*
X138661507Y-126560967D01*
X138658394Y-126584611D01*
X138676999Y-126753135D01*
X138695505Y-126803705D01*
X138726201Y-126887584D01*
X138735266Y-126912356D01*
X138739502Y-126918659D01*
X138739502Y-126918660D01*
X138752574Y-126938113D01*
X138829830Y-127053083D01*
X138835442Y-127058190D01*
X138835445Y-127058193D01*
X138949612Y-127162077D01*
X138949616Y-127162080D01*
X138955233Y-127167191D01*
X138961906Y-127170814D01*
X138961910Y-127170817D01*
X139097558Y-127244467D01*
X139097560Y-127244468D01*
X139104235Y-127248092D01*
X139111584Y-127250020D01*
X139260883Y-127289188D01*
X139260885Y-127289188D01*
X139268233Y-127291116D01*
X139354609Y-127292473D01*
X139430161Y-127293660D01*
X139430164Y-127293660D01*
X139437760Y-127293779D01*
X139445165Y-127292083D01*
X139445166Y-127292083D01*
X139505586Y-127278245D01*
X139603029Y-127255928D01*
X139754498Y-127179747D01*
X139883423Y-127069634D01*
X139982361Y-126931947D01*
X139990662Y-126911298D01*
X140042766Y-126781687D01*
X140042767Y-126781685D01*
X140045601Y-126774634D01*
X140069490Y-126606778D01*
X140069645Y-126592000D01*
X140049276Y-126423680D01*
X139989345Y-126265077D01*
X139958483Y-126220173D01*
X139897614Y-126131608D01*
X139897613Y-126131607D01*
X139893312Y-126125349D01*
X139884817Y-126117780D01*
X139772392Y-126017612D01*
X139772388Y-126017610D01*
X139766721Y-126012560D01*
X139616881Y-125933224D01*
X139452441Y-125891919D01*
X139444843Y-125891879D01*
X139444841Y-125891879D01*
X139347216Y-125891368D01*
X139316487Y-125891207D01*
X139248472Y-125870849D01*
X139228052Y-125854304D01*
X138425220Y-125051472D01*
X138403837Y-125040577D01*
X138386991Y-125030253D01*
X138375604Y-125021980D01*
X138367581Y-125016151D01*
X138358150Y-125013087D01*
X138358147Y-125013085D01*
X138344763Y-125008736D01*
X138326502Y-125001172D01*
X138313964Y-124994784D01*
X138313963Y-124994784D01*
X138305126Y-124990281D01*
X138281429Y-124986528D01*
X138262210Y-124981914D01*
X138239393Y-124974500D01*
X136095648Y-124974500D01*
X136027527Y-124954498D01*
X135982642Y-124904228D01*
X135944907Y-124827710D01*
X135944906Y-124827708D01*
X135942351Y-124822527D01*
X135821335Y-124660467D01*
X135806702Y-124646940D01*
X135677053Y-124527094D01*
X135677051Y-124527092D01*
X135672812Y-124523174D01*
X135645374Y-124505862D01*
X135506637Y-124418325D01*
X135501757Y-124415246D01*
X135313898Y-124340298D01*
X135115526Y-124300839D01*
X135109752Y-124300763D01*
X135109748Y-124300763D01*
X135007257Y-124299422D01*
X134913286Y-124298192D01*
X134907589Y-124299171D01*
X134907588Y-124299171D01*
X134719646Y-124331465D01*
X134719645Y-124331465D01*
X134713949Y-124332444D01*
X134524193Y-124402449D01*
X134519232Y-124405401D01*
X134519231Y-124405401D01*
X134367474Y-124495687D01*
X134350371Y-124505862D01*
X134198305Y-124639220D01*
X134073089Y-124798057D01*
X133978914Y-124977053D01*
X133918937Y-125170213D01*
X133895164Y-125371069D01*
X128850989Y-125371069D01*
X128850989Y-103010690D01*
X128870991Y-102942569D01*
X128924647Y-102896076D01*
X128994921Y-102885972D01*
X129021938Y-102892980D01*
X129215001Y-102966703D01*
X129224899Y-102969579D01*
X129328250Y-102990606D01*
X129342299Y-102989410D01*
X129346000Y-102979065D01*
X129346000Y-101532000D01*
X129366002Y-101463879D01*
X129419658Y-101417386D01*
X129472000Y-101406000D01*
X129728000Y-101406000D01*
X129796121Y-101426002D01*
X129842614Y-101479658D01*
X129854000Y-101532000D01*
X129854000Y-102978517D01*
X129858064Y-102992359D01*
X129871478Y-102994393D01*
X129878184Y-102993534D01*
X129888262Y-102991392D01*
X130092255Y-102930191D01*
X130101842Y-102926433D01*
X130250067Y-102853818D01*
X130320041Y-102841811D01*
X130385398Y-102869541D01*
X130425388Y-102928204D01*
X130431500Y-102966969D01*
X130431500Y-112670507D01*
X130431389Y-112675783D01*
X130428790Y-112737794D01*
X130430752Y-112746159D01*
X130438727Y-112780162D01*
X130440890Y-112791833D01*
X130446794Y-112834932D01*
X130450206Y-112842816D01*
X130450206Y-112842817D01*
X130452765Y-112848730D01*
X130459799Y-112869999D01*
X130463232Y-112884636D01*
X130467369Y-112892161D01*
X130467370Y-112892164D01*
X130484195Y-112922768D01*
X130489411Y-112933413D01*
X130506695Y-112973355D01*
X130516158Y-112985041D01*
X130528645Y-113003625D01*
X130535893Y-113016808D01*
X130542897Y-113024922D01*
X130567433Y-113049458D01*
X130576258Y-113059259D01*
X130591955Y-113078642D01*
X130601614Y-113090570D01*
X130608612Y-113095543D01*
X130608617Y-113095548D01*
X130616948Y-113101468D01*
X130633054Y-113115079D01*
X133136630Y-115618655D01*
X133140271Y-115622451D01*
X133182299Y-115668156D01*
X133207961Y-115684067D01*
X133219283Y-115691087D01*
X133229065Y-115697810D01*
X133263717Y-115724112D01*
X133277695Y-115729646D01*
X133297699Y-115739707D01*
X133310486Y-115747635D01*
X133318737Y-115750032D01*
X133318739Y-115750033D01*
X133352272Y-115759775D01*
X133363502Y-115763620D01*
X133403953Y-115779636D01*
X133412495Y-115780534D01*
X133412500Y-115780535D01*
X133418909Y-115781209D01*
X133440885Y-115785520D01*
X133448985Y-115787873D01*
X133455325Y-115789715D01*
X133462303Y-115790227D01*
X133463708Y-115790331D01*
X133463719Y-115790331D01*
X133466015Y-115790500D01*
X133500710Y-115790500D01*
X133513881Y-115791190D01*
X133545402Y-115794503D01*
X133553955Y-115795402D01*
X133562427Y-115793969D01*
X133562429Y-115793969D01*
X133572502Y-115792265D01*
X133593515Y-115790500D01*
X133976124Y-115790500D01*
X134044245Y-115810502D01*
X134079021Y-115843780D01*
X134156252Y-115953060D01*
X134159588Y-115957780D01*
X134304466Y-116098913D01*
X134472637Y-116211282D01*
X134477940Y-116213560D01*
X134477943Y-116213562D01*
X134604354Y-116267872D01*
X134658470Y-116291122D01*
X134855740Y-116335760D01*
X134861509Y-116335987D01*
X134861512Y-116335987D01*
X134937683Y-116338979D01*
X135057842Y-116343700D01*
X135144132Y-116331189D01*
X135252286Y-116315508D01*
X135252291Y-116315507D01*
X135258007Y-116314678D01*
X135263479Y-116312820D01*
X135263481Y-116312820D01*
X135444067Y-116251519D01*
X135444069Y-116251518D01*
X135449531Y-116249664D01*
X135594972Y-116168214D01*
X135620964Y-116153658D01*
X135620965Y-116153657D01*
X135626001Y-116150837D01*
X135688433Y-116098913D01*
X135777073Y-116025191D01*
X135781505Y-116021505D01*
X135910837Y-115866001D01*
X136009664Y-115689531D01*
X136032431Y-115622464D01*
X136072820Y-115503481D01*
X136072820Y-115503479D01*
X136074678Y-115498007D01*
X136075507Y-115492291D01*
X136075508Y-115492286D01*
X136103167Y-115301516D01*
X136103700Y-115297842D01*
X136105215Y-115240000D01*
X136086708Y-115038591D01*
X136031807Y-114843926D01*
X135942351Y-114662527D01*
X135934935Y-114652595D01*
X135824788Y-114505091D01*
X135824787Y-114505090D01*
X135821335Y-114500467D01*
X135798350Y-114479220D01*
X135677053Y-114367094D01*
X135677051Y-114367092D01*
X135672812Y-114363174D01*
X135645374Y-114345862D01*
X135506637Y-114258325D01*
X135501757Y-114255246D01*
X135313898Y-114180298D01*
X135115526Y-114140839D01*
X135109752Y-114140763D01*
X135109748Y-114140763D01*
X135007257Y-114139422D01*
X134913286Y-114138192D01*
X134907589Y-114139171D01*
X134907588Y-114139171D01*
X134719646Y-114171465D01*
X134719645Y-114171465D01*
X134713949Y-114172444D01*
X134524193Y-114242449D01*
X134519232Y-114245401D01*
X134519231Y-114245401D01*
X134399101Y-114316871D01*
X134350371Y-114345862D01*
X134198305Y-114479220D01*
X134073089Y-114638057D01*
X134071822Y-114637058D01*
X134023700Y-114678360D01*
X133971900Y-114689500D01*
X133816715Y-114689500D01*
X133748594Y-114669498D01*
X133727620Y-114652595D01*
X131569405Y-112494381D01*
X131535380Y-112432069D01*
X131532500Y-112405286D01*
X131532500Y-111524715D01*
X131552502Y-111456594D01*
X131606158Y-111410101D01*
X131676432Y-111399997D01*
X131741012Y-111429491D01*
X131747595Y-111435620D01*
X133390618Y-113078642D01*
X133394271Y-113082451D01*
X133436299Y-113128156D01*
X133443599Y-113132682D01*
X133443600Y-113132683D01*
X133473283Y-113151087D01*
X133483053Y-113157801D01*
X133517716Y-113184112D01*
X133531701Y-113189649D01*
X133551709Y-113199713D01*
X133564486Y-113207635D01*
X133572732Y-113210031D01*
X133572735Y-113210032D01*
X133606265Y-113219773D01*
X133617485Y-113223613D01*
X133657953Y-113239636D01*
X133666494Y-113240534D01*
X133666495Y-113240534D01*
X133672908Y-113241208D01*
X133694883Y-113245520D01*
X133709325Y-113249715D01*
X133716808Y-113250264D01*
X133717708Y-113250331D01*
X133717719Y-113250331D01*
X133720015Y-113250500D01*
X133754717Y-113250500D01*
X133767887Y-113251190D01*
X133807954Y-113255401D01*
X133816419Y-113253969D01*
X133816428Y-113253969D01*
X133826500Y-113252265D01*
X133847513Y-113250500D01*
X133976124Y-113250500D01*
X134044245Y-113270502D01*
X134079021Y-113303780D01*
X134135909Y-113384275D01*
X134159588Y-113417780D01*
X134304466Y-113558913D01*
X134309270Y-113562123D01*
X134371267Y-113603548D01*
X134472637Y-113671282D01*
X134477940Y-113673560D01*
X134477943Y-113673562D01*
X134566291Y-113711519D01*
X134658470Y-113751122D01*
X134855740Y-113795760D01*
X134861509Y-113795987D01*
X134861512Y-113795987D01*
X134937683Y-113798979D01*
X135057842Y-113803700D01*
X135144132Y-113791189D01*
X135252286Y-113775508D01*
X135252291Y-113775507D01*
X135258007Y-113774678D01*
X135263479Y-113772820D01*
X135263481Y-113772820D01*
X135444067Y-113711519D01*
X135444069Y-113711518D01*
X135449531Y-113709664D01*
X135626001Y-113610837D01*
X135688433Y-113558913D01*
X135777073Y-113485191D01*
X135781505Y-113481505D01*
X135862371Y-113384275D01*
X135907146Y-113330439D01*
X135910837Y-113326001D01*
X136009664Y-113149531D01*
X136040308Y-113059259D01*
X136072820Y-112963481D01*
X136072820Y-112963479D01*
X136074678Y-112958007D01*
X136075507Y-112952291D01*
X136075508Y-112952286D01*
X136093757Y-112826419D01*
X136103700Y-112757842D01*
X136105215Y-112700000D01*
X136086708Y-112498591D01*
X136075113Y-112457476D01*
X136033376Y-112309490D01*
X136031807Y-112303926D01*
X135942351Y-112122527D01*
X135924079Y-112098057D01*
X135824788Y-111965091D01*
X135824787Y-111965090D01*
X135821335Y-111960467D01*
X135798350Y-111939220D01*
X135677053Y-111827094D01*
X135677051Y-111827092D01*
X135672812Y-111823174D01*
X135645374Y-111805862D01*
X135506637Y-111718325D01*
X135501757Y-111715246D01*
X135313898Y-111640298D01*
X135115526Y-111600839D01*
X135109752Y-111600763D01*
X135109748Y-111600763D01*
X135007257Y-111599422D01*
X134913286Y-111598192D01*
X134907589Y-111599171D01*
X134907588Y-111599171D01*
X134719646Y-111631465D01*
X134719645Y-111631465D01*
X134713949Y-111632444D01*
X134524193Y-111702449D01*
X134350371Y-111805862D01*
X134198305Y-111939220D01*
X134114139Y-112045985D01*
X134056262Y-112087096D01*
X133985342Y-112090390D01*
X133926097Y-112057072D01*
X132779647Y-110910622D01*
X132745622Y-110848311D01*
X132750686Y-110777496D01*
X132793233Y-110720660D01*
X132859753Y-110695849D01*
X132896055Y-110700854D01*
X132896484Y-110698837D01*
X132904883Y-110700622D01*
X132912968Y-110703533D01*
X132921537Y-110704162D01*
X132929939Y-110705948D01*
X132929902Y-110706124D01*
X132934442Y-110706941D01*
X132934485Y-110706703D01*
X132940983Y-110707872D01*
X132947325Y-110709715D01*
X132954808Y-110710265D01*
X132955708Y-110710331D01*
X132955719Y-110710331D01*
X132958015Y-110710500D01*
X133003208Y-110710500D01*
X133012436Y-110710838D01*
X133036525Y-110712607D01*
X133063391Y-110714580D01*
X133071807Y-110712883D01*
X133073223Y-110712794D01*
X133096201Y-110710500D01*
X133976124Y-110710500D01*
X134044245Y-110730502D01*
X134079021Y-110763780D01*
X134156252Y-110873060D01*
X134159588Y-110877780D01*
X134304466Y-111018913D01*
X134472637Y-111131282D01*
X134477940Y-111133560D01*
X134477943Y-111133562D01*
X134566291Y-111171519D01*
X134658470Y-111211122D01*
X134855740Y-111255760D01*
X134861509Y-111255987D01*
X134861512Y-111255987D01*
X134937683Y-111258979D01*
X135057842Y-111263700D01*
X135144132Y-111251189D01*
X135252286Y-111235508D01*
X135252291Y-111235507D01*
X135258007Y-111234678D01*
X135263479Y-111232820D01*
X135263481Y-111232820D01*
X135444067Y-111171519D01*
X135444069Y-111171518D01*
X135449531Y-111169664D01*
X135626001Y-111070837D01*
X135688433Y-111018913D01*
X135777073Y-110945191D01*
X135781505Y-110941505D01*
X135910837Y-110786001D01*
X136009664Y-110609531D01*
X136040085Y-110519916D01*
X136072820Y-110423481D01*
X136072820Y-110423479D01*
X136074678Y-110418007D01*
X136075507Y-110412291D01*
X136075508Y-110412286D01*
X136101308Y-110234337D01*
X136103700Y-110217842D01*
X136105215Y-110160000D01*
X136086708Y-109958591D01*
X136031807Y-109763926D01*
X135942351Y-109582527D01*
X135924079Y-109558057D01*
X135824788Y-109425091D01*
X135824787Y-109425090D01*
X135821335Y-109420467D01*
X135798350Y-109399220D01*
X135677053Y-109287094D01*
X135677051Y-109287092D01*
X135672812Y-109283174D01*
X135645374Y-109265862D01*
X135506637Y-109178325D01*
X135501757Y-109175246D01*
X135496396Y-109173107D01*
X135496394Y-109173106D01*
X135350933Y-109115073D01*
X135295073Y-109071252D01*
X135271773Y-109004188D01*
X135288429Y-108935173D01*
X135339753Y-108886118D01*
X135365013Y-108876336D01*
X135443759Y-108855237D01*
X135454053Y-108851490D01*
X135651511Y-108759414D01*
X135661007Y-108753931D01*
X135839467Y-108628972D01*
X135847875Y-108621916D01*
X136001916Y-108467875D01*
X136008972Y-108459467D01*
X136133931Y-108281007D01*
X136139414Y-108271511D01*
X136231490Y-108074053D01*
X136235236Y-108063761D01*
X136281394Y-107891497D01*
X136281058Y-107877401D01*
X136273116Y-107874000D01*
X134872000Y-107874000D01*
X134803879Y-107853998D01*
X134757386Y-107800342D01*
X134746000Y-107748000D01*
X134746000Y-107492000D01*
X134766002Y-107423879D01*
X134819658Y-107377386D01*
X134872000Y-107366000D01*
X136267967Y-107366000D01*
X136281498Y-107362027D01*
X136282727Y-107353478D01*
X136235236Y-107176239D01*
X136231490Y-107165947D01*
X136139414Y-106968489D01*
X136133931Y-106958993D01*
X136008972Y-106780533D01*
X136001916Y-106772125D01*
X135847875Y-106618084D01*
X135839467Y-106611028D01*
X135661007Y-106486069D01*
X135651511Y-106480586D01*
X135454053Y-106388510D01*
X135443761Y-106384764D01*
X135362361Y-106362953D01*
X135301738Y-106326001D01*
X135270717Y-106262140D01*
X135279145Y-106191646D01*
X135324348Y-106136899D01*
X135354470Y-106121933D01*
X135444067Y-106091519D01*
X135444069Y-106091518D01*
X135449531Y-106089664D01*
X135626001Y-105990837D01*
X135688433Y-105938913D01*
X135777073Y-105865191D01*
X135781505Y-105861505D01*
X135886102Y-105735741D01*
X135907146Y-105710439D01*
X135910837Y-105706001D01*
X136009664Y-105529531D01*
X136040364Y-105439094D01*
X136072820Y-105343481D01*
X136072820Y-105343479D01*
X136074678Y-105338007D01*
X136075507Y-105332291D01*
X136075508Y-105332286D01*
X136103167Y-105141516D01*
X136103700Y-105137842D01*
X136105215Y-105080000D01*
X136086708Y-104878591D01*
X136031807Y-104683926D01*
X135942351Y-104502527D01*
X135924079Y-104478057D01*
X135824788Y-104345091D01*
X135824787Y-104345090D01*
X135821335Y-104340467D01*
X135798350Y-104319220D01*
X135677053Y-104207094D01*
X135677051Y-104207092D01*
X135672812Y-104203174D01*
X135645374Y-104185862D01*
X135506637Y-104098325D01*
X135501757Y-104095246D01*
X135313898Y-104020298D01*
X135115526Y-103980839D01*
X135109752Y-103980763D01*
X135109748Y-103980763D01*
X135007257Y-103979422D01*
X134913286Y-103978192D01*
X134907589Y-103979171D01*
X134907588Y-103979171D01*
X134719646Y-104011465D01*
X134719645Y-104011465D01*
X134713949Y-104012444D01*
X134524193Y-104082449D01*
X134350371Y-104185862D01*
X134198305Y-104319220D01*
X134073089Y-104478057D01*
X133978914Y-104657053D01*
X133918937Y-104850213D01*
X133895164Y-105051069D01*
X133908392Y-105252894D01*
X133958178Y-105448928D01*
X134042856Y-105632607D01*
X134159588Y-105797780D01*
X134304466Y-105938913D01*
X134472637Y-106051282D01*
X134477940Y-106053560D01*
X134477943Y-106053562D01*
X134648957Y-106127035D01*
X134703650Y-106172303D01*
X134725187Y-106239954D01*
X134706730Y-106308510D01*
X134654139Y-106356204D01*
X134631830Y-106364510D01*
X134556239Y-106384764D01*
X134545947Y-106388510D01*
X134348489Y-106480586D01*
X134338993Y-106486069D01*
X134160533Y-106611028D01*
X134152125Y-106618084D01*
X133998084Y-106772125D01*
X133991028Y-106780533D01*
X133866069Y-106958993D01*
X133860586Y-106968489D01*
X133819195Y-107057253D01*
X133772278Y-107110538D01*
X133704000Y-107129999D01*
X133636040Y-107109457D01*
X133589975Y-107055434D01*
X133579000Y-107004003D01*
X133579000Y-102511069D01*
X133895164Y-102511069D01*
X133908392Y-102712894D01*
X133909815Y-102718496D01*
X133954128Y-102892980D01*
X133958178Y-102908928D01*
X134042856Y-103092607D01*
X134159588Y-103257780D01*
X134163730Y-103261815D01*
X134198299Y-103295490D01*
X134304466Y-103398913D01*
X134472637Y-103511282D01*
X134477940Y-103513560D01*
X134477943Y-103513562D01*
X134566291Y-103551519D01*
X134658470Y-103591122D01*
X134855740Y-103635760D01*
X134861509Y-103635987D01*
X134861512Y-103635987D01*
X134937683Y-103638979D01*
X135057842Y-103643700D01*
X135144132Y-103631189D01*
X135252286Y-103615508D01*
X135252291Y-103615507D01*
X135258007Y-103614678D01*
X135263479Y-103612820D01*
X135263481Y-103612820D01*
X135444067Y-103551519D01*
X135444069Y-103551518D01*
X135449531Y-103549664D01*
X135626001Y-103450837D01*
X135688433Y-103398913D01*
X135777073Y-103325191D01*
X135781505Y-103321505D01*
X135910837Y-103166001D01*
X136009664Y-102989531D01*
X136029808Y-102930191D01*
X136072820Y-102803481D01*
X136072820Y-102803479D01*
X136074678Y-102798007D01*
X136075507Y-102792291D01*
X136075508Y-102792286D01*
X136103167Y-102601516D01*
X136103700Y-102597842D01*
X136105215Y-102540000D01*
X136086708Y-102338591D01*
X136031807Y-102143926D01*
X135942351Y-101962527D01*
X135924079Y-101938057D01*
X135824788Y-101805091D01*
X135824787Y-101805090D01*
X135821335Y-101800467D01*
X135798350Y-101779220D01*
X135677053Y-101667094D01*
X135677051Y-101667092D01*
X135672812Y-101663174D01*
X135645374Y-101645862D01*
X135506637Y-101558325D01*
X135501757Y-101555246D01*
X135313898Y-101480298D01*
X135115526Y-101440839D01*
X135109752Y-101440763D01*
X135109748Y-101440763D01*
X135007257Y-101439422D01*
X134913286Y-101438192D01*
X134907589Y-101439171D01*
X134907588Y-101439171D01*
X134719646Y-101471465D01*
X134719645Y-101471465D01*
X134713949Y-101472444D01*
X134524193Y-101542449D01*
X134350371Y-101645862D01*
X134198305Y-101779220D01*
X134073089Y-101938057D01*
X133978914Y-102117053D01*
X133918937Y-102310213D01*
X133895164Y-102511069D01*
X133579000Y-102511069D01*
X133579000Y-100844646D01*
X133899500Y-100844646D01*
X133902618Y-100870846D01*
X133948061Y-100973153D01*
X134027287Y-101052241D01*
X134037924Y-101056944D01*
X134037926Y-101056945D01*
X134097462Y-101083265D01*
X134129673Y-101097506D01*
X134155354Y-101100500D01*
X135844646Y-101100500D01*
X135848350Y-101100059D01*
X135848353Y-101100059D01*
X135855746Y-101099179D01*
X135870846Y-101097382D01*
X135882281Y-101092303D01*
X135962518Y-101056663D01*
X135973153Y-101051939D01*
X136052241Y-100972713D01*
X136079597Y-100910837D01*
X136093675Y-100878992D01*
X136097506Y-100870327D01*
X136100500Y-100844646D01*
X136100500Y-99155354D01*
X136097382Y-99129154D01*
X136051939Y-99026847D01*
X135972713Y-98947759D01*
X135962076Y-98943056D01*
X135962074Y-98943055D01*
X135902538Y-98916735D01*
X135870327Y-98902494D01*
X135844646Y-98899500D01*
X134155354Y-98899500D01*
X134151650Y-98899941D01*
X134151647Y-98899941D01*
X134144254Y-98900821D01*
X134129154Y-98902618D01*
X134026847Y-98948061D01*
X133947759Y-99027287D01*
X133902494Y-99129673D01*
X133899500Y-99155354D01*
X133899500Y-100844646D01*
X133579000Y-100844646D01*
X133579000Y-94943493D01*
X133579111Y-94938217D01*
X133581350Y-94884791D01*
X133581710Y-94876206D01*
X133579180Y-94865421D01*
X133571773Y-94833838D01*
X133569610Y-94822167D01*
X133564872Y-94787581D01*
X133563706Y-94779068D01*
X133557735Y-94765270D01*
X133550701Y-94744001D01*
X133549230Y-94737728D01*
X133549229Y-94737726D01*
X133547268Y-94729364D01*
X133526305Y-94691234D01*
X133521083Y-94680573D01*
X133507216Y-94648527D01*
X133507215Y-94648526D01*
X133503805Y-94640645D01*
X133494342Y-94628959D01*
X133481851Y-94610371D01*
X133474606Y-94597192D01*
X133467603Y-94589078D01*
X133443067Y-94564542D01*
X133434242Y-94554741D01*
X133414294Y-94530108D01*
X133414293Y-94530107D01*
X133408886Y-94523430D01*
X133401888Y-94518457D01*
X133401883Y-94518452D01*
X133393552Y-94512532D01*
X133377446Y-94498921D01*
X130758394Y-91879869D01*
X130724368Y-91817557D01*
X130724876Y-91769929D01*
X130723504Y-91769730D01*
X130753314Y-91564140D01*
X130753314Y-91564138D01*
X130753846Y-91560470D01*
X130755429Y-91500000D01*
X130736081Y-91289440D01*
X130678686Y-91085931D01*
X130667553Y-91063354D01*
X130587719Y-90901469D01*
X130585165Y-90896290D01*
X130458651Y-90726867D01*
X130303381Y-90583337D01*
X130124554Y-90470505D01*
X130100643Y-90460966D01*
X130044785Y-90417147D01*
X130021483Y-90350083D01*
X130038138Y-90281068D01*
X130089461Y-90232013D01*
X130101348Y-90226627D01*
X130101842Y-90226433D01*
X130293095Y-90132739D01*
X130301945Y-90127464D01*
X130475328Y-90003792D01*
X130483200Y-89997139D01*
X130634052Y-89846812D01*
X130640730Y-89838965D01*
X130765003Y-89666020D01*
X130770313Y-89657183D01*
X130864670Y-89466267D01*
X130868469Y-89456672D01*
X130930377Y-89252910D01*
X130932555Y-89242837D01*
X130933986Y-89231962D01*
X130931775Y-89217778D01*
X130918617Y-89214000D01*
X128283225Y-89214000D01*
X128269694Y-89217973D01*
X128268257Y-89227966D01*
X128298565Y-89362446D01*
X128301645Y-89372275D01*
X128381770Y-89569603D01*
X128386413Y-89578794D01*
X128497694Y-89760388D01*
X128503777Y-89768699D01*
X128643213Y-89929667D01*
X128650580Y-89936883D01*
X128814434Y-90072916D01*
X128822881Y-90078831D01*
X129006756Y-90186279D01*
X129016046Y-90190730D01*
X129100328Y-90222914D01*
X129156832Y-90265901D01*
X129181125Y-90332612D01*
X129165495Y-90401867D01*
X129109628Y-90454348D01*
X129107990Y-90455129D01*
X129102575Y-90457127D01*
X129097613Y-90460079D01*
X129097611Y-90460080D01*
X129074913Y-90473584D01*
X128920856Y-90565238D01*
X128761881Y-90704655D01*
X128630976Y-90870708D01*
X128628287Y-90875819D01*
X128628285Y-90875822D01*
X128614792Y-90901469D01*
X128532523Y-91057836D01*
X128469820Y-91259773D01*
X128444967Y-91469754D01*
X128458796Y-91680749D01*
X128460217Y-91686345D01*
X128460218Y-91686350D01*
X128481445Y-91769929D01*
X128510845Y-91885690D01*
X128513262Y-91890933D01*
X128539978Y-91948885D01*
X128599369Y-92077714D01*
X128721405Y-92250391D01*
X128872865Y-92397937D01*
X128877661Y-92401142D01*
X128877664Y-92401144D01*
X128904467Y-92419053D01*
X129048677Y-92515411D01*
X129053985Y-92517692D01*
X129053986Y-92517692D01*
X129237650Y-92596600D01*
X129237653Y-92596601D01*
X129242953Y-92598878D01*
X129248582Y-92600152D01*
X129248583Y-92600152D01*
X129443550Y-92644269D01*
X129443553Y-92644269D01*
X129449186Y-92645544D01*
X129454958Y-92645771D01*
X129460687Y-92646525D01*
X129460327Y-92649257D01*
X129516604Y-92668216D01*
X129560950Y-92723659D01*
X129568282Y-92794276D01*
X129536271Y-92857647D01*
X129475081Y-92893651D01*
X129465704Y-92895632D01*
X129306650Y-92922962D01*
X129306649Y-92922962D01*
X129300953Y-92923941D01*
X129102575Y-92997127D01*
X129097614Y-93000079D01*
X129097613Y-93000079D01*
X128957936Y-93083178D01*
X128920856Y-93105238D01*
X128761881Y-93244655D01*
X128630976Y-93410708D01*
X128628287Y-93415819D01*
X128628285Y-93415822D01*
X128578400Y-93510638D01*
X128532523Y-93597836D01*
X128469820Y-93799773D01*
X128444967Y-94009754D01*
X128458796Y-94220749D01*
X128460217Y-94226345D01*
X128460218Y-94226350D01*
X128493541Y-94357557D01*
X128510845Y-94425690D01*
X128513262Y-94430933D01*
X128524676Y-94455692D01*
X128599369Y-94617714D01*
X128721405Y-94790391D01*
X128725539Y-94794418D01*
X128823585Y-94889930D01*
X128872865Y-94937937D01*
X128877661Y-94941142D01*
X128877664Y-94941144D01*
X128966455Y-95000472D01*
X129048677Y-95055411D01*
X129053985Y-95057692D01*
X129053986Y-95057692D01*
X129237650Y-95136600D01*
X129237653Y-95136601D01*
X129242953Y-95138878D01*
X129248582Y-95140152D01*
X129248583Y-95140152D01*
X129443550Y-95184269D01*
X129443553Y-95184269D01*
X129449186Y-95185544D01*
X129454958Y-95185771D01*
X129460687Y-95186525D01*
X129460327Y-95189257D01*
X129516604Y-95208216D01*
X129560950Y-95263659D01*
X129568282Y-95334276D01*
X129536271Y-95397647D01*
X129475081Y-95433651D01*
X129465704Y-95435632D01*
X129306650Y-95462962D01*
X129306649Y-95462962D01*
X129300953Y-95463941D01*
X129102575Y-95537127D01*
X129097614Y-95540079D01*
X129097613Y-95540079D01*
X129038555Y-95575215D01*
X128920856Y-95645238D01*
X128761881Y-95784655D01*
X128630976Y-95950708D01*
X128628287Y-95955819D01*
X128628285Y-95955822D01*
X128606923Y-95996425D01*
X128532523Y-96137836D01*
X128469820Y-96339773D01*
X128444967Y-96549754D01*
X128458796Y-96760749D01*
X128460217Y-96766345D01*
X128460218Y-96766350D01*
X128490580Y-96885897D01*
X128510845Y-96965690D01*
X128513262Y-96970933D01*
X128530058Y-97007367D01*
X128599369Y-97157714D01*
X128721405Y-97330391D01*
X128872865Y-97477937D01*
X128877661Y-97481142D01*
X128877664Y-97481144D01*
X129020936Y-97576875D01*
X129048677Y-97595411D01*
X129053985Y-97597692D01*
X129053986Y-97597692D01*
X129237650Y-97676600D01*
X129237653Y-97676601D01*
X129242953Y-97678878D01*
X129248582Y-97680152D01*
X129248583Y-97680152D01*
X129443550Y-97724269D01*
X129443553Y-97724269D01*
X129449186Y-97725544D01*
X129454958Y-97725771D01*
X129460687Y-97726525D01*
X129460327Y-97729257D01*
X129516604Y-97748216D01*
X129560950Y-97803659D01*
X129568282Y-97874276D01*
X129536271Y-97937647D01*
X129475081Y-97973651D01*
X129465704Y-97975632D01*
X129306650Y-98002962D01*
X129306649Y-98002962D01*
X129300953Y-98003941D01*
X129273598Y-98014033D01*
X129144359Y-98061712D01*
X129100748Y-98069500D01*
X128952821Y-98069500D01*
X128884700Y-98049498D01*
X128863726Y-98032595D01*
X126735405Y-95904273D01*
X126701379Y-95841961D01*
X126698500Y-95815178D01*
X126698500Y-83581821D01*
X126718502Y-83513700D01*
X126735405Y-83492726D01*
X127800726Y-82427405D01*
X127863038Y-82393379D01*
X127889821Y-82390500D01*
X129104428Y-82390500D01*
X129154165Y-82400732D01*
X129237650Y-82436600D01*
X129237653Y-82436601D01*
X129242953Y-82438878D01*
X129248582Y-82440152D01*
X129248583Y-82440152D01*
X129443550Y-82484269D01*
X129443553Y-82484269D01*
X129449186Y-82485544D01*
X129454958Y-82485771D01*
X129460687Y-82486525D01*
X129460327Y-82489257D01*
X129516604Y-82508216D01*
X129560950Y-82563659D01*
X129568282Y-82634276D01*
X129536271Y-82697647D01*
X129475081Y-82733651D01*
X129465704Y-82735632D01*
X129306650Y-82762962D01*
X129306649Y-82762962D01*
X129300953Y-82763941D01*
X129102575Y-82837127D01*
X129097614Y-82840079D01*
X129097613Y-82840079D01*
X128926721Y-82941749D01*
X128920856Y-82945238D01*
X128761881Y-83084655D01*
X128630976Y-83250708D01*
X128628287Y-83255819D01*
X128628285Y-83255822D01*
X128614792Y-83281469D01*
X128532523Y-83437836D01*
X128469820Y-83639773D01*
X128444967Y-83849754D01*
X128458796Y-84060749D01*
X128460217Y-84066345D01*
X128460218Y-84066350D01*
X128498527Y-84217187D01*
X128510845Y-84265690D01*
X128599369Y-84457714D01*
X128721405Y-84630391D01*
X128797135Y-84704164D01*
X128856246Y-84761747D01*
X128872865Y-84777937D01*
X128877661Y-84781142D01*
X128877664Y-84781144D01*
X128999376Y-84862469D01*
X129048677Y-84895411D01*
X129053985Y-84897692D01*
X129053986Y-84897692D01*
X129237650Y-84976600D01*
X129237653Y-84976601D01*
X129242953Y-84978878D01*
X129248582Y-84980152D01*
X129248583Y-84980152D01*
X129443550Y-85024269D01*
X129443553Y-85024269D01*
X129449186Y-85025544D01*
X129454958Y-85025771D01*
X129460687Y-85026525D01*
X129460327Y-85029257D01*
X129516604Y-85048216D01*
X129560950Y-85103659D01*
X129568282Y-85174276D01*
X129536271Y-85237647D01*
X129475081Y-85273651D01*
X129465704Y-85275632D01*
X129306650Y-85302962D01*
X129306649Y-85302962D01*
X129300953Y-85303941D01*
X129102575Y-85377127D01*
X129097614Y-85380079D01*
X129097613Y-85380079D01*
X129080089Y-85390505D01*
X128920856Y-85485238D01*
X128761881Y-85624655D01*
X128630976Y-85790708D01*
X128628287Y-85795819D01*
X128628285Y-85795822D01*
X128598048Y-85853294D01*
X128532523Y-85977836D01*
X128469820Y-86179773D01*
X128444967Y-86389754D01*
X128458796Y-86600749D01*
X128460217Y-86606345D01*
X128460218Y-86606350D01*
X128496883Y-86750714D01*
X128510845Y-86805690D01*
X128599369Y-86997714D01*
X128721405Y-87170391D01*
X128872865Y-87317937D01*
X128877661Y-87321142D01*
X128877664Y-87321144D01*
X129020936Y-87416875D01*
X129048677Y-87435411D01*
X129053980Y-87437690D01*
X129053985Y-87437692D01*
X129088818Y-87452657D01*
X129106768Y-87460369D01*
X129161460Y-87505636D01*
X129182998Y-87573287D01*
X129164541Y-87641842D01*
X129111951Y-87689537D01*
X129096175Y-87695901D01*
X129076868Y-87702212D01*
X129067359Y-87706209D01*
X128878463Y-87804542D01*
X128869738Y-87810036D01*
X128699433Y-87937905D01*
X128691726Y-87944748D01*
X128544590Y-88098717D01*
X128538104Y-88106727D01*
X128418098Y-88282649D01*
X128413000Y-88291623D01*
X128323338Y-88484783D01*
X128319775Y-88494470D01*
X128264389Y-88694183D01*
X128265912Y-88702607D01*
X128278292Y-88706000D01*
X130918344Y-88706000D01*
X130948199Y-88697234D01*
X130983339Y-88674652D01*
X131054336Y-88674654D01*
X131107929Y-88706454D01*
X137887595Y-95486120D01*
X137921621Y-95548432D01*
X137924500Y-95575215D01*
X137924500Y-113178507D01*
X137924389Y-113183783D01*
X137921790Y-113245794D01*
X137923752Y-113254159D01*
X137931727Y-113288162D01*
X137933890Y-113299833D01*
X137939794Y-113342932D01*
X137943206Y-113350816D01*
X137943206Y-113350817D01*
X137945765Y-113356730D01*
X137952799Y-113377999D01*
X137956232Y-113392636D01*
X137960369Y-113400161D01*
X137960370Y-113400164D01*
X137977195Y-113430768D01*
X137982411Y-113441413D01*
X137999695Y-113481355D01*
X138009158Y-113493041D01*
X138021645Y-113511625D01*
X138028893Y-113524808D01*
X138035897Y-113532922D01*
X138060433Y-113557458D01*
X138069258Y-113567259D01*
X138089206Y-113591892D01*
X138094614Y-113598570D01*
X138101612Y-113603543D01*
X138101617Y-113603548D01*
X138109948Y-113609468D01*
X138126054Y-113623079D01*
X142661630Y-118158655D01*
X142665283Y-118162464D01*
X142707299Y-118208156D01*
X142744289Y-118231091D01*
X142754043Y-118237794D01*
X142788717Y-118264113D01*
X142796703Y-118267275D01*
X142802698Y-118269649D01*
X142822702Y-118279709D01*
X142835486Y-118287635D01*
X142877263Y-118299772D01*
X142888492Y-118303617D01*
X142920963Y-118316473D01*
X142920966Y-118316474D01*
X142928953Y-118319636D01*
X142937499Y-118320534D01*
X142937502Y-118320535D01*
X142943909Y-118321209D01*
X142965885Y-118325520D01*
X142973988Y-118327874D01*
X142980325Y-118329715D01*
X142987303Y-118330227D01*
X142988708Y-118330331D01*
X142988719Y-118330331D01*
X142991015Y-118330500D01*
X143025710Y-118330500D01*
X143038881Y-118331190D01*
X143078955Y-118335402D01*
X143087427Y-118333969D01*
X143087429Y-118333969D01*
X143097502Y-118332265D01*
X143118515Y-118330500D01*
X149216124Y-118330500D01*
X149284245Y-118350502D01*
X149319021Y-118383780D01*
X149334725Y-118406001D01*
X149399588Y-118497780D01*
X149403730Y-118501815D01*
X149457028Y-118553735D01*
X149491866Y-118615596D01*
X149487729Y-118686472D01*
X149445930Y-118743860D01*
X149379741Y-118769539D01*
X149369107Y-118769989D01*
X136057118Y-118769989D01*
X136047691Y-118773052D01*
X136047684Y-118773053D01*
X136034299Y-118777402D01*
X136015080Y-118782016D01*
X136001183Y-118784217D01*
X136001176Y-118784219D01*
X135991385Y-118785770D01*
X135970009Y-118796662D01*
X135951748Y-118804225D01*
X135928930Y-118811639D01*
X135920908Y-118817468D01*
X135920907Y-118817468D01*
X135909522Y-118825740D01*
X135892667Y-118836070D01*
X135871291Y-118846961D01*
X135475564Y-119242688D01*
X135413252Y-119276714D01*
X135339781Y-119270624D01*
X135334165Y-119268384D01*
X135313898Y-119260298D01*
X135115526Y-119220839D01*
X135109752Y-119220763D01*
X135109748Y-119220763D01*
X135007257Y-119219422D01*
X134913286Y-119218192D01*
X134907589Y-119219171D01*
X134907588Y-119219171D01*
X134719646Y-119251465D01*
X134719645Y-119251465D01*
X134713949Y-119252444D01*
X134648163Y-119276714D01*
X134606427Y-119292111D01*
X134535593Y-119296923D01*
X134473403Y-119262676D01*
X134439601Y-119200243D01*
X134444918Y-119129445D01*
X134473721Y-119084804D01*
X134665550Y-118892975D01*
X134727862Y-118858949D01*
X134782453Y-118859177D01*
X134850104Y-118874485D01*
X134850107Y-118874485D01*
X134855740Y-118875760D01*
X134861509Y-118875987D01*
X134861512Y-118875987D01*
X134937683Y-118878979D01*
X135057842Y-118883700D01*
X135144132Y-118871189D01*
X135252286Y-118855508D01*
X135252291Y-118855507D01*
X135258007Y-118854678D01*
X135263479Y-118852820D01*
X135263481Y-118852820D01*
X135444067Y-118791519D01*
X135444069Y-118791518D01*
X135449531Y-118789664D01*
X135626001Y-118690837D01*
X135688433Y-118638913D01*
X135777073Y-118565191D01*
X135781505Y-118561505D01*
X135910837Y-118406001D01*
X136009664Y-118229531D01*
X136032431Y-118162464D01*
X136072820Y-118043481D01*
X136072820Y-118043479D01*
X136074678Y-118038007D01*
X136075507Y-118032291D01*
X136075508Y-118032286D01*
X136103167Y-117841516D01*
X136103700Y-117837842D01*
X136105215Y-117780000D01*
X136086708Y-117578591D01*
X136031807Y-117383926D01*
X135942351Y-117202527D01*
X135934935Y-117192595D01*
X135824788Y-117045091D01*
X135824787Y-117045090D01*
X135821335Y-117040467D01*
X135798350Y-117019220D01*
X135677053Y-116907094D01*
X135677051Y-116907092D01*
X135672812Y-116903174D01*
X135645374Y-116885862D01*
X135506637Y-116798325D01*
X135501757Y-116795246D01*
X135313898Y-116720298D01*
X135115526Y-116680839D01*
X135109752Y-116680763D01*
X135109748Y-116680763D01*
X135007257Y-116679422D01*
X134913286Y-116678192D01*
X134907589Y-116679171D01*
X134907588Y-116679171D01*
X134719646Y-116711465D01*
X134719645Y-116711465D01*
X134713949Y-116712444D01*
X134524193Y-116782449D01*
X134519232Y-116785401D01*
X134519231Y-116785401D01*
X134431691Y-116837482D01*
X134350371Y-116885862D01*
X134198305Y-117019220D01*
X134073089Y-117178057D01*
X133978914Y-117357053D01*
X133918937Y-117550213D01*
X133895164Y-117751069D01*
X133908392Y-117952894D01*
X133909815Y-117958496D01*
X133919148Y-117995246D01*
X133916530Y-118066194D01*
X133886120Y-118115356D01*
X133371847Y-118629629D01*
X133368038Y-118633282D01*
X133322333Y-118675310D01*
X133299390Y-118712313D01*
X133292689Y-118722063D01*
X133266377Y-118756728D01*
X133261305Y-118769539D01*
X133260843Y-118770706D01*
X133250782Y-118790710D01*
X133242854Y-118803497D01*
X133240457Y-118811748D01*
X133240456Y-118811750D01*
X133230714Y-118845283D01*
X133226869Y-118856513D01*
X133210853Y-118896964D01*
X133209955Y-118905505D01*
X133209955Y-118905506D01*
X133209281Y-118911919D01*
X133204969Y-118933894D01*
X133200774Y-118948336D01*
X133199989Y-118959026D01*
X133199989Y-118993728D01*
X133199299Y-119006898D01*
X133195088Y-119046965D01*
X133196520Y-119055430D01*
X133196520Y-119055439D01*
X133198224Y-119065511D01*
X133199989Y-119086524D01*
X133199989Y-120822572D01*
X133199878Y-120827848D01*
X133197279Y-120889859D01*
X133199241Y-120898224D01*
X133207216Y-120932227D01*
X133209379Y-120943898D01*
X133215283Y-120986997D01*
X133218695Y-120994881D01*
X133218695Y-120994882D01*
X133221254Y-121000795D01*
X133228288Y-121022064D01*
X133231721Y-121036701D01*
X133235858Y-121044226D01*
X133235859Y-121044229D01*
X133252684Y-121074833D01*
X133257900Y-121085478D01*
X133275184Y-121125420D01*
X133284647Y-121137106D01*
X133297134Y-121155690D01*
X133304382Y-121168873D01*
X133311386Y-121176987D01*
X133335922Y-121201523D01*
X133344747Y-121211324D01*
X133364695Y-121235957D01*
X133370103Y-121242635D01*
X133377102Y-121247609D01*
X133377103Y-121247610D01*
X133385435Y-121253531D01*
X133401540Y-121267141D01*
X134082565Y-121948165D01*
X134086218Y-121951975D01*
X134122420Y-121991345D01*
X134122423Y-121991347D01*
X134126714Y-121996014D01*
X134126716Y-121996017D01*
X134128234Y-121997667D01*
X134127985Y-121997896D01*
X134164741Y-122052320D01*
X134166359Y-122123298D01*
X134143635Y-122168569D01*
X134073089Y-122258057D01*
X133978914Y-122437053D01*
X133918937Y-122630213D01*
X133895164Y-122831069D01*
X133908392Y-123032894D01*
X133909815Y-123038496D01*
X133956728Y-123223217D01*
X133958178Y-123228928D01*
X134042856Y-123412607D01*
X134159588Y-123577780D01*
X134304466Y-123718913D01*
X134472637Y-123831282D01*
X134477940Y-123833560D01*
X134477943Y-123833562D01*
X134566291Y-123871519D01*
X134658470Y-123911122D01*
X134855740Y-123955760D01*
X134861509Y-123955987D01*
X134861512Y-123955987D01*
X134937683Y-123958979D01*
X135057842Y-123963700D01*
X135144132Y-123951189D01*
X135252286Y-123935508D01*
X135252291Y-123935507D01*
X135258007Y-123934678D01*
X135263479Y-123932820D01*
X135263481Y-123932820D01*
X135444067Y-123871519D01*
X135444069Y-123871518D01*
X135449531Y-123869664D01*
X135626001Y-123770837D01*
X135688433Y-123718913D01*
X135777073Y-123645191D01*
X135781505Y-123641505D01*
X135910837Y-123486001D01*
X135987038Y-123349933D01*
X136037774Y-123300272D01*
X136096972Y-123285500D01*
X137689562Y-123285500D01*
X137757683Y-123305502D01*
X137778657Y-123322405D01*
X138625680Y-124169428D01*
X138659706Y-124231740D01*
X138661507Y-124274967D01*
X138658394Y-124298611D01*
X138676999Y-124467135D01*
X138735266Y-124626356D01*
X138739502Y-124632659D01*
X138739502Y-124632660D01*
X138749098Y-124646940D01*
X138829830Y-124767083D01*
X138835442Y-124772190D01*
X138835445Y-124772193D01*
X138949612Y-124876077D01*
X138949616Y-124876080D01*
X138955233Y-124881191D01*
X138961906Y-124884814D01*
X138961910Y-124884817D01*
X139097558Y-124958467D01*
X139097560Y-124958468D01*
X139104235Y-124962092D01*
X139111584Y-124964020D01*
X139260883Y-125003188D01*
X139260885Y-125003188D01*
X139268233Y-125005116D01*
X139354609Y-125006473D01*
X139430161Y-125007660D01*
X139430164Y-125007660D01*
X139437760Y-125007779D01*
X139445165Y-125006083D01*
X139445166Y-125006083D01*
X139505586Y-124992245D01*
X139603029Y-124969928D01*
X139754498Y-124893747D01*
X139883423Y-124783634D01*
X139982361Y-124645947D01*
X139990237Y-124626356D01*
X140042766Y-124495687D01*
X140042767Y-124495685D01*
X140045601Y-124488634D01*
X140055607Y-124418325D01*
X140068909Y-124324862D01*
X140068909Y-124324859D01*
X140069490Y-124320778D01*
X140069645Y-124306000D01*
X140069021Y-124300839D01*
X140065004Y-124267653D01*
X140049276Y-124137680D01*
X139989345Y-123979077D01*
X139893312Y-123839349D01*
X139880655Y-123828072D01*
X139772392Y-123731612D01*
X139772388Y-123731610D01*
X139766721Y-123726560D01*
X139752279Y-123718913D01*
X139699080Y-123690746D01*
X139616881Y-123647224D01*
X139452441Y-123605919D01*
X139444843Y-123605879D01*
X139444841Y-123605879D01*
X139347216Y-123605368D01*
X139316487Y-123605207D01*
X139248472Y-123584849D01*
X139228052Y-123568304D01*
X138171220Y-122511472D01*
X138149837Y-122500577D01*
X138132991Y-122490253D01*
X138121604Y-122481980D01*
X138113581Y-122476151D01*
X138104150Y-122473087D01*
X138104147Y-122473085D01*
X138090763Y-122468736D01*
X138072502Y-122461172D01*
X138059964Y-122454784D01*
X138059963Y-122454784D01*
X138051126Y-122450281D01*
X138027429Y-122446528D01*
X138008210Y-122441914D01*
X137985393Y-122434500D01*
X136095648Y-122434500D01*
X136027527Y-122414498D01*
X135982642Y-122364228D01*
X135951826Y-122301739D01*
X135939636Y-122231797D01*
X135967195Y-122166367D01*
X136025754Y-122126224D01*
X136064832Y-122120011D01*
X149177052Y-122120011D01*
X149245173Y-122140013D01*
X149291666Y-122193669D01*
X149301770Y-122263943D01*
X149288560Y-122304678D01*
X149218914Y-122437053D01*
X149158937Y-122630213D01*
X149135164Y-122831069D01*
X149148392Y-123032894D01*
X149149815Y-123038496D01*
X149196728Y-123223217D01*
X149198178Y-123228928D01*
X149282856Y-123412607D01*
X149399588Y-123577780D01*
X149544466Y-123718913D01*
X149712637Y-123831282D01*
X149717940Y-123833560D01*
X149717943Y-123833562D01*
X149806291Y-123871519D01*
X149898470Y-123911122D01*
X150095740Y-123955760D01*
X150101509Y-123955987D01*
X150101512Y-123955987D01*
X150177683Y-123958979D01*
X150297842Y-123963700D01*
X150384132Y-123951189D01*
X150492286Y-123935508D01*
X150492291Y-123935507D01*
X150498007Y-123934678D01*
X150503479Y-123932820D01*
X150503481Y-123932820D01*
X150684067Y-123871519D01*
X150684069Y-123871518D01*
X150689531Y-123869664D01*
X150866001Y-123770837D01*
X150928433Y-123718913D01*
X151017073Y-123645191D01*
X151021505Y-123641505D01*
X151150837Y-123486001D01*
X151249664Y-123309531D01*
X151257822Y-123285500D01*
X151312820Y-123123481D01*
X151312820Y-123123479D01*
X151314678Y-123118007D01*
X151315507Y-123112291D01*
X151315508Y-123112286D01*
X151343167Y-122921516D01*
X151343700Y-122917842D01*
X151345215Y-122860000D01*
X151326708Y-122658591D01*
X151271807Y-122463926D01*
X151191825Y-122301738D01*
X151179635Y-122231797D01*
X151207194Y-122166368D01*
X151265752Y-122126224D01*
X151304831Y-122120011D01*
X153323550Y-122120011D01*
X153328827Y-122120122D01*
X153390837Y-122122721D01*
X153402391Y-122120011D01*
X153433205Y-122112784D01*
X153444876Y-122110621D01*
X153459772Y-122108580D01*
X153487975Y-122104717D01*
X153501773Y-122098746D01*
X153523042Y-122091712D01*
X153529318Y-122090240D01*
X153537679Y-122088279D01*
X153545204Y-122084142D01*
X153545207Y-122084141D01*
X153575811Y-122067316D01*
X153586456Y-122062100D01*
X153626398Y-122044816D01*
X153638084Y-122035353D01*
X153656669Y-122022865D01*
X153664061Y-122018801D01*
X153669851Y-122015618D01*
X153677965Y-122008614D01*
X153702501Y-121984078D01*
X153712302Y-121975253D01*
X153736935Y-121955305D01*
X153736936Y-121955304D01*
X153743613Y-121949897D01*
X153748586Y-121942899D01*
X153748591Y-121942894D01*
X153754511Y-121934563D01*
X153768122Y-121918457D01*
X161218176Y-114468402D01*
X161221985Y-114464749D01*
X161261367Y-114428535D01*
X161267690Y-114422721D01*
X161290621Y-114385737D01*
X161297335Y-114375967D01*
X161323646Y-114341304D01*
X161329180Y-114327327D01*
X161339243Y-114307318D01*
X161342645Y-114301832D01*
X161342647Y-114301828D01*
X161347169Y-114294534D01*
X161349563Y-114286292D01*
X161349565Y-114286289D01*
X161359313Y-114252736D01*
X161363152Y-114241523D01*
X161379169Y-114201067D01*
X161380740Y-114186118D01*
X161385053Y-114164135D01*
X161387407Y-114156034D01*
X161389249Y-114149695D01*
X161390034Y-114139005D01*
X161390034Y-114104301D01*
X161390724Y-114091130D01*
X161394037Y-114059608D01*
X161394935Y-114051066D01*
X161393503Y-114042601D01*
X161393503Y-114042592D01*
X161391799Y-114032520D01*
X161390034Y-114011507D01*
X161390034Y-78252357D01*
X161410036Y-78184236D01*
X161463692Y-78137743D01*
X161533966Y-78127639D01*
X161598546Y-78157133D01*
X161620616Y-78182081D01*
X161689830Y-78285083D01*
X161695446Y-78290193D01*
X161732300Y-78323728D01*
X161769222Y-78384368D01*
X161773500Y-78416921D01*
X161773500Y-115717207D01*
X161753498Y-115785328D01*
X161736595Y-115806302D01*
X151285290Y-126257607D01*
X151222978Y-126291633D01*
X151152163Y-126286568D01*
X151095327Y-126244021D01*
X151070516Y-126177501D01*
X151085607Y-126108127D01*
X151099321Y-126087942D01*
X151147146Y-126030439D01*
X151150837Y-126026001D01*
X151249664Y-125849531D01*
X151257822Y-125825500D01*
X151312820Y-125663481D01*
X151312820Y-125663479D01*
X151314678Y-125658007D01*
X151315507Y-125652291D01*
X151315508Y-125652286D01*
X151343167Y-125461516D01*
X151343700Y-125457842D01*
X151345215Y-125400000D01*
X151326708Y-125198591D01*
X151271807Y-125003926D01*
X151182351Y-124822527D01*
X151173950Y-124811276D01*
X151064788Y-124665091D01*
X151064787Y-124665090D01*
X151061335Y-124660467D01*
X151046702Y-124646940D01*
X150917053Y-124527094D01*
X150917051Y-124527092D01*
X150912812Y-124523174D01*
X150885374Y-124505862D01*
X150746637Y-124418325D01*
X150741757Y-124415246D01*
X150553898Y-124340298D01*
X150355526Y-124300839D01*
X150349752Y-124300763D01*
X150349748Y-124300763D01*
X150247257Y-124299422D01*
X150153286Y-124298192D01*
X150147589Y-124299171D01*
X150147588Y-124299171D01*
X149959646Y-124331465D01*
X149959645Y-124331465D01*
X149953949Y-124332444D01*
X149764193Y-124402449D01*
X149759232Y-124405401D01*
X149759231Y-124405401D01*
X149607474Y-124495687D01*
X149590371Y-124505862D01*
X149438305Y-124639220D01*
X149313089Y-124798057D01*
X149218914Y-124977053D01*
X149158937Y-125170213D01*
X149135164Y-125371069D01*
X149148392Y-125572894D01*
X149198178Y-125768928D01*
X149282856Y-125952607D01*
X149399588Y-126117780D01*
X149544466Y-126258913D01*
X149549270Y-126262123D01*
X149553691Y-126265077D01*
X149712637Y-126371282D01*
X149717940Y-126373560D01*
X149717943Y-126373562D01*
X149893163Y-126448842D01*
X149898470Y-126451122D01*
X150095740Y-126495760D01*
X150101509Y-126495987D01*
X150101512Y-126495987D01*
X150177683Y-126498979D01*
X150297842Y-126503700D01*
X150384132Y-126491189D01*
X150492286Y-126475508D01*
X150492291Y-126475507D01*
X150498007Y-126474678D01*
X150503479Y-126472820D01*
X150503481Y-126472820D01*
X150684067Y-126411519D01*
X150684069Y-126411518D01*
X150689531Y-126409664D01*
X150812017Y-126341069D01*
X150860964Y-126313658D01*
X150860965Y-126313657D01*
X150866001Y-126310837D01*
X150927942Y-126259321D01*
X150993107Y-126231140D01*
X151063162Y-126242664D01*
X151115866Y-126290232D01*
X151134486Y-126358744D01*
X151113110Y-126426446D01*
X151097607Y-126445290D01*
X150690292Y-126852605D01*
X150627980Y-126886631D01*
X150565572Y-126881483D01*
X150564803Y-126884079D01*
X150559259Y-126882437D01*
X150553898Y-126880298D01*
X150355526Y-126840839D01*
X150349752Y-126840763D01*
X150349748Y-126840763D01*
X150247257Y-126839422D01*
X150153286Y-126838192D01*
X150147589Y-126839171D01*
X150147588Y-126839171D01*
X149959646Y-126871465D01*
X149959645Y-126871465D01*
X149953949Y-126872444D01*
X149764193Y-126942449D01*
X149590371Y-127045862D01*
X149438305Y-127179220D01*
X149313089Y-127338057D01*
X149218914Y-127517053D01*
X149158937Y-127710213D01*
X149135164Y-127911069D01*
X149148392Y-128112894D01*
X149198178Y-128308928D01*
X149282856Y-128492607D01*
X149399588Y-128657780D01*
X149544466Y-128798913D01*
X149712637Y-128911282D01*
X149717940Y-128913560D01*
X149717943Y-128913562D01*
X149806291Y-128951519D01*
X149898470Y-128991122D01*
X150095740Y-129035760D01*
X150101509Y-129035987D01*
X150101512Y-129035987D01*
X150177683Y-129038979D01*
X150297842Y-129043700D01*
X150384132Y-129031189D01*
X150492286Y-129015508D01*
X150492291Y-129015507D01*
X150498007Y-129014678D01*
X150503479Y-129012820D01*
X150503481Y-129012820D01*
X150684067Y-128951519D01*
X150684069Y-128951518D01*
X150689531Y-128949664D01*
X150866001Y-128850837D01*
X150928433Y-128798913D01*
X151017073Y-128725191D01*
X151021505Y-128721505D01*
X151150837Y-128566001D01*
X151249664Y-128389531D01*
X151314678Y-128198007D01*
X151315507Y-128192291D01*
X151315508Y-128192286D01*
X151343167Y-128001516D01*
X151343700Y-127997842D01*
X151345215Y-127940000D01*
X151326708Y-127738591D01*
X151292154Y-127616072D01*
X151292914Y-127545079D01*
X151324328Y-127492775D01*
X155608580Y-123208523D01*
X184037898Y-123208523D01*
X184049987Y-123460175D01*
X184051124Y-123469435D01*
X184100274Y-123716535D01*
X184102768Y-123725528D01*
X184187900Y-123962639D01*
X184191700Y-123971174D01*
X184310946Y-124193101D01*
X184315957Y-124200968D01*
X184379446Y-124285990D01*
X184390704Y-124294439D01*
X184403123Y-124287667D01*
X185427978Y-123262812D01*
X185435592Y-123248868D01*
X185435461Y-123247035D01*
X185431210Y-123240420D01*
X184401321Y-122210531D01*
X184388013Y-122203264D01*
X184377974Y-122210386D01*
X184367761Y-122222666D01*
X184362346Y-122230258D01*
X184231646Y-122445646D01*
X184227408Y-122453963D01*
X184129981Y-122686299D01*
X184127020Y-122695149D01*
X184065006Y-122939331D01*
X184063384Y-122948528D01*
X184038143Y-123199198D01*
X184037898Y-123208523D01*
X155608580Y-123208523D01*
X162518350Y-116298753D01*
X162529439Y-116288899D01*
X162548709Y-116273707D01*
X162548711Y-116273705D01*
X162556110Y-116267872D01*
X162589462Y-116219615D01*
X162591757Y-116216403D01*
X162593856Y-116213562D01*
X162626634Y-116169184D01*
X162629027Y-116162368D01*
X162633131Y-116156431D01*
X162650826Y-116100481D01*
X162652071Y-116096750D01*
X162668396Y-116050263D01*
X162668396Y-116050261D01*
X162671519Y-116041369D01*
X162671801Y-116034181D01*
X162671812Y-116034122D01*
X162673980Y-116027270D01*
X162674500Y-116020663D01*
X162674500Y-115967984D01*
X162674597Y-115963037D01*
X162676468Y-115915418D01*
X162676838Y-115906006D01*
X162674954Y-115898900D01*
X162674500Y-115890656D01*
X162674500Y-106994000D01*
X184244706Y-106994000D01*
X184263854Y-107237302D01*
X184265009Y-107242111D01*
X184306043Y-107413027D01*
X184320828Y-107474612D01*
X184322718Y-107479175D01*
X184322720Y-107479181D01*
X184412328Y-107695515D01*
X184414223Y-107700089D01*
X184541741Y-107908179D01*
X184700241Y-108093759D01*
X184885821Y-108252259D01*
X185093911Y-108379777D01*
X185098481Y-108381670D01*
X185098485Y-108381672D01*
X185314819Y-108471280D01*
X185314825Y-108471282D01*
X185319388Y-108473172D01*
X185324188Y-108474324D01*
X185324193Y-108474326D01*
X185432702Y-108500377D01*
X185556698Y-108530146D01*
X185800000Y-108549294D01*
X186043302Y-108530146D01*
X186167298Y-108500377D01*
X186275807Y-108474326D01*
X186275812Y-108474324D01*
X186280612Y-108473172D01*
X186285175Y-108471282D01*
X186285181Y-108471280D01*
X186501515Y-108381672D01*
X186501519Y-108381670D01*
X186506089Y-108379777D01*
X186714179Y-108252259D01*
X186899759Y-108093759D01*
X187058259Y-107908179D01*
X187185777Y-107700089D01*
X187187672Y-107695515D01*
X187277280Y-107479181D01*
X187277282Y-107479175D01*
X187279172Y-107474612D01*
X187293958Y-107413027D01*
X187334991Y-107242111D01*
X187336146Y-107237302D01*
X187355294Y-106994000D01*
X187336146Y-106750698D01*
X187279172Y-106513388D01*
X187277282Y-106508825D01*
X187277280Y-106508819D01*
X187187672Y-106292485D01*
X187187670Y-106292481D01*
X187185777Y-106287911D01*
X187058259Y-106079821D01*
X186899759Y-105894241D01*
X186714179Y-105735741D01*
X186506089Y-105608223D01*
X186501519Y-105606330D01*
X186501515Y-105606328D01*
X186285181Y-105516720D01*
X186285175Y-105516718D01*
X186280612Y-105514828D01*
X186275812Y-105513676D01*
X186275807Y-105513674D01*
X186167298Y-105487623D01*
X186043302Y-105457854D01*
X185800000Y-105438706D01*
X185556698Y-105457854D01*
X185432702Y-105487623D01*
X185324193Y-105513674D01*
X185324188Y-105513676D01*
X185319388Y-105514828D01*
X185314825Y-105516718D01*
X185314819Y-105516720D01*
X185098485Y-105606328D01*
X185098481Y-105606330D01*
X185093911Y-105608223D01*
X184885821Y-105735741D01*
X184700241Y-105894241D01*
X184541741Y-106079821D01*
X184414223Y-106287911D01*
X184412330Y-106292481D01*
X184412328Y-106292485D01*
X184322720Y-106508819D01*
X184322718Y-106508825D01*
X184320828Y-106513388D01*
X184263854Y-106750698D01*
X184244706Y-106994000D01*
X162674500Y-106994000D01*
X162674500Y-103288669D01*
X184042001Y-103288669D01*
X184042371Y-103295490D01*
X184047895Y-103346352D01*
X184051521Y-103361604D01*
X184096676Y-103482054D01*
X184105214Y-103497649D01*
X184181715Y-103599724D01*
X184194276Y-103612285D01*
X184296351Y-103688786D01*
X184311946Y-103697324D01*
X184432394Y-103742478D01*
X184447649Y-103746105D01*
X184498514Y-103751631D01*
X184505328Y-103752000D01*
X185527885Y-103752000D01*
X185543124Y-103747525D01*
X185544329Y-103746135D01*
X185546000Y-103738452D01*
X185546000Y-103733884D01*
X186054000Y-103733884D01*
X186058475Y-103749123D01*
X186059865Y-103750328D01*
X186067548Y-103751999D01*
X187094669Y-103751999D01*
X187101490Y-103751629D01*
X187152352Y-103746105D01*
X187167604Y-103742479D01*
X187288054Y-103697324D01*
X187303649Y-103688786D01*
X187405724Y-103612285D01*
X187418285Y-103599724D01*
X187494786Y-103497649D01*
X187503324Y-103482054D01*
X187548478Y-103361606D01*
X187552105Y-103346351D01*
X187557631Y-103295486D01*
X187558000Y-103288672D01*
X187558000Y-102266115D01*
X187553525Y-102250876D01*
X187552135Y-102249671D01*
X187544452Y-102248000D01*
X186072115Y-102248000D01*
X186056876Y-102252475D01*
X186055671Y-102253865D01*
X186054000Y-102261548D01*
X186054000Y-103733884D01*
X185546000Y-103733884D01*
X185546000Y-102266115D01*
X185541525Y-102250876D01*
X185540135Y-102249671D01*
X185532452Y-102248000D01*
X184060116Y-102248000D01*
X184044877Y-102252475D01*
X184043672Y-102253865D01*
X184042001Y-102261548D01*
X184042001Y-103288669D01*
X162674500Y-103288669D01*
X162674500Y-101721885D01*
X184042000Y-101721885D01*
X184046475Y-101737124D01*
X184047865Y-101738329D01*
X184055548Y-101740000D01*
X185527885Y-101740000D01*
X185543124Y-101735525D01*
X185544329Y-101734135D01*
X185546000Y-101726452D01*
X185546000Y-101721885D01*
X186054000Y-101721885D01*
X186058475Y-101737124D01*
X186059865Y-101738329D01*
X186067548Y-101740000D01*
X187539884Y-101740000D01*
X187555123Y-101735525D01*
X187556328Y-101734135D01*
X187557999Y-101726452D01*
X187557999Y-100699331D01*
X187557629Y-100692510D01*
X187552105Y-100641648D01*
X187548479Y-100626396D01*
X187503324Y-100505946D01*
X187494786Y-100490351D01*
X187418285Y-100388276D01*
X187405724Y-100375715D01*
X187303649Y-100299214D01*
X187288054Y-100290676D01*
X187167606Y-100245522D01*
X187152351Y-100241895D01*
X187101486Y-100236369D01*
X187094672Y-100236000D01*
X186072115Y-100236000D01*
X186056876Y-100240475D01*
X186055671Y-100241865D01*
X186054000Y-100249548D01*
X186054000Y-101721885D01*
X185546000Y-101721885D01*
X185546000Y-100254116D01*
X185541525Y-100238877D01*
X185540135Y-100237672D01*
X185532452Y-100236001D01*
X184505331Y-100236001D01*
X184498510Y-100236371D01*
X184447648Y-100241895D01*
X184432396Y-100245521D01*
X184311946Y-100290676D01*
X184296351Y-100299214D01*
X184194276Y-100375715D01*
X184181715Y-100388276D01*
X184105214Y-100490351D01*
X184096676Y-100505946D01*
X184051522Y-100626394D01*
X184047895Y-100641649D01*
X184042369Y-100692514D01*
X184042000Y-100699328D01*
X184042000Y-101721885D01*
X162674500Y-101721885D01*
X162674500Y-92498648D01*
X188130927Y-92498648D01*
X188131284Y-92505465D01*
X188131284Y-92505469D01*
X188138519Y-92643513D01*
X188140314Y-92677760D01*
X188142125Y-92684333D01*
X188142125Y-92684336D01*
X188163399Y-92761570D01*
X188187943Y-92850679D01*
X188271594Y-93009336D01*
X188275999Y-93014549D01*
X188276002Y-93014553D01*
X188329223Y-93077531D01*
X188387362Y-93146329D01*
X188392786Y-93150476D01*
X188392787Y-93150477D01*
X188524426Y-93251123D01*
X188524430Y-93251126D01*
X188529847Y-93255267D01*
X188692401Y-93331067D01*
X188867440Y-93370193D01*
X188872931Y-93370500D01*
X189854810Y-93370500D01*
X189988309Y-93355997D01*
X190158300Y-93298789D01*
X190312040Y-93206413D01*
X190371191Y-93150477D01*
X190375577Y-93146329D01*
X190442357Y-93083178D01*
X190543171Y-92934834D01*
X190545703Y-92928504D01*
X190545705Y-92928500D01*
X190607245Y-92774639D01*
X190607246Y-92774634D01*
X190609779Y-92768302D01*
X190610893Y-92761575D01*
X190610894Y-92761570D01*
X190637958Y-92598090D01*
X190637958Y-92598086D01*
X190639073Y-92591352D01*
X190633862Y-92491910D01*
X190630043Y-92419053D01*
X190629686Y-92412240D01*
X190626630Y-92401144D01*
X190583870Y-92245902D01*
X190583869Y-92245899D01*
X190582057Y-92239321D01*
X190498406Y-92080664D01*
X190494001Y-92075451D01*
X190493998Y-92075447D01*
X190387044Y-91948885D01*
X190382638Y-91943671D01*
X190313660Y-91890933D01*
X190245574Y-91838877D01*
X190245570Y-91838874D01*
X190240153Y-91834733D01*
X190077599Y-91758933D01*
X189902560Y-91719807D01*
X189897069Y-91719500D01*
X188915190Y-91719500D01*
X188781691Y-91734003D01*
X188611700Y-91791211D01*
X188457960Y-91883587D01*
X188453000Y-91888278D01*
X188452998Y-91888279D01*
X188397219Y-91941027D01*
X188327643Y-92006822D01*
X188323807Y-92012467D01*
X188323805Y-92012469D01*
X188281006Y-92075447D01*
X188226829Y-92155166D01*
X188224297Y-92161496D01*
X188224295Y-92161500D01*
X188162755Y-92315361D01*
X188162754Y-92315366D01*
X188160221Y-92321698D01*
X188159107Y-92328425D01*
X188159106Y-92328430D01*
X188132042Y-92491910D01*
X188130927Y-92498648D01*
X162674500Y-92498648D01*
X162674500Y-85348648D01*
X188130927Y-85348648D01*
X188131284Y-85355465D01*
X188131284Y-85355469D01*
X188137931Y-85482284D01*
X188140314Y-85527760D01*
X188142125Y-85534333D01*
X188142125Y-85534336D01*
X188168251Y-85629185D01*
X188187943Y-85700679D01*
X188271594Y-85859336D01*
X188275999Y-85864549D01*
X188276002Y-85864553D01*
X188329223Y-85927531D01*
X188387362Y-85996329D01*
X188392786Y-86000476D01*
X188392787Y-86000477D01*
X188524426Y-86101123D01*
X188524430Y-86101126D01*
X188529847Y-86105267D01*
X188692401Y-86181067D01*
X188867440Y-86220193D01*
X188872931Y-86220500D01*
X189854810Y-86220500D01*
X189988309Y-86205997D01*
X190158300Y-86148789D01*
X190312040Y-86056413D01*
X190317748Y-86051016D01*
X190375577Y-85996329D01*
X190442357Y-85933178D01*
X190543171Y-85784834D01*
X190545703Y-85778504D01*
X190545705Y-85778500D01*
X190607245Y-85624639D01*
X190607246Y-85624634D01*
X190609779Y-85618302D01*
X190610893Y-85611575D01*
X190610894Y-85611570D01*
X190637958Y-85448090D01*
X190637958Y-85448086D01*
X190639073Y-85441352D01*
X190638616Y-85432614D01*
X190630043Y-85269053D01*
X190629686Y-85262240D01*
X190616189Y-85213238D01*
X190583870Y-85095902D01*
X190583869Y-85095899D01*
X190582057Y-85089321D01*
X190498406Y-84930664D01*
X190494001Y-84925451D01*
X190493998Y-84925447D01*
X190387044Y-84798885D01*
X190382638Y-84793671D01*
X190377213Y-84789523D01*
X190245574Y-84688877D01*
X190245570Y-84688874D01*
X190240153Y-84684733D01*
X190077599Y-84608933D01*
X189902560Y-84569807D01*
X189897069Y-84569500D01*
X188915190Y-84569500D01*
X188781691Y-84584003D01*
X188611700Y-84641211D01*
X188457960Y-84733587D01*
X188453000Y-84738278D01*
X188452998Y-84738279D01*
X188397219Y-84791027D01*
X188327643Y-84856822D01*
X188323807Y-84862467D01*
X188323805Y-84862469D01*
X188273834Y-84936000D01*
X188226829Y-85005166D01*
X188224297Y-85011496D01*
X188224295Y-85011500D01*
X188162755Y-85165361D01*
X188162754Y-85165366D01*
X188160221Y-85171698D01*
X188159107Y-85178425D01*
X188159106Y-85178430D01*
X188132042Y-85341910D01*
X188130927Y-85348648D01*
X162674500Y-85348648D01*
X162674500Y-78418587D01*
X162694502Y-78350466D01*
X162718669Y-78322776D01*
X162737651Y-78306564D01*
X162737652Y-78306563D01*
X162743423Y-78301634D01*
X162842361Y-78163947D01*
X162905601Y-78006634D01*
X162920019Y-77905328D01*
X162928909Y-77842862D01*
X162928909Y-77842859D01*
X162929490Y-77838778D01*
X162929645Y-77824000D01*
X162909276Y-77655680D01*
X162849345Y-77497077D01*
X162811492Y-77442001D01*
X162757614Y-77363608D01*
X162757613Y-77363607D01*
X162753312Y-77357349D01*
X162741514Y-77346837D01*
X162632392Y-77249612D01*
X162632388Y-77249610D01*
X162626721Y-77244560D01*
X162476881Y-77165224D01*
X162312441Y-77123919D01*
X162304843Y-77123879D01*
X162304841Y-77123879D01*
X162227668Y-77123475D01*
X162142895Y-77123031D01*
X162135508Y-77124805D01*
X162135504Y-77124805D01*
X161992162Y-77159220D01*
X161978032Y-77162612D01*
X161971288Y-77166093D01*
X161971285Y-77166094D01*
X161966089Y-77168776D01*
X161827369Y-77240375D01*
X161699604Y-77351831D01*
X161695237Y-77358045D01*
X161619121Y-77466347D01*
X161563587Y-77510578D01*
X161492955Y-77517764D01*
X161429650Y-77485623D01*
X161393772Y-77424359D01*
X161390034Y-77393896D01*
X161390034Y-75724024D01*
X161410036Y-75655903D01*
X161463692Y-75609410D01*
X161533966Y-75599306D01*
X161576154Y-75613292D01*
X161590643Y-75621159D01*
X161703558Y-75682467D01*
X161703560Y-75682468D01*
X161710235Y-75686092D01*
X161717584Y-75688020D01*
X161866883Y-75727188D01*
X161866885Y-75727188D01*
X161874233Y-75729116D01*
X161960609Y-75730473D01*
X162036161Y-75731660D01*
X162036164Y-75731660D01*
X162043760Y-75731779D01*
X162051165Y-75730083D01*
X162051166Y-75730083D01*
X162111586Y-75716245D01*
X162209029Y-75693928D01*
X162360498Y-75617747D01*
X162489423Y-75507634D01*
X162588361Y-75369947D01*
X162651601Y-75212634D01*
X162675490Y-75044778D01*
X162675645Y-75030000D01*
X162671796Y-74998192D01*
X162683469Y-74928162D01*
X162707788Y-74893960D01*
X163413102Y-74188646D01*
X184203000Y-74188646D01*
X184206118Y-74214846D01*
X184209956Y-74223486D01*
X184209956Y-74223487D01*
X184231565Y-74272135D01*
X184251561Y-74317153D01*
X184259794Y-74325372D01*
X184259795Y-74325373D01*
X184291335Y-74356858D01*
X184330787Y-74396241D01*
X184341424Y-74400944D01*
X184341426Y-74400945D01*
X184388115Y-74421586D01*
X184433173Y-74441506D01*
X184458854Y-74444500D01*
X185856146Y-74444500D01*
X185859850Y-74444059D01*
X185859853Y-74444059D01*
X185867843Y-74443108D01*
X185882346Y-74441382D01*
X185926914Y-74421586D01*
X185974018Y-74400663D01*
X185984653Y-74395939D01*
X186005116Y-74375441D01*
X186048575Y-74331905D01*
X186063741Y-74316713D01*
X186080568Y-74278653D01*
X186105175Y-74222992D01*
X186109006Y-74214327D01*
X186112000Y-74188646D01*
X186112000Y-72791354D01*
X186108882Y-72765154D01*
X186063439Y-72662847D01*
X185984213Y-72583759D01*
X185973576Y-72579056D01*
X185973574Y-72579055D01*
X185914038Y-72552735D01*
X185881827Y-72538494D01*
X185872416Y-72537397D01*
X185863276Y-72534905D01*
X185863637Y-72533583D01*
X185807346Y-72509673D01*
X185780678Y-72472758D01*
X185778064Y-72469774D01*
X185170312Y-71862022D01*
X185156368Y-71854408D01*
X185154535Y-71854539D01*
X185147920Y-71858790D01*
X184547827Y-72458883D01*
X184540418Y-72472451D01*
X184490215Y-72522653D01*
X184444720Y-72537182D01*
X184432654Y-72538618D01*
X184330347Y-72584061D01*
X184251259Y-72663287D01*
X184205994Y-72765673D01*
X184203000Y-72791354D01*
X184203000Y-74188646D01*
X163413102Y-74188646D01*
X165665343Y-71936405D01*
X165727655Y-71902379D01*
X165754438Y-71899500D01*
X165920634Y-71899500D01*
X165988755Y-71919502D01*
X166007331Y-71935631D01*
X166007830Y-71935083D01*
X166127612Y-72044077D01*
X166127616Y-72044080D01*
X166133233Y-72049191D01*
X166139906Y-72052814D01*
X166139910Y-72052817D01*
X166275558Y-72126467D01*
X166275560Y-72126468D01*
X166282235Y-72130092D01*
X166289584Y-72132020D01*
X166438883Y-72171188D01*
X166438885Y-72171188D01*
X166446233Y-72173116D01*
X166532609Y-72174473D01*
X166608161Y-72175660D01*
X166608164Y-72175660D01*
X166615760Y-72175779D01*
X166623165Y-72174083D01*
X166623166Y-72174083D01*
X166683586Y-72160245D01*
X166781029Y-72137928D01*
X166932498Y-72061747D01*
X167061423Y-71951634D01*
X167065854Y-71945467D01*
X167070684Y-71940215D01*
X167131516Y-71903609D01*
X167163433Y-71899500D01*
X177277393Y-71899500D01*
X177300210Y-71892086D01*
X177319429Y-71887472D01*
X177343126Y-71883719D01*
X177354311Y-71878020D01*
X177364502Y-71872828D01*
X177382763Y-71865264D01*
X177396147Y-71860915D01*
X177396150Y-71860913D01*
X177405581Y-71857849D01*
X177424991Y-71843747D01*
X177441837Y-71833423D01*
X177463220Y-71822528D01*
X177820530Y-71465218D01*
X183991300Y-71465218D01*
X184004511Y-71666789D01*
X184006311Y-71678156D01*
X184056037Y-71873950D01*
X184059875Y-71884788D01*
X184144450Y-72068246D01*
X184150198Y-72078202D01*
X184164542Y-72098499D01*
X184175130Y-72106887D01*
X184188431Y-72099859D01*
X184785478Y-71502812D01*
X184791856Y-71491132D01*
X185521908Y-71491132D01*
X185522039Y-71492965D01*
X185526290Y-71499580D01*
X186127410Y-72100700D01*
X186139790Y-72107460D01*
X186146370Y-72102534D01*
X186220767Y-71969688D01*
X186225443Y-71959185D01*
X186290378Y-71767894D01*
X186293063Y-71756712D01*
X186322346Y-71554749D01*
X186322976Y-71547366D01*
X186324381Y-71493704D01*
X186324138Y-71486305D01*
X186305466Y-71283092D01*
X186303368Y-71271771D01*
X186248538Y-71077357D01*
X186244413Y-71066610D01*
X186155067Y-70885438D01*
X186151163Y-70879066D01*
X186140953Y-70871404D01*
X186128533Y-70878177D01*
X185529522Y-71477188D01*
X185521908Y-71491132D01*
X184791856Y-71491132D01*
X184793092Y-71488868D01*
X184792961Y-71487035D01*
X184788710Y-71480420D01*
X184186058Y-70877768D01*
X184173678Y-70871008D01*
X184167712Y-70875474D01*
X184082046Y-71038298D01*
X184077638Y-71048941D01*
X184017735Y-71241857D01*
X184015345Y-71253101D01*
X183991601Y-71453717D01*
X183991300Y-71465218D01*
X177820530Y-71465218D01*
X178776471Y-70509277D01*
X184540889Y-70509277D01*
X184544376Y-70517666D01*
X185144688Y-71117978D01*
X185158632Y-71125592D01*
X185160465Y-71125461D01*
X185167080Y-71121210D01*
X185766933Y-70521357D01*
X185773693Y-70508977D01*
X185767663Y-70500922D01*
X185692180Y-70453296D01*
X185681936Y-70448076D01*
X185494308Y-70373220D01*
X185483270Y-70369950D01*
X185285150Y-70330542D01*
X185273703Y-70329339D01*
X185071722Y-70326695D01*
X185060242Y-70327598D01*
X184861161Y-70361807D01*
X184850041Y-70364787D01*
X184660519Y-70434705D01*
X184650142Y-70439655D01*
X184550487Y-70498944D01*
X184540889Y-70509277D01*
X178776471Y-70509277D01*
X187723039Y-61562709D01*
X187733934Y-61541326D01*
X187744258Y-61524480D01*
X187752531Y-61513093D01*
X187758360Y-61505070D01*
X187761424Y-61495639D01*
X187761426Y-61495636D01*
X187765775Y-61482252D01*
X187773339Y-61463991D01*
X187779727Y-61451453D01*
X187779727Y-61451452D01*
X187784230Y-61442615D01*
X187787983Y-61418918D01*
X187792597Y-61399699D01*
X187800011Y-61376882D01*
X187800011Y-54987118D01*
X187796948Y-54977691D01*
X187796947Y-54977684D01*
X187792598Y-54964299D01*
X187787984Y-54945080D01*
X187785783Y-54931183D01*
X187785781Y-54931176D01*
X187784230Y-54921385D01*
X187773338Y-54900009D01*
X187765775Y-54881748D01*
X187761425Y-54868361D01*
X187758361Y-54858930D01*
X187744260Y-54839522D01*
X187733928Y-54822663D01*
X187727542Y-54810129D01*
X187723039Y-54801291D01*
X187387405Y-54465657D01*
X187353379Y-54403345D01*
X187350500Y-54376562D01*
X187350500Y-52185354D01*
X187347382Y-52159154D01*
X187301939Y-52056847D01*
X187222713Y-51977759D01*
X187212076Y-51973056D01*
X187212074Y-51973055D01*
X187152538Y-51946735D01*
X187120327Y-51932494D01*
X187094646Y-51929500D01*
X184505354Y-51929500D01*
X184501650Y-51929941D01*
X184501647Y-51929941D01*
X184494254Y-51930821D01*
X184479154Y-51932618D01*
X184376847Y-51978061D01*
X184297759Y-52057287D01*
X184252494Y-52159673D01*
X184249500Y-52185354D01*
X184249500Y-54774646D01*
X184252618Y-54800846D01*
X184298061Y-54903153D01*
X184377287Y-54982241D01*
X184387924Y-54986944D01*
X184387926Y-54986945D01*
X184410745Y-54997033D01*
X184479673Y-55027506D01*
X184505354Y-55030500D01*
X186696562Y-55030500D01*
X186764683Y-55050502D01*
X186785657Y-55067405D01*
X186912106Y-55193854D01*
X186946132Y-55256166D01*
X186949011Y-55282949D01*
X186949011Y-56896632D01*
X186929009Y-56964753D01*
X186875353Y-57011246D01*
X186805079Y-57021350D01*
X186751191Y-57000160D01*
X186698588Y-56963668D01*
X186690562Y-56958940D01*
X186464593Y-56847505D01*
X186455960Y-56844017D01*
X186215998Y-56767205D01*
X186206938Y-56765029D01*
X185958260Y-56724529D01*
X185948973Y-56723717D01*
X185697053Y-56720419D01*
X185687742Y-56720989D01*
X185438097Y-56754964D01*
X185428978Y-56756902D01*
X185187098Y-56827404D01*
X185178367Y-56830667D01*
X184949558Y-56936151D01*
X184941406Y-56940670D01*
X184762353Y-57058062D01*
X184753216Y-57068803D01*
X184757789Y-57078579D01*
X186070115Y-58390905D01*
X186104141Y-58453217D01*
X186099076Y-58524032D01*
X186070115Y-58569095D01*
X184762270Y-59876940D01*
X184755612Y-59889133D01*
X184764325Y-59900653D01*
X184862018Y-59972284D01*
X184869928Y-59977227D01*
X185092890Y-60094533D01*
X185101453Y-60098256D01*
X185339304Y-60181318D01*
X185348313Y-60183732D01*
X185595842Y-60230727D01*
X185605098Y-60231781D01*
X185856857Y-60241673D01*
X185866171Y-60241347D01*
X186116615Y-60213920D01*
X186125792Y-60212219D01*
X186369431Y-60148074D01*
X186378251Y-60145037D01*
X186609736Y-60045583D01*
X186618008Y-60041276D01*
X186756708Y-59955446D01*
X186825160Y-59936608D01*
X186892930Y-59957769D01*
X186938501Y-60012210D01*
X186949011Y-60062590D01*
X186949011Y-61081051D01*
X186929009Y-61149172D01*
X186912106Y-61170146D01*
X177070657Y-71011595D01*
X177008345Y-71045621D01*
X176981562Y-71048500D01*
X167163266Y-71048500D01*
X167095145Y-71028498D01*
X167072445Y-71008998D01*
X167071312Y-71007349D01*
X167065119Y-71001831D01*
X166950392Y-70899612D01*
X166950388Y-70899610D01*
X166944721Y-70894560D01*
X166927493Y-70885438D01*
X166877080Y-70858746D01*
X166794881Y-70815224D01*
X166630441Y-70773919D01*
X166622843Y-70773879D01*
X166622841Y-70773879D01*
X166545668Y-70773475D01*
X166460895Y-70773031D01*
X166453508Y-70774805D01*
X166453504Y-70774805D01*
X166310162Y-70809220D01*
X166296032Y-70812612D01*
X166289288Y-70816093D01*
X166289285Y-70816094D01*
X166152117Y-70886892D01*
X166145369Y-70890375D01*
X166017604Y-71001831D01*
X166013918Y-71007076D01*
X165953905Y-71044049D01*
X165920713Y-71048500D01*
X165458607Y-71048500D01*
X165435790Y-71055914D01*
X165416571Y-71060528D01*
X165392874Y-71064281D01*
X165384037Y-71068784D01*
X165384036Y-71068784D01*
X165371498Y-71075172D01*
X165353237Y-71082736D01*
X165339853Y-71087085D01*
X165339850Y-71087087D01*
X165330419Y-71090151D01*
X165322396Y-71095980D01*
X165311009Y-71104253D01*
X165294163Y-71114577D01*
X165272780Y-71125472D01*
X162105460Y-74292792D01*
X162043148Y-74326818D01*
X162015705Y-74329695D01*
X161960253Y-74329405D01*
X161888895Y-74329031D01*
X161881508Y-74330805D01*
X161881504Y-74330805D01*
X161738162Y-74365220D01*
X161724032Y-74368612D01*
X161717288Y-74372093D01*
X161717285Y-74372094D01*
X161573824Y-74446140D01*
X161504117Y-74459609D01*
X161438193Y-74433254D01*
X161396983Y-74375441D01*
X161390034Y-74334174D01*
X161390034Y-70442916D01*
X161390145Y-70437640D01*
X161392384Y-70384214D01*
X161392744Y-70375629D01*
X161389502Y-70361807D01*
X161382807Y-70333261D01*
X161380644Y-70321590D01*
X161375906Y-70287004D01*
X161374740Y-70278491D01*
X161368769Y-70264693D01*
X161361735Y-70243424D01*
X161360263Y-70237148D01*
X161358302Y-70228787D01*
X161354165Y-70221262D01*
X161354164Y-70221259D01*
X161337339Y-70190655D01*
X161332123Y-70180010D01*
X161314839Y-70140068D01*
X161305376Y-70128382D01*
X161292888Y-70109797D01*
X161288824Y-70102405D01*
X161285641Y-70096615D01*
X161278637Y-70088501D01*
X161254101Y-70063965D01*
X161245276Y-70054164D01*
X161225328Y-70029531D01*
X161225327Y-70029530D01*
X161219920Y-70022853D01*
X161204589Y-70011957D01*
X161188483Y-69998347D01*
X160478451Y-69288316D01*
X160474798Y-69284506D01*
X160453393Y-69261228D01*
X160432782Y-69238814D01*
X160395779Y-69215871D01*
X160386029Y-69209170D01*
X160351364Y-69182858D01*
X160337385Y-69177324D01*
X160317382Y-69167263D01*
X160304595Y-69159335D01*
X160296344Y-69156938D01*
X160296342Y-69156937D01*
X160262809Y-69147195D01*
X160251576Y-69143349D01*
X160230934Y-69135176D01*
X160211128Y-69127334D01*
X160202587Y-69126436D01*
X160202586Y-69126436D01*
X160196173Y-69125762D01*
X160174198Y-69121450D01*
X160159756Y-69117255D01*
X160152273Y-69116705D01*
X160151373Y-69116639D01*
X160151362Y-69116639D01*
X160149066Y-69116470D01*
X160114364Y-69116470D01*
X160101194Y-69115780D01*
X160090965Y-69114705D01*
X160061127Y-69111569D01*
X160052662Y-69113001D01*
X160052653Y-69113001D01*
X160042581Y-69114705D01*
X160021568Y-69116470D01*
X157612232Y-69116470D01*
X157606956Y-69116359D01*
X157602549Y-69116174D01*
X157544945Y-69113760D01*
X157536580Y-69115722D01*
X157502577Y-69123697D01*
X157490906Y-69125860D01*
X157480146Y-69127334D01*
X157447807Y-69131764D01*
X157439923Y-69135176D01*
X157439922Y-69135176D01*
X157434009Y-69137735D01*
X157412740Y-69144769D01*
X157398103Y-69148202D01*
X157390578Y-69152339D01*
X157390575Y-69152340D01*
X157359971Y-69169165D01*
X157349326Y-69174381D01*
X157309384Y-69191665D01*
X157297698Y-69201128D01*
X157279114Y-69213615D01*
X157265931Y-69220863D01*
X157257817Y-69227867D01*
X157233281Y-69252403D01*
X157223480Y-69261228D01*
X157198847Y-69281176D01*
X157192169Y-69286584D01*
X157187196Y-69293582D01*
X157187191Y-69293587D01*
X157181271Y-69301918D01*
X157167660Y-69318024D01*
X155966430Y-70519254D01*
X155906753Y-70552677D01*
X155882032Y-70558612D01*
X155875288Y-70562093D01*
X155875285Y-70562094D01*
X155738117Y-70632892D01*
X155731369Y-70636375D01*
X155603604Y-70747831D01*
X155583968Y-70775770D01*
X155511371Y-70879066D01*
X155506113Y-70886547D01*
X155444524Y-71044513D01*
X155443532Y-71052046D01*
X155443532Y-71052047D01*
X155441922Y-71064281D01*
X155422394Y-71212611D01*
X155440999Y-71381135D01*
X155499266Y-71540356D01*
X155503502Y-71546659D01*
X155503502Y-71546660D01*
X155512818Y-71560524D01*
X155593830Y-71681083D01*
X155599442Y-71686190D01*
X155599445Y-71686193D01*
X155713612Y-71790077D01*
X155713616Y-71790080D01*
X155719233Y-71795191D01*
X155725906Y-71798814D01*
X155725910Y-71798817D01*
X155861558Y-71872467D01*
X155861560Y-71872468D01*
X155868235Y-71876092D01*
X155875584Y-71878020D01*
X156024883Y-71917188D01*
X156024885Y-71917188D01*
X156032233Y-71919116D01*
X156118609Y-71920473D01*
X156194161Y-71921660D01*
X156194164Y-71921660D01*
X156201760Y-71921779D01*
X156209165Y-71920083D01*
X156209166Y-71920083D01*
X156299037Y-71899500D01*
X156367029Y-71883928D01*
X156518498Y-71807747D01*
X156605754Y-71733223D01*
X156641651Y-71702564D01*
X156641652Y-71702563D01*
X156647423Y-71697634D01*
X156651852Y-71691471D01*
X156651857Y-71691465D01*
X156723863Y-71591258D01*
X156779857Y-71547610D01*
X156850561Y-71541164D01*
X156910984Y-71571590D01*
X156989233Y-71642791D01*
X156995906Y-71646414D01*
X156995910Y-71646417D01*
X157131558Y-71720067D01*
X157131560Y-71720068D01*
X157138235Y-71723692D01*
X157145584Y-71725620D01*
X157294883Y-71764788D01*
X157294885Y-71764788D01*
X157302233Y-71766716D01*
X157388609Y-71768073D01*
X157464161Y-71769260D01*
X157464164Y-71769260D01*
X157471760Y-71769379D01*
X157479165Y-71767683D01*
X157479166Y-71767683D01*
X157539586Y-71753845D01*
X157637029Y-71731528D01*
X157788498Y-71655347D01*
X157794269Y-71650418D01*
X157794272Y-71650416D01*
X157877947Y-71578950D01*
X157942737Y-71549919D01*
X158012937Y-71560524D01*
X158044577Y-71581567D01*
X158056033Y-71591991D01*
X158062706Y-71595614D01*
X158198358Y-71669267D01*
X158198360Y-71669268D01*
X158205035Y-71672892D01*
X158212384Y-71674820D01*
X158361683Y-71713988D01*
X158361685Y-71713988D01*
X158369033Y-71715916D01*
X158376633Y-71716035D01*
X158384151Y-71717065D01*
X158383818Y-71719494D01*
X158440273Y-71737036D01*
X158485920Y-71791414D01*
X158496500Y-71841954D01*
X158496500Y-78450463D01*
X158476498Y-78518584D01*
X158459595Y-78539558D01*
X156509780Y-80489372D01*
X156414472Y-80584680D01*
X156403577Y-80606063D01*
X156393249Y-80622914D01*
X156392138Y-80624443D01*
X156335914Y-80667794D01*
X156265177Y-80673866D01*
X156214639Y-80651202D01*
X156203845Y-80643112D01*
X156188254Y-80634576D01*
X156067806Y-80589422D01*
X156052551Y-80585795D01*
X156001686Y-80580269D01*
X155994872Y-80579900D01*
X155638115Y-80579900D01*
X155622876Y-80584375D01*
X155621671Y-80585765D01*
X155620000Y-80593448D01*
X155620000Y-83177984D01*
X155624475Y-83193223D01*
X155625865Y-83194428D01*
X155633548Y-83196099D01*
X155994869Y-83196099D01*
X156001690Y-83195729D01*
X156052552Y-83190205D01*
X156067804Y-83186579D01*
X156188254Y-83141424D01*
X156203849Y-83132886D01*
X156305924Y-83056385D01*
X156318484Y-83043825D01*
X156322073Y-83039036D01*
X156378931Y-82996521D01*
X156422900Y-82988600D01*
X157391846Y-82988600D01*
X157395550Y-82988159D01*
X157395553Y-82988159D01*
X157402946Y-82987279D01*
X157418046Y-82985482D01*
X157426684Y-82981645D01*
X157428111Y-82981253D01*
X157494644Y-82981185D01*
X157496807Y-82981775D01*
X157505473Y-82985606D01*
X157531154Y-82988600D01*
X158201429Y-82988600D01*
X158269550Y-83008602D01*
X158316043Y-83062258D01*
X158326147Y-83132532D01*
X158296653Y-83197112D01*
X158290524Y-83203695D01*
X158061624Y-83432595D01*
X157999312Y-83466621D01*
X157972529Y-83469500D01*
X156967120Y-83469500D01*
X156952311Y-83468627D01*
X156932886Y-83466328D01*
X156918590Y-83464636D01*
X156909326Y-83466328D01*
X156909322Y-83466328D01*
X156860889Y-83475173D01*
X156856988Y-83475822D01*
X156808255Y-83483149D01*
X156808247Y-83483151D01*
X156798938Y-83484551D01*
X156792428Y-83487677D01*
X156785327Y-83488974D01*
X156733238Y-83516033D01*
X156729724Y-83517788D01*
X156676821Y-83543191D01*
X156671535Y-83548077D01*
X156671487Y-83548110D01*
X156665112Y-83551421D01*
X156660072Y-83555725D01*
X156622845Y-83592952D01*
X156619280Y-83596381D01*
X156577344Y-83635146D01*
X156573651Y-83641505D01*
X156568134Y-83647663D01*
X156468650Y-83747147D01*
X156457561Y-83757001D01*
X156438291Y-83772193D01*
X156438289Y-83772195D01*
X156430890Y-83778028D01*
X156425535Y-83785775D01*
X156425534Y-83785777D01*
X156397545Y-83826275D01*
X156395250Y-83829487D01*
X156360366Y-83876716D01*
X156358413Y-83882278D01*
X156355325Y-83887363D01*
X156353870Y-83889468D01*
X156352458Y-83888492D01*
X156311953Y-83932751D01*
X156243315Y-83950898D01*
X156197153Y-83938418D01*
X156196662Y-83939728D01*
X156067806Y-83891422D01*
X156052551Y-83887795D01*
X156001686Y-83882269D01*
X155994872Y-83881900D01*
X155638115Y-83881900D01*
X155622876Y-83886375D01*
X155621671Y-83887765D01*
X155620000Y-83895448D01*
X155620000Y-85318000D01*
X155599998Y-85386121D01*
X155546342Y-85432614D01*
X155494000Y-85444000D01*
X154291918Y-85444000D01*
X154283645Y-85446429D01*
X154212648Y-85446428D01*
X154159053Y-85414627D01*
X153662311Y-84917885D01*
X154273800Y-84917885D01*
X154278275Y-84933124D01*
X154279665Y-84934329D01*
X154287348Y-84936000D01*
X155093885Y-84936000D01*
X155109124Y-84931525D01*
X155110329Y-84930135D01*
X155112000Y-84922452D01*
X155112000Y-83900016D01*
X155107525Y-83884777D01*
X155106135Y-83883572D01*
X155098452Y-83881901D01*
X154737131Y-83881901D01*
X154730310Y-83882271D01*
X154679448Y-83887795D01*
X154664196Y-83891421D01*
X154543746Y-83936576D01*
X154528151Y-83945114D01*
X154426076Y-84021615D01*
X154413515Y-84034176D01*
X154337014Y-84136251D01*
X154328476Y-84151846D01*
X154283322Y-84272294D01*
X154279695Y-84287549D01*
X154274169Y-84338414D01*
X154273800Y-84345228D01*
X154273800Y-84917885D01*
X153662311Y-84917885D01*
X151477195Y-82732769D01*
X154273801Y-82732769D01*
X154274171Y-82739590D01*
X154279695Y-82790452D01*
X154283321Y-82805704D01*
X154328476Y-82926154D01*
X154337014Y-82941749D01*
X154413515Y-83043824D01*
X154426076Y-83056385D01*
X154528151Y-83132886D01*
X154543746Y-83141424D01*
X154664194Y-83186578D01*
X154679449Y-83190205D01*
X154730314Y-83195731D01*
X154737128Y-83196100D01*
X155093885Y-83196100D01*
X155109124Y-83191625D01*
X155110329Y-83190235D01*
X155112000Y-83182552D01*
X155112000Y-82160115D01*
X155107525Y-82144876D01*
X155106135Y-82143671D01*
X155098452Y-82142000D01*
X154291916Y-82142000D01*
X154276677Y-82146475D01*
X154275472Y-82147865D01*
X154273801Y-82155548D01*
X154273801Y-82732769D01*
X151477195Y-82732769D01*
X150360311Y-81615885D01*
X154273800Y-81615885D01*
X154278275Y-81631124D01*
X154279665Y-81632329D01*
X154287348Y-81634000D01*
X155093885Y-81634000D01*
X155109124Y-81629525D01*
X155110329Y-81628135D01*
X155112000Y-81620452D01*
X155112000Y-80598016D01*
X155107525Y-80582777D01*
X155106135Y-80581572D01*
X155098452Y-80579901D01*
X154737131Y-80579901D01*
X154730310Y-80580271D01*
X154679448Y-80585795D01*
X154664196Y-80589421D01*
X154543746Y-80634576D01*
X154528151Y-80643114D01*
X154426076Y-80719615D01*
X154413515Y-80732176D01*
X154337014Y-80834251D01*
X154328476Y-80849846D01*
X154283322Y-80970294D01*
X154279695Y-80985549D01*
X154274169Y-81036414D01*
X154273800Y-81043228D01*
X154273800Y-81615885D01*
X150360311Y-81615885D01*
X149783205Y-81038779D01*
X149749179Y-80976467D01*
X149746300Y-80949684D01*
X149746300Y-74883939D01*
X149766302Y-74815818D01*
X149790469Y-74788128D01*
X149834451Y-74750564D01*
X149834452Y-74750563D01*
X149840223Y-74745634D01*
X149939161Y-74607947D01*
X149947037Y-74588356D01*
X149999566Y-74457687D01*
X149999567Y-74457685D01*
X150002401Y-74450634D01*
X150014327Y-74366839D01*
X150025709Y-74286862D01*
X150025709Y-74286859D01*
X150026290Y-74282778D01*
X150026445Y-74268000D01*
X150024640Y-74253080D01*
X150006988Y-74107220D01*
X150006076Y-74099680D01*
X149946145Y-73941077D01*
X149850112Y-73801349D01*
X149838314Y-73790837D01*
X149729192Y-73693612D01*
X149729188Y-73693610D01*
X149723521Y-73688560D01*
X149573681Y-73609224D01*
X149409241Y-73567919D01*
X149401643Y-73567879D01*
X149401641Y-73567879D01*
X149324468Y-73567475D01*
X149239695Y-73567031D01*
X149232308Y-73568805D01*
X149232304Y-73568805D01*
X149088962Y-73603220D01*
X149074832Y-73606612D01*
X149068088Y-73610093D01*
X149068085Y-73610094D01*
X149062889Y-73612776D01*
X148924169Y-73684375D01*
X148796404Y-73795831D01*
X148698913Y-73934547D01*
X148637324Y-74092513D01*
X148636332Y-74100046D01*
X148636332Y-74100047D01*
X148620147Y-74222992D01*
X148615194Y-74260611D01*
X148633799Y-74429135D01*
X148692066Y-74588356D01*
X148696302Y-74594659D01*
X148696302Y-74594660D01*
X148782396Y-74722783D01*
X148782399Y-74722786D01*
X148786630Y-74729083D01*
X148842296Y-74779735D01*
X148854100Y-74790476D01*
X148891022Y-74851117D01*
X148895300Y-74883670D01*
X148895300Y-81245515D01*
X148902714Y-81268332D01*
X148907328Y-81287551D01*
X148911081Y-81311248D01*
X148915584Y-81320085D01*
X148915584Y-81320086D01*
X148921972Y-81332624D01*
X148929536Y-81350885D01*
X148933885Y-81364269D01*
X148933887Y-81364272D01*
X148936951Y-81373703D01*
X148942780Y-81381726D01*
X148951053Y-81393113D01*
X148961377Y-81409959D01*
X148972272Y-81431342D01*
X154298658Y-86757728D01*
X154320041Y-86768623D01*
X154336887Y-86778947D01*
X154356297Y-86793049D01*
X154365728Y-86796113D01*
X154365731Y-86796115D01*
X154379115Y-86800464D01*
X154397376Y-86808028D01*
X154403078Y-86810933D01*
X154418752Y-86818919D01*
X154442449Y-86822672D01*
X154461668Y-86827286D01*
X154484485Y-86834700D01*
X158058293Y-86834700D01*
X158081110Y-86827286D01*
X158100329Y-86822672D01*
X158124026Y-86818919D01*
X158139700Y-86810933D01*
X158145402Y-86808028D01*
X158163663Y-86800464D01*
X158177047Y-86796115D01*
X158177050Y-86796113D01*
X158186481Y-86793049D01*
X158205891Y-86778947D01*
X158222737Y-86768623D01*
X158244120Y-86757728D01*
X158508528Y-86493320D01*
X158519418Y-86471946D01*
X158529744Y-86455094D01*
X158543850Y-86435680D01*
X158546915Y-86426248D01*
X158551265Y-86412861D01*
X158558831Y-86394594D01*
X158561297Y-86389754D01*
X158569719Y-86373226D01*
X158569731Y-86373151D01*
X158606722Y-86319056D01*
X158672119Y-86291421D01*
X158686479Y-86290600D01*
X158788846Y-86290600D01*
X158792550Y-86290159D01*
X158792553Y-86290159D01*
X158799946Y-86289279D01*
X158815046Y-86287482D01*
X158917353Y-86242039D01*
X158938855Y-86220500D01*
X158957058Y-86202265D01*
X158996441Y-86162813D01*
X159041706Y-86060427D01*
X159044700Y-86034746D01*
X159044700Y-85213238D01*
X159064702Y-85145117D01*
X159081605Y-85124143D01*
X159294930Y-84910818D01*
X159357242Y-84876792D01*
X159386002Y-84873929D01*
X159430647Y-84874631D01*
X159496162Y-84875660D01*
X159496165Y-84875660D01*
X159503760Y-84875779D01*
X159511165Y-84874083D01*
X159511166Y-84874083D01*
X159550465Y-84865082D01*
X159669029Y-84837928D01*
X159672442Y-84836212D01*
X159741705Y-84832054D01*
X159803624Y-84866791D01*
X159836933Y-84929489D01*
X159839514Y-84954860D01*
X159839514Y-109242037D01*
X159819512Y-109310158D01*
X159802609Y-109331132D01*
X151528973Y-117604768D01*
X151466661Y-117638794D01*
X151395846Y-117633729D01*
X151339010Y-117591182D01*
X151318609Y-117549874D01*
X151273376Y-117389490D01*
X151271807Y-117383926D01*
X151182351Y-117202527D01*
X151174935Y-117192595D01*
X151064788Y-117045091D01*
X151064787Y-117045090D01*
X151061335Y-117040467D01*
X151038350Y-117019220D01*
X150917053Y-116907094D01*
X150917051Y-116907092D01*
X150912812Y-116903174D01*
X150885374Y-116885862D01*
X150746637Y-116798325D01*
X150741757Y-116795246D01*
X150553898Y-116720298D01*
X150355526Y-116680839D01*
X150349752Y-116680763D01*
X150349748Y-116680763D01*
X150247257Y-116679422D01*
X150153286Y-116678192D01*
X150147589Y-116679171D01*
X150147588Y-116679171D01*
X149959646Y-116711465D01*
X149959645Y-116711465D01*
X149953949Y-116712444D01*
X149764193Y-116782449D01*
X149759232Y-116785401D01*
X149759231Y-116785401D01*
X149671691Y-116837482D01*
X149590371Y-116885862D01*
X149438305Y-117019220D01*
X149313089Y-117178057D01*
X149311822Y-117177058D01*
X149263700Y-117218360D01*
X149211900Y-117229500D01*
X143341715Y-117229500D01*
X143273594Y-117209498D01*
X143252620Y-117192595D01*
X139062405Y-113002381D01*
X139028379Y-112940069D01*
X139025500Y-112913286D01*
X139025500Y-95309993D01*
X139025611Y-95304717D01*
X139025796Y-95300310D01*
X139028210Y-95242706D01*
X139020235Y-95208705D01*
X139018273Y-95200338D01*
X139016110Y-95188667D01*
X139011372Y-95154081D01*
X139010206Y-95145568D01*
X139004235Y-95131770D01*
X138997201Y-95110501D01*
X138995730Y-95104228D01*
X138995729Y-95104226D01*
X138993768Y-95095864D01*
X138972805Y-95057734D01*
X138967583Y-95047073D01*
X138953716Y-95015027D01*
X138953714Y-95015024D01*
X138950305Y-95007145D01*
X138940842Y-94995459D01*
X138928351Y-94976871D01*
X138921106Y-94963692D01*
X138914102Y-94955578D01*
X138889567Y-94931043D01*
X138880742Y-94921242D01*
X138860794Y-94896608D01*
X138860793Y-94896607D01*
X138855386Y-94889930D01*
X138848384Y-94884954D01*
X138848382Y-94884952D01*
X138840051Y-94879032D01*
X138823945Y-94865421D01*
X130758394Y-86799870D01*
X130724368Y-86737558D01*
X130724874Y-86689929D01*
X130723504Y-86689730D01*
X130753314Y-86484140D01*
X130753314Y-86484138D01*
X130753846Y-86480470D01*
X130755429Y-86420000D01*
X130736081Y-86209440D01*
X130719931Y-86152174D01*
X130704195Y-86096380D01*
X130704955Y-86025388D01*
X130743976Y-85966076D01*
X130808869Y-85937277D01*
X130879031Y-85948133D01*
X130914559Y-85973084D01*
X139919595Y-94978119D01*
X139953621Y-95040431D01*
X139956500Y-95067214D01*
X139956500Y-111845007D01*
X139956389Y-111850283D01*
X139953790Y-111912294D01*
X139955752Y-111920659D01*
X139963727Y-111954662D01*
X139965890Y-111966333D01*
X139971794Y-112009432D01*
X139975206Y-112017316D01*
X139975206Y-112017317D01*
X139977765Y-112023230D01*
X139984799Y-112044499D01*
X139988232Y-112059136D01*
X139992369Y-112066661D01*
X139992370Y-112066664D01*
X140009195Y-112097268D01*
X140014411Y-112107913D01*
X140031695Y-112147855D01*
X140041158Y-112159541D01*
X140053645Y-112178125D01*
X140060893Y-112191308D01*
X140067897Y-112199422D01*
X140092433Y-112223958D01*
X140101258Y-112233759D01*
X140121206Y-112258392D01*
X140126614Y-112265070D01*
X140133612Y-112270043D01*
X140133617Y-112270048D01*
X140141948Y-112275968D01*
X140158054Y-112289579D01*
X143487118Y-115618642D01*
X143490771Y-115622451D01*
X143532799Y-115668156D01*
X143569802Y-115691099D01*
X143579552Y-115697800D01*
X143614217Y-115724112D01*
X143628195Y-115729646D01*
X143648199Y-115739707D01*
X143660986Y-115747635D01*
X143669237Y-115750032D01*
X143669239Y-115750033D01*
X143702772Y-115759775D01*
X143714002Y-115763620D01*
X143754453Y-115779636D01*
X143762994Y-115780534D01*
X143762995Y-115780534D01*
X143769408Y-115781208D01*
X143791383Y-115785520D01*
X143805825Y-115789715D01*
X143813308Y-115790265D01*
X143814208Y-115790331D01*
X143814219Y-115790331D01*
X143816515Y-115790500D01*
X143851217Y-115790500D01*
X143864387Y-115791190D01*
X143904454Y-115795401D01*
X143912919Y-115793969D01*
X143912928Y-115793969D01*
X143923000Y-115792265D01*
X143944013Y-115790500D01*
X149216124Y-115790500D01*
X149284245Y-115810502D01*
X149319021Y-115843780D01*
X149396252Y-115953060D01*
X149399588Y-115957780D01*
X149544466Y-116098913D01*
X149712637Y-116211282D01*
X149717940Y-116213560D01*
X149717943Y-116213562D01*
X149844354Y-116267872D01*
X149898470Y-116291122D01*
X150095740Y-116335760D01*
X150101509Y-116335987D01*
X150101512Y-116335987D01*
X150177683Y-116338979D01*
X150297842Y-116343700D01*
X150384132Y-116331189D01*
X150492286Y-116315508D01*
X150492291Y-116315507D01*
X150498007Y-116314678D01*
X150503479Y-116312820D01*
X150503481Y-116312820D01*
X150684067Y-116251519D01*
X150684069Y-116251518D01*
X150689531Y-116249664D01*
X150834972Y-116168214D01*
X150860964Y-116153658D01*
X150860965Y-116153657D01*
X150866001Y-116150837D01*
X150928433Y-116098913D01*
X151017073Y-116025191D01*
X151021505Y-116021505D01*
X151150837Y-115866001D01*
X151249664Y-115689531D01*
X151272431Y-115622464D01*
X151312820Y-115503481D01*
X151312820Y-115503479D01*
X151314678Y-115498007D01*
X151315507Y-115492291D01*
X151315508Y-115492286D01*
X151343167Y-115301516D01*
X151343700Y-115297842D01*
X151345215Y-115240000D01*
X151326708Y-115038591D01*
X151271807Y-114843926D01*
X151182351Y-114662527D01*
X151174935Y-114652595D01*
X151064788Y-114505091D01*
X151064787Y-114505090D01*
X151061335Y-114500467D01*
X151038350Y-114479220D01*
X150917053Y-114367094D01*
X150917051Y-114367092D01*
X150912812Y-114363174D01*
X150885374Y-114345862D01*
X150746637Y-114258325D01*
X150741757Y-114255246D01*
X150553898Y-114180298D01*
X150355526Y-114140839D01*
X150349752Y-114140763D01*
X150349748Y-114140763D01*
X150247257Y-114139422D01*
X150153286Y-114138192D01*
X150147589Y-114139171D01*
X150147588Y-114139171D01*
X149959646Y-114171465D01*
X149959645Y-114171465D01*
X149953949Y-114172444D01*
X149764193Y-114242449D01*
X149759232Y-114245401D01*
X149759231Y-114245401D01*
X149639101Y-114316871D01*
X149590371Y-114345862D01*
X149438305Y-114479220D01*
X149313089Y-114638057D01*
X149311822Y-114637058D01*
X149263700Y-114678360D01*
X149211900Y-114689500D01*
X144167215Y-114689500D01*
X144099094Y-114669498D01*
X144078120Y-114652595D01*
X142096593Y-112671069D01*
X149135164Y-112671069D01*
X149148392Y-112872894D01*
X149163766Y-112933430D01*
X149186558Y-113023172D01*
X149198178Y-113068928D01*
X149282856Y-113252607D01*
X149286189Y-113257323D01*
X149352264Y-113350817D01*
X149399588Y-113417780D01*
X149544466Y-113558913D01*
X149549270Y-113562123D01*
X149611267Y-113603548D01*
X149712637Y-113671282D01*
X149717940Y-113673560D01*
X149717943Y-113673562D01*
X149806291Y-113711519D01*
X149898470Y-113751122D01*
X150095740Y-113795760D01*
X150101509Y-113795987D01*
X150101512Y-113795987D01*
X150177683Y-113798979D01*
X150297842Y-113803700D01*
X150384132Y-113791189D01*
X150492286Y-113775508D01*
X150492291Y-113775507D01*
X150498007Y-113774678D01*
X150503479Y-113772820D01*
X150503481Y-113772820D01*
X150684067Y-113711519D01*
X150684069Y-113711518D01*
X150689531Y-113709664D01*
X150866001Y-113610837D01*
X150928433Y-113558913D01*
X151017073Y-113485191D01*
X151021505Y-113481505D01*
X151102371Y-113384275D01*
X151147146Y-113330439D01*
X151150837Y-113326001D01*
X151249664Y-113149531D01*
X151280308Y-113059259D01*
X151312820Y-112963481D01*
X151312820Y-112963479D01*
X151314678Y-112958007D01*
X151315507Y-112952291D01*
X151315508Y-112952286D01*
X151333757Y-112826419D01*
X151343700Y-112757842D01*
X151345215Y-112700000D01*
X151326708Y-112498591D01*
X151315113Y-112457476D01*
X151273376Y-112309490D01*
X151271807Y-112303926D01*
X151182351Y-112122527D01*
X151164079Y-112098057D01*
X151064788Y-111965091D01*
X151064787Y-111965090D01*
X151061335Y-111960467D01*
X151038350Y-111939220D01*
X150917053Y-111827094D01*
X150917051Y-111827092D01*
X150912812Y-111823174D01*
X150885374Y-111805862D01*
X150746637Y-111718325D01*
X150741757Y-111715246D01*
X150553898Y-111640298D01*
X150355526Y-111600839D01*
X150349752Y-111600763D01*
X150349748Y-111600763D01*
X150247257Y-111599422D01*
X150153286Y-111598192D01*
X150147589Y-111599171D01*
X150147588Y-111599171D01*
X149959646Y-111631465D01*
X149959645Y-111631465D01*
X149953949Y-111632444D01*
X149764193Y-111702449D01*
X149590371Y-111805862D01*
X149438305Y-111939220D01*
X149313089Y-112098057D01*
X149218914Y-112277053D01*
X149158937Y-112470213D01*
X149135164Y-112671069D01*
X142096593Y-112671069D01*
X141094405Y-111668881D01*
X141060379Y-111606569D01*
X141057500Y-111579786D01*
X141057500Y-110131069D01*
X149135164Y-110131069D01*
X149148392Y-110332894D01*
X149164044Y-110394525D01*
X149185024Y-110477132D01*
X149198178Y-110528928D01*
X149282856Y-110712607D01*
X149286189Y-110717323D01*
X149378762Y-110848311D01*
X149399588Y-110877780D01*
X149544466Y-111018913D01*
X149712637Y-111131282D01*
X149717940Y-111133560D01*
X149717943Y-111133562D01*
X149806291Y-111171519D01*
X149898470Y-111211122D01*
X150095740Y-111255760D01*
X150101509Y-111255987D01*
X150101512Y-111255987D01*
X150177683Y-111258979D01*
X150297842Y-111263700D01*
X150384132Y-111251189D01*
X150492286Y-111235508D01*
X150492291Y-111235507D01*
X150498007Y-111234678D01*
X150503479Y-111232820D01*
X150503481Y-111232820D01*
X150684067Y-111171519D01*
X150684069Y-111171518D01*
X150689531Y-111169664D01*
X150866001Y-111070837D01*
X150928433Y-111018913D01*
X151017073Y-110945191D01*
X151021505Y-110941505D01*
X151150837Y-110786001D01*
X151249664Y-110609531D01*
X151280085Y-110519916D01*
X151312820Y-110423481D01*
X151312820Y-110423479D01*
X151314678Y-110418007D01*
X151315507Y-110412291D01*
X151315508Y-110412286D01*
X151341308Y-110234337D01*
X151343700Y-110217842D01*
X151345215Y-110160000D01*
X151326708Y-109958591D01*
X151271807Y-109763926D01*
X151182351Y-109582527D01*
X151164079Y-109558057D01*
X151064788Y-109425091D01*
X151064787Y-109425090D01*
X151061335Y-109420467D01*
X151038350Y-109399220D01*
X150917053Y-109287094D01*
X150917051Y-109287092D01*
X150912812Y-109283174D01*
X150885374Y-109265862D01*
X150746637Y-109178325D01*
X150741757Y-109175246D01*
X150553898Y-109100298D01*
X150355526Y-109060839D01*
X150349752Y-109060763D01*
X150349748Y-109060763D01*
X150247257Y-109059422D01*
X150153286Y-109058192D01*
X150147589Y-109059171D01*
X150147588Y-109059171D01*
X149959646Y-109091465D01*
X149959645Y-109091465D01*
X149953949Y-109092444D01*
X149764193Y-109162449D01*
X149590371Y-109265862D01*
X149438305Y-109399220D01*
X149313089Y-109558057D01*
X149218914Y-109737053D01*
X149158937Y-109930213D01*
X149135164Y-110131069D01*
X141057500Y-110131069D01*
X141057500Y-107591069D01*
X149135164Y-107591069D01*
X149148392Y-107792894D01*
X149149815Y-107798496D01*
X149176600Y-107903962D01*
X149198178Y-107988928D01*
X149282856Y-108172607D01*
X149399588Y-108337780D01*
X149544466Y-108478913D01*
X149712637Y-108591282D01*
X149717940Y-108593560D01*
X149717943Y-108593562D01*
X149806291Y-108631519D01*
X149898470Y-108671122D01*
X150095740Y-108715760D01*
X150101509Y-108715987D01*
X150101512Y-108715987D01*
X150177683Y-108718979D01*
X150297842Y-108723700D01*
X150384132Y-108711189D01*
X150492286Y-108695508D01*
X150492291Y-108695507D01*
X150498007Y-108694678D01*
X150503479Y-108692820D01*
X150503481Y-108692820D01*
X150684067Y-108631519D01*
X150684069Y-108631518D01*
X150689531Y-108629664D01*
X150866001Y-108530837D01*
X150928433Y-108478913D01*
X151017073Y-108405191D01*
X151021505Y-108401505D01*
X151150837Y-108246001D01*
X151156440Y-108235997D01*
X151234296Y-108096972D01*
X151249664Y-108069531D01*
X151305868Y-107903962D01*
X151312820Y-107883481D01*
X151312820Y-107883479D01*
X151314678Y-107878007D01*
X151315507Y-107872291D01*
X151315508Y-107872286D01*
X151333528Y-107748000D01*
X151343700Y-107677842D01*
X151345215Y-107620000D01*
X151326708Y-107418591D01*
X151271807Y-107223926D01*
X151182351Y-107042527D01*
X151164079Y-107018057D01*
X151064788Y-106885091D01*
X151064787Y-106885090D01*
X151061335Y-106880467D01*
X151038350Y-106859220D01*
X150917053Y-106747094D01*
X150917051Y-106747092D01*
X150912812Y-106743174D01*
X150885374Y-106725862D01*
X150746637Y-106638325D01*
X150741757Y-106635246D01*
X150553898Y-106560298D01*
X150355526Y-106520839D01*
X150349752Y-106520763D01*
X150349748Y-106520763D01*
X150247257Y-106519422D01*
X150153286Y-106518192D01*
X150147589Y-106519171D01*
X150147588Y-106519171D01*
X149959646Y-106551465D01*
X149959645Y-106551465D01*
X149953949Y-106552444D01*
X149764193Y-106622449D01*
X149590371Y-106725862D01*
X149438305Y-106859220D01*
X149313089Y-107018057D01*
X149218914Y-107197053D01*
X149158937Y-107390213D01*
X149135164Y-107591069D01*
X141057500Y-107591069D01*
X141057500Y-102806522D01*
X148957273Y-102806522D01*
X149004764Y-102983761D01*
X149008510Y-102994053D01*
X149100586Y-103191511D01*
X149106069Y-103201007D01*
X149231028Y-103379467D01*
X149238084Y-103387875D01*
X149392125Y-103541916D01*
X149400533Y-103548972D01*
X149578993Y-103673931D01*
X149588489Y-103679414D01*
X149785947Y-103771490D01*
X149796239Y-103775236D01*
X149876968Y-103796867D01*
X149937591Y-103833819D01*
X149968612Y-103897679D01*
X149960184Y-103968174D01*
X149914981Y-104022921D01*
X149887969Y-104036785D01*
X149764193Y-104082449D01*
X149590371Y-104185862D01*
X149438305Y-104319220D01*
X149313089Y-104478057D01*
X149218914Y-104657053D01*
X149158937Y-104850213D01*
X149135164Y-105051069D01*
X149148392Y-105252894D01*
X149198178Y-105448928D01*
X149282856Y-105632607D01*
X149399588Y-105797780D01*
X149544466Y-105938913D01*
X149712637Y-106051282D01*
X149717940Y-106053560D01*
X149717943Y-106053562D01*
X149806291Y-106091519D01*
X149898470Y-106131122D01*
X150095740Y-106175760D01*
X150101509Y-106175987D01*
X150101512Y-106175987D01*
X150177683Y-106178979D01*
X150297842Y-106183700D01*
X150384132Y-106171189D01*
X150492286Y-106155508D01*
X150492291Y-106155507D01*
X150498007Y-106154678D01*
X150503479Y-106152820D01*
X150503481Y-106152820D01*
X150684067Y-106091519D01*
X150684069Y-106091518D01*
X150689531Y-106089664D01*
X150866001Y-105990837D01*
X150928433Y-105938913D01*
X151017073Y-105865191D01*
X151021505Y-105861505D01*
X151126102Y-105735741D01*
X151147146Y-105710439D01*
X151150837Y-105706001D01*
X151249664Y-105529531D01*
X151280364Y-105439094D01*
X151312820Y-105343481D01*
X151312820Y-105343479D01*
X151314678Y-105338007D01*
X151315507Y-105332291D01*
X151315508Y-105332286D01*
X151343167Y-105141516D01*
X151343700Y-105137842D01*
X151345215Y-105080000D01*
X151326708Y-104878591D01*
X151271807Y-104683926D01*
X151182351Y-104502527D01*
X151164079Y-104478057D01*
X151064788Y-104345091D01*
X151064787Y-104345090D01*
X151061335Y-104340467D01*
X151038350Y-104319220D01*
X150917053Y-104207094D01*
X150917051Y-104207092D01*
X150912812Y-104203174D01*
X150885374Y-104185862D01*
X150746637Y-104098325D01*
X150741757Y-104095246D01*
X150736396Y-104093107D01*
X150736394Y-104093106D01*
X150590933Y-104035073D01*
X150535073Y-103991252D01*
X150511773Y-103924188D01*
X150528429Y-103855173D01*
X150579753Y-103806118D01*
X150605013Y-103796336D01*
X150683759Y-103775237D01*
X150694053Y-103771490D01*
X150891511Y-103679414D01*
X150901007Y-103673931D01*
X151079467Y-103548972D01*
X151087875Y-103541916D01*
X151241916Y-103387875D01*
X151248972Y-103379467D01*
X151373931Y-103201007D01*
X151379414Y-103191511D01*
X151471490Y-102994053D01*
X151475236Y-102983761D01*
X151521394Y-102811497D01*
X151521058Y-102797401D01*
X151513116Y-102794000D01*
X148972033Y-102794000D01*
X148958502Y-102797973D01*
X148957273Y-102806522D01*
X141057500Y-102806522D01*
X141057500Y-94801993D01*
X141057611Y-94796717D01*
X141058929Y-94765270D01*
X141060210Y-94734706D01*
X141057191Y-94721835D01*
X141050273Y-94692338D01*
X141048110Y-94680667D01*
X141043372Y-94646081D01*
X141042206Y-94637568D01*
X141038481Y-94628959D01*
X141036235Y-94623770D01*
X141029201Y-94602501D01*
X141027730Y-94596228D01*
X141027729Y-94596226D01*
X141025768Y-94587864D01*
X141004805Y-94549734D01*
X140999583Y-94539073D01*
X140985716Y-94507027D01*
X140985715Y-94507026D01*
X140982305Y-94499145D01*
X140972842Y-94487459D01*
X140960351Y-94468871D01*
X140953106Y-94455692D01*
X140946102Y-94447578D01*
X140921567Y-94423043D01*
X140912742Y-94413242D01*
X140892794Y-94388608D01*
X140892793Y-94388607D01*
X140887386Y-94381930D01*
X140880384Y-94376954D01*
X140880382Y-94376952D01*
X140872051Y-94371032D01*
X140855945Y-94357421D01*
X130758394Y-84259870D01*
X130724368Y-84197558D01*
X130724874Y-84149929D01*
X130723504Y-84149730D01*
X130753314Y-83944140D01*
X130753314Y-83944138D01*
X130753846Y-83940470D01*
X130755429Y-83880000D01*
X130736081Y-83669440D01*
X130727031Y-83637349D01*
X130704010Y-83555725D01*
X130678686Y-83465931D01*
X130667553Y-83443354D01*
X130587719Y-83281469D01*
X130585165Y-83276290D01*
X130458651Y-83106867D01*
X130339279Y-82996521D01*
X130307622Y-82967257D01*
X130307620Y-82967255D01*
X130303381Y-82963337D01*
X130244450Y-82926154D01*
X130129434Y-82853584D01*
X130129433Y-82853584D01*
X130124554Y-82850505D01*
X129928160Y-82772152D01*
X129922503Y-82771027D01*
X129922497Y-82771025D01*
X129730166Y-82732769D01*
X129725234Y-82731788D01*
X129662324Y-82698881D01*
X129627192Y-82637186D01*
X129630992Y-82566291D01*
X129672517Y-82508705D01*
X129731734Y-82483513D01*
X129864015Y-82464333D01*
X129864019Y-82464332D01*
X129869730Y-82463504D01*
X130065094Y-82397187D01*
X130105595Y-82390500D01*
X134391679Y-82390500D01*
X134459800Y-82410502D01*
X134480774Y-82427405D01*
X149152595Y-97099226D01*
X149186621Y-97161538D01*
X149189500Y-97188321D01*
X149189500Y-99652670D01*
X149183833Y-99690034D01*
X149158937Y-99770213D01*
X149135164Y-99971069D01*
X149148392Y-100172894D01*
X149165555Y-100240475D01*
X149194457Y-100354275D01*
X149198178Y-100368928D01*
X149282856Y-100552607D01*
X149286189Y-100557323D01*
X149386550Y-100699331D01*
X149399588Y-100717780D01*
X149544466Y-100858913D01*
X149712637Y-100971282D01*
X149717940Y-100973560D01*
X149717943Y-100973562D01*
X149888957Y-101047035D01*
X149943650Y-101092303D01*
X149965187Y-101159954D01*
X149946730Y-101228510D01*
X149894139Y-101276204D01*
X149871830Y-101284510D01*
X149796239Y-101304764D01*
X149785947Y-101308510D01*
X149588489Y-101400586D01*
X149578993Y-101406069D01*
X149400533Y-101531028D01*
X149392125Y-101538084D01*
X149238084Y-101692125D01*
X149231028Y-101700533D01*
X149106069Y-101878993D01*
X149100586Y-101888489D01*
X149008510Y-102085947D01*
X149004764Y-102096239D01*
X148958606Y-102268503D01*
X148958942Y-102282599D01*
X148966884Y-102286000D01*
X151507967Y-102286000D01*
X151521498Y-102282027D01*
X151522727Y-102273478D01*
X151475236Y-102096239D01*
X151471490Y-102085947D01*
X151379414Y-101888489D01*
X151373931Y-101878993D01*
X151248972Y-101700533D01*
X151241916Y-101692125D01*
X151087875Y-101538084D01*
X151079467Y-101531028D01*
X150901007Y-101406069D01*
X150891511Y-101400586D01*
X150694053Y-101308510D01*
X150683761Y-101304764D01*
X150602361Y-101282953D01*
X150541738Y-101246001D01*
X150510717Y-101182140D01*
X150519145Y-101111646D01*
X150564348Y-101056899D01*
X150594470Y-101041933D01*
X150684067Y-101011519D01*
X150684069Y-101011518D01*
X150689531Y-101009664D01*
X150866001Y-100910837D01*
X150928433Y-100858913D01*
X151017073Y-100785191D01*
X151021505Y-100781505D01*
X151137823Y-100641649D01*
X151147146Y-100630439D01*
X151150837Y-100626001D01*
X151249664Y-100449531D01*
X151270458Y-100388276D01*
X151312820Y-100263481D01*
X151312820Y-100263479D01*
X151314678Y-100258007D01*
X151315507Y-100252291D01*
X151315508Y-100252286D01*
X151343167Y-100061516D01*
X151343700Y-100057842D01*
X151345215Y-100000000D01*
X151326708Y-99798591D01*
X151295231Y-99686981D01*
X151290500Y-99652781D01*
X151290500Y-96765135D01*
X151291237Y-96751528D01*
X151294860Y-96718180D01*
X151294860Y-96718175D01*
X151295525Y-96712054D01*
X151290971Y-96660003D01*
X151290644Y-96655192D01*
X151290500Y-96652242D01*
X151290500Y-96649159D01*
X151286131Y-96604598D01*
X151286016Y-96603356D01*
X151278108Y-96512961D01*
X151278108Y-96512959D01*
X151277571Y-96506825D01*
X151276021Y-96501491D01*
X151275480Y-96495970D01*
X151247475Y-96403212D01*
X151247134Y-96402062D01*
X151220094Y-96308990D01*
X151217538Y-96304060D01*
X151215935Y-96298749D01*
X151213040Y-96293304D01*
X151213037Y-96293297D01*
X151170467Y-96213234D01*
X151169853Y-96212066D01*
X151156024Y-96185386D01*
X151125287Y-96126089D01*
X151121825Y-96121753D01*
X151119218Y-96116849D01*
X151058014Y-96041805D01*
X151057186Y-96040780D01*
X151026828Y-96002752D01*
X151026827Y-96002751D01*
X151024631Y-96000000D01*
X151022134Y-95997503D01*
X151021170Y-95996425D01*
X151017450Y-95992069D01*
X150992910Y-95961980D01*
X150992907Y-95961977D01*
X150989011Y-95957200D01*
X150952016Y-95926595D01*
X150943237Y-95918606D01*
X135667168Y-80642536D01*
X135658066Y-80632393D01*
X135637050Y-80606254D01*
X135637049Y-80606253D01*
X135633185Y-80601447D01*
X135593180Y-80567879D01*
X135589548Y-80564710D01*
X135587338Y-80562706D01*
X135585159Y-80560527D01*
X135550502Y-80532060D01*
X135549614Y-80531323D01*
X135475370Y-80469024D01*
X135470506Y-80466350D01*
X135466217Y-80462827D01*
X135380770Y-80417011D01*
X135379768Y-80416466D01*
X135300251Y-80372751D01*
X135300244Y-80372748D01*
X135294838Y-80369776D01*
X135289547Y-80368098D01*
X135284656Y-80365475D01*
X135278764Y-80363673D01*
X135278760Y-80363672D01*
X135192037Y-80337158D01*
X135190778Y-80336766D01*
X135155393Y-80325542D01*
X135098468Y-80307484D01*
X135092954Y-80306866D01*
X135087644Y-80305242D01*
X134991173Y-80295442D01*
X134990038Y-80295321D01*
X134959366Y-80291881D01*
X134941634Y-80289892D01*
X134941628Y-80289892D01*
X134938136Y-80289500D01*
X134934610Y-80289500D01*
X134933141Y-80289418D01*
X134927455Y-80288971D01*
X134902916Y-80286478D01*
X134888811Y-80285045D01*
X134888808Y-80285045D01*
X134882685Y-80284423D01*
X134838846Y-80288567D01*
X134834890Y-80288941D01*
X134823032Y-80289500D01*
X130822061Y-80289500D01*
X130753940Y-80269498D01*
X130707447Y-80215842D01*
X130697343Y-80145568D01*
X130726837Y-80080988D01*
X130746496Y-80062674D01*
X130805724Y-80018285D01*
X130818285Y-80005724D01*
X130894786Y-79903649D01*
X130903324Y-79888054D01*
X130948478Y-79767606D01*
X130952105Y-79752351D01*
X130957631Y-79701486D01*
X130958000Y-79694672D01*
X130958000Y-79072115D01*
X130953525Y-79056876D01*
X130952135Y-79055671D01*
X130944452Y-79054000D01*
X128260116Y-79054000D01*
X128244877Y-79058475D01*
X128243672Y-79059865D01*
X128242001Y-79067548D01*
X128242001Y-79694669D01*
X128242371Y-79701490D01*
X128247895Y-79752352D01*
X128251521Y-79767604D01*
X128296676Y-79888054D01*
X128305214Y-79903649D01*
X128381715Y-80005724D01*
X128394276Y-80018285D01*
X128453504Y-80062674D01*
X128496019Y-80119533D01*
X128501045Y-80190352D01*
X128466985Y-80252645D01*
X128404654Y-80286635D01*
X128377939Y-80289500D01*
X127466635Y-80289500D01*
X127453028Y-80288763D01*
X127419680Y-80285140D01*
X127419675Y-80285140D01*
X127413554Y-80284475D01*
X127361503Y-80289029D01*
X127356692Y-80289356D01*
X127353743Y-80289500D01*
X127350659Y-80289500D01*
X127347600Y-80289800D01*
X127347598Y-80289800D01*
X127339413Y-80290603D01*
X127306072Y-80293872D01*
X127304909Y-80293979D01*
X127208324Y-80302429D01*
X127202990Y-80303979D01*
X127197470Y-80304520D01*
X127125177Y-80326346D01*
X127104864Y-80332479D01*
X127103600Y-80332854D01*
X127089461Y-80336962D01*
X127010490Y-80359906D01*
X127005560Y-80362462D01*
X127000249Y-80364065D01*
X126994808Y-80366958D01*
X126994803Y-80366960D01*
X126914831Y-80409481D01*
X126913665Y-80410093D01*
X126833065Y-80451873D01*
X126833058Y-80451878D01*
X126827588Y-80454713D01*
X126823250Y-80458176D01*
X126818349Y-80460782D01*
X126813571Y-80464679D01*
X126743286Y-80522002D01*
X126742260Y-80522830D01*
X126704252Y-80553172D01*
X126701500Y-80555369D01*
X126699004Y-80557865D01*
X126697926Y-80558829D01*
X126693569Y-80562550D01*
X126663480Y-80587090D01*
X126663477Y-80587093D01*
X126658700Y-80590989D01*
X126654773Y-80595736D01*
X126654771Y-80595738D01*
X126646072Y-80606254D01*
X126631025Y-80624443D01*
X126628096Y-80627983D01*
X126620106Y-80636763D01*
X124950535Y-82306334D01*
X124940399Y-82315430D01*
X124909447Y-82340315D01*
X124875890Y-82380307D01*
X124872710Y-82383952D01*
X124870706Y-82386162D01*
X124868527Y-82388341D01*
X124840060Y-82422998D01*
X124839323Y-82423886D01*
X124777024Y-82498130D01*
X124774350Y-82502994D01*
X124770827Y-82507283D01*
X124725011Y-82592730D01*
X124724466Y-82593732D01*
X124680751Y-82673249D01*
X124680748Y-82673256D01*
X124677776Y-82678662D01*
X124676098Y-82683953D01*
X124673475Y-82688844D01*
X124671673Y-82694736D01*
X124671672Y-82694740D01*
X124645158Y-82781463D01*
X124644766Y-82782722D01*
X124615484Y-82875032D01*
X124614866Y-82880546D01*
X124613242Y-82885856D01*
X124603559Y-82981185D01*
X124603450Y-82982256D01*
X124603321Y-82983462D01*
X124597500Y-83035364D01*
X124597500Y-83038890D01*
X124597418Y-83040359D01*
X124596971Y-83046045D01*
X124595324Y-83062258D01*
X124593049Y-83084655D01*
X124592423Y-83090815D01*
X124596400Y-83132886D01*
X124596941Y-83138610D01*
X124597500Y-83150468D01*
X124597500Y-96238368D01*
X124596763Y-96251976D01*
X124592475Y-96291447D01*
X124593639Y-96304755D01*
X124597026Y-96343472D01*
X124597355Y-96348296D01*
X124597500Y-96351259D01*
X124597500Y-96354341D01*
X124597801Y-96357410D01*
X124601868Y-96398892D01*
X124601990Y-96400205D01*
X124606092Y-96447086D01*
X124610430Y-96496676D01*
X124611978Y-96502005D01*
X124612520Y-96507530D01*
X124640533Y-96600313D01*
X124640871Y-96601455D01*
X124667906Y-96694510D01*
X124670462Y-96699440D01*
X124672065Y-96704751D01*
X124674961Y-96710198D01*
X124674962Y-96710200D01*
X124717563Y-96790323D01*
X124718175Y-96791489D01*
X124762714Y-96877412D01*
X124766174Y-96881747D01*
X124768782Y-96886651D01*
X124772672Y-96891421D01*
X124772673Y-96891422D01*
X124830064Y-96961790D01*
X124830892Y-96962817D01*
X124833186Y-96965690D01*
X124863369Y-97003500D01*
X124865861Y-97005992D01*
X124866833Y-97007079D01*
X124870548Y-97011428D01*
X124895094Y-97041525D01*
X124895097Y-97041528D01*
X124898989Y-97046300D01*
X124903736Y-97050227D01*
X124903738Y-97050229D01*
X124935983Y-97076904D01*
X124944763Y-97084894D01*
X126880452Y-99020583D01*
X126914478Y-99082895D01*
X126909413Y-99153710D01*
X126902403Y-99169216D01*
X126877534Y-99215596D01*
X126876955Y-99216662D01*
X126833240Y-99296179D01*
X126833237Y-99296186D01*
X126830265Y-99301592D01*
X126828587Y-99306883D01*
X126825964Y-99311774D01*
X126824162Y-99317666D01*
X126824161Y-99317670D01*
X126797647Y-99404393D01*
X126797255Y-99405652D01*
X126767973Y-99497962D01*
X126767355Y-99503476D01*
X126765731Y-99508786D01*
X126765108Y-99514920D01*
X126755939Y-99605186D01*
X126755810Y-99606392D01*
X126752370Y-99637064D01*
X126750620Y-99652670D01*
X126749989Y-99658294D01*
X126749989Y-99661820D01*
X126749907Y-99663289D01*
X126749460Y-99668975D01*
X126744912Y-99713745D01*
X126745492Y-99719876D01*
X126749430Y-99761540D01*
X126749989Y-99773398D01*
X126749989Y-129321196D01*
X126749252Y-129334804D01*
X126744964Y-129374275D01*
X126745501Y-129380411D01*
X126749515Y-129426300D01*
X126749844Y-129431124D01*
X126749989Y-129434087D01*
X126749989Y-129437169D01*
X126750290Y-129440238D01*
X126754357Y-129481720D01*
X126754479Y-129483033D01*
X126755548Y-129495246D01*
X126762919Y-129579504D01*
X126764467Y-129584833D01*
X126765009Y-129590358D01*
X126793022Y-129683141D01*
X126793360Y-129684283D01*
X126820395Y-129777338D01*
X126822951Y-129782268D01*
X126824554Y-129787579D01*
X126827450Y-129793026D01*
X126827451Y-129793028D01*
X126870052Y-129873151D01*
X126870664Y-129874317D01*
X126915203Y-129960240D01*
X126918663Y-129964575D01*
X126921271Y-129969479D01*
X126925161Y-129974249D01*
X126925162Y-129974250D01*
X126982553Y-130044618D01*
X126983381Y-130045645D01*
X127015858Y-130086328D01*
X127018350Y-130088820D01*
X127019322Y-130089907D01*
X127023037Y-130094256D01*
X127047583Y-130124353D01*
X127047586Y-130124356D01*
X127051478Y-130129128D01*
X127056225Y-130133055D01*
X127056227Y-130133057D01*
X127088472Y-130159732D01*
X127097252Y-130167722D01*
X128522264Y-131592734D01*
X128556290Y-131655046D01*
X128551225Y-131725861D01*
X128508678Y-131782697D01*
X128442158Y-131807508D01*
X128397594Y-131802703D01*
X128374270Y-131795838D01*
X128309117Y-131776663D01*
X128021006Y-131725861D01*
X127971150Y-131717070D01*
X127971148Y-131717070D01*
X127967690Y-131716460D01*
X127964181Y-131716239D01*
X127964179Y-131716239D01*
X127625198Y-131694912D01*
X127625192Y-131694912D01*
X127621680Y-131694691D01*
X127523499Y-131699493D01*
X127278906Y-131711455D01*
X127278897Y-131711456D01*
X127275399Y-131711627D01*
X127271931Y-131712189D01*
X127271928Y-131712189D01*
X126936639Y-131766494D01*
X126936636Y-131766495D01*
X126933164Y-131767057D01*
X126929777Y-131768003D01*
X126929771Y-131768004D01*
X126653857Y-131845041D01*
X126599241Y-131860290D01*
X126455928Y-131918192D01*
X126281055Y-131988845D01*
X126281051Y-131988847D01*
X126277791Y-131990164D01*
X126274704Y-131991833D01*
X126274700Y-131991835D01*
X126188719Y-132038325D01*
X125972822Y-132155060D01*
X125688134Y-132352923D01*
X125685492Y-132355236D01*
X125685488Y-132355239D01*
X125585780Y-132442527D01*
X125427276Y-132581287D01*
X125193499Y-132837306D01*
X124989717Y-133117787D01*
X124818470Y-133419237D01*
X124800377Y-133461452D01*
X124683966Y-133733060D01*
X124681893Y-133737896D01*
X124669561Y-133778742D01*
X124584365Y-134060924D01*
X124581687Y-134069793D01*
X124519102Y-134410792D01*
X124494918Y-134756642D01*
X124509436Y-135103032D01*
X124529430Y-135232186D01*
X124549890Y-135364348D01*
X124562475Y-135445646D01*
X124653375Y-135780212D01*
X124781001Y-136102560D01*
X124782647Y-136105656D01*
X124782649Y-136105660D01*
X124827727Y-136190439D01*
X124943765Y-136408673D01*
X124945750Y-136411572D01*
X125137645Y-136691829D01*
X125137650Y-136691835D01*
X125139636Y-136694736D01*
X125366173Y-136957182D01*
X125620553Y-137192740D01*
X125899605Y-137398475D01*
X126199852Y-137571823D01*
X126517550Y-137710621D01*
X126520906Y-137711660D01*
X126520909Y-137711661D01*
X126845379Y-137812102D01*
X126848739Y-137813142D01*
X126852191Y-137813800D01*
X126852197Y-137813802D01*
X127185842Y-137877448D01*
X127185847Y-137877449D01*
X127189293Y-137878106D01*
X127417780Y-137895687D01*
X127531469Y-137904435D01*
X127531470Y-137904435D01*
X127534966Y-137904704D01*
X127764159Y-137896700D01*
X127877933Y-137892727D01*
X127877937Y-137892727D01*
X127881449Y-137892604D01*
X127884928Y-137892090D01*
X127884931Y-137892090D01*
X128220932Y-137842474D01*
X128220938Y-137842473D01*
X128224424Y-137841958D01*
X128227828Y-137841059D01*
X128227831Y-137841058D01*
X128556226Y-137754293D01*
X128556227Y-137754293D01*
X128559617Y-137753397D01*
X128882848Y-137628023D01*
X129190090Y-137467401D01*
X129477513Y-137273532D01*
X129741534Y-137048832D01*
X129770771Y-137017698D01*
X129976452Y-136798671D01*
X129976456Y-136798666D01*
X129978863Y-136796103D01*
X129980968Y-136793289D01*
X129980974Y-136793282D01*
X130184432Y-136521313D01*
X130186541Y-136518494D01*
X130203808Y-136489064D01*
X130266785Y-136381721D01*
X130361980Y-136219465D01*
X130407457Y-136117323D01*
X130501562Y-135905961D01*
X130501564Y-135905956D01*
X130502994Y-135902744D01*
X130607824Y-135572278D01*
X130675164Y-135232186D01*
X130696128Y-134982527D01*
X130703991Y-134888891D01*
X130703992Y-134888880D01*
X130704174Y-134886707D01*
X130705092Y-134821038D01*
X130705355Y-134802178D01*
X130705355Y-134802166D01*
X130705385Y-134800000D01*
X130705129Y-134795408D01*
X130690635Y-134536184D01*
X130686032Y-134453846D01*
X130684252Y-134443318D01*
X130628803Y-134115488D01*
X130628802Y-134115484D01*
X130628214Y-134112007D01*
X130617104Y-134073260D01*
X130596340Y-134000849D01*
X130596791Y-133929854D01*
X130635553Y-133870373D01*
X130700319Y-133841290D01*
X130770528Y-133851840D01*
X130806554Y-133877024D01*
X132163084Y-135233554D01*
X132197110Y-135295866D01*
X132199989Y-135322649D01*
X132199989Y-136220540D01*
X132199252Y-136234148D01*
X132194964Y-136273619D01*
X132195501Y-136279755D01*
X132199515Y-136325644D01*
X132199844Y-136330468D01*
X132199989Y-136333431D01*
X132199989Y-136336513D01*
X132200290Y-136339582D01*
X132204357Y-136381064D01*
X132204479Y-136382377D01*
X132208581Y-136429258D01*
X132212919Y-136478848D01*
X132214467Y-136484177D01*
X132215009Y-136489702D01*
X132243022Y-136582485D01*
X132243360Y-136583627D01*
X132270395Y-136676682D01*
X132272951Y-136681612D01*
X132274554Y-136686923D01*
X132277450Y-136692370D01*
X132277451Y-136692372D01*
X132320052Y-136772495D01*
X132320664Y-136773661D01*
X132365203Y-136859584D01*
X132368663Y-136863919D01*
X132371271Y-136868823D01*
X132375161Y-136873593D01*
X132375162Y-136873594D01*
X132432553Y-136943962D01*
X132433381Y-136944989D01*
X132465858Y-136985672D01*
X132468350Y-136988164D01*
X132469322Y-136989251D01*
X132473037Y-136993600D01*
X132497583Y-137023697D01*
X132497586Y-137023700D01*
X132501478Y-137028472D01*
X132506225Y-137032399D01*
X132506227Y-137032401D01*
X132538472Y-137059076D01*
X132547252Y-137067066D01*
X133795091Y-138314905D01*
X133829117Y-138377217D01*
X133824052Y-138448032D01*
X133781505Y-138504868D01*
X133714985Y-138529679D01*
X133705996Y-138530000D01*
X124790555Y-138530000D01*
X124722434Y-138509998D01*
X124713851Y-138503962D01*
X124583264Y-138403759D01*
X124574844Y-138396694D01*
X124280654Y-138127119D01*
X124272881Y-138119346D01*
X124003306Y-137825156D01*
X123996241Y-137816736D01*
X123896038Y-137686149D01*
X123870437Y-137619929D01*
X123870000Y-137609445D01*
X123870000Y-78527885D01*
X128242000Y-78527885D01*
X128246475Y-78543124D01*
X128247865Y-78544329D01*
X128255548Y-78546000D01*
X129327885Y-78546000D01*
X129343124Y-78541525D01*
X129344329Y-78540135D01*
X129346000Y-78532452D01*
X129346000Y-78527885D01*
X129854000Y-78527885D01*
X129858475Y-78543124D01*
X129859865Y-78544329D01*
X129867548Y-78546000D01*
X130939884Y-78546000D01*
X130955123Y-78541525D01*
X130956328Y-78540135D01*
X130957999Y-78532452D01*
X130957999Y-77905331D01*
X130957629Y-77898510D01*
X130952105Y-77847648D01*
X130948479Y-77832396D01*
X130903324Y-77711946D01*
X130894786Y-77696351D01*
X130818285Y-77594276D01*
X130805724Y-77581715D01*
X130703649Y-77505214D01*
X130688054Y-77496676D01*
X130567606Y-77451522D01*
X130552351Y-77447895D01*
X130501486Y-77442369D01*
X130494672Y-77442000D01*
X129872115Y-77442000D01*
X129856876Y-77446475D01*
X129855671Y-77447865D01*
X129854000Y-77455548D01*
X129854000Y-78527885D01*
X129346000Y-78527885D01*
X129346000Y-77460116D01*
X129341525Y-77444877D01*
X129340135Y-77443672D01*
X129332452Y-77442001D01*
X128705331Y-77442001D01*
X128698510Y-77442371D01*
X128647648Y-77447895D01*
X128632396Y-77451521D01*
X128511946Y-77496676D01*
X128496351Y-77505214D01*
X128394276Y-77581715D01*
X128381715Y-77594276D01*
X128305214Y-77696351D01*
X128296676Y-77711946D01*
X128251522Y-77832394D01*
X128247895Y-77847649D01*
X128242369Y-77898514D01*
X128242000Y-77905328D01*
X128242000Y-78527885D01*
X123870000Y-78527885D01*
X123870000Y-58438523D01*
X184037898Y-58438523D01*
X184049987Y-58690175D01*
X184051124Y-58699435D01*
X184100274Y-58946535D01*
X184102768Y-58955528D01*
X184187900Y-59192639D01*
X184191700Y-59201174D01*
X184310946Y-59423101D01*
X184315957Y-59430968D01*
X184379446Y-59515990D01*
X184390704Y-59524439D01*
X184403123Y-59517667D01*
X185427978Y-58492812D01*
X185435592Y-58478868D01*
X185435461Y-58477035D01*
X185431210Y-58470420D01*
X184401321Y-57440531D01*
X184388013Y-57433264D01*
X184377974Y-57440386D01*
X184367761Y-57452666D01*
X184362346Y-57460258D01*
X184231646Y-57675646D01*
X184227408Y-57683963D01*
X184129981Y-57916299D01*
X184127020Y-57925149D01*
X184065006Y-58169331D01*
X184063384Y-58178528D01*
X184038143Y-58429198D01*
X184037898Y-58438523D01*
X123870000Y-58438523D01*
X123870000Y-44756642D01*
X124494918Y-44756642D01*
X124509436Y-45103032D01*
X124562475Y-45445646D01*
X124653375Y-45780212D01*
X124781001Y-46102560D01*
X124943765Y-46408673D01*
X124945750Y-46411572D01*
X125137645Y-46691829D01*
X125137650Y-46691835D01*
X125139636Y-46694736D01*
X125366173Y-46957182D01*
X125620553Y-47192740D01*
X125899605Y-47398475D01*
X126199852Y-47571823D01*
X126517550Y-47710621D01*
X126520906Y-47711660D01*
X126520909Y-47711661D01*
X126658630Y-47754293D01*
X126848739Y-47813142D01*
X126852191Y-47813800D01*
X126852197Y-47813802D01*
X127185842Y-47877448D01*
X127185847Y-47877449D01*
X127189293Y-47878106D01*
X127417780Y-47895687D01*
X127531469Y-47904435D01*
X127531470Y-47904435D01*
X127534966Y-47904704D01*
X127764159Y-47896700D01*
X127877933Y-47892727D01*
X127877937Y-47892727D01*
X127881449Y-47892604D01*
X127884928Y-47892090D01*
X127884931Y-47892090D01*
X128220932Y-47842474D01*
X128220938Y-47842473D01*
X128224424Y-47841958D01*
X128227828Y-47841059D01*
X128227831Y-47841058D01*
X128556226Y-47754293D01*
X128556227Y-47754293D01*
X128559617Y-47753397D01*
X128882848Y-47628023D01*
X129190090Y-47467401D01*
X129477513Y-47273532D01*
X129741534Y-47048832D01*
X129830097Y-46954522D01*
X129976452Y-46798671D01*
X129976456Y-46798666D01*
X129978863Y-46796103D01*
X129980968Y-46793289D01*
X129980974Y-46793282D01*
X130184432Y-46521313D01*
X130186541Y-46518494D01*
X130250973Y-46408673D01*
X130253592Y-46404208D01*
X130361980Y-46219465D01*
X130502994Y-45902744D01*
X130607824Y-45572278D01*
X130675164Y-45232186D01*
X130689302Y-45063816D01*
X130703991Y-44888891D01*
X130703992Y-44888880D01*
X130704174Y-44886707D01*
X130705385Y-44800000D01*
X130702962Y-44756642D01*
X184494918Y-44756642D01*
X184509436Y-45103032D01*
X184562475Y-45445646D01*
X184653375Y-45780212D01*
X184781001Y-46102560D01*
X184943765Y-46408673D01*
X184945750Y-46411572D01*
X185137645Y-46691829D01*
X185137650Y-46691835D01*
X185139636Y-46694736D01*
X185366173Y-46957182D01*
X185620553Y-47192740D01*
X185899605Y-47398475D01*
X186199852Y-47571823D01*
X186517550Y-47710621D01*
X186520906Y-47711660D01*
X186520909Y-47711661D01*
X186658630Y-47754293D01*
X186848739Y-47813142D01*
X186852191Y-47813800D01*
X186852197Y-47813802D01*
X187185842Y-47877448D01*
X187185847Y-47877449D01*
X187189293Y-47878106D01*
X187417780Y-47895687D01*
X187531469Y-47904435D01*
X187531470Y-47904435D01*
X187534966Y-47904704D01*
X187764159Y-47896700D01*
X187877933Y-47892727D01*
X187877937Y-47892727D01*
X187881449Y-47892604D01*
X187884928Y-47892090D01*
X187884931Y-47892090D01*
X188220932Y-47842474D01*
X188220938Y-47842473D01*
X188224424Y-47841958D01*
X188227828Y-47841059D01*
X188227831Y-47841058D01*
X188556226Y-47754293D01*
X188556227Y-47754293D01*
X188559617Y-47753397D01*
X188882848Y-47628023D01*
X189190090Y-47467401D01*
X189477513Y-47273532D01*
X189741534Y-47048832D01*
X189830097Y-46954522D01*
X189976452Y-46798671D01*
X189976456Y-46798666D01*
X189978863Y-46796103D01*
X189980968Y-46793289D01*
X189980974Y-46793282D01*
X190184432Y-46521313D01*
X190186541Y-46518494D01*
X190250973Y-46408673D01*
X190253592Y-46404208D01*
X190361980Y-46219465D01*
X190502994Y-45902744D01*
X190607824Y-45572278D01*
X190675164Y-45232186D01*
X190689302Y-45063816D01*
X190703991Y-44888891D01*
X190703992Y-44888880D01*
X190704174Y-44886707D01*
X190705385Y-44800000D01*
X190702765Y-44753124D01*
X190686228Y-44457360D01*
X190686032Y-44453846D01*
X190675296Y-44390368D01*
X190628803Y-44115488D01*
X190628802Y-44115484D01*
X190628214Y-44112007D01*
X190617104Y-44073260D01*
X190533621Y-43782122D01*
X190532652Y-43778742D01*
X190452200Y-43583550D01*
X190401875Y-43461452D01*
X190401871Y-43461444D01*
X190400537Y-43458207D01*
X190233516Y-43154397D01*
X190033670Y-42871097D01*
X189803490Y-42611839D01*
X189545846Y-42379856D01*
X189263948Y-42178037D01*
X189260885Y-42176325D01*
X189260880Y-42176322D01*
X189105878Y-42089694D01*
X188961311Y-42008898D01*
X188958066Y-42007534D01*
X188958062Y-42007532D01*
X188644948Y-41875912D01*
X188641706Y-41874549D01*
X188638343Y-41873559D01*
X188638334Y-41873556D01*
X188407515Y-41805623D01*
X188309117Y-41776663D01*
X188036065Y-41728516D01*
X187971150Y-41717070D01*
X187971148Y-41717070D01*
X187967690Y-41716460D01*
X187964181Y-41716239D01*
X187964179Y-41716239D01*
X187625198Y-41694912D01*
X187625192Y-41694912D01*
X187621680Y-41694691D01*
X187523499Y-41699493D01*
X187278906Y-41711455D01*
X187278897Y-41711456D01*
X187275399Y-41711627D01*
X187271931Y-41712189D01*
X187271928Y-41712189D01*
X186936639Y-41766494D01*
X186936636Y-41766495D01*
X186933164Y-41767057D01*
X186929777Y-41768003D01*
X186929771Y-41768004D01*
X186795036Y-41805623D01*
X186599241Y-41860290D01*
X186504180Y-41898697D01*
X186281055Y-41988845D01*
X186281051Y-41988847D01*
X186277791Y-41990164D01*
X186274704Y-41991833D01*
X186274700Y-41991835D01*
X186243143Y-42008898D01*
X185972822Y-42155060D01*
X185688134Y-42352923D01*
X185685492Y-42355236D01*
X185685488Y-42355239D01*
X185654676Y-42382213D01*
X185427276Y-42581287D01*
X185193499Y-42837306D01*
X184989717Y-43117787D01*
X184818470Y-43419237D01*
X184681893Y-43737896D01*
X184669561Y-43778742D01*
X184607634Y-43983854D01*
X184581687Y-44069793D01*
X184554658Y-44217062D01*
X184522851Y-44390368D01*
X184519102Y-44410792D01*
X184494918Y-44756642D01*
X130702962Y-44756642D01*
X130702765Y-44753124D01*
X130686228Y-44457360D01*
X130686032Y-44453846D01*
X130675296Y-44390368D01*
X130628803Y-44115488D01*
X130628802Y-44115484D01*
X130628214Y-44112007D01*
X130617104Y-44073260D01*
X130533621Y-43782122D01*
X130532652Y-43778742D01*
X130452200Y-43583550D01*
X130401875Y-43461452D01*
X130401871Y-43461444D01*
X130400537Y-43458207D01*
X130233516Y-43154397D01*
X130033670Y-42871097D01*
X129803490Y-42611839D01*
X129545846Y-42379856D01*
X129263948Y-42178037D01*
X129260885Y-42176325D01*
X129260880Y-42176322D01*
X129105878Y-42089694D01*
X128961311Y-42008898D01*
X128958066Y-42007534D01*
X128958062Y-42007532D01*
X128644948Y-41875912D01*
X128641706Y-41874549D01*
X128638343Y-41873559D01*
X128638334Y-41873556D01*
X128407515Y-41805623D01*
X128309117Y-41776663D01*
X128036065Y-41728516D01*
X127971150Y-41717070D01*
X127971148Y-41717070D01*
X127967690Y-41716460D01*
X127964181Y-41716239D01*
X127964179Y-41716239D01*
X127625198Y-41694912D01*
X127625192Y-41694912D01*
X127621680Y-41694691D01*
X127523499Y-41699493D01*
X127278906Y-41711455D01*
X127278897Y-41711456D01*
X127275399Y-41711627D01*
X127271931Y-41712189D01*
X127271928Y-41712189D01*
X126936639Y-41766494D01*
X126936636Y-41766495D01*
X126933164Y-41767057D01*
X126929777Y-41768003D01*
X126929771Y-41768004D01*
X126795036Y-41805623D01*
X126599241Y-41860290D01*
X126504180Y-41898697D01*
X126281055Y-41988845D01*
X126281051Y-41988847D01*
X126277791Y-41990164D01*
X126274704Y-41991833D01*
X126274700Y-41991835D01*
X126243143Y-42008898D01*
X125972822Y-42155060D01*
X125688134Y-42352923D01*
X125685492Y-42355236D01*
X125685488Y-42355239D01*
X125654676Y-42382213D01*
X125427276Y-42581287D01*
X125193499Y-42837306D01*
X124989717Y-43117787D01*
X124818470Y-43419237D01*
X124681893Y-43737896D01*
X124669561Y-43778742D01*
X124607634Y-43983854D01*
X124581687Y-44069793D01*
X124554658Y-44217062D01*
X124522851Y-44390368D01*
X124519102Y-44410792D01*
X124494918Y-44756642D01*
X123870000Y-44756642D01*
X123870000Y-41990555D01*
X123890002Y-41922434D01*
X123896038Y-41913851D01*
X123996241Y-41783264D01*
X124003306Y-41774844D01*
X124272881Y-41480654D01*
X124280654Y-41472881D01*
X124570443Y-41207339D01*
X124574840Y-41203310D01*
X124583257Y-41196246D01*
X124899832Y-40953330D01*
X124908836Y-40947026D01*
X124996641Y-40891088D01*
X125202828Y-40759733D01*
X125270527Y-40740000D01*
X189929473Y-40740000D01*
X189997172Y-40759733D01*
G37*
%TD.AperFunction*%
%TD*%
M02*
