%TF.GenerationSoftware,KiCad,Pcbnew,(6.0.2)*%
%TF.CreationDate,2022-12-13T09:45:59-05:00*%
%TF.ProjectId,BREAD_Slice,42524541-445f-4536-9c69-63652e6b6963,rev?*%
%TF.SameCoordinates,Original*%
%TF.FileFunction,Soldermask,Top*%
%TF.FilePolarity,Negative*%
%FSLAX46Y46*%
G04 Gerber Fmt 4.6, Leading zero omitted, Abs format (unit mm)*
G04 Created by KiCad (PCBNEW (6.0.2)) date 2022-12-13 09:45:59*
%MOMM*%
%LPD*%
G01*
G04 APERTURE LIST*
G04 Aperture macros list*
%AMRoundRect*
0 Rectangle with rounded corners*
0 $1 Rounding radius*
0 $2 $3 $4 $5 $6 $7 $8 $9 X,Y pos of 4 corners*
0 Add a 4 corners polygon primitive as box body*
4,1,4,$2,$3,$4,$5,$6,$7,$8,$9,$2,$3,0*
0 Add four circle primitives for the rounded corners*
1,1,$1+$1,$2,$3*
1,1,$1+$1,$4,$5*
1,1,$1+$1,$6,$7*
1,1,$1+$1,$8,$9*
0 Add four rect primitives between the rounded corners*
20,1,$1+$1,$2,$3,$4,$5,0*
20,1,$1+$1,$4,$5,$6,$7,0*
20,1,$1+$1,$6,$7,$8,$9,0*
20,1,$1+$1,$8,$9,$2,$3,0*%
G04 Aperture macros list end*
%ADD10C,5.600000*%
%ADD11R,1.600000X1.600000*%
%ADD12O,1.600000X1.600000*%
%ADD13RoundRect,0.050800X0.620000X0.750000X-0.620000X0.750000X-0.620000X-0.750000X0.620000X-0.750000X0*%
%ADD14R,1.700000X1.700000*%
%ADD15O,1.700000X1.700000*%
%ADD16RoundRect,0.050800X-0.620000X-0.750000X0.620000X-0.750000X0.620000X0.750000X-0.620000X0.750000X0*%
%ADD17RoundRect,0.050800X-0.750000X0.620000X-0.750000X-0.620000X0.750000X-0.620000X0.750000X0.620000X0*%
%ADD18RoundRect,0.050800X0.889000X1.079500X-0.889000X1.079500X-0.889000X-1.079500X0.889000X-1.079500X0*%
%ADD19RoundRect,0.050800X-0.889000X-1.079500X0.889000X-1.079500X0.889000X1.079500X-0.889000X1.079500X0*%
%ADD20RoundRect,0.050800X1.079500X-0.889000X1.079500X0.889000X-1.079500X0.889000X-1.079500X-0.889000X0*%
%ADD21RoundRect,0.050800X-1.079500X0.889000X-1.079500X-0.889000X1.079500X-0.889000X1.079500X0.889000X0*%
%ADD22R,3.500000X1.800000*%
%ADD23RoundRect,0.050800X-0.400000X0.400000X-0.400000X-0.400000X0.400000X-0.400000X0.400000X0.400000X0*%
%ADD24R,1.400000X0.400000*%
%ADD25R,1.900000X1.750000*%
%ADD26R,1.450000X1.150000*%
%ADD27O,1.900000X1.050000*%
%ADD28R,4.200000X2.400000*%
%ADD29RoundRect,0.050800X-0.537500X-0.500000X0.537500X-0.500000X0.537500X0.500000X-0.537500X0.500000X0*%
%ADD30RoundRect,0.050800X-0.500000X0.537500X-0.500000X-0.537500X0.500000X-0.537500X0.500000X0.537500X0*%
%ADD31RoundRect,0.050800X0.537500X0.500000X-0.537500X0.500000X-0.537500X-0.500000X0.537500X-0.500000X0*%
%ADD32RoundRect,0.150000X-0.150000X0.512500X-0.150000X-0.512500X0.150000X-0.512500X0.150000X0.512500X0*%
%ADD33R,2.500000X2.500000*%
%ADD34C,2.500000*%
%ADD35RoundRect,0.050800X0.750000X0.750000X-0.750000X0.750000X-0.750000X-0.750000X0.750000X-0.750000X0*%
%ADD36RoundRect,0.050800X0.750000X-0.620000X0.750000X0.620000X-0.750000X0.620000X-0.750000X-0.620000X0*%
%ADD37R,1.308000X1.308000*%
%ADD38C,1.308000*%
G04 APERTURE END LIST*
%TO.C,1A1*%
G36*
X169209000Y-81507000D02*
G01*
X167431000Y-81507000D01*
X167431000Y-78713000D01*
X169209000Y-78713000D01*
X169209000Y-81507000D01*
G37*
%TO.C,0.5A1*%
G36*
X165335500Y-81570500D02*
G01*
X163684500Y-81570500D01*
X163684500Y-78649500D01*
X165335500Y-78649500D01*
X165335500Y-81570500D01*
G37*
%TO.C,X2*%
G36*
X156840000Y-75060000D02*
G01*
X155960000Y-75060000D01*
X155960000Y-74710000D01*
X156840000Y-74710000D01*
X156840000Y-75060000D01*
G37*
G36*
X156840000Y-74560000D02*
G01*
X155960000Y-74560000D01*
X155960000Y-74210000D01*
X156840000Y-74210000D01*
X156840000Y-74560000D01*
G37*
G36*
X159840000Y-75060000D02*
G01*
X158960000Y-75060000D01*
X158960000Y-74710000D01*
X159840000Y-74710000D01*
X159840000Y-75060000D01*
G37*
G36*
X159840000Y-73560000D02*
G01*
X158960000Y-73560000D01*
X158960000Y-73210000D01*
X159840000Y-73210000D01*
X159840000Y-73560000D01*
G37*
G36*
X157325000Y-76075000D02*
G01*
X156975000Y-76075000D01*
X156975000Y-75195000D01*
X157325000Y-75195000D01*
X157325000Y-76075000D01*
G37*
G36*
X158325000Y-73075000D02*
G01*
X157975000Y-73075000D01*
X157975000Y-72195000D01*
X158325000Y-72195000D01*
X158325000Y-73075000D01*
G37*
G36*
X159840000Y-74060000D02*
G01*
X158960000Y-74060000D01*
X158960000Y-73710000D01*
X159840000Y-73710000D01*
X159840000Y-74060000D01*
G37*
G36*
X158825000Y-76075000D02*
G01*
X158475000Y-76075000D01*
X158475000Y-75195000D01*
X158825000Y-75195000D01*
X158825000Y-76075000D01*
G37*
G36*
X158325000Y-76075000D02*
G01*
X157975000Y-76075000D01*
X157975000Y-75195000D01*
X158325000Y-75195000D01*
X158325000Y-76075000D01*
G37*
G36*
X156840000Y-73560000D02*
G01*
X155960000Y-73560000D01*
X155960000Y-73210000D01*
X156840000Y-73210000D01*
X156840000Y-73560000D01*
G37*
G36*
X157825000Y-76075000D02*
G01*
X157475000Y-76075000D01*
X157475000Y-75195000D01*
X157825000Y-75195000D01*
X157825000Y-76075000D01*
G37*
G36*
X157825000Y-73075000D02*
G01*
X157475000Y-73075000D01*
X157475000Y-72195000D01*
X157825000Y-72195000D01*
X157825000Y-73075000D01*
G37*
G36*
X158825000Y-73075000D02*
G01*
X158475000Y-73075000D01*
X158475000Y-72195000D01*
X158825000Y-72195000D01*
X158825000Y-73075000D01*
G37*
G36*
X156840000Y-74060000D02*
G01*
X155960000Y-74060000D01*
X155960000Y-73710000D01*
X156840000Y-73710000D01*
X156840000Y-74060000D01*
G37*
G36*
X159840000Y-74560000D02*
G01*
X158960000Y-74560000D01*
X158960000Y-74210000D01*
X159840000Y-74210000D01*
X159840000Y-74560000D01*
G37*
G36*
X157325000Y-73075000D02*
G01*
X156975000Y-73075000D01*
X156975000Y-72195000D01*
X157325000Y-72195000D01*
X157325000Y-73075000D01*
G37*
%TO.C,THERM1*%
G36*
X167431000Y-70331000D02*
G01*
X165653000Y-70331000D01*
X165653000Y-67537000D01*
X167431000Y-67537000D01*
X167431000Y-70331000D01*
G37*
%TO.C,1.5A1*%
G36*
X172955500Y-81570500D02*
G01*
X171304500Y-81570500D01*
X171304500Y-78649500D01*
X172955500Y-78649500D01*
X172955500Y-81570500D01*
G37*
%TD*%
D10*
%TO.C,H1*%
X127600000Y-44800000D03*
%TD*%
%TO.C,H2*%
X187600000Y-44800000D03*
%TD*%
%TO.C,H3*%
X127600000Y-134800000D03*
%TD*%
%TO.C,H4*%
X187600000Y-134800000D03*
%TD*%
D11*
%TO.C,A1*%
X135000000Y-100000000D03*
D12*
X135000000Y-102540000D03*
X135000000Y-105080000D03*
X135000000Y-107620000D03*
X135000000Y-110160000D03*
X135000000Y-112700000D03*
X135000000Y-115240000D03*
X135000000Y-117780000D03*
X135000000Y-120320000D03*
X135000000Y-122860000D03*
X135000000Y-125400000D03*
X135000000Y-127940000D03*
X135000000Y-130480000D03*
X135000000Y-133020000D03*
X135000000Y-135560000D03*
X150240000Y-135560000D03*
X150240000Y-133020000D03*
X150240000Y-130480000D03*
X150240000Y-127940000D03*
X150240000Y-125400000D03*
X150240000Y-122860000D03*
X150240000Y-120320000D03*
X150240000Y-117780000D03*
X150240000Y-115240000D03*
X150240000Y-112700000D03*
X150240000Y-110160000D03*
X150240000Y-107620000D03*
X150240000Y-105080000D03*
X150240000Y-102540000D03*
X150240000Y-100000000D03*
%TD*%
D13*
%TO.C,C2*%
X155300000Y-84682000D03*
X153400000Y-84682000D03*
%TD*%
D14*
%TO.C,J1*%
X129600000Y-78800000D03*
D15*
X129600000Y-81340000D03*
X129600000Y-83880000D03*
X129600000Y-86420000D03*
X129600000Y-88960000D03*
X129600000Y-91500000D03*
X129600000Y-94040000D03*
X129600000Y-96580000D03*
X129600000Y-99120000D03*
X129600000Y-101660000D03*
%TD*%
D13*
%TO.C,C1*%
X155300000Y-82142000D03*
X153400000Y-82142000D03*
%TD*%
D16*
%TO.C,C3*%
X138795000Y-74937536D03*
X140695000Y-74937536D03*
%TD*%
D17*
%TO.C,C4*%
X150794000Y-76112000D03*
X150794000Y-78012000D03*
%TD*%
%TO.C,C5*%
X152826000Y-76112000D03*
X152826000Y-78012000D03*
%TD*%
D16*
%TO.C,C6*%
X137525000Y-66047536D03*
X139425000Y-66047536D03*
%TD*%
D18*
%TO.C,D1*%
X182658300Y-90270000D03*
D19*
X178594300Y-90270000D03*
%TD*%
D20*
%TO.C,D2*%
X175305000Y-108164300D03*
D21*
X175305000Y-104100300D03*
%TD*%
D22*
%TO.C,D3*%
X139505600Y-63244400D03*
X144505600Y-63244400D03*
%TD*%
D23*
%TO.C,D4*%
X156902000Y-124306000D03*
X158402000Y-124306000D03*
%TD*%
D24*
%TO.C,J2*%
X186735000Y-90270000D03*
X186735000Y-89620000D03*
X186735000Y-88970000D03*
X186735000Y-88320000D03*
X186735000Y-87670000D03*
D25*
X189385000Y-87845000D03*
D26*
X187155000Y-86650000D03*
D27*
X189385000Y-92545000D03*
D26*
X187155000Y-91290000D03*
D25*
X189385000Y-90095000D03*
D27*
X189385000Y-85395000D03*
%TD*%
D28*
%TO.C,L1*%
X145460000Y-74012536D03*
X145460000Y-69512536D03*
%TD*%
D29*
%TO.C,R1*%
X170645000Y-76300000D03*
X172345000Y-76300000D03*
%TD*%
%TO.C,R2*%
X166835000Y-76300000D03*
X168535000Y-76300000D03*
%TD*%
%TO.C,R3*%
X163025000Y-76300000D03*
X164725000Y-76300000D03*
%TD*%
D30*
%TO.C,R4*%
X155213600Y-77075600D03*
X155213600Y-78775600D03*
%TD*%
D29*
%TO.C,R5*%
X158884800Y-77671600D03*
X160584800Y-77671600D03*
%TD*%
%TO.C,R6*%
X161069200Y-71474000D03*
X162769200Y-71474000D03*
%TD*%
D30*
%TO.C,R7*%
X135706400Y-67576000D03*
X135706400Y-69276000D03*
%TD*%
D29*
%TO.C,R8*%
X137345600Y-68172000D03*
X139045600Y-68172000D03*
%TD*%
D31*
%TO.C,R9*%
X164090000Y-68045000D03*
X162390000Y-68045000D03*
%TD*%
D32*
%TO.C,U1*%
X139425000Y-70371036D03*
X138475000Y-70371036D03*
X137525000Y-70371036D03*
X137525000Y-72646036D03*
X138475000Y-72646036D03*
X139425000Y-72646036D03*
%TD*%
D33*
%TO.C,J4*%
X185800000Y-118250000D03*
D34*
X185800000Y-123250000D03*
%TD*%
D33*
%TO.C,J5*%
X185800000Y-101994000D03*
D34*
X185800000Y-106994000D03*
%TD*%
D29*
%TO.C,R11*%
X160358000Y-126592000D03*
X162058000Y-126592000D03*
%TD*%
D35*
%TO.C,X2*%
X157900000Y-74135000D03*
%TD*%
D36*
%TO.C,C8*%
X170098000Y-71662000D03*
X170098000Y-69762000D03*
%TD*%
D33*
%TO.C,J3*%
X185800000Y-53480000D03*
D34*
X185800000Y-58480000D03*
%TD*%
D36*
%TO.C,C7*%
X172384000Y-71662000D03*
X172384000Y-69762000D03*
%TD*%
D23*
%TO.C,D5*%
X156902000Y-126592000D03*
X158402000Y-126592000D03*
%TD*%
D29*
%TO.C,R10*%
X160358000Y-124306000D03*
X162058000Y-124306000D03*
%TD*%
D37*
%TO.C,BATT1*%
X185157500Y-73490000D03*
D38*
X185157500Y-71490000D03*
%TD*%
M02*
