%TF.GenerationSoftware,KiCad,Pcbnew,(6.0.2)*%
%TF.CreationDate,2022-12-13T09:45:59-05:00*%
%TF.ProjectId,BREAD_Slice,42524541-445f-4536-9c69-63652e6b6963,rev?*%
%TF.SameCoordinates,Original*%
%TF.FileFunction,Legend,Bot*%
%TF.FilePolarity,Positive*%
%FSLAX46Y46*%
G04 Gerber Fmt 4.6, Leading zero omitted, Abs format (unit mm)*
G04 Created by KiCad (PCBNEW (6.0.2)) date 2022-12-13 09:45:59*
%MOMM*%
%LPD*%
G01*
G04 APERTURE LIST*
%ADD10C,0.146304*%
%ADD11C,0.203200*%
G04 APERTURE END LIST*
D10*
%TO.C,SJ1*%
X158445950Y-80554524D02*
X158350737Y-80586262D01*
X158192047Y-80586262D01*
X158128571Y-80554524D01*
X158096833Y-80522786D01*
X158065095Y-80459310D01*
X158065095Y-80395834D01*
X158096833Y-80332358D01*
X158128571Y-80300620D01*
X158192047Y-80268883D01*
X158318999Y-80237145D01*
X158382474Y-80205407D01*
X158414212Y-80173669D01*
X158445950Y-80110193D01*
X158445950Y-80046717D01*
X158414212Y-79983241D01*
X158382474Y-79951504D01*
X158318999Y-79919766D01*
X158160309Y-79919766D01*
X158065095Y-79951504D01*
X157589027Y-79919766D02*
X157589027Y-80395834D01*
X157620765Y-80491048D01*
X157684241Y-80554524D01*
X157779454Y-80586262D01*
X157842930Y-80586262D01*
X156922531Y-80586262D02*
X157303386Y-80586262D01*
X157112958Y-80586262D02*
X157112958Y-79919766D01*
X157176434Y-80014979D01*
X157239910Y-80078455D01*
X157303386Y-80110193D01*
%TO.C,SJ2*%
X158445950Y-83856524D02*
X158350737Y-83888262D01*
X158192047Y-83888262D01*
X158128571Y-83856524D01*
X158096833Y-83824786D01*
X158065095Y-83761310D01*
X158065095Y-83697834D01*
X158096833Y-83634358D01*
X158128571Y-83602620D01*
X158192047Y-83570883D01*
X158318999Y-83539145D01*
X158382474Y-83507407D01*
X158414212Y-83475669D01*
X158445950Y-83412193D01*
X158445950Y-83348717D01*
X158414212Y-83285241D01*
X158382474Y-83253504D01*
X158318999Y-83221766D01*
X158160309Y-83221766D01*
X158065095Y-83253504D01*
X157589027Y-83221766D02*
X157589027Y-83697834D01*
X157620765Y-83793048D01*
X157684241Y-83856524D01*
X157779454Y-83888262D01*
X157842930Y-83888262D01*
X157303386Y-83285241D02*
X157271648Y-83253504D01*
X157208172Y-83221766D01*
X157049482Y-83221766D01*
X156986007Y-83253504D01*
X156954269Y-83285241D01*
X156922531Y-83348717D01*
X156922531Y-83412193D01*
X156954269Y-83507407D01*
X157335124Y-83888262D01*
X156922531Y-83888262D01*
D11*
%TO.C,SJ1*%
X154731000Y-82904000D02*
X158795000Y-82904000D01*
X159049000Y-82650000D02*
X159049000Y-81126000D01*
X158795000Y-80872000D02*
X154731000Y-80872000D01*
X154477000Y-82650000D02*
X154477000Y-81126000D01*
X154731000Y-80872000D02*
G75*
G03*
X154477000Y-81126000I0J-254000D01*
G01*
X158795000Y-82904000D02*
G75*
G03*
X159049000Y-82650000I0J254000D01*
G01*
X154477000Y-82650000D02*
G75*
G03*
X154731000Y-82904000I254000J0D01*
G01*
X159049000Y-81126000D02*
G75*
G03*
X158795000Y-80872000I-254000J0D01*
G01*
%TO.C,SJ2*%
X158795000Y-84174000D02*
X154731000Y-84174000D01*
X154731000Y-86206000D02*
X158795000Y-86206000D01*
X154477000Y-85952000D02*
X154477000Y-84428000D01*
X159049000Y-85952000D02*
X159049000Y-84428000D01*
X159049000Y-84428000D02*
G75*
G03*
X158795000Y-84174000I-254000J0D01*
G01*
X158795000Y-86206000D02*
G75*
G03*
X159049000Y-85952000I0J254000D01*
G01*
X154731000Y-84174000D02*
G75*
G03*
X154477000Y-84428000I0J-254000D01*
G01*
X154477000Y-85952000D02*
G75*
G03*
X154731000Y-86206000I254000J0D01*
G01*
%TD*%
M02*
