M48
; DRILL file {KiCad 7.0.9} date Wed Jul 24 20:02:26 2024
; FORMAT={-:-/ absolute / inch / decimal}
; #@! TF.CreationDate,2024-07-24T20:02:26-04:00
; #@! TF.GenerationSoftware,Kicad,Pcbnew,7.0.9
; #@! TF.FileFunction,Plated,1,2,PTH
FMAT,2
INCH
; #@! TA.AperFunction,Plated,PTH,ViaDrill
T1C0.0079
; #@! TA.AperFunction,Plated,PTH,ViaDrill
T2C0.0157
; #@! TA.AperFunction,Plated,PTH,ComponentDrill
T3C0.0394
; #@! TA.AperFunction,Plated,PTH,ComponentDrill
T4C0.0400
%
G90
G05
T1
X0.5276Y-2.0891
X0.5748Y-2.0064
X0.5748Y-2.0576
X0.5906Y-1.971
X0.6181Y-2.0891
X0.626Y-1.971
X0.6693Y-1.8647
T2
X0.2802Y-0.9929
X0.3583Y-1.78
X0.3583Y-1.9769
X0.3583Y-2.091
X0.3701Y-1.0276
X0.4592Y-1.3336
X0.4592Y-1.4281
X0.622Y-2.158
X0.7362Y-2.2525
X0.7756Y-1.7525
X0.7795Y-1.8824
T3
X1.1693Y-1.1732
X1.1693Y-1.2732
X1.1693Y-1.3732
X1.1693Y-1.4732
X1.1693Y-1.5732
X1.1693Y-1.6732
X1.1693Y-1.7732
X1.1693Y-1.8732
X1.1693Y-1.9732
X1.1693Y-2.0732
T4
X0.1772Y-0.8917
X0.1772Y-0.9917
X0.1772Y-1.0917
X0.1772Y-1.1917
X0.1772Y-1.2917
X0.1772Y-1.3917
X0.1772Y-1.4917
X0.1772Y-1.5917
X0.1772Y-1.6917
X0.1772Y-1.7917
X0.1772Y-1.8917
X0.1772Y-1.9917
X0.9772Y-0.8917
X0.9772Y-0.9917
X0.9772Y-1.0917
X0.9772Y-1.1917
X0.9772Y-1.2917
X0.9772Y-1.3917
X0.9772Y-1.4917
X0.9772Y-1.5917
X0.9772Y-1.6917
X0.9772Y-1.7917
X0.9772Y-1.8917
X0.9772Y-1.9917
X0.9772Y-2.0917
X0.9772Y-2.1917
X0.9772Y-2.2917
X0.9772Y-2.3917
T0
M30
