%TF.GenerationSoftware,KiCad,Pcbnew,7.0.9*%
%TF.CreationDate,2024-07-24T20:02:15-04:00*%
%TF.ProjectId,BREAD_Loaf,42524541-445f-44c6-9f61-662e6b696361,rev?*%
%TF.SameCoordinates,PX2fdfdc0PY36746e0*%
%TF.FileFunction,Copper,L1,Top*%
%TF.FilePolarity,Positive*%
%FSLAX46Y46*%
G04 Gerber Fmt 4.6, Leading zero omitted, Abs format (unit mm)*
G04 Created by KiCad (PCBNEW 7.0.9) date 2024-07-24 20:02:15*
%MOMM*%
%LPD*%
G01*
G04 APERTURE LIST*
G04 Aperture macros list*
%AMRoundRect*
0 Rectangle with rounded corners*
0 $1 Rounding radius*
0 $2 $3 $4 $5 $6 $7 $8 $9 X,Y pos of 4 corners*
0 Add a 4 corners polygon primitive as box body*
4,1,4,$2,$3,$4,$5,$6,$7,$8,$9,$2,$3,0*
0 Add four circle primitives for the rounded corners*
1,1,$1+$1,$2,$3*
1,1,$1+$1,$4,$5*
1,1,$1+$1,$6,$7*
1,1,$1+$1,$8,$9*
0 Add four rect primitives between the rounded corners*
20,1,$1+$1,$2,$3,$4,$5,0*
20,1,$1+$1,$4,$5,$6,$7,0*
20,1,$1+$1,$6,$7,$8,$9,0*
20,1,$1+$1,$8,$9,$2,$3,0*%
G04 Aperture macros list end*
%TA.AperFunction,ComponentPad*%
%ADD10C,1.879600*%
%TD*%
%TA.AperFunction,SMDPad,CuDef*%
%ADD11RoundRect,1.000000X-5.000000X-5.000000X5.000000X-5.000000X5.000000X5.000000X-5.000000X5.000000X0*%
%TD*%
%TA.AperFunction,ComponentPad*%
%ADD12R,1.700000X1.700000*%
%TD*%
%TA.AperFunction,ComponentPad*%
%ADD13O,1.700000X1.700000*%
%TD*%
%TA.AperFunction,ViaPad*%
%ADD14C,0.800000*%
%TD*%
%TA.AperFunction,ViaPad*%
%ADD15C,0.500000*%
%TD*%
%TA.AperFunction,Conductor*%
%ADD16C,1.000000*%
%TD*%
%TA.AperFunction,Conductor*%
%ADD17C,2.000000*%
%TD*%
%TA.AperFunction,Conductor*%
%ADD18C,0.500000*%
%TD*%
G04 APERTURE END LIST*
D10*
%TO.P,J2,28,~{RESET}*%
%TO.N,unconnected-(J2-~{RESET}-Pad28)*%
X24820000Y-60750000D03*
%TO.P,J2,27,3.3V*%
%TO.N,+3.3V*%
X24820000Y-58210000D03*
%TO.P,J2,26,AREF/NC*%
%TO.N,unconnected-(J2-AREF{slash}NC-Pad26)*%
X24820000Y-55670000D03*
%TO.P,J2,25,GND*%
%TO.N,GND*%
X24820000Y-53130000D03*
%TO.P,J2,24,A0*%
%TO.N,unconnected-(J2-A0-Pad24)*%
X24820000Y-50590000D03*
%TO.P,J2,23,A1*%
%TO.N,unconnected-(J2-A1-Pad23)*%
X24820000Y-48050000D03*
%TO.P,J2,22,A2*%
%TO.N,unconnected-(J2-A2-Pad22)*%
X24820000Y-45510000D03*
%TO.P,J2,21,A3*%
%TO.N,unconnected-(J2-A3-Pad21)*%
X24820000Y-42970000D03*
%TO.P,J2,20,A4*%
%TO.N,unconnected-(J2-A4-Pad20)*%
X24820000Y-40430000D03*
%TO.P,J2,19,A5*%
%TO.N,unconnected-(J2-A5-Pad19)*%
X24820000Y-37890000D03*
%TO.P,J2,18,SCK*%
%TO.N,unconnected-(J2-SCK-Pad18)*%
X24820000Y-35350000D03*
%TO.P,J2,17,PICO*%
%TO.N,unconnected-(J2-PICO-Pad17)*%
X24820000Y-32810000D03*
%TO.P,J2,16,POCI*%
%TO.N,unconnected-(J2-POCI-Pad16)*%
X24820000Y-30270000D03*
%TO.P,J2,15,RX*%
%TO.N,unconnected-(J2-RX-Pad15)*%
X24820000Y-27730000D03*
%TO.P,J2,14,TX*%
%TO.N,unconnected-(J2-TX-Pad14)*%
X24820000Y-25190000D03*
%TO.P,J2,13,FREEBIE*%
%TO.N,unconnected-(J2-FREEBIE-Pad13)*%
X24820000Y-22650000D03*
%TO.P,J2,12,V_BATT*%
%TO.N,unconnected-(J2-V_BATT-Pad12)*%
X4500000Y-50590000D03*
%TO.P,J2,11,EN*%
%TO.N,unconnected-(J2-EN-Pad11)*%
X4500000Y-48050000D03*
%TO.P,J2,10,V_USB*%
%TO.N,+5V*%
X4500000Y-45510000D03*
%TO.P,J2,9,GPIO0*%
%TO.N,unconnected-(J2-GPIO0-Pad9)*%
X4500000Y-42970000D03*
%TO.P,J2,8,GPIO1*%
%TO.N,unconnected-(J2-GPIO1-Pad8)*%
X4500000Y-40430000D03*
%TO.P,J2,7,GPIO2*%
%TO.N,/INT*%
X4500000Y-37890000D03*
%TO.P,J2,6,GPIO3*%
%TO.N,/SYNC*%
X4500000Y-35350000D03*
%TO.P,J2,5,GPIO4*%
%TO.N,unconnected-(J2-GPIO4-Pad5)*%
X4500000Y-32810000D03*
%TO.P,J2,4,GPIO5*%
%TO.N,/E_STOP*%
X4500000Y-30270000D03*
%TO.P,J2,3,GPIO6*%
%TO.N,unconnected-(J2-GPIO6-Pad3)*%
X4500000Y-27730000D03*
%TO.P,J2,2,SCL*%
%TO.N,/SCL_3.3V*%
X4500000Y-25190000D03*
%TO.P,J2,1,SDA*%
%TO.N,/SDA_3.3V*%
X4500000Y-22650000D03*
%TD*%
D11*
%TO.P,HS1,1*%
%TO.N,GND*%
X14566750Y-49662500D03*
%TD*%
D12*
%TO.P,J6,1,1*%
%TO.N,GND*%
X29700000Y-29800000D03*
D13*
%TO.P,J6,2,2*%
%TO.N,+12V*%
X29700000Y-32340000D03*
%TO.P,J6,3,3*%
%TO.N,/SCL_3.3V*%
X29700000Y-34880000D03*
%TO.P,J6,4,4*%
%TO.N,/SDA_3.3V*%
X29700000Y-37420000D03*
%TO.P,J6,5,5*%
%TO.N,GND*%
X29700000Y-39960000D03*
%TO.P,J6,6,6*%
%TO.N,/E_STOP*%
X29700000Y-42500000D03*
%TO.P,J6,7,7*%
%TO.N,/INT*%
X29700000Y-45040000D03*
%TO.P,J6,8,8*%
%TO.N,/SYNC*%
X29700000Y-47580000D03*
%TO.P,J6,9,9*%
%TO.N,+12V*%
X29700000Y-50120000D03*
%TO.P,J6,10,10*%
%TO.N,GND*%
X29700000Y-52660000D03*
%TD*%
D14*
%TO.N,GND*%
X9100000Y-53112500D03*
D15*
X15700000Y-53062500D03*
X15900000Y-50062500D03*
X15000000Y-50062500D03*
D14*
X15800000Y-54812500D03*
X19700000Y-44512500D03*
D15*
X14600000Y-50962500D03*
X14600000Y-52262500D03*
D14*
X9100000Y-50212500D03*
D15*
X13400000Y-53062500D03*
D14*
X19800000Y-47812500D03*
X9100000Y-45212500D03*
D15*
X17000000Y-47362500D03*
D14*
%TO.N,+12V*%
X18700000Y-57212500D03*
%TO.N,/SDA_3.3V*%
X9400000Y-26100000D03*
%TO.N,/SCL_3.3V*%
X7117162Y-25218538D03*
%TO.N,+3.3V*%
X11664707Y-36274500D03*
X11664707Y-33874500D03*
%TD*%
D16*
%TO.N,+12V*%
X26959800Y-62059800D02*
X26840200Y-62059800D01*
X29680000Y-50120000D02*
X26959800Y-52840200D01*
D17*
X30059138Y-32340000D02*
X31750000Y-34030862D01*
D16*
X29700000Y-50120000D02*
X29680000Y-50120000D01*
D17*
X31750000Y-34030862D02*
X31750000Y-48429138D01*
D16*
X18700000Y-58000000D02*
X18700000Y-57212500D01*
X23800000Y-63100000D02*
X18700000Y-58000000D01*
D17*
X29700000Y-32340000D02*
X30059138Y-32340000D01*
D16*
X26959800Y-52840200D02*
X26959800Y-62059800D01*
D17*
X30059138Y-50120000D02*
X29700000Y-50120000D01*
X31750000Y-48429138D02*
X30059138Y-50120000D01*
D16*
X25800000Y-63100000D02*
X23800000Y-63100000D01*
X26840200Y-62059800D02*
X25800000Y-63100000D01*
D18*
%TO.N,/SDA_3.3V*%
X25600000Y-21100000D02*
X26800000Y-22300000D01*
X9400000Y-26100000D02*
X17000000Y-26100000D01*
X26800000Y-22300000D02*
X26800000Y-34520000D01*
X17000000Y-26100000D02*
X22000000Y-21100000D01*
X26800000Y-34520000D02*
X29700000Y-37420000D01*
X22000000Y-21100000D02*
X25600000Y-21100000D01*
%TO.N,/SCL_3.3V*%
X25800000Y-20300000D02*
X27600000Y-22100000D01*
X27600000Y-22100000D02*
X27600000Y-32780000D01*
X16881462Y-25218538D02*
X21800000Y-20300000D01*
X7117162Y-25218538D02*
X16881462Y-25218538D01*
X21800000Y-20300000D02*
X25800000Y-20300000D01*
X27600000Y-32780000D02*
X29700000Y-34880000D01*
D16*
%TO.N,+3.3V*%
X11664707Y-33874500D02*
X11664707Y-36564707D01*
X11664707Y-36564707D02*
X14664707Y-39564707D01*
X14664707Y-39564707D02*
X20664707Y-39564707D01*
X20664707Y-39564707D02*
X23180200Y-42080200D01*
X23180200Y-42080200D02*
X23180200Y-56570200D01*
X23180200Y-56570200D02*
X24820000Y-58210000D01*
%TD*%
M02*
