%TF.GenerationSoftware,KiCad,Pcbnew,7.0.9*%
%TF.CreationDate,2024-07-24T20:02:15-04:00*%
%TF.ProjectId,BREAD_Loaf,42524541-445f-44c6-9f61-662e6b696361,rev?*%
%TF.SameCoordinates,PX2fdfdc0PY36746e0*%
%TF.FileFunction,Soldermask,Bot*%
%TF.FilePolarity,Negative*%
%FSLAX46Y46*%
G04 Gerber Fmt 4.6, Leading zero omitted, Abs format (unit mm)*
G04 Created by KiCad (PCBNEW 7.0.9) date 2024-07-24 20:02:15*
%MOMM*%
%LPD*%
G01*
G04 APERTURE LIST*
G04 Aperture macros list*
%AMRoundRect*
0 Rectangle with rounded corners*
0 $1 Rounding radius*
0 $2 $3 $4 $5 $6 $7 $8 $9 X,Y pos of 4 corners*
0 Add a 4 corners polygon primitive as box body*
4,1,4,$2,$3,$4,$5,$6,$7,$8,$9,$2,$3,0*
0 Add four circle primitives for the rounded corners*
1,1,$1+$1,$2,$3*
1,1,$1+$1,$4,$5*
1,1,$1+$1,$6,$7*
1,1,$1+$1,$8,$9*
0 Add four rect primitives between the rounded corners*
20,1,$1+$1,$2,$3,$4,$5,0*
20,1,$1+$1,$4,$5,$6,$7,0*
20,1,$1+$1,$6,$7,$8,$9,0*
20,1,$1+$1,$8,$9,$2,$3,0*%
G04 Aperture macros list end*
%ADD10C,2.082800*%
%ADD11C,3.302000*%
%ADD12R,1.700000X1.700000*%
%ADD13O,1.700000X1.700000*%
%ADD14RoundRect,0.101600X-0.330200X-0.635000X0.330200X-0.635000X0.330200X0.635000X-0.330200X0.635000X0*%
%ADD15RoundRect,0.200000X-0.200000X-0.275000X0.200000X-0.275000X0.200000X0.275000X-0.200000X0.275000X0*%
%ADD16RoundRect,0.250000X-0.325000X-0.650000X0.325000X-0.650000X0.325000X0.650000X-0.325000X0.650000X0*%
%ADD17RoundRect,0.250000X0.325000X0.650000X-0.325000X0.650000X-0.325000X-0.650000X0.325000X-0.650000X0*%
%ADD18RoundRect,0.150000X0.512500X0.150000X-0.512500X0.150000X-0.512500X-0.150000X0.512500X-0.150000X0*%
%ADD19RoundRect,0.250000X0.375000X1.075000X-0.375000X1.075000X-0.375000X-1.075000X0.375000X-1.075000X0*%
G04 APERTURE END LIST*
%TO.C,JP3*%
G36*
X15254000Y-37340500D02*
G01*
X14746000Y-37340500D01*
X14746000Y-36859500D01*
X15254000Y-36859500D01*
X15254000Y-37340500D01*
G37*
%TO.C,JP4*%
G36*
X15254000Y-34940500D02*
G01*
X14746000Y-34940500D01*
X14746000Y-34459500D01*
X15254000Y-34459500D01*
X15254000Y-34940500D01*
G37*
%TD*%
D10*
%TO.C,J2*%
X24820000Y-60750000D03*
X24820000Y-58210000D03*
X24820000Y-55670000D03*
X24820000Y-53130000D03*
X24820000Y-50590000D03*
X24820000Y-48050000D03*
X24820000Y-45510000D03*
X24820000Y-42970000D03*
X24820000Y-40430000D03*
X24820000Y-37890000D03*
X24820000Y-35350000D03*
X24820000Y-32810000D03*
X24820000Y-30270000D03*
X24820000Y-27730000D03*
X24820000Y-25190000D03*
X24820000Y-22650000D03*
X4500000Y-50590000D03*
X4500000Y-48050000D03*
X4500000Y-45510000D03*
X4500000Y-42970000D03*
X4500000Y-40430000D03*
X4500000Y-37890000D03*
X4500000Y-35350000D03*
X4500000Y-32810000D03*
X4500000Y-30270000D03*
X4500000Y-27730000D03*
X4500000Y-25190000D03*
X4500000Y-22650000D03*
%TD*%
D11*
%TO.C,ST1*%
X31100000Y-21250000D03*
%TD*%
%TO.C,ST2*%
X31100000Y-61250000D03*
%TD*%
D12*
%TO.C,J6*%
X29700000Y-29800000D03*
D13*
X29700000Y-32340000D03*
X29700000Y-34880000D03*
X29700000Y-37420000D03*
X29700000Y-39960000D03*
X29700000Y-42500000D03*
X29700000Y-45040000D03*
X29700000Y-47580000D03*
X29700000Y-50120000D03*
X29700000Y-52660000D03*
%TD*%
D14*
%TO.C,JP3*%
X14479300Y-37100000D03*
X15520700Y-37100000D03*
%TD*%
D15*
%TO.C,R12*%
X10875000Y-34700000D03*
X12525000Y-34700000D03*
%TD*%
D16*
%TO.C,C2*%
X13125000Y-44862500D03*
X16075000Y-44862500D03*
%TD*%
D17*
%TO.C,C3*%
X13375000Y-51662500D03*
X10425000Y-51662500D03*
%TD*%
D16*
%TO.C,C1*%
X15725000Y-51662500D03*
X18675000Y-51662500D03*
%TD*%
D17*
%TO.C,C4*%
X13375000Y-54562500D03*
X10425000Y-54562500D03*
%TD*%
D18*
%TO.C,U2*%
X18137500Y-47412500D03*
X18137500Y-48362500D03*
X18137500Y-49312500D03*
X15862500Y-49312500D03*
X15862500Y-48362500D03*
X15862500Y-47412500D03*
%TD*%
D14*
%TO.C,JP4*%
X14479300Y-34700000D03*
X15520700Y-34700000D03*
%TD*%
D15*
%TO.C,R10*%
X10875000Y-37100000D03*
X12525000Y-37100000D03*
%TD*%
D19*
%TO.C,L1*%
X13300000Y-48362500D03*
X10500000Y-48362500D03*
%TD*%
M02*
