%TF.GenerationSoftware,KiCad,Pcbnew,7.0.9*%
%TF.CreationDate,2024-07-24T20:02:15-04:00*%
%TF.ProjectId,BREAD_Loaf,42524541-445f-44c6-9f61-662e6b696361,rev?*%
%TF.SameCoordinates,PX2fdfdc0PY36746e0*%
%TF.FileFunction,Legend,Top*%
%TF.FilePolarity,Positive*%
%FSLAX46Y46*%
G04 Gerber Fmt 4.6, Leading zero omitted, Abs format (unit mm)*
G04 Created by KiCad (PCBNEW 7.0.9) date 2024-07-24 20:02:15*
%MOMM*%
%LPD*%
G01*
G04 APERTURE LIST*
%ADD10C,0.150000*%
%ADD11C,0.101600*%
%ADD12C,0.010000*%
%ADD13C,0.127000*%
G04 APERTURE END LIST*
D10*
X34158458Y-42443247D02*
X34425124Y-42443247D01*
X34539410Y-42862295D02*
X34158458Y-42862295D01*
X34158458Y-42862295D02*
X34158458Y-42062295D01*
X34158458Y-42062295D02*
X34539410Y-42062295D01*
X34844172Y-42824200D02*
X34958458Y-42862295D01*
X34958458Y-42862295D02*
X35148934Y-42862295D01*
X35148934Y-42862295D02*
X35225125Y-42824200D01*
X35225125Y-42824200D02*
X35263220Y-42786104D01*
X35263220Y-42786104D02*
X35301315Y-42709914D01*
X35301315Y-42709914D02*
X35301315Y-42633723D01*
X35301315Y-42633723D02*
X35263220Y-42557533D01*
X35263220Y-42557533D02*
X35225125Y-42519438D01*
X35225125Y-42519438D02*
X35148934Y-42481342D01*
X35148934Y-42481342D02*
X34996553Y-42443247D01*
X34996553Y-42443247D02*
X34920363Y-42405152D01*
X34920363Y-42405152D02*
X34882268Y-42367057D01*
X34882268Y-42367057D02*
X34844172Y-42290866D01*
X34844172Y-42290866D02*
X34844172Y-42214676D01*
X34844172Y-42214676D02*
X34882268Y-42138485D01*
X34882268Y-42138485D02*
X34920363Y-42100390D01*
X34920363Y-42100390D02*
X34996553Y-42062295D01*
X34996553Y-42062295D02*
X35187030Y-42062295D01*
X35187030Y-42062295D02*
X35301315Y-42100390D01*
X35529887Y-42062295D02*
X35987030Y-42062295D01*
X35758458Y-42862295D02*
X35758458Y-42062295D01*
X36406078Y-42062295D02*
X36558459Y-42062295D01*
X36558459Y-42062295D02*
X36634649Y-42100390D01*
X36634649Y-42100390D02*
X36710840Y-42176580D01*
X36710840Y-42176580D02*
X36748935Y-42328961D01*
X36748935Y-42328961D02*
X36748935Y-42595628D01*
X36748935Y-42595628D02*
X36710840Y-42748009D01*
X36710840Y-42748009D02*
X36634649Y-42824200D01*
X36634649Y-42824200D02*
X36558459Y-42862295D01*
X36558459Y-42862295D02*
X36406078Y-42862295D01*
X36406078Y-42862295D02*
X36329887Y-42824200D01*
X36329887Y-42824200D02*
X36253697Y-42748009D01*
X36253697Y-42748009D02*
X36215601Y-42595628D01*
X36215601Y-42595628D02*
X36215601Y-42328961D01*
X36215601Y-42328961D02*
X36253697Y-42176580D01*
X36253697Y-42176580D02*
X36329887Y-42100390D01*
X36329887Y-42100390D02*
X36406078Y-42062295D01*
X37091792Y-42862295D02*
X37091792Y-42062295D01*
X37091792Y-42062295D02*
X37396554Y-42062295D01*
X37396554Y-42062295D02*
X37472744Y-42100390D01*
X37472744Y-42100390D02*
X37510839Y-42138485D01*
X37510839Y-42138485D02*
X37548935Y-42214676D01*
X37548935Y-42214676D02*
X37548935Y-42328961D01*
X37548935Y-42328961D02*
X37510839Y-42405152D01*
X37510839Y-42405152D02*
X37472744Y-42443247D01*
X37472744Y-42443247D02*
X37396554Y-42481342D01*
X37396554Y-42481342D02*
X37091792Y-42481342D01*
X36101315Y-50512295D02*
X35644172Y-50512295D01*
X35872744Y-50512295D02*
X35872744Y-49712295D01*
X35872744Y-49712295D02*
X35796553Y-49826580D01*
X35796553Y-49826580D02*
X35720363Y-49902771D01*
X35720363Y-49902771D02*
X35644172Y-49940866D01*
X36406077Y-49788485D02*
X36444173Y-49750390D01*
X36444173Y-49750390D02*
X36520363Y-49712295D01*
X36520363Y-49712295D02*
X36710839Y-49712295D01*
X36710839Y-49712295D02*
X36787030Y-49750390D01*
X36787030Y-49750390D02*
X36825125Y-49788485D01*
X36825125Y-49788485D02*
X36863220Y-49864676D01*
X36863220Y-49864676D02*
X36863220Y-49940866D01*
X36863220Y-49940866D02*
X36825125Y-50055152D01*
X36825125Y-50055152D02*
X36367982Y-50512295D01*
X36367982Y-50512295D02*
X36863220Y-50512295D01*
X37091792Y-49712295D02*
X37358459Y-50512295D01*
X37358459Y-50512295D02*
X37625125Y-49712295D01*
X36101315Y-32712295D02*
X35644172Y-32712295D01*
X35872744Y-32712295D02*
X35872744Y-31912295D01*
X35872744Y-31912295D02*
X35796553Y-32026580D01*
X35796553Y-32026580D02*
X35720363Y-32102771D01*
X35720363Y-32102771D02*
X35644172Y-32140866D01*
X36406077Y-31988485D02*
X36444173Y-31950390D01*
X36444173Y-31950390D02*
X36520363Y-31912295D01*
X36520363Y-31912295D02*
X36710839Y-31912295D01*
X36710839Y-31912295D02*
X36787030Y-31950390D01*
X36787030Y-31950390D02*
X36825125Y-31988485D01*
X36825125Y-31988485D02*
X36863220Y-32064676D01*
X36863220Y-32064676D02*
X36863220Y-32140866D01*
X36863220Y-32140866D02*
X36825125Y-32255152D01*
X36825125Y-32255152D02*
X36367982Y-32712295D01*
X36367982Y-32712295D02*
X36863220Y-32712295D01*
X37091792Y-31912295D02*
X37358459Y-32712295D01*
X37358459Y-32712295D02*
X37625125Y-31912295D01*
X34767982Y-45374200D02*
X34882268Y-45412295D01*
X34882268Y-45412295D02*
X35072744Y-45412295D01*
X35072744Y-45412295D02*
X35148935Y-45374200D01*
X35148935Y-45374200D02*
X35187030Y-45336104D01*
X35187030Y-45336104D02*
X35225125Y-45259914D01*
X35225125Y-45259914D02*
X35225125Y-45183723D01*
X35225125Y-45183723D02*
X35187030Y-45107533D01*
X35187030Y-45107533D02*
X35148935Y-45069438D01*
X35148935Y-45069438D02*
X35072744Y-45031342D01*
X35072744Y-45031342D02*
X34920363Y-44993247D01*
X34920363Y-44993247D02*
X34844173Y-44955152D01*
X34844173Y-44955152D02*
X34806078Y-44917057D01*
X34806078Y-44917057D02*
X34767982Y-44840866D01*
X34767982Y-44840866D02*
X34767982Y-44764676D01*
X34767982Y-44764676D02*
X34806078Y-44688485D01*
X34806078Y-44688485D02*
X34844173Y-44650390D01*
X34844173Y-44650390D02*
X34920363Y-44612295D01*
X34920363Y-44612295D02*
X35110840Y-44612295D01*
X35110840Y-44612295D02*
X35225125Y-44650390D01*
X35720364Y-45031342D02*
X35720364Y-45412295D01*
X35453697Y-44612295D02*
X35720364Y-45031342D01*
X35720364Y-45031342D02*
X35987030Y-44612295D01*
X36253697Y-45412295D02*
X36253697Y-44612295D01*
X36253697Y-44612295D02*
X36710840Y-45412295D01*
X36710840Y-45412295D02*
X36710840Y-44612295D01*
X37548935Y-45336104D02*
X37510839Y-45374200D01*
X37510839Y-45374200D02*
X37396554Y-45412295D01*
X37396554Y-45412295D02*
X37320363Y-45412295D01*
X37320363Y-45412295D02*
X37206077Y-45374200D01*
X37206077Y-45374200D02*
X37129887Y-45298009D01*
X37129887Y-45298009D02*
X37091792Y-45221819D01*
X37091792Y-45221819D02*
X37053696Y-45069438D01*
X37053696Y-45069438D02*
X37053696Y-44955152D01*
X37053696Y-44955152D02*
X37091792Y-44802771D01*
X37091792Y-44802771D02*
X37129887Y-44726580D01*
X37129887Y-44726580D02*
X37206077Y-44650390D01*
X37206077Y-44650390D02*
X37320363Y-44612295D01*
X37320363Y-44612295D02*
X37396554Y-44612295D01*
X37396554Y-44612295D02*
X37510839Y-44650390D01*
X37510839Y-44650390D02*
X37548935Y-44688485D01*
X35872744Y-52250390D02*
X35796554Y-52212295D01*
X35796554Y-52212295D02*
X35682268Y-52212295D01*
X35682268Y-52212295D02*
X35567982Y-52250390D01*
X35567982Y-52250390D02*
X35491792Y-52326580D01*
X35491792Y-52326580D02*
X35453697Y-52402771D01*
X35453697Y-52402771D02*
X35415601Y-52555152D01*
X35415601Y-52555152D02*
X35415601Y-52669438D01*
X35415601Y-52669438D02*
X35453697Y-52821819D01*
X35453697Y-52821819D02*
X35491792Y-52898009D01*
X35491792Y-52898009D02*
X35567982Y-52974200D01*
X35567982Y-52974200D02*
X35682268Y-53012295D01*
X35682268Y-53012295D02*
X35758459Y-53012295D01*
X35758459Y-53012295D02*
X35872744Y-52974200D01*
X35872744Y-52974200D02*
X35910840Y-52936104D01*
X35910840Y-52936104D02*
X35910840Y-52669438D01*
X35910840Y-52669438D02*
X35758459Y-52669438D01*
X36253697Y-53012295D02*
X36253697Y-52212295D01*
X36253697Y-52212295D02*
X36710840Y-53012295D01*
X36710840Y-53012295D02*
X36710840Y-52212295D01*
X37091792Y-53012295D02*
X37091792Y-52212295D01*
X37091792Y-52212295D02*
X37282268Y-52212295D01*
X37282268Y-52212295D02*
X37396554Y-52250390D01*
X37396554Y-52250390D02*
X37472744Y-52326580D01*
X37472744Y-52326580D02*
X37510839Y-52402771D01*
X37510839Y-52402771D02*
X37548935Y-52555152D01*
X37548935Y-52555152D02*
X37548935Y-52669438D01*
X37548935Y-52669438D02*
X37510839Y-52821819D01*
X37510839Y-52821819D02*
X37472744Y-52898009D01*
X37472744Y-52898009D02*
X37396554Y-52974200D01*
X37396554Y-52974200D02*
X37282268Y-53012295D01*
X37282268Y-53012295D02*
X37091792Y-53012295D01*
X16546930Y-29628444D02*
X16546930Y-29152254D01*
X16546930Y-29152254D02*
X17546930Y-29152254D01*
X16546930Y-30104635D02*
X16594550Y-30009397D01*
X16594550Y-30009397D02*
X16642169Y-29961778D01*
X16642169Y-29961778D02*
X16737407Y-29914159D01*
X16737407Y-29914159D02*
X17023121Y-29914159D01*
X17023121Y-29914159D02*
X17118359Y-29961778D01*
X17118359Y-29961778D02*
X17165978Y-30009397D01*
X17165978Y-30009397D02*
X17213597Y-30104635D01*
X17213597Y-30104635D02*
X17213597Y-30247492D01*
X17213597Y-30247492D02*
X17165978Y-30342730D01*
X17165978Y-30342730D02*
X17118359Y-30390349D01*
X17118359Y-30390349D02*
X17023121Y-30437968D01*
X17023121Y-30437968D02*
X16737407Y-30437968D01*
X16737407Y-30437968D02*
X16642169Y-30390349D01*
X16642169Y-30390349D02*
X16594550Y-30342730D01*
X16594550Y-30342730D02*
X16546930Y-30247492D01*
X16546930Y-30247492D02*
X16546930Y-30104635D01*
X16546930Y-31295111D02*
X17070740Y-31295111D01*
X17070740Y-31295111D02*
X17165978Y-31247492D01*
X17165978Y-31247492D02*
X17213597Y-31152254D01*
X17213597Y-31152254D02*
X17213597Y-30961778D01*
X17213597Y-30961778D02*
X17165978Y-30866540D01*
X16594550Y-31295111D02*
X16546930Y-31199873D01*
X16546930Y-31199873D02*
X16546930Y-30961778D01*
X16546930Y-30961778D02*
X16594550Y-30866540D01*
X16594550Y-30866540D02*
X16689788Y-30818921D01*
X16689788Y-30818921D02*
X16785026Y-30818921D01*
X16785026Y-30818921D02*
X16880264Y-30866540D01*
X16880264Y-30866540D02*
X16927883Y-30961778D01*
X16927883Y-30961778D02*
X16927883Y-31199873D01*
X16927883Y-31199873D02*
X16975502Y-31295111D01*
X17213597Y-31628445D02*
X17213597Y-32009397D01*
X16546930Y-31771302D02*
X17404073Y-31771302D01*
X17404073Y-31771302D02*
X17499311Y-31818921D01*
X17499311Y-31818921D02*
X17546930Y-31914159D01*
X17546930Y-31914159D02*
X17546930Y-32009397D01*
X17070740Y-33437969D02*
X17023121Y-33580826D01*
X17023121Y-33580826D02*
X16975502Y-33628445D01*
X16975502Y-33628445D02*
X16880264Y-33676064D01*
X16880264Y-33676064D02*
X16737407Y-33676064D01*
X16737407Y-33676064D02*
X16642169Y-33628445D01*
X16642169Y-33628445D02*
X16594550Y-33580826D01*
X16594550Y-33580826D02*
X16546930Y-33485588D01*
X16546930Y-33485588D02*
X16546930Y-33104636D01*
X16546930Y-33104636D02*
X17546930Y-33104636D01*
X17546930Y-33104636D02*
X17546930Y-33437969D01*
X17546930Y-33437969D02*
X17499311Y-33533207D01*
X17499311Y-33533207D02*
X17451692Y-33580826D01*
X17451692Y-33580826D02*
X17356454Y-33628445D01*
X17356454Y-33628445D02*
X17261216Y-33628445D01*
X17261216Y-33628445D02*
X17165978Y-33580826D01*
X17165978Y-33580826D02*
X17118359Y-33533207D01*
X17118359Y-33533207D02*
X17070740Y-33437969D01*
X17070740Y-33437969D02*
X17070740Y-33104636D01*
X16546930Y-34533207D02*
X17070740Y-34533207D01*
X17070740Y-34533207D02*
X17165978Y-34485588D01*
X17165978Y-34485588D02*
X17213597Y-34390350D01*
X17213597Y-34390350D02*
X17213597Y-34199874D01*
X17213597Y-34199874D02*
X17165978Y-34104636D01*
X16594550Y-34533207D02*
X16546930Y-34437969D01*
X16546930Y-34437969D02*
X16546930Y-34199874D01*
X16546930Y-34199874D02*
X16594550Y-34104636D01*
X16594550Y-34104636D02*
X16689788Y-34057017D01*
X16689788Y-34057017D02*
X16785026Y-34057017D01*
X16785026Y-34057017D02*
X16880264Y-34104636D01*
X16880264Y-34104636D02*
X16927883Y-34199874D01*
X16927883Y-34199874D02*
X16927883Y-34437969D01*
X16927883Y-34437969D02*
X16975502Y-34533207D01*
X16594550Y-35437969D02*
X16546930Y-35342731D01*
X16546930Y-35342731D02*
X16546930Y-35152255D01*
X16546930Y-35152255D02*
X16594550Y-35057017D01*
X16594550Y-35057017D02*
X16642169Y-35009398D01*
X16642169Y-35009398D02*
X16737407Y-34961779D01*
X16737407Y-34961779D02*
X17023121Y-34961779D01*
X17023121Y-34961779D02*
X17118359Y-35009398D01*
X17118359Y-35009398D02*
X17165978Y-35057017D01*
X17165978Y-35057017D02*
X17213597Y-35152255D01*
X17213597Y-35152255D02*
X17213597Y-35342731D01*
X17213597Y-35342731D02*
X17165978Y-35437969D01*
X16546930Y-35866541D02*
X17546930Y-35866541D01*
X16927883Y-35961779D02*
X16546930Y-36247493D01*
X17213597Y-36247493D02*
X16832645Y-35866541D01*
X17213597Y-36676065D02*
X16213597Y-36676065D01*
X17165978Y-36676065D02*
X17213597Y-36771303D01*
X17213597Y-36771303D02*
X17213597Y-36961779D01*
X17213597Y-36961779D02*
X17165978Y-37057017D01*
X17165978Y-37057017D02*
X17118359Y-37104636D01*
X17118359Y-37104636D02*
X17023121Y-37152255D01*
X17023121Y-37152255D02*
X16737407Y-37152255D01*
X16737407Y-37152255D02*
X16642169Y-37104636D01*
X16642169Y-37104636D02*
X16594550Y-37057017D01*
X16594550Y-37057017D02*
X16546930Y-36961779D01*
X16546930Y-36961779D02*
X16546930Y-36771303D01*
X16546930Y-36771303D02*
X16594550Y-36676065D01*
X16546930Y-37723684D02*
X16594550Y-37628446D01*
X16594550Y-37628446D02*
X16689788Y-37580827D01*
X16689788Y-37580827D02*
X17546930Y-37580827D01*
X16546930Y-38533208D02*
X17070740Y-38533208D01*
X17070740Y-38533208D02*
X17165978Y-38485589D01*
X17165978Y-38485589D02*
X17213597Y-38390351D01*
X17213597Y-38390351D02*
X17213597Y-38199875D01*
X17213597Y-38199875D02*
X17165978Y-38104637D01*
X16594550Y-38533208D02*
X16546930Y-38437970D01*
X16546930Y-38437970D02*
X16546930Y-38199875D01*
X16546930Y-38199875D02*
X16594550Y-38104637D01*
X16594550Y-38104637D02*
X16689788Y-38057018D01*
X16689788Y-38057018D02*
X16785026Y-38057018D01*
X16785026Y-38057018D02*
X16880264Y-38104637D01*
X16880264Y-38104637D02*
X16927883Y-38199875D01*
X16927883Y-38199875D02*
X16927883Y-38437970D01*
X16927883Y-38437970D02*
X16975502Y-38533208D01*
X17213597Y-39009399D02*
X16546930Y-39009399D01*
X17118359Y-39009399D02*
X17165978Y-39057018D01*
X17165978Y-39057018D02*
X17213597Y-39152256D01*
X17213597Y-39152256D02*
X17213597Y-39295113D01*
X17213597Y-39295113D02*
X17165978Y-39390351D01*
X17165978Y-39390351D02*
X17070740Y-39437970D01*
X17070740Y-39437970D02*
X16546930Y-39437970D01*
X16594550Y-40295113D02*
X16546930Y-40199875D01*
X16546930Y-40199875D02*
X16546930Y-40009399D01*
X16546930Y-40009399D02*
X16594550Y-39914161D01*
X16594550Y-39914161D02*
X16689788Y-39866542D01*
X16689788Y-39866542D02*
X17070740Y-39866542D01*
X17070740Y-39866542D02*
X17165978Y-39914161D01*
X17165978Y-39914161D02*
X17213597Y-40009399D01*
X17213597Y-40009399D02*
X17213597Y-40199875D01*
X17213597Y-40199875D02*
X17165978Y-40295113D01*
X17165978Y-40295113D02*
X17070740Y-40342732D01*
X17070740Y-40342732D02*
X16975502Y-40342732D01*
X16975502Y-40342732D02*
X16880264Y-39866542D01*
X15460740Y-29152254D02*
X15460740Y-29485587D01*
X14936930Y-29628444D02*
X14936930Y-29152254D01*
X14936930Y-29152254D02*
X15936930Y-29152254D01*
X15936930Y-29152254D02*
X15936930Y-29628444D01*
X14984550Y-30009397D02*
X14936930Y-30152254D01*
X14936930Y-30152254D02*
X14936930Y-30390349D01*
X14936930Y-30390349D02*
X14984550Y-30485587D01*
X14984550Y-30485587D02*
X15032169Y-30533206D01*
X15032169Y-30533206D02*
X15127407Y-30580825D01*
X15127407Y-30580825D02*
X15222645Y-30580825D01*
X15222645Y-30580825D02*
X15317883Y-30533206D01*
X15317883Y-30533206D02*
X15365502Y-30485587D01*
X15365502Y-30485587D02*
X15413121Y-30390349D01*
X15413121Y-30390349D02*
X15460740Y-30199873D01*
X15460740Y-30199873D02*
X15508359Y-30104635D01*
X15508359Y-30104635D02*
X15555978Y-30057016D01*
X15555978Y-30057016D02*
X15651216Y-30009397D01*
X15651216Y-30009397D02*
X15746454Y-30009397D01*
X15746454Y-30009397D02*
X15841692Y-30057016D01*
X15841692Y-30057016D02*
X15889311Y-30104635D01*
X15889311Y-30104635D02*
X15936930Y-30199873D01*
X15936930Y-30199873D02*
X15936930Y-30437968D01*
X15936930Y-30437968D02*
X15889311Y-30580825D01*
X14936930Y-31009397D02*
X15936930Y-31009397D01*
X15936930Y-31009397D02*
X15936930Y-31390349D01*
X15936930Y-31390349D02*
X15889311Y-31485587D01*
X15889311Y-31485587D02*
X15841692Y-31533206D01*
X15841692Y-31533206D02*
X15746454Y-31580825D01*
X15746454Y-31580825D02*
X15603597Y-31580825D01*
X15603597Y-31580825D02*
X15508359Y-31533206D01*
X15508359Y-31533206D02*
X15460740Y-31485587D01*
X15460740Y-31485587D02*
X15413121Y-31390349D01*
X15413121Y-31390349D02*
X15413121Y-31009397D01*
X15936930Y-31914159D02*
X15936930Y-32533206D01*
X15936930Y-32533206D02*
X15555978Y-32199873D01*
X15555978Y-32199873D02*
X15555978Y-32342730D01*
X15555978Y-32342730D02*
X15508359Y-32437968D01*
X15508359Y-32437968D02*
X15460740Y-32485587D01*
X15460740Y-32485587D02*
X15365502Y-32533206D01*
X15365502Y-32533206D02*
X15127407Y-32533206D01*
X15127407Y-32533206D02*
X15032169Y-32485587D01*
X15032169Y-32485587D02*
X14984550Y-32437968D01*
X14984550Y-32437968D02*
X14936930Y-32342730D01*
X14936930Y-32342730D02*
X14936930Y-32057016D01*
X14936930Y-32057016D02*
X14984550Y-31961778D01*
X14984550Y-31961778D02*
X15032169Y-31914159D01*
X15841692Y-32914159D02*
X15889311Y-32961778D01*
X15889311Y-32961778D02*
X15936930Y-33057016D01*
X15936930Y-33057016D02*
X15936930Y-33295111D01*
X15936930Y-33295111D02*
X15889311Y-33390349D01*
X15889311Y-33390349D02*
X15841692Y-33437968D01*
X15841692Y-33437968D02*
X15746454Y-33485587D01*
X15746454Y-33485587D02*
X15651216Y-33485587D01*
X15651216Y-33485587D02*
X15508359Y-33437968D01*
X15508359Y-33437968D02*
X14936930Y-32866540D01*
X14936930Y-32866540D02*
X14936930Y-33485587D01*
X15936930Y-34533207D02*
X15936930Y-35104635D01*
X14936930Y-34818921D02*
X15936930Y-34818921D01*
X14936930Y-35437969D02*
X15936930Y-35437969D01*
X14936930Y-35866540D02*
X15460740Y-35866540D01*
X15460740Y-35866540D02*
X15555978Y-35818921D01*
X15555978Y-35818921D02*
X15603597Y-35723683D01*
X15603597Y-35723683D02*
X15603597Y-35580826D01*
X15603597Y-35580826D02*
X15555978Y-35485588D01*
X15555978Y-35485588D02*
X15508359Y-35437969D01*
X14936930Y-36342731D02*
X15603597Y-36342731D01*
X15936930Y-36342731D02*
X15889311Y-36295112D01*
X15889311Y-36295112D02*
X15841692Y-36342731D01*
X15841692Y-36342731D02*
X15889311Y-36390350D01*
X15889311Y-36390350D02*
X15936930Y-36342731D01*
X15936930Y-36342731D02*
X15841692Y-36342731D01*
X15603597Y-36818921D02*
X14936930Y-36818921D01*
X15508359Y-36818921D02*
X15555978Y-36866540D01*
X15555978Y-36866540D02*
X15603597Y-36961778D01*
X15603597Y-36961778D02*
X15603597Y-37104635D01*
X15603597Y-37104635D02*
X15555978Y-37199873D01*
X15555978Y-37199873D02*
X15460740Y-37247492D01*
X15460740Y-37247492D02*
X14936930Y-37247492D01*
X15603597Y-38152254D02*
X14794073Y-38152254D01*
X14794073Y-38152254D02*
X14698835Y-38104635D01*
X14698835Y-38104635D02*
X14651216Y-38057016D01*
X14651216Y-38057016D02*
X14603597Y-37961778D01*
X14603597Y-37961778D02*
X14603597Y-37818921D01*
X14603597Y-37818921D02*
X14651216Y-37723683D01*
X14984550Y-38152254D02*
X14936930Y-38057016D01*
X14936930Y-38057016D02*
X14936930Y-37866540D01*
X14936930Y-37866540D02*
X14984550Y-37771302D01*
X14984550Y-37771302D02*
X15032169Y-37723683D01*
X15032169Y-37723683D02*
X15127407Y-37676064D01*
X15127407Y-37676064D02*
X15413121Y-37676064D01*
X15413121Y-37676064D02*
X15508359Y-37723683D01*
X15508359Y-37723683D02*
X15555978Y-37771302D01*
X15555978Y-37771302D02*
X15603597Y-37866540D01*
X15603597Y-37866540D02*
X15603597Y-38057016D01*
X15603597Y-38057016D02*
X15555978Y-38152254D01*
X14936930Y-39390350D02*
X15936930Y-39390350D01*
X15936930Y-39390350D02*
X15936930Y-39771302D01*
X15936930Y-39771302D02*
X15889311Y-39866540D01*
X15889311Y-39866540D02*
X15841692Y-39914159D01*
X15841692Y-39914159D02*
X15746454Y-39961778D01*
X15746454Y-39961778D02*
X15603597Y-39961778D01*
X15603597Y-39961778D02*
X15508359Y-39914159D01*
X15508359Y-39914159D02*
X15460740Y-39866540D01*
X15460740Y-39866540D02*
X15413121Y-39771302D01*
X15413121Y-39771302D02*
X15413121Y-39390350D01*
X14936930Y-40533207D02*
X14984550Y-40437969D01*
X14984550Y-40437969D02*
X15079788Y-40390350D01*
X15079788Y-40390350D02*
X15936930Y-40390350D01*
X15603597Y-41342731D02*
X14936930Y-41342731D01*
X15603597Y-40914160D02*
X15079788Y-40914160D01*
X15079788Y-40914160D02*
X14984550Y-40961779D01*
X14984550Y-40961779D02*
X14936930Y-41057017D01*
X14936930Y-41057017D02*
X14936930Y-41199874D01*
X14936930Y-41199874D02*
X14984550Y-41295112D01*
X14984550Y-41295112D02*
X15032169Y-41342731D01*
X14984550Y-41771303D02*
X14936930Y-41866541D01*
X14936930Y-41866541D02*
X14936930Y-42057017D01*
X14936930Y-42057017D02*
X14984550Y-42152255D01*
X14984550Y-42152255D02*
X15079788Y-42199874D01*
X15079788Y-42199874D02*
X15127407Y-42199874D01*
X15127407Y-42199874D02*
X15222645Y-42152255D01*
X15222645Y-42152255D02*
X15270264Y-42057017D01*
X15270264Y-42057017D02*
X15270264Y-41914160D01*
X15270264Y-41914160D02*
X15317883Y-41818922D01*
X15317883Y-41818922D02*
X15413121Y-41771303D01*
X15413121Y-41771303D02*
X15460740Y-41771303D01*
X15460740Y-41771303D02*
X15555978Y-41818922D01*
X15555978Y-41818922D02*
X15603597Y-41914160D01*
X15603597Y-41914160D02*
X15603597Y-42057017D01*
X15603597Y-42057017D02*
X15555978Y-42152255D01*
X13326930Y-29628444D02*
X13326930Y-29152254D01*
X13326930Y-29152254D02*
X14326930Y-29152254D01*
X14326930Y-30152254D02*
X14326930Y-30342730D01*
X14326930Y-30342730D02*
X14279311Y-30437968D01*
X14279311Y-30437968D02*
X14184073Y-30533206D01*
X14184073Y-30533206D02*
X13993597Y-30580825D01*
X13993597Y-30580825D02*
X13660264Y-30580825D01*
X13660264Y-30580825D02*
X13469788Y-30533206D01*
X13469788Y-30533206D02*
X13374550Y-30437968D01*
X13374550Y-30437968D02*
X13326930Y-30342730D01*
X13326930Y-30342730D02*
X13326930Y-30152254D01*
X13326930Y-30152254D02*
X13374550Y-30057016D01*
X13374550Y-30057016D02*
X13469788Y-29961778D01*
X13469788Y-29961778D02*
X13660264Y-29914159D01*
X13660264Y-29914159D02*
X13993597Y-29914159D01*
X13993597Y-29914159D02*
X14184073Y-29961778D01*
X14184073Y-29961778D02*
X14279311Y-30057016D01*
X14279311Y-30057016D02*
X14326930Y-30152254D01*
X13612645Y-30961778D02*
X13612645Y-31437968D01*
X13326930Y-30866540D02*
X14326930Y-31199873D01*
X14326930Y-31199873D02*
X13326930Y-31533206D01*
X13850740Y-32199873D02*
X13850740Y-31866540D01*
X13326930Y-31866540D02*
X14326930Y-31866540D01*
X14326930Y-31866540D02*
X14326930Y-32342730D01*
X13231692Y-32485588D02*
X13231692Y-33247492D01*
X13850740Y-33485588D02*
X13850740Y-33818921D01*
X13326930Y-33961778D02*
X13326930Y-33485588D01*
X13326930Y-33485588D02*
X14326930Y-33485588D01*
X14326930Y-33485588D02*
X14326930Y-33961778D01*
X13374550Y-34342731D02*
X13326930Y-34485588D01*
X13326930Y-34485588D02*
X13326930Y-34723683D01*
X13326930Y-34723683D02*
X13374550Y-34818921D01*
X13374550Y-34818921D02*
X13422169Y-34866540D01*
X13422169Y-34866540D02*
X13517407Y-34914159D01*
X13517407Y-34914159D02*
X13612645Y-34914159D01*
X13612645Y-34914159D02*
X13707883Y-34866540D01*
X13707883Y-34866540D02*
X13755502Y-34818921D01*
X13755502Y-34818921D02*
X13803121Y-34723683D01*
X13803121Y-34723683D02*
X13850740Y-34533207D01*
X13850740Y-34533207D02*
X13898359Y-34437969D01*
X13898359Y-34437969D02*
X13945978Y-34390350D01*
X13945978Y-34390350D02*
X14041216Y-34342731D01*
X14041216Y-34342731D02*
X14136454Y-34342731D01*
X14136454Y-34342731D02*
X14231692Y-34390350D01*
X14231692Y-34390350D02*
X14279311Y-34437969D01*
X14279311Y-34437969D02*
X14326930Y-34533207D01*
X14326930Y-34533207D02*
X14326930Y-34771302D01*
X14326930Y-34771302D02*
X14279311Y-34914159D01*
X13326930Y-35342731D02*
X14326930Y-35342731D01*
X14326930Y-35342731D02*
X14326930Y-35723683D01*
X14326930Y-35723683D02*
X14279311Y-35818921D01*
X14279311Y-35818921D02*
X14231692Y-35866540D01*
X14231692Y-35866540D02*
X14136454Y-35914159D01*
X14136454Y-35914159D02*
X13993597Y-35914159D01*
X13993597Y-35914159D02*
X13898359Y-35866540D01*
X13898359Y-35866540D02*
X13850740Y-35818921D01*
X13850740Y-35818921D02*
X13803121Y-35723683D01*
X13803121Y-35723683D02*
X13803121Y-35342731D01*
X14326930Y-36199874D02*
X14326930Y-36771302D01*
X13326930Y-36485588D02*
X14326930Y-36485588D01*
X13326930Y-37104636D02*
X14326930Y-37104636D01*
X14326930Y-37104636D02*
X14326930Y-37485588D01*
X14326930Y-37485588D02*
X14279311Y-37580826D01*
X14279311Y-37580826D02*
X14231692Y-37628445D01*
X14231692Y-37628445D02*
X14136454Y-37676064D01*
X14136454Y-37676064D02*
X13993597Y-37676064D01*
X13993597Y-37676064D02*
X13898359Y-37628445D01*
X13898359Y-37628445D02*
X13850740Y-37580826D01*
X13850740Y-37580826D02*
X13803121Y-37485588D01*
X13803121Y-37485588D02*
X13803121Y-37104636D01*
X11716930Y-29723682D02*
X12193121Y-29390349D01*
X11716930Y-29152254D02*
X12716930Y-29152254D01*
X12716930Y-29152254D02*
X12716930Y-29533206D01*
X12716930Y-29533206D02*
X12669311Y-29628444D01*
X12669311Y-29628444D02*
X12621692Y-29676063D01*
X12621692Y-29676063D02*
X12526454Y-29723682D01*
X12526454Y-29723682D02*
X12383597Y-29723682D01*
X12383597Y-29723682D02*
X12288359Y-29676063D01*
X12288359Y-29676063D02*
X12240740Y-29628444D01*
X12240740Y-29628444D02*
X12193121Y-29533206D01*
X12193121Y-29533206D02*
X12193121Y-29152254D01*
X12716930Y-30342730D02*
X12716930Y-30437968D01*
X12716930Y-30437968D02*
X12669311Y-30533206D01*
X12669311Y-30533206D02*
X12621692Y-30580825D01*
X12621692Y-30580825D02*
X12526454Y-30628444D01*
X12526454Y-30628444D02*
X12335978Y-30676063D01*
X12335978Y-30676063D02*
X12097883Y-30676063D01*
X12097883Y-30676063D02*
X11907407Y-30628444D01*
X11907407Y-30628444D02*
X11812169Y-30580825D01*
X11812169Y-30580825D02*
X11764550Y-30533206D01*
X11764550Y-30533206D02*
X11716930Y-30437968D01*
X11716930Y-30437968D02*
X11716930Y-30342730D01*
X11716930Y-30342730D02*
X11764550Y-30247492D01*
X11764550Y-30247492D02*
X11812169Y-30199873D01*
X11812169Y-30199873D02*
X11907407Y-30152254D01*
X11907407Y-30152254D02*
X12097883Y-30104635D01*
X12097883Y-30104635D02*
X12335978Y-30104635D01*
X12335978Y-30104635D02*
X12526454Y-30152254D01*
X12526454Y-30152254D02*
X12621692Y-30199873D01*
X12621692Y-30199873D02*
X12669311Y-30247492D01*
X12669311Y-30247492D02*
X12716930Y-30342730D01*
X12621692Y-31818921D02*
X12669311Y-31866540D01*
X12669311Y-31866540D02*
X12716930Y-31961778D01*
X12716930Y-31961778D02*
X12716930Y-32199873D01*
X12716930Y-32199873D02*
X12669311Y-32295111D01*
X12669311Y-32295111D02*
X12621692Y-32342730D01*
X12621692Y-32342730D02*
X12526454Y-32390349D01*
X12526454Y-32390349D02*
X12431216Y-32390349D01*
X12431216Y-32390349D02*
X12288359Y-32342730D01*
X12288359Y-32342730D02*
X11716930Y-31771302D01*
X11716930Y-31771302D02*
X11716930Y-32390349D01*
X12716930Y-33009397D02*
X12716930Y-33104635D01*
X12716930Y-33104635D02*
X12669311Y-33199873D01*
X12669311Y-33199873D02*
X12621692Y-33247492D01*
X12621692Y-33247492D02*
X12526454Y-33295111D01*
X12526454Y-33295111D02*
X12335978Y-33342730D01*
X12335978Y-33342730D02*
X12097883Y-33342730D01*
X12097883Y-33342730D02*
X11907407Y-33295111D01*
X11907407Y-33295111D02*
X11812169Y-33247492D01*
X11812169Y-33247492D02*
X11764550Y-33199873D01*
X11764550Y-33199873D02*
X11716930Y-33104635D01*
X11716930Y-33104635D02*
X11716930Y-33009397D01*
X11716930Y-33009397D02*
X11764550Y-32914159D01*
X11764550Y-32914159D02*
X11812169Y-32866540D01*
X11812169Y-32866540D02*
X11907407Y-32818921D01*
X11907407Y-32818921D02*
X12097883Y-32771302D01*
X12097883Y-32771302D02*
X12335978Y-32771302D01*
X12335978Y-32771302D02*
X12526454Y-32818921D01*
X12526454Y-32818921D02*
X12621692Y-32866540D01*
X12621692Y-32866540D02*
X12669311Y-32914159D01*
X12669311Y-32914159D02*
X12716930Y-33009397D01*
X12621692Y-33723683D02*
X12669311Y-33771302D01*
X12669311Y-33771302D02*
X12716930Y-33866540D01*
X12716930Y-33866540D02*
X12716930Y-34104635D01*
X12716930Y-34104635D02*
X12669311Y-34199873D01*
X12669311Y-34199873D02*
X12621692Y-34247492D01*
X12621692Y-34247492D02*
X12526454Y-34295111D01*
X12526454Y-34295111D02*
X12431216Y-34295111D01*
X12431216Y-34295111D02*
X12288359Y-34247492D01*
X12288359Y-34247492D02*
X11716930Y-33676064D01*
X11716930Y-33676064D02*
X11716930Y-34295111D01*
X12383597Y-35152254D02*
X11716930Y-35152254D01*
X12764550Y-34914159D02*
X12050264Y-34676064D01*
X12050264Y-34676064D02*
X12050264Y-35295111D01*
X35872744Y-39600390D02*
X35796554Y-39562295D01*
X35796554Y-39562295D02*
X35682268Y-39562295D01*
X35682268Y-39562295D02*
X35567982Y-39600390D01*
X35567982Y-39600390D02*
X35491792Y-39676580D01*
X35491792Y-39676580D02*
X35453697Y-39752771D01*
X35453697Y-39752771D02*
X35415601Y-39905152D01*
X35415601Y-39905152D02*
X35415601Y-40019438D01*
X35415601Y-40019438D02*
X35453697Y-40171819D01*
X35453697Y-40171819D02*
X35491792Y-40248009D01*
X35491792Y-40248009D02*
X35567982Y-40324200D01*
X35567982Y-40324200D02*
X35682268Y-40362295D01*
X35682268Y-40362295D02*
X35758459Y-40362295D01*
X35758459Y-40362295D02*
X35872744Y-40324200D01*
X35872744Y-40324200D02*
X35910840Y-40286104D01*
X35910840Y-40286104D02*
X35910840Y-40019438D01*
X35910840Y-40019438D02*
X35758459Y-40019438D01*
X36253697Y-40362295D02*
X36253697Y-39562295D01*
X36253697Y-39562295D02*
X36710840Y-40362295D01*
X36710840Y-40362295D02*
X36710840Y-39562295D01*
X37091792Y-40362295D02*
X37091792Y-39562295D01*
X37091792Y-39562295D02*
X37282268Y-39562295D01*
X37282268Y-39562295D02*
X37396554Y-39600390D01*
X37396554Y-39600390D02*
X37472744Y-39676580D01*
X37472744Y-39676580D02*
X37510839Y-39752771D01*
X37510839Y-39752771D02*
X37548935Y-39905152D01*
X37548935Y-39905152D02*
X37548935Y-40019438D01*
X37548935Y-40019438D02*
X37510839Y-40171819D01*
X37510839Y-40171819D02*
X37472744Y-40248009D01*
X37472744Y-40248009D02*
X37396554Y-40324200D01*
X37396554Y-40324200D02*
X37282268Y-40362295D01*
X37282268Y-40362295D02*
X37091792Y-40362295D01*
X35606077Y-37774200D02*
X35720363Y-37812295D01*
X35720363Y-37812295D02*
X35910839Y-37812295D01*
X35910839Y-37812295D02*
X35987030Y-37774200D01*
X35987030Y-37774200D02*
X36025125Y-37736104D01*
X36025125Y-37736104D02*
X36063220Y-37659914D01*
X36063220Y-37659914D02*
X36063220Y-37583723D01*
X36063220Y-37583723D02*
X36025125Y-37507533D01*
X36025125Y-37507533D02*
X35987030Y-37469438D01*
X35987030Y-37469438D02*
X35910839Y-37431342D01*
X35910839Y-37431342D02*
X35758458Y-37393247D01*
X35758458Y-37393247D02*
X35682268Y-37355152D01*
X35682268Y-37355152D02*
X35644173Y-37317057D01*
X35644173Y-37317057D02*
X35606077Y-37240866D01*
X35606077Y-37240866D02*
X35606077Y-37164676D01*
X35606077Y-37164676D02*
X35644173Y-37088485D01*
X35644173Y-37088485D02*
X35682268Y-37050390D01*
X35682268Y-37050390D02*
X35758458Y-37012295D01*
X35758458Y-37012295D02*
X35948935Y-37012295D01*
X35948935Y-37012295D02*
X36063220Y-37050390D01*
X36406078Y-37812295D02*
X36406078Y-37012295D01*
X36406078Y-37012295D02*
X36596554Y-37012295D01*
X36596554Y-37012295D02*
X36710840Y-37050390D01*
X36710840Y-37050390D02*
X36787030Y-37126580D01*
X36787030Y-37126580D02*
X36825125Y-37202771D01*
X36825125Y-37202771D02*
X36863221Y-37355152D01*
X36863221Y-37355152D02*
X36863221Y-37469438D01*
X36863221Y-37469438D02*
X36825125Y-37621819D01*
X36825125Y-37621819D02*
X36787030Y-37698009D01*
X36787030Y-37698009D02*
X36710840Y-37774200D01*
X36710840Y-37774200D02*
X36596554Y-37812295D01*
X36596554Y-37812295D02*
X36406078Y-37812295D01*
X37167982Y-37583723D02*
X37548935Y-37583723D01*
X37091792Y-37812295D02*
X37358459Y-37012295D01*
X37358459Y-37012295D02*
X37625125Y-37812295D01*
X35644172Y-35224200D02*
X35758458Y-35262295D01*
X35758458Y-35262295D02*
X35948934Y-35262295D01*
X35948934Y-35262295D02*
X36025125Y-35224200D01*
X36025125Y-35224200D02*
X36063220Y-35186104D01*
X36063220Y-35186104D02*
X36101315Y-35109914D01*
X36101315Y-35109914D02*
X36101315Y-35033723D01*
X36101315Y-35033723D02*
X36063220Y-34957533D01*
X36063220Y-34957533D02*
X36025125Y-34919438D01*
X36025125Y-34919438D02*
X35948934Y-34881342D01*
X35948934Y-34881342D02*
X35796553Y-34843247D01*
X35796553Y-34843247D02*
X35720363Y-34805152D01*
X35720363Y-34805152D02*
X35682268Y-34767057D01*
X35682268Y-34767057D02*
X35644172Y-34690866D01*
X35644172Y-34690866D02*
X35644172Y-34614676D01*
X35644172Y-34614676D02*
X35682268Y-34538485D01*
X35682268Y-34538485D02*
X35720363Y-34500390D01*
X35720363Y-34500390D02*
X35796553Y-34462295D01*
X35796553Y-34462295D02*
X35987030Y-34462295D01*
X35987030Y-34462295D02*
X36101315Y-34500390D01*
X36901316Y-35186104D02*
X36863220Y-35224200D01*
X36863220Y-35224200D02*
X36748935Y-35262295D01*
X36748935Y-35262295D02*
X36672744Y-35262295D01*
X36672744Y-35262295D02*
X36558458Y-35224200D01*
X36558458Y-35224200D02*
X36482268Y-35148009D01*
X36482268Y-35148009D02*
X36444173Y-35071819D01*
X36444173Y-35071819D02*
X36406077Y-34919438D01*
X36406077Y-34919438D02*
X36406077Y-34805152D01*
X36406077Y-34805152D02*
X36444173Y-34652771D01*
X36444173Y-34652771D02*
X36482268Y-34576580D01*
X36482268Y-34576580D02*
X36558458Y-34500390D01*
X36558458Y-34500390D02*
X36672744Y-34462295D01*
X36672744Y-34462295D02*
X36748935Y-34462295D01*
X36748935Y-34462295D02*
X36863220Y-34500390D01*
X36863220Y-34500390D02*
X36901316Y-34538485D01*
X37625125Y-35262295D02*
X37244173Y-35262295D01*
X37244173Y-35262295D02*
X37244173Y-34462295D01*
X35872744Y-29400390D02*
X35796554Y-29362295D01*
X35796554Y-29362295D02*
X35682268Y-29362295D01*
X35682268Y-29362295D02*
X35567982Y-29400390D01*
X35567982Y-29400390D02*
X35491792Y-29476580D01*
X35491792Y-29476580D02*
X35453697Y-29552771D01*
X35453697Y-29552771D02*
X35415601Y-29705152D01*
X35415601Y-29705152D02*
X35415601Y-29819438D01*
X35415601Y-29819438D02*
X35453697Y-29971819D01*
X35453697Y-29971819D02*
X35491792Y-30048009D01*
X35491792Y-30048009D02*
X35567982Y-30124200D01*
X35567982Y-30124200D02*
X35682268Y-30162295D01*
X35682268Y-30162295D02*
X35758459Y-30162295D01*
X35758459Y-30162295D02*
X35872744Y-30124200D01*
X35872744Y-30124200D02*
X35910840Y-30086104D01*
X35910840Y-30086104D02*
X35910840Y-29819438D01*
X35910840Y-29819438D02*
X35758459Y-29819438D01*
X36253697Y-30162295D02*
X36253697Y-29362295D01*
X36253697Y-29362295D02*
X36710840Y-30162295D01*
X36710840Y-30162295D02*
X36710840Y-29362295D01*
X37091792Y-30162295D02*
X37091792Y-29362295D01*
X37091792Y-29362295D02*
X37282268Y-29362295D01*
X37282268Y-29362295D02*
X37396554Y-29400390D01*
X37396554Y-29400390D02*
X37472744Y-29476580D01*
X37472744Y-29476580D02*
X37510839Y-29552771D01*
X37510839Y-29552771D02*
X37548935Y-29705152D01*
X37548935Y-29705152D02*
X37548935Y-29819438D01*
X37548935Y-29819438D02*
X37510839Y-29971819D01*
X37510839Y-29971819D02*
X37472744Y-30048009D01*
X37472744Y-30048009D02*
X37396554Y-30124200D01*
X37396554Y-30124200D02*
X37282268Y-30162295D01*
X37282268Y-30162295D02*
X37091792Y-30162295D01*
X36063221Y-47962295D02*
X36063221Y-47162295D01*
X36444173Y-47962295D02*
X36444173Y-47162295D01*
X36444173Y-47162295D02*
X36901316Y-47962295D01*
X36901316Y-47962295D02*
X36901316Y-47162295D01*
X37167982Y-47162295D02*
X37625125Y-47162295D01*
X37396553Y-47962295D02*
X37396553Y-47162295D01*
D11*
X5380533Y-18206840D02*
X5380533Y-19041411D01*
X5380533Y-19041411D02*
X5324894Y-19208325D01*
X5324894Y-19208325D02*
X5213618Y-19319602D01*
X5213618Y-19319602D02*
X5046704Y-19375240D01*
X5046704Y-19375240D02*
X4935428Y-19375240D01*
X5881276Y-18318116D02*
X5936914Y-18262478D01*
X5936914Y-18262478D02*
X6048190Y-18206840D01*
X6048190Y-18206840D02*
X6326381Y-18206840D01*
X6326381Y-18206840D02*
X6437657Y-18262478D01*
X6437657Y-18262478D02*
X6493295Y-18318116D01*
X6493295Y-18318116D02*
X6548933Y-18429392D01*
X6548933Y-18429392D02*
X6548933Y-18540668D01*
X6548933Y-18540668D02*
X6493295Y-18707582D01*
X6493295Y-18707582D02*
X5825638Y-19375240D01*
X5825638Y-19375240D02*
X6548933Y-19375240D01*
D10*
X10279047Y-19224819D02*
X10850475Y-19224819D01*
X10564761Y-20224819D02*
X10564761Y-19224819D01*
X11183809Y-20224819D02*
X11183809Y-19224819D01*
X11612380Y-20224819D02*
X11612380Y-19701009D01*
X11612380Y-19701009D02*
X11564761Y-19605771D01*
X11564761Y-19605771D02*
X11469523Y-19558152D01*
X11469523Y-19558152D02*
X11326666Y-19558152D01*
X11326666Y-19558152D02*
X11231428Y-19605771D01*
X11231428Y-19605771D02*
X11183809Y-19653390D01*
X12088571Y-20224819D02*
X12088571Y-19558152D01*
X12088571Y-19224819D02*
X12040952Y-19272438D01*
X12040952Y-19272438D02*
X12088571Y-19320057D01*
X12088571Y-19320057D02*
X12136190Y-19272438D01*
X12136190Y-19272438D02*
X12088571Y-19224819D01*
X12088571Y-19224819D02*
X12088571Y-19320057D01*
X12564761Y-19558152D02*
X12564761Y-20224819D01*
X12564761Y-19653390D02*
X12612380Y-19605771D01*
X12612380Y-19605771D02*
X12707618Y-19558152D01*
X12707618Y-19558152D02*
X12850475Y-19558152D01*
X12850475Y-19558152D02*
X12945713Y-19605771D01*
X12945713Y-19605771D02*
X12993332Y-19701009D01*
X12993332Y-19701009D02*
X12993332Y-20224819D01*
X13898094Y-19558152D02*
X13898094Y-20367676D01*
X13898094Y-20367676D02*
X13850475Y-20462914D01*
X13850475Y-20462914D02*
X13802856Y-20510533D01*
X13802856Y-20510533D02*
X13707618Y-20558152D01*
X13707618Y-20558152D02*
X13564761Y-20558152D01*
X13564761Y-20558152D02*
X13469523Y-20510533D01*
X13898094Y-20177200D02*
X13802856Y-20224819D01*
X13802856Y-20224819D02*
X13612380Y-20224819D01*
X13612380Y-20224819D02*
X13517142Y-20177200D01*
X13517142Y-20177200D02*
X13469523Y-20129580D01*
X13469523Y-20129580D02*
X13421904Y-20034342D01*
X13421904Y-20034342D02*
X13421904Y-19748628D01*
X13421904Y-19748628D02*
X13469523Y-19653390D01*
X13469523Y-19653390D02*
X13517142Y-19605771D01*
X13517142Y-19605771D02*
X13612380Y-19558152D01*
X13612380Y-19558152D02*
X13802856Y-19558152D01*
X13802856Y-19558152D02*
X13898094Y-19605771D01*
X15136190Y-20224819D02*
X15136190Y-19224819D01*
X15136190Y-19224819D02*
X15517142Y-19224819D01*
X15517142Y-19224819D02*
X15612380Y-19272438D01*
X15612380Y-19272438D02*
X15659999Y-19320057D01*
X15659999Y-19320057D02*
X15707618Y-19415295D01*
X15707618Y-19415295D02*
X15707618Y-19558152D01*
X15707618Y-19558152D02*
X15659999Y-19653390D01*
X15659999Y-19653390D02*
X15612380Y-19701009D01*
X15612380Y-19701009D02*
X15517142Y-19748628D01*
X15517142Y-19748628D02*
X15136190Y-19748628D01*
X16279047Y-20224819D02*
X16183809Y-20177200D01*
X16183809Y-20177200D02*
X16136190Y-20081961D01*
X16136190Y-20081961D02*
X16136190Y-19224819D01*
X17088571Y-19558152D02*
X17088571Y-20224819D01*
X16660000Y-19558152D02*
X16660000Y-20081961D01*
X16660000Y-20081961D02*
X16707619Y-20177200D01*
X16707619Y-20177200D02*
X16802857Y-20224819D01*
X16802857Y-20224819D02*
X16945714Y-20224819D01*
X16945714Y-20224819D02*
X17040952Y-20177200D01*
X17040952Y-20177200D02*
X17088571Y-20129580D01*
X17517143Y-20177200D02*
X17612381Y-20224819D01*
X17612381Y-20224819D02*
X17802857Y-20224819D01*
X17802857Y-20224819D02*
X17898095Y-20177200D01*
X17898095Y-20177200D02*
X17945714Y-20081961D01*
X17945714Y-20081961D02*
X17945714Y-20034342D01*
X17945714Y-20034342D02*
X17898095Y-19939104D01*
X17898095Y-19939104D02*
X17802857Y-19891485D01*
X17802857Y-19891485D02*
X17660000Y-19891485D01*
X17660000Y-19891485D02*
X17564762Y-19843866D01*
X17564762Y-19843866D02*
X17517143Y-19748628D01*
X17517143Y-19748628D02*
X17517143Y-19701009D01*
X17517143Y-19701009D02*
X17564762Y-19605771D01*
X17564762Y-19605771D02*
X17660000Y-19558152D01*
X17660000Y-19558152D02*
X17802857Y-19558152D01*
X17802857Y-19558152D02*
X17898095Y-19605771D01*
X19707619Y-20129580D02*
X19660000Y-20177200D01*
X19660000Y-20177200D02*
X19517143Y-20224819D01*
X19517143Y-20224819D02*
X19421905Y-20224819D01*
X19421905Y-20224819D02*
X19279048Y-20177200D01*
X19279048Y-20177200D02*
X19183810Y-20081961D01*
X19183810Y-20081961D02*
X19136191Y-19986723D01*
X19136191Y-19986723D02*
X19088572Y-19796247D01*
X19088572Y-19796247D02*
X19088572Y-19653390D01*
X19088572Y-19653390D02*
X19136191Y-19462914D01*
X19136191Y-19462914D02*
X19183810Y-19367676D01*
X19183810Y-19367676D02*
X19279048Y-19272438D01*
X19279048Y-19272438D02*
X19421905Y-19224819D01*
X19421905Y-19224819D02*
X19517143Y-19224819D01*
X19517143Y-19224819D02*
X19660000Y-19272438D01*
X19660000Y-19272438D02*
X19707619Y-19320057D01*
X9207619Y-17851009D02*
X9540952Y-17851009D01*
X9683809Y-18374819D02*
X9207619Y-18374819D01*
X9207619Y-18374819D02*
X9207619Y-17374819D01*
X9207619Y-17374819D02*
X9683809Y-17374819D01*
X10064762Y-18327200D02*
X10207619Y-18374819D01*
X10207619Y-18374819D02*
X10445714Y-18374819D01*
X10445714Y-18374819D02*
X10540952Y-18327200D01*
X10540952Y-18327200D02*
X10588571Y-18279580D01*
X10588571Y-18279580D02*
X10636190Y-18184342D01*
X10636190Y-18184342D02*
X10636190Y-18089104D01*
X10636190Y-18089104D02*
X10588571Y-17993866D01*
X10588571Y-17993866D02*
X10540952Y-17946247D01*
X10540952Y-17946247D02*
X10445714Y-17898628D01*
X10445714Y-17898628D02*
X10255238Y-17851009D01*
X10255238Y-17851009D02*
X10160000Y-17803390D01*
X10160000Y-17803390D02*
X10112381Y-17755771D01*
X10112381Y-17755771D02*
X10064762Y-17660533D01*
X10064762Y-17660533D02*
X10064762Y-17565295D01*
X10064762Y-17565295D02*
X10112381Y-17470057D01*
X10112381Y-17470057D02*
X10160000Y-17422438D01*
X10160000Y-17422438D02*
X10255238Y-17374819D01*
X10255238Y-17374819D02*
X10493333Y-17374819D01*
X10493333Y-17374819D02*
X10636190Y-17422438D01*
X11064762Y-18374819D02*
X11064762Y-17374819D01*
X11064762Y-17374819D02*
X11445714Y-17374819D01*
X11445714Y-17374819D02*
X11540952Y-17422438D01*
X11540952Y-17422438D02*
X11588571Y-17470057D01*
X11588571Y-17470057D02*
X11636190Y-17565295D01*
X11636190Y-17565295D02*
X11636190Y-17708152D01*
X11636190Y-17708152D02*
X11588571Y-17803390D01*
X11588571Y-17803390D02*
X11540952Y-17851009D01*
X11540952Y-17851009D02*
X11445714Y-17898628D01*
X11445714Y-17898628D02*
X11064762Y-17898628D01*
X11969524Y-17374819D02*
X12588571Y-17374819D01*
X12588571Y-17374819D02*
X12255238Y-17755771D01*
X12255238Y-17755771D02*
X12398095Y-17755771D01*
X12398095Y-17755771D02*
X12493333Y-17803390D01*
X12493333Y-17803390D02*
X12540952Y-17851009D01*
X12540952Y-17851009D02*
X12588571Y-17946247D01*
X12588571Y-17946247D02*
X12588571Y-18184342D01*
X12588571Y-18184342D02*
X12540952Y-18279580D01*
X12540952Y-18279580D02*
X12493333Y-18327200D01*
X12493333Y-18327200D02*
X12398095Y-18374819D01*
X12398095Y-18374819D02*
X12112381Y-18374819D01*
X12112381Y-18374819D02*
X12017143Y-18327200D01*
X12017143Y-18327200D02*
X11969524Y-18279580D01*
X12969524Y-17470057D02*
X13017143Y-17422438D01*
X13017143Y-17422438D02*
X13112381Y-17374819D01*
X13112381Y-17374819D02*
X13350476Y-17374819D01*
X13350476Y-17374819D02*
X13445714Y-17422438D01*
X13445714Y-17422438D02*
X13493333Y-17470057D01*
X13493333Y-17470057D02*
X13540952Y-17565295D01*
X13540952Y-17565295D02*
X13540952Y-17660533D01*
X13540952Y-17660533D02*
X13493333Y-17803390D01*
X13493333Y-17803390D02*
X12921905Y-18374819D01*
X12921905Y-18374819D02*
X13540952Y-18374819D01*
X13969524Y-17993866D02*
X14731429Y-17993866D01*
X15112381Y-17374819D02*
X15350476Y-18374819D01*
X15350476Y-18374819D02*
X15540952Y-17660533D01*
X15540952Y-17660533D02*
X15731428Y-18374819D01*
X15731428Y-18374819D02*
X15969524Y-17374819D01*
X16921904Y-18374819D02*
X16588571Y-17898628D01*
X16350476Y-18374819D02*
X16350476Y-17374819D01*
X16350476Y-17374819D02*
X16731428Y-17374819D01*
X16731428Y-17374819D02*
X16826666Y-17422438D01*
X16826666Y-17422438D02*
X16874285Y-17470057D01*
X16874285Y-17470057D02*
X16921904Y-17565295D01*
X16921904Y-17565295D02*
X16921904Y-17708152D01*
X16921904Y-17708152D02*
X16874285Y-17803390D01*
X16874285Y-17803390D02*
X16826666Y-17851009D01*
X16826666Y-17851009D02*
X16731428Y-17898628D01*
X16731428Y-17898628D02*
X16350476Y-17898628D01*
X17540952Y-17374819D02*
X17731428Y-17374819D01*
X17731428Y-17374819D02*
X17826666Y-17422438D01*
X17826666Y-17422438D02*
X17921904Y-17517676D01*
X17921904Y-17517676D02*
X17969523Y-17708152D01*
X17969523Y-17708152D02*
X17969523Y-18041485D01*
X17969523Y-18041485D02*
X17921904Y-18231961D01*
X17921904Y-18231961D02*
X17826666Y-18327200D01*
X17826666Y-18327200D02*
X17731428Y-18374819D01*
X17731428Y-18374819D02*
X17540952Y-18374819D01*
X17540952Y-18374819D02*
X17445714Y-18327200D01*
X17445714Y-18327200D02*
X17350476Y-18231961D01*
X17350476Y-18231961D02*
X17302857Y-18041485D01*
X17302857Y-18041485D02*
X17302857Y-17708152D01*
X17302857Y-17708152D02*
X17350476Y-17517676D01*
X17350476Y-17517676D02*
X17445714Y-17422438D01*
X17445714Y-17422438D02*
X17540952Y-17374819D01*
X18588571Y-17374819D02*
X18779047Y-17374819D01*
X18779047Y-17374819D02*
X18874285Y-17422438D01*
X18874285Y-17422438D02*
X18969523Y-17517676D01*
X18969523Y-17517676D02*
X19017142Y-17708152D01*
X19017142Y-17708152D02*
X19017142Y-18041485D01*
X19017142Y-18041485D02*
X18969523Y-18231961D01*
X18969523Y-18231961D02*
X18874285Y-18327200D01*
X18874285Y-18327200D02*
X18779047Y-18374819D01*
X18779047Y-18374819D02*
X18588571Y-18374819D01*
X18588571Y-18374819D02*
X18493333Y-18327200D01*
X18493333Y-18327200D02*
X18398095Y-18231961D01*
X18398095Y-18231961D02*
X18350476Y-18041485D01*
X18350476Y-18041485D02*
X18350476Y-17708152D01*
X18350476Y-17708152D02*
X18398095Y-17517676D01*
X18398095Y-17517676D02*
X18493333Y-17422438D01*
X18493333Y-17422438D02*
X18588571Y-17374819D01*
X19445714Y-18374819D02*
X19445714Y-17374819D01*
X19445714Y-17374819D02*
X19779047Y-18089104D01*
X19779047Y-18089104D02*
X20112380Y-17374819D01*
X20112380Y-17374819D02*
X20112380Y-18374819D01*
%TO.C,Logo1*%
D12*
X14405717Y-21199023D02*
X14509316Y-21201618D01*
X14598477Y-21205754D01*
X14666773Y-21211437D01*
X14707779Y-21218669D01*
X14716171Y-21223029D01*
X14724637Y-21247302D01*
X14738410Y-21302574D01*
X14756295Y-21383338D01*
X14777097Y-21484088D01*
X14799622Y-21599317D01*
X14811427Y-21662098D01*
X14833694Y-21781213D01*
X14853866Y-21887435D01*
X14870930Y-21975573D01*
X14883876Y-22040434D01*
X14891690Y-22076826D01*
X14893423Y-22082816D01*
X14912955Y-22092939D01*
X14960002Y-22114338D01*
X15027842Y-22144161D01*
X15109754Y-22179555D01*
X15199017Y-22217668D01*
X15288910Y-22255647D01*
X15372710Y-22290640D01*
X15443698Y-22319794D01*
X15495151Y-22340257D01*
X15520348Y-22349177D01*
X15521449Y-22349343D01*
X15541326Y-22339231D01*
X15587068Y-22310883D01*
X15654128Y-22267277D01*
X15737961Y-22211394D01*
X15834019Y-22146213D01*
X15889195Y-22108321D01*
X15990364Y-22039275D01*
X16082215Y-21977950D01*
X16160101Y-21927337D01*
X16219376Y-21890429D01*
X16255394Y-21870218D01*
X16263468Y-21867299D01*
X16282261Y-21879847D01*
X16322388Y-21914537D01*
X16379352Y-21966937D01*
X16448660Y-22032616D01*
X16525814Y-22107144D01*
X16606320Y-22186087D01*
X16685682Y-22265017D01*
X16759405Y-22339500D01*
X16822993Y-22405106D01*
X16871951Y-22457404D01*
X16901784Y-22491961D01*
X16908903Y-22503522D01*
X16898892Y-22522346D01*
X16870767Y-22567369D01*
X16827391Y-22634213D01*
X16771627Y-22718501D01*
X16706339Y-22815856D01*
X16656599Y-22889293D01*
X16404294Y-23260333D01*
X16659290Y-23878905D01*
X17103914Y-23962725D01*
X17548538Y-24046546D01*
X17548538Y-24971994D01*
X17103914Y-25055814D01*
X16659290Y-25139635D01*
X16531792Y-25448920D01*
X16404294Y-25758206D01*
X16656599Y-26129246D01*
X16726849Y-26233157D01*
X16789573Y-26327087D01*
X16841907Y-26406652D01*
X16880988Y-26467470D01*
X16903952Y-26505157D01*
X16908903Y-26515421D01*
X16896169Y-26533910D01*
X16860963Y-26573420D01*
X16807783Y-26629522D01*
X16741127Y-26697787D01*
X16665491Y-26773786D01*
X16585373Y-26853092D01*
X16505271Y-26931275D01*
X16429681Y-27003907D01*
X16363100Y-27066559D01*
X16310027Y-27114803D01*
X16274958Y-27144210D01*
X16263222Y-27151241D01*
X16241585Y-27141123D01*
X16194183Y-27112759D01*
X16125652Y-27069129D01*
X16040630Y-27013218D01*
X15943752Y-26948006D01*
X15888495Y-26910219D01*
X15787597Y-26841343D01*
X15696546Y-26780140D01*
X15619875Y-26729578D01*
X15562117Y-26692628D01*
X15527802Y-26672258D01*
X15520591Y-26669197D01*
X15500097Y-26676136D01*
X15452332Y-26695051D01*
X15384013Y-26723087D01*
X15301856Y-26757391D01*
X15212575Y-26795109D01*
X15122887Y-26833387D01*
X15039507Y-26869370D01*
X14969151Y-26900206D01*
X14918535Y-26923039D01*
X14894374Y-26935017D01*
X14893423Y-26935724D01*
X14888809Y-26954531D01*
X14878517Y-27004618D01*
X14863558Y-27080793D01*
X14844944Y-27177865D01*
X14823686Y-27290643D01*
X14811427Y-27356442D01*
X14788483Y-27476950D01*
X14766650Y-27585797D01*
X14747123Y-27677476D01*
X14731097Y-27746481D01*
X14719766Y-27787304D01*
X14716171Y-27795511D01*
X14691839Y-27803548D01*
X14636886Y-27810033D01*
X14557737Y-27814970D01*
X14460819Y-27818364D01*
X14352558Y-27820218D01*
X14239380Y-27820538D01*
X14127710Y-27819327D01*
X14023977Y-27816590D01*
X13934604Y-27812331D01*
X13866019Y-27806555D01*
X13824648Y-27799267D01*
X13816035Y-27794895D01*
X13805712Y-27768764D01*
X13790953Y-27713393D01*
X13773493Y-27636107D01*
X13755065Y-27544230D01*
X13749104Y-27512158D01*
X13720779Y-27357524D01*
X13697969Y-27235375D01*
X13679765Y-27141673D01*
X13665262Y-27072384D01*
X13653553Y-27023471D01*
X13643730Y-26990897D01*
X13634889Y-26970628D01*
X13626121Y-26958626D01*
X13624388Y-26956947D01*
X13596474Y-26940184D01*
X13542150Y-26914614D01*
X13468068Y-26882788D01*
X13380880Y-26847260D01*
X13287237Y-26810583D01*
X13193793Y-26775311D01*
X13107198Y-26743996D01*
X13034105Y-26719193D01*
X12981167Y-26703454D01*
X12955034Y-26699332D01*
X12954119Y-26699676D01*
X12932759Y-26713641D01*
X12885761Y-26745322D01*
X12818018Y-26791391D01*
X12734422Y-26848518D01*
X12639863Y-26913373D01*
X12612991Y-26931843D01*
X12515570Y-26997699D01*
X12426682Y-27055650D01*
X12351433Y-27102538D01*
X12294925Y-27135207D01*
X12262264Y-27150500D01*
X12258252Y-27151241D01*
X12237161Y-27138392D01*
X12195381Y-27102888D01*
X12137400Y-27049293D01*
X12067710Y-26982171D01*
X11990800Y-26906087D01*
X11911162Y-26825604D01*
X11833284Y-26745287D01*
X11761659Y-26669699D01*
X11700775Y-26603405D01*
X11655124Y-26550969D01*
X11629195Y-26516955D01*
X11624962Y-26507545D01*
X11634933Y-26485643D01*
X11661825Y-26440800D01*
X11701109Y-26380321D01*
X11732728Y-26333789D01*
X11790747Y-26249475D01*
X11859061Y-26149626D01*
X11927266Y-26049473D01*
X11963770Y-25995627D01*
X12087045Y-25813371D01*
X12004325Y-25660381D01*
X11968086Y-25590682D01*
X11939919Y-25531414D01*
X11923854Y-25491311D01*
X11921619Y-25481103D01*
X11938123Y-25468829D01*
X11984763Y-25444613D01*
X12057236Y-25410263D01*
X12151239Y-25367588D01*
X12262471Y-25318394D01*
X12386630Y-25264490D01*
X12519413Y-25207684D01*
X12656518Y-25149782D01*
X12793643Y-25092593D01*
X12926487Y-25037924D01*
X13050747Y-24987584D01*
X13162120Y-24943380D01*
X13256306Y-24907119D01*
X13329001Y-24880609D01*
X13375904Y-24865658D01*
X13392012Y-24863254D01*
X13412559Y-24882311D01*
X13445912Y-24924036D01*
X13485143Y-24979706D01*
X13488246Y-24984378D01*
X13603422Y-25128264D01*
X13737792Y-25244283D01*
X13887061Y-25331430D01*
X14046932Y-25388699D01*
X14213108Y-25415086D01*
X14381293Y-25409585D01*
X14547190Y-25371190D01*
X14706503Y-25298895D01*
X14741358Y-25277626D01*
X14882108Y-25166996D01*
X14995131Y-25036302D01*
X15079842Y-24890064D01*
X15135651Y-24732808D01*
X15161971Y-24569057D01*
X15158215Y-24403333D01*
X15123795Y-24240162D01*
X15058122Y-24084065D01*
X14960610Y-23939567D01*
X14921032Y-23894869D01*
X14797142Y-23781112D01*
X14666721Y-23698218D01*
X14520530Y-23641356D01*
X14375757Y-23609687D01*
X14212985Y-23601869D01*
X14049405Y-23627938D01*
X13890547Y-23685245D01*
X13741939Y-23771144D01*
X13609110Y-23882986D01*
X13497589Y-24018123D01*
X13485834Y-24035883D01*
X13447337Y-24092150D01*
X13413982Y-24134923D01*
X13392685Y-24155372D01*
X13392012Y-24155669D01*
X13368974Y-24151279D01*
X13316688Y-24133876D01*
X13239455Y-24105268D01*
X13141577Y-24067265D01*
X13027354Y-24021674D01*
X12901087Y-23970303D01*
X12767078Y-23914962D01*
X12629627Y-23857458D01*
X12493037Y-23799601D01*
X12361608Y-23743198D01*
X12239640Y-23690058D01*
X12131436Y-23641990D01*
X12041296Y-23600801D01*
X11973522Y-23568301D01*
X11932415Y-23546297D01*
X11921619Y-23537436D01*
X11930026Y-23510360D01*
X11952573Y-23459697D01*
X11985232Y-23394183D01*
X12004325Y-23358159D01*
X12087045Y-23205168D01*
X11963770Y-23022912D01*
X11900617Y-22929875D01*
X11831118Y-22828015D01*
X11765680Y-22732562D01*
X11732728Y-22684750D01*
X11687572Y-22617505D01*
X11651788Y-22560564D01*
X11629907Y-22521354D01*
X11625282Y-22508619D01*
X11637760Y-22490083D01*
X11672593Y-22449059D01*
X11726167Y-22389525D01*
X11794862Y-22315458D01*
X11875064Y-22230835D01*
X11926559Y-22177315D01*
X12018559Y-22083681D01*
X12100846Y-22002759D01*
X12169900Y-21937823D01*
X12222201Y-21892142D01*
X12254229Y-21868989D01*
X12260729Y-21866768D01*
X12285451Y-21877076D01*
X12335440Y-21905561D01*
X12405633Y-21949063D01*
X12490970Y-22004423D01*
X12586389Y-22068480D01*
X12612991Y-22086697D01*
X12709678Y-22153073D01*
X12796728Y-22212622D01*
X12869250Y-22262016D01*
X12922352Y-22297925D01*
X12951142Y-22317019D01*
X12954119Y-22318864D01*
X12977063Y-22316105D01*
X13027509Y-22301462D01*
X13098804Y-22277487D01*
X13184298Y-22246734D01*
X13277338Y-22211756D01*
X13371271Y-22175107D01*
X13459446Y-22139339D01*
X13535211Y-22107006D01*
X13591914Y-22080662D01*
X13622902Y-22062858D01*
X13624388Y-22061593D01*
X13633244Y-22050706D01*
X13642002Y-22032318D01*
X13651568Y-22002394D01*
X13662849Y-21956897D01*
X13676752Y-21891791D01*
X13694182Y-21803039D01*
X13716047Y-21686607D01*
X13743254Y-21538458D01*
X13749104Y-21506382D01*
X13767471Y-21411314D01*
X13785440Y-21328435D01*
X13801276Y-21265070D01*
X13813245Y-21228542D01*
X13816035Y-21223644D01*
X13840773Y-21215573D01*
X13896055Y-21209013D01*
X13975456Y-21203967D01*
X14072549Y-21200441D01*
X14180907Y-21198439D01*
X14294105Y-21197964D01*
X14405717Y-21199023D01*
G36*
X14405717Y-21199023D02*
G01*
X14509316Y-21201618D01*
X14598477Y-21205754D01*
X14666773Y-21211437D01*
X14707779Y-21218669D01*
X14716171Y-21223029D01*
X14724637Y-21247302D01*
X14738410Y-21302574D01*
X14756295Y-21383338D01*
X14777097Y-21484088D01*
X14799622Y-21599317D01*
X14811427Y-21662098D01*
X14833694Y-21781213D01*
X14853866Y-21887435D01*
X14870930Y-21975573D01*
X14883876Y-22040434D01*
X14891690Y-22076826D01*
X14893423Y-22082816D01*
X14912955Y-22092939D01*
X14960002Y-22114338D01*
X15027842Y-22144161D01*
X15109754Y-22179555D01*
X15199017Y-22217668D01*
X15288910Y-22255647D01*
X15372710Y-22290640D01*
X15443698Y-22319794D01*
X15495151Y-22340257D01*
X15520348Y-22349177D01*
X15521449Y-22349343D01*
X15541326Y-22339231D01*
X15587068Y-22310883D01*
X15654128Y-22267277D01*
X15737961Y-22211394D01*
X15834019Y-22146213D01*
X15889195Y-22108321D01*
X15990364Y-22039275D01*
X16082215Y-21977950D01*
X16160101Y-21927337D01*
X16219376Y-21890429D01*
X16255394Y-21870218D01*
X16263468Y-21867299D01*
X16282261Y-21879847D01*
X16322388Y-21914537D01*
X16379352Y-21966937D01*
X16448660Y-22032616D01*
X16525814Y-22107144D01*
X16606320Y-22186087D01*
X16685682Y-22265017D01*
X16759405Y-22339500D01*
X16822993Y-22405106D01*
X16871951Y-22457404D01*
X16901784Y-22491961D01*
X16908903Y-22503522D01*
X16898892Y-22522346D01*
X16870767Y-22567369D01*
X16827391Y-22634213D01*
X16771627Y-22718501D01*
X16706339Y-22815856D01*
X16656599Y-22889293D01*
X16404294Y-23260333D01*
X16659290Y-23878905D01*
X17103914Y-23962725D01*
X17548538Y-24046546D01*
X17548538Y-24971994D01*
X17103914Y-25055814D01*
X16659290Y-25139635D01*
X16531792Y-25448920D01*
X16404294Y-25758206D01*
X16656599Y-26129246D01*
X16726849Y-26233157D01*
X16789573Y-26327087D01*
X16841907Y-26406652D01*
X16880988Y-26467470D01*
X16903952Y-26505157D01*
X16908903Y-26515421D01*
X16896169Y-26533910D01*
X16860963Y-26573420D01*
X16807783Y-26629522D01*
X16741127Y-26697787D01*
X16665491Y-26773786D01*
X16585373Y-26853092D01*
X16505271Y-26931275D01*
X16429681Y-27003907D01*
X16363100Y-27066559D01*
X16310027Y-27114803D01*
X16274958Y-27144210D01*
X16263222Y-27151241D01*
X16241585Y-27141123D01*
X16194183Y-27112759D01*
X16125652Y-27069129D01*
X16040630Y-27013218D01*
X15943752Y-26948006D01*
X15888495Y-26910219D01*
X15787597Y-26841343D01*
X15696546Y-26780140D01*
X15619875Y-26729578D01*
X15562117Y-26692628D01*
X15527802Y-26672258D01*
X15520591Y-26669197D01*
X15500097Y-26676136D01*
X15452332Y-26695051D01*
X15384013Y-26723087D01*
X15301856Y-26757391D01*
X15212575Y-26795109D01*
X15122887Y-26833387D01*
X15039507Y-26869370D01*
X14969151Y-26900206D01*
X14918535Y-26923039D01*
X14894374Y-26935017D01*
X14893423Y-26935724D01*
X14888809Y-26954531D01*
X14878517Y-27004618D01*
X14863558Y-27080793D01*
X14844944Y-27177865D01*
X14823686Y-27290643D01*
X14811427Y-27356442D01*
X14788483Y-27476950D01*
X14766650Y-27585797D01*
X14747123Y-27677476D01*
X14731097Y-27746481D01*
X14719766Y-27787304D01*
X14716171Y-27795511D01*
X14691839Y-27803548D01*
X14636886Y-27810033D01*
X14557737Y-27814970D01*
X14460819Y-27818364D01*
X14352558Y-27820218D01*
X14239380Y-27820538D01*
X14127710Y-27819327D01*
X14023977Y-27816590D01*
X13934604Y-27812331D01*
X13866019Y-27806555D01*
X13824648Y-27799267D01*
X13816035Y-27794895D01*
X13805712Y-27768764D01*
X13790953Y-27713393D01*
X13773493Y-27636107D01*
X13755065Y-27544230D01*
X13749104Y-27512158D01*
X13720779Y-27357524D01*
X13697969Y-27235375D01*
X13679765Y-27141673D01*
X13665262Y-27072384D01*
X13653553Y-27023471D01*
X13643730Y-26990897D01*
X13634889Y-26970628D01*
X13626121Y-26958626D01*
X13624388Y-26956947D01*
X13596474Y-26940184D01*
X13542150Y-26914614D01*
X13468068Y-26882788D01*
X13380880Y-26847260D01*
X13287237Y-26810583D01*
X13193793Y-26775311D01*
X13107198Y-26743996D01*
X13034105Y-26719193D01*
X12981167Y-26703454D01*
X12955034Y-26699332D01*
X12954119Y-26699676D01*
X12932759Y-26713641D01*
X12885761Y-26745322D01*
X12818018Y-26791391D01*
X12734422Y-26848518D01*
X12639863Y-26913373D01*
X12612991Y-26931843D01*
X12515570Y-26997699D01*
X12426682Y-27055650D01*
X12351433Y-27102538D01*
X12294925Y-27135207D01*
X12262264Y-27150500D01*
X12258252Y-27151241D01*
X12237161Y-27138392D01*
X12195381Y-27102888D01*
X12137400Y-27049293D01*
X12067710Y-26982171D01*
X11990800Y-26906087D01*
X11911162Y-26825604D01*
X11833284Y-26745287D01*
X11761659Y-26669699D01*
X11700775Y-26603405D01*
X11655124Y-26550969D01*
X11629195Y-26516955D01*
X11624962Y-26507545D01*
X11634933Y-26485643D01*
X11661825Y-26440800D01*
X11701109Y-26380321D01*
X11732728Y-26333789D01*
X11790747Y-26249475D01*
X11859061Y-26149626D01*
X11927266Y-26049473D01*
X11963770Y-25995627D01*
X12087045Y-25813371D01*
X12004325Y-25660381D01*
X11968086Y-25590682D01*
X11939919Y-25531414D01*
X11923854Y-25491311D01*
X11921619Y-25481103D01*
X11938123Y-25468829D01*
X11984763Y-25444613D01*
X12057236Y-25410263D01*
X12151239Y-25367588D01*
X12262471Y-25318394D01*
X12386630Y-25264490D01*
X12519413Y-25207684D01*
X12656518Y-25149782D01*
X12793643Y-25092593D01*
X12926487Y-25037924D01*
X13050747Y-24987584D01*
X13162120Y-24943380D01*
X13256306Y-24907119D01*
X13329001Y-24880609D01*
X13375904Y-24865658D01*
X13392012Y-24863254D01*
X13412559Y-24882311D01*
X13445912Y-24924036D01*
X13485143Y-24979706D01*
X13488246Y-24984378D01*
X13603422Y-25128264D01*
X13737792Y-25244283D01*
X13887061Y-25331430D01*
X14046932Y-25388699D01*
X14213108Y-25415086D01*
X14381293Y-25409585D01*
X14547190Y-25371190D01*
X14706503Y-25298895D01*
X14741358Y-25277626D01*
X14882108Y-25166996D01*
X14995131Y-25036302D01*
X15079842Y-24890064D01*
X15135651Y-24732808D01*
X15161971Y-24569057D01*
X15158215Y-24403333D01*
X15123795Y-24240162D01*
X15058122Y-24084065D01*
X14960610Y-23939567D01*
X14921032Y-23894869D01*
X14797142Y-23781112D01*
X14666721Y-23698218D01*
X14520530Y-23641356D01*
X14375757Y-23609687D01*
X14212985Y-23601869D01*
X14049405Y-23627938D01*
X13890547Y-23685245D01*
X13741939Y-23771144D01*
X13609110Y-23882986D01*
X13497589Y-24018123D01*
X13485834Y-24035883D01*
X13447337Y-24092150D01*
X13413982Y-24134923D01*
X13392685Y-24155372D01*
X13392012Y-24155669D01*
X13368974Y-24151279D01*
X13316688Y-24133876D01*
X13239455Y-24105268D01*
X13141577Y-24067265D01*
X13027354Y-24021674D01*
X12901087Y-23970303D01*
X12767078Y-23914962D01*
X12629627Y-23857458D01*
X12493037Y-23799601D01*
X12361608Y-23743198D01*
X12239640Y-23690058D01*
X12131436Y-23641990D01*
X12041296Y-23600801D01*
X11973522Y-23568301D01*
X11932415Y-23546297D01*
X11921619Y-23537436D01*
X11930026Y-23510360D01*
X11952573Y-23459697D01*
X11985232Y-23394183D01*
X12004325Y-23358159D01*
X12087045Y-23205168D01*
X11963770Y-23022912D01*
X11900617Y-22929875D01*
X11831118Y-22828015D01*
X11765680Y-22732562D01*
X11732728Y-22684750D01*
X11687572Y-22617505D01*
X11651788Y-22560564D01*
X11629907Y-22521354D01*
X11625282Y-22508619D01*
X11637760Y-22490083D01*
X11672593Y-22449059D01*
X11726167Y-22389525D01*
X11794862Y-22315458D01*
X11875064Y-22230835D01*
X11926559Y-22177315D01*
X12018559Y-22083681D01*
X12100846Y-22002759D01*
X12169900Y-21937823D01*
X12222201Y-21892142D01*
X12254229Y-21868989D01*
X12260729Y-21866768D01*
X12285451Y-21877076D01*
X12335440Y-21905561D01*
X12405633Y-21949063D01*
X12490970Y-22004423D01*
X12586389Y-22068480D01*
X12612991Y-22086697D01*
X12709678Y-22153073D01*
X12796728Y-22212622D01*
X12869250Y-22262016D01*
X12922352Y-22297925D01*
X12951142Y-22317019D01*
X12954119Y-22318864D01*
X12977063Y-22316105D01*
X13027509Y-22301462D01*
X13098804Y-22277487D01*
X13184298Y-22246734D01*
X13277338Y-22211756D01*
X13371271Y-22175107D01*
X13459446Y-22139339D01*
X13535211Y-22107006D01*
X13591914Y-22080662D01*
X13622902Y-22062858D01*
X13624388Y-22061593D01*
X13633244Y-22050706D01*
X13642002Y-22032318D01*
X13651568Y-22002394D01*
X13662849Y-21956897D01*
X13676752Y-21891791D01*
X13694182Y-21803039D01*
X13716047Y-21686607D01*
X13743254Y-21538458D01*
X13749104Y-21506382D01*
X13767471Y-21411314D01*
X13785440Y-21328435D01*
X13801276Y-21265070D01*
X13813245Y-21228542D01*
X13816035Y-21223644D01*
X13840773Y-21215573D01*
X13896055Y-21209013D01*
X13975456Y-21203967D01*
X14072549Y-21200441D01*
X14180907Y-21198439D01*
X14294105Y-21197964D01*
X14405717Y-21199023D01*
G37*
D13*
%TO.C,J2*%
X26090000Y-18840000D02*
G75*
G03*
X23550000Y-16300000I-2540000J0D01*
G01*
X5770000Y-16300000D02*
G75*
G03*
X3230000Y-18840000I0J-2540000D01*
G01*
X26090000Y-18840000D02*
X26130000Y-61920000D01*
X5770000Y-16300000D02*
X23550000Y-16300000D01*
X3230000Y-51870000D02*
X3230000Y-18840000D01*
%TD*%
M02*
