%TF.GenerationSoftware,KiCad,Pcbnew,7.0.1*%
%TF.CreationDate,2023-03-30T15:27:08-04:00*%
%TF.ProjectId,BREAD_Slice,42524541-445f-4536-9c69-63652e6b6963,rev?*%
%TF.SameCoordinates,PX74eba40PY8552dc0*%
%TF.FileFunction,Soldermask,Top*%
%TF.FilePolarity,Negative*%
%FSLAX46Y46*%
G04 Gerber Fmt 4.6, Leading zero omitted, Abs format (unit mm)*
G04 Created by KiCad (PCBNEW 7.0.1) date 2023-03-30 15:27:08*
%MOMM*%
%LPD*%
G01*
G04 APERTURE LIST*
G04 Aperture macros list*
%AMRoundRect*
0 Rectangle with rounded corners*
0 $1 Rounding radius*
0 $2 $3 $4 $5 $6 $7 $8 $9 X,Y pos of 4 corners*
0 Add a 4 corners polygon primitive as box body*
4,1,4,$2,$3,$4,$5,$6,$7,$8,$9,$2,$3,0*
0 Add four circle primitives for the rounded corners*
1,1,$1+$1,$2,$3*
1,1,$1+$1,$4,$5*
1,1,$1+$1,$6,$7*
1,1,$1+$1,$8,$9*
0 Add four rect primitives between the rounded corners*
20,1,$1+$1,$2,$3,$4,$5,0*
20,1,$1+$1,$4,$5,$6,$7,0*
20,1,$1+$1,$6,$7,$8,$9,0*
20,1,$1+$1,$8,$9,$2,$3,0*%
G04 Aperture macros list end*
%ADD10C,5.700000*%
%ADD11RoundRect,0.050000X-0.800000X-0.800000X0.800000X-0.800000X0.800000X0.800000X-0.800000X0.800000X0*%
%ADD12O,1.700000X1.700000*%
%ADD13RoundRect,0.050000X-0.850000X-0.850000X0.850000X-0.850000X0.850000X0.850000X-0.850000X0.850000X0*%
%ADD14O,1.800000X1.800000*%
%ADD15C,1.624000*%
%ADD16RoundRect,0.050000X0.850000X-0.850000X0.850000X0.850000X-0.850000X0.850000X-0.850000X-0.850000X0*%
G04 APERTURE END LIST*
D10*
%TO.C,H1*%
X5000000Y95000000D03*
%TD*%
%TO.C,H2*%
X65000000Y95000000D03*
%TD*%
%TO.C,H3*%
X5000000Y5000000D03*
%TD*%
%TO.C,H4*%
X65000000Y5000000D03*
%TD*%
D11*
%TO.C,A1*%
X12400000Y39800000D03*
D12*
X12400000Y37260000D03*
X12400000Y34720000D03*
X12400000Y32180000D03*
X12400000Y29640000D03*
X12400000Y27100000D03*
X12400000Y24560000D03*
X12400000Y22020000D03*
X12400000Y19480000D03*
X12400000Y16940000D03*
X12400000Y14400000D03*
X12400000Y11860000D03*
X12400000Y9320000D03*
X12400000Y6780000D03*
X12400000Y4240000D03*
X27640000Y4240000D03*
X27640000Y6780000D03*
X27640000Y9320000D03*
X27640000Y11860000D03*
X27640000Y14400000D03*
X27640000Y16940000D03*
X27640000Y19480000D03*
X27640000Y22020000D03*
X27640000Y24560000D03*
X27640000Y27100000D03*
X27640000Y29640000D03*
X27640000Y32180000D03*
X27640000Y34720000D03*
X27640000Y37260000D03*
X27640000Y39800000D03*
%TD*%
D13*
%TO.C,J1*%
X7000000Y61000000D03*
D14*
X7000000Y58460000D03*
X7000000Y55920000D03*
X7000000Y53380000D03*
X7000000Y50840000D03*
X7000000Y48300000D03*
X7000000Y45760000D03*
X7000000Y43220000D03*
X7000000Y40680000D03*
X7000000Y38140000D03*
%TD*%
D15*
%TO.C,U1*%
X30480000Y63500000D03*
X27940000Y63500000D03*
X25400000Y63500000D03*
X22860000Y63500000D03*
X20320000Y63500000D03*
X17780000Y63500000D03*
X30480000Y53340000D03*
X27940000Y53340000D03*
X25400000Y53340000D03*
X22860000Y53340000D03*
X20320000Y53340000D03*
X17780000Y53340000D03*
%TD*%
%TO.C,U2*%
X48260000Y73660000D03*
X48260000Y71120000D03*
X48260000Y68580000D03*
X48260000Y66040000D03*
X48260000Y63500000D03*
X48260000Y60960000D03*
X48260000Y58420000D03*
%TD*%
D16*
%TO.C,J2*%
X10160000Y81280000D03*
D14*
X10160000Y83820000D03*
X12700000Y81280000D03*
X12700000Y83820000D03*
X15240000Y81280000D03*
X15240000Y83820000D03*
X17780000Y81280000D03*
X17780000Y83820000D03*
X20320000Y81280000D03*
X20320000Y83820000D03*
X22860000Y81280000D03*
X22860000Y83820000D03*
X25400000Y81280000D03*
X25400000Y83820000D03*
X27940000Y81280000D03*
X27940000Y83820000D03*
X30480000Y81280000D03*
X30480000Y83820000D03*
X33020000Y81280000D03*
X33020000Y83820000D03*
X35560000Y81280000D03*
X35560000Y83820000D03*
X38100000Y81280000D03*
X38100000Y83820000D03*
X40640000Y81280000D03*
X40640000Y83820000D03*
X43180000Y81280000D03*
X43180000Y83820000D03*
X45720000Y81280000D03*
X45720000Y83820000D03*
X48260000Y81280000D03*
X48260000Y83820000D03*
X50800000Y81280000D03*
X50800000Y83820000D03*
X53340000Y81280000D03*
X53340000Y83820000D03*
X55880000Y81280000D03*
X55880000Y83820000D03*
X58420000Y81280000D03*
X58420000Y83820000D03*
%TD*%
M02*
