%TF.GenerationSoftware,KiCad,Pcbnew,7.0.1*%
%TF.CreationDate,2023-03-30T15:27:08-04:00*%
%TF.ProjectId,BREAD_Slice,42524541-445f-4536-9c69-63652e6b6963,rev?*%
%TF.SameCoordinates,PX74eba40PY8552dc0*%
%TF.FileFunction,Copper,L2,Bot*%
%TF.FilePolarity,Positive*%
%FSLAX46Y46*%
G04 Gerber Fmt 4.6, Leading zero omitted, Abs format (unit mm)*
G04 Created by KiCad (PCBNEW 7.0.1) date 2023-03-30 15:27:08*
%MOMM*%
%LPD*%
G01*
G04 APERTURE LIST*
%TA.AperFunction,ComponentPad*%
%ADD10C,5.600000*%
%TD*%
%TA.AperFunction,ComponentPad*%
%ADD11R,1.600000X1.600000*%
%TD*%
%TA.AperFunction,ComponentPad*%
%ADD12O,1.600000X1.600000*%
%TD*%
%TA.AperFunction,ComponentPad*%
%ADD13R,1.700000X1.700000*%
%TD*%
%TA.AperFunction,ComponentPad*%
%ADD14O,1.700000X1.700000*%
%TD*%
%TA.AperFunction,ComponentPad*%
%ADD15C,1.524000*%
%TD*%
%TA.AperFunction,SMDPad,CuDef*%
%ADD16R,2.770000X2.350000*%
%TD*%
%TA.AperFunction,ViaPad*%
%ADD17C,0.800000*%
%TD*%
%TA.AperFunction,ViaPad*%
%ADD18C,1.100000*%
%TD*%
%TA.AperFunction,Conductor*%
%ADD19C,0.508000*%
%TD*%
G04 APERTURE END LIST*
D10*
%TO.P,H1,1*%
%TO.N,N/C*%
X5000000Y95000000D03*
%TD*%
%TO.P,H2,1*%
%TO.N,N/C*%
X65000000Y95000000D03*
%TD*%
%TO.P,H3,1*%
%TO.N,N/C*%
X5000000Y5000000D03*
%TD*%
%TO.P,H4,1*%
%TO.N,N/C*%
X65000000Y5000000D03*
%TD*%
D11*
%TO.P,A1,1,D1/TX*%
%TO.N,unconnected-(A1-D1{slash}TX-Pad1)*%
X12400000Y39800000D03*
D12*
%TO.P,A1,2,D0/RX*%
%TO.N,unconnected-(A1-D0{slash}RX-Pad2)*%
X12400000Y37260000D03*
%TO.P,A1,3,~{RESET}*%
%TO.N,unconnected-(A1-~{RESET}-Pad3)*%
X12400000Y34720000D03*
%TO.P,A1,4,GND*%
%TO.N,GND*%
X12400000Y32180000D03*
%TO.P,A1,5,D2*%
%TO.N,/E_STOP*%
X12400000Y29640000D03*
%TO.P,A1,6,D3*%
%TO.N,/SYNC*%
X12400000Y27100000D03*
%TO.P,A1,7,D4*%
%TO.N,/INT*%
X12400000Y24560000D03*
%TO.P,A1,8,D5*%
%TO.N,unconnected-(A1-D5-Pad8)*%
X12400000Y22020000D03*
%TO.P,A1,9,D6*%
%TO.N,unconnected-(A1-D6-Pad9)*%
X12400000Y19480000D03*
%TO.P,A1,10,D7*%
%TO.N,unconnected-(A1-D7-Pad10)*%
X12400000Y16940000D03*
%TO.P,A1,11,D8*%
%TO.N,unconnected-(A1-D8-Pad11)*%
X12400000Y14400000D03*
%TO.P,A1,12,D9*%
%TO.N,unconnected-(A1-D9-Pad12)*%
X12400000Y11860000D03*
%TO.P,A1,13,D10*%
%TO.N,/SS_NANO*%
X12400000Y9320000D03*
%TO.P,A1,14,D11*%
%TO.N,/MOSI_NANO*%
X12400000Y6780000D03*
%TO.P,A1,15,D12*%
%TO.N,/MISO_NANO*%
X12400000Y4240000D03*
%TO.P,A1,16,D13*%
%TO.N,/SCLK_NANO*%
X27640000Y4240000D03*
%TO.P,A1,17,3V3*%
%TO.N,unconnected-(A1-3V3-Pad17)*%
X27640000Y6780000D03*
%TO.P,A1,18,AREF*%
%TO.N,unconnected-(A1-AREF-Pad18)*%
X27640000Y9320000D03*
%TO.P,A1,19,A0*%
%TO.N,unconnected-(A1-A0-Pad19)*%
X27640000Y11860000D03*
%TO.P,A1,20,A1*%
%TO.N,unconnected-(A1-A1-Pad20)*%
X27640000Y14400000D03*
%TO.P,A1,21,A2*%
%TO.N,unconnected-(A1-A2-Pad21)*%
X27640000Y16940000D03*
%TO.P,A1,22,A3*%
%TO.N,unconnected-(A1-A3-Pad22)*%
X27640000Y19480000D03*
%TO.P,A1,23,A4*%
%TO.N,/I2C_DAT*%
X27640000Y22020000D03*
%TO.P,A1,24,A5*%
%TO.N,/I2C_CLK*%
X27640000Y24560000D03*
%TO.P,A1,25,A6*%
%TO.N,unconnected-(A1-A6-Pad25)*%
X27640000Y27100000D03*
%TO.P,A1,26,A7*%
%TO.N,unconnected-(A1-A7-Pad26)*%
X27640000Y29640000D03*
%TO.P,A1,27,+5V*%
%TO.N,+5V*%
X27640000Y32180000D03*
%TO.P,A1,28,~{RESET}*%
%TO.N,unconnected-(A1-~{RESET}-Pad28)*%
X27640000Y34720000D03*
%TO.P,A1,29,GND*%
%TO.N,GND*%
X27640000Y37260000D03*
%TO.P,A1,30,VIN*%
%TO.N,+12V*%
X27640000Y39800000D03*
%TD*%
D13*
%TO.P,J1,1,Pin_1*%
%TO.N,GND*%
X7000000Y61000000D03*
D14*
%TO.P,J1,2,Pin_2*%
%TO.N,+12V*%
X7000000Y58460000D03*
%TO.P,J1,3,Pin_3*%
%TO.N,/I2C_CLK*%
X7000000Y55920000D03*
%TO.P,J1,4,Pin_4*%
%TO.N,/I2C_DAT*%
X7000000Y53380000D03*
%TO.P,J1,5,Pin_5*%
%TO.N,GND*%
X7000000Y50840000D03*
%TO.P,J1,6,Pin_6*%
%TO.N,/E_STOP*%
X7000000Y48300000D03*
%TO.P,J1,7,Pin_7*%
%TO.N,/SYNC*%
X7000000Y45760000D03*
%TO.P,J1,8,Pin_8*%
%TO.N,/INT*%
X7000000Y43220000D03*
%TO.P,J1,9,Pin_9*%
%TO.N,+12V*%
X7000000Y40680000D03*
%TO.P,J1,10,Pin_10*%
%TO.N,GND*%
X7000000Y38140000D03*
%TD*%
D15*
%TO.P,U1,1,LV*%
%TO.N,+3.3V*%
X30480000Y63500000D03*
%TO.P,U1,2,A1*%
%TO.N,/SS_PI*%
X27940000Y63500000D03*
%TO.P,U1,3,A2*%
%TO.N,/MISO_PI*%
X25400000Y63500000D03*
%TO.P,U1,4,A3*%
%TO.N,/MOSI_PI*%
X22860000Y63500000D03*
%TO.P,U1,5,A4*%
%TO.N,/SCLK_PI*%
X20320000Y63500000D03*
%TO.P,U1,6,GND*%
%TO.N,GND*%
X17780000Y63500000D03*
%TO.P,U1,7,HV*%
%TO.N,+5V*%
X30480000Y53340000D03*
%TO.P,U1,8,B1*%
%TO.N,/SS_NANO*%
X27940000Y53340000D03*
%TO.P,U1,9,B2*%
%TO.N,/MISO_NANO*%
X25400000Y53340000D03*
%TO.P,U1,10,B3*%
%TO.N,/MOSI_NANO*%
X22860000Y53340000D03*
%TO.P,U1,11,B4*%
%TO.N,/SCLK_NANO*%
X20320000Y53340000D03*
%TO.P,U1,12,GND*%
%TO.N,GND*%
X17780000Y53340000D03*
%TD*%
%TO.P,U2,1,LRC*%
%TO.N,/I2S_LRC*%
X48260000Y73660000D03*
%TO.P,U2,2,BCLK*%
%TO.N,/I2S_BCLK*%
X48260000Y71120000D03*
%TO.P,U2,3,DIN*%
%TO.N,/I2S_DIN*%
X48260000Y68580000D03*
%TO.P,U2,4,GAIN*%
%TO.N,unconnected-(U2-GAIN-Pad4)*%
X48260000Y66040000D03*
%TO.P,U2,5,SD*%
%TO.N,unconnected-(U2-SD-Pad5)*%
X48260000Y63500000D03*
%TO.P,U2,6,GND*%
%TO.N,GND*%
X48260000Y60960000D03*
%TO.P,U2,7,5V*%
%TO.N,+5V*%
X48260000Y58420000D03*
%TD*%
D13*
%TO.P,J2,1,3V3*%
%TO.N,+3.3V*%
X10160000Y81280000D03*
D14*
%TO.P,J2,2,5V*%
%TO.N,+5V*%
X10160000Y83820000D03*
%TO.P,J2,3,SDA/GPIO2*%
%TO.N,unconnected-(J2-SDA{slash}GPIO2-Pad3)*%
X12700000Y81280000D03*
%TO.P,J2,4,5V*%
%TO.N,unconnected-(J2-5V-Pad4)*%
X12700000Y83820000D03*
%TO.P,J2,5,SCL/GPIO3*%
%TO.N,unconnected-(J2-SCL{slash}GPIO3-Pad5)*%
X15240000Y81280000D03*
%TO.P,J2,6,GND*%
%TO.N,GND*%
X15240000Y83820000D03*
%TO.P,J2,7,GCLK0/GPIO4*%
%TO.N,unconnected-(J2-GCLK0{slash}GPIO4-Pad7)*%
X17780000Y81280000D03*
%TO.P,J2,8,GPIO14/TXD*%
%TO.N,unconnected-(J2-GPIO14{slash}TXD-Pad8)*%
X17780000Y83820000D03*
%TO.P,J2,9,GND*%
%TO.N,unconnected-(J2-GND-Pad9)*%
X20320000Y81280000D03*
%TO.P,J2,10,GPIO15/RXD*%
%TO.N,unconnected-(J2-GPIO15{slash}RXD-Pad10)*%
X20320000Y83820000D03*
%TO.P,J2,11,GPIO17*%
%TO.N,unconnected-(J2-GPIO17-Pad11)*%
X22860000Y81280000D03*
%TO.P,J2,12,GPIO18/PWM0*%
%TO.N,/I2S_BCLK*%
X22860000Y83820000D03*
%TO.P,J2,13,GPIO27*%
%TO.N,unconnected-(J2-GPIO27-Pad13)*%
X25400000Y81280000D03*
%TO.P,J2,14,GND*%
%TO.N,unconnected-(J2-GND-Pad14)*%
X25400000Y83820000D03*
%TO.P,J2,15,GPIO22*%
%TO.N,unconnected-(J2-GPIO22-Pad15)*%
X27940000Y81280000D03*
%TO.P,J2,16,GPIO23*%
%TO.N,unconnected-(J2-GPIO23-Pad16)*%
X27940000Y83820000D03*
%TO.P,J2,17,3V3*%
%TO.N,unconnected-(J2-3V3-Pad17)*%
X30480000Y81280000D03*
%TO.P,J2,18,GPIO24*%
%TO.N,unconnected-(J2-GPIO24-Pad18)*%
X30480000Y83820000D03*
%TO.P,J2,19,MOSI0/GPIO10*%
%TO.N,/MOSI_PI*%
X33020000Y81280000D03*
%TO.P,J2,20,GND*%
%TO.N,unconnected-(J2-GND-Pad20)*%
X33020000Y83820000D03*
%TO.P,J2,21,MISO0/GPIO9*%
%TO.N,/MISO_PI*%
X35560000Y81280000D03*
%TO.P,J2,22,GPIO25*%
%TO.N,unconnected-(J2-GPIO25-Pad22)*%
X35560000Y83820000D03*
%TO.P,J2,23,SCLK0/GPIO11*%
%TO.N,/SCLK_PI*%
X38100000Y81280000D03*
%TO.P,J2,24,~{CE0}/GPIO8*%
%TO.N,/SS_PI*%
X38100000Y83820000D03*
%TO.P,J2,25,GND*%
%TO.N,unconnected-(J2-GND-Pad25)*%
X40640000Y81280000D03*
%TO.P,J2,26,~{CE1}/GPIO7*%
%TO.N,unconnected-(J2-~{CE1}{slash}GPIO7-Pad26)*%
X40640000Y83820000D03*
%TO.P,J2,27,ID_SD/GPIO0*%
%TO.N,unconnected-(J2-ID_SD{slash}GPIO0-Pad27)*%
X43180000Y81280000D03*
%TO.P,J2,28,ID_SC/GPIO1*%
%TO.N,unconnected-(J2-ID_SC{slash}GPIO1-Pad28)*%
X43180000Y83820000D03*
%TO.P,J2,29,GCLK1/GPIO5*%
%TO.N,unconnected-(J2-GCLK1{slash}GPIO5-Pad29)*%
X45720000Y81280000D03*
%TO.P,J2,30,GND*%
%TO.N,unconnected-(J2-GND-Pad30)*%
X45720000Y83820000D03*
%TO.P,J2,31,GCLK2/GPIO6*%
%TO.N,unconnected-(J2-GCLK2{slash}GPIO6-Pad31)*%
X48260000Y81280000D03*
%TO.P,J2,32,PWM0/GPIO12*%
%TO.N,unconnected-(J2-PWM0{slash}GPIO12-Pad32)*%
X48260000Y83820000D03*
%TO.P,J2,33,PWM1/GPIO13*%
%TO.N,unconnected-(J2-PWM1{slash}GPIO13-Pad33)*%
X50800000Y81280000D03*
%TO.P,J2,34,GND*%
%TO.N,unconnected-(J2-GND-Pad34)*%
X50800000Y83820000D03*
%TO.P,J2,35,GPIO19/MISO1*%
%TO.N,/I2S_LRC*%
X53340000Y81280000D03*
%TO.P,J2,36,GPIO16*%
%TO.N,unconnected-(J2-GPIO16-Pad36)*%
X53340000Y83820000D03*
%TO.P,J2,37,GPIO26*%
%TO.N,unconnected-(J2-GPIO26-Pad37)*%
X55880000Y81280000D03*
%TO.P,J2,38,GPIO20/MOSI1*%
%TO.N,unconnected-(J2-GPIO20{slash}MOSI1-Pad38)*%
X55880000Y83820000D03*
%TO.P,J2,39,GND*%
%TO.N,unconnected-(J2-GND-Pad39)*%
X58420000Y81280000D03*
%TO.P,J2,40,GPIO21/SCLK1*%
%TO.N,/I2S_DIN*%
X58420000Y83820000D03*
%TD*%
D16*
%TO.P,C2,1*%
%TO.N,+5V*%
X32430000Y32000000D03*
%TO.P,C2,2*%
%TO.N,GND*%
X37570000Y32000000D03*
%TD*%
%TO.P,C1,1*%
%TO.N,+12V*%
X32430000Y40800000D03*
%TO.P,C1,2*%
%TO.N,GND*%
X37570000Y40800000D03*
%TD*%
D17*
%TO.N,GND*%
X25400000Y55880000D03*
X37570000Y50270000D03*
%TO.N,+5V*%
X43180000Y53340000D03*
X38100000Y53340000D03*
%TO.N,/SYNC*%
X10160000Y30480000D03*
X10160000Y45720000D03*
%TO.N,/E_STOP*%
X12700000Y45720000D03*
X15240000Y40640000D03*
%TO.N,/SS_NANO*%
X25400000Y12700000D03*
X27940000Y43180000D03*
%TO.N,/MOSI_NANO*%
X22860000Y48260000D03*
X20320000Y7620000D03*
%TO.N,/MISO_NANO*%
X25400000Y45720000D03*
X22860000Y7620000D03*
%TO.N,/SCLK_NANO*%
X17780000Y10160000D03*
X20320000Y50800000D03*
%TO.N,+12V*%
X5080000Y48260000D03*
X5080000Y53340000D03*
D18*
%TO.N,/SS_PI*%
X63500000Y78740000D03*
D17*
X35560000Y71120000D03*
%TD*%
D19*
%TO.N,+3.3V*%
X29264000Y62284000D02*
X22356316Y62284000D01*
X22356316Y62284000D02*
X21644000Y62996316D01*
X21644000Y69796000D02*
X10160000Y81280000D01*
X21644000Y62996316D02*
X21644000Y69796000D01*
X30480000Y63500000D02*
X29264000Y62284000D01*
%TO.N,GND*%
X5080000Y86360000D02*
X7620000Y88900000D01*
X7000000Y33640000D02*
X8460000Y32180000D01*
X5040000Y38140000D02*
X7000000Y38140000D01*
X5040000Y50840000D02*
X2540000Y48340000D01*
X2540000Y56540000D02*
X2540000Y53340000D01*
X12700000Y88900000D02*
X15240000Y86360000D01*
X17780000Y53340000D02*
X20320000Y55880000D01*
X17780000Y63500000D02*
X7620000Y63500000D01*
X7000000Y38140000D02*
X7000000Y33640000D01*
X7620000Y63500000D02*
X5080000Y66040000D01*
X34030000Y37260000D02*
X37570000Y40800000D01*
X17780000Y63500000D02*
X17780000Y53340000D01*
X7000000Y61000000D02*
X2540000Y56540000D01*
X2540000Y40640000D02*
X5040000Y38140000D01*
X20320000Y55880000D02*
X25400000Y55880000D01*
X2540000Y53340000D02*
X5040000Y50840000D01*
X37570000Y50270000D02*
X37570000Y40800000D01*
X15280000Y61000000D02*
X17780000Y63500000D01*
X15240000Y86360000D02*
X15240000Y83820000D01*
X5080000Y66040000D02*
X5080000Y86360000D01*
X27640000Y37260000D02*
X34030000Y37260000D01*
X37570000Y33720000D02*
X34030000Y37260000D01*
X37570000Y32000000D02*
X37570000Y33720000D01*
X8460000Y32180000D02*
X12400000Y32180000D01*
X48260000Y60960000D02*
X37570000Y50270000D01*
X5040000Y50840000D02*
X7000000Y50840000D01*
X7000000Y61000000D02*
X15280000Y61000000D01*
X2540000Y48340000D02*
X2540000Y40640000D01*
X7620000Y88900000D02*
X12700000Y88900000D01*
%TO.N,+5V*%
X19104000Y64716000D02*
X17780000Y66040000D01*
X7620000Y83820000D02*
X7620000Y68580000D01*
X48260000Y58420000D02*
X43180000Y53340000D01*
X43180000Y30480000D02*
X43180000Y53340000D01*
X7620000Y68580000D02*
X10160000Y66040000D01*
X32430000Y31070000D02*
X35560000Y27940000D01*
X30480000Y53340000D02*
X25400000Y58420000D01*
X27820000Y32000000D02*
X27640000Y32180000D01*
X30480000Y53340000D02*
X38100000Y53340000D01*
X35560000Y27940000D02*
X40640000Y27940000D01*
X25400000Y58420000D02*
X20320000Y58420000D01*
X40640000Y27940000D02*
X43180000Y30480000D01*
X32430000Y32000000D02*
X32430000Y31070000D01*
X32430000Y32000000D02*
X27820000Y32000000D01*
X17780000Y66040000D02*
X10160000Y66040000D01*
X10160000Y83820000D02*
X7620000Y83820000D01*
X19104000Y59636000D02*
X19104000Y64716000D01*
X20320000Y58420000D02*
X19104000Y59636000D01*
%TO.N,/I2C_CLK*%
X25400000Y37520000D02*
X7000000Y55920000D01*
X25400000Y26800000D02*
X25400000Y37520000D01*
X27640000Y24560000D02*
X25400000Y26800000D01*
%TO.N,/I2C_DAT*%
X22860000Y37520000D02*
X7000000Y53380000D01*
X27640000Y22020000D02*
X22860000Y26800000D01*
X22860000Y26800000D02*
X22860000Y37520000D01*
%TO.N,/SYNC*%
X7040000Y45720000D02*
X7620000Y45720000D01*
X11000000Y27100000D02*
X10160000Y27940000D01*
X7000000Y45760000D02*
X7040000Y45720000D01*
X10120000Y45760000D02*
X10160000Y45720000D01*
X7000000Y45760000D02*
X10120000Y45760000D01*
X10160000Y27940000D02*
X10160000Y30480000D01*
X12400000Y27100000D02*
X11000000Y27100000D01*
%TO.N,/E_STOP*%
X7000000Y48300000D02*
X10120000Y48300000D01*
X17780000Y38100000D02*
X15240000Y40640000D01*
X12400000Y29640000D02*
X16940000Y29640000D01*
X17780000Y30480000D02*
X17780000Y38100000D01*
X10120000Y48300000D02*
X12700000Y45720000D01*
X16940000Y29640000D02*
X17780000Y30480000D01*
%TO.N,/SS_NANO*%
X27940000Y53340000D02*
X27940000Y43180000D01*
X14400000Y9320000D02*
X17780000Y12700000D01*
X17780000Y12700000D02*
X25400000Y12700000D01*
X12400000Y9320000D02*
X14400000Y9320000D01*
%TO.N,/MOSI_NANO*%
X12400000Y6780000D02*
X19480000Y6780000D01*
X19480000Y6780000D02*
X20320000Y7620000D01*
X22860000Y53340000D02*
X22860000Y48260000D01*
%TO.N,/MISO_NANO*%
X25400000Y53340000D02*
X25400000Y45720000D01*
X19480000Y4240000D02*
X22860000Y7620000D01*
X12400000Y4240000D02*
X19480000Y4240000D01*
%TO.N,/SCLK_NANO*%
X25400000Y7620000D02*
X22860000Y10160000D01*
X22860000Y10160000D02*
X17780000Y10160000D01*
X27640000Y4240000D02*
X25400000Y6480000D01*
X20320000Y53340000D02*
X20320000Y50800000D01*
X25400000Y6480000D02*
X25400000Y7620000D01*
%TO.N,+12V*%
X27640000Y39800000D02*
X25660000Y39800000D01*
X25660000Y39800000D02*
X7000000Y58460000D01*
X28640000Y40800000D02*
X27640000Y39800000D01*
X32430000Y40800000D02*
X28640000Y40800000D01*
X5080000Y42600000D02*
X5080000Y48260000D01*
X5080000Y56540000D02*
X5080000Y55880000D01*
X7000000Y58460000D02*
X5080000Y56540000D01*
X5080000Y55880000D02*
X5080000Y53340000D01*
X7000000Y40680000D02*
X5080000Y42600000D01*
%TO.N,/INT*%
X12400000Y24560000D02*
X19480000Y24560000D01*
X19480000Y24560000D02*
X20320000Y25400000D01*
X20320000Y38100000D02*
X15200000Y43220000D01*
X15200000Y43220000D02*
X7000000Y43220000D01*
X20320000Y25400000D02*
X20320000Y38100000D01*
%TO.N,/I2S_LRC*%
X48260000Y73660000D02*
X48260000Y76200000D01*
X48260000Y76200000D02*
X53340000Y81280000D01*
%TO.N,/I2S_BCLK*%
X27940000Y88900000D02*
X60960000Y88900000D01*
X47044000Y69904000D02*
X47044000Y68076316D01*
X47044000Y68076316D02*
X47756316Y67364000D01*
X66040000Y83820000D02*
X66040000Y76200000D01*
X60960000Y88900000D02*
X66040000Y83820000D01*
X47756316Y67364000D02*
X57204000Y67364000D01*
X48260000Y71120000D02*
X47044000Y69904000D01*
X57204000Y67364000D02*
X66040000Y76200000D01*
X22860000Y83820000D02*
X27940000Y88900000D01*
%TO.N,/I2S_DIN*%
X60960000Y81280000D02*
X58420000Y83820000D01*
X48260000Y68580000D02*
X53340000Y68580000D01*
X53340000Y68580000D02*
X60960000Y76200000D01*
X60960000Y76200000D02*
X60960000Y81280000D01*
%TO.N,/MOSI_PI*%
X33020000Y73660000D02*
X22860000Y63500000D01*
X33020000Y81280000D02*
X33020000Y73660000D01*
%TO.N,/MISO_PI*%
X35560000Y73660000D02*
X35560000Y81280000D01*
X25400000Y63500000D02*
X35560000Y73660000D01*
%TO.N,/SCLK_PI*%
X20320000Y63500000D02*
X20320000Y60960000D01*
X38100000Y81280000D02*
X38100000Y73660000D01*
X35560000Y60960000D02*
X38100000Y63500000D01*
X38100000Y63500000D02*
X38100000Y73660000D01*
X20320000Y60960000D02*
X35560000Y60960000D01*
%TO.N,/SS_PI*%
X63500000Y83820000D02*
X63500000Y78740000D01*
X60960000Y86360000D02*
X63500000Y83820000D01*
X40640000Y86360000D02*
X60960000Y86360000D01*
X27940000Y63500000D02*
X35560000Y71120000D01*
X38100000Y83820000D02*
X40640000Y86360000D01*
%TD*%
M02*
