M48
; DRILL file {KiCad 7.0.1} date Thu Mar 30 15:27:11 2023
; FORMAT={-:-/ absolute / inch / decimal}
; #@! TF.CreationDate,2023-03-30T15:27:11-04:00
; #@! TF.GenerationSoftware,Kicad,Pcbnew,7.0.1
; #@! TF.FileFunction,Plated,1,2,PTH
FMAT,2
INCH
; #@! TA.AperFunction,Plated,PTH,ViaDrill
T1C0.0157
; #@! TA.AperFunction,Plated,PTH,ViaDrill
T2C0.0253
; #@! TA.AperFunction,Plated,PTH,ComponentDrill
T3C0.0300
; #@! TA.AperFunction,Plated,PTH,ComponentDrill
T4C0.0394
; #@! TA.AperFunction,Plated,PTH,ComponentDrill
T5C0.1260
%
G90
G05
T1
X0.2Y2.1
X0.2Y1.9
X0.4Y1.8
X0.4Y1.2
X0.5Y1.8
X0.6Y1.6
X0.7Y0.4
X0.8Y2.0
X0.8Y0.3
X0.9Y1.9
X0.9Y0.3
X1.0Y2.2
X1.0Y1.8
X1.0Y0.5
X1.1Y1.7
X1.4Y2.8
X1.4791Y1.9791
X1.5Y2.1
X1.7Y2.1
T2
X2.5Y3.1
T3
X0.7Y2.5
X0.7Y2.1
X0.8Y2.5
X0.8Y2.1
X0.9Y2.5
X0.9Y2.1
X1.0Y2.5
X1.0Y2.1
X1.1Y2.5
X1.1Y2.1
X1.2Y2.5
X1.2Y2.1
X1.9Y2.9
X1.9Y2.8
X1.9Y2.7
X1.9Y2.6
X1.9Y2.5
X1.9Y2.4
X1.9Y2.3
T4
X0.2756Y2.4016
X0.2756Y2.3016
X0.2756Y2.2016
X0.2756Y2.1016
X0.2756Y2.0016
X0.2756Y1.9016
X0.2756Y1.8016
X0.2756Y1.7016
X0.2756Y1.6016
X0.2756Y1.5016
X0.4Y3.3
X0.4Y3.2
X0.4882Y1.5669
X0.4882Y1.4669
X0.4882Y1.3669
X0.4882Y1.2669
X0.4882Y1.1669
X0.4882Y1.0669
X0.4882Y0.9669
X0.4882Y0.8669
X0.4882Y0.7669
X0.4882Y0.6669
X0.4882Y0.5669
X0.4882Y0.4669
X0.4882Y0.3669
X0.4882Y0.2669
X0.4882Y0.1669
X0.5Y3.3
X0.5Y3.2
X0.6Y3.3
X0.6Y3.2
X0.7Y3.3
X0.7Y3.2
X0.8Y3.3
X0.8Y3.2
X0.9Y3.3
X0.9Y3.2
X1.0Y3.3
X1.0Y3.2
X1.0882Y1.5669
X1.0882Y1.4669
X1.0882Y1.3669
X1.0882Y1.2669
X1.0882Y1.1669
X1.0882Y1.0669
X1.0882Y0.9669
X1.0882Y0.8669
X1.0882Y0.7669
X1.0882Y0.6669
X1.0882Y0.5669
X1.0882Y0.4669
X1.0882Y0.3669
X1.0882Y0.2669
X1.0882Y0.1669
X1.1Y3.3
X1.1Y3.2
X1.2Y3.3
X1.2Y3.2
X1.3Y3.3
X1.3Y3.2
X1.4Y3.3
X1.4Y3.2
X1.5Y3.3
X1.5Y3.2
X1.6Y3.3
X1.6Y3.2
X1.7Y3.3
X1.7Y3.2
X1.8Y3.3
X1.8Y3.2
X1.9Y3.3
X1.9Y3.2
X2.0Y3.3
X2.0Y3.2
X2.1Y3.3
X2.1Y3.2
X2.2Y3.3
X2.2Y3.2
X2.3Y3.3
X2.3Y3.2
T5
X0.1969Y3.7402
X0.1969Y0.1969
X2.5591Y3.7402
X2.5591Y0.1969
T0
M30
