%TF.GenerationSoftware,KiCad,Pcbnew,7.0.1*%
%TF.CreationDate,2023-03-30T15:27:08-04:00*%
%TF.ProjectId,BREAD_Slice,42524541-445f-4536-9c69-63652e6b6963,rev?*%
%TF.SameCoordinates,PX74eba40PY8552dc0*%
%TF.FileFunction,Legend,Bot*%
%TF.FilePolarity,Positive*%
%FSLAX46Y46*%
G04 Gerber Fmt 4.6, Leading zero omitted, Abs format (unit mm)*
G04 Created by KiCad (PCBNEW 7.0.1) date 2023-03-30 15:27:08*
%MOMM*%
%LPD*%
G01*
G04 APERTURE LIST*
%ADD10C,0.150000*%
G04 APERTURE END LIST*
D10*
%TO.C,C2*%
X40166666Y31632620D02*
X40214285Y31585000D01*
X40214285Y31585000D02*
X40357142Y31537381D01*
X40357142Y31537381D02*
X40452380Y31537381D01*
X40452380Y31537381D02*
X40595237Y31585000D01*
X40595237Y31585000D02*
X40690475Y31680239D01*
X40690475Y31680239D02*
X40738094Y31775477D01*
X40738094Y31775477D02*
X40785713Y31965953D01*
X40785713Y31965953D02*
X40785713Y32108810D01*
X40785713Y32108810D02*
X40738094Y32299286D01*
X40738094Y32299286D02*
X40690475Y32394524D01*
X40690475Y32394524D02*
X40595237Y32489762D01*
X40595237Y32489762D02*
X40452380Y32537381D01*
X40452380Y32537381D02*
X40357142Y32537381D01*
X40357142Y32537381D02*
X40214285Y32489762D01*
X40214285Y32489762D02*
X40166666Y32442143D01*
X39785713Y32442143D02*
X39738094Y32489762D01*
X39738094Y32489762D02*
X39642856Y32537381D01*
X39642856Y32537381D02*
X39404761Y32537381D01*
X39404761Y32537381D02*
X39309523Y32489762D01*
X39309523Y32489762D02*
X39261904Y32442143D01*
X39261904Y32442143D02*
X39214285Y32346905D01*
X39214285Y32346905D02*
X39214285Y32251667D01*
X39214285Y32251667D02*
X39261904Y32108810D01*
X39261904Y32108810D02*
X39833332Y31537381D01*
X39833332Y31537381D02*
X39214285Y31537381D01*
%TO.C,C1*%
X40166666Y40432620D02*
X40214285Y40385000D01*
X40214285Y40385000D02*
X40357142Y40337381D01*
X40357142Y40337381D02*
X40452380Y40337381D01*
X40452380Y40337381D02*
X40595237Y40385000D01*
X40595237Y40385000D02*
X40690475Y40480239D01*
X40690475Y40480239D02*
X40738094Y40575477D01*
X40738094Y40575477D02*
X40785713Y40765953D01*
X40785713Y40765953D02*
X40785713Y40908810D01*
X40785713Y40908810D02*
X40738094Y41099286D01*
X40738094Y41099286D02*
X40690475Y41194524D01*
X40690475Y41194524D02*
X40595237Y41289762D01*
X40595237Y41289762D02*
X40452380Y41337381D01*
X40452380Y41337381D02*
X40357142Y41337381D01*
X40357142Y41337381D02*
X40214285Y41289762D01*
X40214285Y41289762D02*
X40166666Y41242143D01*
X39214285Y40337381D02*
X39785713Y40337381D01*
X39499999Y40337381D02*
X39499999Y41337381D01*
X39499999Y41337381D02*
X39595237Y41194524D01*
X39595237Y41194524D02*
X39690475Y41099286D01*
X39690475Y41099286D02*
X39785713Y41051667D01*
%TO.C,C2*%
X35970000Y33070000D02*
X33960000Y33070000D01*
X36000000Y30930000D02*
X33990000Y30930000D01*
%TO.C,C1*%
X35970000Y41870000D02*
X33960000Y41870000D01*
X36000000Y39730000D02*
X33990000Y39730000D01*
%TD*%
M02*
