%TF.GenerationSoftware,KiCad,Pcbnew,(6.0.4)*%
%TF.CreationDate,2023-03-07T14:55:24-05:00*%
%TF.ProjectId,Pyrolysis,5079726f-6c79-4736-9973-2e6b69636164,rev?*%
%TF.SameCoordinates,Original*%
%TF.FileFunction,Soldermask,Bot*%
%TF.FilePolarity,Negative*%
%FSLAX46Y46*%
G04 Gerber Fmt 4.6, Leading zero omitted, Abs format (unit mm)*
G04 Created by KiCad (PCBNEW (6.0.4)) date 2023-03-07 14:55:24*
%MOMM*%
%LPD*%
G01*
G04 APERTURE LIST*
G04 Aperture macros list*
%AMRoundRect*
0 Rectangle with rounded corners*
0 $1 Rounding radius*
0 $2 $3 $4 $5 $6 $7 $8 $9 X,Y pos of 4 corners*
0 Add a 4 corners polygon primitive as box body*
4,1,4,$2,$3,$4,$5,$6,$7,$8,$9,$2,$3,0*
0 Add four circle primitives for the rounded corners*
1,1,$1+$1,$2,$3*
1,1,$1+$1,$4,$5*
1,1,$1+$1,$6,$7*
1,1,$1+$1,$8,$9*
0 Add four rect primitives between the rounded corners*
20,1,$1+$1,$2,$3,$4,$5,0*
20,1,$1+$1,$4,$5,$6,$7,0*
20,1,$1+$1,$6,$7,$8,$9,0*
20,1,$1+$1,$8,$9,$2,$3,0*%
G04 Aperture macros list end*
%ADD10R,2.600000X2.600000*%
%ADD11C,2.600000*%
%ADD12C,3.500000*%
%ADD13C,5.600000*%
%ADD14R,1.600000X1.600000*%
%ADD15O,1.600000X1.600000*%
%ADD16R,1.700000X1.700000*%
%ADD17O,1.700000X1.700000*%
%ADD18R,2.300000X2.300000*%
%ADD19C,2.300000*%
%ADD20R,2.100000X2.100000*%
%ADD21C,2.100000*%
%ADD22R,1.800000X1.800000*%
%ADD23O,1.800000X1.800000*%
%ADD24R,0.599440X2.199640*%
%ADD25RoundRect,0.250000X-0.412500X-0.650000X0.412500X-0.650000X0.412500X0.650000X-0.412500X0.650000X0*%
%ADD26RoundRect,0.250000X-0.625000X0.400000X-0.625000X-0.400000X0.625000X-0.400000X0.625000X0.400000X0*%
%ADD27RoundRect,0.150000X0.150000X-0.662500X0.150000X0.662500X-0.150000X0.662500X-0.150000X-0.662500X0*%
%ADD28RoundRect,0.250000X-0.650000X0.412500X-0.650000X-0.412500X0.650000X-0.412500X0.650000X0.412500X0*%
%ADD29R,1.500000X2.000000*%
%ADD30R,3.800000X2.000000*%
%ADD31RoundRect,0.250000X0.650000X-0.412500X0.650000X0.412500X-0.650000X0.412500X-0.650000X-0.412500X0*%
%ADD32RoundRect,0.250000X0.412500X0.650000X-0.412500X0.650000X-0.412500X-0.650000X0.412500X-0.650000X0*%
G04 APERTURE END LIST*
D10*
%TO.C,J29*%
X364200000Y-277727500D03*
D11*
X359200000Y-277727500D03*
%TD*%
D12*
%TO.C,F7*%
X361700000Y-196405000D03*
X356620000Y-196405000D03*
X352560000Y-196405000D03*
X347480000Y-196405000D03*
%TD*%
D13*
%TO.C,*%
X445500000Y-212500000D03*
%TD*%
%TO.C,*%
X368000000Y-212500000D03*
%TD*%
D10*
%TO.C,J47*%
X424700000Y-183710000D03*
D11*
X429700000Y-183710000D03*
%TD*%
D10*
%TO.C,J28*%
X305700000Y-183805000D03*
D11*
X310700000Y-183805000D03*
%TD*%
D14*
%TO.C,A5*%
X403500000Y-244000000D03*
D15*
X403500000Y-246540000D03*
X403500000Y-249080000D03*
X403500000Y-251620000D03*
X403500000Y-254160000D03*
X403500000Y-256700000D03*
X403500000Y-259240000D03*
X403500000Y-261780000D03*
X403500000Y-264320000D03*
X403500000Y-266860000D03*
X403500000Y-269400000D03*
X403500000Y-271940000D03*
X403500000Y-274480000D03*
X403500000Y-277020000D03*
X403500000Y-279560000D03*
X418740000Y-279560000D03*
X418740000Y-277020000D03*
X418740000Y-274480000D03*
X418740000Y-271940000D03*
X418740000Y-269400000D03*
X418740000Y-266860000D03*
X418740000Y-264320000D03*
X418740000Y-261780000D03*
X418740000Y-259240000D03*
X418740000Y-256700000D03*
X418740000Y-254160000D03*
X418740000Y-251620000D03*
X418740000Y-249080000D03*
X418740000Y-246540000D03*
X418740000Y-244000000D03*
%TD*%
D10*
%TO.C,J26*%
X500500000Y-228500000D03*
D11*
X506500000Y-228500000D03*
X503500000Y-223800000D03*
%TD*%
D10*
%TO.C,J33*%
X331700000Y-183805000D03*
D11*
X336700000Y-183805000D03*
%TD*%
D10*
%TO.C,J4*%
X450700000Y-183710000D03*
D11*
X455700000Y-183710000D03*
%TD*%
D14*
%TO.C,D8*%
X377390000Y-225405000D03*
D15*
X385010000Y-225405000D03*
%TD*%
D13*
%TO.C,H4*%
X507000000Y-181000000D03*
%TD*%
D10*
%TO.C,J41*%
X379200000Y-277727500D03*
D11*
X374200000Y-277727500D03*
%TD*%
D10*
%TO.C,J7*%
X461700000Y-183710000D03*
D11*
X466700000Y-183710000D03*
%TD*%
D14*
%TO.C,A3*%
X485090000Y-244105000D03*
D15*
X485090000Y-246645000D03*
X485090000Y-249185000D03*
X485090000Y-251725000D03*
X485090000Y-254265000D03*
X485090000Y-256805000D03*
X485090000Y-259345000D03*
X485090000Y-261885000D03*
X485090000Y-264425000D03*
X485090000Y-266965000D03*
X485090000Y-269505000D03*
X485090000Y-272045000D03*
X485090000Y-274585000D03*
X485090000Y-277125000D03*
X485090000Y-279665000D03*
X500330000Y-279665000D03*
X500330000Y-277125000D03*
X500330000Y-274585000D03*
X500330000Y-272045000D03*
X500330000Y-269505000D03*
X500330000Y-266965000D03*
X500330000Y-264425000D03*
X500330000Y-261885000D03*
X500330000Y-259345000D03*
X500330000Y-256805000D03*
X500330000Y-254265000D03*
X500330000Y-251725000D03*
X500330000Y-249185000D03*
X500330000Y-246645000D03*
X500330000Y-244105000D03*
%TD*%
D10*
%TO.C,J34*%
X322468315Y-277766676D03*
D11*
X317468315Y-277766676D03*
%TD*%
D16*
%TO.C,J8*%
X489240000Y-183660000D03*
D17*
X486700000Y-183660000D03*
X484160000Y-183660000D03*
%TD*%
D14*
%TO.C,D4*%
X272890000Y-225500000D03*
D15*
X280510000Y-225500000D03*
%TD*%
D10*
%TO.C,J6*%
X227700000Y-183805000D03*
D11*
X232700000Y-183805000D03*
%TD*%
D13*
%TO.C,*%
X445500000Y-247500000D03*
%TD*%
%TO.C,H3*%
X237000000Y-247500000D03*
%TD*%
D10*
%TO.C,J45*%
X394200000Y-277727500D03*
D11*
X389200000Y-277727500D03*
%TD*%
D18*
%TO.C,K9*%
X411000000Y-221280000D03*
D19*
X411000000Y-211120000D03*
X411000000Y-203500000D03*
X403380000Y-206040000D03*
X403380000Y-221280000D03*
%TD*%
D16*
%TO.C,J13*%
X504500000Y-210525000D03*
D17*
X504500000Y-207985000D03*
X504500000Y-205445000D03*
%TD*%
D14*
%TO.C,A4*%
X334108315Y-244105000D03*
D15*
X334108315Y-246645000D03*
X334108315Y-249185000D03*
X334108315Y-251725000D03*
X334108315Y-254265000D03*
X334108315Y-256805000D03*
X334108315Y-259345000D03*
X334108315Y-261885000D03*
X334108315Y-264425000D03*
X334108315Y-266965000D03*
X334108315Y-269505000D03*
X334108315Y-272045000D03*
X334108315Y-274585000D03*
X334108315Y-277125000D03*
X334108315Y-279665000D03*
X349348315Y-279665000D03*
X349348315Y-277125000D03*
X349348315Y-274585000D03*
X349348315Y-272045000D03*
X349348315Y-269505000D03*
X349348315Y-266965000D03*
X349348315Y-264425000D03*
X349348315Y-261885000D03*
X349348315Y-259345000D03*
X349348315Y-256805000D03*
X349348315Y-254265000D03*
X349348315Y-251725000D03*
X349348315Y-249185000D03*
X349348315Y-246645000D03*
X349348315Y-244105000D03*
%TD*%
D10*
%TO.C,J48*%
X435700000Y-183710000D03*
D11*
X440700000Y-183710000D03*
%TD*%
D20*
%TO.C,J10*%
X504500000Y-191185000D03*
D21*
X504500000Y-193725000D03*
X504500000Y-196265000D03*
X504500000Y-198805000D03*
%TD*%
D18*
%TO.C,K2*%
X462825000Y-221280000D03*
D19*
X462825000Y-211120000D03*
X462825000Y-203500000D03*
X455205000Y-206040000D03*
X455205000Y-221280000D03*
%TD*%
D14*
%TO.C,D9*%
X403390000Y-225405000D03*
D15*
X411010000Y-225405000D03*
%TD*%
D12*
%TO.C,F6*%
X335200000Y-196500000D03*
X330120000Y-196500000D03*
X320980000Y-196500000D03*
X326060000Y-196500000D03*
%TD*%
D10*
%TO.C,J37*%
X357700000Y-183710000D03*
D11*
X362700000Y-183710000D03*
%TD*%
D14*
%TO.C,D10*%
X429140000Y-225405000D03*
D15*
X436760000Y-225405000D03*
%TD*%
D10*
%TO.C,J17*%
X250500000Y-277572500D03*
D11*
X245500000Y-277572500D03*
%TD*%
D13*
%TO.C,*%
X314500000Y-212500000D03*
%TD*%
D22*
%TO.C,U24*%
X477270000Y-201915000D03*
D23*
X478970000Y-196835000D03*
X480670000Y-201915000D03*
X482370000Y-196835000D03*
X484070000Y-201915000D03*
X485770000Y-196835000D03*
X487470000Y-201915000D03*
X489170000Y-196835000D03*
X490870000Y-201915000D03*
X492570000Y-196835000D03*
X494270000Y-201915000D03*
%TD*%
D10*
%TO.C,J22*%
X279700000Y-183805000D03*
D11*
X284700000Y-183805000D03*
%TD*%
D13*
%TO.C,*%
X507000000Y-280500000D03*
%TD*%
D10*
%TO.C,J39*%
X372700000Y-183710000D03*
D11*
X377700000Y-183710000D03*
%TD*%
D10*
%TO.C,J1*%
X222000000Y-277572500D03*
D11*
X217000000Y-277572500D03*
%TD*%
D14*
%TO.C,D6*%
X324890000Y-225500000D03*
D15*
X332510000Y-225500000D03*
%TD*%
D14*
%TO.C,D2*%
X455190000Y-225405000D03*
D15*
X462810000Y-225405000D03*
%TD*%
D18*
%TO.C,K1*%
X228750000Y-221375000D03*
D19*
X228750000Y-211215000D03*
X228750000Y-203595000D03*
X221130000Y-206135000D03*
X221130000Y-221375000D03*
%TD*%
D10*
%TO.C,J44*%
X409700000Y-183710000D03*
D11*
X414700000Y-183710000D03*
%TD*%
D18*
%TO.C,K3*%
X254500000Y-221375000D03*
D19*
X254500000Y-211215000D03*
X254500000Y-203595000D03*
X246880000Y-206135000D03*
X246880000Y-221375000D03*
%TD*%
D10*
%TO.C,J27*%
X294700000Y-183805000D03*
D11*
X299700000Y-183805000D03*
%TD*%
D10*
%TO.C,J9*%
X236000000Y-277572500D03*
D11*
X231000000Y-277572500D03*
%TD*%
D18*
%TO.C,K4*%
X280500000Y-221375000D03*
D19*
X280500000Y-211215000D03*
X280500000Y-203595000D03*
X272880000Y-206135000D03*
X272880000Y-221375000D03*
%TD*%
D13*
%TO.C,*%
X368000000Y-247500000D03*
%TD*%
D10*
%TO.C,J43*%
X398700000Y-183710000D03*
D11*
X403700000Y-183710000D03*
%TD*%
D14*
%TO.C,A2*%
X260500000Y-244155000D03*
D15*
X260500000Y-246695000D03*
X260500000Y-249235000D03*
X260500000Y-251775000D03*
X260500000Y-254315000D03*
X260500000Y-256855000D03*
X260500000Y-259395000D03*
X260500000Y-261935000D03*
X260500000Y-264475000D03*
X260500000Y-267015000D03*
X260500000Y-269555000D03*
X260500000Y-272095000D03*
X260500000Y-274635000D03*
X260500000Y-277175000D03*
X260500000Y-279715000D03*
X275740000Y-279715000D03*
X275740000Y-277175000D03*
X275740000Y-274635000D03*
X275740000Y-272095000D03*
X275740000Y-269555000D03*
X275740000Y-267015000D03*
X275740000Y-264475000D03*
X275740000Y-261935000D03*
X275740000Y-259395000D03*
X275740000Y-256855000D03*
X275740000Y-254315000D03*
X275740000Y-251775000D03*
X275740000Y-249235000D03*
X275740000Y-246695000D03*
X275740000Y-244155000D03*
%TD*%
D14*
%TO.C,D7*%
X351390000Y-225405000D03*
D15*
X359010000Y-225405000D03*
%TD*%
D18*
%TO.C,K5*%
X306500000Y-221375000D03*
D19*
X306500000Y-211215000D03*
X306500000Y-203595000D03*
X298880000Y-206135000D03*
X298880000Y-221375000D03*
%TD*%
D10*
%TO.C,J15*%
X242700000Y-183805000D03*
D11*
X247700000Y-183805000D03*
%TD*%
D10*
%TO.C,J5*%
X216700000Y-183805000D03*
D11*
X221700000Y-183805000D03*
%TD*%
D18*
%TO.C,K8*%
X385000000Y-221280000D03*
D19*
X385000000Y-211120000D03*
X385000000Y-203500000D03*
X377380000Y-206040000D03*
X377380000Y-221280000D03*
%TD*%
D10*
%TO.C,J12*%
X474200000Y-183655000D03*
D11*
X479200000Y-183655000D03*
%TD*%
D12*
%TO.C,F3*%
X257250000Y-196550000D03*
X252170000Y-196550000D03*
X248110000Y-196550000D03*
X243030000Y-196550000D03*
%TD*%
D10*
%TO.C,J21*%
X268700000Y-183805000D03*
D11*
X273700000Y-183805000D03*
%TD*%
D10*
%TO.C,J40*%
X383700000Y-183710000D03*
D11*
X388700000Y-183710000D03*
%TD*%
D14*
%TO.C,D1*%
X221140000Y-225500000D03*
D15*
X228760000Y-225500000D03*
%TD*%
D10*
%TO.C,J11*%
X494200000Y-183660000D03*
D11*
X499200000Y-183660000D03*
%TD*%
D12*
%TO.C,F5*%
X304120000Y-196500000D03*
X309200000Y-196500000D03*
X294980000Y-196500000D03*
X300060000Y-196500000D03*
%TD*%
D10*
%TO.C,J2*%
X433075000Y-277727500D03*
D11*
X428075000Y-277727500D03*
%TD*%
D10*
%TO.C,J3*%
X448075000Y-277727500D03*
D11*
X443075000Y-277727500D03*
%TD*%
D10*
%TO.C,J16*%
X253700000Y-183805000D03*
D11*
X258700000Y-183805000D03*
%TD*%
D12*
%TO.C,F4*%
X283500000Y-196500000D03*
X278420000Y-196500000D03*
X274360000Y-196500000D03*
X269280000Y-196500000D03*
%TD*%
%TO.C,F8*%
X387700000Y-196405000D03*
X382620000Y-196405000D03*
X373480000Y-196405000D03*
X378560000Y-196405000D03*
%TD*%
D14*
%TO.C,D5*%
X298890000Y-225500000D03*
D15*
X306510000Y-225500000D03*
%TD*%
D10*
%TO.C,J36*%
X346700000Y-183710000D03*
D11*
X351700000Y-183710000D03*
%TD*%
D14*
%TO.C,A1*%
X458420000Y-244105000D03*
D15*
X458420000Y-246645000D03*
X458420000Y-249185000D03*
X458420000Y-251725000D03*
X458420000Y-254265000D03*
X458420000Y-256805000D03*
X458420000Y-259345000D03*
X458420000Y-261885000D03*
X458420000Y-264425000D03*
X458420000Y-266965000D03*
X458420000Y-269505000D03*
X458420000Y-272045000D03*
X458420000Y-274585000D03*
X458420000Y-277125000D03*
X458420000Y-279665000D03*
X473660000Y-279665000D03*
X473660000Y-277125000D03*
X473660000Y-274585000D03*
X473660000Y-272045000D03*
X473660000Y-269505000D03*
X473660000Y-266965000D03*
X473660000Y-264425000D03*
X473660000Y-261885000D03*
X473660000Y-259345000D03*
X473660000Y-256805000D03*
X473660000Y-254265000D03*
X473660000Y-251725000D03*
X473660000Y-249185000D03*
X473660000Y-246645000D03*
X473660000Y-244105000D03*
%TD*%
D10*
%TO.C,J32*%
X320700000Y-183805000D03*
D11*
X325700000Y-183805000D03*
%TD*%
D12*
%TO.C,F9*%
X408700000Y-196405000D03*
X413780000Y-196405000D03*
X404640000Y-196405000D03*
X399560000Y-196405000D03*
%TD*%
D18*
%TO.C,K10*%
X436700000Y-221280000D03*
D19*
X436700000Y-211120000D03*
X436700000Y-203500000D03*
X429080000Y-206040000D03*
X429080000Y-221280000D03*
%TD*%
D18*
%TO.C,K7*%
X359000000Y-221280000D03*
D19*
X359000000Y-211120000D03*
X359000000Y-203500000D03*
X351380000Y-206040000D03*
X351380000Y-221280000D03*
%TD*%
D10*
%TO.C,J23*%
X292468315Y-277766676D03*
D11*
X287468315Y-277766676D03*
%TD*%
D12*
%TO.C,F1*%
X226120000Y-196500000D03*
X231200000Y-196500000D03*
X216980000Y-196500000D03*
X222060000Y-196500000D03*
%TD*%
%TO.C,F10*%
X434620000Y-196405000D03*
X439700000Y-196405000D03*
X430560000Y-196405000D03*
X425480000Y-196405000D03*
%TD*%
%TO.C,F2*%
X460570000Y-196405000D03*
X465650000Y-196405000D03*
X451430000Y-196405000D03*
X456510000Y-196405000D03*
%TD*%
D13*
%TO.C,*%
X314500000Y-247500000D03*
%TD*%
D18*
%TO.C,K6*%
X332500000Y-221375000D03*
D19*
X332500000Y-211215000D03*
X332500000Y-203595000D03*
X324880000Y-206135000D03*
X324880000Y-221375000D03*
%TD*%
D13*
%TO.C,H1*%
X237000000Y-212595000D03*
%TD*%
D10*
%TO.C,J30*%
X307468315Y-277766676D03*
D11*
X302468315Y-277766676D03*
%TD*%
D14*
%TO.C,D3*%
X246890000Y-225500000D03*
D15*
X254510000Y-225500000D03*
%TD*%
D24*
%TO.C,U21*%
X378105000Y-264630920D03*
X376835000Y-264630920D03*
X375565000Y-264630920D03*
X374295000Y-264630920D03*
X374295000Y-259434080D03*
X375565000Y-259434080D03*
X376835000Y-259434080D03*
X378105000Y-259434080D03*
%TD*%
D25*
%TO.C,C2*%
X428950000Y-268032500D03*
X432075000Y-268032500D03*
%TD*%
D26*
%TO.C,FB13*%
X317468315Y-270521676D03*
X317468315Y-273621676D03*
%TD*%
%TO.C,FB10*%
X292468315Y-270521676D03*
X292468315Y-273621676D03*
%TD*%
%TO.C,FB6*%
X236000000Y-270327500D03*
X236000000Y-273427500D03*
%TD*%
D27*
%TO.C,U22*%
X441835000Y-226592500D03*
X440565000Y-226592500D03*
X440565000Y-220217500D03*
X441835000Y-220217500D03*
%TD*%
D28*
%TO.C,C17*%
X491760000Y-205367500D03*
X491760000Y-208492500D03*
%TD*%
D26*
%TO.C,FB2*%
X222000000Y-270327500D03*
X222000000Y-273427500D03*
%TD*%
%TO.C,FB18*%
X379200000Y-270482500D03*
X379200000Y-273582500D03*
%TD*%
%TO.C,FB17*%
X374200000Y-270482500D03*
X374200000Y-273582500D03*
%TD*%
%TO.C,FB1*%
X217000000Y-270327500D03*
X217000000Y-273427500D03*
%TD*%
D25*
%TO.C,C8*%
X246375000Y-267877500D03*
X249500000Y-267877500D03*
%TD*%
D27*
%TO.C,U5*%
X259835000Y-226092500D03*
X258565000Y-226092500D03*
X258565000Y-219717500D03*
X259835000Y-219717500D03*
%TD*%
D29*
%TO.C,U12*%
X490540000Y-225290000D03*
D30*
X492840000Y-231590000D03*
D29*
X492840000Y-225290000D03*
X495140000Y-225290000D03*
%TD*%
D24*
%TO.C,U2*%
X431980000Y-264630920D03*
X430710000Y-264630920D03*
X429440000Y-264630920D03*
X428170000Y-264630920D03*
X428170000Y-259434080D03*
X429440000Y-259434080D03*
X430710000Y-259434080D03*
X431980000Y-259434080D03*
%TD*%
D26*
%TO.C,FB3*%
X428075000Y-270482500D03*
X428075000Y-273582500D03*
%TD*%
D24*
%TO.C,U13*%
X291373315Y-264670096D03*
X290103315Y-264670096D03*
X288833315Y-264670096D03*
X287563315Y-264670096D03*
X287563315Y-259473256D03*
X288833315Y-259473256D03*
X290103315Y-259473256D03*
X291373315Y-259473256D03*
%TD*%
D26*
%TO.C,FB9*%
X287468315Y-270521676D03*
X287468315Y-273621676D03*
%TD*%
D28*
%TO.C,C6*%
X475240000Y-196567500D03*
X475240000Y-199692500D03*
%TD*%
D26*
%TO.C,FB5*%
X231000000Y-270327500D03*
X231000000Y-273427500D03*
%TD*%
%TO.C,FB8*%
X250500000Y-270327500D03*
X250500000Y-273427500D03*
%TD*%
D24*
%TO.C,U17*%
X321373315Y-264670096D03*
X320103315Y-264670096D03*
X318833315Y-264670096D03*
X317563315Y-264670096D03*
X317563315Y-259473256D03*
X318833315Y-259473256D03*
X320103315Y-259473256D03*
X321373315Y-259473256D03*
%TD*%
D26*
%TO.C,FB14*%
X322468315Y-270521676D03*
X322468315Y-273621676D03*
%TD*%
%TO.C,FB20*%
X394200000Y-270482500D03*
X394200000Y-273582500D03*
%TD*%
D24*
%TO.C,U6*%
X446980000Y-264630920D03*
X445710000Y-264630920D03*
X444440000Y-264630920D03*
X443170000Y-264630920D03*
X443170000Y-259434080D03*
X444440000Y-259434080D03*
X445710000Y-259434080D03*
X446980000Y-259434080D03*
%TD*%
%TO.C,U15*%
X306373315Y-264670096D03*
X305103315Y-264670096D03*
X303833315Y-264670096D03*
X302563315Y-264670096D03*
X302563315Y-259473256D03*
X303833315Y-259473256D03*
X305103315Y-259473256D03*
X306373315Y-259473256D03*
%TD*%
D27*
%TO.C,U14*%
X337835000Y-226092500D03*
X336565000Y-226092500D03*
X336565000Y-219717500D03*
X337835000Y-219717500D03*
%TD*%
D25*
%TO.C,C1*%
X217875000Y-267877500D03*
X221000000Y-267877500D03*
%TD*%
D26*
%TO.C,FB16*%
X364200000Y-270482500D03*
X364200000Y-273582500D03*
%TD*%
D31*
%TO.C,C7*%
X496130000Y-199712500D03*
X496130000Y-196587500D03*
%TD*%
D26*
%TO.C,FB11*%
X302468315Y-270521676D03*
X302468315Y-273621676D03*
%TD*%
%TO.C,FB4*%
X433075000Y-270482500D03*
X433075000Y-273582500D03*
%TD*%
D25*
%TO.C,C13*%
X318343315Y-268071676D03*
X321468315Y-268071676D03*
%TD*%
D27*
%TO.C,U8*%
X285835000Y-226092500D03*
X284565000Y-226092500D03*
X284565000Y-219717500D03*
X285835000Y-219717500D03*
%TD*%
%TO.C,U11*%
X311835000Y-226092500D03*
X310565000Y-226092500D03*
X310565000Y-219717500D03*
X311835000Y-219717500D03*
%TD*%
D24*
%TO.C,U10*%
X249405000Y-264475920D03*
X248135000Y-264475920D03*
X246865000Y-264475920D03*
X245595000Y-264475920D03*
X245595000Y-259279080D03*
X246865000Y-259279080D03*
X248135000Y-259279080D03*
X249405000Y-259279080D03*
%TD*%
D26*
%TO.C,FB19*%
X389200000Y-270482500D03*
X389200000Y-273582500D03*
%TD*%
%TO.C,FB15*%
X359200000Y-270482500D03*
X359200000Y-273582500D03*
%TD*%
D24*
%TO.C,U23*%
X393105000Y-264630920D03*
X391835000Y-264630920D03*
X390565000Y-264630920D03*
X389295000Y-264630920D03*
X389295000Y-259434080D03*
X390565000Y-259434080D03*
X391835000Y-259434080D03*
X393105000Y-259434080D03*
%TD*%
D25*
%TO.C,C16*%
X390075000Y-268032500D03*
X393200000Y-268032500D03*
%TD*%
D24*
%TO.C,U7*%
X234905000Y-264475920D03*
X233635000Y-264475920D03*
X232365000Y-264475920D03*
X231095000Y-264475920D03*
X231095000Y-259279080D03*
X232365000Y-259279080D03*
X233635000Y-259279080D03*
X234905000Y-259279080D03*
%TD*%
D25*
%TO.C,C15*%
X375075000Y-268032500D03*
X378200000Y-268032500D03*
%TD*%
%TO.C,C9*%
X288343315Y-268071676D03*
X291468315Y-268071676D03*
%TD*%
D27*
%TO.C,U16*%
X364335000Y-226592500D03*
X363065000Y-226592500D03*
X363065000Y-220217500D03*
X364335000Y-220217500D03*
%TD*%
D24*
%TO.C,U3*%
X220905000Y-264475920D03*
X219635000Y-264475920D03*
X218365000Y-264475920D03*
X217095000Y-264475920D03*
X217095000Y-259279080D03*
X218365000Y-259279080D03*
X219635000Y-259279080D03*
X220905000Y-259279080D03*
%TD*%
D25*
%TO.C,C4*%
X231875000Y-267877500D03*
X235000000Y-267877500D03*
%TD*%
D26*
%TO.C,FB21*%
X443075000Y-270482500D03*
X443075000Y-273582500D03*
%TD*%
D27*
%TO.C,U18*%
X390335000Y-226592500D03*
X389065000Y-226592500D03*
X389065000Y-220217500D03*
X390335000Y-220217500D03*
%TD*%
D26*
%TO.C,FB22*%
X448075000Y-270482500D03*
X448075000Y-273582500D03*
%TD*%
D27*
%TO.C,U4*%
X467335000Y-226592500D03*
X466065000Y-226592500D03*
X466065000Y-220217500D03*
X467335000Y-220217500D03*
%TD*%
D25*
%TO.C,C12*%
X303343315Y-268071676D03*
X306468315Y-268071676D03*
%TD*%
D27*
%TO.C,U1*%
X233835000Y-226092500D03*
X232565000Y-226092500D03*
X232565000Y-219717500D03*
X233835000Y-219717500D03*
%TD*%
D26*
%TO.C,R1*%
X488450000Y-205330000D03*
X488450000Y-208430000D03*
%TD*%
D32*
%TO.C,C11*%
X493212500Y-221380000D03*
X490087500Y-221380000D03*
%TD*%
D26*
%TO.C,FB7*%
X245500000Y-270327500D03*
X245500000Y-273427500D03*
%TD*%
D24*
%TO.C,U19*%
X363105000Y-264630920D03*
X361835000Y-264630920D03*
X360565000Y-264630920D03*
X359295000Y-264630920D03*
X359295000Y-259434080D03*
X360565000Y-259434080D03*
X361835000Y-259434080D03*
X363105000Y-259434080D03*
%TD*%
D26*
%TO.C,FB12*%
X307468315Y-270521676D03*
X307468315Y-273621676D03*
%TD*%
D25*
%TO.C,C3*%
X443950000Y-268032500D03*
X447075000Y-268032500D03*
%TD*%
D27*
%TO.C,U20*%
X416335000Y-226592500D03*
X415065000Y-226592500D03*
X415065000Y-220217500D03*
X416335000Y-220217500D03*
%TD*%
D32*
%TO.C,C10*%
X505152500Y-232050000D03*
X502027500Y-232050000D03*
%TD*%
D25*
%TO.C,C5*%
X485747500Y-211430000D03*
X488872500Y-211430000D03*
%TD*%
%TO.C,C14*%
X360075000Y-268032500D03*
X363200000Y-268032500D03*
%TD*%
M02*
