%TF.GenerationSoftware,KiCad,Pcbnew,(6.0.4)*%
%TF.CreationDate,2023-03-07T14:55:24-05:00*%
%TF.ProjectId,Pyrolysis,5079726f-6c79-4736-9973-2e6b69636164,rev?*%
%TF.SameCoordinates,Original*%
%TF.FileFunction,Copper,L1,Top*%
%TF.FilePolarity,Positive*%
%FSLAX46Y46*%
G04 Gerber Fmt 4.6, Leading zero omitted, Abs format (unit mm)*
G04 Created by KiCad (PCBNEW (6.0.4)) date 2023-03-07 14:55:24*
%MOMM*%
%LPD*%
G01*
G04 APERTURE LIST*
%TA.AperFunction,ComponentPad*%
%ADD10R,2.600000X2.600000*%
%TD*%
%TA.AperFunction,ComponentPad*%
%ADD11C,2.600000*%
%TD*%
%TA.AperFunction,ComponentPad*%
%ADD12C,3.500000*%
%TD*%
%TA.AperFunction,ComponentPad*%
%ADD13C,5.600000*%
%TD*%
%TA.AperFunction,ComponentPad*%
%ADD14R,1.600000X1.600000*%
%TD*%
%TA.AperFunction,ComponentPad*%
%ADD15O,1.600000X1.600000*%
%TD*%
%TA.AperFunction,ComponentPad*%
%ADD16R,1.700000X1.700000*%
%TD*%
%TA.AperFunction,ComponentPad*%
%ADD17O,1.700000X1.700000*%
%TD*%
%TA.AperFunction,ComponentPad*%
%ADD18R,2.300000X2.300000*%
%TD*%
%TA.AperFunction,ComponentPad*%
%ADD19C,2.300000*%
%TD*%
%TA.AperFunction,ComponentPad*%
%ADD20R,2.100000X2.100000*%
%TD*%
%TA.AperFunction,ComponentPad*%
%ADD21C,2.100000*%
%TD*%
%TA.AperFunction,ComponentPad*%
%ADD22R,1.800000X1.800000*%
%TD*%
%TA.AperFunction,ComponentPad*%
%ADD23O,1.800000X1.800000*%
%TD*%
%TA.AperFunction,ViaPad*%
%ADD24C,1.500000*%
%TD*%
%TA.AperFunction,Conductor*%
%ADD25C,0.500000*%
%TD*%
%TA.AperFunction,Conductor*%
%ADD26C,1.500000*%
%TD*%
%TA.AperFunction,Conductor*%
%ADD27C,1.000000*%
%TD*%
G04 APERTURE END LIST*
D10*
%TO.P,J29,1*%
%TO.N,Net-(FB16-Pad2)*%
X364200000Y-277727500D03*
D11*
%TO.P,J29,2*%
%TO.N,Net-(FB15-Pad2)*%
X359200000Y-277727500D03*
%TD*%
D12*
%TO.P,F7,1*%
%TO.N,Net-(D7-Pad1)*%
X361700000Y-196405000D03*
X356620000Y-196405000D03*
%TO.P,F7,2*%
%TO.N,+12V*%
X352560000Y-196405000D03*
X347480000Y-196405000D03*
%TD*%
D13*
%TO.P,,1*%
%TO.N,N/C*%
X445500000Y-212500000D03*
%TD*%
%TO.P,,1*%
%TO.N,N/C*%
X368000000Y-212500000D03*
%TD*%
D10*
%TO.P,J47,1*%
%TO.N,Net-(J47-Pad1)*%
X424700000Y-183710000D03*
D11*
%TO.P,J47,2*%
%TO.N,Net-(J47-Pad2)*%
X429700000Y-183710000D03*
%TD*%
D10*
%TO.P,J28,1*%
%TO.N,Net-(J28-Pad1)*%
X305700000Y-183805000D03*
D11*
%TO.P,J28,2*%
%TO.N,GND*%
X310700000Y-183805000D03*
%TD*%
D14*
%TO.P,A5,1,D1/TX*%
%TO.N,unconnected-(A5-Pad1)*%
X403500000Y-244000000D03*
D15*
%TO.P,A5,2,D0/RX*%
%TO.N,unconnected-(A5-Pad2)*%
X403500000Y-246540000D03*
%TO.P,A5,3,~{RESET}*%
%TO.N,unconnected-(A5-Pad3)*%
X403500000Y-249080000D03*
%TO.P,A5,4,GND*%
%TO.N,GND*%
X403500000Y-251620000D03*
%TO.P,A5,5,D2*%
%TO.N,unconnected-(A5-Pad5)*%
X403500000Y-254160000D03*
%TO.P,A5,6,D3*%
%TO.N,unconnected-(A5-Pad6)*%
X403500000Y-256700000D03*
%TO.P,A5,7,D4*%
%TO.N,unconnected-(A5-Pad7)*%
X403500000Y-259240000D03*
%TO.P,A5,8,D5*%
%TO.N,/PWM7*%
X403500000Y-261780000D03*
%TO.P,A5,9,D6*%
%TO.N,/PWM8*%
X403500000Y-264320000D03*
%TO.P,A5,10,D7*%
%TO.N,/PWM9*%
X403500000Y-266860000D03*
%TO.P,A5,11,D8*%
%TO.N,unconnected-(A5-Pad11)*%
X403500000Y-269400000D03*
%TO.P,A5,12,D9*%
%TO.N,/SS7*%
X403500000Y-271940000D03*
%TO.P,A5,13,D10*%
%TO.N,/SS8*%
X403500000Y-274480000D03*
%TO.P,A5,14,D11*%
%TO.N,/SS9*%
X403500000Y-277020000D03*
%TO.P,A5,15,D12*%
%TO.N,/DATA3*%
X403500000Y-279560000D03*
%TO.P,A5,16,D13*%
%TO.N,/CLK3*%
X418740000Y-279560000D03*
%TO.P,A5,17,3V3*%
%TO.N,unconnected-(A5-Pad17)*%
X418740000Y-277020000D03*
%TO.P,A5,18,AREF*%
%TO.N,unconnected-(A5-Pad18)*%
X418740000Y-274480000D03*
%TO.P,A5,19,A0*%
%TO.N,unconnected-(A5-Pad19)*%
X418740000Y-271940000D03*
%TO.P,A5,20,A1*%
%TO.N,unconnected-(A5-Pad20)*%
X418740000Y-269400000D03*
%TO.P,A5,21,A2*%
%TO.N,unconnected-(A5-Pad21)*%
X418740000Y-266860000D03*
%TO.P,A5,22,A3*%
%TO.N,unconnected-(A5-Pad22)*%
X418740000Y-264320000D03*
%TO.P,A5,23,A4*%
%TO.N,/I2C_DAT*%
X418740000Y-261780000D03*
%TO.P,A5,24,A5*%
%TO.N,/I2C_CLK*%
X418740000Y-259240000D03*
%TO.P,A5,25,A6*%
%TO.N,unconnected-(A5-Pad25)*%
X418740000Y-256700000D03*
%TO.P,A5,26,A7*%
%TO.N,unconnected-(A5-Pad26)*%
X418740000Y-254160000D03*
%TO.P,A5,27,+5V*%
%TO.N,+5V*%
X418740000Y-251620000D03*
%TO.P,A5,28,~{RESET}*%
%TO.N,unconnected-(A5-Pad28)*%
X418740000Y-249080000D03*
%TO.P,A5,29,GND*%
%TO.N,GND*%
X418740000Y-246540000D03*
%TO.P,A5,30,VIN*%
%TO.N,+12V*%
X418740000Y-244000000D03*
%TD*%
D10*
%TO.P,J26,1*%
%TO.N,GND*%
X500500000Y-228500000D03*
D11*
%TO.P,J26,2*%
%TO.N,+12V*%
X506500000Y-228500000D03*
%TO.P,J26,3*%
%TO.N,N/C*%
X503500000Y-223800000D03*
%TD*%
D10*
%TO.P,J33,1*%
%TO.N,Net-(J33-Pad1)*%
X331700000Y-183805000D03*
D11*
%TO.P,J33,2*%
%TO.N,GND*%
X336700000Y-183805000D03*
%TD*%
D10*
%TO.P,J4,1*%
%TO.N,Net-(J4-Pad1)*%
X450700000Y-183710000D03*
D11*
%TO.P,J4,2*%
%TO.N,Net-(J4-Pad2)*%
X455700000Y-183710000D03*
%TD*%
D14*
%TO.P,D8,1,K*%
%TO.N,Net-(D8-Pad1)*%
X377390000Y-225405000D03*
D15*
%TO.P,D8,2,A*%
%TO.N,Net-(D8-Pad2)*%
X385010000Y-225405000D03*
%TD*%
D13*
%TO.P,H4,1*%
%TO.N,N/C*%
X507000000Y-181000000D03*
%TD*%
D10*
%TO.P,J41,1*%
%TO.N,Net-(FB18-Pad2)*%
X379200000Y-277727500D03*
D11*
%TO.P,J41,2*%
%TO.N,Net-(FB17-Pad2)*%
X374200000Y-277727500D03*
%TD*%
D10*
%TO.P,J7,1*%
%TO.N,Net-(J7-Pad1)*%
X461700000Y-183710000D03*
D11*
%TO.P,J7,2*%
%TO.N,GND*%
X466700000Y-183710000D03*
%TD*%
D14*
%TO.P,A3,1,D1/TX*%
%TO.N,unconnected-(A3-Pad1)*%
X485090000Y-244105000D03*
D15*
%TO.P,A3,2,D0/RX*%
%TO.N,unconnected-(A3-Pad2)*%
X485090000Y-246645000D03*
%TO.P,A3,3,~{RESET}*%
%TO.N,unconnected-(A3-Pad3)*%
X485090000Y-249185000D03*
%TO.P,A3,4,GND*%
%TO.N,GND*%
X485090000Y-251725000D03*
%TO.P,A3,5,D2*%
%TO.N,unconnected-(A3-Pad5)*%
X485090000Y-254265000D03*
%TO.P,A3,6,D3*%
%TO.N,unconnected-(A3-Pad6)*%
X485090000Y-256805000D03*
%TO.P,A3,7,D4*%
%TO.N,unconnected-(A3-Pad7)*%
X485090000Y-259345000D03*
%TO.P,A3,8,D5*%
%TO.N,/THRM1*%
X485090000Y-261885000D03*
%TO.P,A3,9,D6*%
%TO.N,/BR1*%
X485090000Y-264425000D03*
%TO.P,A3,10,D7*%
%TO.N,/DIR1*%
X485090000Y-266965000D03*
%TO.P,A3,11,D8*%
%TO.N,unconnected-(A3-Pad11)*%
X485090000Y-269505000D03*
%TO.P,A3,12,D9*%
%TO.N,/MC1*%
X485090000Y-272045000D03*
%TO.P,A3,13,D10*%
%TO.N,unconnected-(A3-Pad13)*%
X485090000Y-274585000D03*
%TO.P,A3,14,D11*%
%TO.N,unconnected-(A3-Pad14)*%
X485090000Y-277125000D03*
%TO.P,A3,15,D12*%
%TO.N,unconnected-(A3-Pad15)*%
X485090000Y-279665000D03*
%TO.P,A3,16,D13*%
%TO.N,unconnected-(A3-Pad16)*%
X500330000Y-279665000D03*
%TO.P,A3,17,3V3*%
%TO.N,/3V3*%
X500330000Y-277125000D03*
%TO.P,A3,18,AREF*%
%TO.N,unconnected-(A3-Pad18)*%
X500330000Y-274585000D03*
%TO.P,A3,19,A0*%
%TO.N,/A1*%
X500330000Y-272045000D03*
%TO.P,A3,20,A1*%
%TO.N,/B1*%
X500330000Y-269505000D03*
%TO.P,A3,21,A2*%
%TO.N,unconnected-(A3-Pad21)*%
X500330000Y-266965000D03*
%TO.P,A3,22,A3*%
%TO.N,unconnected-(A3-Pad22)*%
X500330000Y-264425000D03*
%TO.P,A3,23,A4*%
%TO.N,/I2C_DAT*%
X500330000Y-261885000D03*
%TO.P,A3,24,A5*%
%TO.N,/I2C_CLK*%
X500330000Y-259345000D03*
%TO.P,A3,25,A6*%
%TO.N,/CSEN1*%
X500330000Y-256805000D03*
%TO.P,A3,26,A7*%
%TO.N,unconnected-(A3-Pad26)*%
X500330000Y-254265000D03*
%TO.P,A3,27,+5V*%
%TO.N,+5V*%
X500330000Y-251725000D03*
%TO.P,A3,28,~{RESET}*%
%TO.N,unconnected-(A3-Pad28)*%
X500330000Y-249185000D03*
%TO.P,A3,29,GND*%
%TO.N,GND*%
X500330000Y-246645000D03*
%TO.P,A3,30,VIN*%
%TO.N,+12V*%
X500330000Y-244105000D03*
%TD*%
D10*
%TO.P,J34,1*%
%TO.N,Net-(FB14-Pad2)*%
X322468315Y-277766676D03*
D11*
%TO.P,J34,2*%
%TO.N,Net-(FB13-Pad2)*%
X317468315Y-277766676D03*
%TD*%
D16*
%TO.P,J8,1,Pin_1*%
%TO.N,/CUST1*%
X489240000Y-183660000D03*
D17*
%TO.P,J8,2,Pin_2*%
%TO.N,+12V*%
X486700000Y-183660000D03*
%TO.P,J8,3,Pin_3*%
%TO.N,Net-(C5-Pad1)*%
X484160000Y-183660000D03*
%TD*%
D14*
%TO.P,D4,1,K*%
%TO.N,Net-(D4-Pad1)*%
X272890000Y-225500000D03*
D15*
%TO.P,D4,2,A*%
%TO.N,Net-(D4-Pad2)*%
X280510000Y-225500000D03*
%TD*%
D10*
%TO.P,J6,1*%
%TO.N,Net-(J6-Pad1)*%
X227700000Y-183805000D03*
D11*
%TO.P,J6,2*%
%TO.N,GND*%
X232700000Y-183805000D03*
%TD*%
D13*
%TO.P,,1*%
%TO.N,N/C*%
X445500000Y-247500000D03*
%TD*%
%TO.P,H3,1*%
%TO.N,N/C*%
X237000000Y-247500000D03*
%TD*%
D10*
%TO.P,J45,1*%
%TO.N,Net-(FB20-Pad2)*%
X394200000Y-277727500D03*
D11*
%TO.P,J45,2*%
%TO.N,Net-(FB19-Pad2)*%
X389200000Y-277727500D03*
%TD*%
D18*
%TO.P,K9,1*%
%TO.N,Net-(D9-Pad2)*%
X411000000Y-221280000D03*
D19*
%TO.P,K9,2*%
%TO.N,Net-(J44-Pad1)*%
X411000000Y-211120000D03*
%TO.P,K9,3*%
%TO.N,Net-(J43-Pad2)*%
X411000000Y-203500000D03*
%TO.P,K9,4*%
%TO.N,Net-(J43-Pad1)*%
X403380000Y-206040000D03*
%TO.P,K9,5*%
%TO.N,Net-(D9-Pad1)*%
X403380000Y-221280000D03*
%TD*%
D16*
%TO.P,J13,1,Pin_1*%
%TO.N,/I2C_DAT*%
X504500000Y-210525000D03*
D17*
%TO.P,J13,2,Pin_2*%
%TO.N,/I2C_CLK*%
X504500000Y-207985000D03*
%TO.P,J13,3,Pin_3*%
%TO.N,GND*%
X504500000Y-205445000D03*
%TD*%
D14*
%TO.P,A4,1,D1/TX*%
%TO.N,unconnected-(A4-Pad1)*%
X334108315Y-244105000D03*
D15*
%TO.P,A4,2,D0/RX*%
%TO.N,unconnected-(A4-Pad2)*%
X334108315Y-246645000D03*
%TO.P,A4,3,~{RESET}*%
%TO.N,unconnected-(A4-Pad3)*%
X334108315Y-249185000D03*
%TO.P,A4,4,GND*%
%TO.N,GND*%
X334108315Y-251725000D03*
%TO.P,A4,5,D2*%
%TO.N,unconnected-(A4-Pad5)*%
X334108315Y-254265000D03*
%TO.P,A4,6,D3*%
%TO.N,unconnected-(A4-Pad6)*%
X334108315Y-256805000D03*
%TO.P,A4,7,D4*%
%TO.N,unconnected-(A4-Pad7)*%
X334108315Y-259345000D03*
%TO.P,A4,8,D5*%
%TO.N,/PWM4*%
X334108315Y-261885000D03*
%TO.P,A4,9,D6*%
%TO.N,/PWM5*%
X334108315Y-264425000D03*
%TO.P,A4,10,D7*%
%TO.N,/PWM6*%
X334108315Y-266965000D03*
%TO.P,A4,11,D8*%
%TO.N,unconnected-(A4-Pad11)*%
X334108315Y-269505000D03*
%TO.P,A4,12,D9*%
%TO.N,/SS4*%
X334108315Y-272045000D03*
%TO.P,A4,13,D10*%
%TO.N,/SS5*%
X334108315Y-274585000D03*
%TO.P,A4,14,D11*%
%TO.N,/SS6*%
X334108315Y-277125000D03*
%TO.P,A4,15,D12*%
%TO.N,/DATA2*%
X334108315Y-279665000D03*
%TO.P,A4,16,D13*%
%TO.N,/CLK2*%
X349348315Y-279665000D03*
%TO.P,A4,17,3V3*%
%TO.N,unconnected-(A4-Pad17)*%
X349348315Y-277125000D03*
%TO.P,A4,18,AREF*%
%TO.N,unconnected-(A4-Pad18)*%
X349348315Y-274585000D03*
%TO.P,A4,19,A0*%
%TO.N,unconnected-(A4-Pad19)*%
X349348315Y-272045000D03*
%TO.P,A4,20,A1*%
%TO.N,unconnected-(A4-Pad20)*%
X349348315Y-269505000D03*
%TO.P,A4,21,A2*%
%TO.N,unconnected-(A4-Pad21)*%
X349348315Y-266965000D03*
%TO.P,A4,22,A3*%
%TO.N,unconnected-(A4-Pad22)*%
X349348315Y-264425000D03*
%TO.P,A4,23,A4*%
%TO.N,/I2C_DAT*%
X349348315Y-261885000D03*
%TO.P,A4,24,A5*%
%TO.N,/I2C_CLK*%
X349348315Y-259345000D03*
%TO.P,A4,25,A6*%
%TO.N,unconnected-(A4-Pad25)*%
X349348315Y-256805000D03*
%TO.P,A4,26,A7*%
%TO.N,unconnected-(A4-Pad26)*%
X349348315Y-254265000D03*
%TO.P,A4,27,+5V*%
%TO.N,+5V*%
X349348315Y-251725000D03*
%TO.P,A4,28,~{RESET}*%
%TO.N,unconnected-(A4-Pad28)*%
X349348315Y-249185000D03*
%TO.P,A4,29,GND*%
%TO.N,GND*%
X349348315Y-246645000D03*
%TO.P,A4,30,VIN*%
%TO.N,+12V*%
X349348315Y-244105000D03*
%TD*%
D10*
%TO.P,J48,1*%
%TO.N,Net-(J48-Pad1)*%
X435700000Y-183710000D03*
D11*
%TO.P,J48,2*%
%TO.N,GND*%
X440700000Y-183710000D03*
%TD*%
D20*
%TO.P,J10,1,Pin_1*%
%TO.N,/A1*%
X504500000Y-191185000D03*
D21*
%TO.P,J10,2,Pin_2*%
%TO.N,/B1*%
X504500000Y-193725000D03*
%TO.P,J10,3,Pin_3*%
%TO.N,+5V*%
X504500000Y-196265000D03*
%TO.P,J10,4,Pin_4*%
%TO.N,GND*%
X504500000Y-198805000D03*
%TD*%
D18*
%TO.P,K2,1*%
%TO.N,Net-(D2-Pad2)*%
X462825000Y-221280000D03*
D19*
%TO.P,K2,2*%
%TO.N,Net-(J7-Pad1)*%
X462825000Y-211120000D03*
%TO.P,K2,3*%
%TO.N,Net-(J4-Pad2)*%
X462825000Y-203500000D03*
%TO.P,K2,4*%
%TO.N,Net-(J4-Pad1)*%
X455205000Y-206040000D03*
%TO.P,K2,5*%
%TO.N,Net-(D2-Pad1)*%
X455205000Y-221280000D03*
%TD*%
D14*
%TO.P,D9,1,K*%
%TO.N,Net-(D9-Pad1)*%
X403390000Y-225405000D03*
D15*
%TO.P,D9,2,A*%
%TO.N,Net-(D9-Pad2)*%
X411010000Y-225405000D03*
%TD*%
D12*
%TO.P,F6,1*%
%TO.N,Net-(D6-Pad1)*%
X335200000Y-196500000D03*
X330120000Y-196500000D03*
%TO.P,F6,2*%
%TO.N,+12V*%
X320980000Y-196500000D03*
X326060000Y-196500000D03*
%TD*%
D10*
%TO.P,J37,1*%
%TO.N,Net-(J37-Pad1)*%
X357700000Y-183710000D03*
D11*
%TO.P,J37,2*%
%TO.N,GND*%
X362700000Y-183710000D03*
%TD*%
D14*
%TO.P,D10,1,K*%
%TO.N,Net-(D10-Pad1)*%
X429140000Y-225405000D03*
D15*
%TO.P,D10,2,A*%
%TO.N,Net-(D10-Pad2)*%
X436760000Y-225405000D03*
%TD*%
D10*
%TO.P,J17,1*%
%TO.N,Net-(FB8-Pad2)*%
X250500000Y-277572500D03*
D11*
%TO.P,J17,2*%
%TO.N,Net-(FB7-Pad2)*%
X245500000Y-277572500D03*
%TD*%
D13*
%TO.P,,1*%
%TO.N,N/C*%
X314500000Y-212500000D03*
%TD*%
D22*
%TO.P,U24,1,BOOTSTRAP1*%
%TO.N,Net-(C6-Pad2)*%
X477270000Y-201915000D03*
D23*
%TO.P,U24,2,OUTPUT1*%
%TO.N,Net-(C6-Pad1)*%
X478970000Y-196835000D03*
%TO.P,U24,3,DIRECTION*%
%TO.N,/DIR1*%
X480670000Y-201915000D03*
%TO.P,U24,4,BRAKE*%
%TO.N,/BR1*%
X482370000Y-196835000D03*
%TO.P,U24,5,PWM*%
%TO.N,/MC1*%
X484070000Y-201915000D03*
%TO.P,U24,6,VS*%
%TO.N,Net-(C5-Pad1)*%
X485770000Y-196835000D03*
%TO.P,U24,7,GND*%
%TO.N,GND*%
X487470000Y-201915000D03*
%TO.P,U24,8,CURRENT_SENSE_OUTPUT*%
%TO.N,/CSEN1*%
X489170000Y-196835000D03*
%TO.P,U24,9,~{THERMAL_FLAG_OUTPUT}*%
%TO.N,/THRM1*%
X490870000Y-201915000D03*
%TO.P,U24,10,OUTPUT2*%
%TO.N,Net-(C7-Pad2)*%
X492570000Y-196835000D03*
%TO.P,U24,11,BOOTSTRAP2*%
%TO.N,Net-(C7-Pad1)*%
X494270000Y-201915000D03*
%TD*%
D10*
%TO.P,J22,1*%
%TO.N,Net-(J22-Pad1)*%
X279700000Y-183805000D03*
D11*
%TO.P,J22,2*%
%TO.N,GND*%
X284700000Y-183805000D03*
%TD*%
D13*
%TO.P,,1*%
%TO.N,N/C*%
X507000000Y-280500000D03*
%TD*%
D10*
%TO.P,J39,1*%
%TO.N,Net-(J39-Pad1)*%
X372700000Y-183710000D03*
D11*
%TO.P,J39,2*%
%TO.N,Net-(J39-Pad2)*%
X377700000Y-183710000D03*
%TD*%
D10*
%TO.P,J1,1*%
%TO.N,Net-(FB2-Pad2)*%
X222000000Y-277572500D03*
D11*
%TO.P,J1,2*%
%TO.N,Net-(FB1-Pad2)*%
X217000000Y-277572500D03*
%TD*%
D14*
%TO.P,D6,1,K*%
%TO.N,Net-(D6-Pad1)*%
X324890000Y-225500000D03*
D15*
%TO.P,D6,2,A*%
%TO.N,Net-(D6-Pad2)*%
X332510000Y-225500000D03*
%TD*%
D14*
%TO.P,D2,1,K*%
%TO.N,Net-(D2-Pad1)*%
X455190000Y-225405000D03*
D15*
%TO.P,D2,2,A*%
%TO.N,Net-(D2-Pad2)*%
X462810000Y-225405000D03*
%TD*%
D18*
%TO.P,K1,1*%
%TO.N,Net-(D1-Pad2)*%
X228750000Y-221375000D03*
D19*
%TO.P,K1,2*%
%TO.N,Net-(J6-Pad1)*%
X228750000Y-211215000D03*
%TO.P,K1,3*%
%TO.N,Net-(J5-Pad2)*%
X228750000Y-203595000D03*
%TO.P,K1,4*%
%TO.N,Net-(J5-Pad1)*%
X221130000Y-206135000D03*
%TO.P,K1,5*%
%TO.N,Net-(D1-Pad1)*%
X221130000Y-221375000D03*
%TD*%
D10*
%TO.P,J44,1*%
%TO.N,Net-(J44-Pad1)*%
X409700000Y-183710000D03*
D11*
%TO.P,J44,2*%
%TO.N,GND*%
X414700000Y-183710000D03*
%TD*%
D18*
%TO.P,K3,1*%
%TO.N,Net-(D3-Pad2)*%
X254500000Y-221375000D03*
D19*
%TO.P,K3,2*%
%TO.N,Net-(J16-Pad1)*%
X254500000Y-211215000D03*
%TO.P,K3,3*%
%TO.N,Net-(J15-Pad2)*%
X254500000Y-203595000D03*
%TO.P,K3,4*%
%TO.N,Net-(J15-Pad1)*%
X246880000Y-206135000D03*
%TO.P,K3,5*%
%TO.N,Net-(D3-Pad1)*%
X246880000Y-221375000D03*
%TD*%
D10*
%TO.P,J27,1*%
%TO.N,Net-(J27-Pad1)*%
X294700000Y-183805000D03*
D11*
%TO.P,J27,2*%
%TO.N,Net-(J27-Pad2)*%
X299700000Y-183805000D03*
%TD*%
D10*
%TO.P,J9,1*%
%TO.N,Net-(FB6-Pad2)*%
X236000000Y-277572500D03*
D11*
%TO.P,J9,2*%
%TO.N,Net-(FB5-Pad2)*%
X231000000Y-277572500D03*
%TD*%
D18*
%TO.P,K4,1*%
%TO.N,Net-(D4-Pad2)*%
X280500000Y-221375000D03*
D19*
%TO.P,K4,2*%
%TO.N,Net-(J22-Pad1)*%
X280500000Y-211215000D03*
%TO.P,K4,3*%
%TO.N,Net-(J21-Pad2)*%
X280500000Y-203595000D03*
%TO.P,K4,4*%
%TO.N,Net-(J21-Pad1)*%
X272880000Y-206135000D03*
%TO.P,K4,5*%
%TO.N,Net-(D4-Pad1)*%
X272880000Y-221375000D03*
%TD*%
D13*
%TO.P,,1*%
%TO.N,N/C*%
X368000000Y-247500000D03*
%TD*%
D10*
%TO.P,J43,1*%
%TO.N,Net-(J43-Pad1)*%
X398700000Y-183710000D03*
D11*
%TO.P,J43,2*%
%TO.N,Net-(J43-Pad2)*%
X403700000Y-183710000D03*
%TD*%
D14*
%TO.P,A2,1,D1/TX*%
%TO.N,unconnected-(A2-Pad1)*%
X260500000Y-244155000D03*
D15*
%TO.P,A2,2,D0/RX*%
%TO.N,unconnected-(A2-Pad2)*%
X260500000Y-246695000D03*
%TO.P,A2,3,~{RESET}*%
%TO.N,unconnected-(A2-Pad3)*%
X260500000Y-249235000D03*
%TO.P,A2,4,GND*%
%TO.N,GND*%
X260500000Y-251775000D03*
%TO.P,A2,5,D2*%
%TO.N,unconnected-(A2-Pad5)*%
X260500000Y-254315000D03*
%TO.P,A2,6,D3*%
%TO.N,unconnected-(A2-Pad6)*%
X260500000Y-256855000D03*
%TO.P,A2,7,D4*%
%TO.N,unconnected-(A2-Pad7)*%
X260500000Y-259395000D03*
%TO.P,A2,8,D5*%
%TO.N,/PWM1*%
X260500000Y-261935000D03*
%TO.P,A2,9,D6*%
%TO.N,/PWM2*%
X260500000Y-264475000D03*
%TO.P,A2,10,D7*%
%TO.N,/PWM3*%
X260500000Y-267015000D03*
%TO.P,A2,11,D8*%
%TO.N,unconnected-(A2-Pad11)*%
X260500000Y-269555000D03*
%TO.P,A2,12,D9*%
%TO.N,/SS1*%
X260500000Y-272095000D03*
%TO.P,A2,13,D10*%
%TO.N,/SS2*%
X260500000Y-274635000D03*
%TO.P,A2,14,D11*%
%TO.N,/SS3*%
X260500000Y-277175000D03*
%TO.P,A2,15,D12*%
%TO.N,/DATA1*%
X260500000Y-279715000D03*
%TO.P,A2,16,D13*%
%TO.N,/CLK1*%
X275740000Y-279715000D03*
%TO.P,A2,17,3V3*%
%TO.N,unconnected-(A2-Pad17)*%
X275740000Y-277175000D03*
%TO.P,A2,18,AREF*%
%TO.N,unconnected-(A2-Pad18)*%
X275740000Y-274635000D03*
%TO.P,A2,19,A0*%
%TO.N,unconnected-(A2-Pad19)*%
X275740000Y-272095000D03*
%TO.P,A2,20,A1*%
%TO.N,unconnected-(A2-Pad20)*%
X275740000Y-269555000D03*
%TO.P,A2,21,A2*%
%TO.N,unconnected-(A2-Pad21)*%
X275740000Y-267015000D03*
%TO.P,A2,22,A3*%
%TO.N,unconnected-(A2-Pad22)*%
X275740000Y-264475000D03*
%TO.P,A2,23,A4*%
%TO.N,/I2C_DAT*%
X275740000Y-261935000D03*
%TO.P,A2,24,A5*%
%TO.N,/I2C_CLK*%
X275740000Y-259395000D03*
%TO.P,A2,25,A6*%
%TO.N,unconnected-(A2-Pad25)*%
X275740000Y-256855000D03*
%TO.P,A2,26,A7*%
%TO.N,unconnected-(A2-Pad26)*%
X275740000Y-254315000D03*
%TO.P,A2,27,+5V*%
%TO.N,+5V*%
X275740000Y-251775000D03*
%TO.P,A2,28,~{RESET}*%
%TO.N,unconnected-(A2-Pad28)*%
X275740000Y-249235000D03*
%TO.P,A2,29,GND*%
%TO.N,GND*%
X275740000Y-246695000D03*
%TO.P,A2,30,VIN*%
%TO.N,+12V*%
X275740000Y-244155000D03*
%TD*%
D14*
%TO.P,D7,1,K*%
%TO.N,Net-(D7-Pad1)*%
X351390000Y-225405000D03*
D15*
%TO.P,D7,2,A*%
%TO.N,Net-(D7-Pad2)*%
X359010000Y-225405000D03*
%TD*%
D18*
%TO.P,K5,1*%
%TO.N,Net-(D5-Pad2)*%
X306500000Y-221375000D03*
D19*
%TO.P,K5,2*%
%TO.N,Net-(J28-Pad1)*%
X306500000Y-211215000D03*
%TO.P,K5,3*%
%TO.N,Net-(J27-Pad2)*%
X306500000Y-203595000D03*
%TO.P,K5,4*%
%TO.N,Net-(J27-Pad1)*%
X298880000Y-206135000D03*
%TO.P,K5,5*%
%TO.N,Net-(D5-Pad1)*%
X298880000Y-221375000D03*
%TD*%
D10*
%TO.P,J15,1*%
%TO.N,Net-(J15-Pad1)*%
X242700000Y-183805000D03*
D11*
%TO.P,J15,2*%
%TO.N,Net-(J15-Pad2)*%
X247700000Y-183805000D03*
%TD*%
D10*
%TO.P,J5,1*%
%TO.N,Net-(J5-Pad1)*%
X216700000Y-183805000D03*
D11*
%TO.P,J5,2*%
%TO.N,Net-(J5-Pad2)*%
X221700000Y-183805000D03*
%TD*%
D18*
%TO.P,K8,1*%
%TO.N,Net-(D8-Pad2)*%
X385000000Y-221280000D03*
D19*
%TO.P,K8,2*%
%TO.N,Net-(J40-Pad1)*%
X385000000Y-211120000D03*
%TO.P,K8,3*%
%TO.N,Net-(J39-Pad2)*%
X385000000Y-203500000D03*
%TO.P,K8,4*%
%TO.N,Net-(J39-Pad1)*%
X377380000Y-206040000D03*
%TO.P,K8,5*%
%TO.N,Net-(D8-Pad1)*%
X377380000Y-221280000D03*
%TD*%
D10*
%TO.P,J12,1*%
%TO.N,Net-(C6-Pad1)*%
X474200000Y-183655000D03*
D11*
%TO.P,J12,2*%
%TO.N,Net-(C7-Pad2)*%
X479200000Y-183655000D03*
%TD*%
D12*
%TO.P,F3,1*%
%TO.N,Net-(D3-Pad1)*%
X257250000Y-196550000D03*
X252170000Y-196550000D03*
%TO.P,F3,2*%
%TO.N,+12V*%
X248110000Y-196550000D03*
X243030000Y-196550000D03*
%TD*%
D10*
%TO.P,J21,1*%
%TO.N,Net-(J21-Pad1)*%
X268700000Y-183805000D03*
D11*
%TO.P,J21,2*%
%TO.N,Net-(J21-Pad2)*%
X273700000Y-183805000D03*
%TD*%
D10*
%TO.P,J40,1*%
%TO.N,Net-(J40-Pad1)*%
X383700000Y-183710000D03*
D11*
%TO.P,J40,2*%
%TO.N,GND*%
X388700000Y-183710000D03*
%TD*%
D14*
%TO.P,D1,1,K*%
%TO.N,Net-(D1-Pad1)*%
X221140000Y-225500000D03*
D15*
%TO.P,D1,2,A*%
%TO.N,Net-(D1-Pad2)*%
X228760000Y-225500000D03*
%TD*%
D10*
%TO.P,J11,1*%
%TO.N,/CUST1*%
X494200000Y-183660000D03*
D11*
%TO.P,J11,2*%
%TO.N,GND*%
X499200000Y-183660000D03*
%TD*%
D12*
%TO.P,F5,1*%
%TO.N,Net-(D5-Pad1)*%
X304120000Y-196500000D03*
X309200000Y-196500000D03*
%TO.P,F5,2*%
%TO.N,+12V*%
X294980000Y-196500000D03*
X300060000Y-196500000D03*
%TD*%
D10*
%TO.P,J2,1*%
%TO.N,Net-(FB4-Pad2)*%
X433075000Y-277727500D03*
D11*
%TO.P,J2,2*%
%TO.N,Net-(FB3-Pad2)*%
X428075000Y-277727500D03*
%TD*%
D10*
%TO.P,J3,1*%
%TO.N,Net-(FB22-Pad2)*%
X448075000Y-277727500D03*
D11*
%TO.P,J3,2*%
%TO.N,Net-(FB21-Pad2)*%
X443075000Y-277727500D03*
%TD*%
D10*
%TO.P,J16,1*%
%TO.N,Net-(J16-Pad1)*%
X253700000Y-183805000D03*
D11*
%TO.P,J16,2*%
%TO.N,GND*%
X258700000Y-183805000D03*
%TD*%
D12*
%TO.P,F4,1*%
%TO.N,Net-(D4-Pad1)*%
X283500000Y-196500000D03*
X278420000Y-196500000D03*
%TO.P,F4,2*%
%TO.N,+12V*%
X274360000Y-196500000D03*
X269280000Y-196500000D03*
%TD*%
%TO.P,F8,1*%
%TO.N,Net-(D8-Pad1)*%
X387700000Y-196405000D03*
X382620000Y-196405000D03*
%TO.P,F8,2*%
%TO.N,+12V*%
X373480000Y-196405000D03*
X378560000Y-196405000D03*
%TD*%
D14*
%TO.P,D5,1,K*%
%TO.N,Net-(D5-Pad1)*%
X298890000Y-225500000D03*
D15*
%TO.P,D5,2,A*%
%TO.N,Net-(D5-Pad2)*%
X306510000Y-225500000D03*
%TD*%
D10*
%TO.P,J36,1*%
%TO.N,Net-(J36-Pad1)*%
X346700000Y-183710000D03*
D11*
%TO.P,J36,2*%
%TO.N,Net-(J36-Pad2)*%
X351700000Y-183710000D03*
%TD*%
D14*
%TO.P,A1,1,D1/TX*%
%TO.N,unconnected-(A1-Pad1)*%
X458420000Y-244105000D03*
D15*
%TO.P,A1,2,D0/RX*%
%TO.N,unconnected-(A1-Pad2)*%
X458420000Y-246645000D03*
%TO.P,A1,3,~{RESET}*%
%TO.N,unconnected-(A1-Pad3)*%
X458420000Y-249185000D03*
%TO.P,A1,4,GND*%
%TO.N,GND*%
X458420000Y-251725000D03*
%TO.P,A1,5,D2*%
%TO.N,unconnected-(A1-Pad5)*%
X458420000Y-254265000D03*
%TO.P,A1,6,D3*%
%TO.N,unconnected-(A1-Pad6)*%
X458420000Y-256805000D03*
%TO.P,A1,7,D4*%
%TO.N,unconnected-(A1-Pad7)*%
X458420000Y-259345000D03*
%TO.P,A1,8,D5*%
%TO.N,unconnected-(A1-Pad8)*%
X458420000Y-261885000D03*
%TO.P,A1,9,D6*%
%TO.N,unconnected-(A1-Pad9)*%
X458420000Y-264425000D03*
%TO.P,A1,10,D7*%
%TO.N,/PWM10*%
X458420000Y-266965000D03*
%TO.P,A1,11,D8*%
%TO.N,unconnected-(A1-Pad11)*%
X458420000Y-269505000D03*
%TO.P,A1,12,D9*%
%TO.N,unconnected-(A1-Pad12)*%
X458420000Y-272045000D03*
%TO.P,A1,13,D10*%
%TO.N,/SS10*%
X458420000Y-274585000D03*
%TO.P,A1,14,D11*%
%TO.N,/SS11*%
X458420000Y-277125000D03*
%TO.P,A1,15,D12*%
%TO.N,/DATA4*%
X458420000Y-279665000D03*
%TO.P,A1,16,D13*%
%TO.N,/CLK4*%
X473660000Y-279665000D03*
%TO.P,A1,17,3V3*%
%TO.N,unconnected-(A1-Pad17)*%
X473660000Y-277125000D03*
%TO.P,A1,18,AREF*%
%TO.N,unconnected-(A1-Pad18)*%
X473660000Y-274585000D03*
%TO.P,A1,19,A0*%
%TO.N,unconnected-(A1-Pad19)*%
X473660000Y-272045000D03*
%TO.P,A1,20,A1*%
%TO.N,unconnected-(A1-Pad20)*%
X473660000Y-269505000D03*
%TO.P,A1,21,A2*%
%TO.N,unconnected-(A1-Pad21)*%
X473660000Y-266965000D03*
%TO.P,A1,22,A3*%
%TO.N,unconnected-(A1-Pad22)*%
X473660000Y-264425000D03*
%TO.P,A1,23,A4*%
%TO.N,/I2C_DAT*%
X473660000Y-261885000D03*
%TO.P,A1,24,A5*%
%TO.N,/I2C_CLK*%
X473660000Y-259345000D03*
%TO.P,A1,25,A6*%
%TO.N,unconnected-(A1-Pad25)*%
X473660000Y-256805000D03*
%TO.P,A1,26,A7*%
%TO.N,unconnected-(A1-Pad26)*%
X473660000Y-254265000D03*
%TO.P,A1,27,+5V*%
%TO.N,+5V*%
X473660000Y-251725000D03*
%TO.P,A1,28,~{RESET}*%
%TO.N,unconnected-(A1-Pad28)*%
X473660000Y-249185000D03*
%TO.P,A1,29,GND*%
%TO.N,GND*%
X473660000Y-246645000D03*
%TO.P,A1,30,VIN*%
%TO.N,+12V*%
X473660000Y-244105000D03*
%TD*%
D10*
%TO.P,J32,1*%
%TO.N,Net-(J32-Pad1)*%
X320700000Y-183805000D03*
D11*
%TO.P,J32,2*%
%TO.N,Net-(J32-Pad2)*%
X325700000Y-183805000D03*
%TD*%
D12*
%TO.P,F9,1*%
%TO.N,Net-(D9-Pad1)*%
X408700000Y-196405000D03*
X413780000Y-196405000D03*
%TO.P,F9,2*%
%TO.N,+12V*%
X404640000Y-196405000D03*
X399560000Y-196405000D03*
%TD*%
D18*
%TO.P,K10,1*%
%TO.N,Net-(D10-Pad2)*%
X436700000Y-221280000D03*
D19*
%TO.P,K10,2*%
%TO.N,Net-(J48-Pad1)*%
X436700000Y-211120000D03*
%TO.P,K10,3*%
%TO.N,Net-(J47-Pad2)*%
X436700000Y-203500000D03*
%TO.P,K10,4*%
%TO.N,Net-(J47-Pad1)*%
X429080000Y-206040000D03*
%TO.P,K10,5*%
%TO.N,Net-(D10-Pad1)*%
X429080000Y-221280000D03*
%TD*%
D18*
%TO.P,K7,1*%
%TO.N,Net-(D7-Pad2)*%
X359000000Y-221280000D03*
D19*
%TO.P,K7,2*%
%TO.N,Net-(J37-Pad1)*%
X359000000Y-211120000D03*
%TO.P,K7,3*%
%TO.N,Net-(J36-Pad2)*%
X359000000Y-203500000D03*
%TO.P,K7,4*%
%TO.N,Net-(J36-Pad1)*%
X351380000Y-206040000D03*
%TO.P,K7,5*%
%TO.N,Net-(D7-Pad1)*%
X351380000Y-221280000D03*
%TD*%
D10*
%TO.P,J23,1*%
%TO.N,Net-(FB10-Pad2)*%
X292468315Y-277766676D03*
D11*
%TO.P,J23,2*%
%TO.N,Net-(FB9-Pad2)*%
X287468315Y-277766676D03*
%TD*%
D12*
%TO.P,F1,1*%
%TO.N,Net-(D1-Pad1)*%
X226120000Y-196500000D03*
X231200000Y-196500000D03*
%TO.P,F1,2*%
%TO.N,+12V*%
X216980000Y-196500000D03*
X222060000Y-196500000D03*
%TD*%
%TO.P,F10,1*%
%TO.N,Net-(D10-Pad1)*%
X434620000Y-196405000D03*
X439700000Y-196405000D03*
%TO.P,F10,2*%
%TO.N,+12V*%
X430560000Y-196405000D03*
X425480000Y-196405000D03*
%TD*%
%TO.P,F2,1*%
%TO.N,Net-(D2-Pad1)*%
X460570000Y-196405000D03*
X465650000Y-196405000D03*
%TO.P,F2,2*%
%TO.N,+12V*%
X451430000Y-196405000D03*
X456510000Y-196405000D03*
%TD*%
D13*
%TO.P,,1*%
%TO.N,N/C*%
X314500000Y-247500000D03*
%TD*%
D18*
%TO.P,K6,1*%
%TO.N,Net-(D6-Pad2)*%
X332500000Y-221375000D03*
D19*
%TO.P,K6,2*%
%TO.N,Net-(J33-Pad1)*%
X332500000Y-211215000D03*
%TO.P,K6,3*%
%TO.N,Net-(J32-Pad2)*%
X332500000Y-203595000D03*
%TO.P,K6,4*%
%TO.N,Net-(J32-Pad1)*%
X324880000Y-206135000D03*
%TO.P,K6,5*%
%TO.N,Net-(D6-Pad1)*%
X324880000Y-221375000D03*
%TD*%
D13*
%TO.P,H1,1*%
%TO.N,N/C*%
X237000000Y-212595000D03*
%TD*%
D10*
%TO.P,J30,1*%
%TO.N,Net-(FB12-Pad2)*%
X307468315Y-277766676D03*
D11*
%TO.P,J30,2*%
%TO.N,Net-(FB11-Pad2)*%
X302468315Y-277766676D03*
%TD*%
D14*
%TO.P,D3,1,K*%
%TO.N,Net-(D3-Pad1)*%
X246890000Y-225500000D03*
D15*
%TO.P,D3,2,A*%
%TO.N,Net-(D3-Pad2)*%
X254510000Y-225500000D03*
%TD*%
D24*
%TO.N,/THRM1*%
X488000000Y-228500000D03*
%TO.N,/BR1*%
X483500000Y-229500000D03*
%TO.N,/DIR1*%
X482500000Y-228000000D03*
%TO.N,/MC1*%
X489000000Y-223500000D03*
%TO.N,/DATA3*%
X395000000Y-261500000D03*
%TO.N,/CLK3*%
X387500000Y-259000000D03*
%TO.N,/I2C_DAT*%
X479500000Y-238000000D03*
X425500000Y-238000000D03*
X356500000Y-238000000D03*
%TO.N,/I2C_CLK*%
X355000000Y-236000000D03*
X478000000Y-236000000D03*
X424000000Y-236000000D03*
%TO.N,/CSEN1*%
X495000000Y-205500000D03*
%TO.N,+5V*%
X493000000Y-236000000D03*
X353018315Y-233500000D03*
X476300000Y-233500000D03*
X427000000Y-233500000D03*
X422000000Y-233500000D03*
X218800000Y-237000000D03*
X358000000Y-233500000D03*
%TO.N,+12V*%
X349518315Y-231000000D03*
X420000000Y-231000000D03*
X473500000Y-231000000D03*
X275800000Y-231000000D03*
%TO.N,/SS2*%
X231500000Y-256600000D03*
%TO.N,/DATA1*%
X252500000Y-261500000D03*
%TO.N,/CLK1*%
X243500000Y-259000000D03*
%TO.N,/DATA4*%
X449170000Y-261500000D03*
%TO.N,/CLK4*%
X441500000Y-259000000D03*
%TO.N,/SS5*%
X302300000Y-257200000D03*
%TO.N,/DATA2*%
X324218315Y-261194176D03*
%TO.N,/CLK2*%
X315218315Y-259194176D03*
%TO.N,/SS8*%
X374300000Y-256700000D03*
%TD*%
D25*
%TO.N,+5V*%
X222300000Y-233500000D02*
X218800000Y-237000000D01*
X292200000Y-233500000D02*
X222300000Y-233500000D01*
D26*
X278025000Y-251775000D02*
X275740000Y-251775000D01*
X292018315Y-233500000D02*
X279800000Y-245718315D01*
X279800000Y-250000000D02*
X278025000Y-251775000D01*
X292200000Y-233500000D02*
X353018315Y-233500000D01*
X292200000Y-233500000D02*
X292018315Y-233500000D01*
X279800000Y-245718315D02*
X279800000Y-250000000D01*
X476300000Y-233500000D02*
X427000000Y-233500000D01*
X490500000Y-233500000D02*
X493000000Y-236000000D01*
X476300000Y-233500000D02*
X490500000Y-233500000D01*
D25*
%TO.N,/SS8*%
X400910000Y-271890000D02*
X403500000Y-274480000D01*
X400910000Y-260410000D02*
X400910000Y-271890000D01*
X374300000Y-256700000D02*
X374600000Y-257000000D01*
X374600000Y-257000000D02*
X397500000Y-257000000D01*
X397500000Y-257000000D02*
X400910000Y-260410000D01*
%TO.N,/SS5*%
X330000000Y-270936685D02*
X333648315Y-274585000D01*
X323694176Y-256194176D02*
X330000000Y-262500000D01*
X330000000Y-262500000D02*
X330000000Y-270936685D01*
X303305824Y-256194176D02*
X323694176Y-256194176D01*
X333648315Y-274585000D02*
X334108315Y-274585000D01*
X302300000Y-257200000D02*
X303305824Y-256194176D01*
%TO.N,/SS2*%
X258000000Y-264000000D02*
X258000000Y-273155000D01*
X258000000Y-273155000D02*
X259480000Y-274635000D01*
X251000000Y-257000000D02*
X258000000Y-264000000D01*
X231900000Y-257000000D02*
X251000000Y-257000000D01*
X231500000Y-256600000D02*
X231900000Y-257000000D01*
X259480000Y-274635000D02*
X260500000Y-274635000D01*
%TO.N,/THRM1*%
X488000000Y-228500000D02*
X488150489Y-228349511D01*
X490870000Y-227130000D02*
X490870000Y-201915000D01*
X489650489Y-228349511D02*
X490870000Y-227130000D01*
X488150489Y-228349511D02*
X489650489Y-228349511D01*
%TO.N,/BR1*%
X483500000Y-229500000D02*
X485000000Y-228000000D01*
X485000000Y-214500000D02*
X482370000Y-211870000D01*
X485000000Y-228000000D02*
X485000000Y-214500000D01*
X482370000Y-211870000D02*
X482370000Y-196835000D01*
%TO.N,/DIR1*%
X480670000Y-213159270D02*
X480670000Y-201915000D01*
X483500000Y-215989270D02*
X480670000Y-213159270D01*
X482500000Y-228000000D02*
X483500000Y-227000000D01*
X483500000Y-227000000D02*
X483500000Y-215989270D01*
%TO.N,/MC1*%
X487000000Y-204845000D02*
X484070000Y-201915000D01*
X487000000Y-221500000D02*
X487000000Y-204845000D01*
X489000000Y-223500000D02*
X487000000Y-221500000D01*
%TO.N,/DATA3*%
X395000000Y-261500000D02*
X399500000Y-266000000D01*
X399500000Y-275560000D02*
X403500000Y-279560000D01*
X399500000Y-266000000D02*
X399500000Y-275560000D01*
%TO.N,/CLK3*%
X418740000Y-279560000D02*
X408745000Y-279560000D01*
X397410000Y-278895000D02*
X397410000Y-267910000D01*
X401410000Y-282895000D02*
X397410000Y-278895000D01*
X405410000Y-282895000D02*
X401410000Y-282895000D01*
X408745000Y-279560000D02*
X405410000Y-282895000D01*
X397410000Y-267910000D02*
X388500000Y-259000000D01*
X388500000Y-259000000D02*
X387500000Y-259000000D01*
%TO.N,/A1*%
X511000000Y-195500000D02*
X506685000Y-191185000D01*
X506685000Y-191185000D02*
X504500000Y-191185000D01*
X500330000Y-272045000D02*
X511000000Y-261375000D01*
X511000000Y-261375000D02*
X511000000Y-195500000D01*
%TO.N,/B1*%
X504500000Y-193725000D02*
X506725000Y-193725000D01*
X506725000Y-193725000D02*
X510000000Y-197000000D01*
X510000000Y-259835000D02*
X500330000Y-269505000D01*
X510000000Y-197000000D02*
X510000000Y-259835000D01*
D27*
%TO.N,/I2C_DAT*%
X486000000Y-238000000D02*
X492000000Y-244000000D01*
X284518315Y-248500000D02*
X284518315Y-256500000D01*
X496885000Y-261885000D02*
X500330000Y-261885000D01*
X492000000Y-244000000D02*
X492000000Y-257000000D01*
X284518315Y-256500000D02*
X279083315Y-261935000D01*
X479500000Y-238000000D02*
X486000000Y-238000000D01*
X295018315Y-238000000D02*
X284518315Y-248500000D01*
X425500000Y-238000000D02*
X356500000Y-238000000D01*
X425500000Y-238000000D02*
X479500000Y-238000000D01*
X492000000Y-257000000D02*
X496885000Y-261885000D01*
X278865000Y-261935000D02*
X275740000Y-261935000D01*
X356500000Y-238000000D02*
X295018315Y-238000000D01*
%TO.N,/I2C_CLK*%
X293018315Y-236000000D02*
X282518315Y-246500000D01*
X494000000Y-243000000D02*
X494000000Y-256000000D01*
X497345000Y-259345000D02*
X500330000Y-259345000D01*
X278405000Y-259395000D02*
X275740000Y-259395000D01*
X282518315Y-255281685D02*
X278405000Y-259395000D01*
X424000000Y-236000000D02*
X355000000Y-236000000D01*
X478000000Y-236000000D02*
X424000000Y-236000000D01*
X478000000Y-236000000D02*
X487000000Y-236000000D01*
X355000000Y-236000000D02*
X293018315Y-236000000D01*
X494000000Y-256000000D02*
X497345000Y-259345000D01*
X487000000Y-236000000D02*
X494000000Y-243000000D01*
X282518315Y-246500000D02*
X282518315Y-255281685D01*
D25*
%TO.N,/CSEN1*%
X501695000Y-256805000D02*
X500330000Y-256805000D01*
X495000000Y-205500000D02*
X509000000Y-219500000D01*
X509000000Y-219500000D02*
X509000000Y-249500000D01*
X509000000Y-249500000D02*
X501695000Y-256805000D01*
D26*
%TO.N,+5V*%
X496500000Y-247895000D02*
X500330000Y-251725000D01*
X496500000Y-239500000D02*
X496500000Y-247895000D01*
X358518315Y-233500000D02*
X353018315Y-233500000D01*
X427000000Y-233500000D02*
X422000000Y-233500000D01*
X422000000Y-233500000D02*
X358000000Y-233500000D01*
X493000000Y-236000000D02*
X496500000Y-239500000D01*
%TO.N,+12V*%
X363500000Y-231000000D02*
X347500000Y-231000000D01*
X430560000Y-193795000D02*
X432450000Y-191905000D01*
X326060000Y-196500000D02*
X326060000Y-194390000D01*
X484500000Y-180000000D02*
X486700000Y-182200000D01*
X406700000Y-191905000D02*
X423200000Y-191905000D01*
X269280000Y-230780000D02*
X269500000Y-231000000D01*
X248110000Y-193590000D02*
X249450000Y-192250000D01*
X373480000Y-194435000D02*
X373480000Y-196405000D01*
X269280000Y-194330000D02*
X269280000Y-196500000D01*
X241200000Y-192500000D02*
X243030000Y-194330000D01*
X223950000Y-192500000D02*
X241200000Y-192500000D01*
X473500000Y-216500000D02*
X470500000Y-213500000D01*
X397700000Y-191905000D02*
X399560000Y-193765000D01*
X300060000Y-194390000D02*
X301950000Y-192500000D01*
X267200000Y-192250000D02*
X269280000Y-194330000D01*
X451430000Y-194135000D02*
X451430000Y-196405000D01*
X380950000Y-191905000D02*
X397700000Y-191905000D01*
X425480000Y-196405000D02*
X425480000Y-230980000D01*
X301950000Y-192500000D02*
X319450000Y-192500000D01*
X399560000Y-193765000D02*
X399560000Y-196405000D01*
X243030000Y-230970000D02*
X243000000Y-231000000D01*
X327950000Y-192500000D02*
X345795000Y-192500000D01*
X270030000Y-196500000D02*
X275110000Y-196500000D01*
X294980000Y-195905000D02*
X294980000Y-230980000D01*
X451430000Y-196405000D02*
X451430000Y-230930000D01*
X320980000Y-194030000D02*
X320980000Y-196500000D01*
X292700000Y-192500000D02*
X294980000Y-194780000D01*
X399500000Y-231000000D02*
X373500000Y-231000000D01*
X290000000Y-231000000D02*
X269500000Y-231000000D01*
X347480000Y-196405000D02*
X347480000Y-230980000D01*
X504000000Y-231000000D02*
X506500000Y-228500000D01*
X243030000Y-196550000D02*
X243080000Y-196500000D01*
X404640000Y-196405000D02*
X404640000Y-193965000D01*
X473500000Y-231000000D02*
X504000000Y-231000000D01*
X345795000Y-192500000D02*
X347480000Y-194185000D01*
X451430000Y-196405000D02*
X456510000Y-196405000D01*
X425480000Y-230980000D02*
X425500000Y-231000000D01*
X216980000Y-196500000D02*
X222060000Y-196500000D01*
X354450000Y-191905000D02*
X370950000Y-191905000D01*
X276700000Y-192500000D02*
X292700000Y-192500000D01*
X269500000Y-231000000D02*
X243000000Y-231000000D01*
X486700000Y-182200000D02*
X486700000Y-183660000D01*
X373480000Y-196405000D02*
X373480000Y-230980000D01*
X347500000Y-231000000D02*
X321000000Y-231000000D01*
X347480000Y-194185000D02*
X347480000Y-196405000D01*
X399560000Y-196405000D02*
X399560000Y-230940000D01*
X275110000Y-196500000D02*
X275110000Y-194090000D01*
X399560000Y-196405000D02*
X404640000Y-196405000D01*
X352560000Y-193795000D02*
X354450000Y-191905000D01*
X294980000Y-230980000D02*
X295000000Y-231000000D01*
X432450000Y-191905000D02*
X449200000Y-191905000D01*
X352560000Y-196405000D02*
X352560000Y-193795000D01*
X378560000Y-196405000D02*
X378560000Y-194295000D01*
X473500000Y-231000000D02*
X451500000Y-231000000D01*
X319450000Y-192500000D02*
X320980000Y-194030000D01*
X295000000Y-231000000D02*
X290000000Y-231000000D01*
X473500000Y-231000000D02*
X473500000Y-216500000D01*
X248060000Y-196500000D02*
X248110000Y-196550000D01*
X470500000Y-213500000D02*
X470500000Y-181500000D01*
X373480000Y-196405000D02*
X378560000Y-196405000D01*
X222060000Y-196500000D02*
X222060000Y-194390000D01*
X320980000Y-195905000D02*
X320980000Y-230980000D01*
X430560000Y-196405000D02*
X430560000Y-193795000D01*
X399560000Y-230940000D02*
X399500000Y-231000000D01*
X423200000Y-191905000D02*
X425480000Y-194185000D01*
X216980000Y-228980000D02*
X216980000Y-196500000D01*
X320980000Y-196500000D02*
X326060000Y-196500000D01*
X243080000Y-196500000D02*
X248060000Y-196500000D01*
X373500000Y-231000000D02*
X363500000Y-231000000D01*
X243000000Y-231000000D02*
X219000000Y-231000000D01*
X243030000Y-196550000D02*
X243030000Y-230970000D01*
X269280000Y-195905000D02*
X269280000Y-230780000D01*
X294980000Y-194780000D02*
X294980000Y-196500000D01*
X219000000Y-231000000D02*
X216980000Y-228980000D01*
X275110000Y-194090000D02*
X276700000Y-192500000D01*
X222060000Y-194390000D02*
X223950000Y-192500000D01*
X248110000Y-196550000D02*
X248110000Y-193590000D01*
X436500000Y-231000000D02*
X425500000Y-231000000D01*
X425480000Y-196405000D02*
X430560000Y-196405000D01*
X326060000Y-194390000D02*
X327950000Y-192500000D01*
X347480000Y-196405000D02*
X352560000Y-196405000D01*
X249450000Y-192250000D02*
X267200000Y-192250000D01*
X472000000Y-180000000D02*
X484500000Y-180000000D01*
X425480000Y-194185000D02*
X425480000Y-196405000D01*
X425500000Y-231000000D02*
X399500000Y-231000000D01*
X451500000Y-231000000D02*
X436500000Y-231000000D01*
X404640000Y-193965000D02*
X406700000Y-191905000D01*
X243030000Y-194330000D02*
X243030000Y-196550000D01*
X378560000Y-194295000D02*
X380950000Y-191905000D01*
X320980000Y-230980000D02*
X321000000Y-231000000D01*
X300060000Y-196500000D02*
X300060000Y-194390000D01*
X451500000Y-231000000D02*
X451430000Y-230930000D01*
X449200000Y-191905000D02*
X451430000Y-194135000D01*
X370950000Y-191905000D02*
X373480000Y-194435000D01*
X294980000Y-196500000D02*
X300060000Y-196500000D01*
X321000000Y-231000000D02*
X295000000Y-231000000D01*
X373480000Y-230980000D02*
X373500000Y-231000000D01*
X470500000Y-181500000D02*
X472000000Y-180000000D01*
X347480000Y-230980000D02*
X347500000Y-231000000D01*
D25*
%TO.N,/DATA1*%
X256500000Y-275715000D02*
X260500000Y-279715000D01*
X256500000Y-265500000D02*
X252500000Y-261500000D01*
X256500000Y-275715000D02*
X256500000Y-265500000D01*
%TO.N,/CLK1*%
X246000000Y-259000000D02*
X243500000Y-259000000D01*
X275740000Y-279715000D02*
X273300000Y-282155000D01*
X255000000Y-268000000D02*
X246000000Y-259000000D01*
X273300000Y-282155000D02*
X259500000Y-282155000D01*
X259500000Y-282155000D02*
X255000000Y-277655000D01*
X255000000Y-277655000D02*
X255000000Y-268000000D01*
%TO.N,/DATA4*%
X453500000Y-274745000D02*
X458420000Y-279665000D01*
X449170000Y-261500000D02*
X453500000Y-265830000D01*
X453500000Y-265830000D02*
X453500000Y-274745000D01*
%TO.N,/CLK4*%
X457500000Y-282500000D02*
X470825000Y-282500000D01*
X441500000Y-259000000D02*
X444500000Y-259000000D01*
X452000000Y-266500000D02*
X452000000Y-277000000D01*
X452000000Y-277000000D02*
X457500000Y-282500000D01*
X470825000Y-282500000D02*
X473660000Y-279665000D01*
X444500000Y-259000000D02*
X452000000Y-266500000D01*
%TO.N,/DATA2*%
X324218315Y-261218315D02*
X328000000Y-265000000D01*
X328000000Y-273556685D02*
X334108315Y-279665000D01*
X328000000Y-265000000D02*
X328000000Y-273556685D01*
X324218315Y-261194176D02*
X324218315Y-261218315D01*
%TO.N,/CLK2*%
X324000000Y-266475861D02*
X316718315Y-259194176D01*
X349348315Y-279665000D02*
X346858315Y-282155000D01*
X326218315Y-275155000D02*
X326218315Y-268718315D01*
X326218315Y-268718315D02*
X324000000Y-266500000D01*
X316718315Y-259194176D02*
X315218315Y-259194176D01*
X324000000Y-266500000D02*
X324000000Y-266475861D01*
X346858315Y-282155000D02*
X333218315Y-282155000D01*
X333218315Y-282155000D02*
X326218315Y-275155000D01*
D26*
%TO.N,Net-(C7-Pad2)*%
X479200000Y-187839511D02*
X482360489Y-191000000D01*
X490500000Y-191000000D02*
X492570000Y-193070000D01*
X492570000Y-193070000D02*
X492570000Y-196835000D01*
X479200000Y-183655000D02*
X479200000Y-187839511D01*
X482360489Y-191000000D02*
X490500000Y-191000000D01*
%TD*%
M02*
