M48
; DRILL file {KiCad (6.0.4)} date Tue Mar  7 14:55:26 2023
; FORMAT={-:-/ absolute / inch / decimal}
; #@! TF.CreationDate,2023-03-07T14:55:26-05:00
; #@! TF.GenerationSoftware,Kicad,Pcbnew,(6.0.4)
; #@! TF.FileFunction,Plated,1,2,PTH
FMAT,2
INCH
; #@! TA.AperFunction,Plated,PTH,ViaDrill
T1C0.0197
; #@! TA.AperFunction,Plated,PTH,ComponentDrill
T2C0.0315
; #@! TA.AperFunction,Plated,PTH,ComponentDrill
T3C0.0394
; #@! TA.AperFunction,Plated,PTH,ComponentDrill
T4C0.0433
; #@! TA.AperFunction,Plated,PTH,ComponentDrill
T5C0.0512
; #@! TA.AperFunction,Plated,PTH,ComponentDrill
T6C0.0630
; #@! TA.AperFunction,Plated,PTH,ComponentDrill
T7C0.1000
; #@! TA.AperFunction,Plated,PTH,ComponentDrill
T8C0.1260
%
G90
G05
T1
X8.6142Y-9.3307
X9.1142Y-10.1024
X9.5866Y-10.1969
X9.9409Y-10.2953
X10.8583Y-9.0945
X11.9016Y-10.126
X12.4102Y-10.2045
X12.7645Y-10.2832
X13.7606Y-9.0945
X13.8984Y-9.1929
X13.9764Y-9.2913
X14.0354Y-9.3701
X14.0945Y-9.1929
X14.7362Y-10.1063
X15.2559Y-10.1969
X15.5512Y-10.2953
X16.5354Y-9.0945
X16.6142Y-9.1929
X16.6929Y-9.2913
X16.752Y-9.3701
X16.811Y-9.1929
X17.3819Y-10.1969
X17.6839Y-10.2953
X18.6417Y-9.0945
X18.752Y-9.1929
X18.8189Y-9.2913
X18.878Y-9.3701
X18.9961Y-8.9764
X19.0354Y-9.0354
X19.2126Y-8.9961
X19.252Y-8.7992
X19.4094Y-9.2913
X19.4882Y-8.0906
T2
X8.7063Y-8.878
X9.0063Y-8.878
X9.7201Y-8.878
X10.0201Y-8.878
X10.7437Y-8.878
X11.0437Y-8.878
X11.7673Y-8.878
X12.0673Y-8.878
X12.7909Y-8.878
X13.0909Y-8.878
X13.8343Y-8.8742
X14.1343Y-8.8742
X14.8579Y-8.8742
X15.1579Y-8.8742
X15.8815Y-8.8742
X16.1815Y-8.8742
X16.8953Y-8.8742
X17.1953Y-8.8742
X17.9209Y-8.8742
X18.2209Y-8.8742
T3
X10.2559Y-9.6124
X10.2559Y-9.7124
X10.2559Y-9.8124
X10.2559Y-9.9124
X10.2559Y-10.0124
X10.2559Y-10.1124
X10.2559Y-10.2124
X10.2559Y-10.3124
X10.2559Y-10.4124
X10.2559Y-10.5124
X10.2559Y-10.6124
X10.2559Y-10.7124
X10.2559Y-10.8124
X10.2559Y-10.9124
X10.2559Y-11.0124
X10.8559Y-9.6124
X10.8559Y-9.7124
X10.8559Y-9.8124
X10.8559Y-9.9124
X10.8559Y-10.0124
X10.8559Y-10.1124
X10.8559Y-10.2124
X10.8559Y-10.3124
X10.8559Y-10.4124
X10.8559Y-10.5124
X10.8559Y-10.6124
X10.8559Y-10.7124
X10.8559Y-10.8124
X10.8559Y-10.9124
X10.8559Y-11.0124
X13.1539Y-9.6104
X13.1539Y-9.7104
X13.1539Y-9.8104
X13.1539Y-9.9104
X13.1539Y-10.0104
X13.1539Y-10.1104
X13.1539Y-10.2104
X13.1539Y-10.3104
X13.1539Y-10.4104
X13.1539Y-10.5104
X13.1539Y-10.6104
X13.1539Y-10.7104
X13.1539Y-10.8104
X13.1539Y-10.9104
X13.1539Y-11.0104
X13.7539Y-9.6104
X13.7539Y-9.7104
X13.7539Y-9.8104
X13.7539Y-9.9104
X13.7539Y-10.0104
X13.7539Y-10.1104
X13.7539Y-10.2104
X13.7539Y-10.3104
X13.7539Y-10.4104
X13.7539Y-10.5104
X13.7539Y-10.6104
X13.7539Y-10.7104
X13.7539Y-10.8104
X13.7539Y-10.9104
X13.7539Y-11.0104
X15.8858Y-9.6063
X15.8858Y-9.7063
X15.8858Y-9.8063
X15.8858Y-9.9063
X15.8858Y-10.0063
X15.8858Y-10.1063
X15.8858Y-10.2063
X15.8858Y-10.3063
X15.8858Y-10.4063
X15.8858Y-10.5063
X15.8858Y-10.6063
X15.8858Y-10.7063
X15.8858Y-10.8063
X15.8858Y-10.9063
X15.8858Y-11.0063
X16.4858Y-9.6063
X16.4858Y-9.7063
X16.4858Y-9.8063
X16.4858Y-9.9063
X16.4858Y-10.0063
X16.4858Y-10.1063
X16.4858Y-10.2063
X16.4858Y-10.3063
X16.4858Y-10.4063
X16.4858Y-10.5063
X16.4858Y-10.6063
X16.4858Y-10.7063
X16.4858Y-10.8063
X16.4858Y-10.9063
X16.4858Y-11.0063
X18.048Y-9.6104
X18.048Y-9.7104
X18.048Y-9.8104
X18.048Y-9.9104
X18.048Y-10.0104
X18.048Y-10.1104
X18.048Y-10.2104
X18.048Y-10.3104
X18.048Y-10.4104
X18.048Y-10.5104
X18.048Y-10.6104
X18.048Y-10.7104
X18.048Y-10.8104
X18.048Y-10.9104
X18.048Y-11.0104
X18.648Y-9.6104
X18.648Y-9.7104
X18.648Y-9.8104
X18.648Y-9.9104
X18.648Y-10.0104
X18.648Y-10.1104
X18.648Y-10.2104
X18.648Y-10.3104
X18.648Y-10.4104
X18.648Y-10.5104
X18.648Y-10.6104
X18.648Y-10.7104
X18.648Y-10.8104
X18.648Y-10.9104
X18.648Y-11.0104
X18.7902Y-7.9494
X18.8571Y-7.7494
X18.924Y-7.9494
X18.9909Y-7.7494
X19.0579Y-7.9494
X19.0614Y-7.2307
X19.098Y-9.6104
X19.098Y-9.7104
X19.098Y-9.8104
X19.098Y-9.9104
X19.098Y-10.0104
X19.098Y-10.1104
X19.098Y-10.2104
X19.098Y-10.3104
X19.098Y-10.4104
X19.098Y-10.5104
X19.098Y-10.6104
X19.098Y-10.7104
X19.098Y-10.8104
X19.098Y-10.9104
X19.098Y-11.0104
X19.1248Y-7.7494
X19.1614Y-7.2307
X19.1917Y-7.9494
X19.2587Y-7.7494
X19.2614Y-7.2307
X19.3256Y-7.9494
X19.3925Y-7.7494
X19.4594Y-7.9494
X19.698Y-9.6104
X19.698Y-9.7104
X19.698Y-9.8104
X19.698Y-9.9104
X19.698Y-10.0104
X19.698Y-10.1104
X19.698Y-10.2104
X19.698Y-10.3104
X19.698Y-10.4104
X19.698Y-10.5104
X19.698Y-10.6104
X19.698Y-10.7104
X19.698Y-10.8104
X19.698Y-10.9104
X19.698Y-11.0104
X19.8622Y-8.0884
X19.8622Y-8.1884
X19.8622Y-8.2884
T4
X19.8622Y-7.527
X19.8622Y-7.627
X19.8622Y-7.727
X19.8622Y-7.827
T5
X8.5315Y-7.2364
X8.5433Y-10.9281
X8.7059Y-8.1156
X8.7059Y-8.7156
X8.7283Y-7.2364
X8.7402Y-10.9281
X8.9646Y-7.2364
X9.0059Y-8.0156
X9.0059Y-8.3156
X9.0059Y-8.7156
X9.0945Y-10.9281
X9.1614Y-7.2364
X9.2913Y-10.9281
X9.5551Y-7.2364
X9.6654Y-10.9281
X9.7197Y-8.1156
X9.7197Y-8.7156
X9.752Y-7.2364
X9.8622Y-10.9281
X9.9882Y-7.2364
X10.0197Y-8.0156
X10.0197Y-8.3156
X10.0197Y-8.7156
X10.185Y-7.2364
X10.5787Y-7.2364
X10.7433Y-8.1156
X10.7433Y-8.7156
X10.7756Y-7.2364
X11.0118Y-7.2364
X11.0433Y-8.0156
X11.0433Y-8.3156
X11.0433Y-8.7156
X11.2087Y-7.2364
X11.3177Y-10.9357
X11.5145Y-10.9357
X11.6024Y-7.2364
X11.7669Y-8.1156
X11.7669Y-8.7156
X11.7992Y-7.2364
X11.9082Y-10.9357
X12.0354Y-7.2364
X12.0669Y-8.0156
X12.0669Y-8.3156
X12.0669Y-8.7156
X12.1051Y-10.9357
X12.2323Y-7.2364
X12.4988Y-10.9357
X12.626Y-7.2364
X12.6956Y-10.9357
X12.7906Y-8.1156
X12.7906Y-8.7156
X12.8228Y-7.2364
X13.0591Y-7.2364
X13.0906Y-8.0156
X13.0906Y-8.3156
X13.0906Y-8.7156
X13.2559Y-7.2364
X13.6496Y-7.2327
X13.8339Y-8.1118
X13.8339Y-8.7118
X13.8465Y-7.2327
X14.0827Y-7.2327
X14.1339Y-8.0118
X14.1339Y-8.3118
X14.1339Y-8.7118
X14.1417Y-10.9342
X14.2795Y-7.2327
X14.3386Y-10.9342
X14.6732Y-7.2327
X14.7323Y-10.9342
X14.8575Y-8.1118
X14.8575Y-8.7118
X14.8701Y-7.2327
X14.9291Y-10.9342
X15.1063Y-7.2327
X15.1575Y-8.0118
X15.1575Y-8.3118
X15.1575Y-8.7118
X15.3031Y-7.2327
X15.3228Y-10.9342
X15.5197Y-10.9342
X15.6969Y-7.2327
X15.8811Y-8.1118
X15.8811Y-8.7118
X15.8937Y-7.2327
X16.1299Y-7.2327
X16.1811Y-8.0118
X16.1811Y-8.3118
X16.1811Y-8.7118
X16.3268Y-7.2327
X16.7205Y-7.2327
X16.8533Y-10.9342
X16.8929Y-8.1118
X16.8929Y-8.7118
X16.9173Y-7.2327
X17.0502Y-10.9342
X17.1535Y-7.2327
X17.1929Y-8.0118
X17.1929Y-8.3118
X17.1929Y-8.7118
X17.3504Y-7.2327
X17.4439Y-10.9342
X17.6407Y-10.9342
X17.7441Y-7.2327
X17.9215Y-8.1118
X17.9215Y-8.7118
X17.9409Y-7.2327
X18.1772Y-7.2327
X18.2215Y-8.0118
X18.2215Y-8.3118
X18.2215Y-8.7118
X18.374Y-7.2327
X18.6693Y-7.2305
X18.8661Y-7.2305
X19.4567Y-7.2307
X19.6535Y-7.2307
T6
X19.7047Y-8.9961
X19.8228Y-8.811
X19.9409Y-8.9961
T7
X8.5425Y-7.7362
X8.7425Y-7.7362
X8.9024Y-7.7362
X9.1024Y-7.7362
X9.5681Y-7.7382
X9.7681Y-7.7382
X9.928Y-7.7382
X10.128Y-7.7382
X10.6016Y-7.7362
X10.8016Y-7.7362
X10.9614Y-7.7362
X11.1614Y-7.7362
X11.6134Y-7.7362
X11.8134Y-7.7362
X11.9732Y-7.7362
X12.1732Y-7.7362
X12.637Y-7.7362
X12.837Y-7.7362
X12.9969Y-7.7362
X13.1969Y-7.7362
X13.6803Y-7.7325
X13.8803Y-7.7325
X14.0402Y-7.7325
X14.2402Y-7.7325
X14.7039Y-7.7325
X14.9039Y-7.7325
X15.0638Y-7.7325
X15.2638Y-7.7325
X15.7307Y-7.7325
X15.9307Y-7.7325
X16.0906Y-7.7325
X16.2906Y-7.7325
X16.7512Y-7.7325
X16.9512Y-7.7325
X17.111Y-7.7325
X17.311Y-7.7325
X17.7728Y-7.7325
X17.9728Y-7.7325
X18.1327Y-7.7325
X18.3327Y-7.7325
T8
X9.3307Y-8.3699
X9.3307Y-9.7441
X12.3819Y-8.3661
X12.3819Y-9.7441
X14.4882Y-8.3661
X14.4882Y-9.7441
X17.5394Y-8.3661
X17.5394Y-9.7441
X19.9606Y-7.126
X19.9606Y-11.0433
T0
M30
