%TF.GenerationSoftware,KiCad,Pcbnew,(6.0.4)*%
%TF.CreationDate,2023-03-07T14:55:24-05:00*%
%TF.ProjectId,Pyrolysis,5079726f-6c79-4736-9973-2e6b69636164,rev?*%
%TF.SameCoordinates,Original*%
%TF.FileFunction,Legend,Bot*%
%TF.FilePolarity,Positive*%
%FSLAX46Y46*%
G04 Gerber Fmt 4.6, Leading zero omitted, Abs format (unit mm)*
G04 Created by KiCad (PCBNEW (6.0.4)) date 2023-03-07 14:55:24*
%MOMM*%
%LPD*%
G01*
G04 APERTURE LIST*
%ADD10C,0.101600*%
%ADD11C,0.150000*%
%ADD12C,0.203200*%
%ADD13C,0.200000*%
%ADD14C,0.120000*%
G04 APERTURE END LIST*
D10*
%TO.C,U21*%
X379314523Y-259190119D02*
X380342619Y-259190119D01*
X380463571Y-259250595D01*
X380524047Y-259311071D01*
X380584523Y-259432023D01*
X380584523Y-259673928D01*
X380524047Y-259794880D01*
X380463571Y-259855357D01*
X380342619Y-259915833D01*
X379314523Y-259915833D01*
X379435476Y-260460119D02*
X379375000Y-260520595D01*
X379314523Y-260641547D01*
X379314523Y-260943928D01*
X379375000Y-261064880D01*
X379435476Y-261125357D01*
X379556428Y-261185833D01*
X379677380Y-261185833D01*
X379858809Y-261125357D01*
X380584523Y-260399642D01*
X380584523Y-261185833D01*
X380584523Y-262395357D02*
X380584523Y-261669642D01*
X380584523Y-262032500D02*
X379314523Y-262032500D01*
X379495952Y-261911547D01*
X379616904Y-261790595D01*
X379677380Y-261669642D01*
D11*
%TO.C,C2*%
X430679166Y-270239642D02*
X430726785Y-270287261D01*
X430869642Y-270334880D01*
X430964880Y-270334880D01*
X431107738Y-270287261D01*
X431202976Y-270192023D01*
X431250595Y-270096785D01*
X431298214Y-269906309D01*
X431298214Y-269763452D01*
X431250595Y-269572976D01*
X431202976Y-269477738D01*
X431107738Y-269382500D01*
X430964880Y-269334880D01*
X430869642Y-269334880D01*
X430726785Y-269382500D01*
X430679166Y-269430119D01*
X430298214Y-269430119D02*
X430250595Y-269382500D01*
X430155357Y-269334880D01*
X429917261Y-269334880D01*
X429822023Y-269382500D01*
X429774404Y-269430119D01*
X429726785Y-269525357D01*
X429726785Y-269620595D01*
X429774404Y-269763452D01*
X430345833Y-270334880D01*
X429726785Y-270334880D01*
%TO.C,FB13*%
X315576886Y-270762152D02*
X315576886Y-270428818D01*
X316100695Y-270428818D02*
X315100695Y-270428818D01*
X315100695Y-270905009D01*
X315576886Y-271619295D02*
X315624505Y-271762152D01*
X315672124Y-271809771D01*
X315767362Y-271857390D01*
X315910219Y-271857390D01*
X316005457Y-271809771D01*
X316053076Y-271762152D01*
X316100695Y-271666914D01*
X316100695Y-271285961D01*
X315100695Y-271285961D01*
X315100695Y-271619295D01*
X315148315Y-271714533D01*
X315195934Y-271762152D01*
X315291172Y-271809771D01*
X315386410Y-271809771D01*
X315481648Y-271762152D01*
X315529267Y-271714533D01*
X315576886Y-271619295D01*
X315576886Y-271285961D01*
X316100695Y-272809771D02*
X316100695Y-272238342D01*
X316100695Y-272524056D02*
X315100695Y-272524056D01*
X315243553Y-272428818D01*
X315338791Y-272333580D01*
X315386410Y-272238342D01*
X315100695Y-273143104D02*
X315100695Y-273762152D01*
X315481648Y-273428818D01*
X315481648Y-273571676D01*
X315529267Y-273666914D01*
X315576886Y-273714533D01*
X315672124Y-273762152D01*
X315910219Y-273762152D01*
X316005457Y-273714533D01*
X316053076Y-273666914D01*
X316100695Y-273571676D01*
X316100695Y-273285961D01*
X316053076Y-273190723D01*
X316005457Y-273143104D01*
%TO.C,FB10*%
X290576886Y-271229652D02*
X290576886Y-270896318D01*
X291100695Y-270896318D02*
X290100695Y-270896318D01*
X290100695Y-271372509D01*
X290576886Y-272086795D02*
X290624505Y-272229652D01*
X290672124Y-272277271D01*
X290767362Y-272324890D01*
X290910219Y-272324890D01*
X291005457Y-272277271D01*
X291053076Y-272229652D01*
X291100695Y-272134414D01*
X291100695Y-271753461D01*
X290100695Y-271753461D01*
X290100695Y-272086795D01*
X290148315Y-272182033D01*
X290195934Y-272229652D01*
X290291172Y-272277271D01*
X290386410Y-272277271D01*
X290481648Y-272229652D01*
X290529267Y-272182033D01*
X290576886Y-272086795D01*
X290576886Y-271753461D01*
X291100695Y-273277271D02*
X291100695Y-272705842D01*
X291100695Y-272991556D02*
X290100695Y-272991556D01*
X290243553Y-272896318D01*
X290338791Y-272801080D01*
X290386410Y-272705842D01*
X290100695Y-273896318D02*
X290100695Y-273991556D01*
X290148315Y-274086795D01*
X290195934Y-274134414D01*
X290291172Y-274182033D01*
X290481648Y-274229652D01*
X290719743Y-274229652D01*
X290910219Y-274182033D01*
X291005457Y-274134414D01*
X291053076Y-274086795D01*
X291100695Y-273991556D01*
X291100695Y-273896318D01*
X291053076Y-273801080D01*
X291005457Y-273753461D01*
X290910219Y-273705842D01*
X290719743Y-273658223D01*
X290481648Y-273658223D01*
X290291172Y-273705842D01*
X290195934Y-273753461D01*
X290148315Y-273801080D01*
X290100695Y-273896318D01*
%TO.C,FB6*%
X234108571Y-271044166D02*
X234108571Y-270710833D01*
X234632380Y-270710833D02*
X233632380Y-270710833D01*
X233632380Y-271187023D01*
X234108571Y-271901309D02*
X234156190Y-272044166D01*
X234203809Y-272091785D01*
X234299047Y-272139404D01*
X234441904Y-272139404D01*
X234537142Y-272091785D01*
X234584761Y-272044166D01*
X234632380Y-271948928D01*
X234632380Y-271567976D01*
X233632380Y-271567976D01*
X233632380Y-271901309D01*
X233680000Y-271996547D01*
X233727619Y-272044166D01*
X233822857Y-272091785D01*
X233918095Y-272091785D01*
X234013333Y-272044166D01*
X234060952Y-271996547D01*
X234108571Y-271901309D01*
X234108571Y-271567976D01*
X233632380Y-272996547D02*
X233632380Y-272806071D01*
X233680000Y-272710833D01*
X233727619Y-272663214D01*
X233870476Y-272567976D01*
X234060952Y-272520357D01*
X234441904Y-272520357D01*
X234537142Y-272567976D01*
X234584761Y-272615595D01*
X234632380Y-272710833D01*
X234632380Y-272901309D01*
X234584761Y-272996547D01*
X234537142Y-273044166D01*
X234441904Y-273091785D01*
X234203809Y-273091785D01*
X234108571Y-273044166D01*
X234060952Y-272996547D01*
X234013333Y-272901309D01*
X234013333Y-272710833D01*
X234060952Y-272615595D01*
X234108571Y-272567976D01*
X234203809Y-272520357D01*
%TO.C,U22*%
X442902380Y-222166904D02*
X443711904Y-222166904D01*
X443807142Y-222214523D01*
X443854761Y-222262142D01*
X443902380Y-222357380D01*
X443902380Y-222547857D01*
X443854761Y-222643095D01*
X443807142Y-222690714D01*
X443711904Y-222738333D01*
X442902380Y-222738333D01*
X442997619Y-223166904D02*
X442950000Y-223214523D01*
X442902380Y-223309761D01*
X442902380Y-223547857D01*
X442950000Y-223643095D01*
X442997619Y-223690714D01*
X443092857Y-223738333D01*
X443188095Y-223738333D01*
X443330952Y-223690714D01*
X443902380Y-223119285D01*
X443902380Y-223738333D01*
X442997619Y-224119285D02*
X442950000Y-224166904D01*
X442902380Y-224262142D01*
X442902380Y-224500238D01*
X442950000Y-224595476D01*
X442997619Y-224643095D01*
X443092857Y-224690714D01*
X443188095Y-224690714D01*
X443330952Y-224643095D01*
X443902380Y-224071666D01*
X443902380Y-224690714D01*
%TO.C,C17*%
X494357142Y-206287142D02*
X494404761Y-206239523D01*
X494452380Y-206096666D01*
X494452380Y-206001428D01*
X494404761Y-205858571D01*
X494309523Y-205763333D01*
X494214285Y-205715714D01*
X494023809Y-205668095D01*
X493880952Y-205668095D01*
X493690476Y-205715714D01*
X493595238Y-205763333D01*
X493500000Y-205858571D01*
X493452380Y-206001428D01*
X493452380Y-206096666D01*
X493500000Y-206239523D01*
X493547619Y-206287142D01*
X494452380Y-207239523D02*
X494452380Y-206668095D01*
X494452380Y-206953809D02*
X493452380Y-206953809D01*
X493595238Y-206858571D01*
X493690476Y-206763333D01*
X493738095Y-206668095D01*
X493452380Y-207572857D02*
X493452380Y-208239523D01*
X494452380Y-207810952D01*
%TO.C,FB2*%
X220108571Y-271044166D02*
X220108571Y-270710833D01*
X220632380Y-270710833D02*
X219632380Y-270710833D01*
X219632380Y-271187023D01*
X220108571Y-271901309D02*
X220156190Y-272044166D01*
X220203809Y-272091785D01*
X220299047Y-272139404D01*
X220441904Y-272139404D01*
X220537142Y-272091785D01*
X220584761Y-272044166D01*
X220632380Y-271948928D01*
X220632380Y-271567976D01*
X219632380Y-271567976D01*
X219632380Y-271901309D01*
X219680000Y-271996547D01*
X219727619Y-272044166D01*
X219822857Y-272091785D01*
X219918095Y-272091785D01*
X220013333Y-272044166D01*
X220060952Y-271996547D01*
X220108571Y-271901309D01*
X220108571Y-271567976D01*
X219727619Y-272520357D02*
X219680000Y-272567976D01*
X219632380Y-272663214D01*
X219632380Y-272901309D01*
X219680000Y-272996547D01*
X219727619Y-273044166D01*
X219822857Y-273091785D01*
X219918095Y-273091785D01*
X220060952Y-273044166D01*
X220632380Y-272472738D01*
X220632380Y-273091785D01*
%TO.C,FB18*%
X377308571Y-271190476D02*
X377308571Y-270857142D01*
X377832380Y-270857142D02*
X376832380Y-270857142D01*
X376832380Y-271333333D01*
X377308571Y-272047619D02*
X377356190Y-272190476D01*
X377403809Y-272238095D01*
X377499047Y-272285714D01*
X377641904Y-272285714D01*
X377737142Y-272238095D01*
X377784761Y-272190476D01*
X377832380Y-272095238D01*
X377832380Y-271714285D01*
X376832380Y-271714285D01*
X376832380Y-272047619D01*
X376880000Y-272142857D01*
X376927619Y-272190476D01*
X377022857Y-272238095D01*
X377118095Y-272238095D01*
X377213333Y-272190476D01*
X377260952Y-272142857D01*
X377308571Y-272047619D01*
X377308571Y-271714285D01*
X377832380Y-273238095D02*
X377832380Y-272666666D01*
X377832380Y-272952380D02*
X376832380Y-272952380D01*
X376975238Y-272857142D01*
X377070476Y-272761904D01*
X377118095Y-272666666D01*
X377260952Y-273809523D02*
X377213333Y-273714285D01*
X377165714Y-273666666D01*
X377070476Y-273619047D01*
X377022857Y-273619047D01*
X376927619Y-273666666D01*
X376880000Y-273714285D01*
X376832380Y-273809523D01*
X376832380Y-274000000D01*
X376880000Y-274095238D01*
X376927619Y-274142857D01*
X377022857Y-274190476D01*
X377070476Y-274190476D01*
X377165714Y-274142857D01*
X377213333Y-274095238D01*
X377260952Y-274000000D01*
X377260952Y-273809523D01*
X377308571Y-273714285D01*
X377356190Y-273666666D01*
X377451428Y-273619047D01*
X377641904Y-273619047D01*
X377737142Y-273666666D01*
X377784761Y-273714285D01*
X377832380Y-273809523D01*
X377832380Y-274000000D01*
X377784761Y-274095238D01*
X377737142Y-274142857D01*
X377641904Y-274190476D01*
X377451428Y-274190476D01*
X377356190Y-274142857D01*
X377308571Y-274095238D01*
X377260952Y-274000000D01*
%TO.C,FB17*%
X372308571Y-270722976D02*
X372308571Y-270389642D01*
X372832380Y-270389642D02*
X371832380Y-270389642D01*
X371832380Y-270865833D01*
X372308571Y-271580119D02*
X372356190Y-271722976D01*
X372403809Y-271770595D01*
X372499047Y-271818214D01*
X372641904Y-271818214D01*
X372737142Y-271770595D01*
X372784761Y-271722976D01*
X372832380Y-271627738D01*
X372832380Y-271246785D01*
X371832380Y-271246785D01*
X371832380Y-271580119D01*
X371880000Y-271675357D01*
X371927619Y-271722976D01*
X372022857Y-271770595D01*
X372118095Y-271770595D01*
X372213333Y-271722976D01*
X372260952Y-271675357D01*
X372308571Y-271580119D01*
X372308571Y-271246785D01*
X372832380Y-272770595D02*
X372832380Y-272199166D01*
X372832380Y-272484880D02*
X371832380Y-272484880D01*
X371975238Y-272389642D01*
X372070476Y-272294404D01*
X372118095Y-272199166D01*
X371832380Y-273103928D02*
X371832380Y-273770595D01*
X372832380Y-273342023D01*
%TO.C,FB1*%
X215108571Y-271044166D02*
X215108571Y-270710833D01*
X215632380Y-270710833D02*
X214632380Y-270710833D01*
X214632380Y-271187023D01*
X215108571Y-271901309D02*
X215156190Y-272044166D01*
X215203809Y-272091785D01*
X215299047Y-272139404D01*
X215441904Y-272139404D01*
X215537142Y-272091785D01*
X215584761Y-272044166D01*
X215632380Y-271948928D01*
X215632380Y-271567976D01*
X214632380Y-271567976D01*
X214632380Y-271901309D01*
X214680000Y-271996547D01*
X214727619Y-272044166D01*
X214822857Y-272091785D01*
X214918095Y-272091785D01*
X215013333Y-272044166D01*
X215060952Y-271996547D01*
X215108571Y-271901309D01*
X215108571Y-271567976D01*
X215632380Y-273091785D02*
X215632380Y-272520357D01*
X215632380Y-272806071D02*
X214632380Y-272806071D01*
X214775238Y-272710833D01*
X214870476Y-272615595D01*
X214918095Y-272520357D01*
%TO.C,C8*%
X248104166Y-270084642D02*
X248151785Y-270132261D01*
X248294642Y-270179880D01*
X248389880Y-270179880D01*
X248532738Y-270132261D01*
X248627976Y-270037023D01*
X248675595Y-269941785D01*
X248723214Y-269751309D01*
X248723214Y-269608452D01*
X248675595Y-269417976D01*
X248627976Y-269322738D01*
X248532738Y-269227500D01*
X248389880Y-269179880D01*
X248294642Y-269179880D01*
X248151785Y-269227500D01*
X248104166Y-269275119D01*
X247532738Y-269608452D02*
X247627976Y-269560833D01*
X247675595Y-269513214D01*
X247723214Y-269417976D01*
X247723214Y-269370357D01*
X247675595Y-269275119D01*
X247627976Y-269227500D01*
X247532738Y-269179880D01*
X247342261Y-269179880D01*
X247247023Y-269227500D01*
X247199404Y-269275119D01*
X247151785Y-269370357D01*
X247151785Y-269417976D01*
X247199404Y-269513214D01*
X247247023Y-269560833D01*
X247342261Y-269608452D01*
X247532738Y-269608452D01*
X247627976Y-269656071D01*
X247675595Y-269703690D01*
X247723214Y-269798928D01*
X247723214Y-269989404D01*
X247675595Y-270084642D01*
X247627976Y-270132261D01*
X247532738Y-270179880D01*
X247342261Y-270179880D01*
X247247023Y-270132261D01*
X247199404Y-270084642D01*
X247151785Y-269989404D01*
X247151785Y-269798928D01*
X247199404Y-269703690D01*
X247247023Y-269656071D01*
X247342261Y-269608452D01*
%TO.C,U5*%
X260902380Y-222738095D02*
X261711904Y-222738095D01*
X261807142Y-222785714D01*
X261854761Y-222833333D01*
X261902380Y-222928571D01*
X261902380Y-223119047D01*
X261854761Y-223214285D01*
X261807142Y-223261904D01*
X261711904Y-223309523D01*
X260902380Y-223309523D01*
X260902380Y-224261904D02*
X260902380Y-223785714D01*
X261378571Y-223738095D01*
X261330952Y-223785714D01*
X261283333Y-223880952D01*
X261283333Y-224119047D01*
X261330952Y-224214285D01*
X261378571Y-224261904D01*
X261473809Y-224309523D01*
X261711904Y-224309523D01*
X261807142Y-224261904D01*
X261854761Y-224214285D01*
X261902380Y-224119047D01*
X261902380Y-223880952D01*
X261854761Y-223785714D01*
X261807142Y-223738095D01*
%TO.C,U12*%
X487792380Y-224701904D02*
X488601904Y-224701904D01*
X488697142Y-224749523D01*
X488744761Y-224797142D01*
X488792380Y-224892380D01*
X488792380Y-225082857D01*
X488744761Y-225178095D01*
X488697142Y-225225714D01*
X488601904Y-225273333D01*
X487792380Y-225273333D01*
X488792380Y-226273333D02*
X488792380Y-225701904D01*
X488792380Y-225987619D02*
X487792380Y-225987619D01*
X487935238Y-225892380D01*
X488030476Y-225797142D01*
X488078095Y-225701904D01*
X487887619Y-226654285D02*
X487840000Y-226701904D01*
X487792380Y-226797142D01*
X487792380Y-227035238D01*
X487840000Y-227130476D01*
X487887619Y-227178095D01*
X487982857Y-227225714D01*
X488078095Y-227225714D01*
X488220952Y-227178095D01*
X488792380Y-226606666D01*
X488792380Y-227225714D01*
D10*
%TO.C,U2*%
X433189523Y-259794880D02*
X434217619Y-259794880D01*
X434338571Y-259855357D01*
X434399047Y-259915833D01*
X434459523Y-260036785D01*
X434459523Y-260278690D01*
X434399047Y-260399642D01*
X434338571Y-260460119D01*
X434217619Y-260520595D01*
X433189523Y-260520595D01*
X433310476Y-261064880D02*
X433250000Y-261125357D01*
X433189523Y-261246309D01*
X433189523Y-261548690D01*
X433250000Y-261669642D01*
X433310476Y-261730119D01*
X433431428Y-261790595D01*
X433552380Y-261790595D01*
X433733809Y-261730119D01*
X434459523Y-261004404D01*
X434459523Y-261790595D01*
D11*
%TO.C,FB3*%
X426183571Y-271199166D02*
X426183571Y-270865833D01*
X426707380Y-270865833D02*
X425707380Y-270865833D01*
X425707380Y-271342023D01*
X426183571Y-272056309D02*
X426231190Y-272199166D01*
X426278809Y-272246785D01*
X426374047Y-272294404D01*
X426516904Y-272294404D01*
X426612142Y-272246785D01*
X426659761Y-272199166D01*
X426707380Y-272103928D01*
X426707380Y-271722976D01*
X425707380Y-271722976D01*
X425707380Y-272056309D01*
X425755000Y-272151547D01*
X425802619Y-272199166D01*
X425897857Y-272246785D01*
X425993095Y-272246785D01*
X426088333Y-272199166D01*
X426135952Y-272151547D01*
X426183571Y-272056309D01*
X426183571Y-271722976D01*
X425707380Y-272627738D02*
X425707380Y-273246785D01*
X426088333Y-272913452D01*
X426088333Y-273056309D01*
X426135952Y-273151547D01*
X426183571Y-273199166D01*
X426278809Y-273246785D01*
X426516904Y-273246785D01*
X426612142Y-273199166D01*
X426659761Y-273151547D01*
X426707380Y-273056309D01*
X426707380Y-272770595D01*
X426659761Y-272675357D01*
X426612142Y-272627738D01*
D10*
%TO.C,U13*%
X292582838Y-259229295D02*
X293610934Y-259229295D01*
X293731886Y-259289771D01*
X293792362Y-259350247D01*
X293852838Y-259471199D01*
X293852838Y-259713104D01*
X293792362Y-259834056D01*
X293731886Y-259894533D01*
X293610934Y-259955009D01*
X292582838Y-259955009D01*
X293852838Y-261225009D02*
X293852838Y-260499295D01*
X293852838Y-260862152D02*
X292582838Y-260862152D01*
X292764267Y-260741199D01*
X292885219Y-260620247D01*
X292945695Y-260499295D01*
X292582838Y-261648342D02*
X292582838Y-262434533D01*
X293066648Y-262011199D01*
X293066648Y-262192628D01*
X293127124Y-262313580D01*
X293187600Y-262374056D01*
X293308553Y-262434533D01*
X293610934Y-262434533D01*
X293731886Y-262374056D01*
X293792362Y-262313580D01*
X293852838Y-262192628D01*
X293852838Y-261829771D01*
X293792362Y-261708818D01*
X293731886Y-261648342D01*
D11*
%TO.C,FB9*%
X285576886Y-271238342D02*
X285576886Y-270905009D01*
X286100695Y-270905009D02*
X285100695Y-270905009D01*
X285100695Y-271381199D01*
X285576886Y-272095485D02*
X285624505Y-272238342D01*
X285672124Y-272285961D01*
X285767362Y-272333580D01*
X285910219Y-272333580D01*
X286005457Y-272285961D01*
X286053076Y-272238342D01*
X286100695Y-272143104D01*
X286100695Y-271762152D01*
X285100695Y-271762152D01*
X285100695Y-272095485D01*
X285148315Y-272190723D01*
X285195934Y-272238342D01*
X285291172Y-272285961D01*
X285386410Y-272285961D01*
X285481648Y-272238342D01*
X285529267Y-272190723D01*
X285576886Y-272095485D01*
X285576886Y-271762152D01*
X286100695Y-272809771D02*
X286100695Y-273000247D01*
X286053076Y-273095485D01*
X286005457Y-273143104D01*
X285862600Y-273238342D01*
X285672124Y-273285961D01*
X285291172Y-273285961D01*
X285195934Y-273238342D01*
X285148315Y-273190723D01*
X285100695Y-273095485D01*
X285100695Y-272905009D01*
X285148315Y-272809771D01*
X285195934Y-272762152D01*
X285291172Y-272714533D01*
X285529267Y-272714533D01*
X285624505Y-272762152D01*
X285672124Y-272809771D01*
X285719743Y-272905009D01*
X285719743Y-273095485D01*
X285672124Y-273190723D01*
X285624505Y-273238342D01*
X285529267Y-273285961D01*
%TO.C,C6*%
X473747142Y-197963333D02*
X473794761Y-197915714D01*
X473842380Y-197772857D01*
X473842380Y-197677619D01*
X473794761Y-197534761D01*
X473699523Y-197439523D01*
X473604285Y-197391904D01*
X473413809Y-197344285D01*
X473270952Y-197344285D01*
X473080476Y-197391904D01*
X472985238Y-197439523D01*
X472890000Y-197534761D01*
X472842380Y-197677619D01*
X472842380Y-197772857D01*
X472890000Y-197915714D01*
X472937619Y-197963333D01*
X472842380Y-198820476D02*
X472842380Y-198630000D01*
X472890000Y-198534761D01*
X472937619Y-198487142D01*
X473080476Y-198391904D01*
X473270952Y-198344285D01*
X473651904Y-198344285D01*
X473747142Y-198391904D01*
X473794761Y-198439523D01*
X473842380Y-198534761D01*
X473842380Y-198725238D01*
X473794761Y-198820476D01*
X473747142Y-198868095D01*
X473651904Y-198915714D01*
X473413809Y-198915714D01*
X473318571Y-198868095D01*
X473270952Y-198820476D01*
X473223333Y-198725238D01*
X473223333Y-198534761D01*
X473270952Y-198439523D01*
X473318571Y-198391904D01*
X473413809Y-198344285D01*
%TO.C,FB5*%
X229108571Y-271044166D02*
X229108571Y-270710833D01*
X229632380Y-270710833D02*
X228632380Y-270710833D01*
X228632380Y-271187023D01*
X229108571Y-271901309D02*
X229156190Y-272044166D01*
X229203809Y-272091785D01*
X229299047Y-272139404D01*
X229441904Y-272139404D01*
X229537142Y-272091785D01*
X229584761Y-272044166D01*
X229632380Y-271948928D01*
X229632380Y-271567976D01*
X228632380Y-271567976D01*
X228632380Y-271901309D01*
X228680000Y-271996547D01*
X228727619Y-272044166D01*
X228822857Y-272091785D01*
X228918095Y-272091785D01*
X229013333Y-272044166D01*
X229060952Y-271996547D01*
X229108571Y-271901309D01*
X229108571Y-271567976D01*
X228632380Y-273044166D02*
X228632380Y-272567976D01*
X229108571Y-272520357D01*
X229060952Y-272567976D01*
X229013333Y-272663214D01*
X229013333Y-272901309D01*
X229060952Y-272996547D01*
X229108571Y-273044166D01*
X229203809Y-273091785D01*
X229441904Y-273091785D01*
X229537142Y-273044166D01*
X229584761Y-272996547D01*
X229632380Y-272901309D01*
X229632380Y-272663214D01*
X229584761Y-272567976D01*
X229537142Y-272520357D01*
%TO.C,FB8*%
X248608571Y-271044166D02*
X248608571Y-270710833D01*
X249132380Y-270710833D02*
X248132380Y-270710833D01*
X248132380Y-271187023D01*
X248608571Y-271901309D02*
X248656190Y-272044166D01*
X248703809Y-272091785D01*
X248799047Y-272139404D01*
X248941904Y-272139404D01*
X249037142Y-272091785D01*
X249084761Y-272044166D01*
X249132380Y-271948928D01*
X249132380Y-271567976D01*
X248132380Y-271567976D01*
X248132380Y-271901309D01*
X248180000Y-271996547D01*
X248227619Y-272044166D01*
X248322857Y-272091785D01*
X248418095Y-272091785D01*
X248513333Y-272044166D01*
X248560952Y-271996547D01*
X248608571Y-271901309D01*
X248608571Y-271567976D01*
X248560952Y-272710833D02*
X248513333Y-272615595D01*
X248465714Y-272567976D01*
X248370476Y-272520357D01*
X248322857Y-272520357D01*
X248227619Y-272567976D01*
X248180000Y-272615595D01*
X248132380Y-272710833D01*
X248132380Y-272901309D01*
X248180000Y-272996547D01*
X248227619Y-273044166D01*
X248322857Y-273091785D01*
X248370476Y-273091785D01*
X248465714Y-273044166D01*
X248513333Y-272996547D01*
X248560952Y-272901309D01*
X248560952Y-272710833D01*
X248608571Y-272615595D01*
X248656190Y-272567976D01*
X248751428Y-272520357D01*
X248941904Y-272520357D01*
X249037142Y-272567976D01*
X249084761Y-272615595D01*
X249132380Y-272710833D01*
X249132380Y-272901309D01*
X249084761Y-272996547D01*
X249037142Y-273044166D01*
X248941904Y-273091785D01*
X248751428Y-273091785D01*
X248656190Y-273044166D01*
X248608571Y-272996547D01*
X248560952Y-272901309D01*
D10*
%TO.C,U17*%
X322582838Y-259229295D02*
X323610934Y-259229295D01*
X323731886Y-259289771D01*
X323792362Y-259350247D01*
X323852838Y-259471199D01*
X323852838Y-259713104D01*
X323792362Y-259834056D01*
X323731886Y-259894533D01*
X323610934Y-259955009D01*
X322582838Y-259955009D01*
X323852838Y-261225009D02*
X323852838Y-260499295D01*
X323852838Y-260862152D02*
X322582838Y-260862152D01*
X322764267Y-260741199D01*
X322885219Y-260620247D01*
X322945695Y-260499295D01*
X322582838Y-261648342D02*
X322582838Y-262495009D01*
X323852838Y-261950723D01*
D11*
%TO.C,FB14*%
X320576886Y-271229652D02*
X320576886Y-270896318D01*
X321100695Y-270896318D02*
X320100695Y-270896318D01*
X320100695Y-271372509D01*
X320576886Y-272086795D02*
X320624505Y-272229652D01*
X320672124Y-272277271D01*
X320767362Y-272324890D01*
X320910219Y-272324890D01*
X321005457Y-272277271D01*
X321053076Y-272229652D01*
X321100695Y-272134414D01*
X321100695Y-271753461D01*
X320100695Y-271753461D01*
X320100695Y-272086795D01*
X320148315Y-272182033D01*
X320195934Y-272229652D01*
X320291172Y-272277271D01*
X320386410Y-272277271D01*
X320481648Y-272229652D01*
X320529267Y-272182033D01*
X320576886Y-272086795D01*
X320576886Y-271753461D01*
X321100695Y-273277271D02*
X321100695Y-272705842D01*
X321100695Y-272991556D02*
X320100695Y-272991556D01*
X320243553Y-272896318D01*
X320338791Y-272801080D01*
X320386410Y-272705842D01*
X320434029Y-274134414D02*
X321100695Y-274134414D01*
X320053076Y-273896318D02*
X320767362Y-273658223D01*
X320767362Y-274277271D01*
%TO.C,FB20*%
X392308571Y-271190476D02*
X392308571Y-270857142D01*
X392832380Y-270857142D02*
X391832380Y-270857142D01*
X391832380Y-271333333D01*
X392308571Y-272047619D02*
X392356190Y-272190476D01*
X392403809Y-272238095D01*
X392499047Y-272285714D01*
X392641904Y-272285714D01*
X392737142Y-272238095D01*
X392784761Y-272190476D01*
X392832380Y-272095238D01*
X392832380Y-271714285D01*
X391832380Y-271714285D01*
X391832380Y-272047619D01*
X391880000Y-272142857D01*
X391927619Y-272190476D01*
X392022857Y-272238095D01*
X392118095Y-272238095D01*
X392213333Y-272190476D01*
X392260952Y-272142857D01*
X392308571Y-272047619D01*
X392308571Y-271714285D01*
X391927619Y-272666666D02*
X391880000Y-272714285D01*
X391832380Y-272809523D01*
X391832380Y-273047619D01*
X391880000Y-273142857D01*
X391927619Y-273190476D01*
X392022857Y-273238095D01*
X392118095Y-273238095D01*
X392260952Y-273190476D01*
X392832380Y-272619047D01*
X392832380Y-273238095D01*
X391832380Y-273857142D02*
X391832380Y-273952380D01*
X391880000Y-274047619D01*
X391927619Y-274095238D01*
X392022857Y-274142857D01*
X392213333Y-274190476D01*
X392451428Y-274190476D01*
X392641904Y-274142857D01*
X392737142Y-274095238D01*
X392784761Y-274047619D01*
X392832380Y-273952380D01*
X392832380Y-273857142D01*
X392784761Y-273761904D01*
X392737142Y-273714285D01*
X392641904Y-273666666D01*
X392451428Y-273619047D01*
X392213333Y-273619047D01*
X392022857Y-273666666D01*
X391927619Y-273714285D01*
X391880000Y-273761904D01*
X391832380Y-273857142D01*
D10*
%TO.C,U6*%
X448189523Y-259794880D02*
X449217619Y-259794880D01*
X449338571Y-259855357D01*
X449399047Y-259915833D01*
X449459523Y-260036785D01*
X449459523Y-260278690D01*
X449399047Y-260399642D01*
X449338571Y-260460119D01*
X449217619Y-260520595D01*
X448189523Y-260520595D01*
X448189523Y-261669642D02*
X448189523Y-261427738D01*
X448250000Y-261306785D01*
X448310476Y-261246309D01*
X448491904Y-261125357D01*
X448733809Y-261064880D01*
X449217619Y-261064880D01*
X449338571Y-261125357D01*
X449399047Y-261185833D01*
X449459523Y-261306785D01*
X449459523Y-261548690D01*
X449399047Y-261669642D01*
X449338571Y-261730119D01*
X449217619Y-261790595D01*
X448915238Y-261790595D01*
X448794285Y-261730119D01*
X448733809Y-261669642D01*
X448673333Y-261548690D01*
X448673333Y-261306785D01*
X448733809Y-261185833D01*
X448794285Y-261125357D01*
X448915238Y-261064880D01*
%TO.C,U15*%
X307582838Y-259229295D02*
X308610934Y-259229295D01*
X308731886Y-259289771D01*
X308792362Y-259350247D01*
X308852838Y-259471199D01*
X308852838Y-259713104D01*
X308792362Y-259834056D01*
X308731886Y-259894533D01*
X308610934Y-259955009D01*
X307582838Y-259955009D01*
X308852838Y-261225009D02*
X308852838Y-260499295D01*
X308852838Y-260862152D02*
X307582838Y-260862152D01*
X307764267Y-260741199D01*
X307885219Y-260620247D01*
X307945695Y-260499295D01*
X307582838Y-262374056D02*
X307582838Y-261769295D01*
X308187600Y-261708818D01*
X308127124Y-261769295D01*
X308066648Y-261890247D01*
X308066648Y-262192628D01*
X308127124Y-262313580D01*
X308187600Y-262374056D01*
X308308553Y-262434533D01*
X308610934Y-262434533D01*
X308731886Y-262374056D01*
X308792362Y-262313580D01*
X308852838Y-262192628D01*
X308852838Y-261890247D01*
X308792362Y-261769295D01*
X308731886Y-261708818D01*
D11*
%TO.C,U14*%
X338902380Y-222261904D02*
X339711904Y-222261904D01*
X339807142Y-222309523D01*
X339854761Y-222357142D01*
X339902380Y-222452380D01*
X339902380Y-222642857D01*
X339854761Y-222738095D01*
X339807142Y-222785714D01*
X339711904Y-222833333D01*
X338902380Y-222833333D01*
X339902380Y-223833333D02*
X339902380Y-223261904D01*
X339902380Y-223547619D02*
X338902380Y-223547619D01*
X339045238Y-223452380D01*
X339140476Y-223357142D01*
X339188095Y-223261904D01*
X339235714Y-224690476D02*
X339902380Y-224690476D01*
X338854761Y-224452380D02*
X339569047Y-224214285D01*
X339569047Y-224833333D01*
%TO.C,C1*%
X219604166Y-270084642D02*
X219651785Y-270132261D01*
X219794642Y-270179880D01*
X219889880Y-270179880D01*
X220032738Y-270132261D01*
X220127976Y-270037023D01*
X220175595Y-269941785D01*
X220223214Y-269751309D01*
X220223214Y-269608452D01*
X220175595Y-269417976D01*
X220127976Y-269322738D01*
X220032738Y-269227500D01*
X219889880Y-269179880D01*
X219794642Y-269179880D01*
X219651785Y-269227500D01*
X219604166Y-269275119D01*
X218651785Y-270179880D02*
X219223214Y-270179880D01*
X218937500Y-270179880D02*
X218937500Y-269179880D01*
X219032738Y-269322738D01*
X219127976Y-269417976D01*
X219223214Y-269465595D01*
%TO.C,FB16*%
X362308571Y-271190476D02*
X362308571Y-270857142D01*
X362832380Y-270857142D02*
X361832380Y-270857142D01*
X361832380Y-271333333D01*
X362308571Y-272047619D02*
X362356190Y-272190476D01*
X362403809Y-272238095D01*
X362499047Y-272285714D01*
X362641904Y-272285714D01*
X362737142Y-272238095D01*
X362784761Y-272190476D01*
X362832380Y-272095238D01*
X362832380Y-271714285D01*
X361832380Y-271714285D01*
X361832380Y-272047619D01*
X361880000Y-272142857D01*
X361927619Y-272190476D01*
X362022857Y-272238095D01*
X362118095Y-272238095D01*
X362213333Y-272190476D01*
X362260952Y-272142857D01*
X362308571Y-272047619D01*
X362308571Y-271714285D01*
X362832380Y-273238095D02*
X362832380Y-272666666D01*
X362832380Y-272952380D02*
X361832380Y-272952380D01*
X361975238Y-272857142D01*
X362070476Y-272761904D01*
X362118095Y-272666666D01*
X361832380Y-274095238D02*
X361832380Y-273904761D01*
X361880000Y-273809523D01*
X361927619Y-273761904D01*
X362070476Y-273666666D01*
X362260952Y-273619047D01*
X362641904Y-273619047D01*
X362737142Y-273666666D01*
X362784761Y-273714285D01*
X362832380Y-273809523D01*
X362832380Y-274000000D01*
X362784761Y-274095238D01*
X362737142Y-274142857D01*
X362641904Y-274190476D01*
X362403809Y-274190476D01*
X362308571Y-274142857D01*
X362260952Y-274095238D01*
X362213333Y-274000000D01*
X362213333Y-273809523D01*
X362260952Y-273714285D01*
X362308571Y-273666666D01*
X362403809Y-273619047D01*
%TO.C,C7*%
X498337142Y-197983333D02*
X498384761Y-197935714D01*
X498432380Y-197792857D01*
X498432380Y-197697619D01*
X498384761Y-197554761D01*
X498289523Y-197459523D01*
X498194285Y-197411904D01*
X498003809Y-197364285D01*
X497860952Y-197364285D01*
X497670476Y-197411904D01*
X497575238Y-197459523D01*
X497480000Y-197554761D01*
X497432380Y-197697619D01*
X497432380Y-197792857D01*
X497480000Y-197935714D01*
X497527619Y-197983333D01*
X497432380Y-198316666D02*
X497432380Y-198983333D01*
X498432380Y-198554761D01*
%TO.C,FB11*%
X300576886Y-270762152D02*
X300576886Y-270428818D01*
X301100695Y-270428818D02*
X300100695Y-270428818D01*
X300100695Y-270905009D01*
X300576886Y-271619295D02*
X300624505Y-271762152D01*
X300672124Y-271809771D01*
X300767362Y-271857390D01*
X300910219Y-271857390D01*
X301005457Y-271809771D01*
X301053076Y-271762152D01*
X301100695Y-271666914D01*
X301100695Y-271285961D01*
X300100695Y-271285961D01*
X300100695Y-271619295D01*
X300148315Y-271714533D01*
X300195934Y-271762152D01*
X300291172Y-271809771D01*
X300386410Y-271809771D01*
X300481648Y-271762152D01*
X300529267Y-271714533D01*
X300576886Y-271619295D01*
X300576886Y-271285961D01*
X301100695Y-272809771D02*
X301100695Y-272238342D01*
X301100695Y-272524056D02*
X300100695Y-272524056D01*
X300243553Y-272428818D01*
X300338791Y-272333580D01*
X300386410Y-272238342D01*
X301100695Y-273762152D02*
X301100695Y-273190723D01*
X301100695Y-273476437D02*
X300100695Y-273476437D01*
X300243553Y-273381199D01*
X300338791Y-273285961D01*
X300386410Y-273190723D01*
%TO.C,FB4*%
X431183571Y-271199166D02*
X431183571Y-270865833D01*
X431707380Y-270865833D02*
X430707380Y-270865833D01*
X430707380Y-271342023D01*
X431183571Y-272056309D02*
X431231190Y-272199166D01*
X431278809Y-272246785D01*
X431374047Y-272294404D01*
X431516904Y-272294404D01*
X431612142Y-272246785D01*
X431659761Y-272199166D01*
X431707380Y-272103928D01*
X431707380Y-271722976D01*
X430707380Y-271722976D01*
X430707380Y-272056309D01*
X430755000Y-272151547D01*
X430802619Y-272199166D01*
X430897857Y-272246785D01*
X430993095Y-272246785D01*
X431088333Y-272199166D01*
X431135952Y-272151547D01*
X431183571Y-272056309D01*
X431183571Y-271722976D01*
X431040714Y-273151547D02*
X431707380Y-273151547D01*
X430659761Y-272913452D02*
X431374047Y-272675357D01*
X431374047Y-273294404D01*
%TO.C,C13*%
X320548672Y-270278818D02*
X320596291Y-270326437D01*
X320739148Y-270374056D01*
X320834386Y-270374056D01*
X320977243Y-270326437D01*
X321072481Y-270231199D01*
X321120100Y-270135961D01*
X321167719Y-269945485D01*
X321167719Y-269802628D01*
X321120100Y-269612152D01*
X321072481Y-269516914D01*
X320977243Y-269421676D01*
X320834386Y-269374056D01*
X320739148Y-269374056D01*
X320596291Y-269421676D01*
X320548672Y-269469295D01*
X319596291Y-270374056D02*
X320167719Y-270374056D01*
X319882005Y-270374056D02*
X319882005Y-269374056D01*
X319977243Y-269516914D01*
X320072481Y-269612152D01*
X320167719Y-269659771D01*
X319262957Y-269374056D02*
X318643910Y-269374056D01*
X318977243Y-269755009D01*
X318834386Y-269755009D01*
X318739148Y-269802628D01*
X318691529Y-269850247D01*
X318643910Y-269945485D01*
X318643910Y-270183580D01*
X318691529Y-270278818D01*
X318739148Y-270326437D01*
X318834386Y-270374056D01*
X319120100Y-270374056D01*
X319215338Y-270326437D01*
X319262957Y-270278818D01*
%TO.C,U8*%
X286902380Y-222738095D02*
X287711904Y-222738095D01*
X287807142Y-222785714D01*
X287854761Y-222833333D01*
X287902380Y-222928571D01*
X287902380Y-223119047D01*
X287854761Y-223214285D01*
X287807142Y-223261904D01*
X287711904Y-223309523D01*
X286902380Y-223309523D01*
X287330952Y-223928571D02*
X287283333Y-223833333D01*
X287235714Y-223785714D01*
X287140476Y-223738095D01*
X287092857Y-223738095D01*
X286997619Y-223785714D01*
X286950000Y-223833333D01*
X286902380Y-223928571D01*
X286902380Y-224119047D01*
X286950000Y-224214285D01*
X286997619Y-224261904D01*
X287092857Y-224309523D01*
X287140476Y-224309523D01*
X287235714Y-224261904D01*
X287283333Y-224214285D01*
X287330952Y-224119047D01*
X287330952Y-223928571D01*
X287378571Y-223833333D01*
X287426190Y-223785714D01*
X287521428Y-223738095D01*
X287711904Y-223738095D01*
X287807142Y-223785714D01*
X287854761Y-223833333D01*
X287902380Y-223928571D01*
X287902380Y-224119047D01*
X287854761Y-224214285D01*
X287807142Y-224261904D01*
X287711904Y-224309523D01*
X287521428Y-224309523D01*
X287426190Y-224261904D01*
X287378571Y-224214285D01*
X287330952Y-224119047D01*
%TO.C,U11*%
X312902380Y-222261904D02*
X313711904Y-222261904D01*
X313807142Y-222309523D01*
X313854761Y-222357142D01*
X313902380Y-222452380D01*
X313902380Y-222642857D01*
X313854761Y-222738095D01*
X313807142Y-222785714D01*
X313711904Y-222833333D01*
X312902380Y-222833333D01*
X313902380Y-223833333D02*
X313902380Y-223261904D01*
X313902380Y-223547619D02*
X312902380Y-223547619D01*
X313045238Y-223452380D01*
X313140476Y-223357142D01*
X313188095Y-223261904D01*
X313902380Y-224785714D02*
X313902380Y-224214285D01*
X313902380Y-224500000D02*
X312902380Y-224500000D01*
X313045238Y-224404761D01*
X313140476Y-224309523D01*
X313188095Y-224214285D01*
D10*
%TO.C,U10*%
X250614523Y-259035119D02*
X251642619Y-259035119D01*
X251763571Y-259095595D01*
X251824047Y-259156071D01*
X251884523Y-259277023D01*
X251884523Y-259518928D01*
X251824047Y-259639880D01*
X251763571Y-259700357D01*
X251642619Y-259760833D01*
X250614523Y-259760833D01*
X251884523Y-261030833D02*
X251884523Y-260305119D01*
X251884523Y-260667976D02*
X250614523Y-260667976D01*
X250795952Y-260547023D01*
X250916904Y-260426071D01*
X250977380Y-260305119D01*
X250614523Y-261817023D02*
X250614523Y-261937976D01*
X250675000Y-262058928D01*
X250735476Y-262119404D01*
X250856428Y-262179880D01*
X251098333Y-262240357D01*
X251400714Y-262240357D01*
X251642619Y-262179880D01*
X251763571Y-262119404D01*
X251824047Y-262058928D01*
X251884523Y-261937976D01*
X251884523Y-261817023D01*
X251824047Y-261696071D01*
X251763571Y-261635595D01*
X251642619Y-261575119D01*
X251400714Y-261514642D01*
X251098333Y-261514642D01*
X250856428Y-261575119D01*
X250735476Y-261635595D01*
X250675000Y-261696071D01*
X250614523Y-261817023D01*
D11*
%TO.C,FB19*%
X387308571Y-270722976D02*
X387308571Y-270389642D01*
X387832380Y-270389642D02*
X386832380Y-270389642D01*
X386832380Y-270865833D01*
X387308571Y-271580119D02*
X387356190Y-271722976D01*
X387403809Y-271770595D01*
X387499047Y-271818214D01*
X387641904Y-271818214D01*
X387737142Y-271770595D01*
X387784761Y-271722976D01*
X387832380Y-271627738D01*
X387832380Y-271246785D01*
X386832380Y-271246785D01*
X386832380Y-271580119D01*
X386880000Y-271675357D01*
X386927619Y-271722976D01*
X387022857Y-271770595D01*
X387118095Y-271770595D01*
X387213333Y-271722976D01*
X387260952Y-271675357D01*
X387308571Y-271580119D01*
X387308571Y-271246785D01*
X387832380Y-272770595D02*
X387832380Y-272199166D01*
X387832380Y-272484880D02*
X386832380Y-272484880D01*
X386975238Y-272389642D01*
X387070476Y-272294404D01*
X387118095Y-272199166D01*
X387832380Y-273246785D02*
X387832380Y-273437261D01*
X387784761Y-273532500D01*
X387737142Y-273580119D01*
X387594285Y-273675357D01*
X387403809Y-273722976D01*
X387022857Y-273722976D01*
X386927619Y-273675357D01*
X386880000Y-273627738D01*
X386832380Y-273532500D01*
X386832380Y-273342023D01*
X386880000Y-273246785D01*
X386927619Y-273199166D01*
X387022857Y-273151547D01*
X387260952Y-273151547D01*
X387356190Y-273199166D01*
X387403809Y-273246785D01*
X387451428Y-273342023D01*
X387451428Y-273532500D01*
X387403809Y-273627738D01*
X387356190Y-273675357D01*
X387260952Y-273722976D01*
%TO.C,FB15*%
X357308571Y-270722976D02*
X357308571Y-270389642D01*
X357832380Y-270389642D02*
X356832380Y-270389642D01*
X356832380Y-270865833D01*
X357308571Y-271580119D02*
X357356190Y-271722976D01*
X357403809Y-271770595D01*
X357499047Y-271818214D01*
X357641904Y-271818214D01*
X357737142Y-271770595D01*
X357784761Y-271722976D01*
X357832380Y-271627738D01*
X357832380Y-271246785D01*
X356832380Y-271246785D01*
X356832380Y-271580119D01*
X356880000Y-271675357D01*
X356927619Y-271722976D01*
X357022857Y-271770595D01*
X357118095Y-271770595D01*
X357213333Y-271722976D01*
X357260952Y-271675357D01*
X357308571Y-271580119D01*
X357308571Y-271246785D01*
X357832380Y-272770595D02*
X357832380Y-272199166D01*
X357832380Y-272484880D02*
X356832380Y-272484880D01*
X356975238Y-272389642D01*
X357070476Y-272294404D01*
X357118095Y-272199166D01*
X356832380Y-273675357D02*
X356832380Y-273199166D01*
X357308571Y-273151547D01*
X357260952Y-273199166D01*
X357213333Y-273294404D01*
X357213333Y-273532500D01*
X357260952Y-273627738D01*
X357308571Y-273675357D01*
X357403809Y-273722976D01*
X357641904Y-273722976D01*
X357737142Y-273675357D01*
X357784761Y-273627738D01*
X357832380Y-273532500D01*
X357832380Y-273294404D01*
X357784761Y-273199166D01*
X357737142Y-273151547D01*
D10*
%TO.C,U23*%
X394314523Y-259190119D02*
X395342619Y-259190119D01*
X395463571Y-259250595D01*
X395524047Y-259311071D01*
X395584523Y-259432023D01*
X395584523Y-259673928D01*
X395524047Y-259794880D01*
X395463571Y-259855357D01*
X395342619Y-259915833D01*
X394314523Y-259915833D01*
X394435476Y-260460119D02*
X394375000Y-260520595D01*
X394314523Y-260641547D01*
X394314523Y-260943928D01*
X394375000Y-261064880D01*
X394435476Y-261125357D01*
X394556428Y-261185833D01*
X394677380Y-261185833D01*
X394858809Y-261125357D01*
X395584523Y-260399642D01*
X395584523Y-261185833D01*
X394314523Y-261609166D02*
X394314523Y-262395357D01*
X394798333Y-261972023D01*
X394798333Y-262153452D01*
X394858809Y-262274404D01*
X394919285Y-262334880D01*
X395040238Y-262395357D01*
X395342619Y-262395357D01*
X395463571Y-262334880D01*
X395524047Y-262274404D01*
X395584523Y-262153452D01*
X395584523Y-261790595D01*
X395524047Y-261669642D01*
X395463571Y-261609166D01*
D11*
%TO.C,C16*%
X392280357Y-270239642D02*
X392327976Y-270287261D01*
X392470833Y-270334880D01*
X392566071Y-270334880D01*
X392708928Y-270287261D01*
X392804166Y-270192023D01*
X392851785Y-270096785D01*
X392899404Y-269906309D01*
X392899404Y-269763452D01*
X392851785Y-269572976D01*
X392804166Y-269477738D01*
X392708928Y-269382500D01*
X392566071Y-269334880D01*
X392470833Y-269334880D01*
X392327976Y-269382500D01*
X392280357Y-269430119D01*
X391327976Y-270334880D02*
X391899404Y-270334880D01*
X391613690Y-270334880D02*
X391613690Y-269334880D01*
X391708928Y-269477738D01*
X391804166Y-269572976D01*
X391899404Y-269620595D01*
X390470833Y-269334880D02*
X390661309Y-269334880D01*
X390756547Y-269382500D01*
X390804166Y-269430119D01*
X390899404Y-269572976D01*
X390947023Y-269763452D01*
X390947023Y-270144404D01*
X390899404Y-270239642D01*
X390851785Y-270287261D01*
X390756547Y-270334880D01*
X390566071Y-270334880D01*
X390470833Y-270287261D01*
X390423214Y-270239642D01*
X390375595Y-270144404D01*
X390375595Y-269906309D01*
X390423214Y-269811071D01*
X390470833Y-269763452D01*
X390566071Y-269715833D01*
X390756547Y-269715833D01*
X390851785Y-269763452D01*
X390899404Y-269811071D01*
X390947023Y-269906309D01*
D10*
%TO.C,U7*%
X236114523Y-259639880D02*
X237142619Y-259639880D01*
X237263571Y-259700357D01*
X237324047Y-259760833D01*
X237384523Y-259881785D01*
X237384523Y-260123690D01*
X237324047Y-260244642D01*
X237263571Y-260305119D01*
X237142619Y-260365595D01*
X236114523Y-260365595D01*
X236114523Y-260849404D02*
X236114523Y-261696071D01*
X237384523Y-261151785D01*
D11*
%TO.C,C15*%
X377280357Y-270239642D02*
X377327976Y-270287261D01*
X377470833Y-270334880D01*
X377566071Y-270334880D01*
X377708928Y-270287261D01*
X377804166Y-270192023D01*
X377851785Y-270096785D01*
X377899404Y-269906309D01*
X377899404Y-269763452D01*
X377851785Y-269572976D01*
X377804166Y-269477738D01*
X377708928Y-269382500D01*
X377566071Y-269334880D01*
X377470833Y-269334880D01*
X377327976Y-269382500D01*
X377280357Y-269430119D01*
X376327976Y-270334880D02*
X376899404Y-270334880D01*
X376613690Y-270334880D02*
X376613690Y-269334880D01*
X376708928Y-269477738D01*
X376804166Y-269572976D01*
X376899404Y-269620595D01*
X375423214Y-269334880D02*
X375899404Y-269334880D01*
X375947023Y-269811071D01*
X375899404Y-269763452D01*
X375804166Y-269715833D01*
X375566071Y-269715833D01*
X375470833Y-269763452D01*
X375423214Y-269811071D01*
X375375595Y-269906309D01*
X375375595Y-270144404D01*
X375423214Y-270239642D01*
X375470833Y-270287261D01*
X375566071Y-270334880D01*
X375804166Y-270334880D01*
X375899404Y-270287261D01*
X375947023Y-270239642D01*
%TO.C,C9*%
X290072481Y-270278818D02*
X290120100Y-270326437D01*
X290262957Y-270374056D01*
X290358195Y-270374056D01*
X290501053Y-270326437D01*
X290596291Y-270231199D01*
X290643910Y-270135961D01*
X290691529Y-269945485D01*
X290691529Y-269802628D01*
X290643910Y-269612152D01*
X290596291Y-269516914D01*
X290501053Y-269421676D01*
X290358195Y-269374056D01*
X290262957Y-269374056D01*
X290120100Y-269421676D01*
X290072481Y-269469295D01*
X289596291Y-270374056D02*
X289405815Y-270374056D01*
X289310576Y-270326437D01*
X289262957Y-270278818D01*
X289167719Y-270135961D01*
X289120100Y-269945485D01*
X289120100Y-269564533D01*
X289167719Y-269469295D01*
X289215338Y-269421676D01*
X289310576Y-269374056D01*
X289501053Y-269374056D01*
X289596291Y-269421676D01*
X289643910Y-269469295D01*
X289691529Y-269564533D01*
X289691529Y-269802628D01*
X289643910Y-269897866D01*
X289596291Y-269945485D01*
X289501053Y-269993104D01*
X289310576Y-269993104D01*
X289215338Y-269945485D01*
X289167719Y-269897866D01*
X289120100Y-269802628D01*
%TO.C,U16*%
X365402380Y-222166904D02*
X366211904Y-222166904D01*
X366307142Y-222214523D01*
X366354761Y-222262142D01*
X366402380Y-222357380D01*
X366402380Y-222547857D01*
X366354761Y-222643095D01*
X366307142Y-222690714D01*
X366211904Y-222738333D01*
X365402380Y-222738333D01*
X366402380Y-223738333D02*
X366402380Y-223166904D01*
X366402380Y-223452619D02*
X365402380Y-223452619D01*
X365545238Y-223357380D01*
X365640476Y-223262142D01*
X365688095Y-223166904D01*
X365402380Y-224595476D02*
X365402380Y-224405000D01*
X365450000Y-224309761D01*
X365497619Y-224262142D01*
X365640476Y-224166904D01*
X365830952Y-224119285D01*
X366211904Y-224119285D01*
X366307142Y-224166904D01*
X366354761Y-224214523D01*
X366402380Y-224309761D01*
X366402380Y-224500238D01*
X366354761Y-224595476D01*
X366307142Y-224643095D01*
X366211904Y-224690714D01*
X365973809Y-224690714D01*
X365878571Y-224643095D01*
X365830952Y-224595476D01*
X365783333Y-224500238D01*
X365783333Y-224309761D01*
X365830952Y-224214523D01*
X365878571Y-224166904D01*
X365973809Y-224119285D01*
D10*
%TO.C,U3*%
X222114523Y-259639880D02*
X223142619Y-259639880D01*
X223263571Y-259700357D01*
X223324047Y-259760833D01*
X223384523Y-259881785D01*
X223384523Y-260123690D01*
X223324047Y-260244642D01*
X223263571Y-260305119D01*
X223142619Y-260365595D01*
X222114523Y-260365595D01*
X222114523Y-260849404D02*
X222114523Y-261635595D01*
X222598333Y-261212261D01*
X222598333Y-261393690D01*
X222658809Y-261514642D01*
X222719285Y-261575119D01*
X222840238Y-261635595D01*
X223142619Y-261635595D01*
X223263571Y-261575119D01*
X223324047Y-261514642D01*
X223384523Y-261393690D01*
X223384523Y-261030833D01*
X223324047Y-260909880D01*
X223263571Y-260849404D01*
D11*
%TO.C,C4*%
X233604166Y-270084642D02*
X233651785Y-270132261D01*
X233794642Y-270179880D01*
X233889880Y-270179880D01*
X234032738Y-270132261D01*
X234127976Y-270037023D01*
X234175595Y-269941785D01*
X234223214Y-269751309D01*
X234223214Y-269608452D01*
X234175595Y-269417976D01*
X234127976Y-269322738D01*
X234032738Y-269227500D01*
X233889880Y-269179880D01*
X233794642Y-269179880D01*
X233651785Y-269227500D01*
X233604166Y-269275119D01*
X232747023Y-269513214D02*
X232747023Y-270179880D01*
X232985119Y-269132261D02*
X233223214Y-269846547D01*
X232604166Y-269846547D01*
%TO.C,FB21*%
X441183571Y-270722976D02*
X441183571Y-270389642D01*
X441707380Y-270389642D02*
X440707380Y-270389642D01*
X440707380Y-270865833D01*
X441183571Y-271580119D02*
X441231190Y-271722976D01*
X441278809Y-271770595D01*
X441374047Y-271818214D01*
X441516904Y-271818214D01*
X441612142Y-271770595D01*
X441659761Y-271722976D01*
X441707380Y-271627738D01*
X441707380Y-271246785D01*
X440707380Y-271246785D01*
X440707380Y-271580119D01*
X440755000Y-271675357D01*
X440802619Y-271722976D01*
X440897857Y-271770595D01*
X440993095Y-271770595D01*
X441088333Y-271722976D01*
X441135952Y-271675357D01*
X441183571Y-271580119D01*
X441183571Y-271246785D01*
X440802619Y-272199166D02*
X440755000Y-272246785D01*
X440707380Y-272342023D01*
X440707380Y-272580119D01*
X440755000Y-272675357D01*
X440802619Y-272722976D01*
X440897857Y-272770595D01*
X440993095Y-272770595D01*
X441135952Y-272722976D01*
X441707380Y-272151547D01*
X441707380Y-272770595D01*
X441707380Y-273722976D02*
X441707380Y-273151547D01*
X441707380Y-273437261D02*
X440707380Y-273437261D01*
X440850238Y-273342023D01*
X440945476Y-273246785D01*
X440993095Y-273151547D01*
%TO.C,U18*%
X391402380Y-222166904D02*
X392211904Y-222166904D01*
X392307142Y-222214523D01*
X392354761Y-222262142D01*
X392402380Y-222357380D01*
X392402380Y-222547857D01*
X392354761Y-222643095D01*
X392307142Y-222690714D01*
X392211904Y-222738333D01*
X391402380Y-222738333D01*
X392402380Y-223738333D02*
X392402380Y-223166904D01*
X392402380Y-223452619D02*
X391402380Y-223452619D01*
X391545238Y-223357380D01*
X391640476Y-223262142D01*
X391688095Y-223166904D01*
X391830952Y-224309761D02*
X391783333Y-224214523D01*
X391735714Y-224166904D01*
X391640476Y-224119285D01*
X391592857Y-224119285D01*
X391497619Y-224166904D01*
X391450000Y-224214523D01*
X391402380Y-224309761D01*
X391402380Y-224500238D01*
X391450000Y-224595476D01*
X391497619Y-224643095D01*
X391592857Y-224690714D01*
X391640476Y-224690714D01*
X391735714Y-224643095D01*
X391783333Y-224595476D01*
X391830952Y-224500238D01*
X391830952Y-224309761D01*
X391878571Y-224214523D01*
X391926190Y-224166904D01*
X392021428Y-224119285D01*
X392211904Y-224119285D01*
X392307142Y-224166904D01*
X392354761Y-224214523D01*
X392402380Y-224309761D01*
X392402380Y-224500238D01*
X392354761Y-224595476D01*
X392307142Y-224643095D01*
X392211904Y-224690714D01*
X392021428Y-224690714D01*
X391926190Y-224643095D01*
X391878571Y-224595476D01*
X391830952Y-224500238D01*
%TO.C,FB22*%
X446183571Y-271190476D02*
X446183571Y-270857142D01*
X446707380Y-270857142D02*
X445707380Y-270857142D01*
X445707380Y-271333333D01*
X446183571Y-272047619D02*
X446231190Y-272190476D01*
X446278809Y-272238095D01*
X446374047Y-272285714D01*
X446516904Y-272285714D01*
X446612142Y-272238095D01*
X446659761Y-272190476D01*
X446707380Y-272095238D01*
X446707380Y-271714285D01*
X445707380Y-271714285D01*
X445707380Y-272047619D01*
X445755000Y-272142857D01*
X445802619Y-272190476D01*
X445897857Y-272238095D01*
X445993095Y-272238095D01*
X446088333Y-272190476D01*
X446135952Y-272142857D01*
X446183571Y-272047619D01*
X446183571Y-271714285D01*
X445802619Y-272666666D02*
X445755000Y-272714285D01*
X445707380Y-272809523D01*
X445707380Y-273047619D01*
X445755000Y-273142857D01*
X445802619Y-273190476D01*
X445897857Y-273238095D01*
X445993095Y-273238095D01*
X446135952Y-273190476D01*
X446707380Y-272619047D01*
X446707380Y-273238095D01*
X445802619Y-273619047D02*
X445755000Y-273666666D01*
X445707380Y-273761904D01*
X445707380Y-274000000D01*
X445755000Y-274095238D01*
X445802619Y-274142857D01*
X445897857Y-274190476D01*
X445993095Y-274190476D01*
X446135952Y-274142857D01*
X446707380Y-273571428D01*
X446707380Y-274190476D01*
%TO.C,U4*%
X468402380Y-222643095D02*
X469211904Y-222643095D01*
X469307142Y-222690714D01*
X469354761Y-222738333D01*
X469402380Y-222833571D01*
X469402380Y-223024047D01*
X469354761Y-223119285D01*
X469307142Y-223166904D01*
X469211904Y-223214523D01*
X468402380Y-223214523D01*
X468735714Y-224119285D02*
X469402380Y-224119285D01*
X468354761Y-223881190D02*
X469069047Y-223643095D01*
X469069047Y-224262142D01*
%TO.C,C12*%
X305548672Y-270278818D02*
X305596291Y-270326437D01*
X305739148Y-270374056D01*
X305834386Y-270374056D01*
X305977243Y-270326437D01*
X306072481Y-270231199D01*
X306120100Y-270135961D01*
X306167719Y-269945485D01*
X306167719Y-269802628D01*
X306120100Y-269612152D01*
X306072481Y-269516914D01*
X305977243Y-269421676D01*
X305834386Y-269374056D01*
X305739148Y-269374056D01*
X305596291Y-269421676D01*
X305548672Y-269469295D01*
X304596291Y-270374056D02*
X305167719Y-270374056D01*
X304882005Y-270374056D02*
X304882005Y-269374056D01*
X304977243Y-269516914D01*
X305072481Y-269612152D01*
X305167719Y-269659771D01*
X304215338Y-269469295D02*
X304167719Y-269421676D01*
X304072481Y-269374056D01*
X303834386Y-269374056D01*
X303739148Y-269421676D01*
X303691529Y-269469295D01*
X303643910Y-269564533D01*
X303643910Y-269659771D01*
X303691529Y-269802628D01*
X304262957Y-270374056D01*
X303643910Y-270374056D01*
%TO.C,U1*%
X234902380Y-222738095D02*
X235711904Y-222738095D01*
X235807142Y-222785714D01*
X235854761Y-222833333D01*
X235902380Y-222928571D01*
X235902380Y-223119047D01*
X235854761Y-223214285D01*
X235807142Y-223261904D01*
X235711904Y-223309523D01*
X234902380Y-223309523D01*
X235902380Y-224309523D02*
X235902380Y-223738095D01*
X235902380Y-224023809D02*
X234902380Y-224023809D01*
X235045238Y-223928571D01*
X235140476Y-223833333D01*
X235188095Y-223738095D01*
%TO.C,R1*%
X487082380Y-206713333D02*
X486606190Y-206380000D01*
X487082380Y-206141904D02*
X486082380Y-206141904D01*
X486082380Y-206522857D01*
X486130000Y-206618095D01*
X486177619Y-206665714D01*
X486272857Y-206713333D01*
X486415714Y-206713333D01*
X486510952Y-206665714D01*
X486558571Y-206618095D01*
X486606190Y-206522857D01*
X486606190Y-206141904D01*
X487082380Y-207665714D02*
X487082380Y-207094285D01*
X487082380Y-207380000D02*
X486082380Y-207380000D01*
X486225238Y-207284761D01*
X486320476Y-207189523D01*
X486368095Y-207094285D01*
%TO.C,C11*%
X492292857Y-219887142D02*
X492340476Y-219934761D01*
X492483333Y-219982380D01*
X492578571Y-219982380D01*
X492721428Y-219934761D01*
X492816666Y-219839523D01*
X492864285Y-219744285D01*
X492911904Y-219553809D01*
X492911904Y-219410952D01*
X492864285Y-219220476D01*
X492816666Y-219125238D01*
X492721428Y-219030000D01*
X492578571Y-218982380D01*
X492483333Y-218982380D01*
X492340476Y-219030000D01*
X492292857Y-219077619D01*
X491340476Y-219982380D02*
X491911904Y-219982380D01*
X491626190Y-219982380D02*
X491626190Y-218982380D01*
X491721428Y-219125238D01*
X491816666Y-219220476D01*
X491911904Y-219268095D01*
X490388095Y-219982380D02*
X490959523Y-219982380D01*
X490673809Y-219982380D02*
X490673809Y-218982380D01*
X490769047Y-219125238D01*
X490864285Y-219220476D01*
X490959523Y-219268095D01*
%TO.C,FB7*%
X243608571Y-271044166D02*
X243608571Y-270710833D01*
X244132380Y-270710833D02*
X243132380Y-270710833D01*
X243132380Y-271187023D01*
X243608571Y-271901309D02*
X243656190Y-272044166D01*
X243703809Y-272091785D01*
X243799047Y-272139404D01*
X243941904Y-272139404D01*
X244037142Y-272091785D01*
X244084761Y-272044166D01*
X244132380Y-271948928D01*
X244132380Y-271567976D01*
X243132380Y-271567976D01*
X243132380Y-271901309D01*
X243180000Y-271996547D01*
X243227619Y-272044166D01*
X243322857Y-272091785D01*
X243418095Y-272091785D01*
X243513333Y-272044166D01*
X243560952Y-271996547D01*
X243608571Y-271901309D01*
X243608571Y-271567976D01*
X243132380Y-272472738D02*
X243132380Y-273139404D01*
X244132380Y-272710833D01*
D10*
%TO.C,U19*%
X364314523Y-259190119D02*
X365342619Y-259190119D01*
X365463571Y-259250595D01*
X365524047Y-259311071D01*
X365584523Y-259432023D01*
X365584523Y-259673928D01*
X365524047Y-259794880D01*
X365463571Y-259855357D01*
X365342619Y-259915833D01*
X364314523Y-259915833D01*
X365584523Y-261185833D02*
X365584523Y-260460119D01*
X365584523Y-260822976D02*
X364314523Y-260822976D01*
X364495952Y-260702023D01*
X364616904Y-260581071D01*
X364677380Y-260460119D01*
X365584523Y-261790595D02*
X365584523Y-262032500D01*
X365524047Y-262153452D01*
X365463571Y-262213928D01*
X365282142Y-262334880D01*
X365040238Y-262395357D01*
X364556428Y-262395357D01*
X364435476Y-262334880D01*
X364375000Y-262274404D01*
X364314523Y-262153452D01*
X364314523Y-261911547D01*
X364375000Y-261790595D01*
X364435476Y-261730119D01*
X364556428Y-261669642D01*
X364858809Y-261669642D01*
X364979761Y-261730119D01*
X365040238Y-261790595D01*
X365100714Y-261911547D01*
X365100714Y-262153452D01*
X365040238Y-262274404D01*
X364979761Y-262334880D01*
X364858809Y-262395357D01*
D11*
%TO.C,FB12*%
X305576886Y-271229652D02*
X305576886Y-270896318D01*
X306100695Y-270896318D02*
X305100695Y-270896318D01*
X305100695Y-271372509D01*
X305576886Y-272086795D02*
X305624505Y-272229652D01*
X305672124Y-272277271D01*
X305767362Y-272324890D01*
X305910219Y-272324890D01*
X306005457Y-272277271D01*
X306053076Y-272229652D01*
X306100695Y-272134414D01*
X306100695Y-271753461D01*
X305100695Y-271753461D01*
X305100695Y-272086795D01*
X305148315Y-272182033D01*
X305195934Y-272229652D01*
X305291172Y-272277271D01*
X305386410Y-272277271D01*
X305481648Y-272229652D01*
X305529267Y-272182033D01*
X305576886Y-272086795D01*
X305576886Y-271753461D01*
X306100695Y-273277271D02*
X306100695Y-272705842D01*
X306100695Y-272991556D02*
X305100695Y-272991556D01*
X305243553Y-272896318D01*
X305338791Y-272801080D01*
X305386410Y-272705842D01*
X305195934Y-273658223D02*
X305148315Y-273705842D01*
X305100695Y-273801080D01*
X305100695Y-274039176D01*
X305148315Y-274134414D01*
X305195934Y-274182033D01*
X305291172Y-274229652D01*
X305386410Y-274229652D01*
X305529267Y-274182033D01*
X306100695Y-273610604D01*
X306100695Y-274229652D01*
%TO.C,C3*%
X445679166Y-270239642D02*
X445726785Y-270287261D01*
X445869642Y-270334880D01*
X445964880Y-270334880D01*
X446107738Y-270287261D01*
X446202976Y-270192023D01*
X446250595Y-270096785D01*
X446298214Y-269906309D01*
X446298214Y-269763452D01*
X446250595Y-269572976D01*
X446202976Y-269477738D01*
X446107738Y-269382500D01*
X445964880Y-269334880D01*
X445869642Y-269334880D01*
X445726785Y-269382500D01*
X445679166Y-269430119D01*
X445345833Y-269334880D02*
X444726785Y-269334880D01*
X445060119Y-269715833D01*
X444917261Y-269715833D01*
X444822023Y-269763452D01*
X444774404Y-269811071D01*
X444726785Y-269906309D01*
X444726785Y-270144404D01*
X444774404Y-270239642D01*
X444822023Y-270287261D01*
X444917261Y-270334880D01*
X445202976Y-270334880D01*
X445298214Y-270287261D01*
X445345833Y-270239642D01*
%TO.C,U20*%
X417402380Y-222166904D02*
X418211904Y-222166904D01*
X418307142Y-222214523D01*
X418354761Y-222262142D01*
X418402380Y-222357380D01*
X418402380Y-222547857D01*
X418354761Y-222643095D01*
X418307142Y-222690714D01*
X418211904Y-222738333D01*
X417402380Y-222738333D01*
X417497619Y-223166904D02*
X417450000Y-223214523D01*
X417402380Y-223309761D01*
X417402380Y-223547857D01*
X417450000Y-223643095D01*
X417497619Y-223690714D01*
X417592857Y-223738333D01*
X417688095Y-223738333D01*
X417830952Y-223690714D01*
X418402380Y-223119285D01*
X418402380Y-223738333D01*
X417402380Y-224357380D02*
X417402380Y-224452619D01*
X417450000Y-224547857D01*
X417497619Y-224595476D01*
X417592857Y-224643095D01*
X417783333Y-224690714D01*
X418021428Y-224690714D01*
X418211904Y-224643095D01*
X418307142Y-224595476D01*
X418354761Y-224547857D01*
X418402380Y-224452619D01*
X418402380Y-224357380D01*
X418354761Y-224262142D01*
X418307142Y-224214523D01*
X418211904Y-224166904D01*
X418021428Y-224119285D01*
X417783333Y-224119285D01*
X417592857Y-224166904D01*
X417497619Y-224214523D01*
X417450000Y-224262142D01*
X417402380Y-224357380D01*
%TO.C,C10*%
X504232857Y-230557142D02*
X504280476Y-230604761D01*
X504423333Y-230652380D01*
X504518571Y-230652380D01*
X504661428Y-230604761D01*
X504756666Y-230509523D01*
X504804285Y-230414285D01*
X504851904Y-230223809D01*
X504851904Y-230080952D01*
X504804285Y-229890476D01*
X504756666Y-229795238D01*
X504661428Y-229700000D01*
X504518571Y-229652380D01*
X504423333Y-229652380D01*
X504280476Y-229700000D01*
X504232857Y-229747619D01*
X503280476Y-230652380D02*
X503851904Y-230652380D01*
X503566190Y-230652380D02*
X503566190Y-229652380D01*
X503661428Y-229795238D01*
X503756666Y-229890476D01*
X503851904Y-229938095D01*
X502661428Y-229652380D02*
X502566190Y-229652380D01*
X502470952Y-229700000D01*
X502423333Y-229747619D01*
X502375714Y-229842857D01*
X502328095Y-230033333D01*
X502328095Y-230271428D01*
X502375714Y-230461904D01*
X502423333Y-230557142D01*
X502470952Y-230604761D01*
X502566190Y-230652380D01*
X502661428Y-230652380D01*
X502756666Y-230604761D01*
X502804285Y-230557142D01*
X502851904Y-230461904D01*
X502899523Y-230271428D01*
X502899523Y-230033333D01*
X502851904Y-229842857D01*
X502804285Y-229747619D01*
X502756666Y-229700000D01*
X502661428Y-229652380D01*
%TO.C,C5*%
X487476666Y-213637142D02*
X487524285Y-213684761D01*
X487667142Y-213732380D01*
X487762380Y-213732380D01*
X487905238Y-213684761D01*
X488000476Y-213589523D01*
X488048095Y-213494285D01*
X488095714Y-213303809D01*
X488095714Y-213160952D01*
X488048095Y-212970476D01*
X488000476Y-212875238D01*
X487905238Y-212780000D01*
X487762380Y-212732380D01*
X487667142Y-212732380D01*
X487524285Y-212780000D01*
X487476666Y-212827619D01*
X486571904Y-212732380D02*
X487048095Y-212732380D01*
X487095714Y-213208571D01*
X487048095Y-213160952D01*
X486952857Y-213113333D01*
X486714761Y-213113333D01*
X486619523Y-213160952D01*
X486571904Y-213208571D01*
X486524285Y-213303809D01*
X486524285Y-213541904D01*
X486571904Y-213637142D01*
X486619523Y-213684761D01*
X486714761Y-213732380D01*
X486952857Y-213732380D01*
X487048095Y-213684761D01*
X487095714Y-213637142D01*
%TO.C,C14*%
X362280357Y-270239642D02*
X362327976Y-270287261D01*
X362470833Y-270334880D01*
X362566071Y-270334880D01*
X362708928Y-270287261D01*
X362804166Y-270192023D01*
X362851785Y-270096785D01*
X362899404Y-269906309D01*
X362899404Y-269763452D01*
X362851785Y-269572976D01*
X362804166Y-269477738D01*
X362708928Y-269382500D01*
X362566071Y-269334880D01*
X362470833Y-269334880D01*
X362327976Y-269382500D01*
X362280357Y-269430119D01*
X361327976Y-270334880D02*
X361899404Y-270334880D01*
X361613690Y-270334880D02*
X361613690Y-269334880D01*
X361708928Y-269477738D01*
X361804166Y-269572976D01*
X361899404Y-269620595D01*
X360470833Y-269668214D02*
X360470833Y-270334880D01*
X360708928Y-269287261D02*
X360947023Y-270001547D01*
X360327976Y-270001547D01*
D12*
%TO.C,U21*%
X373802240Y-260132580D02*
X373802240Y-263432040D01*
X378597760Y-263432040D02*
X378597760Y-260132580D01*
X378597760Y-263932420D02*
X378597760Y-263432040D01*
X373802240Y-263432040D02*
X373802240Y-263932420D01*
D13*
X378950000Y-266222500D02*
G75*
G03*
X378950000Y-266222500I-100000J0D01*
G01*
D14*
%TO.C,C2*%
X429801248Y-268942500D02*
X431223752Y-268942500D01*
X429801248Y-267122500D02*
X431223752Y-267122500D01*
%TO.C,FB13*%
X318378315Y-271344612D02*
X318378315Y-272798740D01*
X316558315Y-271344612D02*
X316558315Y-272798740D01*
%TO.C,FB10*%
X293378315Y-271344612D02*
X293378315Y-272798740D01*
X291558315Y-271344612D02*
X291558315Y-272798740D01*
%TO.C,FB6*%
X235090000Y-271150436D02*
X235090000Y-272604564D01*
X236910000Y-271150436D02*
X236910000Y-272604564D01*
%TO.C,U22*%
X439790000Y-223405000D02*
X439790000Y-221095000D01*
X439790000Y-223405000D02*
X439790000Y-225715000D01*
X442610000Y-221095000D02*
X442395000Y-221095000D01*
X442610000Y-223405000D02*
X442610000Y-225715000D01*
X442395000Y-225715000D02*
X442395000Y-227405000D01*
X439790000Y-221095000D02*
X440005000Y-221095000D01*
X442610000Y-223405000D02*
X442610000Y-221095000D01*
X442610000Y-225715000D02*
X442395000Y-225715000D01*
X439790000Y-225715000D02*
X440005000Y-225715000D01*
%TO.C,C17*%
X492670000Y-206218748D02*
X492670000Y-207641252D01*
X490850000Y-206218748D02*
X490850000Y-207641252D01*
%TO.C,FB2*%
X222910000Y-271150436D02*
X222910000Y-272604564D01*
X221090000Y-271150436D02*
X221090000Y-272604564D01*
%TO.C,FB18*%
X378290000Y-271305436D02*
X378290000Y-272759564D01*
X380110000Y-271305436D02*
X380110000Y-272759564D01*
%TO.C,FB17*%
X373290000Y-271305436D02*
X373290000Y-272759564D01*
X375110000Y-271305436D02*
X375110000Y-272759564D01*
%TO.C,FB1*%
X216090000Y-271150436D02*
X216090000Y-272604564D01*
X217910000Y-271150436D02*
X217910000Y-272604564D01*
%TO.C,C8*%
X247226248Y-268787500D02*
X248648752Y-268787500D01*
X247226248Y-266967500D02*
X248648752Y-266967500D01*
%TO.C,U5*%
X257790000Y-222905000D02*
X257790000Y-225215000D01*
X257790000Y-222905000D02*
X257790000Y-220595000D01*
X260610000Y-222905000D02*
X260610000Y-220595000D01*
X257790000Y-220595000D02*
X258005000Y-220595000D01*
X260610000Y-220595000D02*
X260395000Y-220595000D01*
X257790000Y-225215000D02*
X258005000Y-225215000D01*
X260395000Y-225215000D02*
X260395000Y-226905000D01*
X260610000Y-225215000D02*
X260395000Y-225215000D01*
X260610000Y-222905000D02*
X260610000Y-225215000D01*
%TO.C,U12*%
X489430000Y-230350000D02*
X490690000Y-230350000D01*
X496250000Y-226590000D02*
X496250000Y-230350000D01*
X489430000Y-224340000D02*
X489430000Y-230350000D01*
X496250000Y-230350000D02*
X494990000Y-230350000D01*
D12*
%TO.C,U2*%
X432472760Y-263432040D02*
X432472760Y-260132580D01*
X427677240Y-263432040D02*
X427677240Y-263932420D01*
X427677240Y-260132580D02*
X427677240Y-263432040D01*
X432472760Y-263932420D02*
X432472760Y-263432040D01*
D13*
X432825000Y-266222500D02*
G75*
G03*
X432825000Y-266222500I-100000J0D01*
G01*
D14*
%TO.C,FB3*%
X427165000Y-271305436D02*
X427165000Y-272759564D01*
X428985000Y-271305436D02*
X428985000Y-272759564D01*
D12*
%TO.C,U13*%
X287070555Y-263471216D02*
X287070555Y-263971596D01*
X291866075Y-263971596D02*
X291866075Y-263471216D01*
X291866075Y-263471216D02*
X291866075Y-260171756D01*
X287070555Y-260171756D02*
X287070555Y-263471216D01*
D13*
X292218315Y-266261676D02*
G75*
G03*
X292218315Y-266261676I-100000J0D01*
G01*
D14*
%TO.C,FB9*%
X286558315Y-271344612D02*
X286558315Y-272798740D01*
X288378315Y-271344612D02*
X288378315Y-272798740D01*
%TO.C,C6*%
X474330000Y-197418748D02*
X474330000Y-198841252D01*
X476150000Y-197418748D02*
X476150000Y-198841252D01*
%TO.C,FB5*%
X231910000Y-271150436D02*
X231910000Y-272604564D01*
X230090000Y-271150436D02*
X230090000Y-272604564D01*
%TO.C,FB8*%
X249590000Y-271150436D02*
X249590000Y-272604564D01*
X251410000Y-271150436D02*
X251410000Y-272604564D01*
D12*
%TO.C,U17*%
X321866075Y-263471216D02*
X321866075Y-260171756D01*
X317070555Y-263471216D02*
X317070555Y-263971596D01*
X317070555Y-260171756D02*
X317070555Y-263471216D01*
X321866075Y-263971596D02*
X321866075Y-263471216D01*
D13*
X322218315Y-266261676D02*
G75*
G03*
X322218315Y-266261676I-100000J0D01*
G01*
D14*
%TO.C,FB14*%
X321558315Y-271344612D02*
X321558315Y-272798740D01*
X323378315Y-271344612D02*
X323378315Y-272798740D01*
%TO.C,FB20*%
X393290000Y-271305436D02*
X393290000Y-272759564D01*
X395110000Y-271305436D02*
X395110000Y-272759564D01*
D12*
%TO.C,U6*%
X447472760Y-263932420D02*
X447472760Y-263432040D01*
X447472760Y-263432040D02*
X447472760Y-260132580D01*
X442677240Y-260132580D02*
X442677240Y-263432040D01*
X442677240Y-263432040D02*
X442677240Y-263932420D01*
D13*
X447825000Y-266222500D02*
G75*
G03*
X447825000Y-266222500I-100000J0D01*
G01*
D12*
%TO.C,U15*%
X306866075Y-263471216D02*
X306866075Y-260171756D01*
X302070555Y-263471216D02*
X302070555Y-263971596D01*
X302070555Y-260171756D02*
X302070555Y-263471216D01*
X306866075Y-263971596D02*
X306866075Y-263471216D01*
D13*
X307218315Y-266261676D02*
G75*
G03*
X307218315Y-266261676I-100000J0D01*
G01*
D14*
%TO.C,U14*%
X338610000Y-220595000D02*
X338395000Y-220595000D01*
X338610000Y-225215000D02*
X338395000Y-225215000D01*
X335790000Y-222905000D02*
X335790000Y-225215000D01*
X335790000Y-225215000D02*
X336005000Y-225215000D01*
X338610000Y-222905000D02*
X338610000Y-220595000D01*
X338610000Y-222905000D02*
X338610000Y-225215000D01*
X338395000Y-225215000D02*
X338395000Y-226905000D01*
X335790000Y-220595000D02*
X336005000Y-220595000D01*
X335790000Y-222905000D02*
X335790000Y-220595000D01*
%TO.C,C1*%
X218726248Y-266967500D02*
X220148752Y-266967500D01*
X218726248Y-268787500D02*
X220148752Y-268787500D01*
%TO.C,FB16*%
X365110000Y-271305436D02*
X365110000Y-272759564D01*
X363290000Y-271305436D02*
X363290000Y-272759564D01*
%TO.C,C7*%
X497040000Y-198861252D02*
X497040000Y-197438748D01*
X495220000Y-198861252D02*
X495220000Y-197438748D01*
%TO.C,FB11*%
X303378315Y-271344612D02*
X303378315Y-272798740D01*
X301558315Y-271344612D02*
X301558315Y-272798740D01*
%TO.C,FB4*%
X432165000Y-271305436D02*
X432165000Y-272759564D01*
X433985000Y-271305436D02*
X433985000Y-272759564D01*
%TO.C,C13*%
X319194563Y-267161676D02*
X320617067Y-267161676D01*
X319194563Y-268981676D02*
X320617067Y-268981676D01*
%TO.C,U8*%
X286610000Y-222905000D02*
X286610000Y-225215000D01*
X286610000Y-220595000D02*
X286395000Y-220595000D01*
X286610000Y-225215000D02*
X286395000Y-225215000D01*
X283790000Y-225215000D02*
X284005000Y-225215000D01*
X286395000Y-225215000D02*
X286395000Y-226905000D01*
X283790000Y-222905000D02*
X283790000Y-225215000D01*
X283790000Y-222905000D02*
X283790000Y-220595000D01*
X286610000Y-222905000D02*
X286610000Y-220595000D01*
X283790000Y-220595000D02*
X284005000Y-220595000D01*
%TO.C,U11*%
X309790000Y-225215000D02*
X310005000Y-225215000D01*
X309790000Y-222905000D02*
X309790000Y-220595000D01*
X312395000Y-225215000D02*
X312395000Y-226905000D01*
X312610000Y-225215000D02*
X312395000Y-225215000D01*
X312610000Y-222905000D02*
X312610000Y-225215000D01*
X312610000Y-222905000D02*
X312610000Y-220595000D01*
X309790000Y-222905000D02*
X309790000Y-225215000D01*
X309790000Y-220595000D02*
X310005000Y-220595000D01*
X312610000Y-220595000D02*
X312395000Y-220595000D01*
D12*
%TO.C,U10*%
X249897760Y-263277040D02*
X249897760Y-259977580D01*
X245102240Y-263277040D02*
X245102240Y-263777420D01*
X245102240Y-259977580D02*
X245102240Y-263277040D01*
X249897760Y-263777420D02*
X249897760Y-263277040D01*
D13*
X250250000Y-266067500D02*
G75*
G03*
X250250000Y-266067500I-100000J0D01*
G01*
D14*
%TO.C,FB19*%
X388290000Y-271305436D02*
X388290000Y-272759564D01*
X390110000Y-271305436D02*
X390110000Y-272759564D01*
%TO.C,FB15*%
X360110000Y-271305436D02*
X360110000Y-272759564D01*
X358290000Y-271305436D02*
X358290000Y-272759564D01*
D12*
%TO.C,U23*%
X388802240Y-263432040D02*
X388802240Y-263932420D01*
X393597760Y-263432040D02*
X393597760Y-260132580D01*
X388802240Y-260132580D02*
X388802240Y-263432040D01*
X393597760Y-263932420D02*
X393597760Y-263432040D01*
D13*
X393950000Y-266222500D02*
G75*
G03*
X393950000Y-266222500I-100000J0D01*
G01*
D14*
%TO.C,C16*%
X390926248Y-267122500D02*
X392348752Y-267122500D01*
X390926248Y-268942500D02*
X392348752Y-268942500D01*
D12*
%TO.C,U7*%
X230602240Y-263277040D02*
X230602240Y-263777420D01*
X235397760Y-263277040D02*
X235397760Y-259977580D01*
X235397760Y-263777420D02*
X235397760Y-263277040D01*
X230602240Y-259977580D02*
X230602240Y-263277040D01*
D13*
X235750000Y-266067500D02*
G75*
G03*
X235750000Y-266067500I-100000J0D01*
G01*
D14*
%TO.C,C15*%
X375926248Y-267122500D02*
X377348752Y-267122500D01*
X375926248Y-268942500D02*
X377348752Y-268942500D01*
%TO.C,C9*%
X289194563Y-268981676D02*
X290617067Y-268981676D01*
X289194563Y-267161676D02*
X290617067Y-267161676D01*
%TO.C,U16*%
X365110000Y-223405000D02*
X365110000Y-221095000D01*
X365110000Y-221095000D02*
X364895000Y-221095000D01*
X362290000Y-223405000D02*
X362290000Y-221095000D01*
X365110000Y-223405000D02*
X365110000Y-225715000D01*
X362290000Y-225715000D02*
X362505000Y-225715000D01*
X364895000Y-225715000D02*
X364895000Y-227405000D01*
X365110000Y-225715000D02*
X364895000Y-225715000D01*
X362290000Y-223405000D02*
X362290000Y-225715000D01*
X362290000Y-221095000D02*
X362505000Y-221095000D01*
D12*
%TO.C,U3*%
X221397760Y-263777420D02*
X221397760Y-263277040D01*
X216602240Y-263277040D02*
X216602240Y-263777420D01*
X221397760Y-263277040D02*
X221397760Y-259977580D01*
X216602240Y-259977580D02*
X216602240Y-263277040D01*
D13*
X221750000Y-266067500D02*
G75*
G03*
X221750000Y-266067500I-100000J0D01*
G01*
D14*
%TO.C,C4*%
X232726248Y-266967500D02*
X234148752Y-266967500D01*
X232726248Y-268787500D02*
X234148752Y-268787500D01*
%TO.C,FB21*%
X443985000Y-271305436D02*
X443985000Y-272759564D01*
X442165000Y-271305436D02*
X442165000Y-272759564D01*
%TO.C,U18*%
X388290000Y-225715000D02*
X388505000Y-225715000D01*
X388290000Y-223405000D02*
X388290000Y-221095000D01*
X391110000Y-223405000D02*
X391110000Y-225715000D01*
X391110000Y-223405000D02*
X391110000Y-221095000D01*
X391110000Y-225715000D02*
X390895000Y-225715000D01*
X388290000Y-223405000D02*
X388290000Y-225715000D01*
X390895000Y-225715000D02*
X390895000Y-227405000D01*
X388290000Y-221095000D02*
X388505000Y-221095000D01*
X391110000Y-221095000D02*
X390895000Y-221095000D01*
%TO.C,FB22*%
X448985000Y-271305436D02*
X448985000Y-272759564D01*
X447165000Y-271305436D02*
X447165000Y-272759564D01*
%TO.C,U4*%
X468110000Y-223405000D02*
X468110000Y-221095000D01*
X468110000Y-225715000D02*
X467895000Y-225715000D01*
X468110000Y-223405000D02*
X468110000Y-225715000D01*
X465290000Y-223405000D02*
X465290000Y-221095000D01*
X465290000Y-225715000D02*
X465505000Y-225715000D01*
X467895000Y-225715000D02*
X467895000Y-227405000D01*
X468110000Y-221095000D02*
X467895000Y-221095000D01*
X465290000Y-221095000D02*
X465505000Y-221095000D01*
X465290000Y-223405000D02*
X465290000Y-225715000D01*
%TO.C,C12*%
X304194563Y-268981676D02*
X305617067Y-268981676D01*
X304194563Y-267161676D02*
X305617067Y-267161676D01*
%TO.C,U1*%
X231790000Y-222905000D02*
X231790000Y-220595000D01*
X234610000Y-222905000D02*
X234610000Y-220595000D01*
X231790000Y-225215000D02*
X232005000Y-225215000D01*
X234395000Y-225215000D02*
X234395000Y-226905000D01*
X231790000Y-222905000D02*
X231790000Y-225215000D01*
X234610000Y-220595000D02*
X234395000Y-220595000D01*
X231790000Y-220595000D02*
X232005000Y-220595000D01*
X234610000Y-225215000D02*
X234395000Y-225215000D01*
X234610000Y-222905000D02*
X234610000Y-225215000D01*
%TO.C,R1*%
X487540000Y-206152936D02*
X487540000Y-207607064D01*
X489360000Y-206152936D02*
X489360000Y-207607064D01*
%TO.C,C11*%
X492361252Y-220470000D02*
X490938748Y-220470000D01*
X492361252Y-222290000D02*
X490938748Y-222290000D01*
%TO.C,FB7*%
X246410000Y-271150436D02*
X246410000Y-272604564D01*
X244590000Y-271150436D02*
X244590000Y-272604564D01*
D12*
%TO.C,U19*%
X363597760Y-263932420D02*
X363597760Y-263432040D01*
X358802240Y-260132580D02*
X358802240Y-263432040D01*
X363597760Y-263432040D02*
X363597760Y-260132580D01*
X358802240Y-263432040D02*
X358802240Y-263932420D01*
D13*
X363950000Y-266222500D02*
G75*
G03*
X363950000Y-266222500I-100000J0D01*
G01*
D14*
%TO.C,FB12*%
X308378315Y-271344612D02*
X308378315Y-272798740D01*
X306558315Y-271344612D02*
X306558315Y-272798740D01*
%TO.C,C3*%
X444801248Y-268942500D02*
X446223752Y-268942500D01*
X444801248Y-267122500D02*
X446223752Y-267122500D01*
%TO.C,U20*%
X414290000Y-225715000D02*
X414505000Y-225715000D01*
X414290000Y-223405000D02*
X414290000Y-225715000D01*
X417110000Y-221095000D02*
X416895000Y-221095000D01*
X416895000Y-225715000D02*
X416895000Y-227405000D01*
X417110000Y-223405000D02*
X417110000Y-225715000D01*
X414290000Y-221095000D02*
X414505000Y-221095000D01*
X414290000Y-223405000D02*
X414290000Y-221095000D01*
X417110000Y-225715000D02*
X416895000Y-225715000D01*
X417110000Y-223405000D02*
X417110000Y-221095000D01*
%TO.C,C10*%
X504301252Y-232960000D02*
X502878748Y-232960000D01*
X504301252Y-231140000D02*
X502878748Y-231140000D01*
%TO.C,C5*%
X486598748Y-210520000D02*
X488021252Y-210520000D01*
X486598748Y-212340000D02*
X488021252Y-212340000D01*
%TO.C,C14*%
X360926248Y-268942500D02*
X362348752Y-268942500D01*
X360926248Y-267122500D02*
X362348752Y-267122500D01*
%TD*%
M02*
