%TF.GenerationSoftware,KiCad,Pcbnew,(6.0.4)*%
%TF.CreationDate,2023-03-07T14:55:24-05:00*%
%TF.ProjectId,Pyrolysis,5079726f-6c79-4736-9973-2e6b69636164,rev?*%
%TF.SameCoordinates,Original*%
%TF.FileFunction,Legend,Top*%
%TF.FilePolarity,Positive*%
%FSLAX46Y46*%
G04 Gerber Fmt 4.6, Leading zero omitted, Abs format (unit mm)*
G04 Created by KiCad (PCBNEW (6.0.4)) date 2023-03-07 14:55:24*
%MOMM*%
%LPD*%
G01*
G04 APERTURE LIST*
%ADD10C,0.250000*%
%ADD11C,0.125000*%
%ADD12C,0.150000*%
%ADD13C,0.120000*%
%ADD14C,3.500000*%
G04 APERTURE END LIST*
D10*
X456809523Y-177047619D02*
X456809523Y-178047619D01*
X456238095Y-177047619D01*
X456238095Y-178047619D01*
X455571428Y-178047619D02*
X455380952Y-178047619D01*
X455285714Y-178000000D01*
X455190476Y-177904761D01*
X455142857Y-177714285D01*
X455142857Y-177380952D01*
X455190476Y-177190476D01*
X455285714Y-177095238D01*
X455380952Y-177047619D01*
X455571428Y-177047619D01*
X455666666Y-177095238D01*
X455761904Y-177190476D01*
X455809523Y-177380952D01*
X455809523Y-177714285D01*
X455761904Y-177904761D01*
X455666666Y-178000000D01*
X455571428Y-178047619D01*
D11*
X484770000Y-181653809D02*
X484674761Y-181653809D01*
X484627142Y-181630000D01*
X484579523Y-181582380D01*
X484555714Y-181487142D01*
X484555714Y-181320476D01*
X484579523Y-181225238D01*
X484627142Y-181177619D01*
X484674761Y-181153809D01*
X484770000Y-181153809D01*
X484817619Y-181177619D01*
X484865238Y-181225238D01*
X484889047Y-181320476D01*
X484889047Y-181487142D01*
X484865238Y-181582380D01*
X484817619Y-181630000D01*
X484770000Y-181653809D01*
X484341428Y-181653809D02*
X484341428Y-181249047D01*
X484317619Y-181201428D01*
X484293809Y-181177619D01*
X484246190Y-181153809D01*
X484150952Y-181153809D01*
X484103333Y-181177619D01*
X484079523Y-181201428D01*
X484055714Y-181249047D01*
X484055714Y-181653809D01*
X483889047Y-181653809D02*
X483603333Y-181653809D01*
X483746190Y-181153809D02*
X483746190Y-181653809D01*
X502678571Y-185988095D02*
X502702380Y-186011904D01*
X502726190Y-186083333D01*
X502726190Y-186130952D01*
X502702380Y-186202380D01*
X502654761Y-186250000D01*
X502607142Y-186273809D01*
X502511904Y-186297619D01*
X502440476Y-186297619D01*
X502345238Y-186273809D01*
X502297619Y-186250000D01*
X502250000Y-186202380D01*
X502226190Y-186130952D01*
X502226190Y-186083333D01*
X502250000Y-186011904D01*
X502273809Y-185988095D01*
X502226190Y-185773809D02*
X502630952Y-185773809D01*
X502678571Y-185750000D01*
X502702380Y-185726190D01*
X502726190Y-185678571D01*
X502726190Y-185583333D01*
X502702380Y-185535714D01*
X502678571Y-185511904D01*
X502630952Y-185488095D01*
X502226190Y-185488095D01*
X502702380Y-185273809D02*
X502726190Y-185202380D01*
X502726190Y-185083333D01*
X502702380Y-185035714D01*
X502678571Y-185011904D01*
X502630952Y-184988095D01*
X502583333Y-184988095D01*
X502535714Y-185011904D01*
X502511904Y-185035714D01*
X502488095Y-185083333D01*
X502464285Y-185178571D01*
X502440476Y-185226190D01*
X502416666Y-185250000D01*
X502369047Y-185273809D01*
X502321428Y-185273809D01*
X502273809Y-185250000D01*
X502250000Y-185226190D01*
X502226190Y-185178571D01*
X502226190Y-185059523D01*
X502250000Y-184988095D01*
X502226190Y-184845238D02*
X502226190Y-184559523D01*
X502726190Y-184702380D02*
X502226190Y-184702380D01*
X502226190Y-184297619D02*
X502226190Y-184202380D01*
X502250000Y-184154761D01*
X502297619Y-184107142D01*
X502392857Y-184083333D01*
X502559523Y-184083333D01*
X502654761Y-184107142D01*
X502702380Y-184154761D01*
X502726190Y-184202380D01*
X502726190Y-184297619D01*
X502702380Y-184345238D01*
X502654761Y-184392857D01*
X502559523Y-184416666D01*
X502392857Y-184416666D01*
X502297619Y-184392857D01*
X502250000Y-184345238D01*
X502226190Y-184297619D01*
X502726190Y-183869047D02*
X502226190Y-183869047D01*
X502583333Y-183702380D01*
X502226190Y-183535714D01*
X502726190Y-183535714D01*
X502726190Y-182916666D02*
X502226190Y-182916666D01*
X502226190Y-182726190D01*
X502250000Y-182678571D01*
X502273809Y-182654761D01*
X502321428Y-182630952D01*
X502392857Y-182630952D01*
X502440476Y-182654761D01*
X502464285Y-182678571D01*
X502488095Y-182726190D01*
X502488095Y-182916666D01*
X502226190Y-182464285D02*
X502726190Y-182345238D01*
X502369047Y-182250000D01*
X502726190Y-182154761D01*
X502226190Y-182035714D01*
X502726190Y-181559523D02*
X502488095Y-181726190D01*
X502726190Y-181845238D02*
X502226190Y-181845238D01*
X502226190Y-181654761D01*
X502250000Y-181607142D01*
X502273809Y-181583333D01*
X502321428Y-181559523D01*
X502392857Y-181559523D01*
X502440476Y-181583333D01*
X502464285Y-181607142D01*
X502488095Y-181654761D01*
X502488095Y-181845238D01*
X502273809Y-180988095D02*
X502250000Y-180964285D01*
X502226190Y-180916666D01*
X502226190Y-180797619D01*
X502250000Y-180750000D01*
X502273809Y-180726190D01*
X502321428Y-180702380D01*
X502369047Y-180702380D01*
X502440476Y-180726190D01*
X502726190Y-181011904D01*
X502726190Y-180702380D01*
D10*
X399285714Y-177047619D02*
X399285714Y-178047619D01*
X398714285Y-177047619D01*
X398714285Y-178047619D01*
X397666666Y-177142857D02*
X397714285Y-177095238D01*
X397857142Y-177047619D01*
X397952380Y-177047619D01*
X398095238Y-177095238D01*
X398190476Y-177190476D01*
X398238095Y-177285714D01*
X398285714Y-177476190D01*
X398285714Y-177619047D01*
X398238095Y-177809523D01*
X398190476Y-177904761D01*
X398095238Y-178000000D01*
X397952380Y-178047619D01*
X397857142Y-178047619D01*
X397714285Y-178000000D01*
X397666666Y-177952380D01*
D12*
X499620952Y-177188571D02*
X498859047Y-177188571D01*
D10*
X389761904Y-178000000D02*
X389857142Y-178047619D01*
X390000000Y-178047619D01*
X390142857Y-178000000D01*
X390238095Y-177904761D01*
X390285714Y-177809523D01*
X390333333Y-177619047D01*
X390333333Y-177476190D01*
X390285714Y-177285714D01*
X390238095Y-177190476D01*
X390142857Y-177095238D01*
X390000000Y-177047619D01*
X389904761Y-177047619D01*
X389761904Y-177095238D01*
X389714285Y-177142857D01*
X389714285Y-177476190D01*
X389904761Y-177476190D01*
X389285714Y-177047619D02*
X389285714Y-178047619D01*
X388714285Y-177047619D01*
X388714285Y-178047619D01*
X388238095Y-177047619D02*
X388238095Y-178047619D01*
X388000000Y-178047619D01*
X387857142Y-178000000D01*
X387761904Y-177904761D01*
X387714285Y-177809523D01*
X387666666Y-177619047D01*
X387666666Y-177476190D01*
X387714285Y-177285714D01*
X387761904Y-177190476D01*
X387857142Y-177095238D01*
X388000000Y-177047619D01*
X388238095Y-177047619D01*
X415761904Y-178000000D02*
X415857142Y-178047619D01*
X416000000Y-178047619D01*
X416142857Y-178000000D01*
X416238095Y-177904761D01*
X416285714Y-177809523D01*
X416333333Y-177619047D01*
X416333333Y-177476190D01*
X416285714Y-177285714D01*
X416238095Y-177190476D01*
X416142857Y-177095238D01*
X416000000Y-177047619D01*
X415904761Y-177047619D01*
X415761904Y-177095238D01*
X415714285Y-177142857D01*
X415714285Y-177476190D01*
X415904761Y-177476190D01*
X415285714Y-177047619D02*
X415285714Y-178047619D01*
X414714285Y-177047619D01*
X414714285Y-178047619D01*
X414238095Y-177047619D02*
X414238095Y-178047619D01*
X414000000Y-178047619D01*
X413857142Y-178000000D01*
X413761904Y-177904761D01*
X413714285Y-177809523D01*
X413666666Y-177619047D01*
X413666666Y-177476190D01*
X413714285Y-177285714D01*
X413761904Y-177190476D01*
X413857142Y-177095238D01*
X414000000Y-177047619D01*
X414238095Y-177047619D01*
X326809523Y-177047619D02*
X326809523Y-178047619D01*
X326238095Y-177047619D01*
X326238095Y-178047619D01*
X325571428Y-178047619D02*
X325380952Y-178047619D01*
X325285714Y-178000000D01*
X325190476Y-177904761D01*
X325142857Y-177714285D01*
X325142857Y-177380952D01*
X325190476Y-177190476D01*
X325285714Y-177095238D01*
X325380952Y-177047619D01*
X325571428Y-177047619D01*
X325666666Y-177095238D01*
X325761904Y-177190476D01*
X325809523Y-177380952D01*
X325809523Y-177714285D01*
X325761904Y-177904761D01*
X325666666Y-178000000D01*
X325571428Y-178047619D01*
X432789047Y-284571428D02*
X433550952Y-284571428D01*
X337761904Y-178000000D02*
X337857142Y-178047619D01*
X338000000Y-178047619D01*
X338142857Y-178000000D01*
X338238095Y-177904761D01*
X338285714Y-177809523D01*
X338333333Y-177619047D01*
X338333333Y-177476190D01*
X338285714Y-177285714D01*
X338238095Y-177190476D01*
X338142857Y-177095238D01*
X338000000Y-177047619D01*
X337904761Y-177047619D01*
X337761904Y-177095238D01*
X337714285Y-177142857D01*
X337714285Y-177476190D01*
X337904761Y-177476190D01*
X337285714Y-177047619D02*
X337285714Y-178047619D01*
X336714285Y-177047619D01*
X336714285Y-178047619D01*
X336238095Y-177047619D02*
X336238095Y-178047619D01*
X336000000Y-178047619D01*
X335857142Y-178000000D01*
X335761904Y-177904761D01*
X335714285Y-177809523D01*
X335666666Y-177619047D01*
X335666666Y-177476190D01*
X335714285Y-177285714D01*
X335761904Y-177190476D01*
X335857142Y-177095238D01*
X336000000Y-177047619D01*
X336238095Y-177047619D01*
X506509523Y-208329761D02*
X506652380Y-208377380D01*
X506890476Y-208377380D01*
X506985714Y-208329761D01*
X507033333Y-208282142D01*
X507080952Y-208186904D01*
X507080952Y-208091666D01*
X507033333Y-207996428D01*
X506985714Y-207948809D01*
X506890476Y-207901190D01*
X506700000Y-207853571D01*
X506604761Y-207805952D01*
X506557142Y-207758333D01*
X506509523Y-207663095D01*
X506509523Y-207567857D01*
X506557142Y-207472619D01*
X506604761Y-207425000D01*
X506700000Y-207377380D01*
X506938095Y-207377380D01*
X507080952Y-207425000D01*
X508080952Y-208282142D02*
X508033333Y-208329761D01*
X507890476Y-208377380D01*
X507795238Y-208377380D01*
X507652380Y-208329761D01*
X507557142Y-208234523D01*
X507509523Y-208139285D01*
X507461904Y-207948809D01*
X507461904Y-207805952D01*
X507509523Y-207615476D01*
X507557142Y-207520238D01*
X507652380Y-207425000D01*
X507795238Y-207377380D01*
X507890476Y-207377380D01*
X508033333Y-207425000D01*
X508080952Y-207472619D01*
X508985714Y-208377380D02*
X508509523Y-208377380D01*
X508509523Y-207377380D01*
X244919047Y-284416428D02*
X245680952Y-284416428D01*
X245300000Y-284797380D02*
X245300000Y-284035476D01*
X364119047Y-284571428D02*
X364880952Y-284571428D01*
X388619047Y-284571428D02*
X389380952Y-284571428D01*
X389000000Y-284952380D02*
X389000000Y-284190476D01*
X379119047Y-284571428D02*
X379880952Y-284571428D01*
X254023809Y-177047619D02*
X254023809Y-178047619D01*
X253547619Y-177047619D02*
X253547619Y-178047619D01*
X252976190Y-177047619D01*
X252976190Y-178047619D01*
X410023809Y-177047619D02*
X410023809Y-178047619D01*
X409547619Y-177047619D02*
X409547619Y-178047619D01*
X408976190Y-177047619D01*
X408976190Y-178047619D01*
X259761904Y-178000000D02*
X259857142Y-178047619D01*
X260000000Y-178047619D01*
X260142857Y-178000000D01*
X260238095Y-177904761D01*
X260285714Y-177809523D01*
X260333333Y-177619047D01*
X260333333Y-177476190D01*
X260285714Y-177285714D01*
X260238095Y-177190476D01*
X260142857Y-177095238D01*
X260000000Y-177047619D01*
X259904761Y-177047619D01*
X259761904Y-177095238D01*
X259714285Y-177142857D01*
X259714285Y-177476190D01*
X259904761Y-177476190D01*
X259285714Y-177047619D02*
X259285714Y-178047619D01*
X258714285Y-177047619D01*
X258714285Y-178047619D01*
X258238095Y-177047619D02*
X258238095Y-178047619D01*
X258000000Y-178047619D01*
X257857142Y-178000000D01*
X257761904Y-177904761D01*
X257714285Y-177809523D01*
X257666666Y-177619047D01*
X257666666Y-177476190D01*
X257714285Y-177285714D01*
X257761904Y-177190476D01*
X257857142Y-177095238D01*
X258000000Y-177047619D01*
X258238095Y-177047619D01*
X321285714Y-177047619D02*
X321285714Y-178047619D01*
X320714285Y-177047619D01*
X320714285Y-178047619D01*
X319666666Y-177142857D02*
X319714285Y-177095238D01*
X319857142Y-177047619D01*
X319952380Y-177047619D01*
X320095238Y-177095238D01*
X320190476Y-177190476D01*
X320238095Y-177285714D01*
X320285714Y-177476190D01*
X320285714Y-177619047D01*
X320238095Y-177809523D01*
X320190476Y-177904761D01*
X320095238Y-178000000D01*
X319952380Y-178047619D01*
X319857142Y-178047619D01*
X319714285Y-178000000D01*
X319666666Y-177952380D01*
X462023809Y-177047619D02*
X462023809Y-178047619D01*
X461547619Y-177047619D02*
X461547619Y-178047619D01*
X460976190Y-177047619D01*
X460976190Y-178047619D01*
X506485714Y-210829761D02*
X506628571Y-210877380D01*
X506866666Y-210877380D01*
X506961904Y-210829761D01*
X507009523Y-210782142D01*
X507057142Y-210686904D01*
X507057142Y-210591666D01*
X507009523Y-210496428D01*
X506961904Y-210448809D01*
X506866666Y-210401190D01*
X506676190Y-210353571D01*
X506580952Y-210305952D01*
X506533333Y-210258333D01*
X506485714Y-210163095D01*
X506485714Y-210067857D01*
X506533333Y-209972619D01*
X506580952Y-209925000D01*
X506676190Y-209877380D01*
X506914285Y-209877380D01*
X507057142Y-209925000D01*
X507485714Y-210877380D02*
X507485714Y-209877380D01*
X507723809Y-209877380D01*
X507866666Y-209925000D01*
X507961904Y-210020238D01*
X508009523Y-210115476D01*
X508057142Y-210305952D01*
X508057142Y-210448809D01*
X508009523Y-210639285D01*
X507961904Y-210734523D01*
X507866666Y-210829761D01*
X507723809Y-210877380D01*
X507485714Y-210877380D01*
X508438095Y-210591666D02*
X508914285Y-210591666D01*
X508342857Y-210877380D02*
X508676190Y-209877380D01*
X509009523Y-210877380D01*
X221919047Y-284416428D02*
X222680952Y-284416428D01*
X316637362Y-284610604D02*
X317399267Y-284610604D01*
X317018315Y-284991556D02*
X317018315Y-284229652D01*
X384023809Y-177047619D02*
X384023809Y-178047619D01*
X383547619Y-177047619D02*
X383547619Y-178047619D01*
X382976190Y-177047619D01*
X382976190Y-178047619D01*
X430809523Y-177047619D02*
X430809523Y-178047619D01*
X430238095Y-177047619D01*
X430238095Y-178047619D01*
X429571428Y-178047619D02*
X429380952Y-178047619D01*
X429285714Y-178000000D01*
X429190476Y-177904761D01*
X429142857Y-177714285D01*
X429142857Y-177380952D01*
X429190476Y-177190476D01*
X429285714Y-177095238D01*
X429380952Y-177047619D01*
X429571428Y-177047619D01*
X429666666Y-177095238D01*
X429761904Y-177190476D01*
X429809523Y-177380952D01*
X429809523Y-177714285D01*
X429761904Y-177904761D01*
X429666666Y-178000000D01*
X429571428Y-178047619D01*
D11*
X508800000Y-199125952D02*
X508776190Y-199173571D01*
X508776190Y-199245000D01*
X508800000Y-199316428D01*
X508847619Y-199364047D01*
X508895238Y-199387857D01*
X508990476Y-199411666D01*
X509061904Y-199411666D01*
X509157142Y-199387857D01*
X509204761Y-199364047D01*
X509252380Y-199316428D01*
X509276190Y-199245000D01*
X509276190Y-199197380D01*
X509252380Y-199125952D01*
X509228571Y-199102142D01*
X509061904Y-199102142D01*
X509061904Y-199197380D01*
X509276190Y-198887857D02*
X508776190Y-198887857D01*
X509276190Y-198602142D01*
X508776190Y-198602142D01*
X509276190Y-198364047D02*
X508776190Y-198364047D01*
X508776190Y-198245000D01*
X508800000Y-198173571D01*
X508847619Y-198125952D01*
X508895238Y-198102142D01*
X508990476Y-198078333D01*
X509061904Y-198078333D01*
X509157142Y-198102142D01*
X509204761Y-198125952D01*
X509252380Y-198173571D01*
X509276190Y-198245000D01*
X509276190Y-198364047D01*
D10*
X394119047Y-284571428D02*
X394880952Y-284571428D01*
X441789047Y-284571428D02*
X442550952Y-284571428D01*
X442170000Y-284952380D02*
X442170000Y-284190476D01*
X274809523Y-177047619D02*
X274809523Y-178047619D01*
X274238095Y-177047619D01*
X274238095Y-178047619D01*
X273571428Y-178047619D02*
X273380952Y-178047619D01*
X273285714Y-178000000D01*
X273190476Y-177904761D01*
X273142857Y-177714285D01*
X273142857Y-177380952D01*
X273190476Y-177190476D01*
X273285714Y-177095238D01*
X273380952Y-177047619D01*
X273571428Y-177047619D01*
X273666666Y-177095238D01*
X273761904Y-177190476D01*
X273809523Y-177380952D01*
X273809523Y-177714285D01*
X273761904Y-177904761D01*
X273666666Y-178000000D01*
X273571428Y-178047619D01*
X307137362Y-284610604D02*
X307899267Y-284610604D01*
X373285714Y-177047619D02*
X373285714Y-178047619D01*
X372714285Y-177047619D01*
X372714285Y-178047619D01*
X371666666Y-177142857D02*
X371714285Y-177095238D01*
X371857142Y-177047619D01*
X371952380Y-177047619D01*
X372095238Y-177095238D01*
X372190476Y-177190476D01*
X372238095Y-177285714D01*
X372285714Y-177476190D01*
X372285714Y-177619047D01*
X372238095Y-177809523D01*
X372190476Y-177904761D01*
X372095238Y-178000000D01*
X371952380Y-178047619D01*
X371857142Y-178047619D01*
X371714285Y-178000000D01*
X371666666Y-177952380D01*
D11*
X490490333Y-181181428D02*
X490514142Y-181157619D01*
X490585571Y-181133809D01*
X490633190Y-181133809D01*
X490704619Y-181157619D01*
X490752238Y-181205238D01*
X490776047Y-181252857D01*
X490799857Y-181348095D01*
X490799857Y-181419523D01*
X490776047Y-181514761D01*
X490752238Y-181562380D01*
X490704619Y-181610000D01*
X490633190Y-181633809D01*
X490585571Y-181633809D01*
X490514142Y-181610000D01*
X490490333Y-181586190D01*
X490276047Y-181633809D02*
X490276047Y-181229047D01*
X490252238Y-181181428D01*
X490228428Y-181157619D01*
X490180809Y-181133809D01*
X490085571Y-181133809D01*
X490037952Y-181157619D01*
X490014142Y-181181428D01*
X489990333Y-181229047D01*
X489990333Y-181633809D01*
X489776047Y-181157619D02*
X489704619Y-181133809D01*
X489585571Y-181133809D01*
X489537952Y-181157619D01*
X489514142Y-181181428D01*
X489490333Y-181229047D01*
X489490333Y-181276666D01*
X489514142Y-181324285D01*
X489537952Y-181348095D01*
X489585571Y-181371904D01*
X489680809Y-181395714D01*
X489728428Y-181419523D01*
X489752238Y-181443333D01*
X489776047Y-181490952D01*
X489776047Y-181538571D01*
X489752238Y-181586190D01*
X489728428Y-181610000D01*
X489680809Y-181633809D01*
X489561761Y-181633809D01*
X489490333Y-181610000D01*
X489347476Y-181633809D02*
X489061761Y-181633809D01*
X489204619Y-181133809D02*
X489204619Y-181633809D01*
X488799857Y-181633809D02*
X488704619Y-181633809D01*
X488657000Y-181610000D01*
X488609380Y-181562380D01*
X488585571Y-181467142D01*
X488585571Y-181300476D01*
X488609380Y-181205238D01*
X488657000Y-181157619D01*
X488704619Y-181133809D01*
X488799857Y-181133809D01*
X488847476Y-181157619D01*
X488895095Y-181205238D01*
X488918904Y-181300476D01*
X488918904Y-181467142D01*
X488895095Y-181562380D01*
X488847476Y-181610000D01*
X488799857Y-181633809D01*
X488371285Y-181133809D02*
X488371285Y-181633809D01*
X488204619Y-181276666D01*
X488037952Y-181633809D01*
X488037952Y-181133809D01*
D10*
X248809523Y-177047619D02*
X248809523Y-178047619D01*
X248238095Y-177047619D01*
X248238095Y-178047619D01*
X247571428Y-178047619D02*
X247380952Y-178047619D01*
X247285714Y-178000000D01*
X247190476Y-177904761D01*
X247142857Y-177714285D01*
X247142857Y-177380952D01*
X247190476Y-177190476D01*
X247285714Y-177095238D01*
X247380952Y-177047619D01*
X247571428Y-177047619D01*
X247666666Y-177095238D01*
X247761904Y-177190476D01*
X247809523Y-177380952D01*
X247809523Y-177714285D01*
X247761904Y-177904761D01*
X247666666Y-178000000D01*
X247571428Y-178047619D01*
X233761904Y-178000000D02*
X233857142Y-178047619D01*
X234000000Y-178047619D01*
X234142857Y-178000000D01*
X234238095Y-177904761D01*
X234285714Y-177809523D01*
X234333333Y-177619047D01*
X234333333Y-177476190D01*
X234285714Y-177285714D01*
X234238095Y-177190476D01*
X234142857Y-177095238D01*
X234000000Y-177047619D01*
X233904761Y-177047619D01*
X233761904Y-177095238D01*
X233714285Y-177142857D01*
X233714285Y-177476190D01*
X233904761Y-177476190D01*
X233285714Y-177047619D02*
X233285714Y-178047619D01*
X232714285Y-177047619D01*
X232714285Y-178047619D01*
X232238095Y-177047619D02*
X232238095Y-178047619D01*
X232000000Y-178047619D01*
X231857142Y-178000000D01*
X231761904Y-177904761D01*
X231714285Y-177809523D01*
X231666666Y-177619047D01*
X231666666Y-177476190D01*
X231714285Y-177285714D01*
X231761904Y-177190476D01*
X231857142Y-177095238D01*
X232000000Y-177047619D01*
X232238095Y-177047619D01*
X230419047Y-284416428D02*
X231180952Y-284416428D01*
X230800000Y-284797380D02*
X230800000Y-284035476D01*
X373619047Y-284571428D02*
X374380952Y-284571428D01*
X374000000Y-284952380D02*
X374000000Y-284190476D01*
X286619047Y-284571428D02*
X287380952Y-284571428D01*
X287000000Y-284952380D02*
X287000000Y-284190476D01*
X217285714Y-177047619D02*
X217285714Y-178047619D01*
X216714285Y-177047619D01*
X216714285Y-178047619D01*
X215666666Y-177142857D02*
X215714285Y-177095238D01*
X215857142Y-177047619D01*
X215952380Y-177047619D01*
X216095238Y-177095238D01*
X216190476Y-177190476D01*
X216238095Y-177285714D01*
X216285714Y-177476190D01*
X216285714Y-177619047D01*
X216238095Y-177809523D01*
X216190476Y-177904761D01*
X216095238Y-178000000D01*
X215952380Y-178047619D01*
X215857142Y-178047619D01*
X215714285Y-178000000D01*
X215666666Y-177952380D01*
X269285714Y-177047619D02*
X269285714Y-178047619D01*
X268714285Y-177047619D01*
X268714285Y-178047619D01*
X267666666Y-177142857D02*
X267714285Y-177095238D01*
X267857142Y-177047619D01*
X267952380Y-177047619D01*
X268095238Y-177095238D01*
X268190476Y-177190476D01*
X268238095Y-177285714D01*
X268285714Y-177476190D01*
X268285714Y-177619047D01*
X268238095Y-177809523D01*
X268190476Y-177904761D01*
X268095238Y-178000000D01*
X267952380Y-178047619D01*
X267857142Y-178047619D01*
X267714285Y-178000000D01*
X267666666Y-177952380D01*
X467761904Y-178000000D02*
X467857142Y-178047619D01*
X468000000Y-178047619D01*
X468142857Y-178000000D01*
X468238095Y-177904761D01*
X468285714Y-177809523D01*
X468333333Y-177619047D01*
X468333333Y-177476190D01*
X468285714Y-177285714D01*
X468238095Y-177190476D01*
X468142857Y-177095238D01*
X468000000Y-177047619D01*
X467904761Y-177047619D01*
X467761904Y-177095238D01*
X467714285Y-177142857D01*
X467714285Y-177476190D01*
X467904761Y-177476190D01*
X467285714Y-177047619D02*
X467285714Y-178047619D01*
X466714285Y-177047619D01*
X466714285Y-178047619D01*
X466238095Y-177047619D02*
X466238095Y-178047619D01*
X466000000Y-178047619D01*
X465857142Y-178000000D01*
X465761904Y-177904761D01*
X465714285Y-177809523D01*
X465666666Y-177619047D01*
X465666666Y-177476190D01*
X465714285Y-177285714D01*
X465761904Y-177190476D01*
X465857142Y-177095238D01*
X466000000Y-177047619D01*
X466238095Y-177047619D01*
X425285714Y-177047619D02*
X425285714Y-178047619D01*
X424714285Y-177047619D01*
X424714285Y-178047619D01*
X423666666Y-177142857D02*
X423714285Y-177095238D01*
X423857142Y-177047619D01*
X423952380Y-177047619D01*
X424095238Y-177095238D01*
X424190476Y-177190476D01*
X424238095Y-177285714D01*
X424285714Y-177476190D01*
X424285714Y-177619047D01*
X424238095Y-177809523D01*
X424190476Y-177904761D01*
X424095238Y-178000000D01*
X423952380Y-178047619D01*
X423857142Y-178047619D01*
X423714285Y-178000000D01*
X423666666Y-177952380D01*
D11*
X508816190Y-196440238D02*
X508816190Y-196678333D01*
X509054285Y-196702142D01*
X509030476Y-196678333D01*
X509006666Y-196630714D01*
X509006666Y-196511666D01*
X509030476Y-196464047D01*
X509054285Y-196440238D01*
X509101904Y-196416428D01*
X509220952Y-196416428D01*
X509268571Y-196440238D01*
X509292380Y-196464047D01*
X509316190Y-196511666D01*
X509316190Y-196630714D01*
X509292380Y-196678333D01*
X509268571Y-196702142D01*
X508816190Y-196273571D02*
X509316190Y-196106904D01*
X508816190Y-195940238D01*
D10*
X301637362Y-284610604D02*
X302399267Y-284610604D01*
X302018315Y-284991556D02*
X302018315Y-284229652D01*
X352809523Y-177047619D02*
X352809523Y-178047619D01*
X352238095Y-177047619D01*
X352238095Y-178047619D01*
X351571428Y-178047619D02*
X351380952Y-178047619D01*
X351285714Y-178000000D01*
X351190476Y-177904761D01*
X351142857Y-177714285D01*
X351142857Y-177380952D01*
X351190476Y-177190476D01*
X351285714Y-177095238D01*
X351380952Y-177047619D01*
X351571428Y-177047619D01*
X351666666Y-177095238D01*
X351761904Y-177190476D01*
X351809523Y-177380952D01*
X351809523Y-177714285D01*
X351761904Y-177904761D01*
X351666666Y-178000000D01*
X351571428Y-178047619D01*
X506938095Y-204925000D02*
X506842857Y-204877380D01*
X506700000Y-204877380D01*
X506557142Y-204925000D01*
X506461904Y-205020238D01*
X506414285Y-205115476D01*
X506366666Y-205305952D01*
X506366666Y-205448809D01*
X506414285Y-205639285D01*
X506461904Y-205734523D01*
X506557142Y-205829761D01*
X506700000Y-205877380D01*
X506795238Y-205877380D01*
X506938095Y-205829761D01*
X506985714Y-205782142D01*
X506985714Y-205448809D01*
X506795238Y-205448809D01*
X507414285Y-205877380D02*
X507414285Y-204877380D01*
X507985714Y-205877380D01*
X507985714Y-204877380D01*
X508461904Y-205877380D02*
X508461904Y-204877380D01*
X508700000Y-204877380D01*
X508842857Y-204925000D01*
X508938095Y-205020238D01*
X508985714Y-205115476D01*
X509033333Y-205305952D01*
X509033333Y-205448809D01*
X508985714Y-205639285D01*
X508938095Y-205734523D01*
X508842857Y-205829761D01*
X508700000Y-205877380D01*
X508461904Y-205877380D01*
X285761904Y-178000000D02*
X285857142Y-178047619D01*
X286000000Y-178047619D01*
X286142857Y-178000000D01*
X286238095Y-177904761D01*
X286285714Y-177809523D01*
X286333333Y-177619047D01*
X286333333Y-177476190D01*
X286285714Y-177285714D01*
X286238095Y-177190476D01*
X286142857Y-177095238D01*
X286000000Y-177047619D01*
X285904761Y-177047619D01*
X285761904Y-177095238D01*
X285714285Y-177142857D01*
X285714285Y-177476190D01*
X285904761Y-177476190D01*
X285285714Y-177047619D02*
X285285714Y-178047619D01*
X284714285Y-177047619D01*
X284714285Y-178047619D01*
X284238095Y-177047619D02*
X284238095Y-178047619D01*
X284000000Y-178047619D01*
X283857142Y-178000000D01*
X283761904Y-177904761D01*
X283714285Y-177809523D01*
X283666666Y-177619047D01*
X283666666Y-177476190D01*
X283714285Y-177285714D01*
X283761904Y-177190476D01*
X283857142Y-177095238D01*
X284000000Y-177047619D01*
X284238095Y-177047619D01*
X436023809Y-177047619D02*
X436023809Y-178047619D01*
X435547619Y-177047619D02*
X435547619Y-178047619D01*
X434976190Y-177047619D01*
X434976190Y-178047619D01*
X347285714Y-177047619D02*
X347285714Y-178047619D01*
X346714285Y-177047619D01*
X346714285Y-178047619D01*
X345666666Y-177142857D02*
X345714285Y-177095238D01*
X345857142Y-177047619D01*
X345952380Y-177047619D01*
X346095238Y-177095238D01*
X346190476Y-177190476D01*
X346238095Y-177285714D01*
X346285714Y-177476190D01*
X346285714Y-177619047D01*
X346238095Y-177809523D01*
X346190476Y-177904761D01*
X346095238Y-178000000D01*
X345952380Y-178047619D01*
X345857142Y-178047619D01*
X345714285Y-178000000D01*
X345666666Y-177952380D01*
X363761904Y-178000000D02*
X363857142Y-178047619D01*
X364000000Y-178047619D01*
X364142857Y-178000000D01*
X364238095Y-177904761D01*
X364285714Y-177809523D01*
X364333333Y-177619047D01*
X364333333Y-177476190D01*
X364285714Y-177285714D01*
X364238095Y-177190476D01*
X364142857Y-177095238D01*
X364000000Y-177047619D01*
X363904761Y-177047619D01*
X363761904Y-177095238D01*
X363714285Y-177142857D01*
X363714285Y-177476190D01*
X363904761Y-177476190D01*
X363285714Y-177047619D02*
X363285714Y-178047619D01*
X362714285Y-177047619D01*
X362714285Y-178047619D01*
X362238095Y-177047619D02*
X362238095Y-178047619D01*
X362000000Y-178047619D01*
X361857142Y-178000000D01*
X361761904Y-177904761D01*
X361714285Y-177809523D01*
X361666666Y-177619047D01*
X361666666Y-177476190D01*
X361714285Y-177285714D01*
X361761904Y-177190476D01*
X361857142Y-177095238D01*
X362000000Y-177047619D01*
X362238095Y-177047619D01*
X228023809Y-177047619D02*
X228023809Y-178047619D01*
X227547619Y-177047619D02*
X227547619Y-178047619D01*
X226976190Y-177047619D01*
X226976190Y-178047619D01*
X378809523Y-177047619D02*
X378809523Y-178047619D01*
X378238095Y-177047619D01*
X378238095Y-178047619D01*
X377571428Y-178047619D02*
X377380952Y-178047619D01*
X377285714Y-178000000D01*
X377190476Y-177904761D01*
X377142857Y-177714285D01*
X377142857Y-177380952D01*
X377190476Y-177190476D01*
X377285714Y-177095238D01*
X377380952Y-177047619D01*
X377571428Y-177047619D01*
X377666666Y-177095238D01*
X377761904Y-177190476D01*
X377809523Y-177380952D01*
X377809523Y-177714285D01*
X377761904Y-177904761D01*
X377666666Y-178000000D01*
X377571428Y-178047619D01*
X295285714Y-177047619D02*
X295285714Y-178047619D01*
X294714285Y-177047619D01*
X294714285Y-178047619D01*
X293666666Y-177142857D02*
X293714285Y-177095238D01*
X293857142Y-177047619D01*
X293952380Y-177047619D01*
X294095238Y-177095238D01*
X294190476Y-177190476D01*
X294238095Y-177285714D01*
X294285714Y-177476190D01*
X294285714Y-177619047D01*
X294238095Y-177809523D01*
X294190476Y-177904761D01*
X294095238Y-178000000D01*
X293952380Y-178047619D01*
X293857142Y-178047619D01*
X293714285Y-178000000D01*
X293666666Y-177952380D01*
X292119047Y-284571428D02*
X292880952Y-284571428D01*
D12*
X510578571Y-196346095D02*
X510578571Y-196012761D01*
X511102380Y-195869904D02*
X511102380Y-196346095D01*
X510102380Y-196346095D01*
X510102380Y-195869904D01*
X511102380Y-195441333D02*
X510102380Y-195441333D01*
X511102380Y-194869904D01*
X510102380Y-194869904D01*
X511007142Y-193822285D02*
X511054761Y-193869904D01*
X511102380Y-194012761D01*
X511102380Y-194108000D01*
X511054761Y-194250857D01*
X510959523Y-194346095D01*
X510864285Y-194393714D01*
X510673809Y-194441333D01*
X510530952Y-194441333D01*
X510340476Y-194393714D01*
X510245238Y-194346095D01*
X510150000Y-194250857D01*
X510102380Y-194108000D01*
X510102380Y-194012761D01*
X510150000Y-193869904D01*
X510197619Y-193822285D01*
D10*
X250419047Y-284416428D02*
X251180952Y-284416428D01*
D12*
X494311428Y-177590952D02*
X494311428Y-176829047D01*
X494692380Y-177210000D02*
X493930476Y-177210000D01*
D10*
X451285714Y-177047619D02*
X451285714Y-178047619D01*
X450714285Y-177047619D01*
X450714285Y-178047619D01*
X449666666Y-177142857D02*
X449714285Y-177095238D01*
X449857142Y-177047619D01*
X449952380Y-177047619D01*
X450095238Y-177095238D01*
X450190476Y-177190476D01*
X450238095Y-177285714D01*
X450285714Y-177476190D01*
X450285714Y-177619047D01*
X450238095Y-177809523D01*
X450190476Y-177904761D01*
X450095238Y-178000000D01*
X449952380Y-178047619D01*
X449857142Y-178047619D01*
X449714285Y-178000000D01*
X449666666Y-177952380D01*
D12*
X480162380Y-176487619D02*
X480162380Y-177487619D01*
X479829047Y-176773333D01*
X479495714Y-177487619D01*
X479495714Y-176487619D01*
X479019523Y-176868571D02*
X478257619Y-176868571D01*
D10*
X243285714Y-177047619D02*
X243285714Y-178047619D01*
X242714285Y-177047619D01*
X242714285Y-178047619D01*
X241666666Y-177142857D02*
X241714285Y-177095238D01*
X241857142Y-177047619D01*
X241952380Y-177047619D01*
X242095238Y-177095238D01*
X242190476Y-177190476D01*
X242238095Y-177285714D01*
X242285714Y-177476190D01*
X242285714Y-177619047D01*
X242238095Y-177809523D01*
X242190476Y-177904761D01*
X242095238Y-178000000D01*
X241952380Y-178047619D01*
X241857142Y-178047619D01*
X241714285Y-178000000D01*
X241666666Y-177952380D01*
X306023809Y-177047619D02*
X306023809Y-178047619D01*
X305547619Y-177047619D02*
X305547619Y-178047619D01*
X304976190Y-177047619D01*
X304976190Y-178047619D01*
X311761904Y-178000000D02*
X311857142Y-178047619D01*
X312000000Y-178047619D01*
X312142857Y-178000000D01*
X312238095Y-177904761D01*
X312285714Y-177809523D01*
X312333333Y-177619047D01*
X312333333Y-177476190D01*
X312285714Y-177285714D01*
X312238095Y-177190476D01*
X312142857Y-177095238D01*
X312000000Y-177047619D01*
X311904761Y-177047619D01*
X311761904Y-177095238D01*
X311714285Y-177142857D01*
X311714285Y-177476190D01*
X311904761Y-177476190D01*
X311285714Y-177047619D02*
X311285714Y-178047619D01*
X310714285Y-177047619D01*
X310714285Y-178047619D01*
X310238095Y-177047619D02*
X310238095Y-178047619D01*
X310000000Y-178047619D01*
X309857142Y-178000000D01*
X309761904Y-177904761D01*
X309714285Y-177809523D01*
X309666666Y-177619047D01*
X309666666Y-177476190D01*
X309714285Y-177285714D01*
X309761904Y-177190476D01*
X309857142Y-177095238D01*
X310000000Y-177047619D01*
X310238095Y-177047619D01*
D12*
X509078571Y-193473571D02*
X509126190Y-193330714D01*
X509173809Y-193283095D01*
X509269047Y-193235476D01*
X509411904Y-193235476D01*
X509507142Y-193283095D01*
X509554761Y-193330714D01*
X509602380Y-193425952D01*
X509602380Y-193806904D01*
X508602380Y-193806904D01*
X508602380Y-193473571D01*
X508650000Y-193378333D01*
X508697619Y-193330714D01*
X508792857Y-193283095D01*
X508888095Y-193283095D01*
X508983333Y-193330714D01*
X509030952Y-193378333D01*
X509078571Y-193473571D01*
X509078571Y-193806904D01*
X509256666Y-191383095D02*
X509256666Y-190906904D01*
X509542380Y-191478333D02*
X508542380Y-191145000D01*
X509542380Y-190811666D01*
D10*
X441754350Y-177939145D02*
X441849588Y-177986764D01*
X441992446Y-177986764D01*
X442135303Y-177939145D01*
X442230541Y-177843906D01*
X442278160Y-177748668D01*
X442325779Y-177558192D01*
X442325779Y-177415335D01*
X442278160Y-177224859D01*
X442230541Y-177129621D01*
X442135303Y-177034383D01*
X441992446Y-176986764D01*
X441897207Y-176986764D01*
X441754350Y-177034383D01*
X441706731Y-177082002D01*
X441706731Y-177415335D01*
X441897207Y-177415335D01*
X441278160Y-176986764D02*
X441278160Y-177986764D01*
X440706731Y-176986764D01*
X440706731Y-177986764D01*
X440230541Y-176986764D02*
X440230541Y-177986764D01*
X439992446Y-177986764D01*
X439849588Y-177939145D01*
X439754350Y-177843906D01*
X439706731Y-177748668D01*
X439659112Y-177558192D01*
X439659112Y-177415335D01*
X439706731Y-177224859D01*
X439754350Y-177129621D01*
X439849588Y-177034383D01*
X439992446Y-176986764D01*
X440230541Y-176986764D01*
X447289047Y-284571428D02*
X448050952Y-284571428D01*
X332023809Y-177047619D02*
X332023809Y-178047619D01*
X331547619Y-177047619D02*
X331547619Y-178047619D01*
X330976190Y-177047619D01*
X330976190Y-178047619D01*
X358023809Y-177047619D02*
X358023809Y-178047619D01*
X357547619Y-177047619D02*
X357547619Y-178047619D01*
X356976190Y-177047619D01*
X356976190Y-178047619D01*
X300809523Y-177047619D02*
X300809523Y-178047619D01*
X300238095Y-177047619D01*
X300238095Y-178047619D01*
X299571428Y-178047619D02*
X299380952Y-178047619D01*
X299285714Y-178000000D01*
X299190476Y-177904761D01*
X299142857Y-177714285D01*
X299142857Y-177380952D01*
X299190476Y-177190476D01*
X299285714Y-177095238D01*
X299380952Y-177047619D01*
X299571428Y-177047619D01*
X299666666Y-177095238D01*
X299761904Y-177190476D01*
X299809523Y-177380952D01*
X299809523Y-177714285D01*
X299761904Y-177904761D01*
X299666666Y-178000000D01*
X299571428Y-178047619D01*
X322137362Y-284610604D02*
X322899267Y-284610604D01*
D11*
X487406666Y-181324285D02*
X487025714Y-181324285D01*
X487216190Y-181133809D02*
X487216190Y-181514761D01*
X486525714Y-181133809D02*
X486811428Y-181133809D01*
X486668571Y-181133809D02*
X486668571Y-181633809D01*
X486716190Y-181562380D01*
X486763809Y-181514761D01*
X486811428Y-181490952D01*
X486335238Y-181586190D02*
X486311428Y-181610000D01*
X486263809Y-181633809D01*
X486144761Y-181633809D01*
X486097142Y-181610000D01*
X486073333Y-181586190D01*
X486049523Y-181538571D01*
X486049523Y-181490952D01*
X486073333Y-181419523D01*
X486359047Y-181133809D01*
X486049523Y-181133809D01*
D10*
X358619047Y-284571428D02*
X359380952Y-284571428D01*
X359000000Y-284952380D02*
X359000000Y-284190476D01*
X222809523Y-177047619D02*
X222809523Y-178047619D01*
X222238095Y-177047619D01*
X222238095Y-178047619D01*
X221571428Y-178047619D02*
X221380952Y-178047619D01*
X221285714Y-178000000D01*
X221190476Y-177904761D01*
X221142857Y-177714285D01*
X221142857Y-177380952D01*
X221190476Y-177190476D01*
X221285714Y-177095238D01*
X221380952Y-177047619D01*
X221571428Y-177047619D01*
X221666666Y-177095238D01*
X221761904Y-177190476D01*
X221809523Y-177380952D01*
X221809523Y-177714285D01*
X221761904Y-177904761D01*
X221666666Y-178000000D01*
X221571428Y-178047619D01*
X404809523Y-177047619D02*
X404809523Y-178047619D01*
X404238095Y-177047619D01*
X404238095Y-178047619D01*
X403571428Y-178047619D02*
X403380952Y-178047619D01*
X403285714Y-178000000D01*
X403190476Y-177904761D01*
X403142857Y-177714285D01*
X403142857Y-177380952D01*
X403190476Y-177190476D01*
X403285714Y-177095238D01*
X403380952Y-177047619D01*
X403571428Y-177047619D01*
X403666666Y-177095238D01*
X403761904Y-177190476D01*
X403809523Y-177380952D01*
X403809523Y-177714285D01*
X403761904Y-177904761D01*
X403666666Y-178000000D01*
X403571428Y-178047619D01*
X235919047Y-284416428D02*
X236680952Y-284416428D01*
X216419047Y-284416428D02*
X217180952Y-284416428D01*
X216800000Y-284797380D02*
X216800000Y-284035476D01*
X427289047Y-284571428D02*
X428050952Y-284571428D01*
X427670000Y-284952380D02*
X427670000Y-284190476D01*
X280023809Y-177047619D02*
X280023809Y-178047619D01*
X279547619Y-177047619D02*
X279547619Y-178047619D01*
X278976190Y-177047619D01*
X278976190Y-178047619D01*
D12*
X475162380Y-176527619D02*
X475162380Y-177527619D01*
X474829047Y-176813333D01*
X474495714Y-177527619D01*
X474495714Y-176527619D01*
X474019523Y-176908571D02*
X473257619Y-176908571D01*
X473638571Y-176527619D02*
X473638571Y-177289523D01*
%TO.C,J29*%
X360890476Y-283439880D02*
X360890476Y-284154166D01*
X360842857Y-284297023D01*
X360747619Y-284392261D01*
X360604761Y-284439880D01*
X360509523Y-284439880D01*
X361319047Y-283535119D02*
X361366666Y-283487500D01*
X361461904Y-283439880D01*
X361700000Y-283439880D01*
X361795238Y-283487500D01*
X361842857Y-283535119D01*
X361890476Y-283630357D01*
X361890476Y-283725595D01*
X361842857Y-283868452D01*
X361271428Y-284439880D01*
X361890476Y-284439880D01*
X362366666Y-284439880D02*
X362557142Y-284439880D01*
X362652380Y-284392261D01*
X362700000Y-284344642D01*
X362795238Y-284201785D01*
X362842857Y-284011309D01*
X362842857Y-283630357D01*
X362795238Y-283535119D01*
X362747619Y-283487500D01*
X362652380Y-283439880D01*
X362461904Y-283439880D01*
X362366666Y-283487500D01*
X362319047Y-283535119D01*
X362271428Y-283630357D01*
X362271428Y-283868452D01*
X362319047Y-283963690D01*
X362366666Y-284011309D01*
X362461904Y-284058928D01*
X362652380Y-284058928D01*
X362747619Y-284011309D01*
X362795238Y-283963690D01*
X362842857Y-283868452D01*
%TO.C,F7*%
X355023333Y-200316428D02*
X355356666Y-200316428D01*
X355356666Y-199792619D02*
X355356666Y-200792619D01*
X354880476Y-200792619D01*
X354594761Y-200792619D02*
X353928095Y-200792619D01*
X354356666Y-199792619D01*
%TO.C,*%
%TO.C,J47*%
X426390476Y-188952380D02*
X426390476Y-189666666D01*
X426342857Y-189809523D01*
X426247619Y-189904761D01*
X426104761Y-189952380D01*
X426009523Y-189952380D01*
X427295238Y-189285714D02*
X427295238Y-189952380D01*
X427057142Y-188904761D02*
X426819047Y-189619047D01*
X427438095Y-189619047D01*
X427723809Y-188952380D02*
X428390476Y-188952380D01*
X427961904Y-189952380D01*
%TO.C,J28*%
X307390476Y-189047380D02*
X307390476Y-189761666D01*
X307342857Y-189904523D01*
X307247619Y-189999761D01*
X307104761Y-190047380D01*
X307009523Y-190047380D01*
X307819047Y-189142619D02*
X307866666Y-189095000D01*
X307961904Y-189047380D01*
X308200000Y-189047380D01*
X308295238Y-189095000D01*
X308342857Y-189142619D01*
X308390476Y-189237857D01*
X308390476Y-189333095D01*
X308342857Y-189475952D01*
X307771428Y-190047380D01*
X308390476Y-190047380D01*
X308961904Y-189475952D02*
X308866666Y-189428333D01*
X308819047Y-189380714D01*
X308771428Y-189285476D01*
X308771428Y-189237857D01*
X308819047Y-189142619D01*
X308866666Y-189095000D01*
X308961904Y-189047380D01*
X309152380Y-189047380D01*
X309247619Y-189095000D01*
X309295238Y-189142619D01*
X309342857Y-189237857D01*
X309342857Y-189285476D01*
X309295238Y-189380714D01*
X309247619Y-189428333D01*
X309152380Y-189475952D01*
X308961904Y-189475952D01*
X308866666Y-189523571D01*
X308819047Y-189571190D01*
X308771428Y-189666428D01*
X308771428Y-189856904D01*
X308819047Y-189952142D01*
X308866666Y-189999761D01*
X308961904Y-190047380D01*
X309152380Y-190047380D01*
X309247619Y-189999761D01*
X309295238Y-189952142D01*
X309342857Y-189856904D01*
X309342857Y-189666428D01*
X309295238Y-189571190D01*
X309247619Y-189523571D01*
X309152380Y-189475952D01*
%TO.C,A5*%
X410405714Y-239086666D02*
X410881904Y-239086666D01*
X410310476Y-239372380D02*
X410643809Y-238372380D01*
X410977142Y-239372380D01*
X411786666Y-238372380D02*
X411310476Y-238372380D01*
X411262857Y-238848571D01*
X411310476Y-238800952D01*
X411405714Y-238753333D01*
X411643809Y-238753333D01*
X411739047Y-238800952D01*
X411786666Y-238848571D01*
X411834285Y-238943809D01*
X411834285Y-239181904D01*
X411786666Y-239277142D01*
X411739047Y-239324761D01*
X411643809Y-239372380D01*
X411405714Y-239372380D01*
X411310476Y-239324761D01*
X411262857Y-239277142D01*
%TO.C,J26*%
X508140476Y-222202380D02*
X508140476Y-222916666D01*
X508092857Y-223059523D01*
X507997619Y-223154761D01*
X507854761Y-223202380D01*
X507759523Y-223202380D01*
X508569047Y-222297619D02*
X508616666Y-222250000D01*
X508711904Y-222202380D01*
X508950000Y-222202380D01*
X509045238Y-222250000D01*
X509092857Y-222297619D01*
X509140476Y-222392857D01*
X509140476Y-222488095D01*
X509092857Y-222630952D01*
X508521428Y-223202380D01*
X509140476Y-223202380D01*
X509997619Y-222202380D02*
X509807142Y-222202380D01*
X509711904Y-222250000D01*
X509664285Y-222297619D01*
X509569047Y-222440476D01*
X509521428Y-222630952D01*
X509521428Y-223011904D01*
X509569047Y-223107142D01*
X509616666Y-223154761D01*
X509711904Y-223202380D01*
X509902380Y-223202380D01*
X509997619Y-223154761D01*
X510045238Y-223107142D01*
X510092857Y-223011904D01*
X510092857Y-222773809D01*
X510045238Y-222678571D01*
X509997619Y-222630952D01*
X509902380Y-222583333D01*
X509711904Y-222583333D01*
X509616666Y-222630952D01*
X509569047Y-222678571D01*
X509521428Y-222773809D01*
%TO.C,J33*%
X333390476Y-189047380D02*
X333390476Y-189761666D01*
X333342857Y-189904523D01*
X333247619Y-189999761D01*
X333104761Y-190047380D01*
X333009523Y-190047380D01*
X333771428Y-189047380D02*
X334390476Y-189047380D01*
X334057142Y-189428333D01*
X334200000Y-189428333D01*
X334295238Y-189475952D01*
X334342857Y-189523571D01*
X334390476Y-189618809D01*
X334390476Y-189856904D01*
X334342857Y-189952142D01*
X334295238Y-189999761D01*
X334200000Y-190047380D01*
X333914285Y-190047380D01*
X333819047Y-189999761D01*
X333771428Y-189952142D01*
X334723809Y-189047380D02*
X335342857Y-189047380D01*
X335009523Y-189428333D01*
X335152380Y-189428333D01*
X335247619Y-189475952D01*
X335295238Y-189523571D01*
X335342857Y-189618809D01*
X335342857Y-189856904D01*
X335295238Y-189952142D01*
X335247619Y-189999761D01*
X335152380Y-190047380D01*
X334866666Y-190047380D01*
X334771428Y-189999761D01*
X334723809Y-189952142D01*
%TO.C,J4*%
X452866666Y-188952380D02*
X452866666Y-189666666D01*
X452819047Y-189809523D01*
X452723809Y-189904761D01*
X452580952Y-189952380D01*
X452485714Y-189952380D01*
X453771428Y-189285714D02*
X453771428Y-189952380D01*
X453533333Y-188904761D02*
X453295238Y-189619047D01*
X453914285Y-189619047D01*
%TO.C,D8*%
X380461904Y-227952380D02*
X380461904Y-226952380D01*
X380700000Y-226952380D01*
X380842857Y-227000000D01*
X380938095Y-227095238D01*
X380985714Y-227190476D01*
X381033333Y-227380952D01*
X381033333Y-227523809D01*
X380985714Y-227714285D01*
X380938095Y-227809523D01*
X380842857Y-227904761D01*
X380700000Y-227952380D01*
X380461904Y-227952380D01*
X381604761Y-227380952D02*
X381509523Y-227333333D01*
X381461904Y-227285714D01*
X381414285Y-227190476D01*
X381414285Y-227142857D01*
X381461904Y-227047619D01*
X381509523Y-227000000D01*
X381604761Y-226952380D01*
X381795238Y-226952380D01*
X381890476Y-227000000D01*
X381938095Y-227047619D01*
X381985714Y-227142857D01*
X381985714Y-227190476D01*
X381938095Y-227285714D01*
X381890476Y-227333333D01*
X381795238Y-227380952D01*
X381604761Y-227380952D01*
X381509523Y-227428571D01*
X381461904Y-227476190D01*
X381414285Y-227571428D01*
X381414285Y-227761904D01*
X381461904Y-227857142D01*
X381509523Y-227904761D01*
X381604761Y-227952380D01*
X381795238Y-227952380D01*
X381890476Y-227904761D01*
X381938095Y-227857142D01*
X381985714Y-227761904D01*
X381985714Y-227571428D01*
X381938095Y-227476190D01*
X381890476Y-227428571D01*
X381795238Y-227380952D01*
%TO.C,H4*%
X506238095Y-177652380D02*
X506238095Y-176652380D01*
X506238095Y-177128571D02*
X506809523Y-177128571D01*
X506809523Y-177652380D02*
X506809523Y-176652380D01*
X507714285Y-176985714D02*
X507714285Y-177652380D01*
X507476190Y-176604761D02*
X507238095Y-177319047D01*
X507857142Y-177319047D01*
%TO.C,J41*%
X375890476Y-283439880D02*
X375890476Y-284154166D01*
X375842857Y-284297023D01*
X375747619Y-284392261D01*
X375604761Y-284439880D01*
X375509523Y-284439880D01*
X376795238Y-283773214D02*
X376795238Y-284439880D01*
X376557142Y-283392261D02*
X376319047Y-284106547D01*
X376938095Y-284106547D01*
X377842857Y-284439880D02*
X377271428Y-284439880D01*
X377557142Y-284439880D02*
X377557142Y-283439880D01*
X377461904Y-283582738D01*
X377366666Y-283677976D01*
X377271428Y-283725595D01*
%TO.C,J7*%
X463866666Y-188952380D02*
X463866666Y-189666666D01*
X463819047Y-189809523D01*
X463723809Y-189904761D01*
X463580952Y-189952380D01*
X463485714Y-189952380D01*
X464247619Y-188952380D02*
X464914285Y-188952380D01*
X464485714Y-189952380D01*
%TO.C,A3*%
X491995714Y-239191666D02*
X492471904Y-239191666D01*
X491900476Y-239477380D02*
X492233809Y-238477380D01*
X492567142Y-239477380D01*
X492805238Y-238477380D02*
X493424285Y-238477380D01*
X493090952Y-238858333D01*
X493233809Y-238858333D01*
X493329047Y-238905952D01*
X493376666Y-238953571D01*
X493424285Y-239048809D01*
X493424285Y-239286904D01*
X493376666Y-239382142D01*
X493329047Y-239429761D01*
X493233809Y-239477380D01*
X492948095Y-239477380D01*
X492852857Y-239429761D01*
X492805238Y-239382142D01*
%TO.C,J34*%
X319158791Y-283479056D02*
X319158791Y-284193342D01*
X319111172Y-284336199D01*
X319015934Y-284431437D01*
X318873076Y-284479056D01*
X318777838Y-284479056D01*
X319539743Y-283479056D02*
X320158791Y-283479056D01*
X319825457Y-283860009D01*
X319968315Y-283860009D01*
X320063553Y-283907628D01*
X320111172Y-283955247D01*
X320158791Y-284050485D01*
X320158791Y-284288580D01*
X320111172Y-284383818D01*
X320063553Y-284431437D01*
X319968315Y-284479056D01*
X319682600Y-284479056D01*
X319587362Y-284431437D01*
X319539743Y-284383818D01*
X321015934Y-283812390D02*
X321015934Y-284479056D01*
X320777838Y-283431437D02*
X320539743Y-284145723D01*
X321158791Y-284145723D01*
%TO.C,J8*%
X486666666Y-185452380D02*
X486666666Y-186166666D01*
X486619047Y-186309523D01*
X486523809Y-186404761D01*
X486380952Y-186452380D01*
X486285714Y-186452380D01*
X487285714Y-185880952D02*
X487190476Y-185833333D01*
X487142857Y-185785714D01*
X487095238Y-185690476D01*
X487095238Y-185642857D01*
X487142857Y-185547619D01*
X487190476Y-185500000D01*
X487285714Y-185452380D01*
X487476190Y-185452380D01*
X487571428Y-185500000D01*
X487619047Y-185547619D01*
X487666666Y-185642857D01*
X487666666Y-185690476D01*
X487619047Y-185785714D01*
X487571428Y-185833333D01*
X487476190Y-185880952D01*
X487285714Y-185880952D01*
X487190476Y-185928571D01*
X487142857Y-185976190D01*
X487095238Y-186071428D01*
X487095238Y-186261904D01*
X487142857Y-186357142D01*
X487190476Y-186404761D01*
X487285714Y-186452380D01*
X487476190Y-186452380D01*
X487571428Y-186404761D01*
X487619047Y-186357142D01*
X487666666Y-186261904D01*
X487666666Y-186071428D01*
X487619047Y-185976190D01*
X487571428Y-185928571D01*
X487476190Y-185880952D01*
%TO.C,D4*%
X275961904Y-228047380D02*
X275961904Y-227047380D01*
X276200000Y-227047380D01*
X276342857Y-227095000D01*
X276438095Y-227190238D01*
X276485714Y-227285476D01*
X276533333Y-227475952D01*
X276533333Y-227618809D01*
X276485714Y-227809285D01*
X276438095Y-227904523D01*
X276342857Y-227999761D01*
X276200000Y-228047380D01*
X275961904Y-228047380D01*
X277390476Y-227380714D02*
X277390476Y-228047380D01*
X277152380Y-226999761D02*
X276914285Y-227714047D01*
X277533333Y-227714047D01*
%TO.C,J6*%
X229866666Y-189047380D02*
X229866666Y-189761666D01*
X229819047Y-189904523D01*
X229723809Y-189999761D01*
X229580952Y-190047380D01*
X229485714Y-190047380D01*
X230771428Y-189047380D02*
X230580952Y-189047380D01*
X230485714Y-189095000D01*
X230438095Y-189142619D01*
X230342857Y-189285476D01*
X230295238Y-189475952D01*
X230295238Y-189856904D01*
X230342857Y-189952142D01*
X230390476Y-189999761D01*
X230485714Y-190047380D01*
X230676190Y-190047380D01*
X230771428Y-189999761D01*
X230819047Y-189952142D01*
X230866666Y-189856904D01*
X230866666Y-189618809D01*
X230819047Y-189523571D01*
X230771428Y-189475952D01*
X230676190Y-189428333D01*
X230485714Y-189428333D01*
X230390476Y-189475952D01*
X230342857Y-189523571D01*
X230295238Y-189618809D01*
%TO.C,*%
%TO.C,H3*%
X236238095Y-244152380D02*
X236238095Y-243152380D01*
X236238095Y-243628571D02*
X236809523Y-243628571D01*
X236809523Y-244152380D02*
X236809523Y-243152380D01*
X237190476Y-243152380D02*
X237809523Y-243152380D01*
X237476190Y-243533333D01*
X237619047Y-243533333D01*
X237714285Y-243580952D01*
X237761904Y-243628571D01*
X237809523Y-243723809D01*
X237809523Y-243961904D01*
X237761904Y-244057142D01*
X237714285Y-244104761D01*
X237619047Y-244152380D01*
X237333333Y-244152380D01*
X237238095Y-244104761D01*
X237190476Y-244057142D01*
%TO.C,J45*%
X390890476Y-283439880D02*
X390890476Y-284154166D01*
X390842857Y-284297023D01*
X390747619Y-284392261D01*
X390604761Y-284439880D01*
X390509523Y-284439880D01*
X391795238Y-283773214D02*
X391795238Y-284439880D01*
X391557142Y-283392261D02*
X391319047Y-284106547D01*
X391938095Y-284106547D01*
X392795238Y-283439880D02*
X392319047Y-283439880D01*
X392271428Y-283916071D01*
X392319047Y-283868452D01*
X392414285Y-283820833D01*
X392652380Y-283820833D01*
X392747619Y-283868452D01*
X392795238Y-283916071D01*
X392842857Y-284011309D01*
X392842857Y-284249404D01*
X392795238Y-284344642D01*
X392747619Y-284392261D01*
X392652380Y-284439880D01*
X392414285Y-284439880D01*
X392319047Y-284392261D01*
X392271428Y-284344642D01*
%TO.C,K9*%
X400952380Y-212518095D02*
X399952380Y-212518095D01*
X400952380Y-211946666D02*
X400380952Y-212375238D01*
X399952380Y-211946666D02*
X400523809Y-212518095D01*
X400952380Y-211470476D02*
X400952380Y-211280000D01*
X400904761Y-211184761D01*
X400857142Y-211137142D01*
X400714285Y-211041904D01*
X400523809Y-210994285D01*
X400142857Y-210994285D01*
X400047619Y-211041904D01*
X400000000Y-211089523D01*
X399952380Y-211184761D01*
X399952380Y-211375238D01*
X400000000Y-211470476D01*
X400047619Y-211518095D01*
X400142857Y-211565714D01*
X400380952Y-211565714D01*
X400476190Y-211518095D01*
X400523809Y-211470476D01*
X400571428Y-211375238D01*
X400571428Y-211184761D01*
X400523809Y-211089523D01*
X400476190Y-211041904D01*
X400380952Y-210994285D01*
%TO.C,J13*%
X503690476Y-212307380D02*
X503690476Y-213021666D01*
X503642857Y-213164523D01*
X503547619Y-213259761D01*
X503404761Y-213307380D01*
X503309523Y-213307380D01*
X504690476Y-213307380D02*
X504119047Y-213307380D01*
X504404761Y-213307380D02*
X504404761Y-212307380D01*
X504309523Y-212450238D01*
X504214285Y-212545476D01*
X504119047Y-212593095D01*
X505023809Y-212307380D02*
X505642857Y-212307380D01*
X505309523Y-212688333D01*
X505452380Y-212688333D01*
X505547619Y-212735952D01*
X505595238Y-212783571D01*
X505642857Y-212878809D01*
X505642857Y-213116904D01*
X505595238Y-213212142D01*
X505547619Y-213259761D01*
X505452380Y-213307380D01*
X505166666Y-213307380D01*
X505071428Y-213259761D01*
X505023809Y-213212142D01*
%TO.C,A4*%
X341014029Y-239191666D02*
X341490219Y-239191666D01*
X340918791Y-239477380D02*
X341252124Y-238477380D01*
X341585457Y-239477380D01*
X342347362Y-238810714D02*
X342347362Y-239477380D01*
X342109267Y-238429761D02*
X341871172Y-239144047D01*
X342490219Y-239144047D01*
%TO.C,J48*%
X437390476Y-188952380D02*
X437390476Y-189666666D01*
X437342857Y-189809523D01*
X437247619Y-189904761D01*
X437104761Y-189952380D01*
X437009523Y-189952380D01*
X438295238Y-189285714D02*
X438295238Y-189952380D01*
X438057142Y-188904761D02*
X437819047Y-189619047D01*
X438438095Y-189619047D01*
X438961904Y-189380952D02*
X438866666Y-189333333D01*
X438819047Y-189285714D01*
X438771428Y-189190476D01*
X438771428Y-189142857D01*
X438819047Y-189047619D01*
X438866666Y-189000000D01*
X438961904Y-188952380D01*
X439152380Y-188952380D01*
X439247619Y-189000000D01*
X439295238Y-189047619D01*
X439342857Y-189142857D01*
X439342857Y-189190476D01*
X439295238Y-189285714D01*
X439247619Y-189333333D01*
X439152380Y-189380952D01*
X438961904Y-189380952D01*
X438866666Y-189428571D01*
X438819047Y-189476190D01*
X438771428Y-189571428D01*
X438771428Y-189761904D01*
X438819047Y-189857142D01*
X438866666Y-189904761D01*
X438961904Y-189952380D01*
X439152380Y-189952380D01*
X439247619Y-189904761D01*
X439295238Y-189857142D01*
X439342857Y-189761904D01*
X439342857Y-189571428D01*
X439295238Y-189476190D01*
X439247619Y-189428571D01*
X439152380Y-189380952D01*
%TO.C,J10*%
X499602380Y-195805023D02*
X500316666Y-195805023D01*
X500459523Y-195852642D01*
X500554761Y-195947880D01*
X500602380Y-196090738D01*
X500602380Y-196185976D01*
X500602380Y-194805023D02*
X500602380Y-195376452D01*
X500602380Y-195090738D02*
X499602380Y-195090738D01*
X499745238Y-195185976D01*
X499840476Y-195281214D01*
X499888095Y-195376452D01*
X499602380Y-194185976D02*
X499602380Y-194090738D01*
X499650000Y-193995500D01*
X499697619Y-193947880D01*
X499792857Y-193900261D01*
X499983333Y-193852642D01*
X500221428Y-193852642D01*
X500411904Y-193900261D01*
X500507142Y-193947880D01*
X500554761Y-193995500D01*
X500602380Y-194090738D01*
X500602380Y-194185976D01*
X500554761Y-194281214D01*
X500507142Y-194328833D01*
X500411904Y-194376452D01*
X500221428Y-194424071D01*
X499983333Y-194424071D01*
X499792857Y-194376452D01*
X499697619Y-194328833D01*
X499650000Y-194281214D01*
X499602380Y-194185976D01*
%TO.C,K2*%
X452777380Y-212518095D02*
X451777380Y-212518095D01*
X452777380Y-211946666D02*
X452205952Y-212375238D01*
X451777380Y-211946666D02*
X452348809Y-212518095D01*
X451872619Y-211565714D02*
X451825000Y-211518095D01*
X451777380Y-211422857D01*
X451777380Y-211184761D01*
X451825000Y-211089523D01*
X451872619Y-211041904D01*
X451967857Y-210994285D01*
X452063095Y-210994285D01*
X452205952Y-211041904D01*
X452777380Y-211613333D01*
X452777380Y-210994285D01*
%TO.C,D9*%
X406461904Y-227952380D02*
X406461904Y-226952380D01*
X406700000Y-226952380D01*
X406842857Y-227000000D01*
X406938095Y-227095238D01*
X406985714Y-227190476D01*
X407033333Y-227380952D01*
X407033333Y-227523809D01*
X406985714Y-227714285D01*
X406938095Y-227809523D01*
X406842857Y-227904761D01*
X406700000Y-227952380D01*
X406461904Y-227952380D01*
X407509523Y-227952380D02*
X407700000Y-227952380D01*
X407795238Y-227904761D01*
X407842857Y-227857142D01*
X407938095Y-227714285D01*
X407985714Y-227523809D01*
X407985714Y-227142857D01*
X407938095Y-227047619D01*
X407890476Y-227000000D01*
X407795238Y-226952380D01*
X407604761Y-226952380D01*
X407509523Y-227000000D01*
X407461904Y-227047619D01*
X407414285Y-227142857D01*
X407414285Y-227380952D01*
X407461904Y-227476190D01*
X407509523Y-227523809D01*
X407604761Y-227571428D01*
X407795238Y-227571428D01*
X407890476Y-227523809D01*
X407938095Y-227476190D01*
X407985714Y-227380952D01*
%TO.C,F6*%
X328523333Y-200411428D02*
X328856666Y-200411428D01*
X328856666Y-199887619D02*
X328856666Y-200887619D01*
X328380476Y-200887619D01*
X327570952Y-200887619D02*
X327761428Y-200887619D01*
X327856666Y-200840000D01*
X327904285Y-200792380D01*
X327999523Y-200649523D01*
X328047142Y-200459047D01*
X328047142Y-200078095D01*
X327999523Y-199982857D01*
X327951904Y-199935238D01*
X327856666Y-199887619D01*
X327666190Y-199887619D01*
X327570952Y-199935238D01*
X327523333Y-199982857D01*
X327475714Y-200078095D01*
X327475714Y-200316190D01*
X327523333Y-200411428D01*
X327570952Y-200459047D01*
X327666190Y-200506666D01*
X327856666Y-200506666D01*
X327951904Y-200459047D01*
X327999523Y-200411428D01*
X328047142Y-200316190D01*
%TO.C,J37*%
X359390476Y-188952380D02*
X359390476Y-189666666D01*
X359342857Y-189809523D01*
X359247619Y-189904761D01*
X359104761Y-189952380D01*
X359009523Y-189952380D01*
X359771428Y-188952380D02*
X360390476Y-188952380D01*
X360057142Y-189333333D01*
X360200000Y-189333333D01*
X360295238Y-189380952D01*
X360342857Y-189428571D01*
X360390476Y-189523809D01*
X360390476Y-189761904D01*
X360342857Y-189857142D01*
X360295238Y-189904761D01*
X360200000Y-189952380D01*
X359914285Y-189952380D01*
X359819047Y-189904761D01*
X359771428Y-189857142D01*
X360723809Y-188952380D02*
X361390476Y-188952380D01*
X360961904Y-189952380D01*
%TO.C,D10*%
X431735714Y-227952380D02*
X431735714Y-226952380D01*
X431973809Y-226952380D01*
X432116666Y-227000000D01*
X432211904Y-227095238D01*
X432259523Y-227190476D01*
X432307142Y-227380952D01*
X432307142Y-227523809D01*
X432259523Y-227714285D01*
X432211904Y-227809523D01*
X432116666Y-227904761D01*
X431973809Y-227952380D01*
X431735714Y-227952380D01*
X433259523Y-227952380D02*
X432688095Y-227952380D01*
X432973809Y-227952380D02*
X432973809Y-226952380D01*
X432878571Y-227095238D01*
X432783333Y-227190476D01*
X432688095Y-227238095D01*
X433878571Y-226952380D02*
X433973809Y-226952380D01*
X434069047Y-227000000D01*
X434116666Y-227047619D01*
X434164285Y-227142857D01*
X434211904Y-227333333D01*
X434211904Y-227571428D01*
X434164285Y-227761904D01*
X434116666Y-227857142D01*
X434069047Y-227904761D01*
X433973809Y-227952380D01*
X433878571Y-227952380D01*
X433783333Y-227904761D01*
X433735714Y-227857142D01*
X433688095Y-227761904D01*
X433640476Y-227571428D01*
X433640476Y-227333333D01*
X433688095Y-227142857D01*
X433735714Y-227047619D01*
X433783333Y-227000000D01*
X433878571Y-226952380D01*
%TO.C,J17*%
X247190476Y-283284880D02*
X247190476Y-283999166D01*
X247142857Y-284142023D01*
X247047619Y-284237261D01*
X246904761Y-284284880D01*
X246809523Y-284284880D01*
X248190476Y-284284880D02*
X247619047Y-284284880D01*
X247904761Y-284284880D02*
X247904761Y-283284880D01*
X247809523Y-283427738D01*
X247714285Y-283522976D01*
X247619047Y-283570595D01*
X248523809Y-283284880D02*
X249190476Y-283284880D01*
X248761904Y-284284880D01*
%TO.C,*%
%TO.C,U24*%
X484531904Y-190667380D02*
X484531904Y-191476904D01*
X484579523Y-191572142D01*
X484627142Y-191619761D01*
X484722380Y-191667380D01*
X484912857Y-191667380D01*
X485008095Y-191619761D01*
X485055714Y-191572142D01*
X485103333Y-191476904D01*
X485103333Y-190667380D01*
X485531904Y-190762619D02*
X485579523Y-190715000D01*
X485674761Y-190667380D01*
X485912857Y-190667380D01*
X486008095Y-190715000D01*
X486055714Y-190762619D01*
X486103333Y-190857857D01*
X486103333Y-190953095D01*
X486055714Y-191095952D01*
X485484285Y-191667380D01*
X486103333Y-191667380D01*
X486960476Y-191000714D02*
X486960476Y-191667380D01*
X486722380Y-190619761D02*
X486484285Y-191334047D01*
X487103333Y-191334047D01*
%TO.C,J22*%
X281390476Y-189047380D02*
X281390476Y-189761666D01*
X281342857Y-189904523D01*
X281247619Y-189999761D01*
X281104761Y-190047380D01*
X281009523Y-190047380D01*
X281819047Y-189142619D02*
X281866666Y-189095000D01*
X281961904Y-189047380D01*
X282200000Y-189047380D01*
X282295238Y-189095000D01*
X282342857Y-189142619D01*
X282390476Y-189237857D01*
X282390476Y-189333095D01*
X282342857Y-189475952D01*
X281771428Y-190047380D01*
X282390476Y-190047380D01*
X282771428Y-189142619D02*
X282819047Y-189095000D01*
X282914285Y-189047380D01*
X283152380Y-189047380D01*
X283247619Y-189095000D01*
X283295238Y-189142619D01*
X283342857Y-189237857D01*
X283342857Y-189333095D01*
X283295238Y-189475952D01*
X282723809Y-190047380D01*
X283342857Y-190047380D01*
%TO.C,*%
%TO.C,J39*%
X374390476Y-188952380D02*
X374390476Y-189666666D01*
X374342857Y-189809523D01*
X374247619Y-189904761D01*
X374104761Y-189952380D01*
X374009523Y-189952380D01*
X374771428Y-188952380D02*
X375390476Y-188952380D01*
X375057142Y-189333333D01*
X375200000Y-189333333D01*
X375295238Y-189380952D01*
X375342857Y-189428571D01*
X375390476Y-189523809D01*
X375390476Y-189761904D01*
X375342857Y-189857142D01*
X375295238Y-189904761D01*
X375200000Y-189952380D01*
X374914285Y-189952380D01*
X374819047Y-189904761D01*
X374771428Y-189857142D01*
X375866666Y-189952380D02*
X376057142Y-189952380D01*
X376152380Y-189904761D01*
X376200000Y-189857142D01*
X376295238Y-189714285D01*
X376342857Y-189523809D01*
X376342857Y-189142857D01*
X376295238Y-189047619D01*
X376247619Y-189000000D01*
X376152380Y-188952380D01*
X375961904Y-188952380D01*
X375866666Y-189000000D01*
X375819047Y-189047619D01*
X375771428Y-189142857D01*
X375771428Y-189380952D01*
X375819047Y-189476190D01*
X375866666Y-189523809D01*
X375961904Y-189571428D01*
X376152380Y-189571428D01*
X376247619Y-189523809D01*
X376295238Y-189476190D01*
X376342857Y-189380952D01*
%TO.C,J1*%
X219166666Y-283284880D02*
X219166666Y-283999166D01*
X219119047Y-284142023D01*
X219023809Y-284237261D01*
X218880952Y-284284880D01*
X218785714Y-284284880D01*
X220166666Y-284284880D02*
X219595238Y-284284880D01*
X219880952Y-284284880D02*
X219880952Y-283284880D01*
X219785714Y-283427738D01*
X219690476Y-283522976D01*
X219595238Y-283570595D01*
%TO.C,D6*%
X327961904Y-228047380D02*
X327961904Y-227047380D01*
X328200000Y-227047380D01*
X328342857Y-227095000D01*
X328438095Y-227190238D01*
X328485714Y-227285476D01*
X328533333Y-227475952D01*
X328533333Y-227618809D01*
X328485714Y-227809285D01*
X328438095Y-227904523D01*
X328342857Y-227999761D01*
X328200000Y-228047380D01*
X327961904Y-228047380D01*
X329390476Y-227047380D02*
X329200000Y-227047380D01*
X329104761Y-227095000D01*
X329057142Y-227142619D01*
X328961904Y-227285476D01*
X328914285Y-227475952D01*
X328914285Y-227856904D01*
X328961904Y-227952142D01*
X329009523Y-227999761D01*
X329104761Y-228047380D01*
X329295238Y-228047380D01*
X329390476Y-227999761D01*
X329438095Y-227952142D01*
X329485714Y-227856904D01*
X329485714Y-227618809D01*
X329438095Y-227523571D01*
X329390476Y-227475952D01*
X329295238Y-227428333D01*
X329104761Y-227428333D01*
X329009523Y-227475952D01*
X328961904Y-227523571D01*
X328914285Y-227618809D01*
%TO.C,D2*%
X458261904Y-227952380D02*
X458261904Y-226952380D01*
X458500000Y-226952380D01*
X458642857Y-227000000D01*
X458738095Y-227095238D01*
X458785714Y-227190476D01*
X458833333Y-227380952D01*
X458833333Y-227523809D01*
X458785714Y-227714285D01*
X458738095Y-227809523D01*
X458642857Y-227904761D01*
X458500000Y-227952380D01*
X458261904Y-227952380D01*
X459214285Y-227047619D02*
X459261904Y-227000000D01*
X459357142Y-226952380D01*
X459595238Y-226952380D01*
X459690476Y-227000000D01*
X459738095Y-227047619D01*
X459785714Y-227142857D01*
X459785714Y-227238095D01*
X459738095Y-227380952D01*
X459166666Y-227952380D01*
X459785714Y-227952380D01*
%TO.C,K1*%
X218702380Y-212613095D02*
X217702380Y-212613095D01*
X218702380Y-212041666D02*
X218130952Y-212470238D01*
X217702380Y-212041666D02*
X218273809Y-212613095D01*
X218702380Y-211089285D02*
X218702380Y-211660714D01*
X218702380Y-211375000D02*
X217702380Y-211375000D01*
X217845238Y-211470238D01*
X217940476Y-211565476D01*
X217988095Y-211660714D01*
%TO.C,J44*%
X411390476Y-188952380D02*
X411390476Y-189666666D01*
X411342857Y-189809523D01*
X411247619Y-189904761D01*
X411104761Y-189952380D01*
X411009523Y-189952380D01*
X412295238Y-189285714D02*
X412295238Y-189952380D01*
X412057142Y-188904761D02*
X411819047Y-189619047D01*
X412438095Y-189619047D01*
X413247619Y-189285714D02*
X413247619Y-189952380D01*
X413009523Y-188904761D02*
X412771428Y-189619047D01*
X413390476Y-189619047D01*
%TO.C,K3*%
X244452380Y-212613095D02*
X243452380Y-212613095D01*
X244452380Y-212041666D02*
X243880952Y-212470238D01*
X243452380Y-212041666D02*
X244023809Y-212613095D01*
X243452380Y-211708333D02*
X243452380Y-211089285D01*
X243833333Y-211422619D01*
X243833333Y-211279761D01*
X243880952Y-211184523D01*
X243928571Y-211136904D01*
X244023809Y-211089285D01*
X244261904Y-211089285D01*
X244357142Y-211136904D01*
X244404761Y-211184523D01*
X244452380Y-211279761D01*
X244452380Y-211565476D01*
X244404761Y-211660714D01*
X244357142Y-211708333D01*
%TO.C,J27*%
X296390476Y-189047380D02*
X296390476Y-189761666D01*
X296342857Y-189904523D01*
X296247619Y-189999761D01*
X296104761Y-190047380D01*
X296009523Y-190047380D01*
X296819047Y-189142619D02*
X296866666Y-189095000D01*
X296961904Y-189047380D01*
X297200000Y-189047380D01*
X297295238Y-189095000D01*
X297342857Y-189142619D01*
X297390476Y-189237857D01*
X297390476Y-189333095D01*
X297342857Y-189475952D01*
X296771428Y-190047380D01*
X297390476Y-190047380D01*
X297723809Y-189047380D02*
X298390476Y-189047380D01*
X297961904Y-190047380D01*
%TO.C,J9*%
X233166666Y-283284880D02*
X233166666Y-283999166D01*
X233119047Y-284142023D01*
X233023809Y-284237261D01*
X232880952Y-284284880D01*
X232785714Y-284284880D01*
X233690476Y-284284880D02*
X233880952Y-284284880D01*
X233976190Y-284237261D01*
X234023809Y-284189642D01*
X234119047Y-284046785D01*
X234166666Y-283856309D01*
X234166666Y-283475357D01*
X234119047Y-283380119D01*
X234071428Y-283332500D01*
X233976190Y-283284880D01*
X233785714Y-283284880D01*
X233690476Y-283332500D01*
X233642857Y-283380119D01*
X233595238Y-283475357D01*
X233595238Y-283713452D01*
X233642857Y-283808690D01*
X233690476Y-283856309D01*
X233785714Y-283903928D01*
X233976190Y-283903928D01*
X234071428Y-283856309D01*
X234119047Y-283808690D01*
X234166666Y-283713452D01*
%TO.C,K4*%
X270452380Y-212613095D02*
X269452380Y-212613095D01*
X270452380Y-212041666D02*
X269880952Y-212470238D01*
X269452380Y-212041666D02*
X270023809Y-212613095D01*
X269785714Y-211184523D02*
X270452380Y-211184523D01*
X269404761Y-211422619D02*
X270119047Y-211660714D01*
X270119047Y-211041666D01*
%TO.C,*%
%TO.C,J43*%
X400390476Y-188952380D02*
X400390476Y-189666666D01*
X400342857Y-189809523D01*
X400247619Y-189904761D01*
X400104761Y-189952380D01*
X400009523Y-189952380D01*
X401295238Y-189285714D02*
X401295238Y-189952380D01*
X401057142Y-188904761D02*
X400819047Y-189619047D01*
X401438095Y-189619047D01*
X401723809Y-188952380D02*
X402342857Y-188952380D01*
X402009523Y-189333333D01*
X402152380Y-189333333D01*
X402247619Y-189380952D01*
X402295238Y-189428571D01*
X402342857Y-189523809D01*
X402342857Y-189761904D01*
X402295238Y-189857142D01*
X402247619Y-189904761D01*
X402152380Y-189952380D01*
X401866666Y-189952380D01*
X401771428Y-189904761D01*
X401723809Y-189857142D01*
%TO.C,A2*%
X267405714Y-239241666D02*
X267881904Y-239241666D01*
X267310476Y-239527380D02*
X267643809Y-238527380D01*
X267977142Y-239527380D01*
X268262857Y-238622619D02*
X268310476Y-238575000D01*
X268405714Y-238527380D01*
X268643809Y-238527380D01*
X268739047Y-238575000D01*
X268786666Y-238622619D01*
X268834285Y-238717857D01*
X268834285Y-238813095D01*
X268786666Y-238955952D01*
X268215238Y-239527380D01*
X268834285Y-239527380D01*
%TO.C,D7*%
X354461904Y-227952380D02*
X354461904Y-226952380D01*
X354700000Y-226952380D01*
X354842857Y-227000000D01*
X354938095Y-227095238D01*
X354985714Y-227190476D01*
X355033333Y-227380952D01*
X355033333Y-227523809D01*
X354985714Y-227714285D01*
X354938095Y-227809523D01*
X354842857Y-227904761D01*
X354700000Y-227952380D01*
X354461904Y-227952380D01*
X355366666Y-226952380D02*
X356033333Y-226952380D01*
X355604761Y-227952380D01*
%TO.C,K5*%
X296452380Y-212613095D02*
X295452380Y-212613095D01*
X296452380Y-212041666D02*
X295880952Y-212470238D01*
X295452380Y-212041666D02*
X296023809Y-212613095D01*
X295452380Y-211136904D02*
X295452380Y-211613095D01*
X295928571Y-211660714D01*
X295880952Y-211613095D01*
X295833333Y-211517857D01*
X295833333Y-211279761D01*
X295880952Y-211184523D01*
X295928571Y-211136904D01*
X296023809Y-211089285D01*
X296261904Y-211089285D01*
X296357142Y-211136904D01*
X296404761Y-211184523D01*
X296452380Y-211279761D01*
X296452380Y-211517857D01*
X296404761Y-211613095D01*
X296357142Y-211660714D01*
%TO.C,J15*%
X244390476Y-189047380D02*
X244390476Y-189761666D01*
X244342857Y-189904523D01*
X244247619Y-189999761D01*
X244104761Y-190047380D01*
X244009523Y-190047380D01*
X245390476Y-190047380D02*
X244819047Y-190047380D01*
X245104761Y-190047380D02*
X245104761Y-189047380D01*
X245009523Y-189190238D01*
X244914285Y-189285476D01*
X244819047Y-189333095D01*
X246295238Y-189047380D02*
X245819047Y-189047380D01*
X245771428Y-189523571D01*
X245819047Y-189475952D01*
X245914285Y-189428333D01*
X246152380Y-189428333D01*
X246247619Y-189475952D01*
X246295238Y-189523571D01*
X246342857Y-189618809D01*
X246342857Y-189856904D01*
X246295238Y-189952142D01*
X246247619Y-189999761D01*
X246152380Y-190047380D01*
X245914285Y-190047380D01*
X245819047Y-189999761D01*
X245771428Y-189952142D01*
%TO.C,J5*%
X218866666Y-189047380D02*
X218866666Y-189761666D01*
X218819047Y-189904523D01*
X218723809Y-189999761D01*
X218580952Y-190047380D01*
X218485714Y-190047380D01*
X219819047Y-189047380D02*
X219342857Y-189047380D01*
X219295238Y-189523571D01*
X219342857Y-189475952D01*
X219438095Y-189428333D01*
X219676190Y-189428333D01*
X219771428Y-189475952D01*
X219819047Y-189523571D01*
X219866666Y-189618809D01*
X219866666Y-189856904D01*
X219819047Y-189952142D01*
X219771428Y-189999761D01*
X219676190Y-190047380D01*
X219438095Y-190047380D01*
X219342857Y-189999761D01*
X219295238Y-189952142D01*
%TO.C,K8*%
X374952380Y-212518095D02*
X373952380Y-212518095D01*
X374952380Y-211946666D02*
X374380952Y-212375238D01*
X373952380Y-211946666D02*
X374523809Y-212518095D01*
X374380952Y-211375238D02*
X374333333Y-211470476D01*
X374285714Y-211518095D01*
X374190476Y-211565714D01*
X374142857Y-211565714D01*
X374047619Y-211518095D01*
X374000000Y-211470476D01*
X373952380Y-211375238D01*
X373952380Y-211184761D01*
X374000000Y-211089523D01*
X374047619Y-211041904D01*
X374142857Y-210994285D01*
X374190476Y-210994285D01*
X374285714Y-211041904D01*
X374333333Y-211089523D01*
X374380952Y-211184761D01*
X374380952Y-211375238D01*
X374428571Y-211470476D01*
X374476190Y-211518095D01*
X374571428Y-211565714D01*
X374761904Y-211565714D01*
X374857142Y-211518095D01*
X374904761Y-211470476D01*
X374952380Y-211375238D01*
X374952380Y-211184761D01*
X374904761Y-211089523D01*
X374857142Y-211041904D01*
X374761904Y-210994285D01*
X374571428Y-210994285D01*
X374476190Y-211041904D01*
X374428571Y-211089523D01*
X374380952Y-211184761D01*
%TO.C,J12*%
X476190476Y-188952380D02*
X476190476Y-189666666D01*
X476142857Y-189809523D01*
X476047619Y-189904761D01*
X475904761Y-189952380D01*
X475809523Y-189952380D01*
X477190476Y-189952380D02*
X476619047Y-189952380D01*
X476904761Y-189952380D02*
X476904761Y-188952380D01*
X476809523Y-189095238D01*
X476714285Y-189190476D01*
X476619047Y-189238095D01*
X477571428Y-189047619D02*
X477619047Y-189000000D01*
X477714285Y-188952380D01*
X477952380Y-188952380D01*
X478047619Y-189000000D01*
X478095238Y-189047619D01*
X478142857Y-189142857D01*
X478142857Y-189238095D01*
X478095238Y-189380952D01*
X477523809Y-189952380D01*
X478142857Y-189952380D01*
%TO.C,F3*%
X250573333Y-200461428D02*
X250906666Y-200461428D01*
X250906666Y-199937619D02*
X250906666Y-200937619D01*
X250430476Y-200937619D01*
X250144761Y-200937619D02*
X249525714Y-200937619D01*
X249859047Y-200556666D01*
X249716190Y-200556666D01*
X249620952Y-200509047D01*
X249573333Y-200461428D01*
X249525714Y-200366190D01*
X249525714Y-200128095D01*
X249573333Y-200032857D01*
X249620952Y-199985238D01*
X249716190Y-199937619D01*
X250001904Y-199937619D01*
X250097142Y-199985238D01*
X250144761Y-200032857D01*
%TO.C,J21*%
X270390476Y-189047380D02*
X270390476Y-189761666D01*
X270342857Y-189904523D01*
X270247619Y-189999761D01*
X270104761Y-190047380D01*
X270009523Y-190047380D01*
X270819047Y-189142619D02*
X270866666Y-189095000D01*
X270961904Y-189047380D01*
X271200000Y-189047380D01*
X271295238Y-189095000D01*
X271342857Y-189142619D01*
X271390476Y-189237857D01*
X271390476Y-189333095D01*
X271342857Y-189475952D01*
X270771428Y-190047380D01*
X271390476Y-190047380D01*
X272342857Y-190047380D02*
X271771428Y-190047380D01*
X272057142Y-190047380D02*
X272057142Y-189047380D01*
X271961904Y-189190238D01*
X271866666Y-189285476D01*
X271771428Y-189333095D01*
%TO.C,J40*%
X385390476Y-188952380D02*
X385390476Y-189666666D01*
X385342857Y-189809523D01*
X385247619Y-189904761D01*
X385104761Y-189952380D01*
X385009523Y-189952380D01*
X386295238Y-189285714D02*
X386295238Y-189952380D01*
X386057142Y-188904761D02*
X385819047Y-189619047D01*
X386438095Y-189619047D01*
X387009523Y-188952380D02*
X387104761Y-188952380D01*
X387200000Y-189000000D01*
X387247619Y-189047619D01*
X387295238Y-189142857D01*
X387342857Y-189333333D01*
X387342857Y-189571428D01*
X387295238Y-189761904D01*
X387247619Y-189857142D01*
X387200000Y-189904761D01*
X387104761Y-189952380D01*
X387009523Y-189952380D01*
X386914285Y-189904761D01*
X386866666Y-189857142D01*
X386819047Y-189761904D01*
X386771428Y-189571428D01*
X386771428Y-189333333D01*
X386819047Y-189142857D01*
X386866666Y-189047619D01*
X386914285Y-189000000D01*
X387009523Y-188952380D01*
%TO.C,D1*%
X224211904Y-228047380D02*
X224211904Y-227047380D01*
X224450000Y-227047380D01*
X224592857Y-227095000D01*
X224688095Y-227190238D01*
X224735714Y-227285476D01*
X224783333Y-227475952D01*
X224783333Y-227618809D01*
X224735714Y-227809285D01*
X224688095Y-227904523D01*
X224592857Y-227999761D01*
X224450000Y-228047380D01*
X224211904Y-228047380D01*
X225735714Y-228047380D02*
X225164285Y-228047380D01*
X225450000Y-228047380D02*
X225450000Y-227047380D01*
X225354761Y-227190238D01*
X225259523Y-227285476D01*
X225164285Y-227333095D01*
%TO.C,J11*%
X495890476Y-188952380D02*
X495890476Y-189666666D01*
X495842857Y-189809523D01*
X495747619Y-189904761D01*
X495604761Y-189952380D01*
X495509523Y-189952380D01*
X496890476Y-189952380D02*
X496319047Y-189952380D01*
X496604761Y-189952380D02*
X496604761Y-188952380D01*
X496509523Y-189095238D01*
X496414285Y-189190476D01*
X496319047Y-189238095D01*
X497842857Y-189952380D02*
X497271428Y-189952380D01*
X497557142Y-189952380D02*
X497557142Y-188952380D01*
X497461904Y-189095238D01*
X497366666Y-189190476D01*
X497271428Y-189238095D01*
%TO.C,F5*%
X302523333Y-200411428D02*
X302856666Y-200411428D01*
X302856666Y-199887619D02*
X302856666Y-200887619D01*
X302380476Y-200887619D01*
X301523333Y-200887619D02*
X301999523Y-200887619D01*
X302047142Y-200411428D01*
X301999523Y-200459047D01*
X301904285Y-200506666D01*
X301666190Y-200506666D01*
X301570952Y-200459047D01*
X301523333Y-200411428D01*
X301475714Y-200316190D01*
X301475714Y-200078095D01*
X301523333Y-199982857D01*
X301570952Y-199935238D01*
X301666190Y-199887619D01*
X301904285Y-199887619D01*
X301999523Y-199935238D01*
X302047142Y-199982857D01*
%TO.C,J2*%
X430241666Y-283439880D02*
X430241666Y-284154166D01*
X430194047Y-284297023D01*
X430098809Y-284392261D01*
X429955952Y-284439880D01*
X429860714Y-284439880D01*
X430670238Y-283535119D02*
X430717857Y-283487500D01*
X430813095Y-283439880D01*
X431051190Y-283439880D01*
X431146428Y-283487500D01*
X431194047Y-283535119D01*
X431241666Y-283630357D01*
X431241666Y-283725595D01*
X431194047Y-283868452D01*
X430622619Y-284439880D01*
X431241666Y-284439880D01*
%TO.C,J3*%
X445241666Y-283439880D02*
X445241666Y-284154166D01*
X445194047Y-284297023D01*
X445098809Y-284392261D01*
X444955952Y-284439880D01*
X444860714Y-284439880D01*
X445622619Y-283439880D02*
X446241666Y-283439880D01*
X445908333Y-283820833D01*
X446051190Y-283820833D01*
X446146428Y-283868452D01*
X446194047Y-283916071D01*
X446241666Y-284011309D01*
X446241666Y-284249404D01*
X446194047Y-284344642D01*
X446146428Y-284392261D01*
X446051190Y-284439880D01*
X445765476Y-284439880D01*
X445670238Y-284392261D01*
X445622619Y-284344642D01*
%TO.C,J16*%
X255390476Y-189047380D02*
X255390476Y-189761666D01*
X255342857Y-189904523D01*
X255247619Y-189999761D01*
X255104761Y-190047380D01*
X255009523Y-190047380D01*
X256390476Y-190047380D02*
X255819047Y-190047380D01*
X256104761Y-190047380D02*
X256104761Y-189047380D01*
X256009523Y-189190238D01*
X255914285Y-189285476D01*
X255819047Y-189333095D01*
X257247619Y-189047380D02*
X257057142Y-189047380D01*
X256961904Y-189095000D01*
X256914285Y-189142619D01*
X256819047Y-189285476D01*
X256771428Y-189475952D01*
X256771428Y-189856904D01*
X256819047Y-189952142D01*
X256866666Y-189999761D01*
X256961904Y-190047380D01*
X257152380Y-190047380D01*
X257247619Y-189999761D01*
X257295238Y-189952142D01*
X257342857Y-189856904D01*
X257342857Y-189618809D01*
X257295238Y-189523571D01*
X257247619Y-189475952D01*
X257152380Y-189428333D01*
X256961904Y-189428333D01*
X256866666Y-189475952D01*
X256819047Y-189523571D01*
X256771428Y-189618809D01*
%TO.C,F4*%
X276823333Y-200411428D02*
X277156666Y-200411428D01*
X277156666Y-199887619D02*
X277156666Y-200887619D01*
X276680476Y-200887619D01*
X275870952Y-200554285D02*
X275870952Y-199887619D01*
X276109047Y-200935238D02*
X276347142Y-200220952D01*
X275728095Y-200220952D01*
%TO.C,F8*%
X381023333Y-200316428D02*
X381356666Y-200316428D01*
X381356666Y-199792619D02*
X381356666Y-200792619D01*
X380880476Y-200792619D01*
X380356666Y-200364047D02*
X380451904Y-200411666D01*
X380499523Y-200459285D01*
X380547142Y-200554523D01*
X380547142Y-200602142D01*
X380499523Y-200697380D01*
X380451904Y-200745000D01*
X380356666Y-200792619D01*
X380166190Y-200792619D01*
X380070952Y-200745000D01*
X380023333Y-200697380D01*
X379975714Y-200602142D01*
X379975714Y-200554523D01*
X380023333Y-200459285D01*
X380070952Y-200411666D01*
X380166190Y-200364047D01*
X380356666Y-200364047D01*
X380451904Y-200316428D01*
X380499523Y-200268809D01*
X380547142Y-200173571D01*
X380547142Y-199983095D01*
X380499523Y-199887857D01*
X380451904Y-199840238D01*
X380356666Y-199792619D01*
X380166190Y-199792619D01*
X380070952Y-199840238D01*
X380023333Y-199887857D01*
X379975714Y-199983095D01*
X379975714Y-200173571D01*
X380023333Y-200268809D01*
X380070952Y-200316428D01*
X380166190Y-200364047D01*
%TO.C,D5*%
X301961904Y-228047380D02*
X301961904Y-227047380D01*
X302200000Y-227047380D01*
X302342857Y-227095000D01*
X302438095Y-227190238D01*
X302485714Y-227285476D01*
X302533333Y-227475952D01*
X302533333Y-227618809D01*
X302485714Y-227809285D01*
X302438095Y-227904523D01*
X302342857Y-227999761D01*
X302200000Y-228047380D01*
X301961904Y-228047380D01*
X303438095Y-227047380D02*
X302961904Y-227047380D01*
X302914285Y-227523571D01*
X302961904Y-227475952D01*
X303057142Y-227428333D01*
X303295238Y-227428333D01*
X303390476Y-227475952D01*
X303438095Y-227523571D01*
X303485714Y-227618809D01*
X303485714Y-227856904D01*
X303438095Y-227952142D01*
X303390476Y-227999761D01*
X303295238Y-228047380D01*
X303057142Y-228047380D01*
X302961904Y-227999761D01*
X302914285Y-227952142D01*
%TO.C,J36*%
X348390476Y-188952380D02*
X348390476Y-189666666D01*
X348342857Y-189809523D01*
X348247619Y-189904761D01*
X348104761Y-189952380D01*
X348009523Y-189952380D01*
X348771428Y-188952380D02*
X349390476Y-188952380D01*
X349057142Y-189333333D01*
X349200000Y-189333333D01*
X349295238Y-189380952D01*
X349342857Y-189428571D01*
X349390476Y-189523809D01*
X349390476Y-189761904D01*
X349342857Y-189857142D01*
X349295238Y-189904761D01*
X349200000Y-189952380D01*
X348914285Y-189952380D01*
X348819047Y-189904761D01*
X348771428Y-189857142D01*
X350247619Y-188952380D02*
X350057142Y-188952380D01*
X349961904Y-189000000D01*
X349914285Y-189047619D01*
X349819047Y-189190476D01*
X349771428Y-189380952D01*
X349771428Y-189761904D01*
X349819047Y-189857142D01*
X349866666Y-189904761D01*
X349961904Y-189952380D01*
X350152380Y-189952380D01*
X350247619Y-189904761D01*
X350295238Y-189857142D01*
X350342857Y-189761904D01*
X350342857Y-189523809D01*
X350295238Y-189428571D01*
X350247619Y-189380952D01*
X350152380Y-189333333D01*
X349961904Y-189333333D01*
X349866666Y-189380952D01*
X349819047Y-189428571D01*
X349771428Y-189523809D01*
%TO.C,A1*%
X465325714Y-239191666D02*
X465801904Y-239191666D01*
X465230476Y-239477380D02*
X465563809Y-238477380D01*
X465897142Y-239477380D01*
X466754285Y-239477380D02*
X466182857Y-239477380D01*
X466468571Y-239477380D02*
X466468571Y-238477380D01*
X466373333Y-238620238D01*
X466278095Y-238715476D01*
X466182857Y-238763095D01*
%TO.C,J32*%
X322390476Y-189047380D02*
X322390476Y-189761666D01*
X322342857Y-189904523D01*
X322247619Y-189999761D01*
X322104761Y-190047380D01*
X322009523Y-190047380D01*
X322771428Y-189047380D02*
X323390476Y-189047380D01*
X323057142Y-189428333D01*
X323200000Y-189428333D01*
X323295238Y-189475952D01*
X323342857Y-189523571D01*
X323390476Y-189618809D01*
X323390476Y-189856904D01*
X323342857Y-189952142D01*
X323295238Y-189999761D01*
X323200000Y-190047380D01*
X322914285Y-190047380D01*
X322819047Y-189999761D01*
X322771428Y-189952142D01*
X323771428Y-189142619D02*
X323819047Y-189095000D01*
X323914285Y-189047380D01*
X324152380Y-189047380D01*
X324247619Y-189095000D01*
X324295238Y-189142619D01*
X324342857Y-189237857D01*
X324342857Y-189333095D01*
X324295238Y-189475952D01*
X323723809Y-190047380D01*
X324342857Y-190047380D01*
%TO.C,F9*%
X407103333Y-200316428D02*
X407436666Y-200316428D01*
X407436666Y-199792619D02*
X407436666Y-200792619D01*
X406960476Y-200792619D01*
X406531904Y-199792619D02*
X406341428Y-199792619D01*
X406246190Y-199840238D01*
X406198571Y-199887857D01*
X406103333Y-200030714D01*
X406055714Y-200221190D01*
X406055714Y-200602142D01*
X406103333Y-200697380D01*
X406150952Y-200745000D01*
X406246190Y-200792619D01*
X406436666Y-200792619D01*
X406531904Y-200745000D01*
X406579523Y-200697380D01*
X406627142Y-200602142D01*
X406627142Y-200364047D01*
X406579523Y-200268809D01*
X406531904Y-200221190D01*
X406436666Y-200173571D01*
X406246190Y-200173571D01*
X406150952Y-200221190D01*
X406103333Y-200268809D01*
X406055714Y-200364047D01*
%TO.C,K10*%
X426652380Y-212994285D02*
X425652380Y-212994285D01*
X426652380Y-212422857D02*
X426080952Y-212851428D01*
X425652380Y-212422857D02*
X426223809Y-212994285D01*
X426652380Y-211470476D02*
X426652380Y-212041904D01*
X426652380Y-211756190D02*
X425652380Y-211756190D01*
X425795238Y-211851428D01*
X425890476Y-211946666D01*
X425938095Y-212041904D01*
X425652380Y-210851428D02*
X425652380Y-210756190D01*
X425700000Y-210660952D01*
X425747619Y-210613333D01*
X425842857Y-210565714D01*
X426033333Y-210518095D01*
X426271428Y-210518095D01*
X426461904Y-210565714D01*
X426557142Y-210613333D01*
X426604761Y-210660952D01*
X426652380Y-210756190D01*
X426652380Y-210851428D01*
X426604761Y-210946666D01*
X426557142Y-210994285D01*
X426461904Y-211041904D01*
X426271428Y-211089523D01*
X426033333Y-211089523D01*
X425842857Y-211041904D01*
X425747619Y-210994285D01*
X425700000Y-210946666D01*
X425652380Y-210851428D01*
%TO.C,K7*%
X348952380Y-212518095D02*
X347952380Y-212518095D01*
X348952380Y-211946666D02*
X348380952Y-212375238D01*
X347952380Y-211946666D02*
X348523809Y-212518095D01*
X347952380Y-211613333D02*
X347952380Y-210946666D01*
X348952380Y-211375238D01*
%TO.C,J23*%
X289158791Y-283479056D02*
X289158791Y-284193342D01*
X289111172Y-284336199D01*
X289015934Y-284431437D01*
X288873076Y-284479056D01*
X288777838Y-284479056D01*
X289587362Y-283574295D02*
X289634981Y-283526676D01*
X289730219Y-283479056D01*
X289968315Y-283479056D01*
X290063553Y-283526676D01*
X290111172Y-283574295D01*
X290158791Y-283669533D01*
X290158791Y-283764771D01*
X290111172Y-283907628D01*
X289539743Y-284479056D01*
X290158791Y-284479056D01*
X290492124Y-283479056D02*
X291111172Y-283479056D01*
X290777838Y-283860009D01*
X290920695Y-283860009D01*
X291015934Y-283907628D01*
X291063553Y-283955247D01*
X291111172Y-284050485D01*
X291111172Y-284288580D01*
X291063553Y-284383818D01*
X291015934Y-284431437D01*
X290920695Y-284479056D01*
X290634981Y-284479056D01*
X290539743Y-284431437D01*
X290492124Y-284383818D01*
%TO.C,F1*%
X224523333Y-200411428D02*
X224856666Y-200411428D01*
X224856666Y-199887619D02*
X224856666Y-200887619D01*
X224380476Y-200887619D01*
X223475714Y-199887619D02*
X224047142Y-199887619D01*
X223761428Y-199887619D02*
X223761428Y-200887619D01*
X223856666Y-200744761D01*
X223951904Y-200649523D01*
X224047142Y-200601904D01*
%TO.C,F10*%
X433499523Y-200316428D02*
X433832857Y-200316428D01*
X433832857Y-199792619D02*
X433832857Y-200792619D01*
X433356666Y-200792619D01*
X432451904Y-199792619D02*
X433023333Y-199792619D01*
X432737619Y-199792619D02*
X432737619Y-200792619D01*
X432832857Y-200649761D01*
X432928095Y-200554523D01*
X433023333Y-200506904D01*
X431832857Y-200792619D02*
X431737619Y-200792619D01*
X431642380Y-200745000D01*
X431594761Y-200697380D01*
X431547142Y-200602142D01*
X431499523Y-200411666D01*
X431499523Y-200173571D01*
X431547142Y-199983095D01*
X431594761Y-199887857D01*
X431642380Y-199840238D01*
X431737619Y-199792619D01*
X431832857Y-199792619D01*
X431928095Y-199840238D01*
X431975714Y-199887857D01*
X432023333Y-199983095D01*
X432070952Y-200173571D01*
X432070952Y-200411666D01*
X432023333Y-200602142D01*
X431975714Y-200697380D01*
X431928095Y-200745000D01*
X431832857Y-200792619D01*
%TO.C,F2*%
X458973333Y-200316428D02*
X459306666Y-200316428D01*
X459306666Y-199792619D02*
X459306666Y-200792619D01*
X458830476Y-200792619D01*
X458497142Y-200697380D02*
X458449523Y-200745000D01*
X458354285Y-200792619D01*
X458116190Y-200792619D01*
X458020952Y-200745000D01*
X457973333Y-200697380D01*
X457925714Y-200602142D01*
X457925714Y-200506904D01*
X457973333Y-200364047D01*
X458544761Y-199792619D01*
X457925714Y-199792619D01*
%TO.C,*%
%TO.C,K6*%
X322452380Y-212613095D02*
X321452380Y-212613095D01*
X322452380Y-212041666D02*
X321880952Y-212470238D01*
X321452380Y-212041666D02*
X322023809Y-212613095D01*
X321452380Y-211184523D02*
X321452380Y-211375000D01*
X321500000Y-211470238D01*
X321547619Y-211517857D01*
X321690476Y-211613095D01*
X321880952Y-211660714D01*
X322261904Y-211660714D01*
X322357142Y-211613095D01*
X322404761Y-211565476D01*
X322452380Y-211470238D01*
X322452380Y-211279761D01*
X322404761Y-211184523D01*
X322357142Y-211136904D01*
X322261904Y-211089285D01*
X322023809Y-211089285D01*
X321928571Y-211136904D01*
X321880952Y-211184523D01*
X321833333Y-211279761D01*
X321833333Y-211470238D01*
X321880952Y-211565476D01*
X321928571Y-211613095D01*
X322023809Y-211660714D01*
%TO.C,H1*%
X236238095Y-209247380D02*
X236238095Y-208247380D01*
X236238095Y-208723571D02*
X236809523Y-208723571D01*
X236809523Y-209247380D02*
X236809523Y-208247380D01*
X237809523Y-209247380D02*
X237238095Y-209247380D01*
X237523809Y-209247380D02*
X237523809Y-208247380D01*
X237428571Y-208390238D01*
X237333333Y-208485476D01*
X237238095Y-208533095D01*
%TO.C,J30*%
X304158791Y-283479056D02*
X304158791Y-284193342D01*
X304111172Y-284336199D01*
X304015934Y-284431437D01*
X303873076Y-284479056D01*
X303777838Y-284479056D01*
X304539743Y-283479056D02*
X305158791Y-283479056D01*
X304825457Y-283860009D01*
X304968315Y-283860009D01*
X305063553Y-283907628D01*
X305111172Y-283955247D01*
X305158791Y-284050485D01*
X305158791Y-284288580D01*
X305111172Y-284383818D01*
X305063553Y-284431437D01*
X304968315Y-284479056D01*
X304682600Y-284479056D01*
X304587362Y-284431437D01*
X304539743Y-284383818D01*
X305777838Y-283479056D02*
X305873076Y-283479056D01*
X305968315Y-283526676D01*
X306015934Y-283574295D01*
X306063553Y-283669533D01*
X306111172Y-283860009D01*
X306111172Y-284098104D01*
X306063553Y-284288580D01*
X306015934Y-284383818D01*
X305968315Y-284431437D01*
X305873076Y-284479056D01*
X305777838Y-284479056D01*
X305682600Y-284431437D01*
X305634981Y-284383818D01*
X305587362Y-284288580D01*
X305539743Y-284098104D01*
X305539743Y-283860009D01*
X305587362Y-283669533D01*
X305634981Y-283574295D01*
X305682600Y-283526676D01*
X305777838Y-283479056D01*
%TO.C,D3*%
X249961904Y-228047380D02*
X249961904Y-227047380D01*
X250200000Y-227047380D01*
X250342857Y-227095000D01*
X250438095Y-227190238D01*
X250485714Y-227285476D01*
X250533333Y-227475952D01*
X250533333Y-227618809D01*
X250485714Y-227809285D01*
X250438095Y-227904523D01*
X250342857Y-227999761D01*
X250200000Y-228047380D01*
X249961904Y-228047380D01*
X250866666Y-227047380D02*
X251485714Y-227047380D01*
X251152380Y-227428333D01*
X251295238Y-227428333D01*
X251390476Y-227475952D01*
X251438095Y-227523571D01*
X251485714Y-227618809D01*
X251485714Y-227856904D01*
X251438095Y-227952142D01*
X251390476Y-227999761D01*
X251295238Y-228047380D01*
X251009523Y-228047380D01*
X250914285Y-227999761D01*
X250866666Y-227952142D01*
D13*
%TO.C,J29*%
X356640000Y-282988500D02*
X356640000Y-273067500D01*
X366760000Y-282988500D02*
X366760000Y-273067500D01*
X366760000Y-282988500D02*
X356640000Y-282988500D01*
X367000000Y-272827500D02*
X366500000Y-272827500D01*
X366760000Y-275127500D02*
X356640000Y-275127500D01*
X357925000Y-278796500D02*
X357972000Y-278750500D01*
X358130000Y-279002500D02*
X358165000Y-278966500D01*
X367000000Y-273567500D02*
X367000000Y-272827500D01*
X360234000Y-276488500D02*
X360269000Y-276453500D01*
X366760000Y-273067500D02*
X356640000Y-273067500D01*
X366760000Y-280028500D02*
X356640000Y-280028500D01*
X366760000Y-273627500D02*
X356640000Y-273627500D01*
X360427000Y-276704500D02*
X360474000Y-276658500D01*
X363516000Y-279262500D02*
G75*
G03*
X364883042Y-279262927I684001J1534993D01*
G01*
X364884000Y-276192500D02*
G75*
G03*
X364171195Y-276047247I-683999J-1535001D01*
G01*
X362664999Y-277043500D02*
G75*
G03*
X362664573Y-278410542I1535001J-684000D01*
G01*
X364200000Y-276047500D02*
G75*
G03*
X363516682Y-276192744I0J-1680000D01*
G01*
X365735000Y-278411500D02*
G75*
G03*
X365735427Y-277044458I-1534993J684001D01*
G01*
X360880000Y-277727500D02*
G75*
G03*
X360880000Y-277727500I-1680000J0D01*
G01*
D12*
%TO.C,F7*%
X345200000Y-193405000D02*
X364100000Y-193405000D01*
X345200000Y-198805000D02*
X345200000Y-193405000D01*
X364100000Y-193405000D02*
X364100000Y-198805000D01*
X364100000Y-198805000D02*
X345200000Y-198805000D01*
D13*
%TO.C,J47*%
X421900000Y-188610000D02*
X422400000Y-188610000D01*
X432260000Y-178449000D02*
X432260000Y-188370000D01*
X428666000Y-184949000D02*
X428631000Y-184984000D01*
X422140000Y-178449000D02*
X422140000Y-188370000D01*
X430770000Y-182435000D02*
X430735000Y-182471000D01*
X421900000Y-187870000D02*
X421900000Y-188610000D01*
X422140000Y-181409000D02*
X432260000Y-181409000D01*
X422140000Y-186310000D02*
X432260000Y-186310000D01*
X422140000Y-188370000D02*
X432260000Y-188370000D01*
X422140000Y-178449000D02*
X432260000Y-178449000D01*
X422140000Y-187810000D02*
X432260000Y-187810000D01*
X430975000Y-182641000D02*
X430928000Y-182687000D01*
X428473000Y-184733000D02*
X428426000Y-184779000D01*
X424016000Y-185245000D02*
G75*
G03*
X424728805Y-185390253I683999J1535001D01*
G01*
X425384000Y-182175000D02*
G75*
G03*
X424016958Y-182174573I-684001J-1534993D01*
G01*
X426235001Y-184394000D02*
G75*
G03*
X426235427Y-183026958I-1535001J684000D01*
G01*
X424700000Y-185390000D02*
G75*
G03*
X425383318Y-185244756I0J1680000D01*
G01*
X423165000Y-183026000D02*
G75*
G03*
X423164573Y-184393042I1534993J-684001D01*
G01*
X431380000Y-183710000D02*
G75*
G03*
X431380000Y-183710000I-1680000J0D01*
G01*
%TO.C,J28*%
X311975000Y-182736000D02*
X311928000Y-182782000D01*
X313260000Y-178544000D02*
X313260000Y-188465000D01*
X311770000Y-182530000D02*
X311735000Y-182566000D01*
X303140000Y-178544000D02*
X313260000Y-178544000D01*
X303140000Y-178544000D02*
X303140000Y-188465000D01*
X303140000Y-186405000D02*
X313260000Y-186405000D01*
X302900000Y-187965000D02*
X302900000Y-188705000D01*
X309666000Y-185044000D02*
X309631000Y-185079000D01*
X302900000Y-188705000D02*
X303400000Y-188705000D01*
X309473000Y-184828000D02*
X309426000Y-184874000D01*
X303140000Y-181504000D02*
X313260000Y-181504000D01*
X303140000Y-188465000D02*
X313260000Y-188465000D01*
X303140000Y-187905000D02*
X313260000Y-187905000D01*
X307235001Y-184489000D02*
G75*
G03*
X307235427Y-183121958I-1535001J684000D01*
G01*
X304165000Y-183121000D02*
G75*
G03*
X304164573Y-184488042I1534993J-684001D01*
G01*
X306384000Y-182270000D02*
G75*
G03*
X305016958Y-182269573I-684001J-1534993D01*
G01*
X305016000Y-185340000D02*
G75*
G03*
X305728805Y-185485253I683999J1535001D01*
G01*
X305700000Y-185485000D02*
G75*
G03*
X306383318Y-185339756I0J1680000D01*
G01*
X312380000Y-183805000D02*
G75*
G03*
X312380000Y-183805000I-1680000J0D01*
G01*
%TO.C,A5*%
X417470000Y-242730000D02*
X417470000Y-280830000D01*
X402100000Y-245270000D02*
X402100000Y-283500000D01*
X420140000Y-240060000D02*
X402100000Y-240060000D01*
X404770000Y-280830000D02*
X402100000Y-280830000D01*
X404770000Y-242730000D02*
X402100000Y-242730000D01*
X402100000Y-283500000D02*
X420140000Y-283500000D01*
X404770000Y-245270000D02*
X402100000Y-245270000D01*
X404770000Y-245270000D02*
X404770000Y-280830000D01*
X417470000Y-280830000D02*
X420140000Y-280830000D01*
X404770000Y-245270000D02*
X404770000Y-242730000D01*
X402100000Y-240060000D02*
X402100000Y-242730000D01*
X420140000Y-283500000D02*
X420140000Y-240060000D01*
X417470000Y-242730000D02*
X420140000Y-242730000D01*
%TO.C,J26*%
X499700000Y-223900000D02*
X501700000Y-223900000D01*
X501200000Y-233340000D02*
X499460000Y-233340000D01*
X499700000Y-233100000D02*
X499700000Y-230300000D01*
X499460000Y-233340000D02*
X499460000Y-231600000D01*
X505300000Y-223900000D02*
X514300000Y-223900000D01*
X514300000Y-223900000D02*
X514300000Y-233100000D01*
X514300000Y-233100000D02*
X499700000Y-233100000D01*
X499700000Y-226700000D02*
X499700000Y-223900000D01*
%TO.C,J33*%
X329140000Y-178544000D02*
X339260000Y-178544000D01*
X329140000Y-186405000D02*
X339260000Y-186405000D01*
X329140000Y-178544000D02*
X329140000Y-188465000D01*
X329140000Y-188465000D02*
X339260000Y-188465000D01*
X329140000Y-181504000D02*
X339260000Y-181504000D01*
X328900000Y-188705000D02*
X329400000Y-188705000D01*
X337975000Y-182736000D02*
X337928000Y-182782000D01*
X329140000Y-187905000D02*
X339260000Y-187905000D01*
X335666000Y-185044000D02*
X335631000Y-185079000D01*
X328900000Y-187965000D02*
X328900000Y-188705000D01*
X339260000Y-178544000D02*
X339260000Y-188465000D01*
X337770000Y-182530000D02*
X337735000Y-182566000D01*
X335473000Y-184828000D02*
X335426000Y-184874000D01*
X331700000Y-185485000D02*
G75*
G03*
X332383318Y-185339756I0J1680000D01*
G01*
X330165000Y-183121000D02*
G75*
G03*
X330164573Y-184488042I1534993J-684001D01*
G01*
X332384000Y-182270000D02*
G75*
G03*
X331016958Y-182269573I-684001J-1534993D01*
G01*
X331016000Y-185340000D02*
G75*
G03*
X331728805Y-185485253I683999J1535001D01*
G01*
X333235001Y-184489000D02*
G75*
G03*
X333235427Y-183121958I-1535001J684000D01*
G01*
X338380000Y-183805000D02*
G75*
G03*
X338380000Y-183805000I-1680000J0D01*
G01*
%TO.C,J4*%
X448140000Y-188370000D02*
X458260000Y-188370000D01*
X448140000Y-186310000D02*
X458260000Y-186310000D01*
X448140000Y-178449000D02*
X448140000Y-188370000D01*
X448140000Y-178449000D02*
X458260000Y-178449000D01*
X454473000Y-184733000D02*
X454426000Y-184779000D01*
X456975000Y-182641000D02*
X456928000Y-182687000D01*
X454666000Y-184949000D02*
X454631000Y-184984000D01*
X447900000Y-187870000D02*
X447900000Y-188610000D01*
X456770000Y-182435000D02*
X456735000Y-182471000D01*
X447900000Y-188610000D02*
X448400000Y-188610000D01*
X458260000Y-178449000D02*
X458260000Y-188370000D01*
X448140000Y-181409000D02*
X458260000Y-181409000D01*
X448140000Y-187810000D02*
X458260000Y-187810000D01*
X450700000Y-185390000D02*
G75*
G03*
X451383318Y-185244756I0J1680000D01*
G01*
X451384000Y-182175000D02*
G75*
G03*
X450016958Y-182174573I-684001J-1534993D01*
G01*
X449165000Y-183026000D02*
G75*
G03*
X449164573Y-184393042I1534993J-684001D01*
G01*
X450016000Y-185245000D02*
G75*
G03*
X450728805Y-185390253I683999J1535001D01*
G01*
X452235001Y-184394000D02*
G75*
G03*
X452235427Y-183026958I-1535001J684000D01*
G01*
X457380000Y-183710000D02*
G75*
G03*
X457380000Y-183710000I-1680000J0D01*
G01*
%TO.C,D8*%
X383320000Y-226525000D02*
X383320000Y-224285000D01*
X379800000Y-224285000D02*
X379800000Y-226525000D01*
X379680000Y-224285000D02*
X379680000Y-226525000D01*
X383320000Y-224285000D02*
X379080000Y-224285000D01*
X383970000Y-225405000D02*
X383320000Y-225405000D01*
X379080000Y-224285000D02*
X379080000Y-226525000D01*
X379080000Y-226525000D02*
X383320000Y-226525000D01*
X379920000Y-224285000D02*
X379920000Y-226525000D01*
X378430000Y-225405000D02*
X379080000Y-225405000D01*
%TO.C,J41*%
X372925000Y-278796500D02*
X372972000Y-278750500D01*
X382000000Y-273567500D02*
X382000000Y-272827500D01*
X381760000Y-273067500D02*
X371640000Y-273067500D01*
X381760000Y-273627500D02*
X371640000Y-273627500D01*
X381760000Y-280028500D02*
X371640000Y-280028500D01*
X381760000Y-282988500D02*
X381760000Y-273067500D01*
X382000000Y-272827500D02*
X381500000Y-272827500D01*
X375427000Y-276704500D02*
X375474000Y-276658500D01*
X375234000Y-276488500D02*
X375269000Y-276453500D01*
X381760000Y-282988500D02*
X371640000Y-282988500D01*
X373130000Y-279002500D02*
X373165000Y-278966500D01*
X371640000Y-282988500D02*
X371640000Y-273067500D01*
X381760000Y-275127500D02*
X371640000Y-275127500D01*
X379884000Y-276192500D02*
G75*
G03*
X379171195Y-276047247I-683999J-1535001D01*
G01*
X377664999Y-277043500D02*
G75*
G03*
X377664573Y-278410542I1535001J-684000D01*
G01*
X380735000Y-278411500D02*
G75*
G03*
X380735427Y-277044458I-1534993J684001D01*
G01*
X378516000Y-279262500D02*
G75*
G03*
X379883042Y-279262927I684001J1534993D01*
G01*
X379200000Y-276047500D02*
G75*
G03*
X378516682Y-276192744I0J-1680000D01*
G01*
X375880000Y-277727500D02*
G75*
G03*
X375880000Y-277727500I-1680000J0D01*
G01*
%TO.C,J7*%
X467975000Y-182641000D02*
X467928000Y-182687000D01*
X465666000Y-184949000D02*
X465631000Y-184984000D01*
X469260000Y-178449000D02*
X469260000Y-188370000D01*
X459140000Y-181409000D02*
X469260000Y-181409000D01*
X458900000Y-187870000D02*
X458900000Y-188610000D01*
X465473000Y-184733000D02*
X465426000Y-184779000D01*
X459140000Y-187810000D02*
X469260000Y-187810000D01*
X459140000Y-186310000D02*
X469260000Y-186310000D01*
X459140000Y-178449000D02*
X469260000Y-178449000D01*
X458900000Y-188610000D02*
X459400000Y-188610000D01*
X467770000Y-182435000D02*
X467735000Y-182471000D01*
X459140000Y-178449000D02*
X459140000Y-188370000D01*
X459140000Y-188370000D02*
X469260000Y-188370000D01*
X460165000Y-183026000D02*
G75*
G03*
X460164573Y-184393042I1534993J-684001D01*
G01*
X461016000Y-185245000D02*
G75*
G03*
X461728805Y-185390253I683999J1535001D01*
G01*
X463235001Y-184394000D02*
G75*
G03*
X463235427Y-183026958I-1535001J684000D01*
G01*
X462384000Y-182175000D02*
G75*
G03*
X461016958Y-182174573I-684001J-1534993D01*
G01*
X461700000Y-185390000D02*
G75*
G03*
X462383318Y-185244756I0J1680000D01*
G01*
X468380000Y-183710000D02*
G75*
G03*
X468380000Y-183710000I-1680000J0D01*
G01*
%TO.C,A3*%
X483690000Y-245375000D02*
X483690000Y-283605000D01*
X486360000Y-242835000D02*
X483690000Y-242835000D01*
X486360000Y-245375000D02*
X486360000Y-280935000D01*
X501730000Y-283605000D02*
X501730000Y-240165000D01*
X499060000Y-280935000D02*
X501730000Y-280935000D01*
X483690000Y-283605000D02*
X501730000Y-283605000D01*
X486360000Y-245375000D02*
X483690000Y-245375000D01*
X499060000Y-242835000D02*
X499060000Y-280935000D01*
X483690000Y-240165000D02*
X483690000Y-242835000D01*
X501730000Y-240165000D02*
X483690000Y-240165000D01*
X499060000Y-242835000D02*
X501730000Y-242835000D01*
X486360000Y-245375000D02*
X486360000Y-242835000D01*
X486360000Y-280935000D02*
X483690000Y-280935000D01*
%TO.C,J34*%
X325268315Y-272866676D02*
X324768315Y-272866676D01*
X325028315Y-273666676D02*
X314908315Y-273666676D01*
X325028315Y-283027676D02*
X325028315Y-273106676D01*
X318502315Y-276527676D02*
X318537315Y-276492676D01*
X325028315Y-273106676D02*
X314908315Y-273106676D01*
X325268315Y-273606676D02*
X325268315Y-272866676D01*
X318695315Y-276743676D02*
X318742315Y-276697676D01*
X316193315Y-278835676D02*
X316240315Y-278789676D01*
X316398315Y-279041676D02*
X316433315Y-279005676D01*
X314908315Y-283027676D02*
X314908315Y-273106676D01*
X325028315Y-280067676D02*
X314908315Y-280067676D01*
X325028315Y-283027676D02*
X314908315Y-283027676D01*
X325028315Y-275166676D02*
X314908315Y-275166676D01*
X320933314Y-277082676D02*
G75*
G03*
X320932888Y-278449718I1535001J-684000D01*
G01*
X324003315Y-278450676D02*
G75*
G03*
X324003742Y-277083634I-1534993J684001D01*
G01*
X321784315Y-279301676D02*
G75*
G03*
X323151357Y-279302103I684001J1534993D01*
G01*
X322468315Y-276086676D02*
G75*
G03*
X321784997Y-276231920I0J-1680000D01*
G01*
X323152315Y-276231676D02*
G75*
G03*
X322439510Y-276086423I-683999J-1535001D01*
G01*
X319148315Y-277766676D02*
G75*
G03*
X319148315Y-277766676I-1680000J0D01*
G01*
%TO.C,J8*%
X487970000Y-184990000D02*
X482830000Y-184990000D01*
X490570000Y-183660000D02*
X490570000Y-184990000D01*
X487970000Y-182330000D02*
X482830000Y-182330000D01*
X490570000Y-184990000D02*
X489240000Y-184990000D01*
X482830000Y-182330000D02*
X482830000Y-184990000D01*
X487970000Y-182330000D02*
X487970000Y-184990000D01*
%TO.C,D4*%
X275420000Y-224380000D02*
X275420000Y-226620000D01*
X273930000Y-225500000D02*
X274580000Y-225500000D01*
X275180000Y-224380000D02*
X275180000Y-226620000D01*
X278820000Y-226620000D02*
X278820000Y-224380000D01*
X278820000Y-224380000D02*
X274580000Y-224380000D01*
X274580000Y-224380000D02*
X274580000Y-226620000D01*
X274580000Y-226620000D02*
X278820000Y-226620000D01*
X279470000Y-225500000D02*
X278820000Y-225500000D01*
X275300000Y-224380000D02*
X275300000Y-226620000D01*
%TO.C,J6*%
X224900000Y-187965000D02*
X224900000Y-188705000D01*
X225140000Y-186405000D02*
X235260000Y-186405000D01*
X225140000Y-178544000D02*
X225140000Y-188465000D01*
X233975000Y-182736000D02*
X233928000Y-182782000D01*
X225140000Y-181504000D02*
X235260000Y-181504000D01*
X225140000Y-178544000D02*
X235260000Y-178544000D01*
X235260000Y-178544000D02*
X235260000Y-188465000D01*
X225140000Y-187905000D02*
X235260000Y-187905000D01*
X231473000Y-184828000D02*
X231426000Y-184874000D01*
X225140000Y-188465000D02*
X235260000Y-188465000D01*
X224900000Y-188705000D02*
X225400000Y-188705000D01*
X231666000Y-185044000D02*
X231631000Y-185079000D01*
X233770000Y-182530000D02*
X233735000Y-182566000D01*
X227700000Y-185485000D02*
G75*
G03*
X228383318Y-185339756I0J1680000D01*
G01*
X226165000Y-183121000D02*
G75*
G03*
X226164573Y-184488042I1534993J-684001D01*
G01*
X229235001Y-184489000D02*
G75*
G03*
X229235427Y-183121958I-1535001J684000D01*
G01*
X227016000Y-185340000D02*
G75*
G03*
X227728805Y-185485253I683999J1535001D01*
G01*
X228384000Y-182270000D02*
G75*
G03*
X227016958Y-182269573I-684001J-1534993D01*
G01*
X234380000Y-183805000D02*
G75*
G03*
X234380000Y-183805000I-1680000J0D01*
G01*
%TO.C,J45*%
X396760000Y-282988500D02*
X386640000Y-282988500D01*
X387925000Y-278796500D02*
X387972000Y-278750500D01*
X386640000Y-282988500D02*
X386640000Y-273067500D01*
X396760000Y-275127500D02*
X386640000Y-275127500D01*
X390427000Y-276704500D02*
X390474000Y-276658500D01*
X388130000Y-279002500D02*
X388165000Y-278966500D01*
X397000000Y-272827500D02*
X396500000Y-272827500D01*
X397000000Y-273567500D02*
X397000000Y-272827500D01*
X396760000Y-282988500D02*
X396760000Y-273067500D01*
X396760000Y-273627500D02*
X386640000Y-273627500D01*
X396760000Y-273067500D02*
X386640000Y-273067500D01*
X390234000Y-276488500D02*
X390269000Y-276453500D01*
X396760000Y-280028500D02*
X386640000Y-280028500D01*
X395735000Y-278411500D02*
G75*
G03*
X395735427Y-277044458I-1534993J684001D01*
G01*
X392664999Y-277043500D02*
G75*
G03*
X392664573Y-278410542I1535001J-684000D01*
G01*
X394200000Y-276047500D02*
G75*
G03*
X393516682Y-276192744I0J-1680000D01*
G01*
X394884000Y-276192500D02*
G75*
G03*
X394171195Y-276047247I-683999J-1535001D01*
G01*
X393516000Y-279262500D02*
G75*
G03*
X394883042Y-279262927I684001J1534993D01*
G01*
X390880000Y-277727500D02*
G75*
G03*
X390880000Y-277727500I-1680000J0D01*
G01*
%TO.C,K9*%
X411000000Y-218740000D02*
X408710000Y-218740000D01*
X407950000Y-219250000D02*
X406940000Y-218230000D01*
X406170000Y-218740000D02*
X403380000Y-218740000D01*
X409730000Y-211120000D02*
X407190000Y-211120000D01*
X406170000Y-218740000D02*
X406170000Y-218230000D01*
X401690000Y-222960000D02*
X401690000Y-201820000D01*
X408710000Y-218230000D02*
X408710000Y-218740000D01*
X408710000Y-218740000D02*
X408710000Y-219250000D01*
X411000000Y-220010000D02*
X411000000Y-218740000D01*
X409730000Y-203500000D02*
X407190000Y-203500000D01*
X412690000Y-201820000D02*
X401690000Y-201820000D01*
X406170000Y-218230000D02*
X408710000Y-218230000D01*
X403380000Y-218740000D02*
X403380000Y-220010000D01*
X407190000Y-207945000D02*
X404650000Y-204135000D01*
X412690000Y-222960000D02*
X412690000Y-201820000D01*
X407190000Y-211120000D02*
X407190000Y-207945000D01*
X406170000Y-219250000D02*
X406170000Y-218740000D01*
X404650000Y-206040000D02*
X405920000Y-206040000D01*
X412690000Y-222960000D02*
X401690000Y-222960000D01*
X408710000Y-219250000D02*
X406170000Y-219250000D01*
X407317000Y-207945000D02*
G75*
G03*
X407317000Y-207945000I-127000J0D01*
G01*
%TO.C,J13*%
X505830000Y-209255000D02*
X503170000Y-209255000D01*
X505830000Y-211855000D02*
X504500000Y-211855000D01*
X505830000Y-204115000D02*
X503170000Y-204115000D01*
X505830000Y-209255000D02*
X505830000Y-204115000D01*
X505830000Y-210525000D02*
X505830000Y-211855000D01*
X503170000Y-209255000D02*
X503170000Y-204115000D01*
%TO.C,A4*%
X332708315Y-283605000D02*
X350748315Y-283605000D01*
X332708315Y-240165000D02*
X332708315Y-242835000D01*
X350748315Y-283605000D02*
X350748315Y-240165000D01*
X348078315Y-280935000D02*
X350748315Y-280935000D01*
X348078315Y-242835000D02*
X350748315Y-242835000D01*
X332708315Y-245375000D02*
X332708315Y-283605000D01*
X348078315Y-242835000D02*
X348078315Y-280935000D01*
X335378315Y-245375000D02*
X332708315Y-245375000D01*
X335378315Y-280935000D02*
X332708315Y-280935000D01*
X350748315Y-240165000D02*
X332708315Y-240165000D01*
X335378315Y-242835000D02*
X332708315Y-242835000D01*
X335378315Y-245375000D02*
X335378315Y-242835000D01*
X335378315Y-245375000D02*
X335378315Y-280935000D01*
%TO.C,J48*%
X439473000Y-184733000D02*
X439426000Y-184779000D01*
X433140000Y-178449000D02*
X433140000Y-188370000D01*
X443260000Y-178449000D02*
X443260000Y-188370000D01*
X441975000Y-182641000D02*
X441928000Y-182687000D01*
X432900000Y-187870000D02*
X432900000Y-188610000D01*
X433140000Y-188370000D02*
X443260000Y-188370000D01*
X439666000Y-184949000D02*
X439631000Y-184984000D01*
X433140000Y-178449000D02*
X443260000Y-178449000D01*
X433140000Y-181409000D02*
X443260000Y-181409000D01*
X441770000Y-182435000D02*
X441735000Y-182471000D01*
X433140000Y-187810000D02*
X443260000Y-187810000D01*
X432900000Y-188610000D02*
X433400000Y-188610000D01*
X433140000Y-186310000D02*
X443260000Y-186310000D01*
X435016000Y-185245000D02*
G75*
G03*
X435728805Y-185390253I683999J1535001D01*
G01*
X434165000Y-183026000D02*
G75*
G03*
X434164573Y-184393042I1534993J-684001D01*
G01*
X436384000Y-182175000D02*
G75*
G03*
X435016958Y-182174573I-684001J-1534993D01*
G01*
X435700000Y-185390000D02*
G75*
G03*
X436383318Y-185244756I0J1680000D01*
G01*
X437235001Y-184394000D02*
G75*
G03*
X437235427Y-183026958I-1535001J684000D01*
G01*
X442380000Y-183710000D02*
G75*
G03*
X442380000Y-183710000I-1680000J0D01*
G01*
%TO.C,J10*%
X507870000Y-189565000D02*
X501130000Y-189565000D01*
X506750000Y-189565000D02*
X506750000Y-200426000D01*
X501530000Y-189325000D02*
X500890000Y-189325000D01*
X500890000Y-189325000D02*
X500890000Y-189725000D01*
X501130000Y-189565000D02*
X501130000Y-200426000D01*
X501650000Y-189565000D02*
X501650000Y-200426000D01*
X507870000Y-189565000D02*
X507870000Y-200426000D01*
X507870000Y-200426000D02*
X501130000Y-200426000D01*
%TO.C,K2*%
X453515000Y-222960000D02*
X453515000Y-201820000D01*
X460535000Y-218230000D02*
X460535000Y-218740000D01*
X459015000Y-211120000D02*
X459015000Y-207945000D01*
X459775000Y-219250000D02*
X458765000Y-218230000D01*
X457995000Y-218740000D02*
X457995000Y-218230000D01*
X464515000Y-222960000D02*
X453515000Y-222960000D01*
X456475000Y-206040000D02*
X457745000Y-206040000D01*
X457995000Y-218230000D02*
X460535000Y-218230000D01*
X457995000Y-219250000D02*
X457995000Y-218740000D01*
X455205000Y-218740000D02*
X455205000Y-220010000D01*
X462825000Y-218740000D02*
X460535000Y-218740000D01*
X459015000Y-207945000D02*
X456475000Y-204135000D01*
X462825000Y-220010000D02*
X462825000Y-218740000D01*
X460535000Y-219250000D02*
X457995000Y-219250000D01*
X457995000Y-218740000D02*
X455205000Y-218740000D01*
X460535000Y-218740000D02*
X460535000Y-219250000D01*
X464515000Y-222960000D02*
X464515000Y-201820000D01*
X461555000Y-203500000D02*
X459015000Y-203500000D01*
X461555000Y-211120000D02*
X459015000Y-211120000D01*
X464515000Y-201820000D02*
X453515000Y-201820000D01*
X459142000Y-207945000D02*
G75*
G03*
X459142000Y-207945000I-127000J0D01*
G01*
%TO.C,D9*%
X405680000Y-224285000D02*
X405680000Y-226525000D01*
X405800000Y-224285000D02*
X405800000Y-226525000D01*
X404430000Y-225405000D02*
X405080000Y-225405000D01*
X405920000Y-224285000D02*
X405920000Y-226525000D01*
X405080000Y-226525000D02*
X409320000Y-226525000D01*
X409320000Y-226525000D02*
X409320000Y-224285000D01*
X409320000Y-224285000D02*
X405080000Y-224285000D01*
X405080000Y-224285000D02*
X405080000Y-226525000D01*
X409970000Y-225405000D02*
X409320000Y-225405000D01*
D12*
%TO.C,F6*%
X337600000Y-193500000D02*
X337600000Y-198900000D01*
X318700000Y-198900000D02*
X318700000Y-193500000D01*
X318700000Y-193500000D02*
X337600000Y-193500000D01*
X337600000Y-198900000D02*
X318700000Y-198900000D01*
D13*
%TO.C,J37*%
X361473000Y-184733000D02*
X361426000Y-184779000D01*
X355140000Y-187810000D02*
X365260000Y-187810000D01*
X361666000Y-184949000D02*
X361631000Y-184984000D01*
X355140000Y-178449000D02*
X365260000Y-178449000D01*
X363975000Y-182641000D02*
X363928000Y-182687000D01*
X363770000Y-182435000D02*
X363735000Y-182471000D01*
X355140000Y-181409000D02*
X365260000Y-181409000D01*
X355140000Y-186310000D02*
X365260000Y-186310000D01*
X355140000Y-178449000D02*
X355140000Y-188370000D01*
X365260000Y-178449000D02*
X365260000Y-188370000D01*
X354900000Y-188610000D02*
X355400000Y-188610000D01*
X355140000Y-188370000D02*
X365260000Y-188370000D01*
X354900000Y-187870000D02*
X354900000Y-188610000D01*
X358384000Y-182175000D02*
G75*
G03*
X357016958Y-182174573I-684001J-1534993D01*
G01*
X356165000Y-183026000D02*
G75*
G03*
X356164573Y-184393042I1534993J-684001D01*
G01*
X359235001Y-184394000D02*
G75*
G03*
X359235427Y-183026958I-1535001J684000D01*
G01*
X357016000Y-185245000D02*
G75*
G03*
X357728805Y-185390253I683999J1535001D01*
G01*
X357700000Y-185390000D02*
G75*
G03*
X358383318Y-185244756I0J1680000D01*
G01*
X364380000Y-183710000D02*
G75*
G03*
X364380000Y-183710000I-1680000J0D01*
G01*
%TO.C,D10*%
X430180000Y-225405000D02*
X430830000Y-225405000D01*
X435720000Y-225405000D02*
X435070000Y-225405000D01*
X430830000Y-224285000D02*
X430830000Y-226525000D01*
X430830000Y-226525000D02*
X435070000Y-226525000D01*
X431550000Y-224285000D02*
X431550000Y-226525000D01*
X435070000Y-224285000D02*
X430830000Y-224285000D01*
X435070000Y-226525000D02*
X435070000Y-224285000D01*
X431670000Y-224285000D02*
X431670000Y-226525000D01*
X431430000Y-224285000D02*
X431430000Y-226525000D01*
%TO.C,J17*%
X253300000Y-272672500D02*
X252800000Y-272672500D01*
X253060000Y-272912500D02*
X242940000Y-272912500D01*
X253060000Y-279873500D02*
X242940000Y-279873500D01*
X253060000Y-282833500D02*
X253060000Y-272912500D01*
X246534000Y-276333500D02*
X246569000Y-276298500D01*
X244430000Y-278847500D02*
X244465000Y-278811500D01*
X246727000Y-276549500D02*
X246774000Y-276503500D01*
X253060000Y-274972500D02*
X242940000Y-274972500D01*
X242940000Y-282833500D02*
X242940000Y-272912500D01*
X244225000Y-278641500D02*
X244272000Y-278595500D01*
X253300000Y-273412500D02*
X253300000Y-272672500D01*
X253060000Y-273472500D02*
X242940000Y-273472500D01*
X253060000Y-282833500D02*
X242940000Y-282833500D01*
X251184000Y-276037500D02*
G75*
G03*
X250471195Y-275892247I-683999J-1535001D01*
G01*
X252035000Y-278256500D02*
G75*
G03*
X252035427Y-276889458I-1534993J684001D01*
G01*
X250500000Y-275892500D02*
G75*
G03*
X249816682Y-276037744I0J-1680000D01*
G01*
X249816000Y-279107500D02*
G75*
G03*
X251183042Y-279107927I684001J1534993D01*
G01*
X248964999Y-276888500D02*
G75*
G03*
X248964573Y-278255542I1535001J-684000D01*
G01*
X247180000Y-277572500D02*
G75*
G03*
X247180000Y-277572500I-1680000J0D01*
G01*
%TO.C,U24*%
X480670000Y-197456000D02*
X480670000Y-200850000D01*
X495990000Y-192215000D02*
X495990000Y-197456000D01*
X486695000Y-197456000D02*
X488246000Y-197456000D01*
X487620000Y-192215000D02*
X487620000Y-194055000D01*
X483920000Y-192215000D02*
X483920000Y-194055000D01*
X494270000Y-197456000D02*
X494270000Y-200850000D01*
X490870000Y-197456000D02*
X490870000Y-200850000D01*
X479895000Y-197456000D02*
X481446000Y-197456000D01*
X475550000Y-197456000D02*
X478046000Y-197456000D01*
X487470000Y-197456000D02*
X487470000Y-200850000D01*
X483295000Y-197456000D02*
X484846000Y-197456000D01*
X490095000Y-197456000D02*
X491646000Y-197456000D01*
X475550000Y-194055000D02*
X495990000Y-194055000D01*
X477270000Y-197456000D02*
X477270000Y-200865000D01*
X475550000Y-192215000D02*
X495990000Y-192215000D01*
X475550000Y-192215000D02*
X475550000Y-197456000D01*
X484070000Y-197456000D02*
X484070000Y-200850000D01*
X493495000Y-197456000D02*
X495990000Y-197456000D01*
%TO.C,J22*%
X285770000Y-182530000D02*
X285735000Y-182566000D01*
X276900000Y-187965000D02*
X276900000Y-188705000D01*
X277140000Y-186405000D02*
X287260000Y-186405000D01*
X277140000Y-178544000D02*
X277140000Y-188465000D01*
X277140000Y-181504000D02*
X287260000Y-181504000D01*
X277140000Y-178544000D02*
X287260000Y-178544000D01*
X277140000Y-188465000D02*
X287260000Y-188465000D01*
X285975000Y-182736000D02*
X285928000Y-182782000D01*
X283473000Y-184828000D02*
X283426000Y-184874000D01*
X287260000Y-178544000D02*
X287260000Y-188465000D01*
X276900000Y-188705000D02*
X277400000Y-188705000D01*
X277140000Y-187905000D02*
X287260000Y-187905000D01*
X283666000Y-185044000D02*
X283631000Y-185079000D01*
X281235001Y-184489000D02*
G75*
G03*
X281235427Y-183121958I-1535001J684000D01*
G01*
X278165000Y-183121000D02*
G75*
G03*
X278164573Y-184488042I1534993J-684001D01*
G01*
X280384000Y-182270000D02*
G75*
G03*
X279016958Y-182269573I-684001J-1534993D01*
G01*
X279700000Y-185485000D02*
G75*
G03*
X280383318Y-185339756I0J1680000D01*
G01*
X279016000Y-185340000D02*
G75*
G03*
X279728805Y-185485253I683999J1535001D01*
G01*
X286380000Y-183805000D02*
G75*
G03*
X286380000Y-183805000I-1680000J0D01*
G01*
%TO.C,J39*%
X370140000Y-187810000D02*
X380260000Y-187810000D01*
X378975000Y-182641000D02*
X378928000Y-182687000D01*
X378770000Y-182435000D02*
X378735000Y-182471000D01*
X370140000Y-188370000D02*
X380260000Y-188370000D01*
X370140000Y-186310000D02*
X380260000Y-186310000D01*
X370140000Y-178449000D02*
X370140000Y-188370000D01*
X369900000Y-188610000D02*
X370400000Y-188610000D01*
X369900000Y-187870000D02*
X369900000Y-188610000D01*
X376473000Y-184733000D02*
X376426000Y-184779000D01*
X376666000Y-184949000D02*
X376631000Y-184984000D01*
X370140000Y-181409000D02*
X380260000Y-181409000D01*
X370140000Y-178449000D02*
X380260000Y-178449000D01*
X380260000Y-178449000D02*
X380260000Y-188370000D01*
X372700000Y-185390000D02*
G75*
G03*
X373383318Y-185244756I0J1680000D01*
G01*
X374235001Y-184394000D02*
G75*
G03*
X374235427Y-183026958I-1535001J684000D01*
G01*
X372016000Y-185245000D02*
G75*
G03*
X372728805Y-185390253I683999J1535001D01*
G01*
X371165000Y-183026000D02*
G75*
G03*
X371164573Y-184393042I1534993J-684001D01*
G01*
X373384000Y-182175000D02*
G75*
G03*
X372016958Y-182174573I-684001J-1534993D01*
G01*
X379380000Y-183710000D02*
G75*
G03*
X379380000Y-183710000I-1680000J0D01*
G01*
%TO.C,J1*%
X218227000Y-276549500D02*
X218274000Y-276503500D01*
X214440000Y-282833500D02*
X214440000Y-272912500D01*
X215725000Y-278641500D02*
X215772000Y-278595500D01*
X224800000Y-273412500D02*
X224800000Y-272672500D01*
X224560000Y-272912500D02*
X214440000Y-272912500D01*
X215930000Y-278847500D02*
X215965000Y-278811500D01*
X224560000Y-282833500D02*
X224560000Y-272912500D01*
X224560000Y-273472500D02*
X214440000Y-273472500D01*
X218034000Y-276333500D02*
X218069000Y-276298500D01*
X224800000Y-272672500D02*
X224300000Y-272672500D01*
X224560000Y-282833500D02*
X214440000Y-282833500D01*
X224560000Y-274972500D02*
X214440000Y-274972500D01*
X224560000Y-279873500D02*
X214440000Y-279873500D01*
X223535000Y-278256500D02*
G75*
G03*
X223535427Y-276889458I-1534993J684001D01*
G01*
X222684000Y-276037500D02*
G75*
G03*
X221971195Y-275892247I-683999J-1535001D01*
G01*
X220464999Y-276888500D02*
G75*
G03*
X220464573Y-278255542I1535001J-684000D01*
G01*
X222000000Y-275892500D02*
G75*
G03*
X221316682Y-276037744I0J-1680000D01*
G01*
X221316000Y-279107500D02*
G75*
G03*
X222683042Y-279107927I684001J1534993D01*
G01*
X218680000Y-277572500D02*
G75*
G03*
X218680000Y-277572500I-1680000J0D01*
G01*
%TO.C,D6*%
X327300000Y-224380000D02*
X327300000Y-226620000D01*
X326580000Y-226620000D02*
X330820000Y-226620000D01*
X331470000Y-225500000D02*
X330820000Y-225500000D01*
X326580000Y-224380000D02*
X326580000Y-226620000D01*
X327420000Y-224380000D02*
X327420000Y-226620000D01*
X330820000Y-224380000D02*
X326580000Y-224380000D01*
X325930000Y-225500000D02*
X326580000Y-225500000D01*
X330820000Y-226620000D02*
X330820000Y-224380000D01*
X327180000Y-224380000D02*
X327180000Y-226620000D01*
%TO.C,D2*%
X456230000Y-225405000D02*
X456880000Y-225405000D01*
X457600000Y-224285000D02*
X457600000Y-226525000D01*
X461120000Y-226525000D02*
X461120000Y-224285000D01*
X456880000Y-226525000D02*
X461120000Y-226525000D01*
X457480000Y-224285000D02*
X457480000Y-226525000D01*
X461770000Y-225405000D02*
X461120000Y-225405000D01*
X461120000Y-224285000D02*
X456880000Y-224285000D01*
X456880000Y-224285000D02*
X456880000Y-226525000D01*
X457720000Y-224285000D02*
X457720000Y-226525000D01*
%TO.C,K1*%
X223920000Y-218325000D02*
X226460000Y-218325000D01*
X228750000Y-218835000D02*
X226460000Y-218835000D01*
X226460000Y-219345000D02*
X223920000Y-219345000D01*
X223920000Y-218835000D02*
X221130000Y-218835000D01*
X230440000Y-223055000D02*
X219440000Y-223055000D01*
X226460000Y-218325000D02*
X226460000Y-218835000D01*
X228750000Y-220105000D02*
X228750000Y-218835000D01*
X223920000Y-218835000D02*
X223920000Y-218325000D01*
X221130000Y-218835000D02*
X221130000Y-220105000D01*
X230440000Y-201915000D02*
X219440000Y-201915000D01*
X222400000Y-206135000D02*
X223670000Y-206135000D01*
X227480000Y-203595000D02*
X224940000Y-203595000D01*
X223920000Y-219345000D02*
X223920000Y-218835000D01*
X224940000Y-208040000D02*
X222400000Y-204230000D01*
X230440000Y-223055000D02*
X230440000Y-201915000D01*
X219440000Y-223055000D02*
X219440000Y-201915000D01*
X224940000Y-211215000D02*
X224940000Y-208040000D01*
X227480000Y-211215000D02*
X224940000Y-211215000D01*
X226460000Y-218835000D02*
X226460000Y-219345000D01*
X225700000Y-219345000D02*
X224690000Y-218325000D01*
X225067000Y-208040000D02*
G75*
G03*
X225067000Y-208040000I-127000J0D01*
G01*
%TO.C,J44*%
X407140000Y-186310000D02*
X417260000Y-186310000D01*
X415975000Y-182641000D02*
X415928000Y-182687000D01*
X407140000Y-178449000D02*
X417260000Y-178449000D01*
X406900000Y-187870000D02*
X406900000Y-188610000D01*
X413473000Y-184733000D02*
X413426000Y-184779000D01*
X413666000Y-184949000D02*
X413631000Y-184984000D01*
X407140000Y-181409000D02*
X417260000Y-181409000D01*
X417260000Y-178449000D02*
X417260000Y-188370000D01*
X406900000Y-188610000D02*
X407400000Y-188610000D01*
X407140000Y-187810000D02*
X417260000Y-187810000D01*
X407140000Y-188370000D02*
X417260000Y-188370000D01*
X407140000Y-178449000D02*
X407140000Y-188370000D01*
X415770000Y-182435000D02*
X415735000Y-182471000D01*
X409016000Y-185245000D02*
G75*
G03*
X409728805Y-185390253I683999J1535001D01*
G01*
X409700000Y-185390000D02*
G75*
G03*
X410383318Y-185244756I0J1680000D01*
G01*
X410384000Y-182175000D02*
G75*
G03*
X409016958Y-182174573I-684001J-1534993D01*
G01*
X411235001Y-184394000D02*
G75*
G03*
X411235427Y-183026958I-1535001J684000D01*
G01*
X408165000Y-183026000D02*
G75*
G03*
X408164573Y-184393042I1534993J-684001D01*
G01*
X416380000Y-183710000D02*
G75*
G03*
X416380000Y-183710000I-1680000J0D01*
G01*
%TO.C,K3*%
X251450000Y-219345000D02*
X250440000Y-218325000D01*
X256190000Y-201915000D02*
X245190000Y-201915000D01*
X250690000Y-208040000D02*
X248150000Y-204230000D01*
X254500000Y-220105000D02*
X254500000Y-218835000D01*
X253230000Y-211215000D02*
X250690000Y-211215000D01*
X252210000Y-219345000D02*
X249670000Y-219345000D01*
X256190000Y-223055000D02*
X245190000Y-223055000D01*
X249670000Y-218835000D02*
X246880000Y-218835000D01*
X249670000Y-218325000D02*
X252210000Y-218325000D01*
X256190000Y-223055000D02*
X256190000Y-201915000D01*
X248150000Y-206135000D02*
X249420000Y-206135000D01*
X250690000Y-211215000D02*
X250690000Y-208040000D01*
X252210000Y-218325000D02*
X252210000Y-218835000D01*
X246880000Y-218835000D02*
X246880000Y-220105000D01*
X249670000Y-218835000D02*
X249670000Y-218325000D01*
X245190000Y-223055000D02*
X245190000Y-201915000D01*
X253230000Y-203595000D02*
X250690000Y-203595000D01*
X254500000Y-218835000D02*
X252210000Y-218835000D01*
X252210000Y-218835000D02*
X252210000Y-219345000D01*
X249670000Y-219345000D02*
X249670000Y-218835000D01*
X250817000Y-208040000D02*
G75*
G03*
X250817000Y-208040000I-127000J0D01*
G01*
%TO.C,J27*%
X298666000Y-185044000D02*
X298631000Y-185079000D01*
X300770000Y-182530000D02*
X300735000Y-182566000D01*
X292140000Y-186405000D02*
X302260000Y-186405000D01*
X292140000Y-188465000D02*
X302260000Y-188465000D01*
X292140000Y-181504000D02*
X302260000Y-181504000D01*
X291900000Y-187965000D02*
X291900000Y-188705000D01*
X302260000Y-178544000D02*
X302260000Y-188465000D01*
X291900000Y-188705000D02*
X292400000Y-188705000D01*
X300975000Y-182736000D02*
X300928000Y-182782000D01*
X292140000Y-178544000D02*
X302260000Y-178544000D01*
X298473000Y-184828000D02*
X298426000Y-184874000D01*
X292140000Y-187905000D02*
X302260000Y-187905000D01*
X292140000Y-178544000D02*
X292140000Y-188465000D01*
X295384000Y-182270000D02*
G75*
G03*
X294016958Y-182269573I-684001J-1534993D01*
G01*
X294700000Y-185485000D02*
G75*
G03*
X295383318Y-185339756I0J1680000D01*
G01*
X294016000Y-185340000D02*
G75*
G03*
X294728805Y-185485253I683999J1535001D01*
G01*
X296235001Y-184489000D02*
G75*
G03*
X296235427Y-183121958I-1535001J684000D01*
G01*
X293165000Y-183121000D02*
G75*
G03*
X293164573Y-184488042I1534993J-684001D01*
G01*
X301380000Y-183805000D02*
G75*
G03*
X301380000Y-183805000I-1680000J0D01*
G01*
%TO.C,J9*%
X238560000Y-274972500D02*
X228440000Y-274972500D01*
X232227000Y-276549500D02*
X232274000Y-276503500D01*
X229930000Y-278847500D02*
X229965000Y-278811500D01*
X238800000Y-272672500D02*
X238300000Y-272672500D01*
X238560000Y-282833500D02*
X228440000Y-282833500D01*
X232034000Y-276333500D02*
X232069000Y-276298500D01*
X228440000Y-282833500D02*
X228440000Y-272912500D01*
X238800000Y-273412500D02*
X238800000Y-272672500D01*
X238560000Y-282833500D02*
X238560000Y-272912500D01*
X238560000Y-279873500D02*
X228440000Y-279873500D01*
X238560000Y-273472500D02*
X228440000Y-273472500D01*
X229725000Y-278641500D02*
X229772000Y-278595500D01*
X238560000Y-272912500D02*
X228440000Y-272912500D01*
X236684000Y-276037500D02*
G75*
G03*
X235971195Y-275892247I-683999J-1535001D01*
G01*
X236000000Y-275892500D02*
G75*
G03*
X235316682Y-276037744I0J-1680000D01*
G01*
X234464999Y-276888500D02*
G75*
G03*
X234464573Y-278255542I1535001J-684000D01*
G01*
X235316000Y-279107500D02*
G75*
G03*
X236683042Y-279107927I684001J1534993D01*
G01*
X237535000Y-278256500D02*
G75*
G03*
X237535427Y-276889458I-1534993J684001D01*
G01*
X232680000Y-277572500D02*
G75*
G03*
X232680000Y-277572500I-1680000J0D01*
G01*
%TO.C,K4*%
X278210000Y-218835000D02*
X278210000Y-219345000D01*
X282190000Y-223055000D02*
X271190000Y-223055000D01*
X278210000Y-218325000D02*
X278210000Y-218835000D01*
X275670000Y-218835000D02*
X272880000Y-218835000D01*
X282190000Y-201915000D02*
X271190000Y-201915000D01*
X280500000Y-218835000D02*
X278210000Y-218835000D01*
X277450000Y-219345000D02*
X276440000Y-218325000D01*
X275670000Y-219345000D02*
X275670000Y-218835000D01*
X282190000Y-223055000D02*
X282190000Y-201915000D01*
X280500000Y-220105000D02*
X280500000Y-218835000D01*
X279230000Y-211215000D02*
X276690000Y-211215000D01*
X276690000Y-208040000D02*
X274150000Y-204230000D01*
X272880000Y-218835000D02*
X272880000Y-220105000D01*
X279230000Y-203595000D02*
X276690000Y-203595000D01*
X275670000Y-218325000D02*
X278210000Y-218325000D01*
X276690000Y-211215000D02*
X276690000Y-208040000D01*
X271190000Y-223055000D02*
X271190000Y-201915000D01*
X275670000Y-218835000D02*
X275670000Y-218325000D01*
X274150000Y-206135000D02*
X275420000Y-206135000D01*
X278210000Y-219345000D02*
X275670000Y-219345000D01*
X276817000Y-208040000D02*
G75*
G03*
X276817000Y-208040000I-127000J0D01*
G01*
%TO.C,J43*%
X402666000Y-184949000D02*
X402631000Y-184984000D01*
X396140000Y-178449000D02*
X406260000Y-178449000D01*
X396140000Y-188370000D02*
X406260000Y-188370000D01*
X396140000Y-186310000D02*
X406260000Y-186310000D01*
X406260000Y-178449000D02*
X406260000Y-188370000D01*
X404975000Y-182641000D02*
X404928000Y-182687000D01*
X404770000Y-182435000D02*
X404735000Y-182471000D01*
X396140000Y-178449000D02*
X396140000Y-188370000D01*
X396140000Y-181409000D02*
X406260000Y-181409000D01*
X402473000Y-184733000D02*
X402426000Y-184779000D01*
X395900000Y-187870000D02*
X395900000Y-188610000D01*
X396140000Y-187810000D02*
X406260000Y-187810000D01*
X395900000Y-188610000D02*
X396400000Y-188610000D01*
X397165000Y-183026000D02*
G75*
G03*
X397164573Y-184393042I1534993J-684001D01*
G01*
X398016000Y-185245000D02*
G75*
G03*
X398728805Y-185390253I683999J1535001D01*
G01*
X399384000Y-182175000D02*
G75*
G03*
X398016958Y-182174573I-684001J-1534993D01*
G01*
X400235001Y-184394000D02*
G75*
G03*
X400235427Y-183026958I-1535001J684000D01*
G01*
X398700000Y-185390000D02*
G75*
G03*
X399383318Y-185244756I0J1680000D01*
G01*
X405380000Y-183710000D02*
G75*
G03*
X405380000Y-183710000I-1680000J0D01*
G01*
%TO.C,A2*%
X261770000Y-245425000D02*
X259100000Y-245425000D01*
X274470000Y-242885000D02*
X274470000Y-280985000D01*
X277140000Y-283655000D02*
X277140000Y-240215000D01*
X259100000Y-245425000D02*
X259100000Y-283655000D01*
X261770000Y-245425000D02*
X261770000Y-280985000D01*
X261770000Y-245425000D02*
X261770000Y-242885000D01*
X259100000Y-240215000D02*
X259100000Y-242885000D01*
X274470000Y-280985000D02*
X277140000Y-280985000D01*
X259100000Y-283655000D02*
X277140000Y-283655000D01*
X261770000Y-280985000D02*
X259100000Y-280985000D01*
X274470000Y-242885000D02*
X277140000Y-242885000D01*
X277140000Y-240215000D02*
X259100000Y-240215000D01*
X261770000Y-242885000D02*
X259100000Y-242885000D01*
%TO.C,D7*%
X357320000Y-224285000D02*
X353080000Y-224285000D01*
X352430000Y-225405000D02*
X353080000Y-225405000D01*
X353080000Y-224285000D02*
X353080000Y-226525000D01*
X357320000Y-226525000D02*
X357320000Y-224285000D01*
X353920000Y-224285000D02*
X353920000Y-226525000D01*
X353080000Y-226525000D02*
X357320000Y-226525000D01*
X357970000Y-225405000D02*
X357320000Y-225405000D01*
X353680000Y-224285000D02*
X353680000Y-226525000D01*
X353800000Y-224285000D02*
X353800000Y-226525000D01*
%TO.C,K5*%
X306500000Y-218835000D02*
X304210000Y-218835000D01*
X304210000Y-218835000D02*
X304210000Y-219345000D01*
X297190000Y-223055000D02*
X297190000Y-201915000D01*
X302690000Y-208040000D02*
X300150000Y-204230000D01*
X304210000Y-218325000D02*
X304210000Y-218835000D01*
X301670000Y-218835000D02*
X301670000Y-218325000D01*
X308190000Y-223055000D02*
X308190000Y-201915000D01*
X308190000Y-223055000D02*
X297190000Y-223055000D01*
X303450000Y-219345000D02*
X302440000Y-218325000D01*
X308190000Y-201915000D02*
X297190000Y-201915000D01*
X304210000Y-219345000D02*
X301670000Y-219345000D01*
X301670000Y-219345000D02*
X301670000Y-218835000D01*
X306500000Y-220105000D02*
X306500000Y-218835000D01*
X302690000Y-211215000D02*
X302690000Y-208040000D01*
X305230000Y-211215000D02*
X302690000Y-211215000D01*
X305230000Y-203595000D02*
X302690000Y-203595000D01*
X300150000Y-206135000D02*
X301420000Y-206135000D01*
X301670000Y-218325000D02*
X304210000Y-218325000D01*
X298880000Y-218835000D02*
X298880000Y-220105000D01*
X301670000Y-218835000D02*
X298880000Y-218835000D01*
X302817000Y-208040000D02*
G75*
G03*
X302817000Y-208040000I-127000J0D01*
G01*
%TO.C,J15*%
X240140000Y-181504000D02*
X250260000Y-181504000D01*
X246473000Y-184828000D02*
X246426000Y-184874000D01*
X240140000Y-178544000D02*
X240140000Y-188465000D01*
X239900000Y-188705000D02*
X240400000Y-188705000D01*
X250260000Y-178544000D02*
X250260000Y-188465000D01*
X240140000Y-178544000D02*
X250260000Y-178544000D01*
X239900000Y-187965000D02*
X239900000Y-188705000D01*
X248975000Y-182736000D02*
X248928000Y-182782000D01*
X248770000Y-182530000D02*
X248735000Y-182566000D01*
X240140000Y-187905000D02*
X250260000Y-187905000D01*
X246666000Y-185044000D02*
X246631000Y-185079000D01*
X240140000Y-188465000D02*
X250260000Y-188465000D01*
X240140000Y-186405000D02*
X250260000Y-186405000D01*
X244235001Y-184489000D02*
G75*
G03*
X244235427Y-183121958I-1535001J684000D01*
G01*
X242700000Y-185485000D02*
G75*
G03*
X243383318Y-185339756I0J1680000D01*
G01*
X241165000Y-183121000D02*
G75*
G03*
X241164573Y-184488042I1534993J-684001D01*
G01*
X243384000Y-182270000D02*
G75*
G03*
X242016958Y-182269573I-684001J-1534993D01*
G01*
X242016000Y-185340000D02*
G75*
G03*
X242728805Y-185485253I683999J1535001D01*
G01*
X249380000Y-183805000D02*
G75*
G03*
X249380000Y-183805000I-1680000J0D01*
G01*
%TO.C,J5*%
X213900000Y-187965000D02*
X213900000Y-188705000D01*
X213900000Y-188705000D02*
X214400000Y-188705000D01*
X220473000Y-184828000D02*
X220426000Y-184874000D01*
X222975000Y-182736000D02*
X222928000Y-182782000D01*
X214140000Y-187905000D02*
X224260000Y-187905000D01*
X220666000Y-185044000D02*
X220631000Y-185079000D01*
X214140000Y-181504000D02*
X224260000Y-181504000D01*
X214140000Y-186405000D02*
X224260000Y-186405000D01*
X224260000Y-178544000D02*
X224260000Y-188465000D01*
X222770000Y-182530000D02*
X222735000Y-182566000D01*
X214140000Y-178544000D02*
X214140000Y-188465000D01*
X214140000Y-188465000D02*
X224260000Y-188465000D01*
X214140000Y-178544000D02*
X224260000Y-178544000D01*
X215165000Y-183121000D02*
G75*
G03*
X215164573Y-184488042I1534993J-684001D01*
G01*
X216700000Y-185485000D02*
G75*
G03*
X217383318Y-185339756I0J1680000D01*
G01*
X217384000Y-182270000D02*
G75*
G03*
X216016958Y-182269573I-684001J-1534993D01*
G01*
X216016000Y-185340000D02*
G75*
G03*
X216728805Y-185485253I683999J1535001D01*
G01*
X218235001Y-184489000D02*
G75*
G03*
X218235427Y-183121958I-1535001J684000D01*
G01*
X223380000Y-183805000D02*
G75*
G03*
X223380000Y-183805000I-1680000J0D01*
G01*
%TO.C,K8*%
X378650000Y-206040000D02*
X379920000Y-206040000D01*
X385000000Y-220010000D02*
X385000000Y-218740000D01*
X380170000Y-218230000D02*
X382710000Y-218230000D01*
X380170000Y-218740000D02*
X380170000Y-218230000D01*
X385000000Y-218740000D02*
X382710000Y-218740000D01*
X381190000Y-211120000D02*
X381190000Y-207945000D01*
X381950000Y-219250000D02*
X380940000Y-218230000D01*
X381190000Y-207945000D02*
X378650000Y-204135000D01*
X383730000Y-211120000D02*
X381190000Y-211120000D01*
X377380000Y-218740000D02*
X377380000Y-220010000D01*
X375690000Y-222960000D02*
X375690000Y-201820000D01*
X380170000Y-218740000D02*
X377380000Y-218740000D01*
X386690000Y-201820000D02*
X375690000Y-201820000D01*
X386690000Y-222960000D02*
X386690000Y-201820000D01*
X386690000Y-222960000D02*
X375690000Y-222960000D01*
X380170000Y-219250000D02*
X380170000Y-218740000D01*
X382710000Y-218230000D02*
X382710000Y-218740000D01*
X382710000Y-218740000D02*
X382710000Y-219250000D01*
X382710000Y-219250000D02*
X380170000Y-219250000D01*
X383730000Y-203500000D02*
X381190000Y-203500000D01*
X381317000Y-207945000D02*
G75*
G03*
X381317000Y-207945000I-127000J0D01*
G01*
%TO.C,J12*%
X471400000Y-188555000D02*
X471900000Y-188555000D01*
X471640000Y-178394000D02*
X471640000Y-188315000D01*
X471640000Y-178394000D02*
X481760000Y-178394000D01*
X481760000Y-178394000D02*
X481760000Y-188315000D01*
X471640000Y-188315000D02*
X481760000Y-188315000D01*
X471640000Y-181354000D02*
X481760000Y-181354000D01*
X480270000Y-182380000D02*
X480235000Y-182416000D01*
X471400000Y-187815000D02*
X471400000Y-188555000D01*
X480475000Y-182586000D02*
X480428000Y-182632000D01*
X478166000Y-184894000D02*
X478131000Y-184929000D01*
X471640000Y-186255000D02*
X481760000Y-186255000D01*
X471640000Y-187755000D02*
X481760000Y-187755000D01*
X477973000Y-184678000D02*
X477926000Y-184724000D01*
X474884000Y-182120000D02*
G75*
G03*
X473516958Y-182119573I-684001J-1534993D01*
G01*
X473516000Y-185190000D02*
G75*
G03*
X474228805Y-185335253I683999J1535001D01*
G01*
X475735001Y-184339000D02*
G75*
G03*
X475735427Y-182971958I-1535001J684000D01*
G01*
X474200000Y-185335000D02*
G75*
G03*
X474883318Y-185189756I0J1680000D01*
G01*
X472665000Y-182971000D02*
G75*
G03*
X472664573Y-184338042I1534993J-684001D01*
G01*
X480880000Y-183655000D02*
G75*
G03*
X480880000Y-183655000I-1680000J0D01*
G01*
D12*
%TO.C,F3*%
X240750000Y-193550000D02*
X259650000Y-193550000D01*
X259650000Y-198950000D02*
X240750000Y-198950000D01*
X240750000Y-198950000D02*
X240750000Y-193550000D01*
X259650000Y-193550000D02*
X259650000Y-198950000D01*
D13*
%TO.C,J21*%
X274975000Y-182736000D02*
X274928000Y-182782000D01*
X274770000Y-182530000D02*
X274735000Y-182566000D01*
X276260000Y-178544000D02*
X276260000Y-188465000D01*
X266140000Y-187905000D02*
X276260000Y-187905000D01*
X272666000Y-185044000D02*
X272631000Y-185079000D01*
X265900000Y-188705000D02*
X266400000Y-188705000D01*
X266140000Y-181504000D02*
X276260000Y-181504000D01*
X266140000Y-186405000D02*
X276260000Y-186405000D01*
X265900000Y-187965000D02*
X265900000Y-188705000D01*
X266140000Y-188465000D02*
X276260000Y-188465000D01*
X272473000Y-184828000D02*
X272426000Y-184874000D01*
X266140000Y-178544000D02*
X276260000Y-178544000D01*
X266140000Y-178544000D02*
X266140000Y-188465000D01*
X268016000Y-185340000D02*
G75*
G03*
X268728805Y-185485253I683999J1535001D01*
G01*
X270235001Y-184489000D02*
G75*
G03*
X270235427Y-183121958I-1535001J684000D01*
G01*
X269384000Y-182270000D02*
G75*
G03*
X268016958Y-182269573I-684001J-1534993D01*
G01*
X268700000Y-185485000D02*
G75*
G03*
X269383318Y-185339756I0J1680000D01*
G01*
X267165000Y-183121000D02*
G75*
G03*
X267164573Y-184488042I1534993J-684001D01*
G01*
X275380000Y-183805000D02*
G75*
G03*
X275380000Y-183805000I-1680000J0D01*
G01*
%TO.C,J40*%
X380900000Y-187870000D02*
X380900000Y-188610000D01*
X381140000Y-178449000D02*
X391260000Y-178449000D01*
X391260000Y-178449000D02*
X391260000Y-188370000D01*
X389770000Y-182435000D02*
X389735000Y-182471000D01*
X381140000Y-188370000D02*
X391260000Y-188370000D01*
X381140000Y-187810000D02*
X391260000Y-187810000D01*
X381140000Y-178449000D02*
X381140000Y-188370000D01*
X387666000Y-184949000D02*
X387631000Y-184984000D01*
X380900000Y-188610000D02*
X381400000Y-188610000D01*
X389975000Y-182641000D02*
X389928000Y-182687000D01*
X381140000Y-181409000D02*
X391260000Y-181409000D01*
X387473000Y-184733000D02*
X387426000Y-184779000D01*
X381140000Y-186310000D02*
X391260000Y-186310000D01*
X384384000Y-182175000D02*
G75*
G03*
X383016958Y-182174573I-684001J-1534993D01*
G01*
X385235001Y-184394000D02*
G75*
G03*
X385235427Y-183026958I-1535001J684000D01*
G01*
X383700000Y-185390000D02*
G75*
G03*
X384383318Y-185244756I0J1680000D01*
G01*
X383016000Y-185245000D02*
G75*
G03*
X383728805Y-185390253I683999J1535001D01*
G01*
X382165000Y-183026000D02*
G75*
G03*
X382164573Y-184393042I1534993J-684001D01*
G01*
X390380000Y-183710000D02*
G75*
G03*
X390380000Y-183710000I-1680000J0D01*
G01*
%TO.C,D1*%
X227720000Y-225500000D02*
X227070000Y-225500000D01*
X227070000Y-226620000D02*
X227070000Y-224380000D01*
X223670000Y-224380000D02*
X223670000Y-226620000D01*
X223550000Y-224380000D02*
X223550000Y-226620000D01*
X222180000Y-225500000D02*
X222830000Y-225500000D01*
X223430000Y-224380000D02*
X223430000Y-226620000D01*
X227070000Y-224380000D02*
X222830000Y-224380000D01*
X222830000Y-224380000D02*
X222830000Y-226620000D01*
X222830000Y-226620000D02*
X227070000Y-226620000D01*
%TO.C,J11*%
X501760000Y-178399000D02*
X501760000Y-188320000D01*
X491400000Y-187820000D02*
X491400000Y-188560000D01*
X491640000Y-181359000D02*
X501760000Y-181359000D01*
X498166000Y-184899000D02*
X498131000Y-184934000D01*
X491640000Y-188320000D02*
X501760000Y-188320000D01*
X497973000Y-184683000D02*
X497926000Y-184729000D01*
X491400000Y-188560000D02*
X491900000Y-188560000D01*
X500475000Y-182591000D02*
X500428000Y-182637000D01*
X491640000Y-187760000D02*
X501760000Y-187760000D01*
X491640000Y-178399000D02*
X491640000Y-188320000D01*
X491640000Y-186260000D02*
X501760000Y-186260000D01*
X491640000Y-178399000D02*
X501760000Y-178399000D01*
X500270000Y-182385000D02*
X500235000Y-182421000D01*
X495735001Y-184344000D02*
G75*
G03*
X495735427Y-182976958I-1535001J684000D01*
G01*
X492665000Y-182976000D02*
G75*
G03*
X492664573Y-184343042I1534993J-684001D01*
G01*
X493516000Y-185195000D02*
G75*
G03*
X494228805Y-185340253I683999J1535001D01*
G01*
X494200000Y-185340000D02*
G75*
G03*
X494883318Y-185194756I0J1680000D01*
G01*
X494884000Y-182125000D02*
G75*
G03*
X493516958Y-182124573I-684001J-1534993D01*
G01*
X500880000Y-183660000D02*
G75*
G03*
X500880000Y-183660000I-1680000J0D01*
G01*
D12*
%TO.C,F5*%
X292700000Y-193500000D02*
X311600000Y-193500000D01*
X292700000Y-198900000D02*
X292700000Y-193500000D01*
X311600000Y-193500000D02*
X311600000Y-198900000D01*
X311600000Y-198900000D02*
X292700000Y-198900000D01*
D13*
%TO.C,J2*%
X435875000Y-273567500D02*
X435875000Y-272827500D01*
X435635000Y-273067500D02*
X425515000Y-273067500D01*
X425515000Y-282988500D02*
X425515000Y-273067500D01*
X435635000Y-282988500D02*
X435635000Y-273067500D01*
X435635000Y-280028500D02*
X425515000Y-280028500D01*
X429109000Y-276488500D02*
X429144000Y-276453500D01*
X435875000Y-272827500D02*
X435375000Y-272827500D01*
X426800000Y-278796500D02*
X426847000Y-278750500D01*
X435635000Y-282988500D02*
X425515000Y-282988500D01*
X427005000Y-279002500D02*
X427040000Y-278966500D01*
X435635000Y-273627500D02*
X425515000Y-273627500D01*
X435635000Y-275127500D02*
X425515000Y-275127500D01*
X429302000Y-276704500D02*
X429349000Y-276658500D01*
X431539999Y-277043500D02*
G75*
G03*
X431539573Y-278410542I1535001J-684000D01*
G01*
X432391000Y-279262500D02*
G75*
G03*
X433758042Y-279262927I684001J1534993D01*
G01*
X433075000Y-276047500D02*
G75*
G03*
X432391682Y-276192744I0J-1680000D01*
G01*
X433759000Y-276192500D02*
G75*
G03*
X433046195Y-276047247I-683999J-1535001D01*
G01*
X434610000Y-278411500D02*
G75*
G03*
X434610427Y-277044458I-1534993J684001D01*
G01*
X429755000Y-277727500D02*
G75*
G03*
X429755000Y-277727500I-1680000J0D01*
G01*
%TO.C,J3*%
X444302000Y-276704500D02*
X444349000Y-276658500D01*
X450635000Y-275127500D02*
X440515000Y-275127500D01*
X442005000Y-279002500D02*
X442040000Y-278966500D01*
X450875000Y-272827500D02*
X450375000Y-272827500D01*
X441800000Y-278796500D02*
X441847000Y-278750500D01*
X450635000Y-280028500D02*
X440515000Y-280028500D01*
X450635000Y-282988500D02*
X440515000Y-282988500D01*
X450635000Y-273067500D02*
X440515000Y-273067500D01*
X450635000Y-273627500D02*
X440515000Y-273627500D01*
X450875000Y-273567500D02*
X450875000Y-272827500D01*
X444109000Y-276488500D02*
X444144000Y-276453500D01*
X450635000Y-282988500D02*
X450635000Y-273067500D01*
X440515000Y-282988500D02*
X440515000Y-273067500D01*
X448075000Y-276047500D02*
G75*
G03*
X447391682Y-276192744I0J-1680000D01*
G01*
X449610000Y-278411500D02*
G75*
G03*
X449610427Y-277044458I-1534993J684001D01*
G01*
X447391000Y-279262500D02*
G75*
G03*
X448758042Y-279262927I684001J1534993D01*
G01*
X448759000Y-276192500D02*
G75*
G03*
X448046195Y-276047247I-683999J-1535001D01*
G01*
X446539999Y-277043500D02*
G75*
G03*
X446539573Y-278410542I1535001J-684000D01*
G01*
X444755000Y-277727500D02*
G75*
G03*
X444755000Y-277727500I-1680000J0D01*
G01*
%TO.C,J16*%
X250900000Y-188705000D02*
X251400000Y-188705000D01*
X257666000Y-185044000D02*
X257631000Y-185079000D01*
X257473000Y-184828000D02*
X257426000Y-184874000D01*
X259770000Y-182530000D02*
X259735000Y-182566000D01*
X251140000Y-186405000D02*
X261260000Y-186405000D01*
X251140000Y-187905000D02*
X261260000Y-187905000D01*
X261260000Y-178544000D02*
X261260000Y-188465000D01*
X250900000Y-187965000D02*
X250900000Y-188705000D01*
X251140000Y-178544000D02*
X251140000Y-188465000D01*
X251140000Y-188465000D02*
X261260000Y-188465000D01*
X251140000Y-178544000D02*
X261260000Y-178544000D01*
X259975000Y-182736000D02*
X259928000Y-182782000D01*
X251140000Y-181504000D02*
X261260000Y-181504000D01*
X255235001Y-184489000D02*
G75*
G03*
X255235427Y-183121958I-1535001J684000D01*
G01*
X252165000Y-183121000D02*
G75*
G03*
X252164573Y-184488042I1534993J-684001D01*
G01*
X254384000Y-182270000D02*
G75*
G03*
X253016958Y-182269573I-684001J-1534993D01*
G01*
X253016000Y-185340000D02*
G75*
G03*
X253728805Y-185485253I683999J1535001D01*
G01*
X253700000Y-185485000D02*
G75*
G03*
X254383318Y-185339756I0J1680000D01*
G01*
X260380000Y-183805000D02*
G75*
G03*
X260380000Y-183805000I-1680000J0D01*
G01*
D12*
%TO.C,F4*%
X285900000Y-193500000D02*
X285900000Y-198900000D01*
X267000000Y-198900000D02*
X267000000Y-193500000D01*
X285900000Y-198900000D02*
X267000000Y-198900000D01*
X267000000Y-193500000D02*
X285900000Y-193500000D01*
%TO.C,F8*%
X390100000Y-198805000D02*
X371200000Y-198805000D01*
X371200000Y-198805000D02*
X371200000Y-193405000D01*
X390100000Y-193405000D02*
X390100000Y-198805000D01*
X371200000Y-193405000D02*
X390100000Y-193405000D01*
D13*
%TO.C,D5*%
X299930000Y-225500000D02*
X300580000Y-225500000D01*
X304820000Y-226620000D02*
X304820000Y-224380000D01*
X301180000Y-224380000D02*
X301180000Y-226620000D01*
X300580000Y-224380000D02*
X300580000Y-226620000D01*
X300580000Y-226620000D02*
X304820000Y-226620000D01*
X301300000Y-224380000D02*
X301300000Y-226620000D01*
X305470000Y-225500000D02*
X304820000Y-225500000D01*
X304820000Y-224380000D02*
X300580000Y-224380000D01*
X301420000Y-224380000D02*
X301420000Y-226620000D01*
%TO.C,J36*%
X344140000Y-187810000D02*
X354260000Y-187810000D01*
X350473000Y-184733000D02*
X350426000Y-184779000D01*
X343900000Y-187870000D02*
X343900000Y-188610000D01*
X344140000Y-181409000D02*
X354260000Y-181409000D01*
X344140000Y-178449000D02*
X344140000Y-188370000D01*
X354260000Y-178449000D02*
X354260000Y-188370000D01*
X343900000Y-188610000D02*
X344400000Y-188610000D01*
X350666000Y-184949000D02*
X350631000Y-184984000D01*
X344140000Y-178449000D02*
X354260000Y-178449000D01*
X344140000Y-186310000D02*
X354260000Y-186310000D01*
X344140000Y-188370000D02*
X354260000Y-188370000D01*
X352975000Y-182641000D02*
X352928000Y-182687000D01*
X352770000Y-182435000D02*
X352735000Y-182471000D01*
X348235001Y-184394000D02*
G75*
G03*
X348235427Y-183026958I-1535001J684000D01*
G01*
X346700000Y-185390000D02*
G75*
G03*
X347383318Y-185244756I0J1680000D01*
G01*
X347384000Y-182175000D02*
G75*
G03*
X346016958Y-182174573I-684001J-1534993D01*
G01*
X346016000Y-185245000D02*
G75*
G03*
X346728805Y-185390253I683999J1535001D01*
G01*
X345165000Y-183026000D02*
G75*
G03*
X345164573Y-184393042I1534993J-684001D01*
G01*
X353380000Y-183710000D02*
G75*
G03*
X353380000Y-183710000I-1680000J0D01*
G01*
%TO.C,A1*%
X457020000Y-240165000D02*
X457020000Y-242835000D01*
X459690000Y-242835000D02*
X457020000Y-242835000D01*
X457020000Y-245375000D02*
X457020000Y-283605000D01*
X459690000Y-245375000D02*
X459690000Y-242835000D01*
X472390000Y-280935000D02*
X475060000Y-280935000D01*
X475060000Y-283605000D02*
X475060000Y-240165000D01*
X457020000Y-283605000D02*
X475060000Y-283605000D01*
X459690000Y-280935000D02*
X457020000Y-280935000D01*
X459690000Y-245375000D02*
X459690000Y-280935000D01*
X459690000Y-245375000D02*
X457020000Y-245375000D01*
X475060000Y-240165000D02*
X457020000Y-240165000D01*
X472390000Y-242835000D02*
X475060000Y-242835000D01*
X472390000Y-242835000D02*
X472390000Y-280935000D01*
%TO.C,J32*%
X326975000Y-182736000D02*
X326928000Y-182782000D01*
X324473000Y-184828000D02*
X324426000Y-184874000D01*
X328260000Y-178544000D02*
X328260000Y-188465000D01*
X318140000Y-181504000D02*
X328260000Y-181504000D01*
X318140000Y-186405000D02*
X328260000Y-186405000D01*
X318140000Y-178544000D02*
X328260000Y-178544000D01*
X317900000Y-188705000D02*
X318400000Y-188705000D01*
X326770000Y-182530000D02*
X326735000Y-182566000D01*
X318140000Y-188465000D02*
X328260000Y-188465000D01*
X318140000Y-187905000D02*
X328260000Y-187905000D01*
X317900000Y-187965000D02*
X317900000Y-188705000D01*
X324666000Y-185044000D02*
X324631000Y-185079000D01*
X318140000Y-178544000D02*
X318140000Y-188465000D01*
X320700000Y-185485000D02*
G75*
G03*
X321383318Y-185339756I0J1680000D01*
G01*
X321384000Y-182270000D02*
G75*
G03*
X320016958Y-182269573I-684001J-1534993D01*
G01*
X322235001Y-184489000D02*
G75*
G03*
X322235427Y-183121958I-1535001J684000D01*
G01*
X319165000Y-183121000D02*
G75*
G03*
X319164573Y-184488042I1534993J-684001D01*
G01*
X320016000Y-185340000D02*
G75*
G03*
X320728805Y-185485253I683999J1535001D01*
G01*
X327380000Y-183805000D02*
G75*
G03*
X327380000Y-183805000I-1680000J0D01*
G01*
D12*
%TO.C,F9*%
X416180000Y-198805000D02*
X397280000Y-198805000D01*
X397280000Y-193405000D02*
X416180000Y-193405000D01*
X416180000Y-193405000D02*
X416180000Y-198805000D01*
X397280000Y-198805000D02*
X397280000Y-193405000D01*
D13*
%TO.C,K10*%
X434410000Y-218740000D02*
X434410000Y-219250000D01*
X435430000Y-211120000D02*
X432890000Y-211120000D01*
X432890000Y-211120000D02*
X432890000Y-207945000D01*
X434410000Y-219250000D02*
X431870000Y-219250000D01*
X438390000Y-222960000D02*
X438390000Y-201820000D01*
X436700000Y-218740000D02*
X434410000Y-218740000D01*
X427390000Y-222960000D02*
X427390000Y-201820000D01*
X436700000Y-220010000D02*
X436700000Y-218740000D01*
X430350000Y-206040000D02*
X431620000Y-206040000D01*
X431870000Y-219250000D02*
X431870000Y-218740000D01*
X438390000Y-201820000D02*
X427390000Y-201820000D01*
X429080000Y-218740000D02*
X429080000Y-220010000D01*
X435430000Y-203500000D02*
X432890000Y-203500000D01*
X431870000Y-218740000D02*
X431870000Y-218230000D01*
X434410000Y-218230000D02*
X434410000Y-218740000D01*
X431870000Y-218740000D02*
X429080000Y-218740000D01*
X431870000Y-218230000D02*
X434410000Y-218230000D01*
X433650000Y-219250000D02*
X432640000Y-218230000D01*
X438390000Y-222960000D02*
X427390000Y-222960000D01*
X432890000Y-207945000D02*
X430350000Y-204135000D01*
X433017000Y-207945000D02*
G75*
G03*
X433017000Y-207945000I-127000J0D01*
G01*
%TO.C,K7*%
X354170000Y-218740000D02*
X351380000Y-218740000D01*
X352650000Y-206040000D02*
X353920000Y-206040000D01*
X354170000Y-218230000D02*
X356710000Y-218230000D01*
X354170000Y-218740000D02*
X354170000Y-218230000D01*
X356710000Y-218740000D02*
X356710000Y-219250000D01*
X359000000Y-218740000D02*
X356710000Y-218740000D01*
X357730000Y-211120000D02*
X355190000Y-211120000D01*
X355950000Y-219250000D02*
X354940000Y-218230000D01*
X355190000Y-207945000D02*
X352650000Y-204135000D01*
X357730000Y-203500000D02*
X355190000Y-203500000D01*
X355190000Y-211120000D02*
X355190000Y-207945000D01*
X349690000Y-222960000D02*
X349690000Y-201820000D01*
X354170000Y-219250000D02*
X354170000Y-218740000D01*
X360690000Y-222960000D02*
X349690000Y-222960000D01*
X356710000Y-218230000D02*
X356710000Y-218740000D01*
X351380000Y-218740000D02*
X351380000Y-220010000D01*
X360690000Y-222960000D02*
X360690000Y-201820000D01*
X359000000Y-220010000D02*
X359000000Y-218740000D01*
X356710000Y-219250000D02*
X354170000Y-219250000D01*
X360690000Y-201820000D02*
X349690000Y-201820000D01*
X355317000Y-207945000D02*
G75*
G03*
X355317000Y-207945000I-127000J0D01*
G01*
%TO.C,J23*%
X295028315Y-273106676D02*
X284908315Y-273106676D01*
X284908315Y-283027676D02*
X284908315Y-273106676D01*
X295028315Y-273666676D02*
X284908315Y-273666676D01*
X288695315Y-276743676D02*
X288742315Y-276697676D01*
X295268315Y-273606676D02*
X295268315Y-272866676D01*
X295028315Y-275166676D02*
X284908315Y-275166676D01*
X286398315Y-279041676D02*
X286433315Y-279005676D01*
X295028315Y-283027676D02*
X295028315Y-273106676D01*
X295028315Y-283027676D02*
X284908315Y-283027676D01*
X295028315Y-280067676D02*
X284908315Y-280067676D01*
X286193315Y-278835676D02*
X286240315Y-278789676D01*
X295268315Y-272866676D02*
X294768315Y-272866676D01*
X288502315Y-276527676D02*
X288537315Y-276492676D01*
X293152315Y-276231676D02*
G75*
G03*
X292439510Y-276086423I-683999J-1535001D01*
G01*
X291784315Y-279301676D02*
G75*
G03*
X293151357Y-279302103I684001J1534993D01*
G01*
X290933314Y-277082676D02*
G75*
G03*
X290932888Y-278449718I1535001J-684000D01*
G01*
X292468315Y-276086676D02*
G75*
G03*
X291784997Y-276231920I0J-1680000D01*
G01*
X294003315Y-278450676D02*
G75*
G03*
X294003742Y-277083634I-1534993J684001D01*
G01*
X289148315Y-277766676D02*
G75*
G03*
X289148315Y-277766676I-1680000J0D01*
G01*
D12*
%TO.C,F1*%
X233600000Y-198900000D02*
X214700000Y-198900000D01*
X233600000Y-193500000D02*
X233600000Y-198900000D01*
X214700000Y-193500000D02*
X233600000Y-193500000D01*
X214700000Y-198900000D02*
X214700000Y-193500000D01*
%TO.C,F10*%
X442100000Y-193405000D02*
X442100000Y-198805000D01*
X423200000Y-198805000D02*
X423200000Y-193405000D01*
X423200000Y-193405000D02*
X442100000Y-193405000D01*
X442100000Y-198805000D02*
X423200000Y-198805000D01*
%TO.C,F2*%
X468050000Y-198805000D02*
X449150000Y-198805000D01*
X468050000Y-193405000D02*
X468050000Y-198805000D01*
X449150000Y-193405000D02*
X468050000Y-193405000D01*
X449150000Y-198805000D02*
X449150000Y-193405000D01*
D13*
%TO.C,K6*%
X323190000Y-223055000D02*
X323190000Y-201915000D01*
X332500000Y-218835000D02*
X330210000Y-218835000D01*
X334190000Y-223055000D02*
X323190000Y-223055000D01*
X331230000Y-211215000D02*
X328690000Y-211215000D01*
X327670000Y-218835000D02*
X324880000Y-218835000D01*
X329450000Y-219345000D02*
X328440000Y-218325000D01*
X330210000Y-218325000D02*
X330210000Y-218835000D01*
X330210000Y-218835000D02*
X330210000Y-219345000D01*
X330210000Y-219345000D02*
X327670000Y-219345000D01*
X328690000Y-211215000D02*
X328690000Y-208040000D01*
X331230000Y-203595000D02*
X328690000Y-203595000D01*
X327670000Y-219345000D02*
X327670000Y-218835000D01*
X334190000Y-223055000D02*
X334190000Y-201915000D01*
X332500000Y-220105000D02*
X332500000Y-218835000D01*
X326150000Y-206135000D02*
X327420000Y-206135000D01*
X334190000Y-201915000D02*
X323190000Y-201915000D01*
X328690000Y-208040000D02*
X326150000Y-204230000D01*
X324880000Y-218835000D02*
X324880000Y-220105000D01*
X327670000Y-218835000D02*
X327670000Y-218325000D01*
X327670000Y-218325000D02*
X330210000Y-218325000D01*
X328817000Y-208040000D02*
G75*
G03*
X328817000Y-208040000I-127000J0D01*
G01*
%TO.C,J30*%
X310268315Y-272866676D02*
X309768315Y-272866676D01*
X303502315Y-276527676D02*
X303537315Y-276492676D01*
X303695315Y-276743676D02*
X303742315Y-276697676D01*
X310268315Y-273606676D02*
X310268315Y-272866676D01*
X299908315Y-283027676D02*
X299908315Y-273106676D01*
X310028315Y-283027676D02*
X310028315Y-273106676D01*
X310028315Y-273666676D02*
X299908315Y-273666676D01*
X310028315Y-275166676D02*
X299908315Y-275166676D01*
X310028315Y-280067676D02*
X299908315Y-280067676D01*
X301398315Y-279041676D02*
X301433315Y-279005676D01*
X310028315Y-283027676D02*
X299908315Y-283027676D01*
X301193315Y-278835676D02*
X301240315Y-278789676D01*
X310028315Y-273106676D02*
X299908315Y-273106676D01*
X309003315Y-278450676D02*
G75*
G03*
X309003742Y-277083634I-1534993J684001D01*
G01*
X305933314Y-277082676D02*
G75*
G03*
X305932888Y-278449718I1535001J-684000D01*
G01*
X307468315Y-276086676D02*
G75*
G03*
X306784997Y-276231920I0J-1680000D01*
G01*
X308152315Y-276231676D02*
G75*
G03*
X307439510Y-276086423I-683999J-1535001D01*
G01*
X306784315Y-279301676D02*
G75*
G03*
X308151357Y-279302103I684001J1534993D01*
G01*
X304148315Y-277766676D02*
G75*
G03*
X304148315Y-277766676I-1680000J0D01*
G01*
%TO.C,D3*%
X252820000Y-224380000D02*
X248580000Y-224380000D01*
X247930000Y-225500000D02*
X248580000Y-225500000D01*
X252820000Y-226620000D02*
X252820000Y-224380000D01*
X249420000Y-224380000D02*
X249420000Y-226620000D01*
X249180000Y-224380000D02*
X249180000Y-226620000D01*
X248580000Y-224380000D02*
X248580000Y-226620000D01*
X253470000Y-225500000D02*
X252820000Y-225500000D01*
X248580000Y-226620000D02*
X252820000Y-226620000D01*
X249300000Y-224380000D02*
X249300000Y-226620000D01*
%TD*%
D14*
%TO.C,F7*%
X361700000Y-196405000D03*
X356620000Y-196405000D03*
X352560000Y-196405000D03*
X347480000Y-196405000D03*
%TD*%
%TO.C,F6*%
X335200000Y-196500000D03*
X330120000Y-196500000D03*
X320980000Y-196500000D03*
X326060000Y-196500000D03*
%TD*%
%TO.C,F3*%
X257250000Y-196550000D03*
X252170000Y-196550000D03*
X248110000Y-196550000D03*
X243030000Y-196550000D03*
%TD*%
%TO.C,F5*%
X304120000Y-196500000D03*
X309200000Y-196500000D03*
X294980000Y-196500000D03*
X300060000Y-196500000D03*
%TD*%
%TO.C,F4*%
X283500000Y-196500000D03*
X278420000Y-196500000D03*
X274360000Y-196500000D03*
X269280000Y-196500000D03*
%TD*%
%TO.C,F8*%
X387700000Y-196405000D03*
X382620000Y-196405000D03*
X373480000Y-196405000D03*
X378560000Y-196405000D03*
%TD*%
%TO.C,F9*%
X408700000Y-196405000D03*
X413780000Y-196405000D03*
X404640000Y-196405000D03*
X399560000Y-196405000D03*
%TD*%
%TO.C,F1*%
X226120000Y-196500000D03*
X231200000Y-196500000D03*
X216980000Y-196500000D03*
X222060000Y-196500000D03*
%TD*%
%TO.C,F10*%
X434620000Y-196405000D03*
X439700000Y-196405000D03*
X430560000Y-196405000D03*
X425480000Y-196405000D03*
%TD*%
%TO.C,F2*%
X460570000Y-196405000D03*
X465650000Y-196405000D03*
X451430000Y-196405000D03*
X456510000Y-196405000D03*
%TD*%
M02*
