%TF.GenerationSoftware,KiCad,Pcbnew,(7.0.0)*%
%TF.CreationDate,2023-04-05T08:28:23-04:00*%
%TF.ProjectId,BREAD_BLDC,42524541-445f-4424-9c44-432e6b696361,rev?*%
%TF.SameCoordinates,Original*%
%TF.FileFunction,Paste,Top*%
%TF.FilePolarity,Positive*%
%FSLAX46Y46*%
G04 Gerber Fmt 4.6, Leading zero omitted, Abs format (unit mm)*
G04 Created by KiCad (PCBNEW (7.0.0)) date 2023-04-05 08:28:23*
%MOMM*%
%LPD*%
G01*
G04 APERTURE LIST*
G04 Aperture macros list*
%AMRoundRect*
0 Rectangle with rounded corners*
0 $1 Rounding radius*
0 $2 $3 $4 $5 $6 $7 $8 $9 X,Y pos of 4 corners*
0 Add a 4 corners polygon primitive as box body*
4,1,4,$2,$3,$4,$5,$6,$7,$8,$9,$2,$3,0*
0 Add four circle primitives for the rounded corners*
1,1,$1+$1,$2,$3*
1,1,$1+$1,$4,$5*
1,1,$1+$1,$6,$7*
1,1,$1+$1,$8,$9*
0 Add four rect primitives between the rounded corners*
20,1,$1+$1,$2,$3,$4,$5,0*
20,1,$1+$1,$4,$5,$6,$7,0*
20,1,$1+$1,$6,$7,$8,$9,0*
20,1,$1+$1,$8,$9,$2,$3,0*%
G04 Aperture macros list end*
%ADD10RoundRect,0.150000X-0.587500X-0.150000X0.587500X-0.150000X0.587500X0.150000X-0.587500X0.150000X0*%
%ADD11R,0.640000X1.900000*%
%ADD12RoundRect,0.150000X0.875000X0.150000X-0.875000X0.150000X-0.875000X-0.150000X0.875000X-0.150000X0*%
%ADD13RoundRect,0.150000X0.150000X-0.587500X0.150000X0.587500X-0.150000X0.587500X-0.150000X-0.587500X0*%
G04 APERTURE END LIST*
D10*
%TO.C,Q6*%
X177535000Y-102802000D03*
X177535000Y-104702000D03*
X179410000Y-103752000D03*
%TD*%
D11*
%TO.C,a2*%
X142284999Y-49628999D03*
X141014999Y-49628999D03*
X139744999Y-49628999D03*
X138474999Y-49628999D03*
X138474999Y-55218999D03*
X139744999Y-55218999D03*
X141014999Y-55218999D03*
X142284999Y-55218999D03*
%TD*%
D10*
%TO.C,Q4*%
X177535000Y-94146000D03*
X177535000Y-96046000D03*
X179410000Y-95096000D03*
%TD*%
D12*
%TO.C,U1*%
X177034000Y-133704000D03*
X177034000Y-132434000D03*
X177034000Y-131164000D03*
X177034000Y-129894000D03*
X177034000Y-128624000D03*
X177034000Y-127354000D03*
X177034000Y-126084000D03*
X177034000Y-124814000D03*
X177034000Y-123544000D03*
X177034000Y-122274000D03*
X167734000Y-122274000D03*
X167734000Y-123544000D03*
X167734000Y-124814000D03*
X167734000Y-126084000D03*
X167734000Y-127354000D03*
X167734000Y-128624000D03*
X167734000Y-129894000D03*
X167734000Y-131164000D03*
X167734000Y-132434000D03*
X167734000Y-133704000D03*
%TD*%
D13*
%TO.C,Q5*%
X168886500Y-104669500D03*
X170786500Y-104669500D03*
X169836500Y-102794500D03*
%TD*%
%TO.C,Q1*%
X168886500Y-87397500D03*
X170786500Y-87397500D03*
X169836500Y-85522500D03*
%TD*%
%TO.C,Q3*%
X168886500Y-96033500D03*
X170786500Y-96033500D03*
X169836500Y-94158500D03*
%TD*%
D11*
%TO.C,b1*%
X152952999Y-49628999D03*
X151682999Y-49628999D03*
X150412999Y-49628999D03*
X149142999Y-49628999D03*
X149142999Y-55218999D03*
X150412999Y-55218999D03*
X151682999Y-55218999D03*
X152952999Y-55218999D03*
%TD*%
D10*
%TO.C,Q2*%
X177535000Y-85510000D03*
X177535000Y-87410000D03*
X179410000Y-86460000D03*
%TD*%
M02*
