M48
; DRILL file {KiCad (7.0.0)} date Wed Apr  5 08:31:11 2023
; FORMAT={-:-/ absolute / metric / decimal}
; #@! TF.CreationDate,2023-04-05T08:31:11-04:00
; #@! TF.GenerationSoftware,Kicad,Pcbnew,(7.0.0)
; #@! TF.FileFunction,Plated,1,2,PTH
FMAT,2
METRIC
; #@! TA.AperFunction,Plated,PTH,ViaDrill
T1C0.400
; #@! TA.AperFunction,Plated,PTH,ComponentDrill
T2C0.600
; #@! TA.AperFunction,Plated,PTH,ComponentDrill
T3C0.700
; #@! TA.AperFunction,Plated,PTH,ComponentDrill
T4C1.000
; #@! TA.AperFunction,Plated,PTH,ComponentDrill
T5C1.200
; #@! TA.AperFunction,Plated,PTH,ComponentDrill
T6C3.200
%
G90
G05
T1
X167.812Y-125.068
X168.828Y-104.748
X170.86Y-104.748
X175.94Y-87.476
X175.94Y-96.112
X175.94Y-104.748
X176.956Y-122.02
X176.956Y-123.544
X176.956Y-125.068
X176.956Y-126.084
X177.464Y-94.08
X177.464Y-102.716
X179.496Y-103.732
T2
X135.593Y-92.048
X137.093Y-92.048
X138.372Y-64.108
X139.872Y-64.108
X140.912Y-92.048
X142.412Y-92.048
X144.976Y-59.028
X146.476Y-59.028
X148.532Y-64.108
X150.032Y-64.108
X156.152Y-59.028
X157.652Y-59.028
X162.224Y-121.028
X162.224Y-122.528
X185.377Y-65.124
X185.377Y-73.252
X185.377Y-81.888
X186.877Y-65.124
X186.877Y-73.252
X186.877Y-81.888
T3
X139.038Y-44.804
X142.738Y-44.804
X149.706Y-44.804
X153.406Y-44.804
X169.34Y-71.728
X169.34Y-78.332
X169.382Y-64.108
X169.7Y-58.52
X171.24Y-71.728
X171.24Y-78.332
X171.282Y-64.108
X173.4Y-58.52
X190.672Y-89.728
X190.672Y-93.428
X190.672Y-97.128
T4
X129.6Y-78.8
X129.6Y-81.34
X129.6Y-83.88
X129.6Y-86.42
X129.6Y-88.96
X129.6Y-91.5
X129.6Y-94.04
X129.6Y-96.58
X129.6Y-99.12
X129.6Y-101.66
X135.0Y-100.0
X135.0Y-102.54
X135.0Y-105.08
X135.0Y-107.62
X135.0Y-110.16
X135.0Y-112.7
X135.0Y-115.24
X135.0Y-117.78
X135.0Y-120.32
X135.0Y-122.86
X135.0Y-125.4
X135.0Y-127.94
X135.0Y-130.48
X135.0Y-133.02
X135.0Y-135.56
X150.24Y-100.0
X150.24Y-102.54
X150.24Y-105.08
X150.24Y-107.62
X150.24Y-110.16
X150.24Y-112.7
X150.24Y-115.24
X150.24Y-117.78
X150.24Y-120.32
X150.24Y-122.86
X150.24Y-125.4
X150.24Y-127.94
X150.24Y-130.48
X150.24Y-133.02
X150.24Y-135.56
T5
X175.346Y-65.124
X175.346Y-72.744
X175.346Y-79.348
X177.886Y-65.124
X177.886Y-72.744
X177.886Y-79.348
T6
X127.6Y-44.8
X127.6Y-134.8
X187.6Y-44.8
X187.6Y-134.8
T0
M30
