%TF.GenerationSoftware,KiCad,Pcbnew,(7.0.0)*%
%TF.CreationDate,2023-04-05T08:28:23-04:00*%
%TF.ProjectId,BREAD_BLDC,42524541-445f-4424-9c44-432e6b696361,rev?*%
%TF.SameCoordinates,Original*%
%TF.FileFunction,Legend,Top*%
%TF.FilePolarity,Positive*%
%FSLAX46Y46*%
G04 Gerber Fmt 4.6, Leading zero omitted, Abs format (unit mm)*
G04 Created by KiCad (PCBNEW (7.0.0)) date 2023-04-05 08:28:23*
%MOMM*%
%LPD*%
G01*
G04 APERTURE LIST*
%ADD10C,0.150000*%
%ADD11C,0.120000*%
%ADD12C,0.010000*%
%ADD13C,0.127000*%
%ADD14C,0.200000*%
G04 APERTURE END LIST*
D10*
X153677333Y-131419571D02*
X153820190Y-131467190D01*
X153820190Y-131467190D02*
X153867809Y-131514809D01*
X153867809Y-131514809D02*
X153915428Y-131610047D01*
X153915428Y-131610047D02*
X153915428Y-131752904D01*
X153915428Y-131752904D02*
X153867809Y-131848142D01*
X153867809Y-131848142D02*
X153820190Y-131895761D01*
X153820190Y-131895761D02*
X153724952Y-131943380D01*
X153724952Y-131943380D02*
X153344000Y-131943380D01*
X153344000Y-131943380D02*
X153344000Y-130943380D01*
X153344000Y-130943380D02*
X153677333Y-130943380D01*
X153677333Y-130943380D02*
X153772571Y-130991000D01*
X153772571Y-130991000D02*
X153820190Y-131038619D01*
X153820190Y-131038619D02*
X153867809Y-131133857D01*
X153867809Y-131133857D02*
X153867809Y-131229095D01*
X153867809Y-131229095D02*
X153820190Y-131324333D01*
X153820190Y-131324333D02*
X153772571Y-131371952D01*
X153772571Y-131371952D02*
X153677333Y-131419571D01*
X153677333Y-131419571D02*
X153344000Y-131419571D01*
X154820190Y-131943380D02*
X154344000Y-131943380D01*
X154344000Y-131943380D02*
X154344000Y-130943380D01*
X155153524Y-131943380D02*
X155153524Y-130943380D01*
X155153524Y-130943380D02*
X155391619Y-130943380D01*
X155391619Y-130943380D02*
X155534476Y-130991000D01*
X155534476Y-130991000D02*
X155629714Y-131086238D01*
X155629714Y-131086238D02*
X155677333Y-131181476D01*
X155677333Y-131181476D02*
X155724952Y-131371952D01*
X155724952Y-131371952D02*
X155724952Y-131514809D01*
X155724952Y-131514809D02*
X155677333Y-131705285D01*
X155677333Y-131705285D02*
X155629714Y-131800523D01*
X155629714Y-131800523D02*
X155534476Y-131895761D01*
X155534476Y-131895761D02*
X155391619Y-131943380D01*
X155391619Y-131943380D02*
X155153524Y-131943380D01*
X156724952Y-131848142D02*
X156677333Y-131895761D01*
X156677333Y-131895761D02*
X156534476Y-131943380D01*
X156534476Y-131943380D02*
X156439238Y-131943380D01*
X156439238Y-131943380D02*
X156296381Y-131895761D01*
X156296381Y-131895761D02*
X156201143Y-131800523D01*
X156201143Y-131800523D02*
X156153524Y-131705285D01*
X156153524Y-131705285D02*
X156105905Y-131514809D01*
X156105905Y-131514809D02*
X156105905Y-131371952D01*
X156105905Y-131371952D02*
X156153524Y-131181476D01*
X156153524Y-131181476D02*
X156201143Y-131086238D01*
X156201143Y-131086238D02*
X156296381Y-130991000D01*
X156296381Y-130991000D02*
X156439238Y-130943380D01*
X156439238Y-130943380D02*
X156534476Y-130943380D01*
X156534476Y-130943380D02*
X156677333Y-130991000D01*
X156677333Y-130991000D02*
X156724952Y-131038619D01*
X157705905Y-131895761D02*
X157848762Y-131943380D01*
X157848762Y-131943380D02*
X158086857Y-131943380D01*
X158086857Y-131943380D02*
X158182095Y-131895761D01*
X158182095Y-131895761D02*
X158229714Y-131848142D01*
X158229714Y-131848142D02*
X158277333Y-131752904D01*
X158277333Y-131752904D02*
X158277333Y-131657666D01*
X158277333Y-131657666D02*
X158229714Y-131562428D01*
X158229714Y-131562428D02*
X158182095Y-131514809D01*
X158182095Y-131514809D02*
X158086857Y-131467190D01*
X158086857Y-131467190D02*
X157896381Y-131419571D01*
X157896381Y-131419571D02*
X157801143Y-131371952D01*
X157801143Y-131371952D02*
X157753524Y-131324333D01*
X157753524Y-131324333D02*
X157705905Y-131229095D01*
X157705905Y-131229095D02*
X157705905Y-131133857D01*
X157705905Y-131133857D02*
X157753524Y-131038619D01*
X157753524Y-131038619D02*
X157801143Y-130991000D01*
X157801143Y-130991000D02*
X157896381Y-130943380D01*
X157896381Y-130943380D02*
X158134476Y-130943380D01*
X158134476Y-130943380D02*
X158277333Y-130991000D01*
X158848762Y-131943380D02*
X158753524Y-131895761D01*
X158753524Y-131895761D02*
X158705905Y-131800523D01*
X158705905Y-131800523D02*
X158705905Y-130943380D01*
X159229715Y-131943380D02*
X159229715Y-131276714D01*
X159229715Y-130943380D02*
X159182096Y-130991000D01*
X159182096Y-130991000D02*
X159229715Y-131038619D01*
X159229715Y-131038619D02*
X159277334Y-130991000D01*
X159277334Y-130991000D02*
X159229715Y-130943380D01*
X159229715Y-130943380D02*
X159229715Y-131038619D01*
X160134476Y-131895761D02*
X160039238Y-131943380D01*
X160039238Y-131943380D02*
X159848762Y-131943380D01*
X159848762Y-131943380D02*
X159753524Y-131895761D01*
X159753524Y-131895761D02*
X159705905Y-131848142D01*
X159705905Y-131848142D02*
X159658286Y-131752904D01*
X159658286Y-131752904D02*
X159658286Y-131467190D01*
X159658286Y-131467190D02*
X159705905Y-131371952D01*
X159705905Y-131371952D02*
X159753524Y-131324333D01*
X159753524Y-131324333D02*
X159848762Y-131276714D01*
X159848762Y-131276714D02*
X160039238Y-131276714D01*
X160039238Y-131276714D02*
X160134476Y-131324333D01*
X160944000Y-131895761D02*
X160848762Y-131943380D01*
X160848762Y-131943380D02*
X160658286Y-131943380D01*
X160658286Y-131943380D02*
X160563048Y-131895761D01*
X160563048Y-131895761D02*
X160515429Y-131800523D01*
X160515429Y-131800523D02*
X160515429Y-131419571D01*
X160515429Y-131419571D02*
X160563048Y-131324333D01*
X160563048Y-131324333D02*
X160658286Y-131276714D01*
X160658286Y-131276714D02*
X160848762Y-131276714D01*
X160848762Y-131276714D02*
X160944000Y-131324333D01*
X160944000Y-131324333D02*
X160991619Y-131419571D01*
X160991619Y-131419571D02*
X160991619Y-131514809D01*
X160991619Y-131514809D02*
X160515429Y-131610047D01*
X153667809Y-133515761D02*
X153810666Y-133563380D01*
X153810666Y-133563380D02*
X154048761Y-133563380D01*
X154048761Y-133563380D02*
X154143999Y-133515761D01*
X154143999Y-133515761D02*
X154191618Y-133468142D01*
X154191618Y-133468142D02*
X154239237Y-133372904D01*
X154239237Y-133372904D02*
X154239237Y-133277666D01*
X154239237Y-133277666D02*
X154191618Y-133182428D01*
X154191618Y-133182428D02*
X154143999Y-133134809D01*
X154143999Y-133134809D02*
X154048761Y-133087190D01*
X154048761Y-133087190D02*
X153858285Y-133039571D01*
X153858285Y-133039571D02*
X153763047Y-132991952D01*
X153763047Y-132991952D02*
X153715428Y-132944333D01*
X153715428Y-132944333D02*
X153667809Y-132849095D01*
X153667809Y-132849095D02*
X153667809Y-132753857D01*
X153667809Y-132753857D02*
X153715428Y-132658619D01*
X153715428Y-132658619D02*
X153763047Y-132611000D01*
X153763047Y-132611000D02*
X153858285Y-132563380D01*
X153858285Y-132563380D02*
X154096380Y-132563380D01*
X154096380Y-132563380D02*
X154239237Y-132611000D01*
X155143999Y-133563380D02*
X154667809Y-133563380D01*
X154667809Y-133563380D02*
X154667809Y-132563380D01*
X156048761Y-133468142D02*
X156001142Y-133515761D01*
X156001142Y-133515761D02*
X155858285Y-133563380D01*
X155858285Y-133563380D02*
X155763047Y-133563380D01*
X155763047Y-133563380D02*
X155620190Y-133515761D01*
X155620190Y-133515761D02*
X155524952Y-133420523D01*
X155524952Y-133420523D02*
X155477333Y-133325285D01*
X155477333Y-133325285D02*
X155429714Y-133134809D01*
X155429714Y-133134809D02*
X155429714Y-132991952D01*
X155429714Y-132991952D02*
X155477333Y-132801476D01*
X155477333Y-132801476D02*
X155524952Y-132706238D01*
X155524952Y-132706238D02*
X155620190Y-132611000D01*
X155620190Y-132611000D02*
X155763047Y-132563380D01*
X155763047Y-132563380D02*
X155858285Y-132563380D01*
X155858285Y-132563380D02*
X156001142Y-132611000D01*
X156001142Y-132611000D02*
X156048761Y-132658619D01*
X156239238Y-133658619D02*
X157001142Y-133658619D01*
X157572571Y-133039571D02*
X157715428Y-133087190D01*
X157715428Y-133087190D02*
X157763047Y-133134809D01*
X157763047Y-133134809D02*
X157810666Y-133230047D01*
X157810666Y-133230047D02*
X157810666Y-133372904D01*
X157810666Y-133372904D02*
X157763047Y-133468142D01*
X157763047Y-133468142D02*
X157715428Y-133515761D01*
X157715428Y-133515761D02*
X157620190Y-133563380D01*
X157620190Y-133563380D02*
X157239238Y-133563380D01*
X157239238Y-133563380D02*
X157239238Y-132563380D01*
X157239238Y-132563380D02*
X157572571Y-132563380D01*
X157572571Y-132563380D02*
X157667809Y-132611000D01*
X157667809Y-132611000D02*
X157715428Y-132658619D01*
X157715428Y-132658619D02*
X157763047Y-132753857D01*
X157763047Y-132753857D02*
X157763047Y-132849095D01*
X157763047Y-132849095D02*
X157715428Y-132944333D01*
X157715428Y-132944333D02*
X157667809Y-132991952D01*
X157667809Y-132991952D02*
X157572571Y-133039571D01*
X157572571Y-133039571D02*
X157239238Y-133039571D01*
X158715428Y-133563380D02*
X158239238Y-133563380D01*
X158239238Y-133563380D02*
X158239238Y-132563380D01*
X159048762Y-133563380D02*
X159048762Y-132563380D01*
X159048762Y-132563380D02*
X159286857Y-132563380D01*
X159286857Y-132563380D02*
X159429714Y-132611000D01*
X159429714Y-132611000D02*
X159524952Y-132706238D01*
X159524952Y-132706238D02*
X159572571Y-132801476D01*
X159572571Y-132801476D02*
X159620190Y-132991952D01*
X159620190Y-132991952D02*
X159620190Y-133134809D01*
X159620190Y-133134809D02*
X159572571Y-133325285D01*
X159572571Y-133325285D02*
X159524952Y-133420523D01*
X159524952Y-133420523D02*
X159429714Y-133515761D01*
X159429714Y-133515761D02*
X159286857Y-133563380D01*
X159286857Y-133563380D02*
X159048762Y-133563380D01*
X160620190Y-133468142D02*
X160572571Y-133515761D01*
X160572571Y-133515761D02*
X160429714Y-133563380D01*
X160429714Y-133563380D02*
X160334476Y-133563380D01*
X160334476Y-133563380D02*
X160191619Y-133515761D01*
X160191619Y-133515761D02*
X160096381Y-133420523D01*
X160096381Y-133420523D02*
X160048762Y-133325285D01*
X160048762Y-133325285D02*
X160001143Y-133134809D01*
X160001143Y-133134809D02*
X160001143Y-132991952D01*
X160001143Y-132991952D02*
X160048762Y-132801476D01*
X160048762Y-132801476D02*
X160096381Y-132706238D01*
X160096381Y-132706238D02*
X160191619Y-132611000D01*
X160191619Y-132611000D02*
X160334476Y-132563380D01*
X160334476Y-132563380D02*
X160429714Y-132563380D01*
X160429714Y-132563380D02*
X160572571Y-132611000D01*
X160572571Y-132611000D02*
X160620190Y-132658619D01*
X154772571Y-135183380D02*
X154439238Y-134707190D01*
X154201143Y-135183380D02*
X154201143Y-134183380D01*
X154201143Y-134183380D02*
X154582095Y-134183380D01*
X154582095Y-134183380D02*
X154677333Y-134231000D01*
X154677333Y-134231000D02*
X154724952Y-134278619D01*
X154724952Y-134278619D02*
X154772571Y-134373857D01*
X154772571Y-134373857D02*
X154772571Y-134516714D01*
X154772571Y-134516714D02*
X154724952Y-134611952D01*
X154724952Y-134611952D02*
X154677333Y-134659571D01*
X154677333Y-134659571D02*
X154582095Y-134707190D01*
X154582095Y-134707190D02*
X154201143Y-134707190D01*
X155391619Y-134183380D02*
X155486857Y-134183380D01*
X155486857Y-134183380D02*
X155582095Y-134231000D01*
X155582095Y-134231000D02*
X155629714Y-134278619D01*
X155629714Y-134278619D02*
X155677333Y-134373857D01*
X155677333Y-134373857D02*
X155724952Y-134564333D01*
X155724952Y-134564333D02*
X155724952Y-134802428D01*
X155724952Y-134802428D02*
X155677333Y-134992904D01*
X155677333Y-134992904D02*
X155629714Y-135088142D01*
X155629714Y-135088142D02*
X155582095Y-135135761D01*
X155582095Y-135135761D02*
X155486857Y-135183380D01*
X155486857Y-135183380D02*
X155391619Y-135183380D01*
X155391619Y-135183380D02*
X155296381Y-135135761D01*
X155296381Y-135135761D02*
X155248762Y-135088142D01*
X155248762Y-135088142D02*
X155201143Y-134992904D01*
X155201143Y-134992904D02*
X155153524Y-134802428D01*
X155153524Y-134802428D02*
X155153524Y-134564333D01*
X155153524Y-134564333D02*
X155201143Y-134373857D01*
X155201143Y-134373857D02*
X155248762Y-134278619D01*
X155248762Y-134278619D02*
X155296381Y-134231000D01*
X155296381Y-134231000D02*
X155391619Y-134183380D01*
X156705905Y-134278619D02*
X156753524Y-134231000D01*
X156753524Y-134231000D02*
X156848762Y-134183380D01*
X156848762Y-134183380D02*
X157086857Y-134183380D01*
X157086857Y-134183380D02*
X157182095Y-134231000D01*
X157182095Y-134231000D02*
X157229714Y-134278619D01*
X157229714Y-134278619D02*
X157277333Y-134373857D01*
X157277333Y-134373857D02*
X157277333Y-134469095D01*
X157277333Y-134469095D02*
X157229714Y-134611952D01*
X157229714Y-134611952D02*
X156658286Y-135183380D01*
X156658286Y-135183380D02*
X157277333Y-135183380D01*
X157896381Y-134183380D02*
X157991619Y-134183380D01*
X157991619Y-134183380D02*
X158086857Y-134231000D01*
X158086857Y-134231000D02*
X158134476Y-134278619D01*
X158134476Y-134278619D02*
X158182095Y-134373857D01*
X158182095Y-134373857D02*
X158229714Y-134564333D01*
X158229714Y-134564333D02*
X158229714Y-134802428D01*
X158229714Y-134802428D02*
X158182095Y-134992904D01*
X158182095Y-134992904D02*
X158134476Y-135088142D01*
X158134476Y-135088142D02*
X158086857Y-135135761D01*
X158086857Y-135135761D02*
X157991619Y-135183380D01*
X157991619Y-135183380D02*
X157896381Y-135183380D01*
X157896381Y-135183380D02*
X157801143Y-135135761D01*
X157801143Y-135135761D02*
X157753524Y-135088142D01*
X157753524Y-135088142D02*
X157705905Y-134992904D01*
X157705905Y-134992904D02*
X157658286Y-134802428D01*
X157658286Y-134802428D02*
X157658286Y-134564333D01*
X157658286Y-134564333D02*
X157705905Y-134373857D01*
X157705905Y-134373857D02*
X157753524Y-134278619D01*
X157753524Y-134278619D02*
X157801143Y-134231000D01*
X157801143Y-134231000D02*
X157896381Y-134183380D01*
X158610667Y-134278619D02*
X158658286Y-134231000D01*
X158658286Y-134231000D02*
X158753524Y-134183380D01*
X158753524Y-134183380D02*
X158991619Y-134183380D01*
X158991619Y-134183380D02*
X159086857Y-134231000D01*
X159086857Y-134231000D02*
X159134476Y-134278619D01*
X159134476Y-134278619D02*
X159182095Y-134373857D01*
X159182095Y-134373857D02*
X159182095Y-134469095D01*
X159182095Y-134469095D02*
X159134476Y-134611952D01*
X159134476Y-134611952D02*
X158563048Y-135183380D01*
X158563048Y-135183380D02*
X159182095Y-135183380D01*
X159515429Y-134183380D02*
X160134476Y-134183380D01*
X160134476Y-134183380D02*
X159801143Y-134564333D01*
X159801143Y-134564333D02*
X159944000Y-134564333D01*
X159944000Y-134564333D02*
X160039238Y-134611952D01*
X160039238Y-134611952D02*
X160086857Y-134659571D01*
X160086857Y-134659571D02*
X160134476Y-134754809D01*
X160134476Y-134754809D02*
X160134476Y-134992904D01*
X160134476Y-134992904D02*
X160086857Y-135088142D01*
X160086857Y-135088142D02*
X160039238Y-135135761D01*
X160039238Y-135135761D02*
X159944000Y-135183380D01*
X159944000Y-135183380D02*
X159658286Y-135183380D01*
X159658286Y-135183380D02*
X159563048Y-135135761D01*
X159563048Y-135135761D02*
X159515429Y-135088142D01*
%TO.C,A1*%
X141905714Y-95001666D02*
X142381904Y-95001666D01*
X141810476Y-95287380D02*
X142143809Y-94287380D01*
X142143809Y-94287380D02*
X142477142Y-95287380D01*
X143334285Y-95287380D02*
X142762857Y-95287380D01*
X143048571Y-95287380D02*
X143048571Y-94287380D01*
X143048571Y-94287380D02*
X142953333Y-94430238D01*
X142953333Y-94430238D02*
X142858095Y-94525476D01*
X142858095Y-94525476D02*
X142762857Y-94573095D01*
%TO.C,C2*%
X141495333Y-89070142D02*
X141447714Y-89117761D01*
X141447714Y-89117761D02*
X141304857Y-89165380D01*
X141304857Y-89165380D02*
X141209619Y-89165380D01*
X141209619Y-89165380D02*
X141066762Y-89117761D01*
X141066762Y-89117761D02*
X140971524Y-89022523D01*
X140971524Y-89022523D02*
X140923905Y-88927285D01*
X140923905Y-88927285D02*
X140876286Y-88736809D01*
X140876286Y-88736809D02*
X140876286Y-88593952D01*
X140876286Y-88593952D02*
X140923905Y-88403476D01*
X140923905Y-88403476D02*
X140971524Y-88308238D01*
X140971524Y-88308238D02*
X141066762Y-88213000D01*
X141066762Y-88213000D02*
X141209619Y-88165380D01*
X141209619Y-88165380D02*
X141304857Y-88165380D01*
X141304857Y-88165380D02*
X141447714Y-88213000D01*
X141447714Y-88213000D02*
X141495333Y-88260619D01*
X141876286Y-88260619D02*
X141923905Y-88213000D01*
X141923905Y-88213000D02*
X142019143Y-88165380D01*
X142019143Y-88165380D02*
X142257238Y-88165380D01*
X142257238Y-88165380D02*
X142352476Y-88213000D01*
X142352476Y-88213000D02*
X142400095Y-88260619D01*
X142400095Y-88260619D02*
X142447714Y-88355857D01*
X142447714Y-88355857D02*
X142447714Y-88451095D01*
X142447714Y-88451095D02*
X142400095Y-88593952D01*
X142400095Y-88593952D02*
X141828667Y-89165380D01*
X141828667Y-89165380D02*
X142447714Y-89165380D01*
%TO.C,J1*%
X124886666Y-75397380D02*
X124886666Y-76111666D01*
X124886666Y-76111666D02*
X124839047Y-76254523D01*
X124839047Y-76254523D02*
X124743809Y-76349761D01*
X124743809Y-76349761D02*
X124600952Y-76397380D01*
X124600952Y-76397380D02*
X124505714Y-76397380D01*
X125886666Y-76397380D02*
X125315238Y-76397380D01*
X125600952Y-76397380D02*
X125600952Y-75397380D01*
X125600952Y-75397380D02*
X125505714Y-75540238D01*
X125505714Y-75540238D02*
X125410476Y-75635476D01*
X125410476Y-75635476D02*
X125315238Y-75683095D01*
%TO.C,C1*%
X136176734Y-89070142D02*
X136129115Y-89117761D01*
X136129115Y-89117761D02*
X135986258Y-89165380D01*
X135986258Y-89165380D02*
X135891020Y-89165380D01*
X135891020Y-89165380D02*
X135748163Y-89117761D01*
X135748163Y-89117761D02*
X135652925Y-89022523D01*
X135652925Y-89022523D02*
X135605306Y-88927285D01*
X135605306Y-88927285D02*
X135557687Y-88736809D01*
X135557687Y-88736809D02*
X135557687Y-88593952D01*
X135557687Y-88593952D02*
X135605306Y-88403476D01*
X135605306Y-88403476D02*
X135652925Y-88308238D01*
X135652925Y-88308238D02*
X135748163Y-88213000D01*
X135748163Y-88213000D02*
X135891020Y-88165380D01*
X135891020Y-88165380D02*
X135986258Y-88165380D01*
X135986258Y-88165380D02*
X136129115Y-88213000D01*
X136129115Y-88213000D02*
X136176734Y-88260619D01*
X137129115Y-89165380D02*
X136557687Y-89165380D01*
X136843401Y-89165380D02*
X136843401Y-88165380D01*
X136843401Y-88165380D02*
X136748163Y-88308238D01*
X136748163Y-88308238D02*
X136652925Y-88403476D01*
X136652925Y-88403476D02*
X136557687Y-88451095D01*
%TO.C,Q6*%
X178377261Y-101814619D02*
X178282023Y-101767000D01*
X178282023Y-101767000D02*
X178186785Y-101671761D01*
X178186785Y-101671761D02*
X178043928Y-101528904D01*
X178043928Y-101528904D02*
X177948690Y-101481285D01*
X177948690Y-101481285D02*
X177853452Y-101481285D01*
X177901071Y-101719380D02*
X177805833Y-101671761D01*
X177805833Y-101671761D02*
X177710595Y-101576523D01*
X177710595Y-101576523D02*
X177662976Y-101386047D01*
X177662976Y-101386047D02*
X177662976Y-101052714D01*
X177662976Y-101052714D02*
X177710595Y-100862238D01*
X177710595Y-100862238D02*
X177805833Y-100767000D01*
X177805833Y-100767000D02*
X177901071Y-100719380D01*
X177901071Y-100719380D02*
X178091547Y-100719380D01*
X178091547Y-100719380D02*
X178186785Y-100767000D01*
X178186785Y-100767000D02*
X178282023Y-100862238D01*
X178282023Y-100862238D02*
X178329642Y-101052714D01*
X178329642Y-101052714D02*
X178329642Y-101386047D01*
X178329642Y-101386047D02*
X178282023Y-101576523D01*
X178282023Y-101576523D02*
X178186785Y-101671761D01*
X178186785Y-101671761D02*
X178091547Y-101719380D01*
X178091547Y-101719380D02*
X177901071Y-101719380D01*
X179186785Y-100719380D02*
X178996309Y-100719380D01*
X178996309Y-100719380D02*
X178901071Y-100767000D01*
X178901071Y-100767000D02*
X178853452Y-100814619D01*
X178853452Y-100814619D02*
X178758214Y-100957476D01*
X178758214Y-100957476D02*
X178710595Y-101147952D01*
X178710595Y-101147952D02*
X178710595Y-101528904D01*
X178710595Y-101528904D02*
X178758214Y-101624142D01*
X178758214Y-101624142D02*
X178805833Y-101671761D01*
X178805833Y-101671761D02*
X178901071Y-101719380D01*
X178901071Y-101719380D02*
X179091547Y-101719380D01*
X179091547Y-101719380D02*
X179186785Y-101671761D01*
X179186785Y-101671761D02*
X179234404Y-101624142D01*
X179234404Y-101624142D02*
X179282023Y-101528904D01*
X179282023Y-101528904D02*
X179282023Y-101290809D01*
X179282023Y-101290809D02*
X179234404Y-101195571D01*
X179234404Y-101195571D02*
X179186785Y-101147952D01*
X179186785Y-101147952D02*
X179091547Y-101100333D01*
X179091547Y-101100333D02*
X178901071Y-101100333D01*
X178901071Y-101100333D02*
X178805833Y-101147952D01*
X178805833Y-101147952D02*
X178758214Y-101195571D01*
X178758214Y-101195571D02*
X178710595Y-101290809D01*
%TO.C,C5*%
X145559333Y-56050142D02*
X145511714Y-56097761D01*
X145511714Y-56097761D02*
X145368857Y-56145380D01*
X145368857Y-56145380D02*
X145273619Y-56145380D01*
X145273619Y-56145380D02*
X145130762Y-56097761D01*
X145130762Y-56097761D02*
X145035524Y-56002523D01*
X145035524Y-56002523D02*
X144987905Y-55907285D01*
X144987905Y-55907285D02*
X144940286Y-55716809D01*
X144940286Y-55716809D02*
X144940286Y-55573952D01*
X144940286Y-55573952D02*
X144987905Y-55383476D01*
X144987905Y-55383476D02*
X145035524Y-55288238D01*
X145035524Y-55288238D02*
X145130762Y-55193000D01*
X145130762Y-55193000D02*
X145273619Y-55145380D01*
X145273619Y-55145380D02*
X145368857Y-55145380D01*
X145368857Y-55145380D02*
X145511714Y-55193000D01*
X145511714Y-55193000D02*
X145559333Y-55240619D01*
X146464095Y-55145380D02*
X145987905Y-55145380D01*
X145987905Y-55145380D02*
X145940286Y-55621571D01*
X145940286Y-55621571D02*
X145987905Y-55573952D01*
X145987905Y-55573952D02*
X146083143Y-55526333D01*
X146083143Y-55526333D02*
X146321238Y-55526333D01*
X146321238Y-55526333D02*
X146416476Y-55573952D01*
X146416476Y-55573952D02*
X146464095Y-55621571D01*
X146464095Y-55621571D02*
X146511714Y-55716809D01*
X146511714Y-55716809D02*
X146511714Y-55954904D01*
X146511714Y-55954904D02*
X146464095Y-56050142D01*
X146464095Y-56050142D02*
X146416476Y-56097761D01*
X146416476Y-56097761D02*
X146321238Y-56145380D01*
X146321238Y-56145380D02*
X146083143Y-56145380D01*
X146083143Y-56145380D02*
X145987905Y-56097761D01*
X145987905Y-56097761D02*
X145940286Y-56050142D01*
%TO.C,a2*%
X144382380Y-52360904D02*
X143858571Y-52360904D01*
X143858571Y-52360904D02*
X143763333Y-52408523D01*
X143763333Y-52408523D02*
X143715714Y-52503761D01*
X143715714Y-52503761D02*
X143715714Y-52694237D01*
X143715714Y-52694237D02*
X143763333Y-52789475D01*
X144334761Y-52360904D02*
X144382380Y-52456142D01*
X144382380Y-52456142D02*
X144382380Y-52694237D01*
X144382380Y-52694237D02*
X144334761Y-52789475D01*
X144334761Y-52789475D02*
X144239523Y-52837094D01*
X144239523Y-52837094D02*
X144144285Y-52837094D01*
X144144285Y-52837094D02*
X144049047Y-52789475D01*
X144049047Y-52789475D02*
X144001428Y-52694237D01*
X144001428Y-52694237D02*
X144001428Y-52456142D01*
X144001428Y-52456142D02*
X143953809Y-52360904D01*
X143477619Y-51932332D02*
X143430000Y-51884713D01*
X143430000Y-51884713D02*
X143382380Y-51789475D01*
X143382380Y-51789475D02*
X143382380Y-51551380D01*
X143382380Y-51551380D02*
X143430000Y-51456142D01*
X143430000Y-51456142D02*
X143477619Y-51408523D01*
X143477619Y-51408523D02*
X143572857Y-51360904D01*
X143572857Y-51360904D02*
X143668095Y-51360904D01*
X143668095Y-51360904D02*
X143810952Y-51408523D01*
X143810952Y-51408523D02*
X144382380Y-51979951D01*
X144382380Y-51979951D02*
X144382380Y-51360904D01*
%TO.C,J5*%
X192089380Y-93761333D02*
X192803666Y-93761333D01*
X192803666Y-93761333D02*
X192946523Y-93808952D01*
X192946523Y-93808952D02*
X193041761Y-93904190D01*
X193041761Y-93904190D02*
X193089380Y-94047047D01*
X193089380Y-94047047D02*
X193089380Y-94142285D01*
X192089380Y-92808952D02*
X192089380Y-93285142D01*
X192089380Y-93285142D02*
X192565571Y-93332761D01*
X192565571Y-93332761D02*
X192517952Y-93285142D01*
X192517952Y-93285142D02*
X192470333Y-93189904D01*
X192470333Y-93189904D02*
X192470333Y-92951809D01*
X192470333Y-92951809D02*
X192517952Y-92856571D01*
X192517952Y-92856571D02*
X192565571Y-92808952D01*
X192565571Y-92808952D02*
X192660809Y-92761333D01*
X192660809Y-92761333D02*
X192898904Y-92761333D01*
X192898904Y-92761333D02*
X192994142Y-92808952D01*
X192994142Y-92808952D02*
X193041761Y-92856571D01*
X193041761Y-92856571D02*
X193089380Y-92951809D01*
X193089380Y-92951809D02*
X193089380Y-93189904D01*
X193089380Y-93189904D02*
X193041761Y-93285142D01*
X193041761Y-93285142D02*
X192994142Y-93332761D01*
%TO.C,D3*%
X175877905Y-82635380D02*
X175877905Y-81635380D01*
X175877905Y-81635380D02*
X176116000Y-81635380D01*
X176116000Y-81635380D02*
X176258857Y-81683000D01*
X176258857Y-81683000D02*
X176354095Y-81778238D01*
X176354095Y-81778238D02*
X176401714Y-81873476D01*
X176401714Y-81873476D02*
X176449333Y-82063952D01*
X176449333Y-82063952D02*
X176449333Y-82206809D01*
X176449333Y-82206809D02*
X176401714Y-82397285D01*
X176401714Y-82397285D02*
X176354095Y-82492523D01*
X176354095Y-82492523D02*
X176258857Y-82587761D01*
X176258857Y-82587761D02*
X176116000Y-82635380D01*
X176116000Y-82635380D02*
X175877905Y-82635380D01*
X176782667Y-81635380D02*
X177401714Y-81635380D01*
X177401714Y-81635380D02*
X177068381Y-82016333D01*
X177068381Y-82016333D02*
X177211238Y-82016333D01*
X177211238Y-82016333D02*
X177306476Y-82063952D01*
X177306476Y-82063952D02*
X177354095Y-82111571D01*
X177354095Y-82111571D02*
X177401714Y-82206809D01*
X177401714Y-82206809D02*
X177401714Y-82444904D01*
X177401714Y-82444904D02*
X177354095Y-82540142D01*
X177354095Y-82540142D02*
X177306476Y-82587761D01*
X177306476Y-82587761D02*
X177211238Y-82635380D01*
X177211238Y-82635380D02*
X176925524Y-82635380D01*
X176925524Y-82635380D02*
X176830286Y-82587761D01*
X176830286Y-82587761D02*
X176782667Y-82540142D01*
X172987905Y-79429666D02*
X173464095Y-79429666D01*
X172892667Y-79715380D02*
X173226000Y-78715380D01*
X173226000Y-78715380D02*
X173559333Y-79715380D01*
%TO.C,Q4*%
X178377261Y-93158619D02*
X178282023Y-93111000D01*
X178282023Y-93111000D02*
X178186785Y-93015761D01*
X178186785Y-93015761D02*
X178043928Y-92872904D01*
X178043928Y-92872904D02*
X177948690Y-92825285D01*
X177948690Y-92825285D02*
X177853452Y-92825285D01*
X177901071Y-93063380D02*
X177805833Y-93015761D01*
X177805833Y-93015761D02*
X177710595Y-92920523D01*
X177710595Y-92920523D02*
X177662976Y-92730047D01*
X177662976Y-92730047D02*
X177662976Y-92396714D01*
X177662976Y-92396714D02*
X177710595Y-92206238D01*
X177710595Y-92206238D02*
X177805833Y-92111000D01*
X177805833Y-92111000D02*
X177901071Y-92063380D01*
X177901071Y-92063380D02*
X178091547Y-92063380D01*
X178091547Y-92063380D02*
X178186785Y-92111000D01*
X178186785Y-92111000D02*
X178282023Y-92206238D01*
X178282023Y-92206238D02*
X178329642Y-92396714D01*
X178329642Y-92396714D02*
X178329642Y-92730047D01*
X178329642Y-92730047D02*
X178282023Y-92920523D01*
X178282023Y-92920523D02*
X178186785Y-93015761D01*
X178186785Y-93015761D02*
X178091547Y-93063380D01*
X178091547Y-93063380D02*
X177901071Y-93063380D01*
X179186785Y-92396714D02*
X179186785Y-93063380D01*
X178948690Y-92015761D02*
X178710595Y-92730047D01*
X178710595Y-92730047D02*
X179329642Y-92730047D01*
%TO.C,D2*%
X175877905Y-76031380D02*
X175877905Y-75031380D01*
X175877905Y-75031380D02*
X176116000Y-75031380D01*
X176116000Y-75031380D02*
X176258857Y-75079000D01*
X176258857Y-75079000D02*
X176354095Y-75174238D01*
X176354095Y-75174238D02*
X176401714Y-75269476D01*
X176401714Y-75269476D02*
X176449333Y-75459952D01*
X176449333Y-75459952D02*
X176449333Y-75602809D01*
X176449333Y-75602809D02*
X176401714Y-75793285D01*
X176401714Y-75793285D02*
X176354095Y-75888523D01*
X176354095Y-75888523D02*
X176258857Y-75983761D01*
X176258857Y-75983761D02*
X176116000Y-76031380D01*
X176116000Y-76031380D02*
X175877905Y-76031380D01*
X176830286Y-75126619D02*
X176877905Y-75079000D01*
X176877905Y-75079000D02*
X176973143Y-75031380D01*
X176973143Y-75031380D02*
X177211238Y-75031380D01*
X177211238Y-75031380D02*
X177306476Y-75079000D01*
X177306476Y-75079000D02*
X177354095Y-75126619D01*
X177354095Y-75126619D02*
X177401714Y-75221857D01*
X177401714Y-75221857D02*
X177401714Y-75317095D01*
X177401714Y-75317095D02*
X177354095Y-75459952D01*
X177354095Y-75459952D02*
X176782667Y-76031380D01*
X176782667Y-76031380D02*
X177401714Y-76031380D01*
X172987905Y-72825666D02*
X173464095Y-72825666D01*
X172892667Y-73111380D02*
X173226000Y-72111380D01*
X173226000Y-72111380D02*
X173559333Y-73111380D01*
%TO.C,U1*%
X171622095Y-134706380D02*
X171622095Y-135515904D01*
X171622095Y-135515904D02*
X171669714Y-135611142D01*
X171669714Y-135611142D02*
X171717333Y-135658761D01*
X171717333Y-135658761D02*
X171812571Y-135706380D01*
X171812571Y-135706380D02*
X172003047Y-135706380D01*
X172003047Y-135706380D02*
X172098285Y-135658761D01*
X172098285Y-135658761D02*
X172145904Y-135611142D01*
X172145904Y-135611142D02*
X172193523Y-135515904D01*
X172193523Y-135515904D02*
X172193523Y-134706380D01*
X173193523Y-135706380D02*
X172622095Y-135706380D01*
X172907809Y-135706380D02*
X172907809Y-134706380D01*
X172907809Y-134706380D02*
X172812571Y-134849238D01*
X172812571Y-134849238D02*
X172717333Y-134944476D01*
X172717333Y-134944476D02*
X172622095Y-134992095D01*
%TO.C,Q5*%
X167899119Y-103827238D02*
X167851500Y-103922476D01*
X167851500Y-103922476D02*
X167756261Y-104017714D01*
X167756261Y-104017714D02*
X167613404Y-104160571D01*
X167613404Y-104160571D02*
X167565785Y-104255809D01*
X167565785Y-104255809D02*
X167565785Y-104351047D01*
X167803880Y-104303428D02*
X167756261Y-104398666D01*
X167756261Y-104398666D02*
X167661023Y-104493904D01*
X167661023Y-104493904D02*
X167470547Y-104541523D01*
X167470547Y-104541523D02*
X167137214Y-104541523D01*
X167137214Y-104541523D02*
X166946738Y-104493904D01*
X166946738Y-104493904D02*
X166851500Y-104398666D01*
X166851500Y-104398666D02*
X166803880Y-104303428D01*
X166803880Y-104303428D02*
X166803880Y-104112952D01*
X166803880Y-104112952D02*
X166851500Y-104017714D01*
X166851500Y-104017714D02*
X166946738Y-103922476D01*
X166946738Y-103922476D02*
X167137214Y-103874857D01*
X167137214Y-103874857D02*
X167470547Y-103874857D01*
X167470547Y-103874857D02*
X167661023Y-103922476D01*
X167661023Y-103922476D02*
X167756261Y-104017714D01*
X167756261Y-104017714D02*
X167803880Y-104112952D01*
X167803880Y-104112952D02*
X167803880Y-104303428D01*
X166803880Y-102970095D02*
X166803880Y-103446285D01*
X166803880Y-103446285D02*
X167280071Y-103493904D01*
X167280071Y-103493904D02*
X167232452Y-103446285D01*
X167232452Y-103446285D02*
X167184833Y-103351047D01*
X167184833Y-103351047D02*
X167184833Y-103112952D01*
X167184833Y-103112952D02*
X167232452Y-103017714D01*
X167232452Y-103017714D02*
X167280071Y-102970095D01*
X167280071Y-102970095D02*
X167375309Y-102922476D01*
X167375309Y-102922476D02*
X167613404Y-102922476D01*
X167613404Y-102922476D02*
X167708642Y-102970095D01*
X167708642Y-102970095D02*
X167756261Y-103017714D01*
X167756261Y-103017714D02*
X167803880Y-103112952D01*
X167803880Y-103112952D02*
X167803880Y-103351047D01*
X167803880Y-103351047D02*
X167756261Y-103446285D01*
X167756261Y-103446285D02*
X167708642Y-103493904D01*
%TO.C,Q1*%
X167899119Y-86555238D02*
X167851500Y-86650476D01*
X167851500Y-86650476D02*
X167756261Y-86745714D01*
X167756261Y-86745714D02*
X167613404Y-86888571D01*
X167613404Y-86888571D02*
X167565785Y-86983809D01*
X167565785Y-86983809D02*
X167565785Y-87079047D01*
X167803880Y-87031428D02*
X167756261Y-87126666D01*
X167756261Y-87126666D02*
X167661023Y-87221904D01*
X167661023Y-87221904D02*
X167470547Y-87269523D01*
X167470547Y-87269523D02*
X167137214Y-87269523D01*
X167137214Y-87269523D02*
X166946738Y-87221904D01*
X166946738Y-87221904D02*
X166851500Y-87126666D01*
X166851500Y-87126666D02*
X166803880Y-87031428D01*
X166803880Y-87031428D02*
X166803880Y-86840952D01*
X166803880Y-86840952D02*
X166851500Y-86745714D01*
X166851500Y-86745714D02*
X166946738Y-86650476D01*
X166946738Y-86650476D02*
X167137214Y-86602857D01*
X167137214Y-86602857D02*
X167470547Y-86602857D01*
X167470547Y-86602857D02*
X167661023Y-86650476D01*
X167661023Y-86650476D02*
X167756261Y-86745714D01*
X167756261Y-86745714D02*
X167803880Y-86840952D01*
X167803880Y-86840952D02*
X167803880Y-87031428D01*
X167803880Y-85650476D02*
X167803880Y-86221904D01*
X167803880Y-85936190D02*
X166803880Y-85936190D01*
X166803880Y-85936190D02*
X166946738Y-86031428D01*
X166946738Y-86031428D02*
X167041976Y-86126666D01*
X167041976Y-86126666D02*
X167089595Y-86221904D01*
%TO.C,C4*%
X149115333Y-61130142D02*
X149067714Y-61177761D01*
X149067714Y-61177761D02*
X148924857Y-61225380D01*
X148924857Y-61225380D02*
X148829619Y-61225380D01*
X148829619Y-61225380D02*
X148686762Y-61177761D01*
X148686762Y-61177761D02*
X148591524Y-61082523D01*
X148591524Y-61082523D02*
X148543905Y-60987285D01*
X148543905Y-60987285D02*
X148496286Y-60796809D01*
X148496286Y-60796809D02*
X148496286Y-60653952D01*
X148496286Y-60653952D02*
X148543905Y-60463476D01*
X148543905Y-60463476D02*
X148591524Y-60368238D01*
X148591524Y-60368238D02*
X148686762Y-60273000D01*
X148686762Y-60273000D02*
X148829619Y-60225380D01*
X148829619Y-60225380D02*
X148924857Y-60225380D01*
X148924857Y-60225380D02*
X149067714Y-60273000D01*
X149067714Y-60273000D02*
X149115333Y-60320619D01*
X149972476Y-60558714D02*
X149972476Y-61225380D01*
X149734381Y-60177761D02*
X149496286Y-60892047D01*
X149496286Y-60892047D02*
X150115333Y-60892047D01*
%TO.C,Q3*%
X167899119Y-95191238D02*
X167851500Y-95286476D01*
X167851500Y-95286476D02*
X167756261Y-95381714D01*
X167756261Y-95381714D02*
X167613404Y-95524571D01*
X167613404Y-95524571D02*
X167565785Y-95619809D01*
X167565785Y-95619809D02*
X167565785Y-95715047D01*
X167803880Y-95667428D02*
X167756261Y-95762666D01*
X167756261Y-95762666D02*
X167661023Y-95857904D01*
X167661023Y-95857904D02*
X167470547Y-95905523D01*
X167470547Y-95905523D02*
X167137214Y-95905523D01*
X167137214Y-95905523D02*
X166946738Y-95857904D01*
X166946738Y-95857904D02*
X166851500Y-95762666D01*
X166851500Y-95762666D02*
X166803880Y-95667428D01*
X166803880Y-95667428D02*
X166803880Y-95476952D01*
X166803880Y-95476952D02*
X166851500Y-95381714D01*
X166851500Y-95381714D02*
X166946738Y-95286476D01*
X166946738Y-95286476D02*
X167137214Y-95238857D01*
X167137214Y-95238857D02*
X167470547Y-95238857D01*
X167470547Y-95238857D02*
X167661023Y-95286476D01*
X167661023Y-95286476D02*
X167756261Y-95381714D01*
X167756261Y-95381714D02*
X167803880Y-95476952D01*
X167803880Y-95476952D02*
X167803880Y-95667428D01*
X166803880Y-94905523D02*
X166803880Y-94286476D01*
X166803880Y-94286476D02*
X167184833Y-94619809D01*
X167184833Y-94619809D02*
X167184833Y-94476952D01*
X167184833Y-94476952D02*
X167232452Y-94381714D01*
X167232452Y-94381714D02*
X167280071Y-94334095D01*
X167280071Y-94334095D02*
X167375309Y-94286476D01*
X167375309Y-94286476D02*
X167613404Y-94286476D01*
X167613404Y-94286476D02*
X167708642Y-94334095D01*
X167708642Y-94334095D02*
X167756261Y-94381714D01*
X167756261Y-94381714D02*
X167803880Y-94476952D01*
X167803880Y-94476952D02*
X167803880Y-94762666D01*
X167803880Y-94762666D02*
X167756261Y-94857904D01*
X167756261Y-94857904D02*
X167708642Y-94905523D01*
%TO.C,C6*%
X156735333Y-56050142D02*
X156687714Y-56097761D01*
X156687714Y-56097761D02*
X156544857Y-56145380D01*
X156544857Y-56145380D02*
X156449619Y-56145380D01*
X156449619Y-56145380D02*
X156306762Y-56097761D01*
X156306762Y-56097761D02*
X156211524Y-56002523D01*
X156211524Y-56002523D02*
X156163905Y-55907285D01*
X156163905Y-55907285D02*
X156116286Y-55716809D01*
X156116286Y-55716809D02*
X156116286Y-55573952D01*
X156116286Y-55573952D02*
X156163905Y-55383476D01*
X156163905Y-55383476D02*
X156211524Y-55288238D01*
X156211524Y-55288238D02*
X156306762Y-55193000D01*
X156306762Y-55193000D02*
X156449619Y-55145380D01*
X156449619Y-55145380D02*
X156544857Y-55145380D01*
X156544857Y-55145380D02*
X156687714Y-55193000D01*
X156687714Y-55193000D02*
X156735333Y-55240619D01*
X157592476Y-55145380D02*
X157402000Y-55145380D01*
X157402000Y-55145380D02*
X157306762Y-55193000D01*
X157306762Y-55193000D02*
X157259143Y-55240619D01*
X157259143Y-55240619D02*
X157163905Y-55383476D01*
X157163905Y-55383476D02*
X157116286Y-55573952D01*
X157116286Y-55573952D02*
X157116286Y-55954904D01*
X157116286Y-55954904D02*
X157163905Y-56050142D01*
X157163905Y-56050142D02*
X157211524Y-56097761D01*
X157211524Y-56097761D02*
X157306762Y-56145380D01*
X157306762Y-56145380D02*
X157497238Y-56145380D01*
X157497238Y-56145380D02*
X157592476Y-56097761D01*
X157592476Y-56097761D02*
X157640095Y-56050142D01*
X157640095Y-56050142D02*
X157687714Y-55954904D01*
X157687714Y-55954904D02*
X157687714Y-55716809D01*
X157687714Y-55716809D02*
X157640095Y-55621571D01*
X157640095Y-55621571D02*
X157592476Y-55573952D01*
X157592476Y-55573952D02*
X157497238Y-55526333D01*
X157497238Y-55526333D02*
X157306762Y-55526333D01*
X157306762Y-55526333D02*
X157211524Y-55573952D01*
X157211524Y-55573952D02*
X157163905Y-55621571D01*
X157163905Y-55621571D02*
X157116286Y-55716809D01*
%TO.C,D1*%
X175877905Y-68411380D02*
X175877905Y-67411380D01*
X175877905Y-67411380D02*
X176116000Y-67411380D01*
X176116000Y-67411380D02*
X176258857Y-67459000D01*
X176258857Y-67459000D02*
X176354095Y-67554238D01*
X176354095Y-67554238D02*
X176401714Y-67649476D01*
X176401714Y-67649476D02*
X176449333Y-67839952D01*
X176449333Y-67839952D02*
X176449333Y-67982809D01*
X176449333Y-67982809D02*
X176401714Y-68173285D01*
X176401714Y-68173285D02*
X176354095Y-68268523D01*
X176354095Y-68268523D02*
X176258857Y-68363761D01*
X176258857Y-68363761D02*
X176116000Y-68411380D01*
X176116000Y-68411380D02*
X175877905Y-68411380D01*
X177401714Y-68411380D02*
X176830286Y-68411380D01*
X177116000Y-68411380D02*
X177116000Y-67411380D01*
X177116000Y-67411380D02*
X177020762Y-67554238D01*
X177020762Y-67554238D02*
X176925524Y-67649476D01*
X176925524Y-67649476D02*
X176830286Y-67697095D01*
X172987905Y-65205666D02*
X173464095Y-65205666D01*
X172892667Y-65491380D02*
X173226000Y-64491380D01*
X173226000Y-64491380D02*
X173559333Y-65491380D01*
%TO.C,C10*%
X185484543Y-78910142D02*
X185436924Y-78957761D01*
X185436924Y-78957761D02*
X185294067Y-79005380D01*
X185294067Y-79005380D02*
X185198829Y-79005380D01*
X185198829Y-79005380D02*
X185055972Y-78957761D01*
X185055972Y-78957761D02*
X184960734Y-78862523D01*
X184960734Y-78862523D02*
X184913115Y-78767285D01*
X184913115Y-78767285D02*
X184865496Y-78576809D01*
X184865496Y-78576809D02*
X184865496Y-78433952D01*
X184865496Y-78433952D02*
X184913115Y-78243476D01*
X184913115Y-78243476D02*
X184960734Y-78148238D01*
X184960734Y-78148238D02*
X185055972Y-78053000D01*
X185055972Y-78053000D02*
X185198829Y-78005380D01*
X185198829Y-78005380D02*
X185294067Y-78005380D01*
X185294067Y-78005380D02*
X185436924Y-78053000D01*
X185436924Y-78053000D02*
X185484543Y-78100619D01*
X186436924Y-79005380D02*
X185865496Y-79005380D01*
X186151210Y-79005380D02*
X186151210Y-78005380D01*
X186151210Y-78005380D02*
X186055972Y-78148238D01*
X186055972Y-78148238D02*
X185960734Y-78243476D01*
X185960734Y-78243476D02*
X185865496Y-78291095D01*
X187055972Y-78005380D02*
X187151210Y-78005380D01*
X187151210Y-78005380D02*
X187246448Y-78053000D01*
X187246448Y-78053000D02*
X187294067Y-78100619D01*
X187294067Y-78100619D02*
X187341686Y-78195857D01*
X187341686Y-78195857D02*
X187389305Y-78386333D01*
X187389305Y-78386333D02*
X187389305Y-78624428D01*
X187389305Y-78624428D02*
X187341686Y-78814904D01*
X187341686Y-78814904D02*
X187294067Y-78910142D01*
X187294067Y-78910142D02*
X187246448Y-78957761D01*
X187246448Y-78957761D02*
X187151210Y-79005380D01*
X187151210Y-79005380D02*
X187055972Y-79005380D01*
X187055972Y-79005380D02*
X186960734Y-78957761D01*
X186960734Y-78957761D02*
X186913115Y-78910142D01*
X186913115Y-78910142D02*
X186865496Y-78814904D01*
X186865496Y-78814904D02*
X186817877Y-78624428D01*
X186817877Y-78624428D02*
X186817877Y-78386333D01*
X186817877Y-78386333D02*
X186865496Y-78195857D01*
X186865496Y-78195857D02*
X186913115Y-78100619D01*
X186913115Y-78100619D02*
X186960734Y-78053000D01*
X186960734Y-78053000D02*
X187055972Y-78005380D01*
%TO.C,C7*%
X159246142Y-121944666D02*
X159293761Y-121992285D01*
X159293761Y-121992285D02*
X159341380Y-122135142D01*
X159341380Y-122135142D02*
X159341380Y-122230380D01*
X159341380Y-122230380D02*
X159293761Y-122373237D01*
X159293761Y-122373237D02*
X159198523Y-122468475D01*
X159198523Y-122468475D02*
X159103285Y-122516094D01*
X159103285Y-122516094D02*
X158912809Y-122563713D01*
X158912809Y-122563713D02*
X158769952Y-122563713D01*
X158769952Y-122563713D02*
X158579476Y-122516094D01*
X158579476Y-122516094D02*
X158484238Y-122468475D01*
X158484238Y-122468475D02*
X158389000Y-122373237D01*
X158389000Y-122373237D02*
X158341380Y-122230380D01*
X158341380Y-122230380D02*
X158341380Y-122135142D01*
X158341380Y-122135142D02*
X158389000Y-121992285D01*
X158389000Y-121992285D02*
X158436619Y-121944666D01*
X158341380Y-121611332D02*
X158341380Y-120944666D01*
X158341380Y-120944666D02*
X159341380Y-121373237D01*
%TO.C,R1*%
X170165333Y-62555380D02*
X169832000Y-62079190D01*
X169593905Y-62555380D02*
X169593905Y-61555380D01*
X169593905Y-61555380D02*
X169974857Y-61555380D01*
X169974857Y-61555380D02*
X170070095Y-61603000D01*
X170070095Y-61603000D02*
X170117714Y-61650619D01*
X170117714Y-61650619D02*
X170165333Y-61745857D01*
X170165333Y-61745857D02*
X170165333Y-61888714D01*
X170165333Y-61888714D02*
X170117714Y-61983952D01*
X170117714Y-61983952D02*
X170070095Y-62031571D01*
X170070095Y-62031571D02*
X169974857Y-62079190D01*
X169974857Y-62079190D02*
X169593905Y-62079190D01*
X171117714Y-62555380D02*
X170546286Y-62555380D01*
X170832000Y-62555380D02*
X170832000Y-61555380D01*
X170832000Y-61555380D02*
X170736762Y-61698238D01*
X170736762Y-61698238D02*
X170641524Y-61793476D01*
X170641524Y-61793476D02*
X170546286Y-61841095D01*
%TO.C,J3*%
X151222666Y-42121380D02*
X151222666Y-42835666D01*
X151222666Y-42835666D02*
X151175047Y-42978523D01*
X151175047Y-42978523D02*
X151079809Y-43073761D01*
X151079809Y-43073761D02*
X150936952Y-43121380D01*
X150936952Y-43121380D02*
X150841714Y-43121380D01*
X151603619Y-42121380D02*
X152222666Y-42121380D01*
X152222666Y-42121380D02*
X151889333Y-42502333D01*
X151889333Y-42502333D02*
X152032190Y-42502333D01*
X152032190Y-42502333D02*
X152127428Y-42549952D01*
X152127428Y-42549952D02*
X152175047Y-42597571D01*
X152175047Y-42597571D02*
X152222666Y-42692809D01*
X152222666Y-42692809D02*
X152222666Y-42930904D01*
X152222666Y-42930904D02*
X152175047Y-43026142D01*
X152175047Y-43026142D02*
X152127428Y-43073761D01*
X152127428Y-43073761D02*
X152032190Y-43121380D01*
X152032190Y-43121380D02*
X151746476Y-43121380D01*
X151746476Y-43121380D02*
X151651238Y-43073761D01*
X151651238Y-43073761D02*
X151603619Y-43026142D01*
%TO.C,b1*%
X155050380Y-52789475D02*
X154050380Y-52789475D01*
X154431333Y-52789475D02*
X154383714Y-52694237D01*
X154383714Y-52694237D02*
X154383714Y-52503761D01*
X154383714Y-52503761D02*
X154431333Y-52408523D01*
X154431333Y-52408523D02*
X154478952Y-52360904D01*
X154478952Y-52360904D02*
X154574190Y-52313285D01*
X154574190Y-52313285D02*
X154859904Y-52313285D01*
X154859904Y-52313285D02*
X154955142Y-52360904D01*
X154955142Y-52360904D02*
X155002761Y-52408523D01*
X155002761Y-52408523D02*
X155050380Y-52503761D01*
X155050380Y-52503761D02*
X155050380Y-52694237D01*
X155050380Y-52694237D02*
X155002761Y-52789475D01*
X155050380Y-51360904D02*
X155050380Y-51932332D01*
X155050380Y-51646618D02*
X154050380Y-51646618D01*
X154050380Y-51646618D02*
X154193238Y-51741856D01*
X154193238Y-51741856D02*
X154288476Y-51837094D01*
X154288476Y-51837094D02*
X154336095Y-51932332D01*
%TO.C,J4*%
X171216666Y-59937380D02*
X171216666Y-60651666D01*
X171216666Y-60651666D02*
X171169047Y-60794523D01*
X171169047Y-60794523D02*
X171073809Y-60889761D01*
X171073809Y-60889761D02*
X170930952Y-60937380D01*
X170930952Y-60937380D02*
X170835714Y-60937380D01*
X172121428Y-60270714D02*
X172121428Y-60937380D01*
X171883333Y-59889761D02*
X171645238Y-60604047D01*
X171645238Y-60604047D02*
X172264285Y-60604047D01*
%TO.C,R3*%
X170123333Y-76779380D02*
X169790000Y-76303190D01*
X169551905Y-76779380D02*
X169551905Y-75779380D01*
X169551905Y-75779380D02*
X169932857Y-75779380D01*
X169932857Y-75779380D02*
X170028095Y-75827000D01*
X170028095Y-75827000D02*
X170075714Y-75874619D01*
X170075714Y-75874619D02*
X170123333Y-75969857D01*
X170123333Y-75969857D02*
X170123333Y-76112714D01*
X170123333Y-76112714D02*
X170075714Y-76207952D01*
X170075714Y-76207952D02*
X170028095Y-76255571D01*
X170028095Y-76255571D02*
X169932857Y-76303190D01*
X169932857Y-76303190D02*
X169551905Y-76303190D01*
X170456667Y-75779380D02*
X171075714Y-75779380D01*
X171075714Y-75779380D02*
X170742381Y-76160333D01*
X170742381Y-76160333D02*
X170885238Y-76160333D01*
X170885238Y-76160333D02*
X170980476Y-76207952D01*
X170980476Y-76207952D02*
X171028095Y-76255571D01*
X171028095Y-76255571D02*
X171075714Y-76350809D01*
X171075714Y-76350809D02*
X171075714Y-76588904D01*
X171075714Y-76588904D02*
X171028095Y-76684142D01*
X171028095Y-76684142D02*
X170980476Y-76731761D01*
X170980476Y-76731761D02*
X170885238Y-76779380D01*
X170885238Y-76779380D02*
X170599524Y-76779380D01*
X170599524Y-76779380D02*
X170504286Y-76731761D01*
X170504286Y-76731761D02*
X170456667Y-76684142D01*
%TO.C,J2*%
X140554666Y-42121380D02*
X140554666Y-42835666D01*
X140554666Y-42835666D02*
X140507047Y-42978523D01*
X140507047Y-42978523D02*
X140411809Y-43073761D01*
X140411809Y-43073761D02*
X140268952Y-43121380D01*
X140268952Y-43121380D02*
X140173714Y-43121380D01*
X140983238Y-42216619D02*
X141030857Y-42169000D01*
X141030857Y-42169000D02*
X141126095Y-42121380D01*
X141126095Y-42121380D02*
X141364190Y-42121380D01*
X141364190Y-42121380D02*
X141459428Y-42169000D01*
X141459428Y-42169000D02*
X141507047Y-42216619D01*
X141507047Y-42216619D02*
X141554666Y-42311857D01*
X141554666Y-42311857D02*
X141554666Y-42407095D01*
X141554666Y-42407095D02*
X141507047Y-42549952D01*
X141507047Y-42549952D02*
X140935619Y-43121380D01*
X140935619Y-43121380D02*
X141554666Y-43121380D01*
%TO.C,Q2*%
X178377261Y-84522619D02*
X178282023Y-84475000D01*
X178282023Y-84475000D02*
X178186785Y-84379761D01*
X178186785Y-84379761D02*
X178043928Y-84236904D01*
X178043928Y-84236904D02*
X177948690Y-84189285D01*
X177948690Y-84189285D02*
X177853452Y-84189285D01*
X177901071Y-84427380D02*
X177805833Y-84379761D01*
X177805833Y-84379761D02*
X177710595Y-84284523D01*
X177710595Y-84284523D02*
X177662976Y-84094047D01*
X177662976Y-84094047D02*
X177662976Y-83760714D01*
X177662976Y-83760714D02*
X177710595Y-83570238D01*
X177710595Y-83570238D02*
X177805833Y-83475000D01*
X177805833Y-83475000D02*
X177901071Y-83427380D01*
X177901071Y-83427380D02*
X178091547Y-83427380D01*
X178091547Y-83427380D02*
X178186785Y-83475000D01*
X178186785Y-83475000D02*
X178282023Y-83570238D01*
X178282023Y-83570238D02*
X178329642Y-83760714D01*
X178329642Y-83760714D02*
X178329642Y-84094047D01*
X178329642Y-84094047D02*
X178282023Y-84284523D01*
X178282023Y-84284523D02*
X178186785Y-84379761D01*
X178186785Y-84379761D02*
X178091547Y-84427380D01*
X178091547Y-84427380D02*
X177901071Y-84427380D01*
X178710595Y-83522619D02*
X178758214Y-83475000D01*
X178758214Y-83475000D02*
X178853452Y-83427380D01*
X178853452Y-83427380D02*
X179091547Y-83427380D01*
X179091547Y-83427380D02*
X179186785Y-83475000D01*
X179186785Y-83475000D02*
X179234404Y-83522619D01*
X179234404Y-83522619D02*
X179282023Y-83617857D01*
X179282023Y-83617857D02*
X179282023Y-83713095D01*
X179282023Y-83713095D02*
X179234404Y-83855952D01*
X179234404Y-83855952D02*
X178662976Y-84427380D01*
X178662976Y-84427380D02*
X179282023Y-84427380D01*
%TO.C,C9*%
X185960734Y-70274142D02*
X185913115Y-70321761D01*
X185913115Y-70321761D02*
X185770258Y-70369380D01*
X185770258Y-70369380D02*
X185675020Y-70369380D01*
X185675020Y-70369380D02*
X185532163Y-70321761D01*
X185532163Y-70321761D02*
X185436925Y-70226523D01*
X185436925Y-70226523D02*
X185389306Y-70131285D01*
X185389306Y-70131285D02*
X185341687Y-69940809D01*
X185341687Y-69940809D02*
X185341687Y-69797952D01*
X185341687Y-69797952D02*
X185389306Y-69607476D01*
X185389306Y-69607476D02*
X185436925Y-69512238D01*
X185436925Y-69512238D02*
X185532163Y-69417000D01*
X185532163Y-69417000D02*
X185675020Y-69369380D01*
X185675020Y-69369380D02*
X185770258Y-69369380D01*
X185770258Y-69369380D02*
X185913115Y-69417000D01*
X185913115Y-69417000D02*
X185960734Y-69464619D01*
X186436925Y-70369380D02*
X186627401Y-70369380D01*
X186627401Y-70369380D02*
X186722639Y-70321761D01*
X186722639Y-70321761D02*
X186770258Y-70274142D01*
X186770258Y-70274142D02*
X186865496Y-70131285D01*
X186865496Y-70131285D02*
X186913115Y-69940809D01*
X186913115Y-69940809D02*
X186913115Y-69559857D01*
X186913115Y-69559857D02*
X186865496Y-69464619D01*
X186865496Y-69464619D02*
X186817877Y-69417000D01*
X186817877Y-69417000D02*
X186722639Y-69369380D01*
X186722639Y-69369380D02*
X186532163Y-69369380D01*
X186532163Y-69369380D02*
X186436925Y-69417000D01*
X186436925Y-69417000D02*
X186389306Y-69464619D01*
X186389306Y-69464619D02*
X186341687Y-69559857D01*
X186341687Y-69559857D02*
X186341687Y-69797952D01*
X186341687Y-69797952D02*
X186389306Y-69893190D01*
X186389306Y-69893190D02*
X186436925Y-69940809D01*
X186436925Y-69940809D02*
X186532163Y-69988428D01*
X186532163Y-69988428D02*
X186722639Y-69988428D01*
X186722639Y-69988428D02*
X186817877Y-69940809D01*
X186817877Y-69940809D02*
X186865496Y-69893190D01*
X186865496Y-69893190D02*
X186913115Y-69797952D01*
%TO.C,R2*%
X170123333Y-70175380D02*
X169790000Y-69699190D01*
X169551905Y-70175380D02*
X169551905Y-69175380D01*
X169551905Y-69175380D02*
X169932857Y-69175380D01*
X169932857Y-69175380D02*
X170028095Y-69223000D01*
X170028095Y-69223000D02*
X170075714Y-69270619D01*
X170075714Y-69270619D02*
X170123333Y-69365857D01*
X170123333Y-69365857D02*
X170123333Y-69508714D01*
X170123333Y-69508714D02*
X170075714Y-69603952D01*
X170075714Y-69603952D02*
X170028095Y-69651571D01*
X170028095Y-69651571D02*
X169932857Y-69699190D01*
X169932857Y-69699190D02*
X169551905Y-69699190D01*
X170504286Y-69270619D02*
X170551905Y-69223000D01*
X170551905Y-69223000D02*
X170647143Y-69175380D01*
X170647143Y-69175380D02*
X170885238Y-69175380D01*
X170885238Y-69175380D02*
X170980476Y-69223000D01*
X170980476Y-69223000D02*
X171028095Y-69270619D01*
X171028095Y-69270619D02*
X171075714Y-69365857D01*
X171075714Y-69365857D02*
X171075714Y-69461095D01*
X171075714Y-69461095D02*
X171028095Y-69603952D01*
X171028095Y-69603952D02*
X170456667Y-70175380D01*
X170456667Y-70175380D02*
X171075714Y-70175380D01*
%TO.C,C8*%
X185960734Y-62146142D02*
X185913115Y-62193761D01*
X185913115Y-62193761D02*
X185770258Y-62241380D01*
X185770258Y-62241380D02*
X185675020Y-62241380D01*
X185675020Y-62241380D02*
X185532163Y-62193761D01*
X185532163Y-62193761D02*
X185436925Y-62098523D01*
X185436925Y-62098523D02*
X185389306Y-62003285D01*
X185389306Y-62003285D02*
X185341687Y-61812809D01*
X185341687Y-61812809D02*
X185341687Y-61669952D01*
X185341687Y-61669952D02*
X185389306Y-61479476D01*
X185389306Y-61479476D02*
X185436925Y-61384238D01*
X185436925Y-61384238D02*
X185532163Y-61289000D01*
X185532163Y-61289000D02*
X185675020Y-61241380D01*
X185675020Y-61241380D02*
X185770258Y-61241380D01*
X185770258Y-61241380D02*
X185913115Y-61289000D01*
X185913115Y-61289000D02*
X185960734Y-61336619D01*
X186532163Y-61669952D02*
X186436925Y-61622333D01*
X186436925Y-61622333D02*
X186389306Y-61574714D01*
X186389306Y-61574714D02*
X186341687Y-61479476D01*
X186341687Y-61479476D02*
X186341687Y-61431857D01*
X186341687Y-61431857D02*
X186389306Y-61336619D01*
X186389306Y-61336619D02*
X186436925Y-61289000D01*
X186436925Y-61289000D02*
X186532163Y-61241380D01*
X186532163Y-61241380D02*
X186722639Y-61241380D01*
X186722639Y-61241380D02*
X186817877Y-61289000D01*
X186817877Y-61289000D02*
X186865496Y-61336619D01*
X186865496Y-61336619D02*
X186913115Y-61431857D01*
X186913115Y-61431857D02*
X186913115Y-61479476D01*
X186913115Y-61479476D02*
X186865496Y-61574714D01*
X186865496Y-61574714D02*
X186817877Y-61622333D01*
X186817877Y-61622333D02*
X186722639Y-61669952D01*
X186722639Y-61669952D02*
X186532163Y-61669952D01*
X186532163Y-61669952D02*
X186436925Y-61717571D01*
X186436925Y-61717571D02*
X186389306Y-61765190D01*
X186389306Y-61765190D02*
X186341687Y-61860428D01*
X186341687Y-61860428D02*
X186341687Y-62050904D01*
X186341687Y-62050904D02*
X186389306Y-62146142D01*
X186389306Y-62146142D02*
X186436925Y-62193761D01*
X186436925Y-62193761D02*
X186532163Y-62241380D01*
X186532163Y-62241380D02*
X186722639Y-62241380D01*
X186722639Y-62241380D02*
X186817877Y-62193761D01*
X186817877Y-62193761D02*
X186865496Y-62146142D01*
X186865496Y-62146142D02*
X186913115Y-62050904D01*
X186913115Y-62050904D02*
X186913115Y-61860428D01*
X186913115Y-61860428D02*
X186865496Y-61765190D01*
X186865496Y-61765190D02*
X186817877Y-61717571D01*
X186817877Y-61717571D02*
X186722639Y-61669952D01*
%TO.C,C3*%
X138955333Y-61130142D02*
X138907714Y-61177761D01*
X138907714Y-61177761D02*
X138764857Y-61225380D01*
X138764857Y-61225380D02*
X138669619Y-61225380D01*
X138669619Y-61225380D02*
X138526762Y-61177761D01*
X138526762Y-61177761D02*
X138431524Y-61082523D01*
X138431524Y-61082523D02*
X138383905Y-60987285D01*
X138383905Y-60987285D02*
X138336286Y-60796809D01*
X138336286Y-60796809D02*
X138336286Y-60653952D01*
X138336286Y-60653952D02*
X138383905Y-60463476D01*
X138383905Y-60463476D02*
X138431524Y-60368238D01*
X138431524Y-60368238D02*
X138526762Y-60273000D01*
X138526762Y-60273000D02*
X138669619Y-60225380D01*
X138669619Y-60225380D02*
X138764857Y-60225380D01*
X138764857Y-60225380D02*
X138907714Y-60273000D01*
X138907714Y-60273000D02*
X138955333Y-60320619D01*
X139288667Y-60225380D02*
X139907714Y-60225380D01*
X139907714Y-60225380D02*
X139574381Y-60606333D01*
X139574381Y-60606333D02*
X139717238Y-60606333D01*
X139717238Y-60606333D02*
X139812476Y-60653952D01*
X139812476Y-60653952D02*
X139860095Y-60701571D01*
X139860095Y-60701571D02*
X139907714Y-60796809D01*
X139907714Y-60796809D02*
X139907714Y-61034904D01*
X139907714Y-61034904D02*
X139860095Y-61130142D01*
X139860095Y-61130142D02*
X139812476Y-61177761D01*
X139812476Y-61177761D02*
X139717238Y-61225380D01*
X139717238Y-61225380D02*
X139431524Y-61225380D01*
X139431524Y-61225380D02*
X139336286Y-61177761D01*
X139336286Y-61177761D02*
X139288667Y-61130142D01*
D11*
%TO.C,A1*%
X133600000Y-96060000D02*
X133600000Y-98730000D01*
X133600000Y-101270000D02*
X133600000Y-139500000D01*
X133600000Y-139500000D02*
X151640000Y-139500000D01*
X136270000Y-98730000D02*
X133600000Y-98730000D01*
X136270000Y-101270000D02*
X133600000Y-101270000D01*
X136270000Y-101270000D02*
X136270000Y-98730000D01*
X136270000Y-101270000D02*
X136270000Y-136830000D01*
X136270000Y-136830000D02*
X133600000Y-136830000D01*
X148970000Y-98730000D02*
X148970000Y-136830000D01*
X148970000Y-98730000D02*
X151640000Y-98730000D01*
X148970000Y-136830000D02*
X151640000Y-136830000D01*
X151640000Y-96060000D02*
X133600000Y-96060000D01*
X151640000Y-139500000D02*
X151640000Y-96060000D01*
%TO.C,C2*%
X139392199Y-90853000D02*
X139792199Y-90853000D01*
X139592199Y-90653000D02*
X139592199Y-91053000D01*
X141662000Y-89968000D02*
X141662000Y-91208000D01*
X141662000Y-92888000D02*
X141662000Y-94128000D01*
X141702000Y-89968000D02*
X141702000Y-91208000D01*
X141702000Y-92888000D02*
X141702000Y-94128000D01*
X141742000Y-89969000D02*
X141742000Y-91208000D01*
X141742000Y-92888000D02*
X141742000Y-94127000D01*
X141782000Y-89971000D02*
X141782000Y-91208000D01*
X141782000Y-92888000D02*
X141782000Y-94125000D01*
X141822000Y-89974000D02*
X141822000Y-91208000D01*
X141822000Y-92888000D02*
X141822000Y-94122000D01*
X141862000Y-89977000D02*
X141862000Y-91208000D01*
X141862000Y-92888000D02*
X141862000Y-94119000D01*
X141902000Y-89981000D02*
X141902000Y-91208000D01*
X141902000Y-92888000D02*
X141902000Y-94115000D01*
X141942000Y-89986000D02*
X141942000Y-91208000D01*
X141942000Y-92888000D02*
X141942000Y-94110000D01*
X141982000Y-89992000D02*
X141982000Y-91208000D01*
X141982000Y-92888000D02*
X141982000Y-94104000D01*
X142022000Y-89998000D02*
X142022000Y-91208000D01*
X142022000Y-92888000D02*
X142022000Y-94098000D01*
X142062000Y-90006000D02*
X142062000Y-91208000D01*
X142062000Y-92888000D02*
X142062000Y-94090000D01*
X142102000Y-90014000D02*
X142102000Y-91208000D01*
X142102000Y-92888000D02*
X142102000Y-94082000D01*
X142142000Y-90023000D02*
X142142000Y-91208000D01*
X142142000Y-92888000D02*
X142142000Y-94073000D01*
X142182000Y-90032000D02*
X142182000Y-91208000D01*
X142182000Y-92888000D02*
X142182000Y-94064000D01*
X142222000Y-90043000D02*
X142222000Y-91208000D01*
X142222000Y-92888000D02*
X142222000Y-94053000D01*
X142262000Y-90054000D02*
X142262000Y-91208000D01*
X142262000Y-92888000D02*
X142262000Y-94042000D01*
X142302000Y-90066000D02*
X142302000Y-91208000D01*
X142302000Y-92888000D02*
X142302000Y-94030000D01*
X142342000Y-90080000D02*
X142342000Y-91208000D01*
X142342000Y-92888000D02*
X142342000Y-94016000D01*
X142383000Y-90094000D02*
X142383000Y-91208000D01*
X142383000Y-92888000D02*
X142383000Y-94002000D01*
X142423000Y-90108000D02*
X142423000Y-91208000D01*
X142423000Y-92888000D02*
X142423000Y-93988000D01*
X142463000Y-90124000D02*
X142463000Y-91208000D01*
X142463000Y-92888000D02*
X142463000Y-93972000D01*
X142503000Y-90141000D02*
X142503000Y-91208000D01*
X142503000Y-92888000D02*
X142503000Y-93955000D01*
X142543000Y-90159000D02*
X142543000Y-91208000D01*
X142543000Y-92888000D02*
X142543000Y-93937000D01*
X142583000Y-90178000D02*
X142583000Y-91208000D01*
X142583000Y-92888000D02*
X142583000Y-93918000D01*
X142623000Y-90197000D02*
X142623000Y-91208000D01*
X142623000Y-92888000D02*
X142623000Y-93899000D01*
X142663000Y-90218000D02*
X142663000Y-91208000D01*
X142663000Y-92888000D02*
X142663000Y-93878000D01*
X142703000Y-90240000D02*
X142703000Y-91208000D01*
X142703000Y-92888000D02*
X142703000Y-93856000D01*
X142743000Y-90263000D02*
X142743000Y-91208000D01*
X142743000Y-92888000D02*
X142743000Y-93833000D01*
X142783000Y-90288000D02*
X142783000Y-91208000D01*
X142783000Y-92888000D02*
X142783000Y-93808000D01*
X142823000Y-90313000D02*
X142823000Y-91208000D01*
X142823000Y-92888000D02*
X142823000Y-93783000D01*
X142863000Y-90340000D02*
X142863000Y-91208000D01*
X142863000Y-92888000D02*
X142863000Y-93756000D01*
X142903000Y-90368000D02*
X142903000Y-91208000D01*
X142903000Y-92888000D02*
X142903000Y-93728000D01*
X142943000Y-90398000D02*
X142943000Y-91208000D01*
X142943000Y-92888000D02*
X142943000Y-93698000D01*
X142983000Y-90429000D02*
X142983000Y-91208000D01*
X142983000Y-92888000D02*
X142983000Y-93667000D01*
X143023000Y-90461000D02*
X143023000Y-91208000D01*
X143023000Y-92888000D02*
X143023000Y-93635000D01*
X143063000Y-90496000D02*
X143063000Y-91208000D01*
X143063000Y-92888000D02*
X143063000Y-93600000D01*
X143103000Y-90532000D02*
X143103000Y-91208000D01*
X143103000Y-92888000D02*
X143103000Y-93564000D01*
X143143000Y-90570000D02*
X143143000Y-91208000D01*
X143143000Y-92888000D02*
X143143000Y-93526000D01*
X143183000Y-90610000D02*
X143183000Y-91208000D01*
X143183000Y-92888000D02*
X143183000Y-93486000D01*
X143223000Y-90652000D02*
X143223000Y-91208000D01*
X143223000Y-92888000D02*
X143223000Y-93444000D01*
X143263000Y-90697000D02*
X143263000Y-93399000D01*
X143303000Y-90744000D02*
X143303000Y-93352000D01*
X143343000Y-90794000D02*
X143343000Y-93302000D01*
X143383000Y-90848000D02*
X143383000Y-93248000D01*
X143423000Y-90906000D02*
X143423000Y-93190000D01*
X143463000Y-90968000D02*
X143463000Y-93128000D01*
X143503000Y-91035000D02*
X143503000Y-93061000D01*
X143543000Y-91108000D02*
X143543000Y-92988000D01*
X143583000Y-91189000D02*
X143583000Y-92907000D01*
X143623000Y-91280000D02*
X143623000Y-92816000D01*
X143663000Y-91384000D02*
X143663000Y-92712000D01*
X143703000Y-91511000D02*
X143703000Y-92585000D01*
X143743000Y-91678000D02*
X143743000Y-92418000D01*
X143782000Y-92048000D02*
G75*
G03*
X143782000Y-92048000I-2120000J0D01*
G01*
%TO.C,J1*%
X119510000Y-77470000D02*
X119510000Y-102990000D01*
X119510000Y-77470000D02*
X128140000Y-77470000D01*
X119510000Y-77590000D02*
X128140000Y-77590000D01*
X119510000Y-77708095D02*
X128140000Y-77708095D01*
X119510000Y-77826190D02*
X128140000Y-77826190D01*
X119510000Y-77944285D02*
X128140000Y-77944285D01*
X119510000Y-78062380D02*
X128140000Y-78062380D01*
X119510000Y-78180475D02*
X128140000Y-78180475D01*
X119510000Y-78298570D02*
X128140000Y-78298570D01*
X119510000Y-78416665D02*
X128140000Y-78416665D01*
X119510000Y-78534760D02*
X128140000Y-78534760D01*
X119510000Y-78652855D02*
X128140000Y-78652855D01*
X119510000Y-78770950D02*
X128140000Y-78770950D01*
X119510000Y-78889045D02*
X128140000Y-78889045D01*
X119510000Y-79007140D02*
X128140000Y-79007140D01*
X119510000Y-79125235D02*
X128140000Y-79125235D01*
X119510000Y-79243330D02*
X128140000Y-79243330D01*
X119510000Y-79361425D02*
X128140000Y-79361425D01*
X119510000Y-79479520D02*
X128140000Y-79479520D01*
X119510000Y-79597615D02*
X128140000Y-79597615D01*
X119510000Y-79715710D02*
X128140000Y-79715710D01*
X119510000Y-79833805D02*
X128140000Y-79833805D01*
X119510000Y-79951900D02*
X128140000Y-79951900D01*
X119510000Y-80070000D02*
X128140000Y-80070000D01*
X119510000Y-82610000D02*
X128140000Y-82610000D01*
X119510000Y-85150000D02*
X128140000Y-85150000D01*
X119510000Y-87690000D02*
X128140000Y-87690000D01*
X119510000Y-90230000D02*
X128140000Y-90230000D01*
X119510000Y-92770000D02*
X128140000Y-92770000D01*
X119510000Y-95310000D02*
X128140000Y-95310000D01*
X119510000Y-97850000D02*
X128140000Y-97850000D01*
X119510000Y-100390000D02*
X128140000Y-100390000D01*
X119510000Y-102990000D02*
X128140000Y-102990000D01*
X128140000Y-77470000D02*
X128140000Y-102990000D01*
X128140000Y-78440000D02*
X128490000Y-78440000D01*
X128140000Y-79160000D02*
X128490000Y-79160000D01*
X128140000Y-80980000D02*
X128550000Y-80980000D01*
X128140000Y-81700000D02*
X128550000Y-81700000D01*
X128140000Y-83520000D02*
X128550000Y-83520000D01*
X128140000Y-84240000D02*
X128550000Y-84240000D01*
X128140000Y-86060000D02*
X128550000Y-86060000D01*
X128140000Y-86780000D02*
X128550000Y-86780000D01*
X128140000Y-88600000D02*
X128550000Y-88600000D01*
X128140000Y-89320000D02*
X128550000Y-89320000D01*
X128140000Y-91140000D02*
X128550000Y-91140000D01*
X128140000Y-91860000D02*
X128550000Y-91860000D01*
X128140000Y-93680000D02*
X128550000Y-93680000D01*
X128140000Y-94400000D02*
X128550000Y-94400000D01*
X128140000Y-96220000D02*
X128550000Y-96220000D01*
X128140000Y-96940000D02*
X128550000Y-96940000D01*
X128140000Y-98760000D02*
X128550000Y-98760000D01*
X128140000Y-99480000D02*
X128550000Y-99480000D01*
X128140000Y-101300000D02*
X128550000Y-101300000D01*
X128140000Y-102020000D02*
X128550000Y-102020000D01*
X129600000Y-77470000D02*
X130710000Y-77470000D01*
X130710000Y-77470000D02*
X130710000Y-78800000D01*
%TO.C,C1*%
X134073600Y-90853000D02*
X134473600Y-90853000D01*
X134273600Y-90653000D02*
X134273600Y-91053000D01*
X136343401Y-89968000D02*
X136343401Y-91208000D01*
X136343401Y-92888000D02*
X136343401Y-94128000D01*
X136383401Y-89968000D02*
X136383401Y-91208000D01*
X136383401Y-92888000D02*
X136383401Y-94128000D01*
X136423401Y-89969000D02*
X136423401Y-91208000D01*
X136423401Y-92888000D02*
X136423401Y-94127000D01*
X136463401Y-89971000D02*
X136463401Y-91208000D01*
X136463401Y-92888000D02*
X136463401Y-94125000D01*
X136503401Y-89974000D02*
X136503401Y-91208000D01*
X136503401Y-92888000D02*
X136503401Y-94122000D01*
X136543401Y-89977000D02*
X136543401Y-91208000D01*
X136543401Y-92888000D02*
X136543401Y-94119000D01*
X136583401Y-89981000D02*
X136583401Y-91208000D01*
X136583401Y-92888000D02*
X136583401Y-94115000D01*
X136623401Y-89986000D02*
X136623401Y-91208000D01*
X136623401Y-92888000D02*
X136623401Y-94110000D01*
X136663401Y-89992000D02*
X136663401Y-91208000D01*
X136663401Y-92888000D02*
X136663401Y-94104000D01*
X136703401Y-89998000D02*
X136703401Y-91208000D01*
X136703401Y-92888000D02*
X136703401Y-94098000D01*
X136743401Y-90006000D02*
X136743401Y-91208000D01*
X136743401Y-92888000D02*
X136743401Y-94090000D01*
X136783401Y-90014000D02*
X136783401Y-91208000D01*
X136783401Y-92888000D02*
X136783401Y-94082000D01*
X136823401Y-90023000D02*
X136823401Y-91208000D01*
X136823401Y-92888000D02*
X136823401Y-94073000D01*
X136863401Y-90032000D02*
X136863401Y-91208000D01*
X136863401Y-92888000D02*
X136863401Y-94064000D01*
X136903401Y-90043000D02*
X136903401Y-91208000D01*
X136903401Y-92888000D02*
X136903401Y-94053000D01*
X136943401Y-90054000D02*
X136943401Y-91208000D01*
X136943401Y-92888000D02*
X136943401Y-94042000D01*
X136983401Y-90066000D02*
X136983401Y-91208000D01*
X136983401Y-92888000D02*
X136983401Y-94030000D01*
X137023401Y-90080000D02*
X137023401Y-91208000D01*
X137023401Y-92888000D02*
X137023401Y-94016000D01*
X137064401Y-90094000D02*
X137064401Y-91208000D01*
X137064401Y-92888000D02*
X137064401Y-94002000D01*
X137104401Y-90108000D02*
X137104401Y-91208000D01*
X137104401Y-92888000D02*
X137104401Y-93988000D01*
X137144401Y-90124000D02*
X137144401Y-91208000D01*
X137144401Y-92888000D02*
X137144401Y-93972000D01*
X137184401Y-90141000D02*
X137184401Y-91208000D01*
X137184401Y-92888000D02*
X137184401Y-93955000D01*
X137224401Y-90159000D02*
X137224401Y-91208000D01*
X137224401Y-92888000D02*
X137224401Y-93937000D01*
X137264401Y-90178000D02*
X137264401Y-91208000D01*
X137264401Y-92888000D02*
X137264401Y-93918000D01*
X137304401Y-90197000D02*
X137304401Y-91208000D01*
X137304401Y-92888000D02*
X137304401Y-93899000D01*
X137344401Y-90218000D02*
X137344401Y-91208000D01*
X137344401Y-92888000D02*
X137344401Y-93878000D01*
X137384401Y-90240000D02*
X137384401Y-91208000D01*
X137384401Y-92888000D02*
X137384401Y-93856000D01*
X137424401Y-90263000D02*
X137424401Y-91208000D01*
X137424401Y-92888000D02*
X137424401Y-93833000D01*
X137464401Y-90288000D02*
X137464401Y-91208000D01*
X137464401Y-92888000D02*
X137464401Y-93808000D01*
X137504401Y-90313000D02*
X137504401Y-91208000D01*
X137504401Y-92888000D02*
X137504401Y-93783000D01*
X137544401Y-90340000D02*
X137544401Y-91208000D01*
X137544401Y-92888000D02*
X137544401Y-93756000D01*
X137584401Y-90368000D02*
X137584401Y-91208000D01*
X137584401Y-92888000D02*
X137584401Y-93728000D01*
X137624401Y-90398000D02*
X137624401Y-91208000D01*
X137624401Y-92888000D02*
X137624401Y-93698000D01*
X137664401Y-90429000D02*
X137664401Y-91208000D01*
X137664401Y-92888000D02*
X137664401Y-93667000D01*
X137704401Y-90461000D02*
X137704401Y-91208000D01*
X137704401Y-92888000D02*
X137704401Y-93635000D01*
X137744401Y-90496000D02*
X137744401Y-91208000D01*
X137744401Y-92888000D02*
X137744401Y-93600000D01*
X137784401Y-90532000D02*
X137784401Y-91208000D01*
X137784401Y-92888000D02*
X137784401Y-93564000D01*
X137824401Y-90570000D02*
X137824401Y-91208000D01*
X137824401Y-92888000D02*
X137824401Y-93526000D01*
X137864401Y-90610000D02*
X137864401Y-91208000D01*
X137864401Y-92888000D02*
X137864401Y-93486000D01*
X137904401Y-90652000D02*
X137904401Y-91208000D01*
X137904401Y-92888000D02*
X137904401Y-93444000D01*
X137944401Y-90697000D02*
X137944401Y-93399000D01*
X137984401Y-90744000D02*
X137984401Y-93352000D01*
X138024401Y-90794000D02*
X138024401Y-93302000D01*
X138064401Y-90848000D02*
X138064401Y-93248000D01*
X138104401Y-90906000D02*
X138104401Y-93190000D01*
X138144401Y-90968000D02*
X138144401Y-93128000D01*
X138184401Y-91035000D02*
X138184401Y-93061000D01*
X138224401Y-91108000D02*
X138224401Y-92988000D01*
X138264401Y-91189000D02*
X138264401Y-92907000D01*
X138304401Y-91280000D02*
X138304401Y-92816000D01*
X138344401Y-91384000D02*
X138344401Y-92712000D01*
X138384401Y-91511000D02*
X138384401Y-92585000D01*
X138424401Y-91678000D02*
X138424401Y-92418000D01*
X138463401Y-92048000D02*
G75*
G03*
X138463401Y-92048000I-2120000J0D01*
G01*
%TO.C,Logo1*%
G36*
X157699814Y-125076931D02*
G01*
X157783635Y-125521555D01*
X158092920Y-125649053D01*
X158402206Y-125776551D01*
X158773246Y-125524246D01*
X158877157Y-125453996D01*
X158971087Y-125391272D01*
X159050652Y-125338938D01*
X159111470Y-125299857D01*
X159149157Y-125276893D01*
X159159421Y-125271942D01*
X159177910Y-125284676D01*
X159217420Y-125319882D01*
X159273522Y-125373062D01*
X159341787Y-125439718D01*
X159417786Y-125515354D01*
X159497092Y-125595472D01*
X159575275Y-125675574D01*
X159647907Y-125751164D01*
X159710559Y-125817745D01*
X159758803Y-125870818D01*
X159788210Y-125905887D01*
X159795241Y-125917623D01*
X159785123Y-125939260D01*
X159756759Y-125986662D01*
X159713129Y-126055193D01*
X159657218Y-126140215D01*
X159592006Y-126237093D01*
X159554219Y-126292350D01*
X159485343Y-126393248D01*
X159424140Y-126484299D01*
X159373578Y-126560970D01*
X159336628Y-126618728D01*
X159316258Y-126653043D01*
X159313197Y-126660254D01*
X159320136Y-126680748D01*
X159339051Y-126728513D01*
X159367087Y-126796832D01*
X159401391Y-126878989D01*
X159439109Y-126968270D01*
X159477387Y-127057958D01*
X159513370Y-127141338D01*
X159544206Y-127211694D01*
X159567039Y-127262310D01*
X159579017Y-127286471D01*
X159579724Y-127287422D01*
X159598531Y-127292036D01*
X159648618Y-127302328D01*
X159724793Y-127317287D01*
X159821865Y-127335901D01*
X159934643Y-127357159D01*
X160000442Y-127369418D01*
X160120950Y-127392362D01*
X160229797Y-127414195D01*
X160321476Y-127433722D01*
X160390481Y-127449748D01*
X160431304Y-127461079D01*
X160439511Y-127464674D01*
X160447548Y-127489006D01*
X160454033Y-127543959D01*
X160458970Y-127623108D01*
X160462364Y-127720026D01*
X160464218Y-127828287D01*
X160464538Y-127941465D01*
X160463327Y-128053135D01*
X160460590Y-128156868D01*
X160456331Y-128246241D01*
X160450555Y-128314826D01*
X160443267Y-128356197D01*
X160438895Y-128364810D01*
X160412764Y-128375133D01*
X160357393Y-128389892D01*
X160280107Y-128407352D01*
X160188230Y-128425780D01*
X160156158Y-128431741D01*
X160001524Y-128460066D01*
X159879375Y-128482876D01*
X159785673Y-128501080D01*
X159716384Y-128515583D01*
X159667471Y-128527292D01*
X159634897Y-128537115D01*
X159614628Y-128545956D01*
X159602626Y-128554724D01*
X159600947Y-128556457D01*
X159584184Y-128584371D01*
X159558614Y-128638695D01*
X159526788Y-128712777D01*
X159491260Y-128799965D01*
X159454583Y-128893608D01*
X159419311Y-128987052D01*
X159387996Y-129073647D01*
X159363193Y-129146740D01*
X159347454Y-129199678D01*
X159343332Y-129225811D01*
X159343676Y-129226726D01*
X159357641Y-129248086D01*
X159389322Y-129295084D01*
X159435391Y-129362827D01*
X159492518Y-129446423D01*
X159557373Y-129540982D01*
X159575843Y-129567854D01*
X159641699Y-129665275D01*
X159699650Y-129754163D01*
X159746538Y-129829412D01*
X159779207Y-129885920D01*
X159794500Y-129918581D01*
X159795241Y-129922593D01*
X159782392Y-129943684D01*
X159746888Y-129985464D01*
X159693293Y-130043445D01*
X159626171Y-130113135D01*
X159550087Y-130190045D01*
X159469604Y-130269683D01*
X159389287Y-130347561D01*
X159313699Y-130419186D01*
X159247405Y-130480070D01*
X159194969Y-130525721D01*
X159160955Y-130551650D01*
X159151545Y-130555883D01*
X159129643Y-130545912D01*
X159084800Y-130519020D01*
X159024321Y-130479736D01*
X158977789Y-130448117D01*
X158893475Y-130390098D01*
X158793626Y-130321784D01*
X158693473Y-130253579D01*
X158639627Y-130217075D01*
X158457371Y-130093800D01*
X158304381Y-130176520D01*
X158234682Y-130212759D01*
X158175414Y-130240926D01*
X158135311Y-130256991D01*
X158125103Y-130259226D01*
X158112829Y-130242722D01*
X158088613Y-130196082D01*
X158054263Y-130123609D01*
X158011588Y-130029606D01*
X157962394Y-129918374D01*
X157908490Y-129794215D01*
X157851684Y-129661432D01*
X157793782Y-129524327D01*
X157736593Y-129387202D01*
X157681924Y-129254358D01*
X157631584Y-129130098D01*
X157587380Y-129018725D01*
X157551119Y-128924539D01*
X157524609Y-128851844D01*
X157509658Y-128804941D01*
X157507254Y-128788833D01*
X157526311Y-128768286D01*
X157568036Y-128734933D01*
X157623706Y-128695702D01*
X157628378Y-128692599D01*
X157772264Y-128577423D01*
X157888283Y-128443053D01*
X157975430Y-128293784D01*
X158032699Y-128133913D01*
X158059086Y-127967737D01*
X158053585Y-127799552D01*
X158015190Y-127633655D01*
X157942895Y-127474342D01*
X157921626Y-127439487D01*
X157810996Y-127298737D01*
X157680302Y-127185714D01*
X157534064Y-127101003D01*
X157376808Y-127045194D01*
X157213057Y-127018874D01*
X157047333Y-127022630D01*
X156884162Y-127057050D01*
X156728065Y-127122723D01*
X156583567Y-127220235D01*
X156538869Y-127259813D01*
X156425112Y-127383703D01*
X156342218Y-127514124D01*
X156285356Y-127660315D01*
X156253687Y-127805088D01*
X156245869Y-127967860D01*
X156271938Y-128131440D01*
X156329245Y-128290298D01*
X156415144Y-128438906D01*
X156526986Y-128571735D01*
X156662123Y-128683256D01*
X156679883Y-128695011D01*
X156736150Y-128733508D01*
X156778923Y-128766863D01*
X156799372Y-128788160D01*
X156799669Y-128788833D01*
X156795279Y-128811871D01*
X156777876Y-128864157D01*
X156749268Y-128941390D01*
X156711265Y-129039268D01*
X156665674Y-129153491D01*
X156614303Y-129279758D01*
X156558962Y-129413767D01*
X156501458Y-129551218D01*
X156443601Y-129687808D01*
X156387198Y-129819237D01*
X156334058Y-129941205D01*
X156285990Y-130049409D01*
X156244801Y-130139549D01*
X156212301Y-130207323D01*
X156190297Y-130248430D01*
X156181436Y-130259226D01*
X156154360Y-130250819D01*
X156103697Y-130228272D01*
X156038183Y-130195613D01*
X156002159Y-130176520D01*
X155849168Y-130093800D01*
X155666912Y-130217075D01*
X155573875Y-130280228D01*
X155472015Y-130349727D01*
X155376562Y-130415165D01*
X155328750Y-130448117D01*
X155261505Y-130493273D01*
X155204564Y-130529057D01*
X155165354Y-130550938D01*
X155152619Y-130555563D01*
X155134083Y-130543085D01*
X155093059Y-130508252D01*
X155033525Y-130454678D01*
X154959458Y-130385983D01*
X154874835Y-130305781D01*
X154821315Y-130254286D01*
X154727681Y-130162286D01*
X154646759Y-130079999D01*
X154581823Y-130010945D01*
X154536142Y-129958644D01*
X154512989Y-129926616D01*
X154510768Y-129920116D01*
X154521076Y-129895394D01*
X154549561Y-129845405D01*
X154593063Y-129775212D01*
X154648423Y-129689875D01*
X154712480Y-129594456D01*
X154730697Y-129567854D01*
X154797073Y-129471167D01*
X154856622Y-129384117D01*
X154906016Y-129311595D01*
X154941925Y-129258493D01*
X154961019Y-129229703D01*
X154962864Y-129226726D01*
X154960105Y-129203782D01*
X154945462Y-129153336D01*
X154921487Y-129082041D01*
X154890734Y-128996547D01*
X154855756Y-128903507D01*
X154819107Y-128809574D01*
X154783339Y-128721399D01*
X154751006Y-128645634D01*
X154724662Y-128588931D01*
X154706858Y-128557943D01*
X154705593Y-128556457D01*
X154694706Y-128547601D01*
X154676318Y-128538843D01*
X154646394Y-128529277D01*
X154600897Y-128517996D01*
X154535791Y-128504093D01*
X154447039Y-128486663D01*
X154330607Y-128464798D01*
X154182458Y-128437591D01*
X154150382Y-128431741D01*
X154055314Y-128413374D01*
X153972435Y-128395405D01*
X153909070Y-128379569D01*
X153872542Y-128367600D01*
X153867644Y-128364810D01*
X153859573Y-128340072D01*
X153853013Y-128284790D01*
X153847967Y-128205389D01*
X153844441Y-128108296D01*
X153842439Y-127999938D01*
X153841964Y-127886740D01*
X153843023Y-127775128D01*
X153845618Y-127671529D01*
X153849754Y-127582368D01*
X153855437Y-127514072D01*
X153862669Y-127473066D01*
X153867029Y-127464674D01*
X153891302Y-127456208D01*
X153946574Y-127442435D01*
X154027338Y-127424550D01*
X154128088Y-127403748D01*
X154243317Y-127381223D01*
X154306098Y-127369418D01*
X154425213Y-127347151D01*
X154531435Y-127326979D01*
X154619573Y-127309915D01*
X154684434Y-127296969D01*
X154720826Y-127289155D01*
X154726816Y-127287422D01*
X154736939Y-127267890D01*
X154758338Y-127220843D01*
X154788161Y-127153003D01*
X154823555Y-127071091D01*
X154861668Y-126981828D01*
X154899647Y-126891935D01*
X154934640Y-126808135D01*
X154963794Y-126737147D01*
X154984257Y-126685694D01*
X154993177Y-126660497D01*
X154993343Y-126659396D01*
X154983231Y-126639519D01*
X154954883Y-126593777D01*
X154911277Y-126526717D01*
X154855394Y-126442884D01*
X154790213Y-126346826D01*
X154752321Y-126291650D01*
X154683275Y-126190481D01*
X154621950Y-126098630D01*
X154571337Y-126020744D01*
X154534429Y-125961469D01*
X154514218Y-125925451D01*
X154511299Y-125917377D01*
X154523847Y-125898584D01*
X154558537Y-125858457D01*
X154610937Y-125801493D01*
X154676616Y-125732185D01*
X154751144Y-125655031D01*
X154830087Y-125574525D01*
X154909017Y-125495163D01*
X154983500Y-125421440D01*
X155049106Y-125357852D01*
X155101404Y-125308894D01*
X155135961Y-125279061D01*
X155147522Y-125271942D01*
X155166346Y-125281953D01*
X155211369Y-125310078D01*
X155278213Y-125353454D01*
X155362501Y-125409218D01*
X155459856Y-125474506D01*
X155533293Y-125524246D01*
X155904333Y-125776551D01*
X156522905Y-125521555D01*
X156606725Y-125076931D01*
X156690546Y-124632307D01*
X157615994Y-124632307D01*
X157699814Y-125076931D01*
G37*
D12*
X157699814Y-125076931D02*
X157783635Y-125521555D01*
X158092920Y-125649053D01*
X158402206Y-125776551D01*
X158773246Y-125524246D01*
X158877157Y-125453996D01*
X158971087Y-125391272D01*
X159050652Y-125338938D01*
X159111470Y-125299857D01*
X159149157Y-125276893D01*
X159159421Y-125271942D01*
X159177910Y-125284676D01*
X159217420Y-125319882D01*
X159273522Y-125373062D01*
X159341787Y-125439718D01*
X159417786Y-125515354D01*
X159497092Y-125595472D01*
X159575275Y-125675574D01*
X159647907Y-125751164D01*
X159710559Y-125817745D01*
X159758803Y-125870818D01*
X159788210Y-125905887D01*
X159795241Y-125917623D01*
X159785123Y-125939260D01*
X159756759Y-125986662D01*
X159713129Y-126055193D01*
X159657218Y-126140215D01*
X159592006Y-126237093D01*
X159554219Y-126292350D01*
X159485343Y-126393248D01*
X159424140Y-126484299D01*
X159373578Y-126560970D01*
X159336628Y-126618728D01*
X159316258Y-126653043D01*
X159313197Y-126660254D01*
X159320136Y-126680748D01*
X159339051Y-126728513D01*
X159367087Y-126796832D01*
X159401391Y-126878989D01*
X159439109Y-126968270D01*
X159477387Y-127057958D01*
X159513370Y-127141338D01*
X159544206Y-127211694D01*
X159567039Y-127262310D01*
X159579017Y-127286471D01*
X159579724Y-127287422D01*
X159598531Y-127292036D01*
X159648618Y-127302328D01*
X159724793Y-127317287D01*
X159821865Y-127335901D01*
X159934643Y-127357159D01*
X160000442Y-127369418D01*
X160120950Y-127392362D01*
X160229797Y-127414195D01*
X160321476Y-127433722D01*
X160390481Y-127449748D01*
X160431304Y-127461079D01*
X160439511Y-127464674D01*
X160447548Y-127489006D01*
X160454033Y-127543959D01*
X160458970Y-127623108D01*
X160462364Y-127720026D01*
X160464218Y-127828287D01*
X160464538Y-127941465D01*
X160463327Y-128053135D01*
X160460590Y-128156868D01*
X160456331Y-128246241D01*
X160450555Y-128314826D01*
X160443267Y-128356197D01*
X160438895Y-128364810D01*
X160412764Y-128375133D01*
X160357393Y-128389892D01*
X160280107Y-128407352D01*
X160188230Y-128425780D01*
X160156158Y-128431741D01*
X160001524Y-128460066D01*
X159879375Y-128482876D01*
X159785673Y-128501080D01*
X159716384Y-128515583D01*
X159667471Y-128527292D01*
X159634897Y-128537115D01*
X159614628Y-128545956D01*
X159602626Y-128554724D01*
X159600947Y-128556457D01*
X159584184Y-128584371D01*
X159558614Y-128638695D01*
X159526788Y-128712777D01*
X159491260Y-128799965D01*
X159454583Y-128893608D01*
X159419311Y-128987052D01*
X159387996Y-129073647D01*
X159363193Y-129146740D01*
X159347454Y-129199678D01*
X159343332Y-129225811D01*
X159343676Y-129226726D01*
X159357641Y-129248086D01*
X159389322Y-129295084D01*
X159435391Y-129362827D01*
X159492518Y-129446423D01*
X159557373Y-129540982D01*
X159575843Y-129567854D01*
X159641699Y-129665275D01*
X159699650Y-129754163D01*
X159746538Y-129829412D01*
X159779207Y-129885920D01*
X159794500Y-129918581D01*
X159795241Y-129922593D01*
X159782392Y-129943684D01*
X159746888Y-129985464D01*
X159693293Y-130043445D01*
X159626171Y-130113135D01*
X159550087Y-130190045D01*
X159469604Y-130269683D01*
X159389287Y-130347561D01*
X159313699Y-130419186D01*
X159247405Y-130480070D01*
X159194969Y-130525721D01*
X159160955Y-130551650D01*
X159151545Y-130555883D01*
X159129643Y-130545912D01*
X159084800Y-130519020D01*
X159024321Y-130479736D01*
X158977789Y-130448117D01*
X158893475Y-130390098D01*
X158793626Y-130321784D01*
X158693473Y-130253579D01*
X158639627Y-130217075D01*
X158457371Y-130093800D01*
X158304381Y-130176520D01*
X158234682Y-130212759D01*
X158175414Y-130240926D01*
X158135311Y-130256991D01*
X158125103Y-130259226D01*
X158112829Y-130242722D01*
X158088613Y-130196082D01*
X158054263Y-130123609D01*
X158011588Y-130029606D01*
X157962394Y-129918374D01*
X157908490Y-129794215D01*
X157851684Y-129661432D01*
X157793782Y-129524327D01*
X157736593Y-129387202D01*
X157681924Y-129254358D01*
X157631584Y-129130098D01*
X157587380Y-129018725D01*
X157551119Y-128924539D01*
X157524609Y-128851844D01*
X157509658Y-128804941D01*
X157507254Y-128788833D01*
X157526311Y-128768286D01*
X157568036Y-128734933D01*
X157623706Y-128695702D01*
X157628378Y-128692599D01*
X157772264Y-128577423D01*
X157888283Y-128443053D01*
X157975430Y-128293784D01*
X158032699Y-128133913D01*
X158059086Y-127967737D01*
X158053585Y-127799552D01*
X158015190Y-127633655D01*
X157942895Y-127474342D01*
X157921626Y-127439487D01*
X157810996Y-127298737D01*
X157680302Y-127185714D01*
X157534064Y-127101003D01*
X157376808Y-127045194D01*
X157213057Y-127018874D01*
X157047333Y-127022630D01*
X156884162Y-127057050D01*
X156728065Y-127122723D01*
X156583567Y-127220235D01*
X156538869Y-127259813D01*
X156425112Y-127383703D01*
X156342218Y-127514124D01*
X156285356Y-127660315D01*
X156253687Y-127805088D01*
X156245869Y-127967860D01*
X156271938Y-128131440D01*
X156329245Y-128290298D01*
X156415144Y-128438906D01*
X156526986Y-128571735D01*
X156662123Y-128683256D01*
X156679883Y-128695011D01*
X156736150Y-128733508D01*
X156778923Y-128766863D01*
X156799372Y-128788160D01*
X156799669Y-128788833D01*
X156795279Y-128811871D01*
X156777876Y-128864157D01*
X156749268Y-128941390D01*
X156711265Y-129039268D01*
X156665674Y-129153491D01*
X156614303Y-129279758D01*
X156558962Y-129413767D01*
X156501458Y-129551218D01*
X156443601Y-129687808D01*
X156387198Y-129819237D01*
X156334058Y-129941205D01*
X156285990Y-130049409D01*
X156244801Y-130139549D01*
X156212301Y-130207323D01*
X156190297Y-130248430D01*
X156181436Y-130259226D01*
X156154360Y-130250819D01*
X156103697Y-130228272D01*
X156038183Y-130195613D01*
X156002159Y-130176520D01*
X155849168Y-130093800D01*
X155666912Y-130217075D01*
X155573875Y-130280228D01*
X155472015Y-130349727D01*
X155376562Y-130415165D01*
X155328750Y-130448117D01*
X155261505Y-130493273D01*
X155204564Y-130529057D01*
X155165354Y-130550938D01*
X155152619Y-130555563D01*
X155134083Y-130543085D01*
X155093059Y-130508252D01*
X155033525Y-130454678D01*
X154959458Y-130385983D01*
X154874835Y-130305781D01*
X154821315Y-130254286D01*
X154727681Y-130162286D01*
X154646759Y-130079999D01*
X154581823Y-130010945D01*
X154536142Y-129958644D01*
X154512989Y-129926616D01*
X154510768Y-129920116D01*
X154521076Y-129895394D01*
X154549561Y-129845405D01*
X154593063Y-129775212D01*
X154648423Y-129689875D01*
X154712480Y-129594456D01*
X154730697Y-129567854D01*
X154797073Y-129471167D01*
X154856622Y-129384117D01*
X154906016Y-129311595D01*
X154941925Y-129258493D01*
X154961019Y-129229703D01*
X154962864Y-129226726D01*
X154960105Y-129203782D01*
X154945462Y-129153336D01*
X154921487Y-129082041D01*
X154890734Y-128996547D01*
X154855756Y-128903507D01*
X154819107Y-128809574D01*
X154783339Y-128721399D01*
X154751006Y-128645634D01*
X154724662Y-128588931D01*
X154706858Y-128557943D01*
X154705593Y-128556457D01*
X154694706Y-128547601D01*
X154676318Y-128538843D01*
X154646394Y-128529277D01*
X154600897Y-128517996D01*
X154535791Y-128504093D01*
X154447039Y-128486663D01*
X154330607Y-128464798D01*
X154182458Y-128437591D01*
X154150382Y-128431741D01*
X154055314Y-128413374D01*
X153972435Y-128395405D01*
X153909070Y-128379569D01*
X153872542Y-128367600D01*
X153867644Y-128364810D01*
X153859573Y-128340072D01*
X153853013Y-128284790D01*
X153847967Y-128205389D01*
X153844441Y-128108296D01*
X153842439Y-127999938D01*
X153841964Y-127886740D01*
X153843023Y-127775128D01*
X153845618Y-127671529D01*
X153849754Y-127582368D01*
X153855437Y-127514072D01*
X153862669Y-127473066D01*
X153867029Y-127464674D01*
X153891302Y-127456208D01*
X153946574Y-127442435D01*
X154027338Y-127424550D01*
X154128088Y-127403748D01*
X154243317Y-127381223D01*
X154306098Y-127369418D01*
X154425213Y-127347151D01*
X154531435Y-127326979D01*
X154619573Y-127309915D01*
X154684434Y-127296969D01*
X154720826Y-127289155D01*
X154726816Y-127287422D01*
X154736939Y-127267890D01*
X154758338Y-127220843D01*
X154788161Y-127153003D01*
X154823555Y-127071091D01*
X154861668Y-126981828D01*
X154899647Y-126891935D01*
X154934640Y-126808135D01*
X154963794Y-126737147D01*
X154984257Y-126685694D01*
X154993177Y-126660497D01*
X154993343Y-126659396D01*
X154983231Y-126639519D01*
X154954883Y-126593777D01*
X154911277Y-126526717D01*
X154855394Y-126442884D01*
X154790213Y-126346826D01*
X154752321Y-126291650D01*
X154683275Y-126190481D01*
X154621950Y-126098630D01*
X154571337Y-126020744D01*
X154534429Y-125961469D01*
X154514218Y-125925451D01*
X154511299Y-125917377D01*
X154523847Y-125898584D01*
X154558537Y-125858457D01*
X154610937Y-125801493D01*
X154676616Y-125732185D01*
X154751144Y-125655031D01*
X154830087Y-125574525D01*
X154909017Y-125495163D01*
X154983500Y-125421440D01*
X155049106Y-125357852D01*
X155101404Y-125308894D01*
X155135961Y-125279061D01*
X155147522Y-125271942D01*
X155166346Y-125281953D01*
X155211369Y-125310078D01*
X155278213Y-125353454D01*
X155362501Y-125409218D01*
X155459856Y-125474506D01*
X155533293Y-125524246D01*
X155904333Y-125776551D01*
X156522905Y-125521555D01*
X156606725Y-125076931D01*
X156690546Y-124632307D01*
X157615994Y-124632307D01*
X157699814Y-125076931D01*
D11*
%TO.C,Q6*%
X178472500Y-102192000D02*
X176797500Y-102192000D01*
X178472500Y-102192000D02*
X179122500Y-102192000D01*
X178472500Y-105312000D02*
X177822500Y-105312000D01*
X178472500Y-105312000D02*
X179122500Y-105312000D01*
%TO.C,C5*%
X143456199Y-57833000D02*
X143856199Y-57833000D01*
X143656199Y-57633000D02*
X143656199Y-58033000D01*
X145726000Y-56948000D02*
X145726000Y-58188000D01*
X145726000Y-59868000D02*
X145726000Y-61108000D01*
X145766000Y-56948000D02*
X145766000Y-58188000D01*
X145766000Y-59868000D02*
X145766000Y-61108000D01*
X145806000Y-56949000D02*
X145806000Y-58188000D01*
X145806000Y-59868000D02*
X145806000Y-61107000D01*
X145846000Y-56951000D02*
X145846000Y-58188000D01*
X145846000Y-59868000D02*
X145846000Y-61105000D01*
X145886000Y-56954000D02*
X145886000Y-58188000D01*
X145886000Y-59868000D02*
X145886000Y-61102000D01*
X145926000Y-56957000D02*
X145926000Y-58188000D01*
X145926000Y-59868000D02*
X145926000Y-61099000D01*
X145966000Y-56961000D02*
X145966000Y-58188000D01*
X145966000Y-59868000D02*
X145966000Y-61095000D01*
X146006000Y-56966000D02*
X146006000Y-58188000D01*
X146006000Y-59868000D02*
X146006000Y-61090000D01*
X146046000Y-56972000D02*
X146046000Y-58188000D01*
X146046000Y-59868000D02*
X146046000Y-61084000D01*
X146086000Y-56978000D02*
X146086000Y-58188000D01*
X146086000Y-59868000D02*
X146086000Y-61078000D01*
X146126000Y-56986000D02*
X146126000Y-58188000D01*
X146126000Y-59868000D02*
X146126000Y-61070000D01*
X146166000Y-56994000D02*
X146166000Y-58188000D01*
X146166000Y-59868000D02*
X146166000Y-61062000D01*
X146206000Y-57003000D02*
X146206000Y-58188000D01*
X146206000Y-59868000D02*
X146206000Y-61053000D01*
X146246000Y-57012000D02*
X146246000Y-58188000D01*
X146246000Y-59868000D02*
X146246000Y-61044000D01*
X146286000Y-57023000D02*
X146286000Y-58188000D01*
X146286000Y-59868000D02*
X146286000Y-61033000D01*
X146326000Y-57034000D02*
X146326000Y-58188000D01*
X146326000Y-59868000D02*
X146326000Y-61022000D01*
X146366000Y-57046000D02*
X146366000Y-58188000D01*
X146366000Y-59868000D02*
X146366000Y-61010000D01*
X146406000Y-57060000D02*
X146406000Y-58188000D01*
X146406000Y-59868000D02*
X146406000Y-60996000D01*
X146447000Y-57074000D02*
X146447000Y-58188000D01*
X146447000Y-59868000D02*
X146447000Y-60982000D01*
X146487000Y-57088000D02*
X146487000Y-58188000D01*
X146487000Y-59868000D02*
X146487000Y-60968000D01*
X146527000Y-57104000D02*
X146527000Y-58188000D01*
X146527000Y-59868000D02*
X146527000Y-60952000D01*
X146567000Y-57121000D02*
X146567000Y-58188000D01*
X146567000Y-59868000D02*
X146567000Y-60935000D01*
X146607000Y-57139000D02*
X146607000Y-58188000D01*
X146607000Y-59868000D02*
X146607000Y-60917000D01*
X146647000Y-57158000D02*
X146647000Y-58188000D01*
X146647000Y-59868000D02*
X146647000Y-60898000D01*
X146687000Y-57177000D02*
X146687000Y-58188000D01*
X146687000Y-59868000D02*
X146687000Y-60879000D01*
X146727000Y-57198000D02*
X146727000Y-58188000D01*
X146727000Y-59868000D02*
X146727000Y-60858000D01*
X146767000Y-57220000D02*
X146767000Y-58188000D01*
X146767000Y-59868000D02*
X146767000Y-60836000D01*
X146807000Y-57243000D02*
X146807000Y-58188000D01*
X146807000Y-59868000D02*
X146807000Y-60813000D01*
X146847000Y-57268000D02*
X146847000Y-58188000D01*
X146847000Y-59868000D02*
X146847000Y-60788000D01*
X146887000Y-57293000D02*
X146887000Y-58188000D01*
X146887000Y-59868000D02*
X146887000Y-60763000D01*
X146927000Y-57320000D02*
X146927000Y-58188000D01*
X146927000Y-59868000D02*
X146927000Y-60736000D01*
X146967000Y-57348000D02*
X146967000Y-58188000D01*
X146967000Y-59868000D02*
X146967000Y-60708000D01*
X147007000Y-57378000D02*
X147007000Y-58188000D01*
X147007000Y-59868000D02*
X147007000Y-60678000D01*
X147047000Y-57409000D02*
X147047000Y-58188000D01*
X147047000Y-59868000D02*
X147047000Y-60647000D01*
X147087000Y-57441000D02*
X147087000Y-58188000D01*
X147087000Y-59868000D02*
X147087000Y-60615000D01*
X147127000Y-57476000D02*
X147127000Y-58188000D01*
X147127000Y-59868000D02*
X147127000Y-60580000D01*
X147167000Y-57512000D02*
X147167000Y-58188000D01*
X147167000Y-59868000D02*
X147167000Y-60544000D01*
X147207000Y-57550000D02*
X147207000Y-58188000D01*
X147207000Y-59868000D02*
X147207000Y-60506000D01*
X147247000Y-57590000D02*
X147247000Y-58188000D01*
X147247000Y-59868000D02*
X147247000Y-60466000D01*
X147287000Y-57632000D02*
X147287000Y-58188000D01*
X147287000Y-59868000D02*
X147287000Y-60424000D01*
X147327000Y-57677000D02*
X147327000Y-60379000D01*
X147367000Y-57724000D02*
X147367000Y-60332000D01*
X147407000Y-57774000D02*
X147407000Y-60282000D01*
X147447000Y-57828000D02*
X147447000Y-60228000D01*
X147487000Y-57886000D02*
X147487000Y-60170000D01*
X147527000Y-57948000D02*
X147527000Y-60108000D01*
X147567000Y-58015000D02*
X147567000Y-60041000D01*
X147607000Y-58088000D02*
X147607000Y-59968000D01*
X147647000Y-58169000D02*
X147647000Y-59887000D01*
X147687000Y-58260000D02*
X147687000Y-59796000D01*
X147727000Y-58364000D02*
X147727000Y-59692000D01*
X147767000Y-58491000D02*
X147767000Y-59565000D01*
X147807000Y-58658000D02*
X147807000Y-59398000D01*
X147846000Y-59028000D02*
G75*
G03*
X147846000Y-59028000I-2120000J0D01*
G01*
D13*
%TO.C,a2*%
X142980000Y-50394000D02*
X142980000Y-54454000D01*
X137780000Y-50394000D02*
X137780000Y-54454000D01*
D14*
X143155000Y-48924000D02*
G75*
G03*
X143155000Y-48924000I-100000J0D01*
G01*
D11*
%TO.C,D3*%
X176371404Y-80468000D02*
G75*
G03*
X176429629Y-78153268I1514596J1120000D01*
G01*
%TO.C,Q4*%
X178472500Y-93536000D02*
X176797500Y-93536000D01*
X178472500Y-93536000D02*
X179122500Y-93536000D01*
X178472500Y-96656000D02*
X177822500Y-96656000D01*
X178472500Y-96656000D02*
X179122500Y-96656000D01*
%TO.C,D2*%
X176371404Y-73864000D02*
G75*
G03*
X176429629Y-71549268I1514596J1120000D01*
G01*
%TO.C,U1*%
X176244000Y-134499000D02*
X176244000Y-134264000D01*
X176244000Y-134264000D02*
X178059000Y-134264000D01*
X176244000Y-121479000D02*
X176244000Y-121714000D01*
X172384000Y-134499000D02*
X176244000Y-134499000D01*
X172384000Y-134499000D02*
X168524000Y-134499000D01*
X172384000Y-121479000D02*
X176244000Y-121479000D01*
X172384000Y-121479000D02*
X168524000Y-121479000D01*
X168524000Y-134499000D02*
X168524000Y-134264000D01*
X168524000Y-121479000D02*
X168524000Y-121714000D01*
%TO.C,Q5*%
X168276500Y-103732000D02*
X168276500Y-105407000D01*
X168276500Y-103732000D02*
X168276500Y-103082000D01*
X171396500Y-103732000D02*
X171396500Y-104382000D01*
X171396500Y-103732000D02*
X171396500Y-103082000D01*
%TO.C,Q1*%
X168276500Y-86460000D02*
X168276500Y-88135000D01*
X168276500Y-86460000D02*
X168276500Y-85810000D01*
X171396500Y-86460000D02*
X171396500Y-87110000D01*
X171396500Y-86460000D02*
X171396500Y-85810000D01*
%TO.C,C4*%
X147012199Y-62913000D02*
X147412199Y-62913000D01*
X147212199Y-62713000D02*
X147212199Y-63113000D01*
X149282000Y-62028000D02*
X149282000Y-63268000D01*
X149282000Y-64948000D02*
X149282000Y-66188000D01*
X149322000Y-62028000D02*
X149322000Y-63268000D01*
X149322000Y-64948000D02*
X149322000Y-66188000D01*
X149362000Y-62029000D02*
X149362000Y-63268000D01*
X149362000Y-64948000D02*
X149362000Y-66187000D01*
X149402000Y-62031000D02*
X149402000Y-63268000D01*
X149402000Y-64948000D02*
X149402000Y-66185000D01*
X149442000Y-62034000D02*
X149442000Y-63268000D01*
X149442000Y-64948000D02*
X149442000Y-66182000D01*
X149482000Y-62037000D02*
X149482000Y-63268000D01*
X149482000Y-64948000D02*
X149482000Y-66179000D01*
X149522000Y-62041000D02*
X149522000Y-63268000D01*
X149522000Y-64948000D02*
X149522000Y-66175000D01*
X149562000Y-62046000D02*
X149562000Y-63268000D01*
X149562000Y-64948000D02*
X149562000Y-66170000D01*
X149602000Y-62052000D02*
X149602000Y-63268000D01*
X149602000Y-64948000D02*
X149602000Y-66164000D01*
X149642000Y-62058000D02*
X149642000Y-63268000D01*
X149642000Y-64948000D02*
X149642000Y-66158000D01*
X149682000Y-62066000D02*
X149682000Y-63268000D01*
X149682000Y-64948000D02*
X149682000Y-66150000D01*
X149722000Y-62074000D02*
X149722000Y-63268000D01*
X149722000Y-64948000D02*
X149722000Y-66142000D01*
X149762000Y-62083000D02*
X149762000Y-63268000D01*
X149762000Y-64948000D02*
X149762000Y-66133000D01*
X149802000Y-62092000D02*
X149802000Y-63268000D01*
X149802000Y-64948000D02*
X149802000Y-66124000D01*
X149842000Y-62103000D02*
X149842000Y-63268000D01*
X149842000Y-64948000D02*
X149842000Y-66113000D01*
X149882000Y-62114000D02*
X149882000Y-63268000D01*
X149882000Y-64948000D02*
X149882000Y-66102000D01*
X149922000Y-62126000D02*
X149922000Y-63268000D01*
X149922000Y-64948000D02*
X149922000Y-66090000D01*
X149962000Y-62140000D02*
X149962000Y-63268000D01*
X149962000Y-64948000D02*
X149962000Y-66076000D01*
X150003000Y-62154000D02*
X150003000Y-63268000D01*
X150003000Y-64948000D02*
X150003000Y-66062000D01*
X150043000Y-62168000D02*
X150043000Y-63268000D01*
X150043000Y-64948000D02*
X150043000Y-66048000D01*
X150083000Y-62184000D02*
X150083000Y-63268000D01*
X150083000Y-64948000D02*
X150083000Y-66032000D01*
X150123000Y-62201000D02*
X150123000Y-63268000D01*
X150123000Y-64948000D02*
X150123000Y-66015000D01*
X150163000Y-62219000D02*
X150163000Y-63268000D01*
X150163000Y-64948000D02*
X150163000Y-65997000D01*
X150203000Y-62238000D02*
X150203000Y-63268000D01*
X150203000Y-64948000D02*
X150203000Y-65978000D01*
X150243000Y-62257000D02*
X150243000Y-63268000D01*
X150243000Y-64948000D02*
X150243000Y-65959000D01*
X150283000Y-62278000D02*
X150283000Y-63268000D01*
X150283000Y-64948000D02*
X150283000Y-65938000D01*
X150323000Y-62300000D02*
X150323000Y-63268000D01*
X150323000Y-64948000D02*
X150323000Y-65916000D01*
X150363000Y-62323000D02*
X150363000Y-63268000D01*
X150363000Y-64948000D02*
X150363000Y-65893000D01*
X150403000Y-62348000D02*
X150403000Y-63268000D01*
X150403000Y-64948000D02*
X150403000Y-65868000D01*
X150443000Y-62373000D02*
X150443000Y-63268000D01*
X150443000Y-64948000D02*
X150443000Y-65843000D01*
X150483000Y-62400000D02*
X150483000Y-63268000D01*
X150483000Y-64948000D02*
X150483000Y-65816000D01*
X150523000Y-62428000D02*
X150523000Y-63268000D01*
X150523000Y-64948000D02*
X150523000Y-65788000D01*
X150563000Y-62458000D02*
X150563000Y-63268000D01*
X150563000Y-64948000D02*
X150563000Y-65758000D01*
X150603000Y-62489000D02*
X150603000Y-63268000D01*
X150603000Y-64948000D02*
X150603000Y-65727000D01*
X150643000Y-62521000D02*
X150643000Y-63268000D01*
X150643000Y-64948000D02*
X150643000Y-65695000D01*
X150683000Y-62556000D02*
X150683000Y-63268000D01*
X150683000Y-64948000D02*
X150683000Y-65660000D01*
X150723000Y-62592000D02*
X150723000Y-63268000D01*
X150723000Y-64948000D02*
X150723000Y-65624000D01*
X150763000Y-62630000D02*
X150763000Y-63268000D01*
X150763000Y-64948000D02*
X150763000Y-65586000D01*
X150803000Y-62670000D02*
X150803000Y-63268000D01*
X150803000Y-64948000D02*
X150803000Y-65546000D01*
X150843000Y-62712000D02*
X150843000Y-63268000D01*
X150843000Y-64948000D02*
X150843000Y-65504000D01*
X150883000Y-62757000D02*
X150883000Y-65459000D01*
X150923000Y-62804000D02*
X150923000Y-65412000D01*
X150963000Y-62854000D02*
X150963000Y-65362000D01*
X151003000Y-62908000D02*
X151003000Y-65308000D01*
X151043000Y-62966000D02*
X151043000Y-65250000D01*
X151083000Y-63028000D02*
X151083000Y-65188000D01*
X151123000Y-63095000D02*
X151123000Y-65121000D01*
X151163000Y-63168000D02*
X151163000Y-65048000D01*
X151203000Y-63249000D02*
X151203000Y-64967000D01*
X151243000Y-63340000D02*
X151243000Y-64876000D01*
X151283000Y-63444000D02*
X151283000Y-64772000D01*
X151323000Y-63571000D02*
X151323000Y-64645000D01*
X151363000Y-63738000D02*
X151363000Y-64478000D01*
X151402000Y-64108000D02*
G75*
G03*
X151402000Y-64108000I-2120000J0D01*
G01*
%TO.C,Q3*%
X168276500Y-95096000D02*
X168276500Y-96771000D01*
X168276500Y-95096000D02*
X168276500Y-94446000D01*
X171396500Y-95096000D02*
X171396500Y-95746000D01*
X171396500Y-95096000D02*
X171396500Y-94446000D01*
%TO.C,C6*%
X154632199Y-57833000D02*
X155032199Y-57833000D01*
X154832199Y-57633000D02*
X154832199Y-58033000D01*
X156902000Y-56948000D02*
X156902000Y-58188000D01*
X156902000Y-59868000D02*
X156902000Y-61108000D01*
X156942000Y-56948000D02*
X156942000Y-58188000D01*
X156942000Y-59868000D02*
X156942000Y-61108000D01*
X156982000Y-56949000D02*
X156982000Y-58188000D01*
X156982000Y-59868000D02*
X156982000Y-61107000D01*
X157022000Y-56951000D02*
X157022000Y-58188000D01*
X157022000Y-59868000D02*
X157022000Y-61105000D01*
X157062000Y-56954000D02*
X157062000Y-58188000D01*
X157062000Y-59868000D02*
X157062000Y-61102000D01*
X157102000Y-56957000D02*
X157102000Y-58188000D01*
X157102000Y-59868000D02*
X157102000Y-61099000D01*
X157142000Y-56961000D02*
X157142000Y-58188000D01*
X157142000Y-59868000D02*
X157142000Y-61095000D01*
X157182000Y-56966000D02*
X157182000Y-58188000D01*
X157182000Y-59868000D02*
X157182000Y-61090000D01*
X157222000Y-56972000D02*
X157222000Y-58188000D01*
X157222000Y-59868000D02*
X157222000Y-61084000D01*
X157262000Y-56978000D02*
X157262000Y-58188000D01*
X157262000Y-59868000D02*
X157262000Y-61078000D01*
X157302000Y-56986000D02*
X157302000Y-58188000D01*
X157302000Y-59868000D02*
X157302000Y-61070000D01*
X157342000Y-56994000D02*
X157342000Y-58188000D01*
X157342000Y-59868000D02*
X157342000Y-61062000D01*
X157382000Y-57003000D02*
X157382000Y-58188000D01*
X157382000Y-59868000D02*
X157382000Y-61053000D01*
X157422000Y-57012000D02*
X157422000Y-58188000D01*
X157422000Y-59868000D02*
X157422000Y-61044000D01*
X157462000Y-57023000D02*
X157462000Y-58188000D01*
X157462000Y-59868000D02*
X157462000Y-61033000D01*
X157502000Y-57034000D02*
X157502000Y-58188000D01*
X157502000Y-59868000D02*
X157502000Y-61022000D01*
X157542000Y-57046000D02*
X157542000Y-58188000D01*
X157542000Y-59868000D02*
X157542000Y-61010000D01*
X157582000Y-57060000D02*
X157582000Y-58188000D01*
X157582000Y-59868000D02*
X157582000Y-60996000D01*
X157623000Y-57074000D02*
X157623000Y-58188000D01*
X157623000Y-59868000D02*
X157623000Y-60982000D01*
X157663000Y-57088000D02*
X157663000Y-58188000D01*
X157663000Y-59868000D02*
X157663000Y-60968000D01*
X157703000Y-57104000D02*
X157703000Y-58188000D01*
X157703000Y-59868000D02*
X157703000Y-60952000D01*
X157743000Y-57121000D02*
X157743000Y-58188000D01*
X157743000Y-59868000D02*
X157743000Y-60935000D01*
X157783000Y-57139000D02*
X157783000Y-58188000D01*
X157783000Y-59868000D02*
X157783000Y-60917000D01*
X157823000Y-57158000D02*
X157823000Y-58188000D01*
X157823000Y-59868000D02*
X157823000Y-60898000D01*
X157863000Y-57177000D02*
X157863000Y-58188000D01*
X157863000Y-59868000D02*
X157863000Y-60879000D01*
X157903000Y-57198000D02*
X157903000Y-58188000D01*
X157903000Y-59868000D02*
X157903000Y-60858000D01*
X157943000Y-57220000D02*
X157943000Y-58188000D01*
X157943000Y-59868000D02*
X157943000Y-60836000D01*
X157983000Y-57243000D02*
X157983000Y-58188000D01*
X157983000Y-59868000D02*
X157983000Y-60813000D01*
X158023000Y-57268000D02*
X158023000Y-58188000D01*
X158023000Y-59868000D02*
X158023000Y-60788000D01*
X158063000Y-57293000D02*
X158063000Y-58188000D01*
X158063000Y-59868000D02*
X158063000Y-60763000D01*
X158103000Y-57320000D02*
X158103000Y-58188000D01*
X158103000Y-59868000D02*
X158103000Y-60736000D01*
X158143000Y-57348000D02*
X158143000Y-58188000D01*
X158143000Y-59868000D02*
X158143000Y-60708000D01*
X158183000Y-57378000D02*
X158183000Y-58188000D01*
X158183000Y-59868000D02*
X158183000Y-60678000D01*
X158223000Y-57409000D02*
X158223000Y-58188000D01*
X158223000Y-59868000D02*
X158223000Y-60647000D01*
X158263000Y-57441000D02*
X158263000Y-58188000D01*
X158263000Y-59868000D02*
X158263000Y-60615000D01*
X158303000Y-57476000D02*
X158303000Y-58188000D01*
X158303000Y-59868000D02*
X158303000Y-60580000D01*
X158343000Y-57512000D02*
X158343000Y-58188000D01*
X158343000Y-59868000D02*
X158343000Y-60544000D01*
X158383000Y-57550000D02*
X158383000Y-58188000D01*
X158383000Y-59868000D02*
X158383000Y-60506000D01*
X158423000Y-57590000D02*
X158423000Y-58188000D01*
X158423000Y-59868000D02*
X158423000Y-60466000D01*
X158463000Y-57632000D02*
X158463000Y-58188000D01*
X158463000Y-59868000D02*
X158463000Y-60424000D01*
X158503000Y-57677000D02*
X158503000Y-60379000D01*
X158543000Y-57724000D02*
X158543000Y-60332000D01*
X158583000Y-57774000D02*
X158583000Y-60282000D01*
X158623000Y-57828000D02*
X158623000Y-60228000D01*
X158663000Y-57886000D02*
X158663000Y-60170000D01*
X158703000Y-57948000D02*
X158703000Y-60108000D01*
X158743000Y-58015000D02*
X158743000Y-60041000D01*
X158783000Y-58088000D02*
X158783000Y-59968000D01*
X158823000Y-58169000D02*
X158823000Y-59887000D01*
X158863000Y-58260000D02*
X158863000Y-59796000D01*
X158903000Y-58364000D02*
X158903000Y-59692000D01*
X158943000Y-58491000D02*
X158943000Y-59565000D01*
X158983000Y-58658000D02*
X158983000Y-59398000D01*
X159022000Y-59028000D02*
G75*
G03*
X159022000Y-59028000I-2120000J0D01*
G01*
%TO.C,D1*%
X176371404Y-66244000D02*
G75*
G03*
X176429629Y-63929268I1514596J1120000D01*
G01*
%TO.C,C10*%
X183857600Y-80693000D02*
X184257600Y-80693000D01*
X184057600Y-80493000D02*
X184057600Y-80893000D01*
X186127401Y-79808000D02*
X186127401Y-81048000D01*
X186127401Y-82728000D02*
X186127401Y-83968000D01*
X186167401Y-79808000D02*
X186167401Y-81048000D01*
X186167401Y-82728000D02*
X186167401Y-83968000D01*
X186207401Y-79809000D02*
X186207401Y-81048000D01*
X186207401Y-82728000D02*
X186207401Y-83967000D01*
X186247401Y-79811000D02*
X186247401Y-81048000D01*
X186247401Y-82728000D02*
X186247401Y-83965000D01*
X186287401Y-79814000D02*
X186287401Y-81048000D01*
X186287401Y-82728000D02*
X186287401Y-83962000D01*
X186327401Y-79817000D02*
X186327401Y-81048000D01*
X186327401Y-82728000D02*
X186327401Y-83959000D01*
X186367401Y-79821000D02*
X186367401Y-81048000D01*
X186367401Y-82728000D02*
X186367401Y-83955000D01*
X186407401Y-79826000D02*
X186407401Y-81048000D01*
X186407401Y-82728000D02*
X186407401Y-83950000D01*
X186447401Y-79832000D02*
X186447401Y-81048000D01*
X186447401Y-82728000D02*
X186447401Y-83944000D01*
X186487401Y-79838000D02*
X186487401Y-81048000D01*
X186487401Y-82728000D02*
X186487401Y-83938000D01*
X186527401Y-79846000D02*
X186527401Y-81048000D01*
X186527401Y-82728000D02*
X186527401Y-83930000D01*
X186567401Y-79854000D02*
X186567401Y-81048000D01*
X186567401Y-82728000D02*
X186567401Y-83922000D01*
X186607401Y-79863000D02*
X186607401Y-81048000D01*
X186607401Y-82728000D02*
X186607401Y-83913000D01*
X186647401Y-79872000D02*
X186647401Y-81048000D01*
X186647401Y-82728000D02*
X186647401Y-83904000D01*
X186687401Y-79883000D02*
X186687401Y-81048000D01*
X186687401Y-82728000D02*
X186687401Y-83893000D01*
X186727401Y-79894000D02*
X186727401Y-81048000D01*
X186727401Y-82728000D02*
X186727401Y-83882000D01*
X186767401Y-79906000D02*
X186767401Y-81048000D01*
X186767401Y-82728000D02*
X186767401Y-83870000D01*
X186807401Y-79920000D02*
X186807401Y-81048000D01*
X186807401Y-82728000D02*
X186807401Y-83856000D01*
X186848401Y-79934000D02*
X186848401Y-81048000D01*
X186848401Y-82728000D02*
X186848401Y-83842000D01*
X186888401Y-79948000D02*
X186888401Y-81048000D01*
X186888401Y-82728000D02*
X186888401Y-83828000D01*
X186928401Y-79964000D02*
X186928401Y-81048000D01*
X186928401Y-82728000D02*
X186928401Y-83812000D01*
X186968401Y-79981000D02*
X186968401Y-81048000D01*
X186968401Y-82728000D02*
X186968401Y-83795000D01*
X187008401Y-79999000D02*
X187008401Y-81048000D01*
X187008401Y-82728000D02*
X187008401Y-83777000D01*
X187048401Y-80018000D02*
X187048401Y-81048000D01*
X187048401Y-82728000D02*
X187048401Y-83758000D01*
X187088401Y-80037000D02*
X187088401Y-81048000D01*
X187088401Y-82728000D02*
X187088401Y-83739000D01*
X187128401Y-80058000D02*
X187128401Y-81048000D01*
X187128401Y-82728000D02*
X187128401Y-83718000D01*
X187168401Y-80080000D02*
X187168401Y-81048000D01*
X187168401Y-82728000D02*
X187168401Y-83696000D01*
X187208401Y-80103000D02*
X187208401Y-81048000D01*
X187208401Y-82728000D02*
X187208401Y-83673000D01*
X187248401Y-80128000D02*
X187248401Y-81048000D01*
X187248401Y-82728000D02*
X187248401Y-83648000D01*
X187288401Y-80153000D02*
X187288401Y-81048000D01*
X187288401Y-82728000D02*
X187288401Y-83623000D01*
X187328401Y-80180000D02*
X187328401Y-81048000D01*
X187328401Y-82728000D02*
X187328401Y-83596000D01*
X187368401Y-80208000D02*
X187368401Y-81048000D01*
X187368401Y-82728000D02*
X187368401Y-83568000D01*
X187408401Y-80238000D02*
X187408401Y-81048000D01*
X187408401Y-82728000D02*
X187408401Y-83538000D01*
X187448401Y-80269000D02*
X187448401Y-81048000D01*
X187448401Y-82728000D02*
X187448401Y-83507000D01*
X187488401Y-80301000D02*
X187488401Y-81048000D01*
X187488401Y-82728000D02*
X187488401Y-83475000D01*
X187528401Y-80336000D02*
X187528401Y-81048000D01*
X187528401Y-82728000D02*
X187528401Y-83440000D01*
X187568401Y-80372000D02*
X187568401Y-81048000D01*
X187568401Y-82728000D02*
X187568401Y-83404000D01*
X187608401Y-80410000D02*
X187608401Y-81048000D01*
X187608401Y-82728000D02*
X187608401Y-83366000D01*
X187648401Y-80450000D02*
X187648401Y-81048000D01*
X187648401Y-82728000D02*
X187648401Y-83326000D01*
X187688401Y-80492000D02*
X187688401Y-81048000D01*
X187688401Y-82728000D02*
X187688401Y-83284000D01*
X187728401Y-80537000D02*
X187728401Y-83239000D01*
X187768401Y-80584000D02*
X187768401Y-83192000D01*
X187808401Y-80634000D02*
X187808401Y-83142000D01*
X187848401Y-80688000D02*
X187848401Y-83088000D01*
X187888401Y-80746000D02*
X187888401Y-83030000D01*
X187928401Y-80808000D02*
X187928401Y-82968000D01*
X187968401Y-80875000D02*
X187968401Y-82901000D01*
X188008401Y-80948000D02*
X188008401Y-82828000D01*
X188048401Y-81029000D02*
X188048401Y-82747000D01*
X188088401Y-81120000D02*
X188088401Y-82656000D01*
X188128401Y-81224000D02*
X188128401Y-82552000D01*
X188168401Y-81351000D02*
X188168401Y-82425000D01*
X188208401Y-81518000D02*
X188208401Y-82258000D01*
X188247401Y-81888000D02*
G75*
G03*
X188247401Y-81888000I-2120000J0D01*
G01*
%TO.C,C7*%
X161029000Y-124047801D02*
X161029000Y-123647801D01*
X160829000Y-123847801D02*
X161229000Y-123847801D01*
X160144000Y-121778000D02*
X161384000Y-121778000D01*
X163064000Y-121778000D02*
X164304000Y-121778000D01*
X160144000Y-121738000D02*
X161384000Y-121738000D01*
X163064000Y-121738000D02*
X164304000Y-121738000D01*
X160145000Y-121698000D02*
X161384000Y-121698000D01*
X163064000Y-121698000D02*
X164303000Y-121698000D01*
X160147000Y-121658000D02*
X161384000Y-121658000D01*
X163064000Y-121658000D02*
X164301000Y-121658000D01*
X160150000Y-121618000D02*
X161384000Y-121618000D01*
X163064000Y-121618000D02*
X164298000Y-121618000D01*
X160153000Y-121578000D02*
X161384000Y-121578000D01*
X163064000Y-121578000D02*
X164295000Y-121578000D01*
X160157000Y-121538000D02*
X161384000Y-121538000D01*
X163064000Y-121538000D02*
X164291000Y-121538000D01*
X160162000Y-121498000D02*
X161384000Y-121498000D01*
X163064000Y-121498000D02*
X164286000Y-121498000D01*
X160168000Y-121458000D02*
X161384000Y-121458000D01*
X163064000Y-121458000D02*
X164280000Y-121458000D01*
X160174000Y-121418000D02*
X161384000Y-121418000D01*
X163064000Y-121418000D02*
X164274000Y-121418000D01*
X160182000Y-121378000D02*
X161384000Y-121378000D01*
X163064000Y-121378000D02*
X164266000Y-121378000D01*
X160190000Y-121338000D02*
X161384000Y-121338000D01*
X163064000Y-121338000D02*
X164258000Y-121338000D01*
X160199000Y-121298000D02*
X161384000Y-121298000D01*
X163064000Y-121298000D02*
X164249000Y-121298000D01*
X160208000Y-121258000D02*
X161384000Y-121258000D01*
X163064000Y-121258000D02*
X164240000Y-121258000D01*
X160219000Y-121218000D02*
X161384000Y-121218000D01*
X163064000Y-121218000D02*
X164229000Y-121218000D01*
X160230000Y-121178000D02*
X161384000Y-121178000D01*
X163064000Y-121178000D02*
X164218000Y-121178000D01*
X160242000Y-121138000D02*
X161384000Y-121138000D01*
X163064000Y-121138000D02*
X164206000Y-121138000D01*
X160256000Y-121098000D02*
X161384000Y-121098000D01*
X163064000Y-121098000D02*
X164192000Y-121098000D01*
X160270000Y-121057000D02*
X161384000Y-121057000D01*
X163064000Y-121057000D02*
X164178000Y-121057000D01*
X160284000Y-121017000D02*
X161384000Y-121017000D01*
X163064000Y-121017000D02*
X164164000Y-121017000D01*
X160300000Y-120977000D02*
X161384000Y-120977000D01*
X163064000Y-120977000D02*
X164148000Y-120977000D01*
X160317000Y-120937000D02*
X161384000Y-120937000D01*
X163064000Y-120937000D02*
X164131000Y-120937000D01*
X160335000Y-120897000D02*
X161384000Y-120897000D01*
X163064000Y-120897000D02*
X164113000Y-120897000D01*
X160354000Y-120857000D02*
X161384000Y-120857000D01*
X163064000Y-120857000D02*
X164094000Y-120857000D01*
X160373000Y-120817000D02*
X161384000Y-120817000D01*
X163064000Y-120817000D02*
X164075000Y-120817000D01*
X160394000Y-120777000D02*
X161384000Y-120777000D01*
X163064000Y-120777000D02*
X164054000Y-120777000D01*
X160416000Y-120737000D02*
X161384000Y-120737000D01*
X163064000Y-120737000D02*
X164032000Y-120737000D01*
X160439000Y-120697000D02*
X161384000Y-120697000D01*
X163064000Y-120697000D02*
X164009000Y-120697000D01*
X160464000Y-120657000D02*
X161384000Y-120657000D01*
X163064000Y-120657000D02*
X163984000Y-120657000D01*
X160489000Y-120617000D02*
X161384000Y-120617000D01*
X163064000Y-120617000D02*
X163959000Y-120617000D01*
X160516000Y-120577000D02*
X161384000Y-120577000D01*
X163064000Y-120577000D02*
X163932000Y-120577000D01*
X160544000Y-120537000D02*
X161384000Y-120537000D01*
X163064000Y-120537000D02*
X163904000Y-120537000D01*
X160574000Y-120497000D02*
X161384000Y-120497000D01*
X163064000Y-120497000D02*
X163874000Y-120497000D01*
X160605000Y-120457000D02*
X161384000Y-120457000D01*
X163064000Y-120457000D02*
X163843000Y-120457000D01*
X160637000Y-120417000D02*
X161384000Y-120417000D01*
X163064000Y-120417000D02*
X163811000Y-120417000D01*
X160672000Y-120377000D02*
X161384000Y-120377000D01*
X163064000Y-120377000D02*
X163776000Y-120377000D01*
X160708000Y-120337000D02*
X161384000Y-120337000D01*
X163064000Y-120337000D02*
X163740000Y-120337000D01*
X160746000Y-120297000D02*
X161384000Y-120297000D01*
X163064000Y-120297000D02*
X163702000Y-120297000D01*
X160786000Y-120257000D02*
X161384000Y-120257000D01*
X163064000Y-120257000D02*
X163662000Y-120257000D01*
X160828000Y-120217000D02*
X161384000Y-120217000D01*
X163064000Y-120217000D02*
X163620000Y-120217000D01*
X160873000Y-120177000D02*
X163575000Y-120177000D01*
X160920000Y-120137000D02*
X163528000Y-120137000D01*
X160970000Y-120097000D02*
X163478000Y-120097000D01*
X161024000Y-120057000D02*
X163424000Y-120057000D01*
X161082000Y-120017000D02*
X163366000Y-120017000D01*
X161144000Y-119977000D02*
X163304000Y-119977000D01*
X161211000Y-119937000D02*
X163237000Y-119937000D01*
X161284000Y-119897000D02*
X163164000Y-119897000D01*
X161365000Y-119857000D02*
X163083000Y-119857000D01*
X161456000Y-119817000D02*
X162992000Y-119817000D01*
X161560000Y-119777000D02*
X162888000Y-119777000D01*
X161687000Y-119737000D02*
X162761000Y-119737000D01*
X161854000Y-119697000D02*
X162594000Y-119697000D01*
X164344000Y-121778000D02*
G75*
G03*
X164344000Y-121778000I-2120000J0D01*
G01*
%TO.C,R1*%
X169799133Y-63408001D02*
G75*
G03*
X169702095Y-64857358I-417133J-699999D01*
G01*
D13*
%TO.C,b1*%
X153648000Y-50394000D02*
X153648000Y-54454000D01*
X148448000Y-50394000D02*
X148448000Y-54454000D01*
D14*
X153823000Y-48924000D02*
G75*
G03*
X153823000Y-48924000I-100000J0D01*
G01*
D11*
%TO.C,R3*%
X169757133Y-77632001D02*
G75*
G03*
X169660095Y-79081358I-417133J-699999D01*
G01*
%TO.C,Q2*%
X178472500Y-84900000D02*
X176797500Y-84900000D01*
X178472500Y-84900000D02*
X179122500Y-84900000D01*
X178472500Y-88020000D02*
X177822500Y-88020000D01*
X178472500Y-88020000D02*
X179122500Y-88020000D01*
%TO.C,C9*%
X183857600Y-72057000D02*
X184257600Y-72057000D01*
X184057600Y-71857000D02*
X184057600Y-72257000D01*
X186127401Y-71172000D02*
X186127401Y-72412000D01*
X186127401Y-74092000D02*
X186127401Y-75332000D01*
X186167401Y-71172000D02*
X186167401Y-72412000D01*
X186167401Y-74092000D02*
X186167401Y-75332000D01*
X186207401Y-71173000D02*
X186207401Y-72412000D01*
X186207401Y-74092000D02*
X186207401Y-75331000D01*
X186247401Y-71175000D02*
X186247401Y-72412000D01*
X186247401Y-74092000D02*
X186247401Y-75329000D01*
X186287401Y-71178000D02*
X186287401Y-72412000D01*
X186287401Y-74092000D02*
X186287401Y-75326000D01*
X186327401Y-71181000D02*
X186327401Y-72412000D01*
X186327401Y-74092000D02*
X186327401Y-75323000D01*
X186367401Y-71185000D02*
X186367401Y-72412000D01*
X186367401Y-74092000D02*
X186367401Y-75319000D01*
X186407401Y-71190000D02*
X186407401Y-72412000D01*
X186407401Y-74092000D02*
X186407401Y-75314000D01*
X186447401Y-71196000D02*
X186447401Y-72412000D01*
X186447401Y-74092000D02*
X186447401Y-75308000D01*
X186487401Y-71202000D02*
X186487401Y-72412000D01*
X186487401Y-74092000D02*
X186487401Y-75302000D01*
X186527401Y-71210000D02*
X186527401Y-72412000D01*
X186527401Y-74092000D02*
X186527401Y-75294000D01*
X186567401Y-71218000D02*
X186567401Y-72412000D01*
X186567401Y-74092000D02*
X186567401Y-75286000D01*
X186607401Y-71227000D02*
X186607401Y-72412000D01*
X186607401Y-74092000D02*
X186607401Y-75277000D01*
X186647401Y-71236000D02*
X186647401Y-72412000D01*
X186647401Y-74092000D02*
X186647401Y-75268000D01*
X186687401Y-71247000D02*
X186687401Y-72412000D01*
X186687401Y-74092000D02*
X186687401Y-75257000D01*
X186727401Y-71258000D02*
X186727401Y-72412000D01*
X186727401Y-74092000D02*
X186727401Y-75246000D01*
X186767401Y-71270000D02*
X186767401Y-72412000D01*
X186767401Y-74092000D02*
X186767401Y-75234000D01*
X186807401Y-71284000D02*
X186807401Y-72412000D01*
X186807401Y-74092000D02*
X186807401Y-75220000D01*
X186848401Y-71298000D02*
X186848401Y-72412000D01*
X186848401Y-74092000D02*
X186848401Y-75206000D01*
X186888401Y-71312000D02*
X186888401Y-72412000D01*
X186888401Y-74092000D02*
X186888401Y-75192000D01*
X186928401Y-71328000D02*
X186928401Y-72412000D01*
X186928401Y-74092000D02*
X186928401Y-75176000D01*
X186968401Y-71345000D02*
X186968401Y-72412000D01*
X186968401Y-74092000D02*
X186968401Y-75159000D01*
X187008401Y-71363000D02*
X187008401Y-72412000D01*
X187008401Y-74092000D02*
X187008401Y-75141000D01*
X187048401Y-71382000D02*
X187048401Y-72412000D01*
X187048401Y-74092000D02*
X187048401Y-75122000D01*
X187088401Y-71401000D02*
X187088401Y-72412000D01*
X187088401Y-74092000D02*
X187088401Y-75103000D01*
X187128401Y-71422000D02*
X187128401Y-72412000D01*
X187128401Y-74092000D02*
X187128401Y-75082000D01*
X187168401Y-71444000D02*
X187168401Y-72412000D01*
X187168401Y-74092000D02*
X187168401Y-75060000D01*
X187208401Y-71467000D02*
X187208401Y-72412000D01*
X187208401Y-74092000D02*
X187208401Y-75037000D01*
X187248401Y-71492000D02*
X187248401Y-72412000D01*
X187248401Y-74092000D02*
X187248401Y-75012000D01*
X187288401Y-71517000D02*
X187288401Y-72412000D01*
X187288401Y-74092000D02*
X187288401Y-74987000D01*
X187328401Y-71544000D02*
X187328401Y-72412000D01*
X187328401Y-74092000D02*
X187328401Y-74960000D01*
X187368401Y-71572000D02*
X187368401Y-72412000D01*
X187368401Y-74092000D02*
X187368401Y-74932000D01*
X187408401Y-71602000D02*
X187408401Y-72412000D01*
X187408401Y-74092000D02*
X187408401Y-74902000D01*
X187448401Y-71633000D02*
X187448401Y-72412000D01*
X187448401Y-74092000D02*
X187448401Y-74871000D01*
X187488401Y-71665000D02*
X187488401Y-72412000D01*
X187488401Y-74092000D02*
X187488401Y-74839000D01*
X187528401Y-71700000D02*
X187528401Y-72412000D01*
X187528401Y-74092000D02*
X187528401Y-74804000D01*
X187568401Y-71736000D02*
X187568401Y-72412000D01*
X187568401Y-74092000D02*
X187568401Y-74768000D01*
X187608401Y-71774000D02*
X187608401Y-72412000D01*
X187608401Y-74092000D02*
X187608401Y-74730000D01*
X187648401Y-71814000D02*
X187648401Y-72412000D01*
X187648401Y-74092000D02*
X187648401Y-74690000D01*
X187688401Y-71856000D02*
X187688401Y-72412000D01*
X187688401Y-74092000D02*
X187688401Y-74648000D01*
X187728401Y-71901000D02*
X187728401Y-74603000D01*
X187768401Y-71948000D02*
X187768401Y-74556000D01*
X187808401Y-71998000D02*
X187808401Y-74506000D01*
X187848401Y-72052000D02*
X187848401Y-74452000D01*
X187888401Y-72110000D02*
X187888401Y-74394000D01*
X187928401Y-72172000D02*
X187928401Y-74332000D01*
X187968401Y-72239000D02*
X187968401Y-74265000D01*
X188008401Y-72312000D02*
X188008401Y-74192000D01*
X188048401Y-72393000D02*
X188048401Y-74111000D01*
X188088401Y-72484000D02*
X188088401Y-74020000D01*
X188128401Y-72588000D02*
X188128401Y-73916000D01*
X188168401Y-72715000D02*
X188168401Y-73789000D01*
X188208401Y-72882000D02*
X188208401Y-73622000D01*
X188247401Y-73252000D02*
G75*
G03*
X188247401Y-73252000I-2120000J0D01*
G01*
%TO.C,R2*%
X169757133Y-71028001D02*
G75*
G03*
X169660095Y-72477358I-417133J-699999D01*
G01*
%TO.C,C8*%
X183857600Y-63929000D02*
X184257600Y-63929000D01*
X184057600Y-63729000D02*
X184057600Y-64129000D01*
X186127401Y-63044000D02*
X186127401Y-64284000D01*
X186127401Y-65964000D02*
X186127401Y-67204000D01*
X186167401Y-63044000D02*
X186167401Y-64284000D01*
X186167401Y-65964000D02*
X186167401Y-67204000D01*
X186207401Y-63045000D02*
X186207401Y-64284000D01*
X186207401Y-65964000D02*
X186207401Y-67203000D01*
X186247401Y-63047000D02*
X186247401Y-64284000D01*
X186247401Y-65964000D02*
X186247401Y-67201000D01*
X186287401Y-63050000D02*
X186287401Y-64284000D01*
X186287401Y-65964000D02*
X186287401Y-67198000D01*
X186327401Y-63053000D02*
X186327401Y-64284000D01*
X186327401Y-65964000D02*
X186327401Y-67195000D01*
X186367401Y-63057000D02*
X186367401Y-64284000D01*
X186367401Y-65964000D02*
X186367401Y-67191000D01*
X186407401Y-63062000D02*
X186407401Y-64284000D01*
X186407401Y-65964000D02*
X186407401Y-67186000D01*
X186447401Y-63068000D02*
X186447401Y-64284000D01*
X186447401Y-65964000D02*
X186447401Y-67180000D01*
X186487401Y-63074000D02*
X186487401Y-64284000D01*
X186487401Y-65964000D02*
X186487401Y-67174000D01*
X186527401Y-63082000D02*
X186527401Y-64284000D01*
X186527401Y-65964000D02*
X186527401Y-67166000D01*
X186567401Y-63090000D02*
X186567401Y-64284000D01*
X186567401Y-65964000D02*
X186567401Y-67158000D01*
X186607401Y-63099000D02*
X186607401Y-64284000D01*
X186607401Y-65964000D02*
X186607401Y-67149000D01*
X186647401Y-63108000D02*
X186647401Y-64284000D01*
X186647401Y-65964000D02*
X186647401Y-67140000D01*
X186687401Y-63119000D02*
X186687401Y-64284000D01*
X186687401Y-65964000D02*
X186687401Y-67129000D01*
X186727401Y-63130000D02*
X186727401Y-64284000D01*
X186727401Y-65964000D02*
X186727401Y-67118000D01*
X186767401Y-63142000D02*
X186767401Y-64284000D01*
X186767401Y-65964000D02*
X186767401Y-67106000D01*
X186807401Y-63156000D02*
X186807401Y-64284000D01*
X186807401Y-65964000D02*
X186807401Y-67092000D01*
X186848401Y-63170000D02*
X186848401Y-64284000D01*
X186848401Y-65964000D02*
X186848401Y-67078000D01*
X186888401Y-63184000D02*
X186888401Y-64284000D01*
X186888401Y-65964000D02*
X186888401Y-67064000D01*
X186928401Y-63200000D02*
X186928401Y-64284000D01*
X186928401Y-65964000D02*
X186928401Y-67048000D01*
X186968401Y-63217000D02*
X186968401Y-64284000D01*
X186968401Y-65964000D02*
X186968401Y-67031000D01*
X187008401Y-63235000D02*
X187008401Y-64284000D01*
X187008401Y-65964000D02*
X187008401Y-67013000D01*
X187048401Y-63254000D02*
X187048401Y-64284000D01*
X187048401Y-65964000D02*
X187048401Y-66994000D01*
X187088401Y-63273000D02*
X187088401Y-64284000D01*
X187088401Y-65964000D02*
X187088401Y-66975000D01*
X187128401Y-63294000D02*
X187128401Y-64284000D01*
X187128401Y-65964000D02*
X187128401Y-66954000D01*
X187168401Y-63316000D02*
X187168401Y-64284000D01*
X187168401Y-65964000D02*
X187168401Y-66932000D01*
X187208401Y-63339000D02*
X187208401Y-64284000D01*
X187208401Y-65964000D02*
X187208401Y-66909000D01*
X187248401Y-63364000D02*
X187248401Y-64284000D01*
X187248401Y-65964000D02*
X187248401Y-66884000D01*
X187288401Y-63389000D02*
X187288401Y-64284000D01*
X187288401Y-65964000D02*
X187288401Y-66859000D01*
X187328401Y-63416000D02*
X187328401Y-64284000D01*
X187328401Y-65964000D02*
X187328401Y-66832000D01*
X187368401Y-63444000D02*
X187368401Y-64284000D01*
X187368401Y-65964000D02*
X187368401Y-66804000D01*
X187408401Y-63474000D02*
X187408401Y-64284000D01*
X187408401Y-65964000D02*
X187408401Y-66774000D01*
X187448401Y-63505000D02*
X187448401Y-64284000D01*
X187448401Y-65964000D02*
X187448401Y-66743000D01*
X187488401Y-63537000D02*
X187488401Y-64284000D01*
X187488401Y-65964000D02*
X187488401Y-66711000D01*
X187528401Y-63572000D02*
X187528401Y-64284000D01*
X187528401Y-65964000D02*
X187528401Y-66676000D01*
X187568401Y-63608000D02*
X187568401Y-64284000D01*
X187568401Y-65964000D02*
X187568401Y-66640000D01*
X187608401Y-63646000D02*
X187608401Y-64284000D01*
X187608401Y-65964000D02*
X187608401Y-66602000D01*
X187648401Y-63686000D02*
X187648401Y-64284000D01*
X187648401Y-65964000D02*
X187648401Y-66562000D01*
X187688401Y-63728000D02*
X187688401Y-64284000D01*
X187688401Y-65964000D02*
X187688401Y-66520000D01*
X187728401Y-63773000D02*
X187728401Y-66475000D01*
X187768401Y-63820000D02*
X187768401Y-66428000D01*
X187808401Y-63870000D02*
X187808401Y-66378000D01*
X187848401Y-63924000D02*
X187848401Y-66324000D01*
X187888401Y-63982000D02*
X187888401Y-66266000D01*
X187928401Y-64044000D02*
X187928401Y-66204000D01*
X187968401Y-64111000D02*
X187968401Y-66137000D01*
X188008401Y-64184000D02*
X188008401Y-66064000D01*
X188048401Y-64265000D02*
X188048401Y-65983000D01*
X188088401Y-64356000D02*
X188088401Y-65892000D01*
X188128401Y-64460000D02*
X188128401Y-65788000D01*
X188168401Y-64587000D02*
X188168401Y-65661000D01*
X188208401Y-64754000D02*
X188208401Y-65494000D01*
X188247401Y-65124000D02*
G75*
G03*
X188247401Y-65124000I-2120000J0D01*
G01*
%TO.C,C3*%
X136852199Y-62913000D02*
X137252199Y-62913000D01*
X137052199Y-62713000D02*
X137052199Y-63113000D01*
X139122000Y-62028000D02*
X139122000Y-63268000D01*
X139122000Y-64948000D02*
X139122000Y-66188000D01*
X139162000Y-62028000D02*
X139162000Y-63268000D01*
X139162000Y-64948000D02*
X139162000Y-66188000D01*
X139202000Y-62029000D02*
X139202000Y-63268000D01*
X139202000Y-64948000D02*
X139202000Y-66187000D01*
X139242000Y-62031000D02*
X139242000Y-63268000D01*
X139242000Y-64948000D02*
X139242000Y-66185000D01*
X139282000Y-62034000D02*
X139282000Y-63268000D01*
X139282000Y-64948000D02*
X139282000Y-66182000D01*
X139322000Y-62037000D02*
X139322000Y-63268000D01*
X139322000Y-64948000D02*
X139322000Y-66179000D01*
X139362000Y-62041000D02*
X139362000Y-63268000D01*
X139362000Y-64948000D02*
X139362000Y-66175000D01*
X139402000Y-62046000D02*
X139402000Y-63268000D01*
X139402000Y-64948000D02*
X139402000Y-66170000D01*
X139442000Y-62052000D02*
X139442000Y-63268000D01*
X139442000Y-64948000D02*
X139442000Y-66164000D01*
X139482000Y-62058000D02*
X139482000Y-63268000D01*
X139482000Y-64948000D02*
X139482000Y-66158000D01*
X139522000Y-62066000D02*
X139522000Y-63268000D01*
X139522000Y-64948000D02*
X139522000Y-66150000D01*
X139562000Y-62074000D02*
X139562000Y-63268000D01*
X139562000Y-64948000D02*
X139562000Y-66142000D01*
X139602000Y-62083000D02*
X139602000Y-63268000D01*
X139602000Y-64948000D02*
X139602000Y-66133000D01*
X139642000Y-62092000D02*
X139642000Y-63268000D01*
X139642000Y-64948000D02*
X139642000Y-66124000D01*
X139682000Y-62103000D02*
X139682000Y-63268000D01*
X139682000Y-64948000D02*
X139682000Y-66113000D01*
X139722000Y-62114000D02*
X139722000Y-63268000D01*
X139722000Y-64948000D02*
X139722000Y-66102000D01*
X139762000Y-62126000D02*
X139762000Y-63268000D01*
X139762000Y-64948000D02*
X139762000Y-66090000D01*
X139802000Y-62140000D02*
X139802000Y-63268000D01*
X139802000Y-64948000D02*
X139802000Y-66076000D01*
X139843000Y-62154000D02*
X139843000Y-63268000D01*
X139843000Y-64948000D02*
X139843000Y-66062000D01*
X139883000Y-62168000D02*
X139883000Y-63268000D01*
X139883000Y-64948000D02*
X139883000Y-66048000D01*
X139923000Y-62184000D02*
X139923000Y-63268000D01*
X139923000Y-64948000D02*
X139923000Y-66032000D01*
X139963000Y-62201000D02*
X139963000Y-63268000D01*
X139963000Y-64948000D02*
X139963000Y-66015000D01*
X140003000Y-62219000D02*
X140003000Y-63268000D01*
X140003000Y-64948000D02*
X140003000Y-65997000D01*
X140043000Y-62238000D02*
X140043000Y-63268000D01*
X140043000Y-64948000D02*
X140043000Y-65978000D01*
X140083000Y-62257000D02*
X140083000Y-63268000D01*
X140083000Y-64948000D02*
X140083000Y-65959000D01*
X140123000Y-62278000D02*
X140123000Y-63268000D01*
X140123000Y-64948000D02*
X140123000Y-65938000D01*
X140163000Y-62300000D02*
X140163000Y-63268000D01*
X140163000Y-64948000D02*
X140163000Y-65916000D01*
X140203000Y-62323000D02*
X140203000Y-63268000D01*
X140203000Y-64948000D02*
X140203000Y-65893000D01*
X140243000Y-62348000D02*
X140243000Y-63268000D01*
X140243000Y-64948000D02*
X140243000Y-65868000D01*
X140283000Y-62373000D02*
X140283000Y-63268000D01*
X140283000Y-64948000D02*
X140283000Y-65843000D01*
X140323000Y-62400000D02*
X140323000Y-63268000D01*
X140323000Y-64948000D02*
X140323000Y-65816000D01*
X140363000Y-62428000D02*
X140363000Y-63268000D01*
X140363000Y-64948000D02*
X140363000Y-65788000D01*
X140403000Y-62458000D02*
X140403000Y-63268000D01*
X140403000Y-64948000D02*
X140403000Y-65758000D01*
X140443000Y-62489000D02*
X140443000Y-63268000D01*
X140443000Y-64948000D02*
X140443000Y-65727000D01*
X140483000Y-62521000D02*
X140483000Y-63268000D01*
X140483000Y-64948000D02*
X140483000Y-65695000D01*
X140523000Y-62556000D02*
X140523000Y-63268000D01*
X140523000Y-64948000D02*
X140523000Y-65660000D01*
X140563000Y-62592000D02*
X140563000Y-63268000D01*
X140563000Y-64948000D02*
X140563000Y-65624000D01*
X140603000Y-62630000D02*
X140603000Y-63268000D01*
X140603000Y-64948000D02*
X140603000Y-65586000D01*
X140643000Y-62670000D02*
X140643000Y-63268000D01*
X140643000Y-64948000D02*
X140643000Y-65546000D01*
X140683000Y-62712000D02*
X140683000Y-63268000D01*
X140683000Y-64948000D02*
X140683000Y-65504000D01*
X140723000Y-62757000D02*
X140723000Y-65459000D01*
X140763000Y-62804000D02*
X140763000Y-65412000D01*
X140803000Y-62854000D02*
X140803000Y-65362000D01*
X140843000Y-62908000D02*
X140843000Y-65308000D01*
X140883000Y-62966000D02*
X140883000Y-65250000D01*
X140923000Y-63028000D02*
X140923000Y-65188000D01*
X140963000Y-63095000D02*
X140963000Y-65121000D01*
X141003000Y-63168000D02*
X141003000Y-65048000D01*
X141043000Y-63249000D02*
X141043000Y-64967000D01*
X141083000Y-63340000D02*
X141083000Y-64876000D01*
X141123000Y-63444000D02*
X141123000Y-64772000D01*
X141163000Y-63571000D02*
X141163000Y-64645000D01*
X141203000Y-63738000D02*
X141203000Y-64478000D01*
X141242000Y-64108000D02*
G75*
G03*
X141242000Y-64108000I-2120000J0D01*
G01*
%TD*%
M02*
