%TF.GenerationSoftware,KiCad,Pcbnew,(7.0.0)*%
%TF.CreationDate,2023-04-05T08:28:23-04:00*%
%TF.ProjectId,BREAD_BLDC,42524541-445f-4424-9c44-432e6b696361,rev?*%
%TF.SameCoordinates,Original*%
%TF.FileFunction,Copper,L2,Bot*%
%TF.FilePolarity,Positive*%
%FSLAX46Y46*%
G04 Gerber Fmt 4.6, Leading zero omitted, Abs format (unit mm)*
G04 Created by KiCad (PCBNEW (7.0.0)) date 2023-04-05 08:28:23*
%MOMM*%
%LPD*%
G01*
G04 APERTURE LIST*
G04 Aperture macros list*
%AMRoundRect*
0 Rectangle with rounded corners*
0 $1 Rounding radius*
0 $2 $3 $4 $5 $6 $7 $8 $9 X,Y pos of 4 corners*
0 Add a 4 corners polygon primitive as box body*
4,1,4,$2,$3,$4,$5,$6,$7,$8,$9,$2,$3,0*
0 Add four circle primitives for the rounded corners*
1,1,$1+$1,$2,$3*
1,1,$1+$1,$4,$5*
1,1,$1+$1,$6,$7*
1,1,$1+$1,$8,$9*
0 Add four rect primitives between the rounded corners*
20,1,$1+$1,$2,$3,$4,$5,0*
20,1,$1+$1,$4,$5,$6,$7,0*
20,1,$1+$1,$6,$7,$8,$9,0*
20,1,$1+$1,$8,$9,$2,$3,0*%
G04 Aperture macros list end*
%TA.AperFunction,ComponentPad*%
%ADD10C,5.600000*%
%TD*%
%TA.AperFunction,ComponentPad*%
%ADD11R,1.600000X1.600000*%
%TD*%
%TA.AperFunction,ComponentPad*%
%ADD12O,1.600000X1.600000*%
%TD*%
%TA.AperFunction,ComponentPad*%
%ADD13R,1.200000X1.200000*%
%TD*%
%TA.AperFunction,ComponentPad*%
%ADD14C,1.200000*%
%TD*%
%TA.AperFunction,ComponentPad*%
%ADD15R,1.700000X1.700000*%
%TD*%
%TA.AperFunction,ComponentPad*%
%ADD16O,1.700000X1.700000*%
%TD*%
%TA.AperFunction,ComponentPad*%
%ADD17RoundRect,0.250000X-0.600000X0.600000X-0.600000X-0.600000X0.600000X-0.600000X0.600000X0.600000X0*%
%TD*%
%TA.AperFunction,ComponentPad*%
%ADD18C,1.700000*%
%TD*%
%TA.AperFunction,ComponentPad*%
%ADD19R,2.240000X2.240000*%
%TD*%
%TA.AperFunction,ComponentPad*%
%ADD20O,2.240000X2.240000*%
%TD*%
%TA.AperFunction,ComponentPad*%
%ADD21C,1.400000*%
%TD*%
%TA.AperFunction,ComponentPad*%
%ADD22O,1.400000X1.400000*%
%TD*%
%TA.AperFunction,ComponentPad*%
%ADD23RoundRect,0.250000X-0.600000X-0.600000X0.600000X-0.600000X0.600000X0.600000X-0.600000X0.600000X0*%
%TD*%
%TA.AperFunction,ComponentPad*%
%ADD24RoundRect,0.250000X0.600000X0.600000X-0.600000X0.600000X-0.600000X-0.600000X0.600000X-0.600000X0*%
%TD*%
%TA.AperFunction,ViaPad*%
%ADD25C,0.800000*%
%TD*%
%TA.AperFunction,Conductor*%
%ADD26C,0.250000*%
%TD*%
G04 APERTURE END LIST*
D10*
%TO.P,H1,1*%
%TO.N,N/C*%
X127600000Y-44800000D03*
%TD*%
%TO.P,H2,1*%
%TO.N,N/C*%
X187600000Y-44800000D03*
%TD*%
%TO.P,H3,1*%
%TO.N,N/C*%
X127600000Y-134800000D03*
%TD*%
%TO.P,H4,1*%
%TO.N,N/C*%
X187600000Y-134800000D03*
%TD*%
D11*
%TO.P,A1,1,D1/TX*%
%TO.N,unconnected-(A1-D1{slash}TX-Pad1)*%
X134999999Y-99999999D03*
D12*
%TO.P,A1,2,D0/RX*%
%TO.N,unconnected-(A1-D0{slash}RX-Pad2)*%
X134999999Y-102539999D03*
%TO.P,A1,3,~{RESET}*%
%TO.N,unconnected-(A1-~{RESET}-Pad3)*%
X134999999Y-105079999D03*
%TO.P,A1,4,GND*%
%TO.N,GND*%
X134999999Y-107619999D03*
%TO.P,A1,5,D2*%
%TO.N,/E_STOP*%
X134999999Y-110159999D03*
%TO.P,A1,6,D3*%
%TO.N,/SYNC*%
X134999999Y-112699999D03*
%TO.P,A1,7,D4*%
%TO.N,/INT*%
X134999999Y-115239999D03*
%TO.P,A1,8,D5*%
%TO.N,unconnected-(A1-D5-Pad8)*%
X134999999Y-117779999D03*
%TO.P,A1,9,D6*%
%TO.N,unconnected-(A1-D6-Pad9)*%
X134999999Y-120319999D03*
%TO.P,A1,10,D7*%
%TO.N,unconnected-(A1-D7-Pad10)*%
X134999999Y-122859999D03*
%TO.P,A1,11,D8*%
%TO.N,D8*%
X134999999Y-125399999D03*
%TO.P,A1,12,D9*%
%TO.N,D9*%
X134999999Y-127939999D03*
%TO.P,A1,13,D10*%
%TO.N,D10*%
X134999999Y-130479999D03*
%TO.P,A1,14,D11*%
%TO.N,D11*%
X134999999Y-133019999D03*
%TO.P,A1,15,D12*%
%TO.N,D12*%
X134999999Y-135559999D03*
%TO.P,A1,16,D13*%
%TO.N,D13*%
X150239999Y-135559999D03*
%TO.P,A1,17,3V3*%
%TO.N,unconnected-(A1-3V3-Pad17)*%
X150239999Y-133019999D03*
%TO.P,A1,18,AREF*%
%TO.N,unconnected-(A1-AREF-Pad18)*%
X150239999Y-130479999D03*
%TO.P,A1,19,A0*%
%TO.N,A0*%
X150239999Y-127939999D03*
%TO.P,A1,20,A1*%
%TO.N,A1*%
X150239999Y-125399999D03*
%TO.P,A1,21,A2*%
%TO.N,unconnected-(A1-A2-Pad21)*%
X150239999Y-122859999D03*
%TO.P,A1,22,A3*%
%TO.N,unconnected-(A1-A3-Pad22)*%
X150239999Y-120319999D03*
%TO.P,A1,23,A4*%
%TO.N,/I2C_DAT*%
X150239999Y-117779999D03*
%TO.P,A1,24,A5*%
%TO.N,/I2C_CLK*%
X150239999Y-115239999D03*
%TO.P,A1,25,A6*%
%TO.N,unconnected-(A1-A6-Pad25)*%
X150239999Y-112699999D03*
%TO.P,A1,26,A7*%
%TO.N,unconnected-(A1-A7-Pad26)*%
X150239999Y-110159999D03*
%TO.P,A1,27,+5V*%
%TO.N,+5V*%
X150239999Y-107619999D03*
%TO.P,A1,28,~{RESET}*%
%TO.N,unconnected-(A1-~{RESET}-Pad28)*%
X150239999Y-105079999D03*
%TO.P,A1,29,GND*%
%TO.N,GND*%
X150239999Y-102539999D03*
%TO.P,A1,30,VIN*%
%TO.N,+12V*%
X150239999Y-99999999D03*
%TD*%
D13*
%TO.P,C2,1*%
%TO.N,+5V*%
X140911999Y-92047999D03*
D14*
%TO.P,C2,2*%
%TO.N,GND*%
X142412000Y-92048000D03*
%TD*%
D15*
%TO.P,J1,1,Pin_1*%
%TO.N,GND*%
X129599999Y-78799999D03*
D16*
%TO.P,J1,2,Pin_2*%
%TO.N,+12V*%
X129599999Y-81339999D03*
%TO.P,J1,3,Pin_3*%
%TO.N,/I2C_CLK*%
X129599999Y-83879999D03*
%TO.P,J1,4,Pin_4*%
%TO.N,/I2C_DAT*%
X129599999Y-86419999D03*
%TO.P,J1,5,Pin_5*%
%TO.N,GND*%
X129599999Y-88959999D03*
%TO.P,J1,6,Pin_6*%
%TO.N,/E_STOP*%
X129599999Y-91499999D03*
%TO.P,J1,7,Pin_7*%
%TO.N,/SYNC*%
X129599999Y-94039999D03*
%TO.P,J1,8,Pin_8*%
%TO.N,/INT*%
X129599999Y-96579999D03*
%TO.P,J1,9,Pin_9*%
%TO.N,+12V*%
X129599999Y-99119999D03*
%TO.P,J1,10,Pin_10*%
%TO.N,GND*%
X129599999Y-101659999D03*
%TD*%
D13*
%TO.P,C1,1*%
%TO.N,+12V*%
X135593400Y-92047999D03*
D14*
%TO.P,C1,2*%
%TO.N,GND*%
X137093401Y-92048000D03*
%TD*%
D13*
%TO.P,C5,1*%
%TO.N,Net-(a2-FILTER)*%
X144975999Y-59027999D03*
D14*
%TO.P,C5,2*%
%TO.N,GND*%
X146476000Y-59028000D03*
%TD*%
D17*
%TO.P,J5,1,Pin_1*%
%TO.N,Net-(J5-Pin_1)*%
X190672000Y-89728000D03*
D18*
%TO.P,J5,2,Pin_2*%
%TO.N,Net-(J5-Pin_2)*%
X190672000Y-93428000D03*
%TO.P,J5,3,Pin_3*%
%TO.N,Net-(J5-Pin_3)*%
X190672000Y-97128000D03*
%TD*%
D19*
%TO.P,D3,1,K*%
%TO.N,Net-(D3-K)*%
X177885999Y-79347999D03*
D20*
%TO.P,D3,2,A*%
%TO.N,Net-(D3-A)*%
X175345999Y-79347999D03*
%TD*%
D19*
%TO.P,D2,1,K*%
%TO.N,Net-(D2-K)*%
X177885999Y-72743999D03*
D20*
%TO.P,D2,2,A*%
%TO.N,Net-(D2-A)*%
X175345999Y-72743999D03*
%TD*%
D13*
%TO.P,C4,1*%
%TO.N,+5V*%
X148531999Y-64107999D03*
D14*
%TO.P,C4,2*%
%TO.N,Net-(b1-FILTER)*%
X150032000Y-64108000D03*
%TD*%
D13*
%TO.P,C6,1*%
%TO.N,Net-(b1-FILTER)*%
X156151999Y-59027999D03*
D14*
%TO.P,C6,2*%
%TO.N,GND*%
X157652000Y-59028000D03*
%TD*%
D19*
%TO.P,D1,1,K*%
%TO.N,Net-(D1-K)*%
X177885999Y-65123999D03*
D20*
%TO.P,D1,2,A*%
%TO.N,Net-(D1-A)*%
X175345999Y-65123999D03*
%TD*%
D13*
%TO.P,C10,1*%
%TO.N,Net-(D3-K)*%
X185377400Y-81887999D03*
D14*
%TO.P,C10,2*%
%TO.N,Net-(J5-Pin_3)*%
X186877401Y-81888000D03*
%TD*%
D13*
%TO.P,C7,1*%
%TO.N,+15V*%
X162223999Y-122527999D03*
D14*
%TO.P,C7,2*%
%TO.N,GND*%
X162224000Y-121028000D03*
%TD*%
D21*
%TO.P,R1,1*%
%TO.N,+15V*%
X169382000Y-64108000D03*
D22*
%TO.P,R1,2*%
%TO.N,Net-(D1-A)*%
X171281999Y-64107999D03*
%TD*%
D23*
%TO.P,J3,1,Pin_1*%
%TO.N,Net-(J3-Pin_1)*%
X149706000Y-44804000D03*
D18*
%TO.P,J3,2,Pin_2*%
%TO.N,Net-(J3-Pin_2)*%
X153406000Y-44804000D03*
%TD*%
D24*
%TO.P,J4,1,Pin_1*%
%TO.N,GND*%
X173400000Y-58520000D03*
D18*
%TO.P,J4,2,Pin_2*%
%TO.N,+15V*%
X169700000Y-58520000D03*
%TD*%
D21*
%TO.P,R3,1*%
%TO.N,+15V*%
X169340000Y-78332000D03*
D22*
%TO.P,R3,2*%
%TO.N,Net-(D3-A)*%
X171239999Y-78331999D03*
%TD*%
D23*
%TO.P,J2,1,Pin_1*%
%TO.N,Net-(J2-Pin_1)*%
X139038000Y-44804000D03*
D18*
%TO.P,J2,2,Pin_2*%
%TO.N,Net-(J2-Pin_2)*%
X142738000Y-44804000D03*
%TD*%
D13*
%TO.P,C9,1*%
%TO.N,Net-(D2-K)*%
X185377400Y-73251999D03*
D14*
%TO.P,C9,2*%
%TO.N,Net-(J5-Pin_2)*%
X186877401Y-73252000D03*
%TD*%
D21*
%TO.P,R2,1*%
%TO.N,+15V*%
X169340000Y-71728000D03*
D22*
%TO.P,R2,2*%
%TO.N,Net-(D2-A)*%
X171239999Y-71727999D03*
%TD*%
D13*
%TO.P,C8,1*%
%TO.N,Net-(D1-K)*%
X185377400Y-65123999D03*
D14*
%TO.P,C8,2*%
%TO.N,Net-(J5-Pin_1)*%
X186877401Y-65124000D03*
%TD*%
D13*
%TO.P,C3,1*%
%TO.N,+5V*%
X138371999Y-64107999D03*
D14*
%TO.P,C3,2*%
%TO.N,Net-(a2-FILTER)*%
X139872000Y-64108000D03*
%TD*%
D25*
%TO.N,GND*%
X175940000Y-87476000D03*
X175940000Y-104748000D03*
X175940000Y-96112000D03*
%TO.N,Net-(D3-K)*%
X176956000Y-122020000D03*
%TO.N,Net-(J5-Pin_3)*%
X170860000Y-104748000D03*
X176956000Y-125068000D03*
X179496000Y-103732000D03*
%TO.N,Net-(Q4-G)*%
X177464000Y-94080000D03*
X167812000Y-125068000D03*
%TO.N,Net-(Q5-G)*%
X176956000Y-123544000D03*
X168828000Y-104748000D03*
%TO.N,Net-(Q6-G)*%
X176956000Y-126084000D03*
X177464000Y-102716000D03*
%TD*%
D26*
%TO.N,/I2C_DAT*%
X141495000Y-109035000D02*
X133619396Y-109035000D01*
X133619396Y-109035000D02*
X132252000Y-107667604D01*
X132252000Y-89072000D02*
X129600000Y-86420000D01*
X132252000Y-107667604D02*
X132252000Y-89072000D01*
X150240000Y-117780000D02*
X141495000Y-109035000D01*
%TO.N,/SYNC*%
X135000000Y-112700000D02*
X131236000Y-108936000D01*
X131236000Y-108936000D02*
X131236000Y-95676000D01*
X131236000Y-95676000D02*
X129600000Y-94040000D01*
%TO.N,/E_STOP*%
X131744000Y-93644000D02*
X129600000Y-91500000D01*
X134108000Y-110160000D02*
X131744000Y-107796000D01*
X131744000Y-107796000D02*
X131744000Y-93644000D01*
X135000000Y-110160000D02*
X134108000Y-110160000D01*
%TO.N,/INT*%
X135000000Y-115240000D02*
X130775000Y-111015000D01*
X130775000Y-111015000D02*
X130775000Y-97755000D01*
X130775000Y-97755000D02*
X129600000Y-96580000D01*
%TO.N,+15V*%
X169700000Y-58520000D02*
X169700000Y-63790000D01*
X169700000Y-63790000D02*
X169382000Y-64108000D01*
X169382000Y-71686000D02*
X169340000Y-71728000D01*
%TO.N,Net-(D1-K)*%
X177886000Y-65124000D02*
X185377401Y-65124000D01*
%TO.N,Net-(D2-K)*%
X177886000Y-72744000D02*
X184869401Y-72744000D01*
X184869401Y-72744000D02*
X185377401Y-73252000D01*
%TO.N,Net-(D3-K)*%
X182837401Y-79348000D02*
X185377401Y-81888000D01*
X177886000Y-79348000D02*
X182837401Y-79348000D01*
%TO.N,Net-(J5-Pin_3)*%
X175940000Y-101192000D02*
X175940000Y-103224000D01*
X175940000Y-103224000D02*
X176448000Y-103732000D01*
X179496000Y-103732000D02*
X179496000Y-123544000D01*
X179496000Y-123544000D02*
X177972000Y-125068000D01*
X170860000Y-104748000D02*
X174474000Y-101134000D01*
X180512000Y-93572000D02*
X180512000Y-96620000D01*
X174474000Y-101134000D02*
X174474000Y-95417604D01*
X176448000Y-103732000D02*
X179496000Y-103732000D01*
X180512000Y-96620000D02*
X175940000Y-101192000D01*
X176536604Y-93355000D02*
X180295000Y-93355000D01*
X174474000Y-95417604D02*
X176536604Y-93355000D01*
X180295000Y-93355000D02*
X180512000Y-93572000D01*
X177972000Y-125068000D02*
X176956000Y-125068000D01*
%TO.N,Net-(D1-A)*%
X171282000Y-64108000D02*
X174330000Y-64108000D01*
X174330000Y-64108000D02*
X175346000Y-65124000D01*
%TO.N,Net-(D2-A)*%
X174330000Y-71728000D02*
X175346000Y-72744000D01*
X171240000Y-71728000D02*
X174330000Y-71728000D01*
%TO.N,Net-(D3-A)*%
X171240000Y-78332000D02*
X174330000Y-78332000D01*
X174330000Y-78332000D02*
X175346000Y-79348000D01*
%TO.N,Net-(Q4-G)*%
X174924000Y-95604000D02*
X174924000Y-119480000D01*
X169336000Y-125068000D02*
X167812000Y-125068000D01*
X174924000Y-119480000D02*
X169336000Y-125068000D01*
X176448000Y-94080000D02*
X174924000Y-95604000D01*
X177464000Y-94080000D02*
X176448000Y-94080000D01*
%TO.N,Net-(Q5-G)*%
X167511695Y-125793000D02*
X169627000Y-125793000D01*
X171876000Y-123544000D02*
X176956000Y-123544000D01*
X167087000Y-125368305D02*
X167511695Y-125793000D01*
X169627000Y-125793000D02*
X171876000Y-123544000D01*
X167087000Y-106489000D02*
X167087000Y-125368305D01*
X168828000Y-104748000D02*
X167087000Y-106489000D01*
%TO.N,Net-(Q6-G)*%
X179505305Y-102716000D02*
X180221000Y-103431695D01*
X177972000Y-126084000D02*
X176956000Y-126084000D01*
X177464000Y-102716000D02*
X179505305Y-102716000D01*
X180221000Y-103431695D02*
X180221000Y-123835000D01*
X180221000Y-123835000D02*
X177972000Y-126084000D01*
%TD*%
%TA.AperFunction,Conductor*%
%TO.N,GND*%
G36*
X175711818Y-103899521D02*
G01*
X175761181Y-103929771D01*
X175950706Y-104119296D01*
X175958158Y-104127485D01*
X175962214Y-104133877D01*
X175967898Y-104139215D01*
X175967900Y-104139217D01*
X176011223Y-104179900D01*
X176014019Y-104182610D01*
X176033529Y-104202120D01*
X176036709Y-104204587D01*
X176045571Y-104212155D01*
X176049435Y-104215784D01*
X176071732Y-104236723D01*
X176071734Y-104236724D01*
X176077418Y-104242062D01*
X176084251Y-104245818D01*
X176084252Y-104245819D01*
X176094973Y-104251713D01*
X176111234Y-104262394D01*
X176127064Y-104274673D01*
X176167155Y-104292021D01*
X176177635Y-104297155D01*
X176215908Y-104318197D01*
X176235316Y-104323180D01*
X176253719Y-104329481D01*
X176264944Y-104334339D01*
X176264946Y-104334339D01*
X176272104Y-104337437D01*
X176315258Y-104344271D01*
X176326644Y-104346629D01*
X176368981Y-104357500D01*
X176389017Y-104357500D01*
X176408415Y-104359027D01*
X176428196Y-104362160D01*
X176471671Y-104358049D01*
X176483342Y-104357500D01*
X178746500Y-104357500D01*
X178808500Y-104374113D01*
X178853887Y-104419500D01*
X178870500Y-104481500D01*
X178870500Y-123233547D01*
X178861061Y-123281000D01*
X178834181Y-123321228D01*
X177749228Y-124406181D01*
X177709000Y-124433061D01*
X177661547Y-124442500D01*
X177659748Y-124442500D01*
X177609315Y-124431781D01*
X177571222Y-124404107D01*
X177571054Y-124404295D01*
X177569267Y-124402687D01*
X177567601Y-124401476D01*
X177561874Y-124395115D01*
X177562168Y-124394850D01*
X177528005Y-124340181D01*
X177528005Y-124271819D01*
X177562166Y-124217153D01*
X177561871Y-124216888D01*
X177561875Y-124216884D01*
X177688533Y-124076216D01*
X177783179Y-123912284D01*
X177841674Y-123732256D01*
X177861460Y-123544000D01*
X177841674Y-123355744D01*
X177783179Y-123175716D01*
X177688533Y-123011784D01*
X177561871Y-122871112D01*
X177561871Y-122871111D01*
X177562166Y-122870846D01*
X177528005Y-122816181D01*
X177528005Y-122747819D01*
X177562166Y-122693153D01*
X177561871Y-122692888D01*
X177561871Y-122692887D01*
X177688533Y-122552216D01*
X177783179Y-122388284D01*
X177841674Y-122208256D01*
X177861460Y-122020000D01*
X177841674Y-121831744D01*
X177783179Y-121651716D01*
X177688533Y-121487784D01*
X177679379Y-121477618D01*
X177566220Y-121351942D01*
X177566219Y-121351941D01*
X177561871Y-121347112D01*
X177556613Y-121343292D01*
X177556611Y-121343290D01*
X177413988Y-121239669D01*
X177413987Y-121239668D01*
X177408730Y-121235849D01*
X177402792Y-121233205D01*
X177241745Y-121161501D01*
X177241740Y-121161499D01*
X177235803Y-121158856D01*
X177229444Y-121157504D01*
X177229440Y-121157503D01*
X177057008Y-121120852D01*
X177057005Y-121120851D01*
X177050646Y-121119500D01*
X176861354Y-121119500D01*
X176854995Y-121120851D01*
X176854991Y-121120852D01*
X176682559Y-121157503D01*
X176682552Y-121157505D01*
X176676197Y-121158856D01*
X176670262Y-121161498D01*
X176670254Y-121161501D01*
X176509207Y-121233205D01*
X176509202Y-121233207D01*
X176503270Y-121235849D01*
X176498016Y-121239665D01*
X176498011Y-121239669D01*
X176355388Y-121343290D01*
X176355381Y-121343295D01*
X176350129Y-121347112D01*
X176345784Y-121351937D01*
X176345779Y-121351942D01*
X176227813Y-121482956D01*
X176227808Y-121482962D01*
X176223467Y-121487784D01*
X176220222Y-121493404D01*
X176220218Y-121493410D01*
X176132069Y-121646089D01*
X176132066Y-121646094D01*
X176128821Y-121651716D01*
X176126815Y-121657888D01*
X176126813Y-121657894D01*
X176072333Y-121825564D01*
X176072331Y-121825573D01*
X176070326Y-121831744D01*
X176069648Y-121838194D01*
X176069646Y-121838204D01*
X176051962Y-122006464D01*
X176050540Y-122020000D01*
X176051219Y-122026460D01*
X176069646Y-122201795D01*
X176069647Y-122201803D01*
X176070326Y-122208256D01*
X176072331Y-122214428D01*
X176072333Y-122214435D01*
X176126813Y-122382105D01*
X176128821Y-122388284D01*
X176223467Y-122552216D01*
X176348623Y-122691215D01*
X176348624Y-122691217D01*
X176350129Y-122692888D01*
X176349834Y-122693153D01*
X176383995Y-122747821D01*
X176383995Y-122816179D01*
X176349831Y-122870851D01*
X176350125Y-122871115D01*
X176349331Y-122871997D01*
X176348623Y-122872784D01*
X176348621Y-122872785D01*
X176345786Y-122875935D01*
X176345782Y-122875939D01*
X176344399Y-122877476D01*
X176342727Y-122878690D01*
X176340952Y-122880289D01*
X176340783Y-122880102D01*
X176302685Y-122907781D01*
X176252252Y-122918500D01*
X172669452Y-122918500D01*
X172613157Y-122904985D01*
X172569134Y-122867385D01*
X172546979Y-122813898D01*
X172551521Y-122756182D01*
X172581771Y-122706819D01*
X173945300Y-121343290D01*
X175311311Y-119977278D01*
X175319481Y-119969844D01*
X175325877Y-119965786D01*
X175371918Y-119916756D01*
X175374535Y-119914054D01*
X175394120Y-119894471D01*
X175396585Y-119891292D01*
X175404167Y-119882416D01*
X175412536Y-119873504D01*
X175434062Y-119850582D01*
X175443713Y-119833023D01*
X175454390Y-119816770D01*
X175466673Y-119800936D01*
X175484018Y-119760852D01*
X175489151Y-119750371D01*
X175510197Y-119712092D01*
X175515179Y-119692684D01*
X175521482Y-119674276D01*
X175529437Y-119655896D01*
X175536271Y-119612744D01*
X175538633Y-119601338D01*
X175549500Y-119559019D01*
X175549500Y-119538983D01*
X175551027Y-119519585D01*
X175552939Y-119507513D01*
X175552938Y-119507513D01*
X175554160Y-119499804D01*
X175550050Y-119456324D01*
X175549500Y-119444655D01*
X175549500Y-104017452D01*
X175563015Y-103961157D01*
X175600615Y-103917134D01*
X175654102Y-103894979D01*
X175711818Y-103899521D01*
G37*
%TD.AperFunction*%
%TA.AperFunction,Conductor*%
G36*
X179824500Y-93997113D02*
G01*
X179869887Y-94042500D01*
X179886500Y-94104500D01*
X179886500Y-96309547D01*
X179877061Y-96357000D01*
X179850181Y-96397228D01*
X175761181Y-100486228D01*
X175711818Y-100516478D01*
X175654102Y-100521020D01*
X175600615Y-100498865D01*
X175563015Y-100454842D01*
X175549500Y-100398547D01*
X175549500Y-95914452D01*
X175558939Y-95866999D01*
X175585819Y-95826771D01*
X176670772Y-94741819D01*
X176711000Y-94714939D01*
X176758453Y-94705500D01*
X176760252Y-94705500D01*
X176810685Y-94716219D01*
X176848781Y-94743895D01*
X176848950Y-94743709D01*
X176850728Y-94745310D01*
X176852398Y-94746523D01*
X176858129Y-94752888D01*
X177011270Y-94864151D01*
X177184197Y-94941144D01*
X177369354Y-94980500D01*
X177552143Y-94980500D01*
X177558646Y-94980500D01*
X177743803Y-94941144D01*
X177916730Y-94864151D01*
X178069871Y-94752888D01*
X178196533Y-94612216D01*
X178291179Y-94448284D01*
X178349674Y-94268256D01*
X178368247Y-94091538D01*
X178388767Y-94035160D01*
X178433353Y-93995015D01*
X178491568Y-93980500D01*
X179762500Y-93980500D01*
X179824500Y-93997113D01*
G37*
%TD.AperFunction*%
%TA.AperFunction,Conductor*%
G36*
X185872318Y-41772390D02*
G01*
X185917643Y-41817226D01*
X185934699Y-41878657D01*
X185918977Y-41940443D01*
X185874635Y-41986250D01*
X185747958Y-42062468D01*
X185747945Y-42062476D01*
X185745081Y-42064200D01*
X185742423Y-42066220D01*
X185742412Y-42066228D01*
X185462822Y-42278767D01*
X185462814Y-42278773D01*
X185460163Y-42280789D01*
X185457739Y-42283084D01*
X185457732Y-42283091D01*
X185202769Y-42524604D01*
X185202754Y-42524619D01*
X185200332Y-42526914D01*
X185198169Y-42529459D01*
X185198158Y-42529472D01*
X184970808Y-42797130D01*
X184970802Y-42797137D01*
X184968635Y-42799689D01*
X184966755Y-42802461D01*
X184966748Y-42802471D01*
X184769679Y-43093126D01*
X184769671Y-43093138D01*
X184767789Y-43095915D01*
X184766214Y-43098885D01*
X184766212Y-43098889D01*
X184601722Y-43409148D01*
X184601717Y-43409157D01*
X184600147Y-43412120D01*
X184598906Y-43415232D01*
X184598902Y-43415243D01*
X184468924Y-43741464D01*
X184467676Y-43744597D01*
X184466775Y-43747841D01*
X184466773Y-43747848D01*
X184380677Y-44057940D01*
X184371929Y-44089448D01*
X184371388Y-44092747D01*
X184371384Y-44092766D01*
X184329940Y-44345569D01*
X184314028Y-44442629D01*
X184313846Y-44445979D01*
X184313845Y-44445992D01*
X184294834Y-44796643D01*
X184294652Y-44800000D01*
X184294834Y-44803357D01*
X184313845Y-45154007D01*
X184313846Y-45154018D01*
X184314028Y-45157371D01*
X184314572Y-45160692D01*
X184314573Y-45160697D01*
X184371384Y-45507233D01*
X184371387Y-45507248D01*
X184371929Y-45510552D01*
X184372827Y-45513789D01*
X184372828Y-45513790D01*
X184416467Y-45670966D01*
X184467676Y-45855403D01*
X184468924Y-45858535D01*
X184588902Y-46159659D01*
X184600147Y-46187880D01*
X184767789Y-46504085D01*
X184769676Y-46506868D01*
X184769679Y-46506873D01*
X184832907Y-46600127D01*
X184968635Y-46800311D01*
X185200332Y-47073086D01*
X185202763Y-47075389D01*
X185202769Y-47075395D01*
X185381622Y-47244813D01*
X185460163Y-47319211D01*
X185745081Y-47535800D01*
X186051747Y-47720315D01*
X186376565Y-47870591D01*
X186715726Y-47984868D01*
X187065254Y-48061805D01*
X187421052Y-48100500D01*
X187775590Y-48100500D01*
X187778948Y-48100500D01*
X188134746Y-48061805D01*
X188484274Y-47984868D01*
X188823435Y-47870591D01*
X189148253Y-47720315D01*
X189454919Y-47535800D01*
X189739837Y-47319211D01*
X189999668Y-47073086D01*
X190231365Y-46800311D01*
X190432211Y-46504085D01*
X190438444Y-46492327D01*
X190482923Y-46444858D01*
X190545312Y-46426438D01*
X190608442Y-46442137D01*
X190654936Y-46487635D01*
X190672000Y-46550409D01*
X190672000Y-88253501D01*
X190655387Y-88315501D01*
X190610000Y-88360888D01*
X190548001Y-88377500D01*
X190021992Y-88377501D01*
X190018860Y-88377820D01*
X190018858Y-88377821D01*
X189925938Y-88387312D01*
X189925928Y-88387313D01*
X189919203Y-88388001D01*
X189912781Y-88390128D01*
X189912776Y-88390130D01*
X189759521Y-88440914D01*
X189759517Y-88440915D01*
X189752666Y-88443186D01*
X189746522Y-88446975D01*
X189746519Y-88446977D01*
X189609488Y-88531497D01*
X189609480Y-88531503D01*
X189603344Y-88535288D01*
X189598242Y-88540389D01*
X189598238Y-88540393D01*
X189484393Y-88654238D01*
X189484389Y-88654242D01*
X189479288Y-88659344D01*
X189475503Y-88665480D01*
X189475497Y-88665488D01*
X189407626Y-88775527D01*
X189387186Y-88808666D01*
X189384915Y-88815517D01*
X189384914Y-88815521D01*
X189342087Y-88944765D01*
X189332001Y-88975203D01*
X189331313Y-88981933D01*
X189331312Y-88981940D01*
X189321819Y-89074859D01*
X189321818Y-89074877D01*
X189321500Y-89077991D01*
X189321500Y-89081138D01*
X189321500Y-89081139D01*
X189321500Y-90374859D01*
X189321500Y-90374878D01*
X189321501Y-90378008D01*
X189321820Y-90381140D01*
X189321821Y-90381141D01*
X189331312Y-90474061D01*
X189331313Y-90474069D01*
X189332001Y-90480797D01*
X189387186Y-90647334D01*
X189390977Y-90653480D01*
X189475497Y-90790511D01*
X189475500Y-90790515D01*
X189479288Y-90796656D01*
X189603344Y-90920712D01*
X189609485Y-90924500D01*
X189609488Y-90924502D01*
X189657165Y-90953909D01*
X189752666Y-91012814D01*
X189919203Y-91067999D01*
X190021991Y-91078500D01*
X190548002Y-91078499D01*
X190610000Y-91095112D01*
X190655387Y-91140499D01*
X190672000Y-91202499D01*
X190672000Y-91958716D01*
X190657145Y-92017566D01*
X190616139Y-92062316D01*
X190558808Y-92082244D01*
X190441982Y-92092465D01*
X190441977Y-92092465D01*
X190436592Y-92092937D01*
X190431371Y-92094335D01*
X190431365Y-92094337D01*
X190213569Y-92152694D01*
X190213557Y-92152698D01*
X190208337Y-92154097D01*
X190203432Y-92156383D01*
X190203427Y-92156386D01*
X189999081Y-92251675D01*
X189999077Y-92251677D01*
X189994171Y-92253965D01*
X189989738Y-92257068D01*
X189989731Y-92257073D01*
X189805034Y-92386399D01*
X189805029Y-92386402D01*
X189800599Y-92389505D01*
X189796775Y-92393328D01*
X189796769Y-92393334D01*
X189637334Y-92552769D01*
X189637328Y-92552775D01*
X189633505Y-92556599D01*
X189630402Y-92561029D01*
X189630399Y-92561034D01*
X189501073Y-92745731D01*
X189501068Y-92745738D01*
X189497965Y-92750171D01*
X189495677Y-92755077D01*
X189495675Y-92755081D01*
X189400386Y-92959427D01*
X189400383Y-92959432D01*
X189398097Y-92964337D01*
X189396698Y-92969557D01*
X189396694Y-92969569D01*
X189338337Y-93187365D01*
X189338335Y-93187371D01*
X189336937Y-93192592D01*
X189336465Y-93197977D01*
X189336465Y-93197982D01*
X189318095Y-93407953D01*
X189316341Y-93428000D01*
X189316813Y-93433395D01*
X189334980Y-93641049D01*
X189336937Y-93663408D01*
X189338336Y-93668630D01*
X189338337Y-93668634D01*
X189396694Y-93886430D01*
X189396697Y-93886438D01*
X189398097Y-93891663D01*
X189400385Y-93896570D01*
X189400386Y-93896572D01*
X189495678Y-94100927D01*
X189495681Y-94100933D01*
X189497965Y-94105830D01*
X189501064Y-94110257D01*
X189501066Y-94110259D01*
X189630399Y-94294966D01*
X189630402Y-94294970D01*
X189633505Y-94299401D01*
X189800599Y-94466495D01*
X189994170Y-94602035D01*
X190208337Y-94701903D01*
X190436592Y-94763063D01*
X190524170Y-94770725D01*
X190558808Y-94773756D01*
X190616139Y-94793684D01*
X190657145Y-94838434D01*
X190672000Y-94897284D01*
X190672000Y-95658716D01*
X190657145Y-95717566D01*
X190616139Y-95762316D01*
X190558808Y-95782244D01*
X190441982Y-95792465D01*
X190441977Y-95792465D01*
X190436592Y-95792937D01*
X190431371Y-95794335D01*
X190431365Y-95794337D01*
X190213569Y-95852694D01*
X190213557Y-95852698D01*
X190208337Y-95854097D01*
X190203432Y-95856383D01*
X190203427Y-95856386D01*
X189999081Y-95951675D01*
X189999077Y-95951677D01*
X189994171Y-95953965D01*
X189989738Y-95957068D01*
X189989731Y-95957073D01*
X189805034Y-96086399D01*
X189805029Y-96086402D01*
X189800599Y-96089505D01*
X189796775Y-96093328D01*
X189796769Y-96093334D01*
X189637334Y-96252769D01*
X189637328Y-96252775D01*
X189633505Y-96256599D01*
X189630402Y-96261029D01*
X189630399Y-96261034D01*
X189501073Y-96445731D01*
X189501068Y-96445738D01*
X189497965Y-96450171D01*
X189495677Y-96455077D01*
X189495675Y-96455081D01*
X189400386Y-96659427D01*
X189400383Y-96659432D01*
X189398097Y-96664337D01*
X189396698Y-96669557D01*
X189396694Y-96669569D01*
X189338337Y-96887365D01*
X189338335Y-96887371D01*
X189336937Y-96892592D01*
X189336465Y-96897977D01*
X189336465Y-96897982D01*
X189317966Y-97109424D01*
X189316341Y-97128000D01*
X189336937Y-97363408D01*
X189338336Y-97368630D01*
X189338337Y-97368634D01*
X189396694Y-97586430D01*
X189396697Y-97586438D01*
X189398097Y-97591663D01*
X189400385Y-97596570D01*
X189400386Y-97596572D01*
X189495678Y-97800927D01*
X189495681Y-97800933D01*
X189497965Y-97805830D01*
X189501064Y-97810257D01*
X189501066Y-97810259D01*
X189630399Y-97994966D01*
X189630402Y-97994970D01*
X189633505Y-97999401D01*
X189800599Y-98166495D01*
X189805031Y-98169598D01*
X189805033Y-98169600D01*
X189924189Y-98253034D01*
X189994170Y-98302035D01*
X190208337Y-98401903D01*
X190436592Y-98463063D01*
X190524170Y-98470725D01*
X190558808Y-98473756D01*
X190616139Y-98493684D01*
X190657145Y-98538434D01*
X190672000Y-98597284D01*
X190672000Y-133049591D01*
X190654936Y-133112365D01*
X190608442Y-133157863D01*
X190545312Y-133173562D01*
X190482923Y-133155142D01*
X190438444Y-133107672D01*
X190432211Y-133095915D01*
X190231365Y-132799689D01*
X189999668Y-132526914D01*
X189997235Y-132524609D01*
X189997230Y-132524604D01*
X189742267Y-132283091D01*
X189739837Y-132280789D01*
X189454919Y-132064200D01*
X189452045Y-132062471D01*
X189452041Y-132062468D01*
X189151135Y-131881419D01*
X189151134Y-131881418D01*
X189148253Y-131879685D01*
X189110853Y-131862382D01*
X188826490Y-131730822D01*
X188826483Y-131730819D01*
X188823435Y-131729409D01*
X188735005Y-131699613D01*
X188487457Y-131616204D01*
X188487448Y-131616201D01*
X188484274Y-131615132D01*
X188481006Y-131614412D01*
X188480993Y-131614409D01*
X188138033Y-131538918D01*
X188138023Y-131538916D01*
X188134746Y-131538195D01*
X187778948Y-131499500D01*
X187421052Y-131499500D01*
X187417715Y-131499862D01*
X187417713Y-131499863D01*
X187068600Y-131537831D01*
X187068598Y-131537831D01*
X187065254Y-131538195D01*
X187061979Y-131538915D01*
X187061966Y-131538918D01*
X186719006Y-131614409D01*
X186718988Y-131614413D01*
X186715726Y-131615132D01*
X186712555Y-131616200D01*
X186712542Y-131616204D01*
X186379752Y-131728335D01*
X186379749Y-131728336D01*
X186376565Y-131729409D01*
X186373522Y-131730816D01*
X186373509Y-131730822D01*
X186054802Y-131878271D01*
X186054792Y-131878275D01*
X186051747Y-131879685D01*
X186048873Y-131881414D01*
X186048864Y-131881419D01*
X185747958Y-132062468D01*
X185747945Y-132062476D01*
X185745081Y-132064200D01*
X185742423Y-132066220D01*
X185742412Y-132066228D01*
X185462822Y-132278767D01*
X185462814Y-132278773D01*
X185460163Y-132280789D01*
X185457739Y-132283084D01*
X185457732Y-132283091D01*
X185202769Y-132524604D01*
X185202754Y-132524619D01*
X185200332Y-132526914D01*
X185198169Y-132529459D01*
X185198158Y-132529472D01*
X184970808Y-132797130D01*
X184970802Y-132797137D01*
X184968635Y-132799689D01*
X184966755Y-132802461D01*
X184966748Y-132802471D01*
X184769679Y-133093126D01*
X184769671Y-133093138D01*
X184767789Y-133095915D01*
X184766214Y-133098885D01*
X184766212Y-133098889D01*
X184601722Y-133409148D01*
X184601717Y-133409157D01*
X184600147Y-133412120D01*
X184598906Y-133415232D01*
X184598902Y-133415243D01*
X184494540Y-133677173D01*
X184467676Y-133744597D01*
X184466775Y-133747841D01*
X184466773Y-133747848D01*
X184402013Y-133981093D01*
X184371929Y-134089448D01*
X184371388Y-134092747D01*
X184371384Y-134092766D01*
X184315682Y-134432540D01*
X184314028Y-134442629D01*
X184313846Y-134445979D01*
X184313845Y-134445992D01*
X184307459Y-134563782D01*
X184294652Y-134800000D01*
X184294834Y-134803357D01*
X184313845Y-135154007D01*
X184313846Y-135154018D01*
X184314028Y-135157371D01*
X184314572Y-135160692D01*
X184314573Y-135160697D01*
X184371384Y-135507233D01*
X184371387Y-135507248D01*
X184371929Y-135510552D01*
X184372827Y-135513789D01*
X184372828Y-135513790D01*
X184448598Y-135786692D01*
X184467676Y-135855403D01*
X184600147Y-136187880D01*
X184767789Y-136504085D01*
X184769676Y-136506868D01*
X184769679Y-136506873D01*
X184966748Y-136797528D01*
X184968635Y-136800311D01*
X185200332Y-137073086D01*
X185202763Y-137075389D01*
X185202769Y-137075395D01*
X185312671Y-137179499D01*
X185460163Y-137319211D01*
X185745081Y-137535800D01*
X186051747Y-137720315D01*
X186376565Y-137870591D01*
X186715726Y-137984868D01*
X186719005Y-137985589D01*
X186719006Y-137985590D01*
X187051320Y-138058738D01*
X187104820Y-138085229D01*
X187139740Y-138133649D01*
X187147987Y-138192775D01*
X187127650Y-138248903D01*
X187083442Y-138289023D01*
X187025611Y-138303835D01*
X124624535Y-138780178D01*
X124584178Y-138773753D01*
X124548102Y-138754558D01*
X124466062Y-138691607D01*
X124461407Y-138687853D01*
X124298801Y-138550133D01*
X124295169Y-138546933D01*
X124166564Y-138429088D01*
X124136708Y-138387309D01*
X124126339Y-138337020D01*
X124140736Y-135587316D01*
X124154908Y-135530399D01*
X124193658Y-135486361D01*
X124248315Y-135465062D01*
X124306645Y-135471268D01*
X124355596Y-135503591D01*
X124384213Y-135554796D01*
X124459805Y-135827057D01*
X124467676Y-135855403D01*
X124600147Y-136187880D01*
X124767789Y-136504085D01*
X124769676Y-136506868D01*
X124769679Y-136506873D01*
X124966748Y-136797528D01*
X124968635Y-136800311D01*
X125200332Y-137073086D01*
X125202763Y-137075389D01*
X125202769Y-137075395D01*
X125312671Y-137179499D01*
X125460163Y-137319211D01*
X125745081Y-137535800D01*
X126051747Y-137720315D01*
X126376565Y-137870591D01*
X126715726Y-137984868D01*
X127065254Y-138061805D01*
X127421052Y-138100500D01*
X127775590Y-138100500D01*
X127778948Y-138100500D01*
X128134746Y-138061805D01*
X128484274Y-137984868D01*
X128823435Y-137870591D01*
X129148253Y-137720315D01*
X129454919Y-137535800D01*
X129739837Y-137319211D01*
X129999668Y-137073086D01*
X130231365Y-136800311D01*
X130432211Y-136504085D01*
X130599853Y-136187880D01*
X130732324Y-135855403D01*
X130828071Y-135510552D01*
X130885972Y-135157371D01*
X130905348Y-134800000D01*
X130885972Y-134442629D01*
X130828071Y-134089448D01*
X130732324Y-133744597D01*
X130599853Y-133412120D01*
X130432211Y-133095915D01*
X130231365Y-132799689D01*
X129999668Y-132526914D01*
X129997235Y-132524609D01*
X129997230Y-132524604D01*
X129742267Y-132283091D01*
X129739837Y-132280789D01*
X129454919Y-132064200D01*
X129452045Y-132062471D01*
X129452041Y-132062468D01*
X129151135Y-131881419D01*
X129151134Y-131881418D01*
X129148253Y-131879685D01*
X129110853Y-131862382D01*
X128826490Y-131730822D01*
X128826483Y-131730819D01*
X128823435Y-131729409D01*
X128735005Y-131699613D01*
X128487457Y-131616204D01*
X128487448Y-131616201D01*
X128484274Y-131615132D01*
X128481006Y-131614412D01*
X128480993Y-131614409D01*
X128138033Y-131538918D01*
X128138023Y-131538916D01*
X128134746Y-131538195D01*
X127778948Y-131499500D01*
X127421052Y-131499500D01*
X127417715Y-131499862D01*
X127417713Y-131499863D01*
X127068600Y-131537831D01*
X127068598Y-131537831D01*
X127065254Y-131538195D01*
X127061979Y-131538915D01*
X127061966Y-131538918D01*
X126719006Y-131614409D01*
X126718988Y-131614413D01*
X126715726Y-131615132D01*
X126712555Y-131616200D01*
X126712542Y-131616204D01*
X126379752Y-131728335D01*
X126379749Y-131728336D01*
X126376565Y-131729409D01*
X126373522Y-131730816D01*
X126373509Y-131730822D01*
X126054802Y-131878271D01*
X126054792Y-131878275D01*
X126051747Y-131879685D01*
X126048873Y-131881414D01*
X126048864Y-131881419D01*
X125747958Y-132062468D01*
X125747945Y-132062476D01*
X125745081Y-132064200D01*
X125742423Y-132066220D01*
X125742412Y-132066228D01*
X125462822Y-132278767D01*
X125462814Y-132278773D01*
X125460163Y-132280789D01*
X125457739Y-132283084D01*
X125457732Y-132283091D01*
X125202769Y-132524604D01*
X125202754Y-132524619D01*
X125200332Y-132526914D01*
X125198169Y-132529459D01*
X125198158Y-132529472D01*
X124970808Y-132797130D01*
X124970802Y-132797137D01*
X124968635Y-132799689D01*
X124966755Y-132802461D01*
X124966748Y-132802471D01*
X124769679Y-133093126D01*
X124769671Y-133093138D01*
X124767789Y-133095915D01*
X124766214Y-133098885D01*
X124766212Y-133098889D01*
X124601722Y-133409148D01*
X124601717Y-133409157D01*
X124600147Y-133412120D01*
X124598906Y-133415232D01*
X124598902Y-133415243D01*
X124494540Y-133677173D01*
X124467676Y-133744597D01*
X124466778Y-133747830D01*
X124466774Y-133747843D01*
X124392623Y-134014914D01*
X124363859Y-134066278D01*
X124314648Y-134098588D01*
X124256081Y-134104561D01*
X124201361Y-134082850D01*
X124162820Y-134038350D01*
X124149145Y-133981093D01*
X124317043Y-101912551D01*
X128272688Y-101912551D01*
X128273056Y-101923780D01*
X128325168Y-102118263D01*
X128328856Y-102128397D01*
X128424113Y-102332676D01*
X128429501Y-102342008D01*
X128558784Y-102526643D01*
X128565721Y-102534909D01*
X128725090Y-102694278D01*
X128733356Y-102701215D01*
X128917991Y-102830498D01*
X128927323Y-102835886D01*
X129131602Y-102931143D01*
X129141736Y-102934831D01*
X129336219Y-102986943D01*
X129347448Y-102987311D01*
X129350000Y-102976369D01*
X129350000Y-101926326D01*
X129346549Y-101913450D01*
X129333674Y-101910000D01*
X128283631Y-101910000D01*
X128272688Y-101912551D01*
X124317043Y-101912551D01*
X124331664Y-99120000D01*
X128244341Y-99120000D01*
X128244813Y-99125395D01*
X128264224Y-99347266D01*
X128264937Y-99355408D01*
X128266336Y-99360630D01*
X128266337Y-99360634D01*
X128324694Y-99578430D01*
X128324697Y-99578438D01*
X128326097Y-99583663D01*
X128328385Y-99588570D01*
X128328386Y-99588572D01*
X128423678Y-99792927D01*
X128423681Y-99792933D01*
X128425965Y-99797830D01*
X128429064Y-99802257D01*
X128429066Y-99802259D01*
X128558399Y-99986966D01*
X128558402Y-99986970D01*
X128561505Y-99991401D01*
X128728599Y-100158495D01*
X128733031Y-100161598D01*
X128733033Y-100161600D01*
X128914595Y-100288731D01*
X128953460Y-100333049D01*
X128967471Y-100390306D01*
X128953460Y-100447563D01*
X128914595Y-100491881D01*
X128733352Y-100618788D01*
X128725092Y-100625719D01*
X128565719Y-100785092D01*
X128558784Y-100793357D01*
X128429508Y-100977982D01*
X128424110Y-100987332D01*
X128328856Y-101191602D01*
X128325168Y-101201736D01*
X128273056Y-101396219D01*
X128272688Y-101407448D01*
X128283631Y-101410000D01*
X129726000Y-101410000D01*
X129788000Y-101426613D01*
X129833387Y-101472000D01*
X129850000Y-101534000D01*
X129850000Y-102976369D01*
X129852551Y-102987311D01*
X129863780Y-102986943D01*
X129993406Y-102952210D01*
X130049691Y-102950368D01*
X130100986Y-102973609D01*
X130136712Y-103017141D01*
X130149500Y-103071985D01*
X130149500Y-110937225D01*
X130148978Y-110948280D01*
X130147327Y-110955667D01*
X130147571Y-110963453D01*
X130147571Y-110963461D01*
X130149439Y-111022873D01*
X130149500Y-111026768D01*
X130149500Y-111054350D01*
X130149988Y-111058219D01*
X130149989Y-111058225D01*
X130150004Y-111058343D01*
X130150918Y-111069966D01*
X130152045Y-111105830D01*
X130152046Y-111105837D01*
X130152291Y-111113627D01*
X130154467Y-111121119D01*
X130154468Y-111121121D01*
X130157879Y-111132862D01*
X130161825Y-111151915D01*
X130163244Y-111163152D01*
X130164336Y-111171792D01*
X130167206Y-111179042D01*
X130167208Y-111179048D01*
X130180414Y-111212404D01*
X130184197Y-111223451D01*
X130196382Y-111265390D01*
X130200353Y-111272105D01*
X130200354Y-111272107D01*
X130206581Y-111282637D01*
X130215136Y-111300099D01*
X130219642Y-111311480D01*
X130219643Y-111311483D01*
X130222514Y-111318732D01*
X130244440Y-111348912D01*
X130248181Y-111354060D01*
X130254593Y-111363822D01*
X130272856Y-111394702D01*
X130272859Y-111394707D01*
X130276830Y-111401420D01*
X130282345Y-111406935D01*
X130290990Y-111415580D01*
X130303626Y-111430374D01*
X130310819Y-111440275D01*
X130310823Y-111440279D01*
X130315406Y-111446587D01*
X130321415Y-111451558D01*
X130321416Y-111451559D01*
X130349058Y-111474426D01*
X130357699Y-111482289D01*
X133700586Y-114825177D01*
X133732680Y-114880763D01*
X133732680Y-114944950D01*
X133715765Y-115008079D01*
X133715762Y-115008090D01*
X133714365Y-115013308D01*
X133694532Y-115240000D01*
X133695004Y-115245395D01*
X133709710Y-115413492D01*
X133714365Y-115466692D01*
X133715762Y-115471907D01*
X133715764Y-115471916D01*
X133771858Y-115681263D01*
X133771861Y-115681271D01*
X133773261Y-115686496D01*
X133869432Y-115892734D01*
X133999953Y-116079139D01*
X134160861Y-116240047D01*
X134347266Y-116370568D01*
X134352172Y-116372855D01*
X134352176Y-116372858D01*
X134405274Y-116397618D01*
X134457450Y-116443375D01*
X134476869Y-116510000D01*
X134457450Y-116576625D01*
X134405274Y-116622382D01*
X134352176Y-116647141D01*
X134352163Y-116647148D01*
X134347266Y-116649432D01*
X134342833Y-116652535D01*
X134342826Y-116652540D01*
X134165296Y-116776847D01*
X134165291Y-116776850D01*
X134160861Y-116779953D01*
X134157037Y-116783776D01*
X134157031Y-116783782D01*
X134003782Y-116937031D01*
X134003776Y-116937037D01*
X133999953Y-116940861D01*
X133996850Y-116945291D01*
X133996847Y-116945296D01*
X133872540Y-117122826D01*
X133872535Y-117122833D01*
X133869432Y-117127266D01*
X133867144Y-117132172D01*
X133867142Y-117132176D01*
X133775550Y-117328594D01*
X133775547Y-117328599D01*
X133773261Y-117333504D01*
X133771862Y-117338724D01*
X133771858Y-117338736D01*
X133715764Y-117548083D01*
X133715762Y-117548094D01*
X133714365Y-117553308D01*
X133694532Y-117780000D01*
X133714365Y-118006692D01*
X133715762Y-118011907D01*
X133715764Y-118011916D01*
X133771858Y-118221263D01*
X133771861Y-118221271D01*
X133773261Y-118226496D01*
X133869432Y-118432734D01*
X133999953Y-118619139D01*
X134160861Y-118780047D01*
X134347266Y-118910568D01*
X134405276Y-118937618D01*
X134457449Y-118983373D01*
X134476869Y-119049997D01*
X134457451Y-119116622D01*
X134405276Y-119162380D01*
X134352178Y-119187141D01*
X134352173Y-119187143D01*
X134347266Y-119189432D01*
X134342833Y-119192535D01*
X134342826Y-119192540D01*
X134165296Y-119316847D01*
X134165291Y-119316850D01*
X134160861Y-119319953D01*
X134157037Y-119323776D01*
X134157031Y-119323782D01*
X134003782Y-119477031D01*
X134003776Y-119477037D01*
X133999953Y-119480861D01*
X133996850Y-119485291D01*
X133996847Y-119485296D01*
X133872540Y-119662826D01*
X133872535Y-119662833D01*
X133869432Y-119667266D01*
X133867144Y-119672172D01*
X133867142Y-119672176D01*
X133775550Y-119868594D01*
X133775547Y-119868599D01*
X133773261Y-119873504D01*
X133771862Y-119878724D01*
X133771858Y-119878736D01*
X133715764Y-120088083D01*
X133715762Y-120088094D01*
X133714365Y-120093308D01*
X133694532Y-120320000D01*
X133695004Y-120325395D01*
X133706488Y-120456665D01*
X133714365Y-120546692D01*
X133715762Y-120551907D01*
X133715764Y-120551916D01*
X133771858Y-120761263D01*
X133771861Y-120761271D01*
X133773261Y-120766496D01*
X133869432Y-120972734D01*
X133999953Y-121159139D01*
X134160861Y-121320047D01*
X134347266Y-121450568D01*
X134352172Y-121452855D01*
X134352176Y-121452858D01*
X134405274Y-121477618D01*
X134457450Y-121523375D01*
X134476869Y-121590000D01*
X134457450Y-121656625D01*
X134405274Y-121702382D01*
X134352176Y-121727141D01*
X134352163Y-121727148D01*
X134347266Y-121729432D01*
X134342833Y-121732535D01*
X134342826Y-121732540D01*
X134165296Y-121856847D01*
X134165291Y-121856850D01*
X134160861Y-121859953D01*
X134157037Y-121863776D01*
X134157031Y-121863782D01*
X134003782Y-122017031D01*
X134003776Y-122017037D01*
X133999953Y-122020861D01*
X133996850Y-122025291D01*
X133996847Y-122025296D01*
X133872540Y-122202826D01*
X133872535Y-122202833D01*
X133869432Y-122207266D01*
X133867144Y-122212172D01*
X133867142Y-122212176D01*
X133775550Y-122408594D01*
X133775547Y-122408599D01*
X133773261Y-122413504D01*
X133771862Y-122418724D01*
X133771858Y-122418736D01*
X133715764Y-122628083D01*
X133715762Y-122628094D01*
X133714365Y-122633308D01*
X133713893Y-122638693D01*
X133713893Y-122638698D01*
X133704346Y-122747821D01*
X133694532Y-122860000D01*
X133695004Y-122865395D01*
X133708303Y-123017410D01*
X133714365Y-123086692D01*
X133715762Y-123091907D01*
X133715764Y-123091916D01*
X133771858Y-123301263D01*
X133771861Y-123301271D01*
X133773261Y-123306496D01*
X133869432Y-123512734D01*
X133999953Y-123699139D01*
X134160861Y-123860047D01*
X134347266Y-123990568D01*
X134352172Y-123992855D01*
X134352176Y-123992858D01*
X134405274Y-124017618D01*
X134457450Y-124063375D01*
X134476869Y-124130000D01*
X134457450Y-124196625D01*
X134405274Y-124242382D01*
X134352176Y-124267141D01*
X134352163Y-124267148D01*
X134347266Y-124269432D01*
X134342833Y-124272535D01*
X134342826Y-124272540D01*
X134165296Y-124396847D01*
X134165291Y-124396850D01*
X134160861Y-124399953D01*
X134157037Y-124403776D01*
X134157031Y-124403782D01*
X134003782Y-124557031D01*
X134003776Y-124557037D01*
X133999953Y-124560861D01*
X133996850Y-124565291D01*
X133996847Y-124565296D01*
X133872540Y-124742826D01*
X133872535Y-124742833D01*
X133869432Y-124747266D01*
X133867144Y-124752172D01*
X133867142Y-124752176D01*
X133775550Y-124948594D01*
X133775547Y-124948599D01*
X133773261Y-124953504D01*
X133771862Y-124958724D01*
X133771858Y-124958736D01*
X133715764Y-125168083D01*
X133715762Y-125168094D01*
X133714365Y-125173308D01*
X133694532Y-125400000D01*
X133695004Y-125405395D01*
X133709029Y-125565709D01*
X133714365Y-125626692D01*
X133715762Y-125631907D01*
X133715764Y-125631916D01*
X133771858Y-125841263D01*
X133771861Y-125841271D01*
X133773261Y-125846496D01*
X133869432Y-126052734D01*
X133999953Y-126239139D01*
X134160861Y-126400047D01*
X134347266Y-126530568D01*
X134352172Y-126532855D01*
X134352176Y-126532858D01*
X134405274Y-126557618D01*
X134457450Y-126603375D01*
X134476869Y-126670000D01*
X134457450Y-126736625D01*
X134405274Y-126782382D01*
X134352176Y-126807141D01*
X134352163Y-126807148D01*
X134347266Y-126809432D01*
X134342833Y-126812535D01*
X134342826Y-126812540D01*
X134165296Y-126936847D01*
X134165291Y-126936850D01*
X134160861Y-126939953D01*
X134157037Y-126943776D01*
X134157031Y-126943782D01*
X134003782Y-127097031D01*
X134003776Y-127097037D01*
X133999953Y-127100861D01*
X133996850Y-127105291D01*
X133996847Y-127105296D01*
X133872540Y-127282826D01*
X133872535Y-127282833D01*
X133869432Y-127287266D01*
X133867144Y-127292172D01*
X133867142Y-127292176D01*
X133775550Y-127488594D01*
X133775547Y-127488599D01*
X133773261Y-127493504D01*
X133771862Y-127498724D01*
X133771858Y-127498736D01*
X133715764Y-127708083D01*
X133715762Y-127708094D01*
X133714365Y-127713308D01*
X133694532Y-127940000D01*
X133714365Y-128166692D01*
X133715762Y-128171907D01*
X133715764Y-128171916D01*
X133771858Y-128381263D01*
X133771861Y-128381271D01*
X133773261Y-128386496D01*
X133869432Y-128592734D01*
X133999953Y-128779139D01*
X134160861Y-128940047D01*
X134347266Y-129070568D01*
X134352172Y-129072855D01*
X134352176Y-129072858D01*
X134405274Y-129097618D01*
X134457450Y-129143375D01*
X134476869Y-129210000D01*
X134457450Y-129276625D01*
X134405274Y-129322382D01*
X134352176Y-129347141D01*
X134352163Y-129347148D01*
X134347266Y-129349432D01*
X134342833Y-129352535D01*
X134342826Y-129352540D01*
X134165296Y-129476847D01*
X134165291Y-129476850D01*
X134160861Y-129479953D01*
X134157037Y-129483776D01*
X134157031Y-129483782D01*
X134003782Y-129637031D01*
X134003776Y-129637037D01*
X133999953Y-129640861D01*
X133996850Y-129645291D01*
X133996847Y-129645296D01*
X133872540Y-129822826D01*
X133872535Y-129822833D01*
X133869432Y-129827266D01*
X133867144Y-129832172D01*
X133867142Y-129832176D01*
X133775550Y-130028594D01*
X133775547Y-130028599D01*
X133773261Y-130033504D01*
X133771862Y-130038724D01*
X133771858Y-130038736D01*
X133715764Y-130248083D01*
X133715762Y-130248094D01*
X133714365Y-130253308D01*
X133694532Y-130480000D01*
X133714365Y-130706692D01*
X133715762Y-130711907D01*
X133715764Y-130711916D01*
X133771858Y-130921263D01*
X133771861Y-130921271D01*
X133773261Y-130926496D01*
X133869432Y-131132734D01*
X133999953Y-131319139D01*
X134160861Y-131480047D01*
X134347266Y-131610568D01*
X134352172Y-131612855D01*
X134352176Y-131612858D01*
X134405274Y-131637618D01*
X134457450Y-131683375D01*
X134476869Y-131750000D01*
X134457450Y-131816625D01*
X134405274Y-131862382D01*
X134352176Y-131887141D01*
X134352163Y-131887148D01*
X134347266Y-131889432D01*
X134342833Y-131892535D01*
X134342826Y-131892540D01*
X134165296Y-132016847D01*
X134165291Y-132016850D01*
X134160861Y-132019953D01*
X134157037Y-132023776D01*
X134157031Y-132023782D01*
X134003782Y-132177031D01*
X134003776Y-132177037D01*
X133999953Y-132180861D01*
X133996850Y-132185291D01*
X133996847Y-132185296D01*
X133872540Y-132362826D01*
X133872535Y-132362833D01*
X133869432Y-132367266D01*
X133867144Y-132372172D01*
X133867142Y-132372176D01*
X133775550Y-132568594D01*
X133775547Y-132568599D01*
X133773261Y-132573504D01*
X133771862Y-132578724D01*
X133771858Y-132578736D01*
X133715764Y-132788083D01*
X133715762Y-132788094D01*
X133714365Y-132793308D01*
X133713893Y-132798693D01*
X133713893Y-132798698D01*
X133713563Y-132802471D01*
X133694532Y-133020000D01*
X133714365Y-133246692D01*
X133715762Y-133251907D01*
X133715764Y-133251916D01*
X133771858Y-133461263D01*
X133771861Y-133461271D01*
X133773261Y-133466496D01*
X133869432Y-133672734D01*
X133872539Y-133677171D01*
X133872540Y-133677173D01*
X133922023Y-133747843D01*
X133999953Y-133859139D01*
X134160861Y-134020047D01*
X134347266Y-134150568D01*
X134352172Y-134152855D01*
X134352176Y-134152858D01*
X134405274Y-134177618D01*
X134457450Y-134223375D01*
X134476869Y-134290000D01*
X134457450Y-134356625D01*
X134405274Y-134402382D01*
X134352176Y-134427141D01*
X134352163Y-134427148D01*
X134347266Y-134429432D01*
X134342833Y-134432535D01*
X134342826Y-134432540D01*
X134165296Y-134556847D01*
X134165291Y-134556850D01*
X134160861Y-134559953D01*
X134157037Y-134563776D01*
X134157031Y-134563782D01*
X134003782Y-134717031D01*
X134003776Y-134717037D01*
X133999953Y-134720861D01*
X133996850Y-134725291D01*
X133996847Y-134725296D01*
X133872540Y-134902826D01*
X133872535Y-134902833D01*
X133869432Y-134907266D01*
X133867144Y-134912172D01*
X133867142Y-134912176D01*
X133775550Y-135108594D01*
X133775547Y-135108599D01*
X133773261Y-135113504D01*
X133771862Y-135118724D01*
X133771858Y-135118736D01*
X133715764Y-135328083D01*
X133715762Y-135328094D01*
X133714365Y-135333308D01*
X133713893Y-135338693D01*
X133713893Y-135338698D01*
X133698858Y-135510552D01*
X133694532Y-135560000D01*
X133714365Y-135786692D01*
X133715762Y-135791907D01*
X133715764Y-135791916D01*
X133771858Y-136001263D01*
X133771861Y-136001271D01*
X133773261Y-136006496D01*
X133869432Y-136212734D01*
X133999953Y-136399139D01*
X134160861Y-136560047D01*
X134347266Y-136690568D01*
X134553504Y-136786739D01*
X134558734Y-136788140D01*
X134558736Y-136788141D01*
X134768083Y-136844235D01*
X134773308Y-136845635D01*
X135000000Y-136865468D01*
X135226692Y-136845635D01*
X135446496Y-136786739D01*
X135652734Y-136690568D01*
X135839139Y-136560047D01*
X136000047Y-136399139D01*
X136130568Y-136212734D01*
X136226739Y-136006496D01*
X136285635Y-135786692D01*
X136305468Y-135560000D01*
X136285635Y-135333308D01*
X136226739Y-135113504D01*
X136130568Y-134907266D01*
X136000047Y-134720861D01*
X135839139Y-134559953D01*
X135777224Y-134516600D01*
X135657173Y-134432540D01*
X135657171Y-134432539D01*
X135652734Y-134429432D01*
X135594724Y-134402381D01*
X135542549Y-134356625D01*
X135523130Y-134290000D01*
X135542549Y-134223375D01*
X135594725Y-134177618D01*
X135652734Y-134150568D01*
X135839139Y-134020047D01*
X136000047Y-133859139D01*
X136130568Y-133672734D01*
X136226739Y-133466496D01*
X136285635Y-133246692D01*
X136305468Y-133020000D01*
X136285635Y-132793308D01*
X136226739Y-132573504D01*
X136130568Y-132367266D01*
X136000047Y-132180861D01*
X135839139Y-132019953D01*
X135652734Y-131889432D01*
X135594724Y-131862381D01*
X135542549Y-131816625D01*
X135523130Y-131750000D01*
X135542549Y-131683375D01*
X135594725Y-131637618D01*
X135652734Y-131610568D01*
X135839139Y-131480047D01*
X136000047Y-131319139D01*
X136130568Y-131132734D01*
X136226739Y-130926496D01*
X136285635Y-130706692D01*
X136305468Y-130480000D01*
X136285635Y-130253308D01*
X136226739Y-130033504D01*
X136130568Y-129827266D01*
X136000047Y-129640861D01*
X135839139Y-129479953D01*
X135652734Y-129349432D01*
X135594724Y-129322381D01*
X135542549Y-129276625D01*
X135523130Y-129210000D01*
X135542549Y-129143375D01*
X135594725Y-129097618D01*
X135652734Y-129070568D01*
X135839139Y-128940047D01*
X136000047Y-128779139D01*
X136130568Y-128592734D01*
X136226739Y-128386496D01*
X136285635Y-128166692D01*
X136305468Y-127940000D01*
X136285635Y-127713308D01*
X136226739Y-127493504D01*
X136130568Y-127287266D01*
X136000047Y-127100861D01*
X135839139Y-126939953D01*
X135652734Y-126809432D01*
X135594724Y-126782381D01*
X135542549Y-126736625D01*
X135523130Y-126670000D01*
X135542549Y-126603375D01*
X135594725Y-126557618D01*
X135652734Y-126530568D01*
X135839139Y-126400047D01*
X136000047Y-126239139D01*
X136130568Y-126052734D01*
X136226739Y-125846496D01*
X136285635Y-125626692D01*
X136305468Y-125400000D01*
X136285635Y-125173308D01*
X136226739Y-124953504D01*
X136130568Y-124747266D01*
X136000047Y-124560861D01*
X135839139Y-124399953D01*
X135733695Y-124326121D01*
X135657173Y-124272540D01*
X135657171Y-124272539D01*
X135652734Y-124269432D01*
X135594724Y-124242381D01*
X135542549Y-124196625D01*
X135523130Y-124130000D01*
X135542549Y-124063375D01*
X135594725Y-124017618D01*
X135652734Y-123990568D01*
X135839139Y-123860047D01*
X136000047Y-123699139D01*
X136130568Y-123512734D01*
X136226739Y-123306496D01*
X136285635Y-123086692D01*
X136305468Y-122860000D01*
X136285635Y-122633308D01*
X136226739Y-122413504D01*
X136130568Y-122207266D01*
X136000047Y-122020861D01*
X135839139Y-121859953D01*
X135652734Y-121729432D01*
X135594724Y-121702381D01*
X135542549Y-121656625D01*
X135523130Y-121590000D01*
X135542549Y-121523375D01*
X135594725Y-121477618D01*
X135652734Y-121450568D01*
X135839139Y-121320047D01*
X136000047Y-121159139D01*
X136130568Y-120972734D01*
X136226739Y-120766496D01*
X136285635Y-120546692D01*
X136305468Y-120320000D01*
X136285635Y-120093308D01*
X136231509Y-119891307D01*
X136228141Y-119878736D01*
X136228140Y-119878734D01*
X136226739Y-119873504D01*
X136130568Y-119667266D01*
X136000047Y-119480861D01*
X135839139Y-119319953D01*
X135652734Y-119189432D01*
X135594724Y-119162381D01*
X135542549Y-119116625D01*
X135523130Y-119050000D01*
X135542549Y-118983375D01*
X135594725Y-118937618D01*
X135652734Y-118910568D01*
X135839139Y-118780047D01*
X136000047Y-118619139D01*
X136130568Y-118432734D01*
X136226739Y-118226496D01*
X136285635Y-118006692D01*
X136305468Y-117780000D01*
X136285635Y-117553308D01*
X136248790Y-117415799D01*
X136228141Y-117338736D01*
X136228140Y-117338734D01*
X136226739Y-117333504D01*
X136130568Y-117127266D01*
X136000047Y-116940861D01*
X135839139Y-116779953D01*
X135652734Y-116649432D01*
X135594724Y-116622381D01*
X135542549Y-116576625D01*
X135523130Y-116510000D01*
X135542549Y-116443375D01*
X135594725Y-116397618D01*
X135652734Y-116370568D01*
X135839139Y-116240047D01*
X136000047Y-116079139D01*
X136130568Y-115892734D01*
X136226739Y-115686496D01*
X136285635Y-115466692D01*
X136305468Y-115240000D01*
X136285635Y-115013308D01*
X136226739Y-114793504D01*
X136130568Y-114587266D01*
X136000047Y-114400861D01*
X135839139Y-114239953D01*
X135652734Y-114109432D01*
X135594724Y-114082381D01*
X135542549Y-114036625D01*
X135523130Y-113970000D01*
X135542549Y-113903375D01*
X135594725Y-113857618D01*
X135652734Y-113830568D01*
X135839139Y-113700047D01*
X136000047Y-113539139D01*
X136130568Y-113352734D01*
X136226739Y-113146496D01*
X136285635Y-112926692D01*
X136305468Y-112700000D01*
X136285635Y-112473308D01*
X136226739Y-112253504D01*
X136130568Y-112047266D01*
X136000047Y-111860861D01*
X135839139Y-111699953D01*
X135652734Y-111569432D01*
X135594724Y-111542381D01*
X135542549Y-111496625D01*
X135523130Y-111430000D01*
X135542549Y-111363375D01*
X135594725Y-111317618D01*
X135652734Y-111290568D01*
X135839139Y-111160047D01*
X136000047Y-110999139D01*
X136130568Y-110812734D01*
X136226739Y-110606496D01*
X136285635Y-110386692D01*
X136305468Y-110160000D01*
X136285635Y-109933308D01*
X136254360Y-109816590D01*
X136252519Y-109760309D01*
X136275760Y-109709014D01*
X136319292Y-109673288D01*
X136374136Y-109660500D01*
X141184548Y-109660500D01*
X141232001Y-109669939D01*
X141272229Y-109696819D01*
X148940586Y-117365176D01*
X148972679Y-117420762D01*
X148972681Y-117484948D01*
X148954365Y-117553308D01*
X148934532Y-117780000D01*
X148954365Y-118006692D01*
X148955762Y-118011907D01*
X148955764Y-118011916D01*
X149011858Y-118221263D01*
X149011861Y-118221271D01*
X149013261Y-118226496D01*
X149109432Y-118432734D01*
X149239953Y-118619139D01*
X149400861Y-118780047D01*
X149587266Y-118910568D01*
X149645276Y-118937618D01*
X149697449Y-118983373D01*
X149716869Y-119049997D01*
X149697451Y-119116622D01*
X149645276Y-119162380D01*
X149592178Y-119187141D01*
X149592173Y-119187143D01*
X149587266Y-119189432D01*
X149582833Y-119192535D01*
X149582826Y-119192540D01*
X149405296Y-119316847D01*
X149405291Y-119316850D01*
X149400861Y-119319953D01*
X149397037Y-119323776D01*
X149397031Y-119323782D01*
X149243782Y-119477031D01*
X149243776Y-119477037D01*
X149239953Y-119480861D01*
X149236850Y-119485291D01*
X149236847Y-119485296D01*
X149112540Y-119662826D01*
X149112535Y-119662833D01*
X149109432Y-119667266D01*
X149107144Y-119672172D01*
X149107142Y-119672176D01*
X149015550Y-119868594D01*
X149015547Y-119868599D01*
X149013261Y-119873504D01*
X149011862Y-119878724D01*
X149011858Y-119878736D01*
X148955764Y-120088083D01*
X148955762Y-120088094D01*
X148954365Y-120093308D01*
X148934532Y-120320000D01*
X148935004Y-120325395D01*
X148946488Y-120456665D01*
X148954365Y-120546692D01*
X148955762Y-120551907D01*
X148955764Y-120551916D01*
X149011858Y-120761263D01*
X149011861Y-120761271D01*
X149013261Y-120766496D01*
X149109432Y-120972734D01*
X149239953Y-121159139D01*
X149400861Y-121320047D01*
X149587266Y-121450568D01*
X149592172Y-121452855D01*
X149592176Y-121452858D01*
X149645274Y-121477618D01*
X149697450Y-121523375D01*
X149716869Y-121590000D01*
X149697450Y-121656625D01*
X149645274Y-121702382D01*
X149592176Y-121727141D01*
X149592163Y-121727148D01*
X149587266Y-121729432D01*
X149582833Y-121732535D01*
X149582826Y-121732540D01*
X149405296Y-121856847D01*
X149405291Y-121856850D01*
X149400861Y-121859953D01*
X149397037Y-121863776D01*
X149397031Y-121863782D01*
X149243782Y-122017031D01*
X149243776Y-122017037D01*
X149239953Y-122020861D01*
X149236850Y-122025291D01*
X149236847Y-122025296D01*
X149112540Y-122202826D01*
X149112535Y-122202833D01*
X149109432Y-122207266D01*
X149107144Y-122212172D01*
X149107142Y-122212176D01*
X149015550Y-122408594D01*
X149015547Y-122408599D01*
X149013261Y-122413504D01*
X149011862Y-122418724D01*
X149011858Y-122418736D01*
X148955764Y-122628083D01*
X148955762Y-122628094D01*
X148954365Y-122633308D01*
X148953893Y-122638693D01*
X148953893Y-122638698D01*
X148944346Y-122747821D01*
X148934532Y-122860000D01*
X148935004Y-122865395D01*
X148948303Y-123017410D01*
X148954365Y-123086692D01*
X148955762Y-123091907D01*
X148955764Y-123091916D01*
X149011858Y-123301263D01*
X149011861Y-123301271D01*
X149013261Y-123306496D01*
X149109432Y-123512734D01*
X149239953Y-123699139D01*
X149400861Y-123860047D01*
X149587266Y-123990568D01*
X149592172Y-123992855D01*
X149592176Y-123992858D01*
X149645274Y-124017618D01*
X149697450Y-124063375D01*
X149716869Y-124130000D01*
X149697450Y-124196625D01*
X149645274Y-124242382D01*
X149592176Y-124267141D01*
X149592163Y-124267148D01*
X149587266Y-124269432D01*
X149582833Y-124272535D01*
X149582826Y-124272540D01*
X149405296Y-124396847D01*
X149405291Y-124396850D01*
X149400861Y-124399953D01*
X149397037Y-124403776D01*
X149397031Y-124403782D01*
X149243782Y-124557031D01*
X149243776Y-124557037D01*
X149239953Y-124560861D01*
X149236850Y-124565291D01*
X149236847Y-124565296D01*
X149112540Y-124742826D01*
X149112535Y-124742833D01*
X149109432Y-124747266D01*
X149107144Y-124752172D01*
X149107142Y-124752176D01*
X149015550Y-124948594D01*
X149015547Y-124948599D01*
X149013261Y-124953504D01*
X149011862Y-124958724D01*
X149011858Y-124958736D01*
X148955764Y-125168083D01*
X148955762Y-125168094D01*
X148954365Y-125173308D01*
X148934532Y-125400000D01*
X148935004Y-125405395D01*
X148949029Y-125565709D01*
X148954365Y-125626692D01*
X148955762Y-125631907D01*
X148955764Y-125631916D01*
X149011858Y-125841263D01*
X149011861Y-125841271D01*
X149013261Y-125846496D01*
X149109432Y-126052734D01*
X149239953Y-126239139D01*
X149400861Y-126400047D01*
X149587266Y-126530568D01*
X149592172Y-126532855D01*
X149592176Y-126532858D01*
X149645274Y-126557618D01*
X149697450Y-126603375D01*
X149716869Y-126670000D01*
X149697450Y-126736625D01*
X149645274Y-126782382D01*
X149592176Y-126807141D01*
X149592163Y-126807148D01*
X149587266Y-126809432D01*
X149582833Y-126812535D01*
X149582826Y-126812540D01*
X149405296Y-126936847D01*
X149405291Y-126936850D01*
X149400861Y-126939953D01*
X149397037Y-126943776D01*
X149397031Y-126943782D01*
X149243782Y-127097031D01*
X149243776Y-127097037D01*
X149239953Y-127100861D01*
X149236850Y-127105291D01*
X149236847Y-127105296D01*
X149112540Y-127282826D01*
X149112535Y-127282833D01*
X149109432Y-127287266D01*
X149107144Y-127292172D01*
X149107142Y-127292176D01*
X149015550Y-127488594D01*
X149015547Y-127488599D01*
X149013261Y-127493504D01*
X149011862Y-127498724D01*
X149011858Y-127498736D01*
X148955764Y-127708083D01*
X148955762Y-127708094D01*
X148954365Y-127713308D01*
X148934532Y-127940000D01*
X148954365Y-128166692D01*
X148955762Y-128171907D01*
X148955764Y-128171916D01*
X149011858Y-128381263D01*
X149011861Y-128381271D01*
X149013261Y-128386496D01*
X149109432Y-128592734D01*
X149239953Y-128779139D01*
X149400861Y-128940047D01*
X149587266Y-129070568D01*
X149592172Y-129072855D01*
X149592176Y-129072858D01*
X149645274Y-129097618D01*
X149697450Y-129143375D01*
X149716869Y-129210000D01*
X149697450Y-129276625D01*
X149645274Y-129322382D01*
X149592176Y-129347141D01*
X149592163Y-129347148D01*
X149587266Y-129349432D01*
X149582833Y-129352535D01*
X149582826Y-129352540D01*
X149405296Y-129476847D01*
X149405291Y-129476850D01*
X149400861Y-129479953D01*
X149397037Y-129483776D01*
X149397031Y-129483782D01*
X149243782Y-129637031D01*
X149243776Y-129637037D01*
X149239953Y-129640861D01*
X149236850Y-129645291D01*
X149236847Y-129645296D01*
X149112540Y-129822826D01*
X149112535Y-129822833D01*
X149109432Y-129827266D01*
X149107144Y-129832172D01*
X149107142Y-129832176D01*
X149015550Y-130028594D01*
X149015547Y-130028599D01*
X149013261Y-130033504D01*
X149011862Y-130038724D01*
X149011858Y-130038736D01*
X148955764Y-130248083D01*
X148955762Y-130248094D01*
X148954365Y-130253308D01*
X148934532Y-130480000D01*
X148954365Y-130706692D01*
X148955762Y-130711907D01*
X148955764Y-130711916D01*
X149011858Y-130921263D01*
X149011861Y-130921271D01*
X149013261Y-130926496D01*
X149109432Y-131132734D01*
X149239953Y-131319139D01*
X149400861Y-131480047D01*
X149587266Y-131610568D01*
X149592172Y-131612855D01*
X149592176Y-131612858D01*
X149645274Y-131637618D01*
X149697450Y-131683375D01*
X149716869Y-131750000D01*
X149697450Y-131816625D01*
X149645274Y-131862382D01*
X149592176Y-131887141D01*
X149592163Y-131887148D01*
X149587266Y-131889432D01*
X149582833Y-131892535D01*
X149582826Y-131892540D01*
X149405296Y-132016847D01*
X149405291Y-132016850D01*
X149400861Y-132019953D01*
X149397037Y-132023776D01*
X149397031Y-132023782D01*
X149243782Y-132177031D01*
X149243776Y-132177037D01*
X149239953Y-132180861D01*
X149236850Y-132185291D01*
X149236847Y-132185296D01*
X149112540Y-132362826D01*
X149112535Y-132362833D01*
X149109432Y-132367266D01*
X149107144Y-132372172D01*
X149107142Y-132372176D01*
X149015550Y-132568594D01*
X149015547Y-132568599D01*
X149013261Y-132573504D01*
X149011862Y-132578724D01*
X149011858Y-132578736D01*
X148955764Y-132788083D01*
X148955762Y-132788094D01*
X148954365Y-132793308D01*
X148953893Y-132798693D01*
X148953893Y-132798698D01*
X148953563Y-132802471D01*
X148934532Y-133020000D01*
X148954365Y-133246692D01*
X148955762Y-133251907D01*
X148955764Y-133251916D01*
X149011858Y-133461263D01*
X149011861Y-133461271D01*
X149013261Y-133466496D01*
X149109432Y-133672734D01*
X149112539Y-133677171D01*
X149112540Y-133677173D01*
X149162023Y-133747843D01*
X149239953Y-133859139D01*
X149400861Y-134020047D01*
X149587266Y-134150568D01*
X149592172Y-134152855D01*
X149592176Y-134152858D01*
X149645274Y-134177618D01*
X149697450Y-134223375D01*
X149716869Y-134290000D01*
X149697450Y-134356625D01*
X149645274Y-134402382D01*
X149592176Y-134427141D01*
X149592163Y-134427148D01*
X149587266Y-134429432D01*
X149582833Y-134432535D01*
X149582826Y-134432540D01*
X149405296Y-134556847D01*
X149405291Y-134556850D01*
X149400861Y-134559953D01*
X149397037Y-134563776D01*
X149397031Y-134563782D01*
X149243782Y-134717031D01*
X149243776Y-134717037D01*
X149239953Y-134720861D01*
X149236850Y-134725291D01*
X149236847Y-134725296D01*
X149112540Y-134902826D01*
X149112535Y-134902833D01*
X149109432Y-134907266D01*
X149107144Y-134912172D01*
X149107142Y-134912176D01*
X149015550Y-135108594D01*
X149015547Y-135108599D01*
X149013261Y-135113504D01*
X149011862Y-135118724D01*
X149011858Y-135118736D01*
X148955764Y-135328083D01*
X148955762Y-135328094D01*
X148954365Y-135333308D01*
X148953893Y-135338693D01*
X148953893Y-135338698D01*
X148938858Y-135510552D01*
X148934532Y-135560000D01*
X148954365Y-135786692D01*
X148955762Y-135791907D01*
X148955764Y-135791916D01*
X149011858Y-136001263D01*
X149011861Y-136001271D01*
X149013261Y-136006496D01*
X149109432Y-136212734D01*
X149239953Y-136399139D01*
X149400861Y-136560047D01*
X149587266Y-136690568D01*
X149793504Y-136786739D01*
X149798734Y-136788140D01*
X149798736Y-136788141D01*
X150008083Y-136844235D01*
X150013308Y-136845635D01*
X150240000Y-136865468D01*
X150466692Y-136845635D01*
X150686496Y-136786739D01*
X150892734Y-136690568D01*
X151079139Y-136560047D01*
X151240047Y-136399139D01*
X151370568Y-136212734D01*
X151466739Y-136006496D01*
X151525635Y-135786692D01*
X151545468Y-135560000D01*
X151525635Y-135333308D01*
X151466739Y-135113504D01*
X151370568Y-134907266D01*
X151240047Y-134720861D01*
X151079139Y-134559953D01*
X151017224Y-134516600D01*
X150897173Y-134432540D01*
X150897171Y-134432539D01*
X150892734Y-134429432D01*
X150834724Y-134402381D01*
X150782549Y-134356625D01*
X150763130Y-134290000D01*
X150782549Y-134223375D01*
X150834725Y-134177618D01*
X150892734Y-134150568D01*
X151079139Y-134020047D01*
X151240047Y-133859139D01*
X151370568Y-133672734D01*
X151466739Y-133466496D01*
X151525635Y-133246692D01*
X151545468Y-133020000D01*
X151525635Y-132793308D01*
X151466739Y-132573504D01*
X151370568Y-132367266D01*
X151240047Y-132180861D01*
X151079139Y-132019953D01*
X150892734Y-131889432D01*
X150834724Y-131862381D01*
X150782549Y-131816625D01*
X150763130Y-131750000D01*
X150782549Y-131683375D01*
X150834725Y-131637618D01*
X150892734Y-131610568D01*
X151079139Y-131480047D01*
X151240047Y-131319139D01*
X151370568Y-131132734D01*
X151466739Y-130926496D01*
X151525635Y-130706692D01*
X151545468Y-130480000D01*
X151525635Y-130253308D01*
X151466739Y-130033504D01*
X151370568Y-129827266D01*
X151240047Y-129640861D01*
X151079139Y-129479953D01*
X150892734Y-129349432D01*
X150834724Y-129322381D01*
X150782549Y-129276625D01*
X150763130Y-129210000D01*
X150782549Y-129143375D01*
X150834725Y-129097618D01*
X150892734Y-129070568D01*
X151079139Y-128940047D01*
X151240047Y-128779139D01*
X151370568Y-128592734D01*
X151466739Y-128386496D01*
X151525635Y-128166692D01*
X151545468Y-127940000D01*
X151525635Y-127713308D01*
X151466739Y-127493504D01*
X151370568Y-127287266D01*
X151240047Y-127100861D01*
X151079139Y-126939953D01*
X150892734Y-126809432D01*
X150834724Y-126782381D01*
X150782549Y-126736625D01*
X150763130Y-126670000D01*
X150782549Y-126603375D01*
X150834725Y-126557618D01*
X150892734Y-126530568D01*
X151079139Y-126400047D01*
X151240047Y-126239139D01*
X151370568Y-126052734D01*
X151466739Y-125846496D01*
X151525635Y-125626692D01*
X151545468Y-125400000D01*
X151525635Y-125173308D01*
X151466739Y-124953504D01*
X151370568Y-124747266D01*
X151240047Y-124560861D01*
X151079139Y-124399953D01*
X150973695Y-124326121D01*
X150897173Y-124272540D01*
X150897171Y-124272539D01*
X150892734Y-124269432D01*
X150834724Y-124242381D01*
X150782549Y-124196625D01*
X150763130Y-124130000D01*
X150782549Y-124063375D01*
X150834725Y-124017618D01*
X150892734Y-123990568D01*
X151079139Y-123860047D01*
X151240047Y-123699139D01*
X151370568Y-123512734D01*
X151466739Y-123306496D01*
X151525635Y-123086692D01*
X151545468Y-122860000D01*
X151525635Y-122633308D01*
X151466739Y-122413504D01*
X151370568Y-122207266D01*
X151240047Y-122020861D01*
X151079139Y-121859953D01*
X150892734Y-121729432D01*
X150834724Y-121702381D01*
X150782549Y-121656625D01*
X150763130Y-121590000D01*
X150782549Y-121523375D01*
X150834725Y-121477618D01*
X150892734Y-121450568D01*
X151079139Y-121320047D01*
X151240047Y-121159139D01*
X151327873Y-121033709D01*
X161119816Y-121033709D01*
X161137568Y-121225282D01*
X161139666Y-121236504D01*
X161192316Y-121421553D01*
X161196440Y-121432198D01*
X161231688Y-121502984D01*
X161244183Y-121569437D01*
X161219956Y-121632566D01*
X161205621Y-121651716D01*
X161180204Y-121685669D01*
X161177104Y-121693978D01*
X161177104Y-121693980D01*
X161132620Y-121813247D01*
X161132619Y-121813250D01*
X161129909Y-121820517D01*
X161129079Y-121828227D01*
X161129079Y-121828232D01*
X161123855Y-121876819D01*
X161123854Y-121876831D01*
X161123500Y-121880127D01*
X161123500Y-121883448D01*
X161123500Y-121883449D01*
X161123500Y-123172560D01*
X161123500Y-123172578D01*
X161123501Y-123175872D01*
X161123853Y-123179150D01*
X161123854Y-123179161D01*
X161129079Y-123227768D01*
X161129080Y-123227773D01*
X161129909Y-123235483D01*
X161132619Y-123242749D01*
X161132620Y-123242753D01*
X161154443Y-123301263D01*
X161180204Y-123370331D01*
X161266454Y-123485546D01*
X161381669Y-123571796D01*
X161516517Y-123622091D01*
X161576127Y-123628500D01*
X162871872Y-123628499D01*
X162931483Y-123622091D01*
X163066331Y-123571796D01*
X163181546Y-123485546D01*
X163267796Y-123370331D01*
X163318091Y-123235483D01*
X163324500Y-123175873D01*
X163324499Y-121880128D01*
X163318091Y-121820517D01*
X163267796Y-121685669D01*
X163238166Y-121646089D01*
X163228044Y-121632567D01*
X163203816Y-121569437D01*
X163216312Y-121502983D01*
X163251557Y-121432202D01*
X163255683Y-121421553D01*
X163308333Y-121236504D01*
X163310431Y-121225282D01*
X163328184Y-121033709D01*
X163328184Y-121022291D01*
X163310431Y-120830717D01*
X163308333Y-120819495D01*
X163255685Y-120634454D01*
X163251554Y-120623791D01*
X163167352Y-120454690D01*
X163161054Y-120450009D01*
X163148889Y-120456662D01*
X162311680Y-121293871D01*
X162256093Y-121325965D01*
X162191905Y-121325965D01*
X162136318Y-121293871D01*
X161299112Y-120456665D01*
X161286945Y-120450011D01*
X161280643Y-120454698D01*
X161196445Y-120623791D01*
X161192314Y-120634454D01*
X161139666Y-120819495D01*
X161137568Y-120830717D01*
X161119816Y-121022291D01*
X161119816Y-121033709D01*
X151327873Y-121033709D01*
X151370568Y-120972734D01*
X151466739Y-120766496D01*
X151525635Y-120546692D01*
X151545468Y-120320000D01*
X151525715Y-120094220D01*
X161647298Y-120094220D01*
X161653228Y-120103675D01*
X162212457Y-120662904D01*
X162223999Y-120669568D01*
X162235542Y-120662904D01*
X162794770Y-120103675D01*
X162800700Y-120094220D01*
X162792763Y-120086374D01*
X162721287Y-120042119D01*
X162711070Y-120037031D01*
X162531666Y-119967530D01*
X162520681Y-119964405D01*
X162331559Y-119929052D01*
X162320201Y-119928000D01*
X162127799Y-119928000D01*
X162116440Y-119929052D01*
X161927318Y-119964405D01*
X161916333Y-119967530D01*
X161736927Y-120037032D01*
X161726718Y-120042115D01*
X161655233Y-120086376D01*
X161647298Y-120094220D01*
X151525715Y-120094220D01*
X151525635Y-120093308D01*
X151471509Y-119891307D01*
X151468141Y-119878736D01*
X151468140Y-119878734D01*
X151466739Y-119873504D01*
X151370568Y-119667266D01*
X151240047Y-119480861D01*
X151079139Y-119319953D01*
X150892734Y-119189432D01*
X150834724Y-119162381D01*
X150782549Y-119116625D01*
X150763130Y-119050000D01*
X150782549Y-118983375D01*
X150834725Y-118937618D01*
X150892734Y-118910568D01*
X151079139Y-118780047D01*
X151240047Y-118619139D01*
X151370568Y-118432734D01*
X151466739Y-118226496D01*
X151525635Y-118006692D01*
X151545468Y-117780000D01*
X151525635Y-117553308D01*
X151488790Y-117415799D01*
X151468141Y-117338736D01*
X151468140Y-117338734D01*
X151466739Y-117333504D01*
X151370568Y-117127266D01*
X151240047Y-116940861D01*
X151079139Y-116779953D01*
X150892734Y-116649432D01*
X150834724Y-116622381D01*
X150782549Y-116576625D01*
X150763130Y-116510000D01*
X150782549Y-116443375D01*
X150834725Y-116397618D01*
X150892734Y-116370568D01*
X151079139Y-116240047D01*
X151240047Y-116079139D01*
X151370568Y-115892734D01*
X151466739Y-115686496D01*
X151525635Y-115466692D01*
X151545468Y-115240000D01*
X151525635Y-115013308D01*
X151466739Y-114793504D01*
X151370568Y-114587266D01*
X151240047Y-114400861D01*
X151079139Y-114239953D01*
X150892734Y-114109432D01*
X150834724Y-114082381D01*
X150782549Y-114036625D01*
X150763130Y-113970000D01*
X150782549Y-113903375D01*
X150834725Y-113857618D01*
X150892734Y-113830568D01*
X151079139Y-113700047D01*
X151240047Y-113539139D01*
X151370568Y-113352734D01*
X151466739Y-113146496D01*
X151525635Y-112926692D01*
X151545468Y-112700000D01*
X151525635Y-112473308D01*
X151466739Y-112253504D01*
X151370568Y-112047266D01*
X151240047Y-111860861D01*
X151079139Y-111699953D01*
X150892734Y-111569432D01*
X150834724Y-111542381D01*
X150782549Y-111496625D01*
X150763130Y-111430000D01*
X150782549Y-111363375D01*
X150834725Y-111317618D01*
X150892734Y-111290568D01*
X151079139Y-111160047D01*
X151240047Y-110999139D01*
X151370568Y-110812734D01*
X151466739Y-110606496D01*
X151525635Y-110386692D01*
X151545468Y-110160000D01*
X151525635Y-109933308D01*
X151466739Y-109713504D01*
X151370568Y-109507266D01*
X151240047Y-109320861D01*
X151079139Y-109159953D01*
X150892734Y-109029432D01*
X150834724Y-109002381D01*
X150782549Y-108956625D01*
X150763130Y-108890000D01*
X150782549Y-108823375D01*
X150834725Y-108777618D01*
X150892734Y-108750568D01*
X151079139Y-108620047D01*
X151240047Y-108459139D01*
X151370568Y-108272734D01*
X151466739Y-108066496D01*
X151525635Y-107846692D01*
X151545468Y-107620000D01*
X151525635Y-107393308D01*
X151466739Y-107173504D01*
X151370568Y-106967266D01*
X151240047Y-106780861D01*
X151079139Y-106619953D01*
X151017224Y-106576600D01*
X150897173Y-106492540D01*
X150897171Y-106492539D01*
X150892734Y-106489432D01*
X150849339Y-106469196D01*
X166456840Y-106469196D01*
X166457574Y-106476961D01*
X166457574Y-106476964D01*
X166460950Y-106512676D01*
X166461500Y-106524345D01*
X166461500Y-125290530D01*
X166460978Y-125301585D01*
X166459327Y-125308972D01*
X166459571Y-125316758D01*
X166459571Y-125316766D01*
X166461439Y-125376178D01*
X166461500Y-125380073D01*
X166461500Y-125407655D01*
X166461988Y-125411524D01*
X166461989Y-125411530D01*
X166462004Y-125411648D01*
X166462918Y-125423271D01*
X166464045Y-125459135D01*
X166464046Y-125459142D01*
X166464291Y-125466932D01*
X166466467Y-125474424D01*
X166466468Y-125474426D01*
X166469879Y-125486167D01*
X166473825Y-125505220D01*
X166476336Y-125525097D01*
X166479206Y-125532347D01*
X166479208Y-125532353D01*
X166492414Y-125565709D01*
X166496197Y-125576756D01*
X166508382Y-125618695D01*
X166512353Y-125625410D01*
X166512354Y-125625412D01*
X166518581Y-125635942D01*
X166527136Y-125653404D01*
X166531642Y-125664785D01*
X166531643Y-125664788D01*
X166534514Y-125672037D01*
X166556440Y-125702217D01*
X166560181Y-125707365D01*
X166566593Y-125717127D01*
X166584856Y-125748007D01*
X166584859Y-125748012D01*
X166588830Y-125754725D01*
X166594345Y-125760240D01*
X166602990Y-125768885D01*
X166615626Y-125783679D01*
X166622819Y-125793580D01*
X166622823Y-125793584D01*
X166627406Y-125799892D01*
X166633415Y-125804863D01*
X166633416Y-125804864D01*
X166661058Y-125827731D01*
X166669699Y-125835594D01*
X167014401Y-126180296D01*
X167021853Y-126188485D01*
X167025909Y-126194877D01*
X167031593Y-126200215D01*
X167031595Y-126200217D01*
X167074918Y-126240900D01*
X167077714Y-126243610D01*
X167097224Y-126263120D01*
X167100404Y-126265587D01*
X167109266Y-126273155D01*
X167114888Y-126278435D01*
X167135427Y-126297723D01*
X167135429Y-126297724D01*
X167141113Y-126303062D01*
X167147946Y-126306818D01*
X167147947Y-126306819D01*
X167158668Y-126312713D01*
X167174929Y-126323394D01*
X167190759Y-126335673D01*
X167230850Y-126353021D01*
X167241330Y-126358155D01*
X167279603Y-126379197D01*
X167299011Y-126384180D01*
X167317414Y-126390481D01*
X167328639Y-126395339D01*
X167328641Y-126395339D01*
X167335799Y-126398437D01*
X167378953Y-126405271D01*
X167390339Y-126407629D01*
X167432676Y-126418500D01*
X167452712Y-126418500D01*
X167472110Y-126420027D01*
X167484181Y-126421939D01*
X167484182Y-126421939D01*
X167491891Y-126423160D01*
X167529971Y-126419560D01*
X167535371Y-126419050D01*
X167547040Y-126418500D01*
X169549225Y-126418500D01*
X169560280Y-126419021D01*
X169567667Y-126420673D01*
X169634872Y-126418561D01*
X169638768Y-126418500D01*
X169662448Y-126418500D01*
X169666350Y-126418500D01*
X169670313Y-126417999D01*
X169681963Y-126417080D01*
X169725627Y-126415709D01*
X169744861Y-126410119D01*
X169763917Y-126406174D01*
X169783792Y-126403664D01*
X169824395Y-126387587D01*
X169835450Y-126383802D01*
X169877390Y-126371618D01*
X169894629Y-126361422D01*
X169912103Y-126352862D01*
X169923474Y-126348360D01*
X169923476Y-126348358D01*
X169930732Y-126345486D01*
X169966069Y-126319811D01*
X169975824Y-126313403D01*
X170013420Y-126291170D01*
X170027584Y-126277005D01*
X170042379Y-126264368D01*
X170058587Y-126252594D01*
X170086428Y-126218938D01*
X170094279Y-126210309D01*
X172098771Y-124205819D01*
X172139000Y-124178939D01*
X172186453Y-124169500D01*
X176252252Y-124169500D01*
X176302685Y-124180219D01*
X176340783Y-124207897D01*
X176340952Y-124207711D01*
X176342727Y-124209309D01*
X176344398Y-124210523D01*
X176350125Y-124216884D01*
X176349831Y-124217148D01*
X176383995Y-124271821D01*
X176383995Y-124340179D01*
X176349834Y-124394846D01*
X176350129Y-124395112D01*
X176348624Y-124396782D01*
X176348621Y-124396786D01*
X176345785Y-124399936D01*
X176345781Y-124399940D01*
X176227813Y-124530956D01*
X176227808Y-124530962D01*
X176223467Y-124535784D01*
X176220222Y-124541404D01*
X176220218Y-124541410D01*
X176132069Y-124694089D01*
X176132066Y-124694094D01*
X176128821Y-124699716D01*
X176126815Y-124705888D01*
X176126813Y-124705894D01*
X176072333Y-124873564D01*
X176072331Y-124873573D01*
X176070326Y-124879744D01*
X176069648Y-124886194D01*
X176069646Y-124886204D01*
X176051962Y-125054464D01*
X176050540Y-125068000D01*
X176051219Y-125074460D01*
X176069646Y-125249795D01*
X176069647Y-125249803D01*
X176070326Y-125256256D01*
X176072331Y-125262428D01*
X176072333Y-125262435D01*
X176126813Y-125430105D01*
X176128821Y-125436284D01*
X176132068Y-125441908D01*
X176173690Y-125514001D01*
X176190302Y-125576000D01*
X176173690Y-125637999D01*
X176132068Y-125710091D01*
X176132066Y-125710095D01*
X176128821Y-125715716D01*
X176126815Y-125721888D01*
X176126813Y-125721894D01*
X176072333Y-125889564D01*
X176072331Y-125889573D01*
X176070326Y-125895744D01*
X176069648Y-125902194D01*
X176069646Y-125902204D01*
X176051962Y-126070464D01*
X176050540Y-126084000D01*
X176051219Y-126090460D01*
X176069646Y-126265795D01*
X176069647Y-126265803D01*
X176070326Y-126272256D01*
X176072331Y-126278428D01*
X176072333Y-126278435D01*
X176118023Y-126419051D01*
X176128821Y-126452284D01*
X176132068Y-126457908D01*
X176132069Y-126457910D01*
X176203810Y-126582170D01*
X176223467Y-126616216D01*
X176227811Y-126621041D01*
X176227813Y-126621043D01*
X176309417Y-126711673D01*
X176350129Y-126756888D01*
X176503270Y-126868151D01*
X176676197Y-126945144D01*
X176861354Y-126984500D01*
X177044143Y-126984500D01*
X177050646Y-126984500D01*
X177235803Y-126945144D01*
X177408730Y-126868151D01*
X177561871Y-126756888D01*
X177567601Y-126750523D01*
X177569271Y-126749310D01*
X177571050Y-126747709D01*
X177571218Y-126747895D01*
X177609315Y-126720219D01*
X177659748Y-126709500D01*
X177894225Y-126709500D01*
X177905280Y-126710021D01*
X177912667Y-126711673D01*
X177979872Y-126709561D01*
X177983768Y-126709500D01*
X178007448Y-126709500D01*
X178011350Y-126709500D01*
X178015313Y-126708999D01*
X178026963Y-126708080D01*
X178070627Y-126706709D01*
X178089861Y-126701119D01*
X178108917Y-126697174D01*
X178128792Y-126694664D01*
X178169395Y-126678587D01*
X178180450Y-126674802D01*
X178222390Y-126662618D01*
X178239629Y-126652422D01*
X178257103Y-126643862D01*
X178268474Y-126639360D01*
X178268476Y-126639358D01*
X178275732Y-126636486D01*
X178311069Y-126610811D01*
X178320824Y-126604403D01*
X178358420Y-126582170D01*
X178372584Y-126568005D01*
X178387379Y-126555368D01*
X178403587Y-126543594D01*
X178431428Y-126509938D01*
X178439279Y-126501309D01*
X180608311Y-124332278D01*
X180616481Y-124324844D01*
X180622877Y-124320786D01*
X180668918Y-124271756D01*
X180671535Y-124269054D01*
X180691120Y-124249471D01*
X180693585Y-124246292D01*
X180701167Y-124237416D01*
X180731062Y-124205582D01*
X180740713Y-124188023D01*
X180751390Y-124171770D01*
X180763673Y-124155936D01*
X180781018Y-124115852D01*
X180786151Y-124105371D01*
X180807197Y-124067092D01*
X180812179Y-124047684D01*
X180818482Y-124029276D01*
X180826437Y-124010896D01*
X180833271Y-123967744D01*
X180835633Y-123956338D01*
X180846500Y-123914019D01*
X180846500Y-123893983D01*
X180848027Y-123874585D01*
X180849939Y-123862513D01*
X180849938Y-123862513D01*
X180851160Y-123854804D01*
X180847050Y-123811324D01*
X180846500Y-123799655D01*
X180846500Y-103509470D01*
X180847021Y-103498414D01*
X180848673Y-103491028D01*
X180846561Y-103423808D01*
X180846500Y-103419914D01*
X180846500Y-103396237D01*
X180846500Y-103392345D01*
X180845998Y-103388378D01*
X180845081Y-103376721D01*
X180845018Y-103374703D01*
X180843710Y-103333068D01*
X180838118Y-103313823D01*
X180834174Y-103294778D01*
X180831664Y-103274903D01*
X180815579Y-103234278D01*
X180811806Y-103223257D01*
X180799618Y-103181305D01*
X180789417Y-103164055D01*
X180780863Y-103146596D01*
X180773486Y-103127963D01*
X180747808Y-103092620D01*
X180741401Y-103082866D01*
X180723142Y-103051991D01*
X180723141Y-103051989D01*
X180719170Y-103045275D01*
X180705005Y-103031110D01*
X180692370Y-103016317D01*
X180680594Y-103000108D01*
X180674583Y-102995135D01*
X180674581Y-102995133D01*
X180646941Y-102972268D01*
X180638300Y-102964405D01*
X180002591Y-102328695D01*
X179995147Y-102320514D01*
X179991091Y-102314123D01*
X179942080Y-102268098D01*
X179939283Y-102265387D01*
X179922532Y-102248636D01*
X179922531Y-102248635D01*
X179919776Y-102245880D01*
X179916595Y-102243412D01*
X179907719Y-102235830D01*
X179881574Y-102211278D01*
X179881572Y-102211276D01*
X179875887Y-102205938D01*
X179869054Y-102202182D01*
X179869048Y-102202177D01*
X179858330Y-102196285D01*
X179842071Y-102185606D01*
X179832400Y-102178104D01*
X179832397Y-102178102D01*
X179826241Y-102173327D01*
X179819084Y-102170229D01*
X179819081Y-102170228D01*
X179786154Y-102155978D01*
X179775668Y-102150841D01*
X179744237Y-102133562D01*
X179744228Y-102133558D01*
X179737397Y-102129803D01*
X179729840Y-102127862D01*
X179729836Y-102127861D01*
X179717993Y-102124820D01*
X179699589Y-102118519D01*
X179688362Y-102113660D01*
X179688355Y-102113658D01*
X179681201Y-102110562D01*
X179673497Y-102109341D01*
X179673495Y-102109341D01*
X179638064Y-102103729D01*
X179626629Y-102101361D01*
X179591876Y-102092438D01*
X179591868Y-102092437D01*
X179584324Y-102090500D01*
X179576528Y-102090500D01*
X179564288Y-102090500D01*
X179544902Y-102088974D01*
X179525109Y-102085840D01*
X179517343Y-102086574D01*
X179517340Y-102086574D01*
X179481629Y-102089950D01*
X179469960Y-102090500D01*
X178167748Y-102090500D01*
X178117315Y-102079781D01*
X178079218Y-102052104D01*
X178079050Y-102052291D01*
X178077271Y-102050689D01*
X178075601Y-102049476D01*
X178069871Y-102043112D01*
X178064613Y-102039292D01*
X178064611Y-102039290D01*
X177921988Y-101935669D01*
X177921987Y-101935668D01*
X177916730Y-101931849D01*
X177910792Y-101929205D01*
X177749745Y-101857501D01*
X177749740Y-101857499D01*
X177743803Y-101854856D01*
X177737444Y-101853504D01*
X177737440Y-101853503D01*
X177565008Y-101816852D01*
X177565005Y-101816851D01*
X177558646Y-101815500D01*
X177369354Y-101815500D01*
X177362995Y-101816851D01*
X177362991Y-101816852D01*
X177190559Y-101853503D01*
X177190552Y-101853505D01*
X177184197Y-101854856D01*
X177178262Y-101857498D01*
X177178254Y-101857501D01*
X177017207Y-101929205D01*
X177017202Y-101929207D01*
X177011270Y-101931849D01*
X177006016Y-101935665D01*
X177006011Y-101935669D01*
X176863388Y-102039290D01*
X176863381Y-102039295D01*
X176858129Y-102043112D01*
X176853784Y-102047937D01*
X176853779Y-102047942D01*
X176781650Y-102128050D01*
X176732723Y-102161301D01*
X176673958Y-102168100D01*
X176618731Y-102146900D01*
X176579611Y-102102527D01*
X176565500Y-102045078D01*
X176565500Y-101502452D01*
X176574939Y-101454999D01*
X176601819Y-101414771D01*
X178673764Y-99342826D01*
X180899311Y-97117278D01*
X180907481Y-97109844D01*
X180913877Y-97105786D01*
X180959918Y-97056756D01*
X180962535Y-97054054D01*
X180982120Y-97034471D01*
X180984585Y-97031292D01*
X180992167Y-97022416D01*
X181022062Y-96990582D01*
X181031713Y-96973023D01*
X181042390Y-96956770D01*
X181054673Y-96940936D01*
X181072018Y-96900852D01*
X181077151Y-96890371D01*
X181098197Y-96852092D01*
X181103179Y-96832684D01*
X181109482Y-96814276D01*
X181117437Y-96795896D01*
X181124271Y-96752744D01*
X181126633Y-96741338D01*
X181137500Y-96699019D01*
X181137500Y-96678983D01*
X181139027Y-96659585D01*
X181140939Y-96647513D01*
X181140938Y-96647513D01*
X181142160Y-96639804D01*
X181138050Y-96596324D01*
X181137500Y-96584655D01*
X181137500Y-93649771D01*
X181138020Y-93638718D01*
X181139672Y-93631332D01*
X181137561Y-93564144D01*
X181137500Y-93560250D01*
X181137500Y-93536545D01*
X181137500Y-93532650D01*
X181136998Y-93528681D01*
X181136080Y-93517024D01*
X181134709Y-93473373D01*
X181129119Y-93454135D01*
X181125175Y-93435091D01*
X181122664Y-93415208D01*
X181106582Y-93374591D01*
X181102798Y-93363539D01*
X181092793Y-93329101D01*
X181090617Y-93321610D01*
X181086645Y-93314894D01*
X181086643Y-93314889D01*
X181080422Y-93304370D01*
X181071860Y-93286892D01*
X181067360Y-93275527D01*
X181067359Y-93275526D01*
X181064486Y-93268268D01*
X181038812Y-93232931D01*
X181032409Y-93223184D01*
X181010170Y-93185579D01*
X180996005Y-93171414D01*
X180983368Y-93156618D01*
X180976184Y-93146729D01*
X180976178Y-93146723D01*
X180971594Y-93140413D01*
X180937946Y-93112577D01*
X180929305Y-93104714D01*
X180792286Y-92967695D01*
X180784842Y-92959514D01*
X180780786Y-92953123D01*
X180731775Y-92907098D01*
X180728978Y-92904387D01*
X180712227Y-92887636D01*
X180712227Y-92887635D01*
X180709471Y-92884880D01*
X180706290Y-92882412D01*
X180697414Y-92874830D01*
X180671269Y-92850278D01*
X180671267Y-92850276D01*
X180665582Y-92844938D01*
X180658749Y-92841182D01*
X180658743Y-92841177D01*
X180648025Y-92835285D01*
X180631766Y-92824606D01*
X180622095Y-92817104D01*
X180622092Y-92817102D01*
X180615936Y-92812327D01*
X180608779Y-92809229D01*
X180608776Y-92809228D01*
X180575849Y-92794978D01*
X180565363Y-92789841D01*
X180533932Y-92772562D01*
X180533923Y-92772558D01*
X180527092Y-92768803D01*
X180519535Y-92766862D01*
X180519531Y-92766861D01*
X180507688Y-92763820D01*
X180489284Y-92757519D01*
X180478057Y-92752660D01*
X180478050Y-92752658D01*
X180470896Y-92749562D01*
X180463192Y-92748341D01*
X180463190Y-92748341D01*
X180427759Y-92742729D01*
X180416324Y-92740361D01*
X180381571Y-92731438D01*
X180381563Y-92731437D01*
X180374019Y-92729500D01*
X180366223Y-92729500D01*
X180353983Y-92729500D01*
X180334597Y-92727974D01*
X180314804Y-92724840D01*
X180307038Y-92725574D01*
X180307035Y-92725574D01*
X180271324Y-92728950D01*
X180259655Y-92729500D01*
X176614379Y-92729500D01*
X176603323Y-92728978D01*
X176595937Y-92727327D01*
X176588149Y-92727571D01*
X176588142Y-92727571D01*
X176528717Y-92729439D01*
X176524823Y-92729500D01*
X176497254Y-92729500D01*
X176493398Y-92729986D01*
X176493395Y-92729987D01*
X176493339Y-92729994D01*
X176493266Y-92730003D01*
X176481648Y-92730917D01*
X176445769Y-92732045D01*
X176445768Y-92732045D01*
X176437977Y-92732290D01*
X176430492Y-92734464D01*
X176430488Y-92734465D01*
X176418729Y-92737881D01*
X176399691Y-92741823D01*
X176387553Y-92743357D01*
X176387545Y-92743358D01*
X176379812Y-92744336D01*
X176372564Y-92747205D01*
X176372558Y-92747207D01*
X176339201Y-92760413D01*
X176328158Y-92764194D01*
X176293704Y-92774205D01*
X176293698Y-92774207D01*
X176286214Y-92776382D01*
X176279502Y-92780351D01*
X176279500Y-92780352D01*
X176268968Y-92786580D01*
X176251508Y-92795134D01*
X176240123Y-92799642D01*
X176240117Y-92799644D01*
X176232872Y-92802514D01*
X176226567Y-92807094D01*
X176226559Y-92807099D01*
X176197536Y-92828185D01*
X176187778Y-92834595D01*
X176156900Y-92852857D01*
X176156894Y-92852861D01*
X176150184Y-92856830D01*
X176144671Y-92862341D01*
X176144664Y-92862348D01*
X176136014Y-92870998D01*
X176121231Y-92883624D01*
X176111330Y-92890817D01*
X176111320Y-92890826D01*
X176105017Y-92895406D01*
X176100048Y-92901411D01*
X176100045Y-92901415D01*
X176077176Y-92929059D01*
X176069315Y-92937697D01*
X174086696Y-94920315D01*
X174078511Y-94927763D01*
X174072123Y-94931818D01*
X174066788Y-94937498D01*
X174066783Y-94937503D01*
X174026096Y-94980829D01*
X174023392Y-94983620D01*
X174006628Y-95000384D01*
X174006621Y-95000391D01*
X174003880Y-95003133D01*
X174001500Y-95006200D01*
X174001489Y-95006213D01*
X174001400Y-95006329D01*
X173993842Y-95015174D01*
X173969280Y-95041331D01*
X173969273Y-95041340D01*
X173963938Y-95047022D01*
X173960182Y-95053853D01*
X173960179Y-95053858D01*
X173954285Y-95064579D01*
X173943609Y-95080831D01*
X173936109Y-95090500D01*
X173936101Y-95090511D01*
X173931327Y-95096668D01*
X173928234Y-95103812D01*
X173928229Y-95103823D01*
X173913974Y-95136764D01*
X173908838Y-95147247D01*
X173887803Y-95185512D01*
X173885864Y-95193060D01*
X173885863Y-95193065D01*
X173882822Y-95204911D01*
X173876521Y-95223315D01*
X173871658Y-95234552D01*
X173871656Y-95234556D01*
X173868562Y-95241708D01*
X173867342Y-95249407D01*
X173867342Y-95249409D01*
X173861729Y-95284845D01*
X173859361Y-95296280D01*
X173850438Y-95331032D01*
X173850436Y-95331040D01*
X173848500Y-95338585D01*
X173848500Y-95346381D01*
X173848500Y-95358621D01*
X173846974Y-95378006D01*
X173843840Y-95397800D01*
X173844574Y-95405565D01*
X173844574Y-95405568D01*
X173847950Y-95441280D01*
X173848500Y-95452949D01*
X173848500Y-100823548D01*
X173839061Y-100871001D01*
X173812181Y-100911229D01*
X170912228Y-103811181D01*
X170872000Y-103838061D01*
X170824547Y-103847500D01*
X170765354Y-103847500D01*
X170758995Y-103848851D01*
X170758991Y-103848852D01*
X170586559Y-103885503D01*
X170586552Y-103885505D01*
X170580197Y-103886856D01*
X170574262Y-103889498D01*
X170574254Y-103889501D01*
X170413207Y-103961205D01*
X170413202Y-103961207D01*
X170407270Y-103963849D01*
X170402016Y-103967665D01*
X170402011Y-103967669D01*
X170259388Y-104071290D01*
X170259381Y-104071295D01*
X170254129Y-104075112D01*
X170249784Y-104079937D01*
X170249779Y-104079942D01*
X170131813Y-104210956D01*
X170131808Y-104210962D01*
X170127467Y-104215784D01*
X170124222Y-104221404D01*
X170124218Y-104221410D01*
X170036069Y-104374089D01*
X170036066Y-104374094D01*
X170032821Y-104379716D01*
X170030815Y-104385888D01*
X170030813Y-104385894D01*
X169976333Y-104553564D01*
X169976331Y-104553573D01*
X169974326Y-104559744D01*
X169973648Y-104566194D01*
X169973646Y-104566204D01*
X169967321Y-104626393D01*
X169946801Y-104682772D01*
X169902215Y-104722917D01*
X169844000Y-104737432D01*
X169785785Y-104722917D01*
X169741199Y-104682772D01*
X169720679Y-104626393D01*
X169714353Y-104566204D01*
X169714352Y-104566203D01*
X169713674Y-104559744D01*
X169655179Y-104379716D01*
X169560533Y-104215784D01*
X169433871Y-104075112D01*
X169428613Y-104071292D01*
X169428611Y-104071290D01*
X169285988Y-103967669D01*
X169285987Y-103967668D01*
X169280730Y-103963849D01*
X169255330Y-103952540D01*
X169113745Y-103889501D01*
X169113740Y-103889499D01*
X169107803Y-103886856D01*
X169101444Y-103885504D01*
X169101440Y-103885503D01*
X168929008Y-103848852D01*
X168929005Y-103848851D01*
X168922646Y-103847500D01*
X168733354Y-103847500D01*
X168726995Y-103848851D01*
X168726991Y-103848852D01*
X168554559Y-103885503D01*
X168554552Y-103885505D01*
X168548197Y-103886856D01*
X168542262Y-103889498D01*
X168542254Y-103889501D01*
X168381207Y-103961205D01*
X168381202Y-103961207D01*
X168375270Y-103963849D01*
X168370016Y-103967665D01*
X168370011Y-103967669D01*
X168227388Y-104071290D01*
X168227381Y-104071295D01*
X168222129Y-104075112D01*
X168217784Y-104079937D01*
X168217779Y-104079942D01*
X168099813Y-104210956D01*
X168099808Y-104210962D01*
X168095467Y-104215784D01*
X168092222Y-104221404D01*
X168092218Y-104221410D01*
X168004069Y-104374089D01*
X168004066Y-104374094D01*
X168000821Y-104379716D01*
X167998815Y-104385888D01*
X167998813Y-104385894D01*
X167944333Y-104553564D01*
X167944331Y-104553573D01*
X167942326Y-104559744D01*
X167941647Y-104566203D01*
X167941647Y-104566204D01*
X167924678Y-104727650D01*
X167913278Y-104768072D01*
X167889038Y-104802369D01*
X166699696Y-105991711D01*
X166691511Y-105999159D01*
X166685123Y-106003214D01*
X166679788Y-106008894D01*
X166679783Y-106008899D01*
X166639096Y-106052225D01*
X166636392Y-106055016D01*
X166619628Y-106071780D01*
X166619621Y-106071787D01*
X166616880Y-106074529D01*
X166614500Y-106077596D01*
X166614489Y-106077609D01*
X166614400Y-106077725D01*
X166606842Y-106086570D01*
X166582280Y-106112727D01*
X166582273Y-106112736D01*
X166576938Y-106118418D01*
X166573182Y-106125249D01*
X166573179Y-106125254D01*
X166567285Y-106135975D01*
X166556609Y-106152227D01*
X166549109Y-106161896D01*
X166549101Y-106161907D01*
X166544327Y-106168064D01*
X166541234Y-106175208D01*
X166541229Y-106175219D01*
X166526974Y-106208160D01*
X166521838Y-106218643D01*
X166511256Y-106237893D01*
X166500803Y-106256908D01*
X166498864Y-106264456D01*
X166498863Y-106264461D01*
X166495822Y-106276307D01*
X166489521Y-106294711D01*
X166484658Y-106305948D01*
X166484656Y-106305952D01*
X166481562Y-106313104D01*
X166480342Y-106320803D01*
X166480342Y-106320805D01*
X166474729Y-106356241D01*
X166472361Y-106367676D01*
X166463438Y-106402428D01*
X166463436Y-106402436D01*
X166461500Y-106409981D01*
X166461500Y-106417777D01*
X166461500Y-106430017D01*
X166459974Y-106449402D01*
X166456840Y-106469196D01*
X150849339Y-106469196D01*
X150834724Y-106462381D01*
X150782549Y-106416625D01*
X150763130Y-106350000D01*
X150782549Y-106283375D01*
X150834725Y-106237618D01*
X150892734Y-106210568D01*
X151079139Y-106080047D01*
X151240047Y-105919139D01*
X151370568Y-105732734D01*
X151466739Y-105526496D01*
X151525635Y-105306692D01*
X151545468Y-105080000D01*
X151525635Y-104853308D01*
X151494586Y-104737432D01*
X151468141Y-104638736D01*
X151468140Y-104638734D01*
X151466739Y-104633504D01*
X151370568Y-104427266D01*
X151240047Y-104240861D01*
X151079139Y-104079953D01*
X150989878Y-104017452D01*
X150897173Y-103952540D01*
X150897171Y-103952539D01*
X150892734Y-103949432D01*
X150887831Y-103947145D01*
X150887823Y-103947141D01*
X150834134Y-103922106D01*
X150781958Y-103876349D01*
X150762539Y-103809723D01*
X150781959Y-103743098D01*
X150834135Y-103697341D01*
X150887585Y-103672417D01*
X150896912Y-103667032D01*
X151074381Y-103542767D01*
X151082647Y-103535830D01*
X151235830Y-103382647D01*
X151242767Y-103374381D01*
X151367032Y-103196912D01*
X151372420Y-103187580D01*
X151463977Y-102991234D01*
X151467669Y-102981092D01*
X151515179Y-102803780D01*
X151515547Y-102792551D01*
X151504605Y-102790000D01*
X148975395Y-102790000D01*
X148964452Y-102792551D01*
X148964820Y-102803780D01*
X149012330Y-102981092D01*
X149016022Y-102991234D01*
X149107579Y-103187580D01*
X149112967Y-103196912D01*
X149237232Y-103374381D01*
X149244169Y-103382647D01*
X149397352Y-103535830D01*
X149405618Y-103542767D01*
X149583087Y-103667032D01*
X149592423Y-103672422D01*
X149645864Y-103697342D01*
X149698040Y-103743098D01*
X149717460Y-103809723D01*
X149698041Y-103876348D01*
X149645866Y-103922106D01*
X149629429Y-103929771D01*
X149587266Y-103949432D01*
X149582833Y-103952535D01*
X149582826Y-103952540D01*
X149405296Y-104076847D01*
X149405291Y-104076850D01*
X149400861Y-104079953D01*
X149397037Y-104083776D01*
X149397031Y-104083782D01*
X149243782Y-104237031D01*
X149243776Y-104237037D01*
X149239953Y-104240861D01*
X149236850Y-104245291D01*
X149236847Y-104245296D01*
X149112540Y-104422826D01*
X149112535Y-104422833D01*
X149109432Y-104427266D01*
X149107144Y-104432172D01*
X149107142Y-104432176D01*
X149015550Y-104628594D01*
X149015547Y-104628599D01*
X149013261Y-104633504D01*
X149011862Y-104638724D01*
X149011858Y-104638736D01*
X148955764Y-104848083D01*
X148955762Y-104848094D01*
X148954365Y-104853308D01*
X148934532Y-105080000D01*
X148935004Y-105085395D01*
X148952048Y-105280216D01*
X148954365Y-105306692D01*
X148955762Y-105311907D01*
X148955764Y-105311916D01*
X149011858Y-105521263D01*
X149011861Y-105521271D01*
X149013261Y-105526496D01*
X149109432Y-105732734D01*
X149239953Y-105919139D01*
X149400861Y-106080047D01*
X149587266Y-106210568D01*
X149592172Y-106212855D01*
X149592176Y-106212858D01*
X149645274Y-106237618D01*
X149697450Y-106283375D01*
X149716869Y-106350000D01*
X149697450Y-106416625D01*
X149645274Y-106462382D01*
X149592176Y-106487141D01*
X149592163Y-106487148D01*
X149587266Y-106489432D01*
X149582833Y-106492535D01*
X149582826Y-106492540D01*
X149405296Y-106616847D01*
X149405291Y-106616850D01*
X149400861Y-106619953D01*
X149397037Y-106623776D01*
X149397031Y-106623782D01*
X149243782Y-106777031D01*
X149243776Y-106777037D01*
X149239953Y-106780861D01*
X149236850Y-106785291D01*
X149236847Y-106785296D01*
X149112540Y-106962826D01*
X149112535Y-106962833D01*
X149109432Y-106967266D01*
X149107144Y-106972172D01*
X149107142Y-106972176D01*
X149015550Y-107168594D01*
X149015547Y-107168599D01*
X149013261Y-107173504D01*
X149011862Y-107178724D01*
X149011858Y-107178736D01*
X148955764Y-107388083D01*
X148955762Y-107388094D01*
X148954365Y-107393308D01*
X148953893Y-107398693D01*
X148953893Y-107398698D01*
X148949857Y-107444832D01*
X148934532Y-107620000D01*
X148954365Y-107846692D01*
X148955762Y-107851907D01*
X148955764Y-107851916D01*
X149011858Y-108061263D01*
X149011861Y-108061271D01*
X149013261Y-108066496D01*
X149109432Y-108272734D01*
X149239953Y-108459139D01*
X149400861Y-108620047D01*
X149587266Y-108750568D01*
X149645276Y-108777618D01*
X149697449Y-108823373D01*
X149716869Y-108889997D01*
X149697451Y-108956622D01*
X149645276Y-109002380D01*
X149592178Y-109027141D01*
X149592173Y-109027143D01*
X149587266Y-109029432D01*
X149582833Y-109032535D01*
X149582826Y-109032540D01*
X149405296Y-109156847D01*
X149405291Y-109156850D01*
X149400861Y-109159953D01*
X149397037Y-109163776D01*
X149397031Y-109163782D01*
X149243782Y-109317031D01*
X149243776Y-109317037D01*
X149239953Y-109320861D01*
X149236850Y-109325291D01*
X149236847Y-109325296D01*
X149112540Y-109502826D01*
X149112535Y-109502833D01*
X149109432Y-109507266D01*
X149107144Y-109512172D01*
X149107142Y-109512176D01*
X149015550Y-109708594D01*
X149015547Y-109708599D01*
X149013261Y-109713504D01*
X149011862Y-109718724D01*
X149011858Y-109718736D01*
X148955764Y-109928083D01*
X148955762Y-109928094D01*
X148954365Y-109933308D01*
X148953893Y-109938693D01*
X148953893Y-109938698D01*
X148935004Y-110154605D01*
X148934532Y-110160000D01*
X148954365Y-110386692D01*
X148955762Y-110391907D01*
X148955764Y-110391916D01*
X149011858Y-110601263D01*
X149011861Y-110601271D01*
X149013261Y-110606496D01*
X149109432Y-110812734D01*
X149239953Y-110999139D01*
X149400861Y-111160047D01*
X149587266Y-111290568D01*
X149592172Y-111292855D01*
X149592176Y-111292858D01*
X149645274Y-111317618D01*
X149697450Y-111363375D01*
X149716869Y-111430000D01*
X149697450Y-111496625D01*
X149645274Y-111542382D01*
X149592176Y-111567141D01*
X149592163Y-111567148D01*
X149587266Y-111569432D01*
X149582833Y-111572535D01*
X149582826Y-111572540D01*
X149405296Y-111696847D01*
X149405291Y-111696850D01*
X149400861Y-111699953D01*
X149397037Y-111703776D01*
X149397031Y-111703782D01*
X149243782Y-111857031D01*
X149243776Y-111857037D01*
X149239953Y-111860861D01*
X149236850Y-111865291D01*
X149236847Y-111865296D01*
X149112540Y-112042826D01*
X149112535Y-112042833D01*
X149109432Y-112047266D01*
X149107144Y-112052172D01*
X149107142Y-112052176D01*
X149015550Y-112248594D01*
X149015547Y-112248599D01*
X149013261Y-112253504D01*
X149011862Y-112258724D01*
X149011858Y-112258736D01*
X148955764Y-112468083D01*
X148955762Y-112468094D01*
X148954365Y-112473308D01*
X148934532Y-112700000D01*
X148935004Y-112705395D01*
X148949710Y-112873491D01*
X148954365Y-112926692D01*
X148955762Y-112931907D01*
X148955764Y-112931916D01*
X149011858Y-113141263D01*
X149011861Y-113141271D01*
X149013261Y-113146496D01*
X149109432Y-113352734D01*
X149239953Y-113539139D01*
X149400861Y-113700047D01*
X149587266Y-113830568D01*
X149592172Y-113832855D01*
X149592176Y-113832858D01*
X149645274Y-113857618D01*
X149697450Y-113903375D01*
X149716869Y-113970000D01*
X149697450Y-114036625D01*
X149645274Y-114082382D01*
X149592176Y-114107141D01*
X149592163Y-114107148D01*
X149587266Y-114109432D01*
X149582833Y-114112535D01*
X149582826Y-114112540D01*
X149405296Y-114236847D01*
X149405291Y-114236850D01*
X149400861Y-114239953D01*
X149397037Y-114243776D01*
X149397031Y-114243782D01*
X149243782Y-114397031D01*
X149243776Y-114397037D01*
X149239953Y-114400861D01*
X149236850Y-114405291D01*
X149236847Y-114405296D01*
X149112540Y-114582826D01*
X149112535Y-114582833D01*
X149109432Y-114587266D01*
X149107144Y-114592172D01*
X149107142Y-114592176D01*
X149015550Y-114788594D01*
X149015547Y-114788599D01*
X149013261Y-114793504D01*
X149011862Y-114798724D01*
X149011858Y-114798736D01*
X148955764Y-115008083D01*
X148955762Y-115008094D01*
X148954365Y-115013308D01*
X148934532Y-115240000D01*
X148935004Y-115245395D01*
X148935004Y-115245397D01*
X148938390Y-115284104D01*
X148929004Y-115343362D01*
X148892897Y-115391277D01*
X148838522Y-115416632D01*
X148778608Y-115413492D01*
X148727181Y-115382591D01*
X145396766Y-112052176D01*
X141992286Y-108647695D01*
X141984842Y-108639514D01*
X141980786Y-108633123D01*
X141931775Y-108587098D01*
X141928978Y-108584387D01*
X141912227Y-108567636D01*
X141912226Y-108567635D01*
X141909471Y-108564880D01*
X141906290Y-108562412D01*
X141897414Y-108554830D01*
X141871269Y-108530278D01*
X141871267Y-108530276D01*
X141865582Y-108524938D01*
X141858749Y-108521182D01*
X141858743Y-108521177D01*
X141848025Y-108515285D01*
X141831766Y-108504606D01*
X141822095Y-108497104D01*
X141822092Y-108497102D01*
X141815936Y-108492327D01*
X141808779Y-108489229D01*
X141808776Y-108489228D01*
X141775849Y-108474978D01*
X141765363Y-108469841D01*
X141733932Y-108452562D01*
X141733923Y-108452558D01*
X141727092Y-108448803D01*
X141719535Y-108446862D01*
X141719531Y-108446861D01*
X141707688Y-108443820D01*
X141689284Y-108437519D01*
X141678057Y-108432660D01*
X141678050Y-108432658D01*
X141670896Y-108429562D01*
X141663192Y-108428341D01*
X141663190Y-108428341D01*
X141627759Y-108422729D01*
X141616324Y-108420361D01*
X141581571Y-108411438D01*
X141581563Y-108411437D01*
X141574019Y-108409500D01*
X141566223Y-108409500D01*
X141553983Y-108409500D01*
X141534597Y-108407974D01*
X141514804Y-108404840D01*
X141507038Y-108405574D01*
X141507035Y-108405574D01*
X141471324Y-108408950D01*
X141459655Y-108409500D01*
X136260883Y-108409500D01*
X136201240Y-108394214D01*
X136156302Y-108352125D01*
X136137148Y-108293610D01*
X136148501Y-108233095D01*
X136223977Y-108071234D01*
X136227669Y-108061092D01*
X136275179Y-107883780D01*
X136275547Y-107872551D01*
X136264605Y-107870000D01*
X133735395Y-107870000D01*
X133724452Y-107872551D01*
X133724820Y-107883782D01*
X133741226Y-107945011D01*
X133741226Y-108009198D01*
X133709132Y-108064785D01*
X133653544Y-108096878D01*
X133589357Y-108096878D01*
X133533770Y-108064784D01*
X133352768Y-107883782D01*
X132913819Y-107444832D01*
X132886939Y-107404604D01*
X132877500Y-107357151D01*
X132877500Y-105080000D01*
X133694532Y-105080000D01*
X133695004Y-105085395D01*
X133712048Y-105280216D01*
X133714365Y-105306692D01*
X133715762Y-105311907D01*
X133715764Y-105311916D01*
X133771858Y-105521263D01*
X133771861Y-105521271D01*
X133773261Y-105526496D01*
X133869432Y-105732734D01*
X133999953Y-105919139D01*
X134160861Y-106080047D01*
X134347266Y-106210568D01*
X134352175Y-106212857D01*
X134352180Y-106212860D01*
X134405864Y-106237893D01*
X134458040Y-106283649D01*
X134477460Y-106350274D01*
X134458041Y-106416899D01*
X134405866Y-106462657D01*
X134352416Y-106487581D01*
X134343087Y-106492967D01*
X134165618Y-106617232D01*
X134157352Y-106624169D01*
X134004169Y-106777352D01*
X133997232Y-106785618D01*
X133872967Y-106963087D01*
X133867579Y-106972419D01*
X133776022Y-107168765D01*
X133772330Y-107178907D01*
X133724820Y-107356219D01*
X133724452Y-107367448D01*
X133735395Y-107370000D01*
X136264605Y-107370000D01*
X136275547Y-107367448D01*
X136275179Y-107356219D01*
X136227669Y-107178907D01*
X136223977Y-107168765D01*
X136132420Y-106972419D01*
X136127032Y-106963087D01*
X136002767Y-106785618D01*
X135995830Y-106777352D01*
X135842647Y-106624169D01*
X135834381Y-106617232D01*
X135656912Y-106492967D01*
X135647579Y-106487579D01*
X135594134Y-106462657D01*
X135541958Y-106416899D01*
X135522539Y-106350274D01*
X135541959Y-106283649D01*
X135594131Y-106237894D01*
X135652734Y-106210568D01*
X135839139Y-106080047D01*
X136000047Y-105919139D01*
X136130568Y-105732734D01*
X136226739Y-105526496D01*
X136285635Y-105306692D01*
X136305468Y-105080000D01*
X136285635Y-104853308D01*
X136254586Y-104737432D01*
X136228141Y-104638736D01*
X136228140Y-104638734D01*
X136226739Y-104633504D01*
X136130568Y-104427266D01*
X136000047Y-104240861D01*
X135839139Y-104079953D01*
X135749878Y-104017452D01*
X135657173Y-103952540D01*
X135657171Y-103952539D01*
X135652734Y-103949432D01*
X135594724Y-103922381D01*
X135542549Y-103876625D01*
X135523130Y-103810000D01*
X135542549Y-103743375D01*
X135594725Y-103697618D01*
X135595319Y-103697341D01*
X135652734Y-103670568D01*
X135839139Y-103540047D01*
X136000047Y-103379139D01*
X136130568Y-103192734D01*
X136226739Y-102986496D01*
X136285635Y-102766692D01*
X136305468Y-102540000D01*
X136285635Y-102313308D01*
X136258296Y-102211278D01*
X136228141Y-102098736D01*
X136228140Y-102098734D01*
X136226739Y-102093504D01*
X136130568Y-101887266D01*
X136000047Y-101700861D01*
X135839139Y-101539953D01*
X135814535Y-101522725D01*
X135775398Y-101477883D01*
X135761665Y-101419969D01*
X135776499Y-101362328D01*
X135816485Y-101318239D01*
X135872406Y-101297861D01*
X135907483Y-101294091D01*
X136042331Y-101243796D01*
X136157546Y-101157546D01*
X136243796Y-101042331D01*
X136294091Y-100907483D01*
X136300500Y-100847873D01*
X136300499Y-100000000D01*
X148934532Y-100000000D01*
X148935004Y-100005395D01*
X148948398Y-100158495D01*
X148954365Y-100226692D01*
X148955762Y-100231907D01*
X148955764Y-100231916D01*
X149011858Y-100441263D01*
X149011861Y-100441271D01*
X149013261Y-100446496D01*
X149015549Y-100451403D01*
X149015550Y-100451405D01*
X149037681Y-100498865D01*
X149109432Y-100652734D01*
X149112539Y-100657171D01*
X149112540Y-100657173D01*
X149196600Y-100777224D01*
X149239953Y-100839139D01*
X149400861Y-101000047D01*
X149587266Y-101130568D01*
X149592175Y-101132857D01*
X149592180Y-101132860D01*
X149645864Y-101157893D01*
X149698040Y-101203649D01*
X149717460Y-101270274D01*
X149698041Y-101336899D01*
X149645866Y-101382657D01*
X149592416Y-101407581D01*
X149583087Y-101412967D01*
X149405618Y-101537232D01*
X149397352Y-101544169D01*
X149244169Y-101697352D01*
X149237232Y-101705618D01*
X149112967Y-101883087D01*
X149107579Y-101892419D01*
X149016022Y-102088765D01*
X149012330Y-102098907D01*
X148964820Y-102276219D01*
X148964452Y-102287448D01*
X148975395Y-102290000D01*
X151504605Y-102290000D01*
X151515547Y-102287448D01*
X151515179Y-102276219D01*
X151467669Y-102098907D01*
X151463977Y-102088765D01*
X151372420Y-101892419D01*
X151367032Y-101883087D01*
X151242767Y-101705618D01*
X151235830Y-101697352D01*
X151082647Y-101544169D01*
X151074381Y-101537232D01*
X150896912Y-101412967D01*
X150887579Y-101407579D01*
X150834134Y-101382657D01*
X150781958Y-101336899D01*
X150762539Y-101270274D01*
X150781959Y-101203649D01*
X150834131Y-101157894D01*
X150892734Y-101130568D01*
X151079139Y-101000047D01*
X151240047Y-100839139D01*
X151370568Y-100652734D01*
X151466739Y-100446496D01*
X151525635Y-100226692D01*
X151545468Y-100000000D01*
X151525635Y-99773308D01*
X151466739Y-99553504D01*
X151370568Y-99347266D01*
X151240047Y-99160861D01*
X151079139Y-98999953D01*
X150892734Y-98869432D01*
X150686496Y-98773261D01*
X150681271Y-98771861D01*
X150681263Y-98771858D01*
X150471916Y-98715764D01*
X150471907Y-98715762D01*
X150466692Y-98714365D01*
X150461304Y-98713893D01*
X150461301Y-98713893D01*
X150245395Y-98695004D01*
X150240000Y-98694532D01*
X150234605Y-98695004D01*
X150018698Y-98713893D01*
X150018693Y-98713893D01*
X150013308Y-98714365D01*
X150008094Y-98715762D01*
X150008083Y-98715764D01*
X149798736Y-98771858D01*
X149798724Y-98771862D01*
X149793504Y-98773261D01*
X149788599Y-98775547D01*
X149788594Y-98775550D01*
X149592176Y-98867142D01*
X149592172Y-98867144D01*
X149587266Y-98869432D01*
X149582833Y-98872535D01*
X149582826Y-98872540D01*
X149405296Y-98996847D01*
X149405291Y-98996850D01*
X149400861Y-98999953D01*
X149397037Y-99003776D01*
X149397031Y-99003782D01*
X149243782Y-99157031D01*
X149243776Y-99157037D01*
X149239953Y-99160861D01*
X149236850Y-99165291D01*
X149236847Y-99165296D01*
X149112540Y-99342826D01*
X149112535Y-99342833D01*
X149109432Y-99347266D01*
X149107144Y-99352172D01*
X149107142Y-99352176D01*
X149015550Y-99548594D01*
X149015547Y-99548599D01*
X149013261Y-99553504D01*
X149011862Y-99558724D01*
X149011858Y-99558736D01*
X148955764Y-99768083D01*
X148955762Y-99768094D01*
X148954365Y-99773308D01*
X148953893Y-99778693D01*
X148953893Y-99778698D01*
X148951832Y-99802259D01*
X148934532Y-100000000D01*
X136300499Y-100000000D01*
X136300499Y-99152128D01*
X136294091Y-99092517D01*
X136243796Y-98957669D01*
X136157546Y-98842454D01*
X136042331Y-98756204D01*
X135930155Y-98714365D01*
X135914752Y-98708620D01*
X135914750Y-98708619D01*
X135907483Y-98705909D01*
X135899770Y-98705079D01*
X135899767Y-98705079D01*
X135851180Y-98699855D01*
X135851169Y-98699854D01*
X135847873Y-98699500D01*
X135844550Y-98699500D01*
X134155439Y-98699500D01*
X134155420Y-98699500D01*
X134152128Y-98699501D01*
X134148850Y-98699853D01*
X134148838Y-98699854D01*
X134100231Y-98705079D01*
X134100225Y-98705080D01*
X134092517Y-98705909D01*
X134085252Y-98708618D01*
X134085246Y-98708620D01*
X133965980Y-98753104D01*
X133965978Y-98753104D01*
X133957669Y-98756204D01*
X133950572Y-98761516D01*
X133950568Y-98761519D01*
X133849550Y-98837141D01*
X133849546Y-98837144D01*
X133842454Y-98842454D01*
X133837144Y-98849546D01*
X133837141Y-98849550D01*
X133761519Y-98950568D01*
X133761516Y-98950572D01*
X133756204Y-98957669D01*
X133753104Y-98965978D01*
X133753104Y-98965980D01*
X133708620Y-99085247D01*
X133708619Y-99085250D01*
X133705909Y-99092517D01*
X133705079Y-99100227D01*
X133705079Y-99100232D01*
X133699855Y-99148819D01*
X133699854Y-99148831D01*
X133699500Y-99152127D01*
X133699500Y-99155448D01*
X133699500Y-99155449D01*
X133699500Y-100844560D01*
X133699500Y-100844578D01*
X133699501Y-100847872D01*
X133699853Y-100851150D01*
X133699854Y-100851161D01*
X133705079Y-100899768D01*
X133705080Y-100899773D01*
X133705909Y-100907483D01*
X133708619Y-100914749D01*
X133708620Y-100914753D01*
X133732203Y-100977982D01*
X133756204Y-101042331D01*
X133761518Y-101049430D01*
X133761519Y-101049431D01*
X133823969Y-101132854D01*
X133842454Y-101157546D01*
X133957669Y-101243796D01*
X134092517Y-101294091D01*
X134127599Y-101297862D01*
X134183516Y-101318240D01*
X134223500Y-101362328D01*
X134238334Y-101419969D01*
X134224601Y-101477882D01*
X134185464Y-101522725D01*
X134160861Y-101539953D01*
X134157037Y-101543776D01*
X134157031Y-101543782D01*
X134003782Y-101697031D01*
X134003776Y-101697037D01*
X133999953Y-101700861D01*
X133996850Y-101705291D01*
X133996847Y-101705296D01*
X133872540Y-101882826D01*
X133872535Y-101882833D01*
X133869432Y-101887266D01*
X133867144Y-101892172D01*
X133867142Y-101892176D01*
X133775550Y-102088594D01*
X133775547Y-102088599D01*
X133773261Y-102093504D01*
X133771862Y-102098724D01*
X133771858Y-102098736D01*
X133715764Y-102308083D01*
X133715762Y-102308094D01*
X133714365Y-102313308D01*
X133713893Y-102318693D01*
X133713893Y-102318698D01*
X133698604Y-102493453D01*
X133694532Y-102540000D01*
X133695004Y-102545395D01*
X133708029Y-102694278D01*
X133714365Y-102766692D01*
X133715762Y-102771907D01*
X133715764Y-102771916D01*
X133771858Y-102981263D01*
X133771861Y-102981271D01*
X133773261Y-102986496D01*
X133775549Y-102991403D01*
X133775550Y-102991405D01*
X133779608Y-103000108D01*
X133869432Y-103192734D01*
X133872539Y-103197171D01*
X133872540Y-103197173D01*
X133926967Y-103274903D01*
X133999953Y-103379139D01*
X134160861Y-103540047D01*
X134347266Y-103670568D01*
X134352172Y-103672855D01*
X134352176Y-103672858D01*
X134405274Y-103697618D01*
X134457450Y-103743375D01*
X134476869Y-103810000D01*
X134457450Y-103876625D01*
X134405274Y-103922382D01*
X134352176Y-103947141D01*
X134352163Y-103947148D01*
X134347266Y-103949432D01*
X134342833Y-103952535D01*
X134342826Y-103952540D01*
X134165296Y-104076847D01*
X134165291Y-104076850D01*
X134160861Y-104079953D01*
X134157037Y-104083776D01*
X134157031Y-104083782D01*
X134003782Y-104237031D01*
X134003776Y-104237037D01*
X133999953Y-104240861D01*
X133996850Y-104245291D01*
X133996847Y-104245296D01*
X133872540Y-104422826D01*
X133872535Y-104422833D01*
X133869432Y-104427266D01*
X133867144Y-104432172D01*
X133867142Y-104432176D01*
X133775550Y-104628594D01*
X133775547Y-104628599D01*
X133773261Y-104633504D01*
X133771862Y-104638724D01*
X133771858Y-104638736D01*
X133715764Y-104848083D01*
X133715762Y-104848094D01*
X133714365Y-104853308D01*
X133694532Y-105080000D01*
X132877500Y-105080000D01*
X132877500Y-92692578D01*
X134492901Y-92692578D01*
X134492902Y-92695872D01*
X134493254Y-92699150D01*
X134493255Y-92699161D01*
X134498480Y-92747768D01*
X134498481Y-92747773D01*
X134499310Y-92755483D01*
X134502020Y-92762749D01*
X134502021Y-92762753D01*
X134534666Y-92850278D01*
X134549605Y-92890331D01*
X134554919Y-92897430D01*
X134554920Y-92897431D01*
X134608922Y-92969569D01*
X134635855Y-93005546D01*
X134751070Y-93091796D01*
X134885918Y-93142091D01*
X134945528Y-93148500D01*
X136241273Y-93148499D01*
X136300884Y-93142091D01*
X136435732Y-93091796D01*
X136485394Y-93054618D01*
X136542829Y-93031039D01*
X136604498Y-93038258D01*
X136785734Y-93108469D01*
X136796719Y-93111594D01*
X136985841Y-93146947D01*
X136997200Y-93148000D01*
X137189602Y-93148000D01*
X137200960Y-93146947D01*
X137390082Y-93111594D01*
X137401067Y-93108469D01*
X137580472Y-93038968D01*
X137590685Y-93033882D01*
X137662165Y-92989623D01*
X137670102Y-92981778D01*
X137664172Y-92972324D01*
X137384426Y-92692578D01*
X139811500Y-92692578D01*
X139811501Y-92695872D01*
X139811853Y-92699150D01*
X139811854Y-92699161D01*
X139817079Y-92747768D01*
X139817080Y-92747773D01*
X139817909Y-92755483D01*
X139820619Y-92762749D01*
X139820620Y-92762753D01*
X139853265Y-92850278D01*
X139868204Y-92890331D01*
X139873518Y-92897430D01*
X139873519Y-92897431D01*
X139927521Y-92969569D01*
X139954454Y-93005546D01*
X140069669Y-93091796D01*
X140204517Y-93142091D01*
X140264127Y-93148500D01*
X141559872Y-93148499D01*
X141619483Y-93142091D01*
X141754331Y-93091796D01*
X141803993Y-93054618D01*
X141861428Y-93031039D01*
X141923097Y-93038258D01*
X142104333Y-93108469D01*
X142115318Y-93111594D01*
X142304440Y-93146947D01*
X142315799Y-93148000D01*
X142508201Y-93148000D01*
X142519559Y-93146947D01*
X142708681Y-93111594D01*
X142719666Y-93108469D01*
X142899071Y-93038968D01*
X142909284Y-93033882D01*
X142980764Y-92989623D01*
X142988701Y-92981778D01*
X142982771Y-92972324D01*
X142146128Y-92135681D01*
X142114034Y-92080094D01*
X142114034Y-92048000D01*
X142770431Y-92048000D01*
X142777095Y-92059542D01*
X143336890Y-92619337D01*
X143349054Y-92625990D01*
X143355350Y-92621312D01*
X143439554Y-92452208D01*
X143443685Y-92441545D01*
X143496333Y-92256504D01*
X143498431Y-92245282D01*
X143516184Y-92053709D01*
X143516184Y-92042291D01*
X143498431Y-91850717D01*
X143496333Y-91839495D01*
X143443685Y-91654454D01*
X143439554Y-91643791D01*
X143355352Y-91474690D01*
X143349054Y-91470009D01*
X143336889Y-91476662D01*
X142777096Y-92036456D01*
X142770431Y-92048000D01*
X142114034Y-92048000D01*
X142114034Y-92015906D01*
X142146128Y-91960319D01*
X142412000Y-91694447D01*
X142982770Y-91123675D01*
X142988700Y-91114220D01*
X142980763Y-91106374D01*
X142909287Y-91062119D01*
X142899070Y-91057031D01*
X142719666Y-90987530D01*
X142708681Y-90984405D01*
X142519559Y-90949052D01*
X142508201Y-90948000D01*
X142315799Y-90948000D01*
X142304440Y-90949052D01*
X142115318Y-90984405D01*
X142104329Y-90987531D01*
X141923096Y-91057740D01*
X141861429Y-91064959D01*
X141803992Y-91041380D01*
X141761431Y-91009519D01*
X141761430Y-91009518D01*
X141754331Y-91004204D01*
X141619483Y-90953909D01*
X141611770Y-90953079D01*
X141611767Y-90953079D01*
X141563180Y-90947855D01*
X141563169Y-90947854D01*
X141559873Y-90947500D01*
X141556550Y-90947500D01*
X140267439Y-90947500D01*
X140267420Y-90947500D01*
X140264128Y-90947501D01*
X140260850Y-90947853D01*
X140260838Y-90947854D01*
X140212231Y-90953079D01*
X140212225Y-90953080D01*
X140204517Y-90953909D01*
X140197252Y-90956618D01*
X140197246Y-90956620D01*
X140077980Y-91001104D01*
X140077978Y-91001104D01*
X140069669Y-91004204D01*
X140062572Y-91009516D01*
X140062568Y-91009519D01*
X139961550Y-91085141D01*
X139961546Y-91085144D01*
X139954454Y-91090454D01*
X139949144Y-91097546D01*
X139949141Y-91097550D01*
X139873519Y-91198568D01*
X139873516Y-91198572D01*
X139868204Y-91205669D01*
X139865104Y-91213978D01*
X139865104Y-91213980D01*
X139820620Y-91333247D01*
X139820619Y-91333250D01*
X139817909Y-91340517D01*
X139817079Y-91348227D01*
X139817079Y-91348232D01*
X139811855Y-91396819D01*
X139811854Y-91396831D01*
X139811500Y-91400127D01*
X139811500Y-91403448D01*
X139811500Y-91403449D01*
X139811500Y-92692560D01*
X139811500Y-92692578D01*
X137384426Y-92692578D01*
X136827529Y-92135681D01*
X136795435Y-92080094D01*
X136795435Y-92048000D01*
X137451832Y-92048000D01*
X137458496Y-92059542D01*
X138018291Y-92619337D01*
X138030455Y-92625990D01*
X138036751Y-92621312D01*
X138120955Y-92452208D01*
X138125086Y-92441545D01*
X138177734Y-92256504D01*
X138179832Y-92245282D01*
X138197585Y-92053709D01*
X138197585Y-92042291D01*
X138179832Y-91850717D01*
X138177734Y-91839495D01*
X138125086Y-91654454D01*
X138120955Y-91643791D01*
X138036753Y-91474690D01*
X138030455Y-91470009D01*
X138018290Y-91476662D01*
X137458497Y-92036456D01*
X137451832Y-92048000D01*
X136795435Y-92048000D01*
X136795435Y-92015906D01*
X136827529Y-91960319D01*
X137093401Y-91694447D01*
X137664171Y-91123675D01*
X137670101Y-91114220D01*
X137662164Y-91106374D01*
X137590688Y-91062119D01*
X137580471Y-91057031D01*
X137401067Y-90987530D01*
X137390082Y-90984405D01*
X137200960Y-90949052D01*
X137189602Y-90948000D01*
X136997200Y-90948000D01*
X136985841Y-90949052D01*
X136796719Y-90984405D01*
X136785730Y-90987531D01*
X136604497Y-91057740D01*
X136542830Y-91064959D01*
X136485393Y-91041380D01*
X136442832Y-91009519D01*
X136442831Y-91009518D01*
X136435732Y-91004204D01*
X136300884Y-90953909D01*
X136293171Y-90953079D01*
X136293168Y-90953079D01*
X136244581Y-90947855D01*
X136244570Y-90947854D01*
X136241274Y-90947500D01*
X136237951Y-90947500D01*
X134948840Y-90947500D01*
X134948821Y-90947500D01*
X134945529Y-90947501D01*
X134942251Y-90947853D01*
X134942239Y-90947854D01*
X134893632Y-90953079D01*
X134893626Y-90953080D01*
X134885918Y-90953909D01*
X134878653Y-90956618D01*
X134878647Y-90956620D01*
X134759381Y-91001104D01*
X134759379Y-91001104D01*
X134751070Y-91004204D01*
X134743973Y-91009516D01*
X134743969Y-91009519D01*
X134642951Y-91085141D01*
X134642947Y-91085144D01*
X134635855Y-91090454D01*
X134630545Y-91097546D01*
X134630542Y-91097550D01*
X134554920Y-91198568D01*
X134554917Y-91198572D01*
X134549605Y-91205669D01*
X134546505Y-91213978D01*
X134546505Y-91213980D01*
X134502021Y-91333247D01*
X134502020Y-91333250D01*
X134499310Y-91340517D01*
X134498480Y-91348227D01*
X134498480Y-91348232D01*
X134493256Y-91396819D01*
X134493255Y-91396831D01*
X134492901Y-91400127D01*
X134492901Y-91403448D01*
X134492901Y-91403449D01*
X134492901Y-92692560D01*
X134492901Y-92692578D01*
X132877500Y-92692578D01*
X132877500Y-89149771D01*
X132878020Y-89138718D01*
X132879672Y-89131332D01*
X132877561Y-89064144D01*
X132877500Y-89060250D01*
X132877500Y-89036545D01*
X132877500Y-89032650D01*
X132876998Y-89028681D01*
X132876080Y-89017024D01*
X132874954Y-88981172D01*
X132874709Y-88973372D01*
X132869120Y-88954139D01*
X132865174Y-88935082D01*
X132863641Y-88922946D01*
X132862664Y-88915208D01*
X132846581Y-88874587D01*
X132842799Y-88863540D01*
X132832793Y-88829101D01*
X132830617Y-88821610D01*
X132822962Y-88808666D01*
X132820422Y-88804370D01*
X132811860Y-88786892D01*
X132807360Y-88775527D01*
X132807359Y-88775526D01*
X132804486Y-88768268D01*
X132778812Y-88732931D01*
X132772409Y-88723184D01*
X132750170Y-88685579D01*
X132736005Y-88671414D01*
X132723368Y-88656618D01*
X132716184Y-88646729D01*
X132716178Y-88646723D01*
X132711594Y-88640413D01*
X132677946Y-88612577D01*
X132669305Y-88604714D01*
X130940237Y-86875646D01*
X130908143Y-86820058D01*
X130908143Y-86755876D01*
X130935063Y-86655408D01*
X130955659Y-86420000D01*
X130935063Y-86184592D01*
X130873903Y-85956337D01*
X130774035Y-85742171D01*
X130638495Y-85548599D01*
X130471401Y-85381505D01*
X130466968Y-85378401D01*
X130466961Y-85378395D01*
X130285842Y-85251575D01*
X130246976Y-85207257D01*
X130232965Y-85150000D01*
X130246976Y-85092743D01*
X130285842Y-85048425D01*
X130466961Y-84921604D01*
X130466961Y-84921603D01*
X130471401Y-84918495D01*
X130638495Y-84751401D01*
X130774035Y-84557830D01*
X130873903Y-84343663D01*
X130935063Y-84115408D01*
X130955659Y-83880000D01*
X130935063Y-83644592D01*
X130873903Y-83416337D01*
X130774035Y-83202171D01*
X130638495Y-83008599D01*
X130471401Y-82841505D01*
X130466970Y-82838402D01*
X130466966Y-82838399D01*
X130285841Y-82711574D01*
X130246976Y-82667256D01*
X130232965Y-82609999D01*
X130246976Y-82552742D01*
X130285839Y-82508426D01*
X130471401Y-82378495D01*
X130638495Y-82211401D01*
X130774035Y-82017830D01*
X130873903Y-81803663D01*
X130935063Y-81575408D01*
X130955659Y-81340000D01*
X130935063Y-81104592D01*
X130873903Y-80876337D01*
X130774035Y-80662171D01*
X130638495Y-80468599D01*
X130516181Y-80346285D01*
X130484885Y-80293539D01*
X130482696Y-80232246D01*
X130510149Y-80177401D01*
X130560529Y-80142422D01*
X130683777Y-80096452D01*
X130699189Y-80088037D01*
X130800092Y-80012501D01*
X130812501Y-80000092D01*
X130888037Y-79899189D01*
X130896452Y-79883777D01*
X130940888Y-79764641D01*
X130944426Y-79749667D01*
X130949646Y-79701114D01*
X130950000Y-79694518D01*
X130950000Y-79066326D01*
X130946549Y-79053450D01*
X130933674Y-79050000D01*
X128266326Y-79050000D01*
X128253450Y-79053450D01*
X128250000Y-79066326D01*
X128250000Y-79694518D01*
X128250353Y-79701114D01*
X128255573Y-79749667D01*
X128259111Y-79764641D01*
X128303547Y-79883777D01*
X128311962Y-79899189D01*
X128387498Y-80000092D01*
X128399907Y-80012501D01*
X128500810Y-80088037D01*
X128516220Y-80096451D01*
X128639471Y-80142422D01*
X128689850Y-80177401D01*
X128717303Y-80232246D01*
X128715114Y-80293538D01*
X128683819Y-80346284D01*
X128561505Y-80468599D01*
X128558402Y-80473029D01*
X128558399Y-80473034D01*
X128429073Y-80657731D01*
X128429068Y-80657738D01*
X128425965Y-80662171D01*
X128423677Y-80667077D01*
X128423675Y-80667081D01*
X128328386Y-80871427D01*
X128328383Y-80871432D01*
X128326097Y-80876337D01*
X128324698Y-80881557D01*
X128324694Y-80881569D01*
X128266337Y-81099365D01*
X128266335Y-81099371D01*
X128264937Y-81104592D01*
X128264465Y-81109977D01*
X128264465Y-81109982D01*
X128261139Y-81147998D01*
X128244341Y-81340000D01*
X128244813Y-81345395D01*
X128256905Y-81483612D01*
X128264937Y-81575408D01*
X128266336Y-81580630D01*
X128266337Y-81580634D01*
X128324694Y-81798430D01*
X128324697Y-81798438D01*
X128326097Y-81803663D01*
X128328385Y-81808570D01*
X128328386Y-81808572D01*
X128423678Y-82012927D01*
X128423681Y-82012933D01*
X128425965Y-82017830D01*
X128429064Y-82022257D01*
X128429066Y-82022259D01*
X128558399Y-82206966D01*
X128558402Y-82206970D01*
X128561505Y-82211401D01*
X128728599Y-82378495D01*
X128733032Y-82381599D01*
X128733038Y-82381604D01*
X128914158Y-82508425D01*
X128953024Y-82552743D01*
X128967035Y-82610000D01*
X128953024Y-82667257D01*
X128914160Y-82711574D01*
X128728599Y-82841505D01*
X128724775Y-82845328D01*
X128724769Y-82845334D01*
X128565334Y-83004769D01*
X128565328Y-83004775D01*
X128561505Y-83008599D01*
X128558402Y-83013029D01*
X128558399Y-83013034D01*
X128429073Y-83197731D01*
X128429068Y-83197738D01*
X128425965Y-83202171D01*
X128423677Y-83207077D01*
X128423675Y-83207081D01*
X128328386Y-83411427D01*
X128328383Y-83411432D01*
X128326097Y-83416337D01*
X128324698Y-83421557D01*
X128324694Y-83421569D01*
X128266337Y-83639365D01*
X128266335Y-83639371D01*
X128264937Y-83644592D01*
X128244341Y-83880000D01*
X128264937Y-84115408D01*
X128266336Y-84120630D01*
X128266337Y-84120634D01*
X128324694Y-84338430D01*
X128324697Y-84338438D01*
X128326097Y-84343663D01*
X128328385Y-84348570D01*
X128328386Y-84348572D01*
X128423678Y-84552927D01*
X128423681Y-84552933D01*
X128425965Y-84557830D01*
X128429064Y-84562257D01*
X128429066Y-84562259D01*
X128558399Y-84746966D01*
X128558402Y-84746970D01*
X128561505Y-84751401D01*
X128728599Y-84918495D01*
X128733032Y-84921599D01*
X128733038Y-84921604D01*
X128914158Y-85048425D01*
X128953024Y-85092743D01*
X128967035Y-85150000D01*
X128953024Y-85207257D01*
X128914159Y-85251575D01*
X128733041Y-85378395D01*
X128728599Y-85381505D01*
X128724775Y-85385328D01*
X128724769Y-85385334D01*
X128565334Y-85544769D01*
X128565328Y-85544775D01*
X128561505Y-85548599D01*
X128558402Y-85553029D01*
X128558399Y-85553034D01*
X128429073Y-85737731D01*
X128429068Y-85737738D01*
X128425965Y-85742171D01*
X128423677Y-85747077D01*
X128423675Y-85747081D01*
X128328386Y-85951427D01*
X128328383Y-85951432D01*
X128326097Y-85956337D01*
X128324698Y-85961557D01*
X128324694Y-85961569D01*
X128266337Y-86179365D01*
X128266335Y-86179371D01*
X128264937Y-86184592D01*
X128244341Y-86420000D01*
X128264937Y-86655408D01*
X128266336Y-86660630D01*
X128266337Y-86660634D01*
X128324694Y-86878430D01*
X128324697Y-86878438D01*
X128326097Y-86883663D01*
X128328385Y-86888570D01*
X128328386Y-86888572D01*
X128423678Y-87092927D01*
X128423681Y-87092933D01*
X128425965Y-87097830D01*
X128429064Y-87102257D01*
X128429066Y-87102259D01*
X128558399Y-87286966D01*
X128558402Y-87286970D01*
X128561505Y-87291401D01*
X128728599Y-87458495D01*
X128733031Y-87461598D01*
X128733033Y-87461600D01*
X128914595Y-87588731D01*
X128953460Y-87633049D01*
X128967471Y-87690306D01*
X128953460Y-87747563D01*
X128914595Y-87791881D01*
X128733352Y-87918788D01*
X128725092Y-87925719D01*
X128565719Y-88085092D01*
X128558784Y-88093357D01*
X128429508Y-88277982D01*
X128424110Y-88287332D01*
X128328856Y-88491602D01*
X128325168Y-88501736D01*
X128273056Y-88696219D01*
X128272688Y-88707448D01*
X128283631Y-88710000D01*
X130916369Y-88710000D01*
X130921459Y-88708813D01*
X130983667Y-88710339D01*
X131037301Y-88741892D01*
X131590181Y-89294772D01*
X131617061Y-89335000D01*
X131626500Y-89382453D01*
X131626500Y-92342548D01*
X131612985Y-92398843D01*
X131575385Y-92442866D01*
X131521898Y-92465021D01*
X131464182Y-92460479D01*
X131414819Y-92430229D01*
X130940237Y-91955647D01*
X130908143Y-91900059D01*
X130908143Y-91835872D01*
X130935063Y-91735408D01*
X130955659Y-91500000D01*
X130935063Y-91264592D01*
X130873903Y-91036337D01*
X130774035Y-90822171D01*
X130638495Y-90628599D01*
X130471401Y-90461505D01*
X130466970Y-90458402D01*
X130466966Y-90458399D01*
X130285405Y-90331269D01*
X130246540Y-90286951D01*
X130232529Y-90229694D01*
X130246540Y-90172437D01*
X130285406Y-90128119D01*
X130466638Y-90001219D01*
X130474909Y-89994278D01*
X130634278Y-89834909D01*
X130641215Y-89826643D01*
X130770498Y-89642008D01*
X130775886Y-89632676D01*
X130871143Y-89428397D01*
X130874831Y-89418263D01*
X130926943Y-89223780D01*
X130927311Y-89212551D01*
X130916369Y-89210000D01*
X128283631Y-89210000D01*
X128272688Y-89212551D01*
X128273056Y-89223780D01*
X128325168Y-89418263D01*
X128328856Y-89428397D01*
X128424113Y-89632676D01*
X128429501Y-89642008D01*
X128558784Y-89826643D01*
X128565721Y-89834909D01*
X128725090Y-89994278D01*
X128733356Y-90001215D01*
X128914595Y-90128120D01*
X128953460Y-90172438D01*
X128967471Y-90229695D01*
X128953460Y-90286952D01*
X128914594Y-90331270D01*
X128733034Y-90458399D01*
X128733029Y-90458402D01*
X128728599Y-90461505D01*
X128724775Y-90465328D01*
X128724769Y-90465334D01*
X128565334Y-90624769D01*
X128565328Y-90624775D01*
X128561505Y-90628599D01*
X128558402Y-90633029D01*
X128558399Y-90633034D01*
X128429073Y-90817731D01*
X128429068Y-90817738D01*
X128425965Y-90822171D01*
X128423677Y-90827077D01*
X128423675Y-90827081D01*
X128328386Y-91031427D01*
X128328383Y-91031432D01*
X128326097Y-91036337D01*
X128324698Y-91041557D01*
X128324694Y-91041569D01*
X128266337Y-91259365D01*
X128266335Y-91259371D01*
X128264937Y-91264592D01*
X128244341Y-91500000D01*
X128244813Y-91505395D01*
X128264465Y-91730017D01*
X128264465Y-91730020D01*
X128264937Y-91735408D01*
X128266336Y-91740630D01*
X128266337Y-91740634D01*
X128324694Y-91958430D01*
X128324697Y-91958438D01*
X128326097Y-91963663D01*
X128328385Y-91968570D01*
X128328386Y-91968572D01*
X128423678Y-92172927D01*
X128423681Y-92172933D01*
X128425965Y-92177830D01*
X128429064Y-92182257D01*
X128429066Y-92182259D01*
X128558399Y-92366966D01*
X128558402Y-92366970D01*
X128561505Y-92371401D01*
X128728599Y-92538495D01*
X128733032Y-92541599D01*
X128733038Y-92541604D01*
X128914158Y-92668425D01*
X128953024Y-92712743D01*
X128967035Y-92770000D01*
X128953024Y-92827257D01*
X128914159Y-92871575D01*
X128774209Y-92969569D01*
X128728599Y-93001505D01*
X128724775Y-93005328D01*
X128724769Y-93005334D01*
X128565334Y-93164769D01*
X128565328Y-93164775D01*
X128561505Y-93168599D01*
X128558402Y-93173029D01*
X128558399Y-93173034D01*
X128429073Y-93357731D01*
X128429068Y-93357738D01*
X128425965Y-93362171D01*
X128423677Y-93367077D01*
X128423675Y-93367081D01*
X128328386Y-93571427D01*
X128328383Y-93571432D01*
X128326097Y-93576337D01*
X128324698Y-93581557D01*
X128324694Y-93581569D01*
X128266337Y-93799365D01*
X128266335Y-93799371D01*
X128264937Y-93804592D01*
X128264465Y-93809977D01*
X128264465Y-93809982D01*
X128256319Y-93903091D01*
X128244341Y-94040000D01*
X128244813Y-94045395D01*
X128250100Y-94105830D01*
X128264937Y-94275408D01*
X128266336Y-94280630D01*
X128266337Y-94280634D01*
X128324694Y-94498430D01*
X128324697Y-94498438D01*
X128326097Y-94503663D01*
X128328385Y-94508570D01*
X128328386Y-94508572D01*
X128423678Y-94712927D01*
X128423681Y-94712933D01*
X128425965Y-94717830D01*
X128429064Y-94722257D01*
X128429066Y-94722259D01*
X128558399Y-94906966D01*
X128558402Y-94906970D01*
X128561505Y-94911401D01*
X128728599Y-95078495D01*
X128733032Y-95081599D01*
X128733038Y-95081604D01*
X128914158Y-95208425D01*
X128953024Y-95252743D01*
X128967035Y-95310000D01*
X128953024Y-95367257D01*
X128914158Y-95411575D01*
X128728599Y-95541505D01*
X128724775Y-95545328D01*
X128724769Y-95545334D01*
X128565334Y-95704769D01*
X128565328Y-95704775D01*
X128561505Y-95708599D01*
X128558402Y-95713029D01*
X128558399Y-95713034D01*
X128429073Y-95897731D01*
X128429068Y-95897738D01*
X128425965Y-95902171D01*
X128423677Y-95907077D01*
X128423675Y-95907081D01*
X128328386Y-96111427D01*
X128328383Y-96111432D01*
X128326097Y-96116337D01*
X128324698Y-96121557D01*
X128324694Y-96121569D01*
X128266337Y-96339365D01*
X128266335Y-96339371D01*
X128264937Y-96344592D01*
X128244341Y-96580000D01*
X128244813Y-96585395D01*
X128258455Y-96741327D01*
X128264937Y-96815408D01*
X128266336Y-96820630D01*
X128266337Y-96820634D01*
X128324694Y-97038430D01*
X128324697Y-97038438D01*
X128326097Y-97043663D01*
X128328385Y-97048570D01*
X128328386Y-97048572D01*
X128423678Y-97252927D01*
X128423681Y-97252933D01*
X128425965Y-97257830D01*
X128429064Y-97262257D01*
X128429066Y-97262259D01*
X128558399Y-97446966D01*
X128558402Y-97446970D01*
X128561505Y-97451401D01*
X128728599Y-97618495D01*
X128733032Y-97621599D01*
X128733038Y-97621604D01*
X128914158Y-97748425D01*
X128953024Y-97792743D01*
X128967035Y-97850000D01*
X128953024Y-97907257D01*
X128914158Y-97951575D01*
X128728599Y-98081505D01*
X128724775Y-98085328D01*
X128724769Y-98085334D01*
X128565334Y-98244769D01*
X128565328Y-98244775D01*
X128561505Y-98248599D01*
X128558402Y-98253029D01*
X128558399Y-98253034D01*
X128429073Y-98437731D01*
X128429068Y-98437738D01*
X128425965Y-98442171D01*
X128423677Y-98447077D01*
X128423675Y-98447081D01*
X128328386Y-98651427D01*
X128328383Y-98651432D01*
X128326097Y-98656337D01*
X128324698Y-98661557D01*
X128324694Y-98661569D01*
X128266337Y-98879365D01*
X128266335Y-98879371D01*
X128264937Y-98884592D01*
X128264465Y-98889977D01*
X128264465Y-98889982D01*
X128244813Y-99114605D01*
X128244341Y-99120000D01*
X124331664Y-99120000D01*
X124439446Y-78533674D01*
X128250000Y-78533674D01*
X128253450Y-78546549D01*
X128266326Y-78550000D01*
X129333674Y-78550000D01*
X129346549Y-78546549D01*
X129350000Y-78533674D01*
X129850000Y-78533674D01*
X129853450Y-78546549D01*
X129866326Y-78550000D01*
X130933674Y-78550000D01*
X130946549Y-78546549D01*
X130950000Y-78533674D01*
X130950000Y-78332000D01*
X168134357Y-78332000D01*
X168134886Y-78337709D01*
X168154237Y-78546549D01*
X168154885Y-78553536D01*
X168156454Y-78559050D01*
X168214201Y-78762013D01*
X168214204Y-78762021D01*
X168215771Y-78767528D01*
X168218323Y-78772653D01*
X168218325Y-78772658D01*
X168312387Y-78961559D01*
X168312389Y-78961563D01*
X168314942Y-78966689D01*
X168318391Y-78971256D01*
X168318394Y-78971261D01*
X168445561Y-79139658D01*
X168445566Y-79139663D01*
X168449019Y-79144236D01*
X168453255Y-79148097D01*
X168453259Y-79148102D01*
X168565603Y-79250517D01*
X168613438Y-79294124D01*
X168802599Y-79411247D01*
X169010060Y-79491618D01*
X169228757Y-79532500D01*
X169445514Y-79532500D01*
X169451243Y-79532500D01*
X169669940Y-79491618D01*
X169877401Y-79411247D01*
X170066562Y-79294124D01*
X170206462Y-79166587D01*
X170259755Y-79137970D01*
X170320245Y-79137970D01*
X170373537Y-79166587D01*
X170513438Y-79294124D01*
X170702599Y-79411247D01*
X170910060Y-79491618D01*
X171128757Y-79532500D01*
X171345514Y-79532500D01*
X171351243Y-79532500D01*
X171569940Y-79491618D01*
X171777401Y-79411247D01*
X171966562Y-79294124D01*
X172130981Y-79144236D01*
X172234788Y-79006772D01*
X172278470Y-78970500D01*
X172333742Y-78957500D01*
X173617278Y-78957500D01*
X173669196Y-78968892D01*
X173711575Y-79000976D01*
X173736627Y-79047856D01*
X173739318Y-79093620D01*
X173740502Y-79093714D01*
X173720489Y-79348000D01*
X173740502Y-79602286D01*
X173741637Y-79607015D01*
X173741638Y-79607019D01*
X173798909Y-79845574D01*
X173798911Y-79845582D01*
X173800047Y-79850311D01*
X173897659Y-80085967D01*
X174030934Y-80303451D01*
X174034098Y-80307156D01*
X174034102Y-80307161D01*
X174168712Y-80464769D01*
X174196590Y-80497410D01*
X174200297Y-80500576D01*
X174386838Y-80659897D01*
X174386841Y-80659899D01*
X174390549Y-80663066D01*
X174608033Y-80796341D01*
X174843689Y-80893953D01*
X175091714Y-80953498D01*
X175346000Y-80973511D01*
X175600286Y-80953498D01*
X175848311Y-80893953D01*
X176083967Y-80796341D01*
X176195083Y-80728248D01*
X176252789Y-80710179D01*
X176312184Y-80721553D01*
X176359135Y-80759666D01*
X176403137Y-80818445D01*
X176403141Y-80818449D01*
X176408454Y-80825546D01*
X176523669Y-80911796D01*
X176658517Y-80962091D01*
X176718127Y-80968500D01*
X179053872Y-80968499D01*
X179113483Y-80962091D01*
X179248331Y-80911796D01*
X179363546Y-80825546D01*
X179449796Y-80710331D01*
X179500091Y-80575483D01*
X179506500Y-80515873D01*
X179506500Y-80097500D01*
X179523113Y-80035500D01*
X179568500Y-79990113D01*
X179630500Y-79973500D01*
X182526949Y-79973500D01*
X182574402Y-79982939D01*
X182614630Y-80009819D01*
X184240582Y-81635772D01*
X184267462Y-81676000D01*
X184276901Y-81723453D01*
X184276901Y-82532560D01*
X184276901Y-82532578D01*
X184276902Y-82535872D01*
X184277254Y-82539150D01*
X184277255Y-82539161D01*
X184282480Y-82587768D01*
X184282481Y-82587773D01*
X184283310Y-82595483D01*
X184286020Y-82602749D01*
X184286021Y-82602753D01*
X184310080Y-82667257D01*
X184333605Y-82730331D01*
X184419855Y-82845546D01*
X184535070Y-82931796D01*
X184669918Y-82982091D01*
X184729528Y-82988500D01*
X186025273Y-82988499D01*
X186084884Y-82982091D01*
X186219732Y-82931796D01*
X186268922Y-82894971D01*
X186326357Y-82871392D01*
X186388023Y-82878610D01*
X186574945Y-82951024D01*
X186775425Y-82988500D01*
X186973648Y-82988500D01*
X186979377Y-82988500D01*
X187179857Y-82951024D01*
X187370038Y-82877348D01*
X187543442Y-82769981D01*
X187694165Y-82632579D01*
X187817074Y-82469821D01*
X187907983Y-82287250D01*
X187963798Y-82091083D01*
X187982616Y-81888000D01*
X187963798Y-81684917D01*
X187907983Y-81488750D01*
X187817074Y-81306179D01*
X187768577Y-81241959D01*
X187697622Y-81147998D01*
X187697618Y-81147994D01*
X187694165Y-81143421D01*
X187689928Y-81139558D01*
X187689924Y-81139554D01*
X187547676Y-81009879D01*
X187547677Y-81009879D01*
X187543442Y-81006019D01*
X187538572Y-81003004D01*
X187538570Y-81003002D01*
X187391266Y-80911796D01*
X187370038Y-80898652D01*
X187364695Y-80896582D01*
X187185204Y-80827047D01*
X187185199Y-80827045D01*
X187179857Y-80824976D01*
X187174219Y-80823922D01*
X186985006Y-80788552D01*
X186985003Y-80788551D01*
X186979377Y-80787500D01*
X186775425Y-80787500D01*
X186769799Y-80788551D01*
X186769795Y-80788552D01*
X186580582Y-80823922D01*
X186580579Y-80823922D01*
X186574945Y-80824976D01*
X186569606Y-80827044D01*
X186569593Y-80827048D01*
X186388026Y-80897387D01*
X186326359Y-80904607D01*
X186268923Y-80881027D01*
X186226836Y-80849521D01*
X186226830Y-80849518D01*
X186219732Y-80844204D01*
X186084884Y-80793909D01*
X186077171Y-80793079D01*
X186077168Y-80793079D01*
X186028581Y-80787855D01*
X186028570Y-80787854D01*
X186025274Y-80787500D01*
X186021952Y-80787500D01*
X185212854Y-80787500D01*
X185165401Y-80778061D01*
X185125173Y-80751181D01*
X183334687Y-78960695D01*
X183327243Y-78952514D01*
X183323187Y-78946123D01*
X183274176Y-78900098D01*
X183271379Y-78897387D01*
X183254628Y-78880636D01*
X183251872Y-78877880D01*
X183248691Y-78875412D01*
X183239815Y-78867830D01*
X183213670Y-78843278D01*
X183213668Y-78843276D01*
X183207983Y-78837938D01*
X183201150Y-78834182D01*
X183201144Y-78834177D01*
X183190426Y-78828285D01*
X183174167Y-78817606D01*
X183164496Y-78810104D01*
X183164493Y-78810102D01*
X183158337Y-78805327D01*
X183151180Y-78802229D01*
X183151177Y-78802228D01*
X183118250Y-78787978D01*
X183107764Y-78782841D01*
X183076333Y-78765562D01*
X183076324Y-78765558D01*
X183069493Y-78761803D01*
X183061936Y-78759862D01*
X183061932Y-78759861D01*
X183050089Y-78756820D01*
X183031685Y-78750519D01*
X183020458Y-78745660D01*
X183020451Y-78745658D01*
X183013297Y-78742562D01*
X183005593Y-78741341D01*
X183005591Y-78741341D01*
X182970160Y-78735729D01*
X182958725Y-78733361D01*
X182923972Y-78724438D01*
X182923964Y-78724437D01*
X182916420Y-78722500D01*
X182908624Y-78722500D01*
X182896384Y-78722500D01*
X182876998Y-78720974D01*
X182857205Y-78717840D01*
X182849439Y-78718574D01*
X182849436Y-78718574D01*
X182813725Y-78721950D01*
X182802056Y-78722500D01*
X179630499Y-78722500D01*
X179568499Y-78705887D01*
X179523112Y-78660500D01*
X179506499Y-78598500D01*
X179506499Y-78183439D01*
X179506499Y-78180128D01*
X179500091Y-78120517D01*
X179449796Y-77985669D01*
X179363546Y-77870454D01*
X179248331Y-77784204D01*
X179155451Y-77749562D01*
X179120752Y-77736620D01*
X179120750Y-77736619D01*
X179113483Y-77733909D01*
X179105770Y-77733079D01*
X179105767Y-77733079D01*
X179057180Y-77727855D01*
X179057169Y-77727854D01*
X179053873Y-77727500D01*
X179050550Y-77727500D01*
X176721439Y-77727500D01*
X176721420Y-77727500D01*
X176718128Y-77727501D01*
X176714850Y-77727853D01*
X176714838Y-77727854D01*
X176666231Y-77733079D01*
X176666225Y-77733080D01*
X176658517Y-77733909D01*
X176651252Y-77736618D01*
X176651246Y-77736620D01*
X176531980Y-77781104D01*
X176531978Y-77781104D01*
X176523669Y-77784204D01*
X176516572Y-77789516D01*
X176516568Y-77789519D01*
X176415550Y-77865141D01*
X176415546Y-77865144D01*
X176408454Y-77870454D01*
X176403144Y-77877546D01*
X176403140Y-77877551D01*
X176359135Y-77936334D01*
X176312183Y-77974446D01*
X176252789Y-77985820D01*
X176195079Y-77967749D01*
X176088125Y-77902207D01*
X176088124Y-77902206D01*
X176083967Y-77899659D01*
X175848311Y-77802047D01*
X175843582Y-77800911D01*
X175843574Y-77800909D01*
X175605019Y-77743638D01*
X175605015Y-77743637D01*
X175600286Y-77742502D01*
X175595433Y-77742120D01*
X175350854Y-77722871D01*
X175346000Y-77722489D01*
X175341146Y-77722871D01*
X175096566Y-77742120D01*
X175096564Y-77742120D01*
X175091714Y-77742502D01*
X175086986Y-77743636D01*
X175086980Y-77743638D01*
X174848422Y-77800910D01*
X174848413Y-77800912D01*
X174843689Y-77802047D01*
X174839199Y-77803906D01*
X174839195Y-77803908D01*
X174796449Y-77821614D01*
X174742180Y-77830864D01*
X174689255Y-77815711D01*
X174683022Y-77812284D01*
X174666766Y-77801606D01*
X174657095Y-77794104D01*
X174657092Y-77794102D01*
X174650936Y-77789327D01*
X174643779Y-77786229D01*
X174643776Y-77786228D01*
X174610849Y-77771978D01*
X174600363Y-77766841D01*
X174568932Y-77749562D01*
X174568923Y-77749558D01*
X174562092Y-77745803D01*
X174554535Y-77743862D01*
X174554531Y-77743861D01*
X174542688Y-77740820D01*
X174524284Y-77734519D01*
X174513057Y-77729660D01*
X174513050Y-77729658D01*
X174505896Y-77726562D01*
X174498192Y-77725341D01*
X174498190Y-77725341D01*
X174462759Y-77719729D01*
X174451324Y-77717361D01*
X174416571Y-77708438D01*
X174416563Y-77708437D01*
X174409019Y-77706500D01*
X174401223Y-77706500D01*
X174388983Y-77706500D01*
X174369597Y-77704974D01*
X174349804Y-77701840D01*
X174342038Y-77702574D01*
X174342035Y-77702574D01*
X174306324Y-77705950D01*
X174294655Y-77706500D01*
X172333742Y-77706500D01*
X172278470Y-77693500D01*
X172234788Y-77657227D01*
X172134438Y-77524341D01*
X172134434Y-77524337D01*
X172130981Y-77519764D01*
X172126744Y-77515901D01*
X172126740Y-77515897D01*
X171970796Y-77373736D01*
X171970797Y-77373736D01*
X171966562Y-77369876D01*
X171961692Y-77366861D01*
X171961690Y-77366859D01*
X171782275Y-77255771D01*
X171782276Y-77255771D01*
X171777401Y-77252753D01*
X171569940Y-77172382D01*
X171564302Y-77171328D01*
X171356872Y-77132552D01*
X171356869Y-77132551D01*
X171351243Y-77131500D01*
X171128757Y-77131500D01*
X171123131Y-77132551D01*
X171123127Y-77132552D01*
X170915697Y-77171328D01*
X170915694Y-77171328D01*
X170910060Y-77172382D01*
X170904717Y-77174451D01*
X170904713Y-77174453D01*
X170707941Y-77250683D01*
X170707936Y-77250685D01*
X170702599Y-77252753D01*
X170697727Y-77255769D01*
X170697724Y-77255771D01*
X170518309Y-77366859D01*
X170518301Y-77366864D01*
X170513438Y-77369876D01*
X170509207Y-77373732D01*
X170509203Y-77373736D01*
X170373538Y-77497411D01*
X170320245Y-77526029D01*
X170259755Y-77526029D01*
X170206462Y-77497411D01*
X170070796Y-77373736D01*
X170070797Y-77373736D01*
X170066562Y-77369876D01*
X170061692Y-77366861D01*
X170061690Y-77366859D01*
X169882275Y-77255771D01*
X169882276Y-77255771D01*
X169877401Y-77252753D01*
X169669940Y-77172382D01*
X169664302Y-77171328D01*
X169456872Y-77132552D01*
X169456869Y-77132551D01*
X169451243Y-77131500D01*
X169228757Y-77131500D01*
X169223131Y-77132551D01*
X169223127Y-77132552D01*
X169015697Y-77171328D01*
X169015694Y-77171328D01*
X169010060Y-77172382D01*
X169004717Y-77174451D01*
X169004713Y-77174453D01*
X168807941Y-77250683D01*
X168807936Y-77250685D01*
X168802599Y-77252753D01*
X168797727Y-77255769D01*
X168797724Y-77255771D01*
X168618309Y-77366859D01*
X168618301Y-77366864D01*
X168613438Y-77369876D01*
X168609207Y-77373732D01*
X168609203Y-77373736D01*
X168453259Y-77515897D01*
X168453249Y-77515907D01*
X168449019Y-77519764D01*
X168445570Y-77524330D01*
X168445561Y-77524341D01*
X168318394Y-77692738D01*
X168318387Y-77692748D01*
X168314942Y-77697311D01*
X168312392Y-77702431D01*
X168312387Y-77702440D01*
X168218325Y-77891341D01*
X168218321Y-77891349D01*
X168215771Y-77896472D01*
X168214205Y-77901975D01*
X168214201Y-77901986D01*
X168156454Y-78104949D01*
X168154885Y-78110464D01*
X168134357Y-78332000D01*
X130950000Y-78332000D01*
X130950000Y-77905482D01*
X130949646Y-77898885D01*
X130944426Y-77850332D01*
X130940888Y-77835358D01*
X130896452Y-77716222D01*
X130888037Y-77700810D01*
X130812501Y-77599907D01*
X130800092Y-77587498D01*
X130699189Y-77511962D01*
X130683777Y-77503547D01*
X130564641Y-77459111D01*
X130549667Y-77455573D01*
X130501114Y-77450353D01*
X130494518Y-77450000D01*
X129866326Y-77450000D01*
X129853450Y-77453450D01*
X129850000Y-77466326D01*
X129850000Y-78533674D01*
X129350000Y-78533674D01*
X129350000Y-77466326D01*
X129346549Y-77453450D01*
X129333674Y-77450000D01*
X128705482Y-77450000D01*
X128698885Y-77450353D01*
X128650332Y-77455573D01*
X128635358Y-77459111D01*
X128516222Y-77503547D01*
X128500810Y-77511962D01*
X128399907Y-77587498D01*
X128387498Y-77599907D01*
X128311962Y-77700810D01*
X128303547Y-77716222D01*
X128259111Y-77835358D01*
X128255573Y-77850332D01*
X128250353Y-77898885D01*
X128250000Y-77905482D01*
X128250000Y-78533674D01*
X124439446Y-78533674D01*
X124475078Y-71728000D01*
X168134357Y-71728000D01*
X168154885Y-71949536D01*
X168156454Y-71955050D01*
X168214201Y-72158013D01*
X168214204Y-72158021D01*
X168215771Y-72163528D01*
X168218323Y-72168653D01*
X168218325Y-72168658D01*
X168312387Y-72357559D01*
X168312389Y-72357563D01*
X168314942Y-72362689D01*
X168318391Y-72367256D01*
X168318394Y-72367261D01*
X168445561Y-72535658D01*
X168445566Y-72535663D01*
X168449019Y-72540236D01*
X168453255Y-72544097D01*
X168453259Y-72544102D01*
X168565603Y-72646517D01*
X168613438Y-72690124D01*
X168802599Y-72807247D01*
X169010060Y-72887618D01*
X169228757Y-72928500D01*
X169445514Y-72928500D01*
X169451243Y-72928500D01*
X169669940Y-72887618D01*
X169877401Y-72807247D01*
X170066562Y-72690124D01*
X170206462Y-72562587D01*
X170259755Y-72533970D01*
X170320245Y-72533970D01*
X170373537Y-72562587D01*
X170513438Y-72690124D01*
X170702599Y-72807247D01*
X170910060Y-72887618D01*
X171128757Y-72928500D01*
X171345514Y-72928500D01*
X171351243Y-72928500D01*
X171569940Y-72887618D01*
X171777401Y-72807247D01*
X171966562Y-72690124D01*
X172130981Y-72540236D01*
X172234788Y-72402772D01*
X172278470Y-72366500D01*
X172333742Y-72353500D01*
X173617278Y-72353500D01*
X173669196Y-72364892D01*
X173711575Y-72396976D01*
X173736627Y-72443856D01*
X173739318Y-72489620D01*
X173740502Y-72489714D01*
X173720489Y-72744000D01*
X173740502Y-72998286D01*
X173741637Y-73003015D01*
X173741638Y-73003019D01*
X173798909Y-73241574D01*
X173798911Y-73241582D01*
X173800047Y-73246311D01*
X173897659Y-73481967D01*
X174030934Y-73699451D01*
X174034098Y-73703156D01*
X174034102Y-73703161D01*
X174141314Y-73828690D01*
X174196590Y-73893410D01*
X174200297Y-73896576D01*
X174386838Y-74055897D01*
X174386841Y-74055899D01*
X174390549Y-74059066D01*
X174608033Y-74192341D01*
X174843689Y-74289953D01*
X175091714Y-74349498D01*
X175346000Y-74369511D01*
X175600286Y-74349498D01*
X175848311Y-74289953D01*
X176083967Y-74192341D01*
X176195083Y-74124248D01*
X176252789Y-74106179D01*
X176312184Y-74117553D01*
X176359135Y-74155666D01*
X176403137Y-74214445D01*
X176403141Y-74214449D01*
X176408454Y-74221546D01*
X176523669Y-74307796D01*
X176658517Y-74358091D01*
X176718127Y-74364500D01*
X179053872Y-74364499D01*
X179113483Y-74358091D01*
X179248331Y-74307796D01*
X179363546Y-74221546D01*
X179449796Y-74106331D01*
X179500091Y-73971483D01*
X179506500Y-73911873D01*
X179506500Y-73493500D01*
X179523113Y-73431500D01*
X179568500Y-73386113D01*
X179630500Y-73369500D01*
X184152902Y-73369500D01*
X184214902Y-73386113D01*
X184260289Y-73431500D01*
X184276902Y-73493500D01*
X184276902Y-73899872D01*
X184277254Y-73903150D01*
X184277255Y-73903161D01*
X184282480Y-73951768D01*
X184282481Y-73951773D01*
X184283310Y-73959483D01*
X184286020Y-73966749D01*
X184286021Y-73966753D01*
X184319270Y-74055897D01*
X184333605Y-74094331D01*
X184419855Y-74209546D01*
X184535070Y-74295796D01*
X184669918Y-74346091D01*
X184729528Y-74352500D01*
X186025273Y-74352499D01*
X186084884Y-74346091D01*
X186219732Y-74295796D01*
X186268922Y-74258971D01*
X186326357Y-74235392D01*
X186388023Y-74242610D01*
X186574945Y-74315024D01*
X186775425Y-74352500D01*
X186973648Y-74352500D01*
X186979377Y-74352500D01*
X187179857Y-74315024D01*
X187370038Y-74241348D01*
X187543442Y-74133981D01*
X187694165Y-73996579D01*
X187817074Y-73833821D01*
X187907983Y-73651250D01*
X187963798Y-73455083D01*
X187982616Y-73252000D01*
X187963798Y-73048917D01*
X187907983Y-72852750D01*
X187817074Y-72670179D01*
X187735825Y-72562588D01*
X187697622Y-72511998D01*
X187697618Y-72511994D01*
X187694165Y-72507421D01*
X187689928Y-72503558D01*
X187689924Y-72503554D01*
X187547676Y-72373879D01*
X187547677Y-72373879D01*
X187543442Y-72370019D01*
X187538572Y-72367004D01*
X187538570Y-72367002D01*
X187420554Y-72293930D01*
X187370038Y-72262652D01*
X187364695Y-72260582D01*
X187185204Y-72191047D01*
X187185199Y-72191045D01*
X187179857Y-72188976D01*
X187174219Y-72187922D01*
X186985006Y-72152552D01*
X186985003Y-72152551D01*
X186979377Y-72151500D01*
X186775425Y-72151500D01*
X186769799Y-72152551D01*
X186769795Y-72152552D01*
X186580582Y-72187922D01*
X186580579Y-72187922D01*
X186574945Y-72188976D01*
X186569606Y-72191044D01*
X186569593Y-72191048D01*
X186388026Y-72261387D01*
X186326359Y-72268607D01*
X186268923Y-72245027D01*
X186226836Y-72213521D01*
X186226830Y-72213518D01*
X186219732Y-72208204D01*
X186113704Y-72168658D01*
X186092153Y-72160620D01*
X186092151Y-72160619D01*
X186084884Y-72157909D01*
X186077171Y-72157079D01*
X186077168Y-72157079D01*
X186028581Y-72151855D01*
X186028570Y-72151854D01*
X186025274Y-72151500D01*
X186021952Y-72151500D01*
X185100873Y-72151500D01*
X185060170Y-72143070D01*
X185059948Y-72143837D01*
X185052456Y-72141660D01*
X185045297Y-72138562D01*
X185037593Y-72137341D01*
X185037591Y-72137341D01*
X185002160Y-72131729D01*
X184990725Y-72129361D01*
X184955972Y-72120438D01*
X184955964Y-72120437D01*
X184948420Y-72118500D01*
X184940624Y-72118500D01*
X184928384Y-72118500D01*
X184908998Y-72116974D01*
X184889205Y-72113840D01*
X184881439Y-72114574D01*
X184881436Y-72114574D01*
X184845725Y-72117950D01*
X184834056Y-72118500D01*
X179630499Y-72118500D01*
X179568499Y-72101887D01*
X179523112Y-72056500D01*
X179506499Y-71994500D01*
X179506499Y-71579439D01*
X179506499Y-71576128D01*
X179500091Y-71516517D01*
X179449796Y-71381669D01*
X179363546Y-71266454D01*
X179248331Y-71180204D01*
X179155451Y-71145562D01*
X179120752Y-71132620D01*
X179120750Y-71132619D01*
X179113483Y-71129909D01*
X179105770Y-71129079D01*
X179105767Y-71129079D01*
X179057180Y-71123855D01*
X179057169Y-71123854D01*
X179053873Y-71123500D01*
X179050550Y-71123500D01*
X176721439Y-71123500D01*
X176721420Y-71123500D01*
X176718128Y-71123501D01*
X176714850Y-71123853D01*
X176714838Y-71123854D01*
X176666231Y-71129079D01*
X176666225Y-71129080D01*
X176658517Y-71129909D01*
X176651252Y-71132618D01*
X176651246Y-71132620D01*
X176531980Y-71177104D01*
X176531978Y-71177104D01*
X176523669Y-71180204D01*
X176516572Y-71185516D01*
X176516568Y-71185519D01*
X176415550Y-71261141D01*
X176415546Y-71261144D01*
X176408454Y-71266454D01*
X176403144Y-71273546D01*
X176403140Y-71273551D01*
X176359135Y-71332334D01*
X176312183Y-71370446D01*
X176252789Y-71381820D01*
X176195079Y-71363749D01*
X176088125Y-71298207D01*
X176088124Y-71298206D01*
X176083967Y-71295659D01*
X175848311Y-71198047D01*
X175843582Y-71196911D01*
X175843574Y-71196909D01*
X175605019Y-71139638D01*
X175605015Y-71139637D01*
X175600286Y-71138502D01*
X175595433Y-71138120D01*
X175350854Y-71118871D01*
X175346000Y-71118489D01*
X175341146Y-71118871D01*
X175096566Y-71138120D01*
X175096564Y-71138120D01*
X175091714Y-71138502D01*
X175086986Y-71139636D01*
X175086980Y-71139638D01*
X174848422Y-71196910D01*
X174848413Y-71196912D01*
X174843689Y-71198047D01*
X174839199Y-71199906D01*
X174839195Y-71199908D01*
X174796449Y-71217614D01*
X174742180Y-71226864D01*
X174689255Y-71211711D01*
X174683022Y-71208284D01*
X174666766Y-71197606D01*
X174657095Y-71190104D01*
X174657092Y-71190102D01*
X174650936Y-71185327D01*
X174643779Y-71182229D01*
X174643776Y-71182228D01*
X174610849Y-71167978D01*
X174600363Y-71162841D01*
X174568932Y-71145562D01*
X174568923Y-71145558D01*
X174562092Y-71141803D01*
X174554535Y-71139862D01*
X174554531Y-71139861D01*
X174542688Y-71136820D01*
X174524284Y-71130519D01*
X174513057Y-71125660D01*
X174513050Y-71125658D01*
X174505896Y-71122562D01*
X174498192Y-71121341D01*
X174498190Y-71121341D01*
X174462759Y-71115729D01*
X174451324Y-71113361D01*
X174416571Y-71104438D01*
X174416563Y-71104437D01*
X174409019Y-71102500D01*
X174401223Y-71102500D01*
X174388983Y-71102500D01*
X174369597Y-71100974D01*
X174349804Y-71097840D01*
X174342038Y-71098574D01*
X174342035Y-71098574D01*
X174306324Y-71101950D01*
X174294655Y-71102500D01*
X172333742Y-71102500D01*
X172278470Y-71089500D01*
X172234788Y-71053227D01*
X172134438Y-70920341D01*
X172134434Y-70920337D01*
X172130981Y-70915764D01*
X172126744Y-70911901D01*
X172126740Y-70911897D01*
X171970796Y-70769736D01*
X171970797Y-70769736D01*
X171966562Y-70765876D01*
X171961692Y-70762861D01*
X171961690Y-70762859D01*
X171782275Y-70651771D01*
X171782276Y-70651771D01*
X171777401Y-70648753D01*
X171569940Y-70568382D01*
X171564302Y-70567328D01*
X171356872Y-70528552D01*
X171356869Y-70528551D01*
X171351243Y-70527500D01*
X171128757Y-70527500D01*
X171123131Y-70528551D01*
X171123127Y-70528552D01*
X170915697Y-70567328D01*
X170915694Y-70567328D01*
X170910060Y-70568382D01*
X170904717Y-70570451D01*
X170904713Y-70570453D01*
X170707941Y-70646683D01*
X170707936Y-70646685D01*
X170702599Y-70648753D01*
X170697727Y-70651769D01*
X170697724Y-70651771D01*
X170518309Y-70762859D01*
X170518301Y-70762864D01*
X170513438Y-70765876D01*
X170509207Y-70769732D01*
X170509203Y-70769736D01*
X170373538Y-70893411D01*
X170320245Y-70922029D01*
X170259755Y-70922029D01*
X170206462Y-70893411D01*
X170070796Y-70769736D01*
X170070797Y-70769736D01*
X170066562Y-70765876D01*
X170061692Y-70762861D01*
X170061690Y-70762859D01*
X169882275Y-70651771D01*
X169882276Y-70651771D01*
X169877401Y-70648753D01*
X169669940Y-70568382D01*
X169664302Y-70567328D01*
X169456872Y-70528552D01*
X169456869Y-70528551D01*
X169451243Y-70527500D01*
X169228757Y-70527500D01*
X169223131Y-70528551D01*
X169223127Y-70528552D01*
X169015697Y-70567328D01*
X169015694Y-70567328D01*
X169010060Y-70568382D01*
X169004717Y-70570451D01*
X169004713Y-70570453D01*
X168807941Y-70646683D01*
X168807936Y-70646685D01*
X168802599Y-70648753D01*
X168797727Y-70651769D01*
X168797724Y-70651771D01*
X168618309Y-70762859D01*
X168618301Y-70762864D01*
X168613438Y-70765876D01*
X168609207Y-70769732D01*
X168609203Y-70769736D01*
X168453259Y-70911897D01*
X168453249Y-70911907D01*
X168449019Y-70915764D01*
X168445570Y-70920330D01*
X168445561Y-70920341D01*
X168318394Y-71088738D01*
X168318387Y-71088748D01*
X168314942Y-71093311D01*
X168312392Y-71098431D01*
X168312387Y-71098440D01*
X168218325Y-71287341D01*
X168218321Y-71287349D01*
X168215771Y-71292472D01*
X168214205Y-71297975D01*
X168214201Y-71297986D01*
X168156454Y-71500949D01*
X168154885Y-71506464D01*
X168134357Y-71728000D01*
X124475078Y-71728000D01*
X124511599Y-64752578D01*
X137271500Y-64752578D01*
X137271501Y-64755872D01*
X137271853Y-64759150D01*
X137271854Y-64759161D01*
X137277079Y-64807768D01*
X137277080Y-64807773D01*
X137277909Y-64815483D01*
X137280619Y-64822749D01*
X137280620Y-64822753D01*
X137298101Y-64869620D01*
X137328204Y-64950331D01*
X137414454Y-65065546D01*
X137529669Y-65151796D01*
X137664517Y-65202091D01*
X137724127Y-65208500D01*
X139019872Y-65208499D01*
X139079483Y-65202091D01*
X139214331Y-65151796D01*
X139263521Y-65114971D01*
X139320956Y-65091392D01*
X139382622Y-65098610D01*
X139569544Y-65171024D01*
X139770024Y-65208500D01*
X139968247Y-65208500D01*
X139973976Y-65208500D01*
X140174456Y-65171024D01*
X140364637Y-65097348D01*
X140538041Y-64989981D01*
X140688764Y-64852579D01*
X140764281Y-64752578D01*
X147431500Y-64752578D01*
X147431501Y-64755872D01*
X147431853Y-64759150D01*
X147431854Y-64759161D01*
X147437079Y-64807768D01*
X147437080Y-64807773D01*
X147437909Y-64815483D01*
X147440619Y-64822749D01*
X147440620Y-64822753D01*
X147458101Y-64869620D01*
X147488204Y-64950331D01*
X147574454Y-65065546D01*
X147689669Y-65151796D01*
X147824517Y-65202091D01*
X147884127Y-65208500D01*
X149179872Y-65208499D01*
X149239483Y-65202091D01*
X149374331Y-65151796D01*
X149423521Y-65114971D01*
X149480956Y-65091392D01*
X149542622Y-65098610D01*
X149729544Y-65171024D01*
X149930024Y-65208500D01*
X150128247Y-65208500D01*
X150133976Y-65208500D01*
X150334456Y-65171024D01*
X150524637Y-65097348D01*
X150698041Y-64989981D01*
X150848764Y-64852579D01*
X150971673Y-64689821D01*
X151062582Y-64507250D01*
X151118397Y-64311083D01*
X151137215Y-64108000D01*
X168176357Y-64108000D01*
X168176886Y-64113709D01*
X168192449Y-64281669D01*
X168196885Y-64329536D01*
X168198454Y-64335050D01*
X168256201Y-64538013D01*
X168256204Y-64538021D01*
X168257771Y-64543528D01*
X168260323Y-64548653D01*
X168260325Y-64548658D01*
X168354387Y-64737559D01*
X168354389Y-64737563D01*
X168356942Y-64742689D01*
X168360391Y-64747256D01*
X168360394Y-64747261D01*
X168487561Y-64915658D01*
X168487566Y-64915663D01*
X168491019Y-64920236D01*
X168495255Y-64924097D01*
X168495259Y-64924102D01*
X168563290Y-64986120D01*
X168655438Y-65070124D01*
X168844599Y-65187247D01*
X169052060Y-65267618D01*
X169270757Y-65308500D01*
X169487514Y-65308500D01*
X169493243Y-65308500D01*
X169711940Y-65267618D01*
X169919401Y-65187247D01*
X170108562Y-65070124D01*
X170248462Y-64942587D01*
X170301755Y-64913970D01*
X170362245Y-64913970D01*
X170415537Y-64942587D01*
X170555438Y-65070124D01*
X170744599Y-65187247D01*
X170952060Y-65267618D01*
X171170757Y-65308500D01*
X171387514Y-65308500D01*
X171393243Y-65308500D01*
X171611940Y-65267618D01*
X171819401Y-65187247D01*
X172008562Y-65070124D01*
X172172981Y-64920236D01*
X172276788Y-64782772D01*
X172320470Y-64746500D01*
X172375742Y-64733500D01*
X173617278Y-64733500D01*
X173669196Y-64744892D01*
X173711575Y-64776976D01*
X173736627Y-64823856D01*
X173739318Y-64869620D01*
X173740502Y-64869714D01*
X173720489Y-65124000D01*
X173720871Y-65128854D01*
X173727056Y-65207447D01*
X173740502Y-65378286D01*
X173741637Y-65383015D01*
X173741638Y-65383019D01*
X173798909Y-65621574D01*
X173798911Y-65621582D01*
X173800047Y-65626311D01*
X173897659Y-65861967D01*
X173900206Y-65866124D01*
X173900207Y-65866125D01*
X174027868Y-66074449D01*
X174030934Y-66079451D01*
X174034098Y-66083156D01*
X174034102Y-66083161D01*
X174123709Y-66188077D01*
X174196590Y-66273410D01*
X174200297Y-66276576D01*
X174386838Y-66435897D01*
X174386841Y-66435899D01*
X174390549Y-66439066D01*
X174608033Y-66572341D01*
X174843689Y-66669953D01*
X175091714Y-66729498D01*
X175346000Y-66749511D01*
X175600286Y-66729498D01*
X175848311Y-66669953D01*
X176083967Y-66572341D01*
X176195083Y-66504248D01*
X176252789Y-66486179D01*
X176312184Y-66497553D01*
X176359135Y-66535666D01*
X176403137Y-66594445D01*
X176403141Y-66594449D01*
X176408454Y-66601546D01*
X176523669Y-66687796D01*
X176658517Y-66738091D01*
X176718127Y-66744500D01*
X179053872Y-66744499D01*
X179113483Y-66738091D01*
X179248331Y-66687796D01*
X179363546Y-66601546D01*
X179449796Y-66486331D01*
X179500091Y-66351483D01*
X179506500Y-66291873D01*
X179506500Y-65873500D01*
X179523113Y-65811500D01*
X179568500Y-65766113D01*
X179630500Y-65749500D01*
X184166817Y-65749500D01*
X184220333Y-65761643D01*
X184263368Y-65795693D01*
X184281260Y-65832247D01*
X184283310Y-65831483D01*
X184333605Y-65966331D01*
X184419855Y-66081546D01*
X184535070Y-66167796D01*
X184669918Y-66218091D01*
X184729528Y-66224500D01*
X186025273Y-66224499D01*
X186084884Y-66218091D01*
X186219732Y-66167796D01*
X186268922Y-66130971D01*
X186326357Y-66107392D01*
X186388023Y-66114610D01*
X186574945Y-66187024D01*
X186775425Y-66224500D01*
X186973648Y-66224500D01*
X186979377Y-66224500D01*
X187179857Y-66187024D01*
X187370038Y-66113348D01*
X187543442Y-66005981D01*
X187694165Y-65868579D01*
X187817074Y-65705821D01*
X187907983Y-65523250D01*
X187963798Y-65327083D01*
X187982616Y-65124000D01*
X187963798Y-64920917D01*
X187961821Y-64913970D01*
X187909553Y-64730268D01*
X187907983Y-64724750D01*
X187817074Y-64542179D01*
X187721601Y-64415752D01*
X187697622Y-64383998D01*
X187697618Y-64383994D01*
X187694165Y-64379421D01*
X187689928Y-64375558D01*
X187689924Y-64375554D01*
X187547676Y-64245879D01*
X187547677Y-64245879D01*
X187543442Y-64242019D01*
X187538572Y-64239004D01*
X187538570Y-64239002D01*
X187412819Y-64161141D01*
X187370038Y-64134652D01*
X187364695Y-64132582D01*
X187185204Y-64063047D01*
X187185199Y-64063045D01*
X187179857Y-64060976D01*
X187174219Y-64059922D01*
X186985006Y-64024552D01*
X186985003Y-64024551D01*
X186979377Y-64023500D01*
X186775425Y-64023500D01*
X186769799Y-64024551D01*
X186769795Y-64024552D01*
X186580582Y-64059922D01*
X186580579Y-64059922D01*
X186574945Y-64060976D01*
X186569606Y-64063044D01*
X186569593Y-64063048D01*
X186388026Y-64133387D01*
X186326359Y-64140607D01*
X186268923Y-64117027D01*
X186226836Y-64085521D01*
X186226830Y-64085518D01*
X186219732Y-64080204D01*
X186084884Y-64029909D01*
X186077171Y-64029079D01*
X186077168Y-64029079D01*
X186028581Y-64023855D01*
X186028570Y-64023854D01*
X186025274Y-64023500D01*
X186021951Y-64023500D01*
X184732840Y-64023500D01*
X184732821Y-64023500D01*
X184729529Y-64023501D01*
X184726251Y-64023853D01*
X184726239Y-64023854D01*
X184677632Y-64029079D01*
X184677626Y-64029080D01*
X184669918Y-64029909D01*
X184662653Y-64032618D01*
X184662647Y-64032620D01*
X184543381Y-64077104D01*
X184543379Y-64077104D01*
X184535070Y-64080204D01*
X184527973Y-64085516D01*
X184527969Y-64085519D01*
X184426951Y-64161141D01*
X184426947Y-64161144D01*
X184419855Y-64166454D01*
X184414545Y-64173546D01*
X184414542Y-64173550D01*
X184338920Y-64274568D01*
X184338917Y-64274572D01*
X184333605Y-64281669D01*
X184330505Y-64289978D01*
X184330505Y-64289980D01*
X184283310Y-64416517D01*
X184281260Y-64415752D01*
X184263368Y-64452307D01*
X184220333Y-64486357D01*
X184166817Y-64498500D01*
X179630499Y-64498500D01*
X179568499Y-64481887D01*
X179523112Y-64436500D01*
X179506499Y-64374500D01*
X179506499Y-63959439D01*
X179506499Y-63956128D01*
X179500091Y-63896517D01*
X179449796Y-63761669D01*
X179363546Y-63646454D01*
X179248331Y-63560204D01*
X179155451Y-63525562D01*
X179120752Y-63512620D01*
X179120750Y-63512619D01*
X179113483Y-63509909D01*
X179105770Y-63509079D01*
X179105767Y-63509079D01*
X179057180Y-63503855D01*
X179057169Y-63503854D01*
X179053873Y-63503500D01*
X179050550Y-63503500D01*
X176721439Y-63503500D01*
X176721420Y-63503500D01*
X176718128Y-63503501D01*
X176714850Y-63503853D01*
X176714838Y-63503854D01*
X176666231Y-63509079D01*
X176666225Y-63509080D01*
X176658517Y-63509909D01*
X176651252Y-63512618D01*
X176651246Y-63512620D01*
X176531980Y-63557104D01*
X176531978Y-63557104D01*
X176523669Y-63560204D01*
X176516572Y-63565516D01*
X176516568Y-63565519D01*
X176415550Y-63641141D01*
X176415546Y-63641144D01*
X176408454Y-63646454D01*
X176403144Y-63653546D01*
X176403140Y-63653551D01*
X176359135Y-63712334D01*
X176312183Y-63750446D01*
X176252789Y-63761820D01*
X176195079Y-63743749D01*
X176088125Y-63678207D01*
X176088124Y-63678206D01*
X176083967Y-63675659D01*
X175848311Y-63578047D01*
X175843582Y-63576911D01*
X175843574Y-63576909D01*
X175605019Y-63519638D01*
X175605015Y-63519637D01*
X175600286Y-63518502D01*
X175595433Y-63518120D01*
X175350854Y-63498871D01*
X175346000Y-63498489D01*
X175341146Y-63498871D01*
X175096566Y-63518120D01*
X175096564Y-63518120D01*
X175091714Y-63518502D01*
X175086986Y-63519636D01*
X175086980Y-63519638D01*
X174848422Y-63576910D01*
X174848413Y-63576912D01*
X174843689Y-63578047D01*
X174839199Y-63579906D01*
X174839195Y-63579908D01*
X174796449Y-63597614D01*
X174742180Y-63606864D01*
X174689255Y-63591711D01*
X174683022Y-63588284D01*
X174666766Y-63577606D01*
X174657095Y-63570104D01*
X174657092Y-63570102D01*
X174650936Y-63565327D01*
X174643779Y-63562229D01*
X174643776Y-63562228D01*
X174610849Y-63547978D01*
X174600363Y-63542841D01*
X174568932Y-63525562D01*
X174568923Y-63525558D01*
X174562092Y-63521803D01*
X174554535Y-63519862D01*
X174554531Y-63519861D01*
X174542688Y-63516820D01*
X174524284Y-63510519D01*
X174513057Y-63505660D01*
X174513050Y-63505658D01*
X174505896Y-63502562D01*
X174498192Y-63501341D01*
X174498190Y-63501341D01*
X174462759Y-63495729D01*
X174451324Y-63493361D01*
X174416571Y-63484438D01*
X174416563Y-63484437D01*
X174409019Y-63482500D01*
X174401223Y-63482500D01*
X174388983Y-63482500D01*
X174369597Y-63480974D01*
X174349804Y-63477840D01*
X174342038Y-63478574D01*
X174342035Y-63478574D01*
X174306324Y-63481950D01*
X174294655Y-63482500D01*
X172375742Y-63482500D01*
X172320470Y-63469500D01*
X172276788Y-63433227D01*
X172176438Y-63300341D01*
X172176434Y-63300337D01*
X172172981Y-63295764D01*
X172168744Y-63291901D01*
X172168740Y-63291897D01*
X172012796Y-63149736D01*
X172012797Y-63149736D01*
X172008562Y-63145876D01*
X172003692Y-63142861D01*
X172003690Y-63142859D01*
X171871650Y-63061104D01*
X171819401Y-63028753D01*
X171781084Y-63013909D01*
X171617286Y-62950453D01*
X171617285Y-62950452D01*
X171611940Y-62948382D01*
X171589499Y-62944187D01*
X171398872Y-62908552D01*
X171398869Y-62908551D01*
X171393243Y-62907500D01*
X171170757Y-62907500D01*
X171165131Y-62908551D01*
X171165127Y-62908552D01*
X170957697Y-62947328D01*
X170957694Y-62947328D01*
X170952060Y-62948382D01*
X170946717Y-62950451D01*
X170946713Y-62950453D01*
X170749941Y-63026683D01*
X170749936Y-63026685D01*
X170744599Y-63028753D01*
X170739727Y-63031769D01*
X170739724Y-63031771D01*
X170560309Y-63142859D01*
X170560301Y-63142864D01*
X170555438Y-63145876D01*
X170533036Y-63166298D01*
X170483434Y-63193926D01*
X170426715Y-63196548D01*
X170374773Y-63173613D01*
X170338500Y-63129930D01*
X170325500Y-63074659D01*
X170325500Y-59795228D01*
X170339511Y-59737971D01*
X170378376Y-59693653D01*
X170510252Y-59601312D01*
X170571401Y-59558495D01*
X170738495Y-59391401D01*
X170874035Y-59197830D01*
X170888491Y-59166829D01*
X172050001Y-59166829D01*
X172050321Y-59173111D01*
X172059805Y-59265959D01*
X172062623Y-59279122D01*
X172113370Y-59432267D01*
X172119432Y-59445266D01*
X172203890Y-59582194D01*
X172212794Y-59593455D01*
X172326544Y-59707205D01*
X172337805Y-59716109D01*
X172474733Y-59800567D01*
X172487732Y-59806629D01*
X172640874Y-59857375D01*
X172654041Y-59860194D01*
X172746890Y-59869680D01*
X172753168Y-59870000D01*
X173133674Y-59870000D01*
X173146549Y-59866549D01*
X173150000Y-59853674D01*
X173150000Y-59853673D01*
X173650000Y-59853673D01*
X173653450Y-59866548D01*
X173666326Y-59869999D01*
X174046829Y-59869999D01*
X174053111Y-59869678D01*
X174145959Y-59860194D01*
X174159122Y-59857376D01*
X174312267Y-59806629D01*
X174325266Y-59800567D01*
X174462194Y-59716109D01*
X174473455Y-59707205D01*
X174587205Y-59593455D01*
X174596109Y-59582194D01*
X174680567Y-59445266D01*
X174686629Y-59432267D01*
X174737375Y-59279125D01*
X174740194Y-59265958D01*
X174749680Y-59173109D01*
X174750000Y-59166832D01*
X174750000Y-58786326D01*
X174746549Y-58773450D01*
X174733674Y-58770000D01*
X173666326Y-58770000D01*
X173653450Y-58773450D01*
X173650000Y-58786326D01*
X173650000Y-59853673D01*
X173150000Y-59853673D01*
X173150000Y-58786326D01*
X173146549Y-58773450D01*
X173133674Y-58770000D01*
X172066327Y-58770000D01*
X172053451Y-58773450D01*
X172050001Y-58786326D01*
X172050001Y-59166829D01*
X170888491Y-59166829D01*
X170973903Y-58983663D01*
X171035063Y-58755408D01*
X171055659Y-58520000D01*
X171035063Y-58284592D01*
X171026779Y-58253674D01*
X172050000Y-58253674D01*
X172053450Y-58266549D01*
X172066326Y-58270000D01*
X173133674Y-58270000D01*
X173146549Y-58266549D01*
X173150000Y-58253674D01*
X173650000Y-58253674D01*
X173653450Y-58266549D01*
X173666326Y-58270000D01*
X174733673Y-58270000D01*
X174746548Y-58266549D01*
X174749999Y-58253674D01*
X174749999Y-57873171D01*
X174749678Y-57866888D01*
X174740194Y-57774040D01*
X174737376Y-57760877D01*
X174686629Y-57607732D01*
X174680567Y-57594733D01*
X174596109Y-57457805D01*
X174587205Y-57446544D01*
X174473455Y-57332794D01*
X174462194Y-57323890D01*
X174325266Y-57239432D01*
X174312267Y-57233370D01*
X174159125Y-57182624D01*
X174145958Y-57179805D01*
X174053109Y-57170319D01*
X174046832Y-57170000D01*
X173666326Y-57170000D01*
X173653450Y-57173450D01*
X173650000Y-57186326D01*
X173650000Y-58253674D01*
X173150000Y-58253674D01*
X173150000Y-57186327D01*
X173146549Y-57173451D01*
X173133674Y-57170001D01*
X172753171Y-57170001D01*
X172746888Y-57170321D01*
X172654040Y-57179805D01*
X172640877Y-57182623D01*
X172487732Y-57233370D01*
X172474733Y-57239432D01*
X172337805Y-57323890D01*
X172326544Y-57332794D01*
X172212794Y-57446544D01*
X172203890Y-57457805D01*
X172119432Y-57594733D01*
X172113370Y-57607732D01*
X172062624Y-57760874D01*
X172059805Y-57774041D01*
X172050319Y-57866890D01*
X172050000Y-57873168D01*
X172050000Y-58253674D01*
X171026779Y-58253674D01*
X170973903Y-58056337D01*
X170874035Y-57842171D01*
X170738495Y-57648599D01*
X170571401Y-57481505D01*
X170566970Y-57478402D01*
X170566966Y-57478399D01*
X170382259Y-57349066D01*
X170382257Y-57349064D01*
X170377830Y-57345965D01*
X170372933Y-57343681D01*
X170372927Y-57343678D01*
X170168572Y-57248386D01*
X170168570Y-57248385D01*
X170163663Y-57246097D01*
X170158438Y-57244697D01*
X170158430Y-57244694D01*
X169940634Y-57186337D01*
X169940630Y-57186336D01*
X169935408Y-57184937D01*
X169930020Y-57184465D01*
X169930017Y-57184465D01*
X169705395Y-57164813D01*
X169700000Y-57164341D01*
X169694605Y-57164813D01*
X169469982Y-57184465D01*
X169469977Y-57184465D01*
X169464592Y-57184937D01*
X169459371Y-57186335D01*
X169459365Y-57186337D01*
X169241569Y-57244694D01*
X169241557Y-57244698D01*
X169236337Y-57246097D01*
X169231432Y-57248383D01*
X169231427Y-57248386D01*
X169027081Y-57343675D01*
X169027077Y-57343677D01*
X169022171Y-57345965D01*
X169017738Y-57349068D01*
X169017731Y-57349073D01*
X168833034Y-57478399D01*
X168833029Y-57478402D01*
X168828599Y-57481505D01*
X168824775Y-57485328D01*
X168824769Y-57485334D01*
X168665334Y-57644769D01*
X168665328Y-57644775D01*
X168661505Y-57648599D01*
X168658402Y-57653029D01*
X168658399Y-57653034D01*
X168529073Y-57837731D01*
X168529068Y-57837738D01*
X168525965Y-57842171D01*
X168523677Y-57847077D01*
X168523675Y-57847081D01*
X168428386Y-58051427D01*
X168428383Y-58051432D01*
X168426097Y-58056337D01*
X168424698Y-58061557D01*
X168424694Y-58061569D01*
X168366337Y-58279365D01*
X168366335Y-58279371D01*
X168364937Y-58284592D01*
X168364465Y-58289977D01*
X168364465Y-58289982D01*
X168350055Y-58454690D01*
X168344341Y-58520000D01*
X168344813Y-58525395D01*
X168357853Y-58674447D01*
X168364937Y-58755408D01*
X168366336Y-58760630D01*
X168366337Y-58760634D01*
X168424694Y-58978430D01*
X168424697Y-58978438D01*
X168426097Y-58983663D01*
X168428385Y-58988570D01*
X168428386Y-58988572D01*
X168523678Y-59192927D01*
X168523681Y-59192933D01*
X168525965Y-59197830D01*
X168529064Y-59202257D01*
X168529066Y-59202259D01*
X168658399Y-59386966D01*
X168658402Y-59386970D01*
X168661505Y-59391401D01*
X168828599Y-59558495D01*
X168833031Y-59561598D01*
X168833033Y-59561600D01*
X169021624Y-59693653D01*
X169060489Y-59737971D01*
X169074500Y-59795228D01*
X169074500Y-62854746D01*
X169064692Y-62903079D01*
X169036821Y-62943767D01*
X168995294Y-62970372D01*
X168849951Y-63026678D01*
X168849936Y-63026685D01*
X168844599Y-63028753D01*
X168839727Y-63031769D01*
X168839724Y-63031771D01*
X168660309Y-63142859D01*
X168660301Y-63142864D01*
X168655438Y-63145876D01*
X168651207Y-63149732D01*
X168651203Y-63149736D01*
X168495259Y-63291897D01*
X168495249Y-63291907D01*
X168491019Y-63295764D01*
X168487570Y-63300330D01*
X168487561Y-63300341D01*
X168360394Y-63468738D01*
X168360387Y-63468748D01*
X168356942Y-63473311D01*
X168354392Y-63478431D01*
X168354387Y-63478440D01*
X168260325Y-63667341D01*
X168260321Y-63667349D01*
X168257771Y-63672472D01*
X168256205Y-63677975D01*
X168256201Y-63677986D01*
X168198454Y-63880949D01*
X168196885Y-63886464D01*
X168196356Y-63892169D01*
X168196356Y-63892171D01*
X168190735Y-63952838D01*
X168176357Y-64108000D01*
X151137215Y-64108000D01*
X151118397Y-63904917D01*
X151114770Y-63892171D01*
X151064152Y-63714268D01*
X151062582Y-63708750D01*
X150971673Y-63526179D01*
X150871288Y-63393247D01*
X150852221Y-63367998D01*
X150852217Y-63367994D01*
X150848764Y-63363421D01*
X150844527Y-63359558D01*
X150844523Y-63359554D01*
X150702275Y-63229879D01*
X150702276Y-63229879D01*
X150698041Y-63226019D01*
X150693171Y-63223004D01*
X150693169Y-63223002D01*
X150563733Y-63142859D01*
X150524637Y-63118652D01*
X150519294Y-63116582D01*
X150339803Y-63047047D01*
X150339798Y-63047045D01*
X150334456Y-63044976D01*
X150328818Y-63043922D01*
X150139605Y-63008552D01*
X150139602Y-63008551D01*
X150133976Y-63007500D01*
X149930024Y-63007500D01*
X149924398Y-63008551D01*
X149924394Y-63008552D01*
X149735181Y-63043922D01*
X149735178Y-63043922D01*
X149729544Y-63044976D01*
X149724205Y-63047044D01*
X149724192Y-63047048D01*
X149542625Y-63117387D01*
X149480958Y-63124607D01*
X149423522Y-63101027D01*
X149381435Y-63069521D01*
X149381429Y-63069518D01*
X149374331Y-63064204D01*
X149273732Y-63026683D01*
X149246752Y-63016620D01*
X149246750Y-63016619D01*
X149239483Y-63013909D01*
X149231770Y-63013079D01*
X149231767Y-63013079D01*
X149183180Y-63007855D01*
X149183169Y-63007854D01*
X149179873Y-63007500D01*
X149176550Y-63007500D01*
X147887439Y-63007500D01*
X147887420Y-63007500D01*
X147884128Y-63007501D01*
X147880850Y-63007853D01*
X147880838Y-63007854D01*
X147832231Y-63013079D01*
X147832225Y-63013080D01*
X147824517Y-63013909D01*
X147817252Y-63016618D01*
X147817246Y-63016620D01*
X147697980Y-63061104D01*
X147697978Y-63061104D01*
X147689669Y-63064204D01*
X147682572Y-63069516D01*
X147682568Y-63069519D01*
X147581550Y-63145141D01*
X147581546Y-63145144D01*
X147574454Y-63150454D01*
X147569144Y-63157546D01*
X147569141Y-63157550D01*
X147493519Y-63258568D01*
X147493516Y-63258572D01*
X147488204Y-63265669D01*
X147485104Y-63273978D01*
X147485104Y-63273980D01*
X147440620Y-63393247D01*
X147440619Y-63393250D01*
X147437909Y-63400517D01*
X147437079Y-63408227D01*
X147437079Y-63408232D01*
X147431855Y-63456819D01*
X147431854Y-63456831D01*
X147431500Y-63460127D01*
X147431500Y-63463448D01*
X147431500Y-63463449D01*
X147431500Y-64752560D01*
X147431500Y-64752578D01*
X140764281Y-64752578D01*
X140811673Y-64689821D01*
X140902582Y-64507250D01*
X140958397Y-64311083D01*
X140977215Y-64108000D01*
X140958397Y-63904917D01*
X140954770Y-63892171D01*
X140904152Y-63714268D01*
X140902582Y-63708750D01*
X140811673Y-63526179D01*
X140711288Y-63393247D01*
X140692221Y-63367998D01*
X140692217Y-63367994D01*
X140688764Y-63363421D01*
X140684527Y-63359558D01*
X140684523Y-63359554D01*
X140542275Y-63229879D01*
X140542276Y-63229879D01*
X140538041Y-63226019D01*
X140533171Y-63223004D01*
X140533169Y-63223002D01*
X140403733Y-63142859D01*
X140364637Y-63118652D01*
X140359294Y-63116582D01*
X140179803Y-63047047D01*
X140179798Y-63047045D01*
X140174456Y-63044976D01*
X140168818Y-63043922D01*
X139979605Y-63008552D01*
X139979602Y-63008551D01*
X139973976Y-63007500D01*
X139770024Y-63007500D01*
X139764398Y-63008551D01*
X139764394Y-63008552D01*
X139575181Y-63043922D01*
X139575178Y-63043922D01*
X139569544Y-63044976D01*
X139564205Y-63047044D01*
X139564192Y-63047048D01*
X139382625Y-63117387D01*
X139320958Y-63124607D01*
X139263522Y-63101027D01*
X139221435Y-63069521D01*
X139221429Y-63069518D01*
X139214331Y-63064204D01*
X139113732Y-63026683D01*
X139086752Y-63016620D01*
X139086750Y-63016619D01*
X139079483Y-63013909D01*
X139071770Y-63013079D01*
X139071767Y-63013079D01*
X139023180Y-63007855D01*
X139023169Y-63007854D01*
X139019873Y-63007500D01*
X139016550Y-63007500D01*
X137727439Y-63007500D01*
X137727420Y-63007500D01*
X137724128Y-63007501D01*
X137720850Y-63007853D01*
X137720838Y-63007854D01*
X137672231Y-63013079D01*
X137672225Y-63013080D01*
X137664517Y-63013909D01*
X137657252Y-63016618D01*
X137657246Y-63016620D01*
X137537980Y-63061104D01*
X137537978Y-63061104D01*
X137529669Y-63064204D01*
X137522572Y-63069516D01*
X137522568Y-63069519D01*
X137421550Y-63145141D01*
X137421546Y-63145144D01*
X137414454Y-63150454D01*
X137409144Y-63157546D01*
X137409141Y-63157550D01*
X137333519Y-63258568D01*
X137333516Y-63258572D01*
X137328204Y-63265669D01*
X137325104Y-63273978D01*
X137325104Y-63273980D01*
X137280620Y-63393247D01*
X137280619Y-63393250D01*
X137277909Y-63400517D01*
X137277079Y-63408227D01*
X137277079Y-63408232D01*
X137271855Y-63456819D01*
X137271854Y-63456831D01*
X137271500Y-63460127D01*
X137271500Y-63463448D01*
X137271500Y-63463449D01*
X137271500Y-64752560D01*
X137271500Y-64752578D01*
X124511599Y-64752578D01*
X124538196Y-59672578D01*
X143875500Y-59672578D01*
X143875501Y-59675872D01*
X143875853Y-59679150D01*
X143875854Y-59679161D01*
X143881079Y-59727768D01*
X143881080Y-59727773D01*
X143881909Y-59735483D01*
X143884619Y-59742749D01*
X143884620Y-59742753D01*
X143904192Y-59795228D01*
X143932204Y-59870331D01*
X144018454Y-59985546D01*
X144133669Y-60071796D01*
X144268517Y-60122091D01*
X144328127Y-60128500D01*
X145623872Y-60128499D01*
X145683483Y-60122091D01*
X145818331Y-60071796D01*
X145867993Y-60034618D01*
X145925428Y-60011039D01*
X145987097Y-60018258D01*
X146168333Y-60088469D01*
X146179318Y-60091594D01*
X146368440Y-60126947D01*
X146379799Y-60128000D01*
X146572201Y-60128000D01*
X146583559Y-60126947D01*
X146772681Y-60091594D01*
X146783666Y-60088469D01*
X146963071Y-60018968D01*
X146973284Y-60013882D01*
X147044764Y-59969623D01*
X147052701Y-59961778D01*
X147046771Y-59952324D01*
X146767025Y-59672578D01*
X155051500Y-59672578D01*
X155051501Y-59675872D01*
X155051853Y-59679150D01*
X155051854Y-59679161D01*
X155057079Y-59727768D01*
X155057080Y-59727773D01*
X155057909Y-59735483D01*
X155060619Y-59742749D01*
X155060620Y-59742753D01*
X155080192Y-59795228D01*
X155108204Y-59870331D01*
X155194454Y-59985546D01*
X155309669Y-60071796D01*
X155444517Y-60122091D01*
X155504127Y-60128500D01*
X156799872Y-60128499D01*
X156859483Y-60122091D01*
X156994331Y-60071796D01*
X157043993Y-60034618D01*
X157101428Y-60011039D01*
X157163097Y-60018258D01*
X157344333Y-60088469D01*
X157355318Y-60091594D01*
X157544440Y-60126947D01*
X157555799Y-60128000D01*
X157748201Y-60128000D01*
X157759559Y-60126947D01*
X157948681Y-60091594D01*
X157959666Y-60088469D01*
X158139071Y-60018968D01*
X158149284Y-60013882D01*
X158220764Y-59969623D01*
X158228701Y-59961778D01*
X158222771Y-59952324D01*
X157386128Y-59115681D01*
X157354034Y-59060094D01*
X157354034Y-59028000D01*
X158010431Y-59028000D01*
X158017095Y-59039542D01*
X158576890Y-59599337D01*
X158589054Y-59605990D01*
X158595350Y-59601312D01*
X158679554Y-59432208D01*
X158683685Y-59421545D01*
X158736333Y-59236504D01*
X158738431Y-59225282D01*
X158756184Y-59033709D01*
X158756184Y-59022291D01*
X158738431Y-58830717D01*
X158736333Y-58819495D01*
X158683685Y-58634454D01*
X158679554Y-58623791D01*
X158595352Y-58454690D01*
X158589054Y-58450009D01*
X158576889Y-58456662D01*
X158017096Y-59016456D01*
X158010431Y-59028000D01*
X157354034Y-59028000D01*
X157354034Y-58995906D01*
X157386128Y-58940319D01*
X157652000Y-58674447D01*
X158222770Y-58103675D01*
X158228700Y-58094220D01*
X158220763Y-58086374D01*
X158149287Y-58042119D01*
X158139070Y-58037031D01*
X157959666Y-57967530D01*
X157948681Y-57964405D01*
X157759559Y-57929052D01*
X157748201Y-57928000D01*
X157555799Y-57928000D01*
X157544440Y-57929052D01*
X157355318Y-57964405D01*
X157344329Y-57967531D01*
X157163096Y-58037740D01*
X157101429Y-58044959D01*
X157043992Y-58021380D01*
X157001431Y-57989519D01*
X157001430Y-57989518D01*
X156994331Y-57984204D01*
X156859483Y-57933909D01*
X156851770Y-57933079D01*
X156851767Y-57933079D01*
X156803180Y-57927855D01*
X156803169Y-57927854D01*
X156799873Y-57927500D01*
X156796550Y-57927500D01*
X155507439Y-57927500D01*
X155507420Y-57927500D01*
X155504128Y-57927501D01*
X155500850Y-57927853D01*
X155500838Y-57927854D01*
X155452231Y-57933079D01*
X155452225Y-57933080D01*
X155444517Y-57933909D01*
X155437252Y-57936618D01*
X155437246Y-57936620D01*
X155317980Y-57981104D01*
X155317978Y-57981104D01*
X155309669Y-57984204D01*
X155302572Y-57989516D01*
X155302568Y-57989519D01*
X155201550Y-58065141D01*
X155201546Y-58065144D01*
X155194454Y-58070454D01*
X155189144Y-58077546D01*
X155189141Y-58077550D01*
X155113519Y-58178568D01*
X155113516Y-58178572D01*
X155108204Y-58185669D01*
X155105104Y-58193978D01*
X155105104Y-58193980D01*
X155060620Y-58313247D01*
X155060619Y-58313250D01*
X155057909Y-58320517D01*
X155057079Y-58328227D01*
X155057079Y-58328232D01*
X155051855Y-58376819D01*
X155051854Y-58376831D01*
X155051500Y-58380127D01*
X155051500Y-58383448D01*
X155051500Y-58383449D01*
X155051500Y-59672560D01*
X155051500Y-59672578D01*
X146767025Y-59672578D01*
X146210128Y-59115681D01*
X146178034Y-59060094D01*
X146178034Y-59028000D01*
X146834431Y-59028000D01*
X146841095Y-59039542D01*
X147400890Y-59599337D01*
X147413054Y-59605990D01*
X147419350Y-59601312D01*
X147503554Y-59432208D01*
X147507685Y-59421545D01*
X147560333Y-59236504D01*
X147562431Y-59225282D01*
X147580184Y-59033709D01*
X147580184Y-59022291D01*
X147562431Y-58830717D01*
X147560333Y-58819495D01*
X147507685Y-58634454D01*
X147503554Y-58623791D01*
X147419352Y-58454690D01*
X147413054Y-58450009D01*
X147400889Y-58456662D01*
X146841096Y-59016456D01*
X146834431Y-59028000D01*
X146178034Y-59028000D01*
X146178034Y-58995906D01*
X146210128Y-58940319D01*
X146476000Y-58674447D01*
X147046770Y-58103675D01*
X147052700Y-58094220D01*
X147044763Y-58086374D01*
X146973287Y-58042119D01*
X146963070Y-58037031D01*
X146783666Y-57967530D01*
X146772681Y-57964405D01*
X146583559Y-57929052D01*
X146572201Y-57928000D01*
X146379799Y-57928000D01*
X146368440Y-57929052D01*
X146179318Y-57964405D01*
X146168329Y-57967531D01*
X145987096Y-58037740D01*
X145925429Y-58044959D01*
X145867992Y-58021380D01*
X145825431Y-57989519D01*
X145825430Y-57989518D01*
X145818331Y-57984204D01*
X145683483Y-57933909D01*
X145675770Y-57933079D01*
X145675767Y-57933079D01*
X145627180Y-57927855D01*
X145627169Y-57927854D01*
X145623873Y-57927500D01*
X145620550Y-57927500D01*
X144331439Y-57927500D01*
X144331420Y-57927500D01*
X144328128Y-57927501D01*
X144324850Y-57927853D01*
X144324838Y-57927854D01*
X144276231Y-57933079D01*
X144276225Y-57933080D01*
X144268517Y-57933909D01*
X144261252Y-57936618D01*
X144261246Y-57936620D01*
X144141980Y-57981104D01*
X144141978Y-57981104D01*
X144133669Y-57984204D01*
X144126572Y-57989516D01*
X144126568Y-57989519D01*
X144025550Y-58065141D01*
X144025546Y-58065144D01*
X144018454Y-58070454D01*
X144013144Y-58077546D01*
X144013141Y-58077550D01*
X143937519Y-58178568D01*
X143937516Y-58178572D01*
X143932204Y-58185669D01*
X143929104Y-58193978D01*
X143929104Y-58193980D01*
X143884620Y-58313247D01*
X143884619Y-58313250D01*
X143881909Y-58320517D01*
X143881079Y-58328227D01*
X143881079Y-58328232D01*
X143875855Y-58376819D01*
X143875854Y-58376831D01*
X143875500Y-58380127D01*
X143875500Y-58383448D01*
X143875500Y-58383449D01*
X143875500Y-59672560D01*
X143875500Y-59672578D01*
X124538196Y-59672578D01*
X124606277Y-46669060D01*
X124622257Y-46608819D01*
X124665530Y-46563959D01*
X124725162Y-46545819D01*
X124786086Y-46558984D01*
X124832907Y-46600127D01*
X124968635Y-46800311D01*
X125200332Y-47073086D01*
X125202763Y-47075389D01*
X125202769Y-47075395D01*
X125381622Y-47244813D01*
X125460163Y-47319211D01*
X125745081Y-47535800D01*
X126051747Y-47720315D01*
X126376565Y-47870591D01*
X126715726Y-47984868D01*
X127065254Y-48061805D01*
X127421052Y-48100500D01*
X127775590Y-48100500D01*
X127778948Y-48100500D01*
X128134746Y-48061805D01*
X128484274Y-47984868D01*
X128823435Y-47870591D01*
X129148253Y-47720315D01*
X129454919Y-47535800D01*
X129739837Y-47319211D01*
X129999668Y-47073086D01*
X130231365Y-46800311D01*
X130432211Y-46504085D01*
X130599853Y-46187880D01*
X130732324Y-45855403D01*
X130828071Y-45510552D01*
X130837854Y-45450878D01*
X137687500Y-45450878D01*
X137687501Y-45454008D01*
X137687820Y-45457140D01*
X137687821Y-45457141D01*
X137697312Y-45550061D01*
X137697313Y-45550069D01*
X137698001Y-45556797D01*
X137700129Y-45563219D01*
X137700130Y-45563223D01*
X137738572Y-45679232D01*
X137753186Y-45723334D01*
X137756977Y-45729480D01*
X137841497Y-45866511D01*
X137841500Y-45866515D01*
X137845288Y-45872656D01*
X137969344Y-45996712D01*
X137975485Y-46000500D01*
X137975488Y-46000502D01*
X138032558Y-46035702D01*
X138118666Y-46088814D01*
X138285203Y-46143999D01*
X138387991Y-46154500D01*
X139688008Y-46154499D01*
X139790797Y-46143999D01*
X139957334Y-46088814D01*
X140106656Y-45996712D01*
X140230712Y-45872656D01*
X140322814Y-45723334D01*
X140377999Y-45556797D01*
X140388500Y-45454009D01*
X140388499Y-44804000D01*
X141382341Y-44804000D01*
X141402937Y-45039408D01*
X141404336Y-45044630D01*
X141404337Y-45044634D01*
X141462694Y-45262430D01*
X141462697Y-45262438D01*
X141464097Y-45267663D01*
X141466385Y-45272570D01*
X141466386Y-45272572D01*
X141561678Y-45476927D01*
X141561681Y-45476933D01*
X141563965Y-45481830D01*
X141567064Y-45486257D01*
X141567066Y-45486259D01*
X141696399Y-45670966D01*
X141696402Y-45670970D01*
X141699505Y-45675401D01*
X141866599Y-45842495D01*
X141871031Y-45845598D01*
X141871033Y-45845600D01*
X141889506Y-45858535D01*
X142060170Y-45978035D01*
X142274337Y-46077903D01*
X142502592Y-46139063D01*
X142738000Y-46159659D01*
X142973408Y-46139063D01*
X143201663Y-46077903D01*
X143415830Y-45978035D01*
X143609401Y-45842495D01*
X143776495Y-45675401D01*
X143912035Y-45481830D01*
X143926468Y-45450878D01*
X148355500Y-45450878D01*
X148355501Y-45454008D01*
X148355820Y-45457140D01*
X148355821Y-45457141D01*
X148365312Y-45550061D01*
X148365313Y-45550069D01*
X148366001Y-45556797D01*
X148368129Y-45563219D01*
X148368130Y-45563223D01*
X148406572Y-45679232D01*
X148421186Y-45723334D01*
X148424977Y-45729480D01*
X148509497Y-45866511D01*
X148509500Y-45866515D01*
X148513288Y-45872656D01*
X148637344Y-45996712D01*
X148643485Y-46000500D01*
X148643488Y-46000502D01*
X148700558Y-46035702D01*
X148786666Y-46088814D01*
X148953203Y-46143999D01*
X149055991Y-46154500D01*
X150356008Y-46154499D01*
X150458797Y-46143999D01*
X150625334Y-46088814D01*
X150774656Y-45996712D01*
X150898712Y-45872656D01*
X150990814Y-45723334D01*
X151045999Y-45556797D01*
X151056500Y-45454009D01*
X151056499Y-44804000D01*
X152050341Y-44804000D01*
X152070937Y-45039408D01*
X152072336Y-45044630D01*
X152072337Y-45044634D01*
X152130694Y-45262430D01*
X152130697Y-45262438D01*
X152132097Y-45267663D01*
X152134385Y-45272570D01*
X152134386Y-45272572D01*
X152229678Y-45476927D01*
X152229681Y-45476933D01*
X152231965Y-45481830D01*
X152235064Y-45486257D01*
X152235066Y-45486259D01*
X152364399Y-45670966D01*
X152364402Y-45670970D01*
X152367505Y-45675401D01*
X152534599Y-45842495D01*
X152539031Y-45845598D01*
X152539033Y-45845600D01*
X152557506Y-45858535D01*
X152728170Y-45978035D01*
X152942337Y-46077903D01*
X153170592Y-46139063D01*
X153406000Y-46159659D01*
X153641408Y-46139063D01*
X153869663Y-46077903D01*
X154083830Y-45978035D01*
X154277401Y-45842495D01*
X154444495Y-45675401D01*
X154580035Y-45481830D01*
X154679903Y-45267663D01*
X154741063Y-45039408D01*
X154761659Y-44804000D01*
X154741063Y-44568592D01*
X154679903Y-44340337D01*
X154580035Y-44126171D01*
X154444495Y-43932599D01*
X154277401Y-43765505D01*
X154272970Y-43762402D01*
X154272966Y-43762399D01*
X154088259Y-43633066D01*
X154088257Y-43633064D01*
X154083830Y-43629965D01*
X154078933Y-43627681D01*
X154078927Y-43627678D01*
X153874572Y-43532386D01*
X153874570Y-43532385D01*
X153869663Y-43530097D01*
X153864438Y-43528697D01*
X153864430Y-43528694D01*
X153646634Y-43470337D01*
X153646630Y-43470336D01*
X153641408Y-43468937D01*
X153636020Y-43468465D01*
X153636017Y-43468465D01*
X153411395Y-43448813D01*
X153406000Y-43448341D01*
X153400605Y-43448813D01*
X153175982Y-43468465D01*
X153175977Y-43468465D01*
X153170592Y-43468937D01*
X153165371Y-43470335D01*
X153165365Y-43470337D01*
X152947569Y-43528694D01*
X152947557Y-43528698D01*
X152942337Y-43530097D01*
X152937432Y-43532383D01*
X152937427Y-43532386D01*
X152733081Y-43627675D01*
X152733077Y-43627677D01*
X152728171Y-43629965D01*
X152723738Y-43633068D01*
X152723731Y-43633073D01*
X152539034Y-43762399D01*
X152539029Y-43762402D01*
X152534599Y-43765505D01*
X152530775Y-43769328D01*
X152530769Y-43769334D01*
X152371334Y-43928769D01*
X152371328Y-43928775D01*
X152367505Y-43932599D01*
X152364402Y-43937029D01*
X152364399Y-43937034D01*
X152235073Y-44121731D01*
X152235068Y-44121738D01*
X152231965Y-44126171D01*
X152229677Y-44131077D01*
X152229675Y-44131081D01*
X152134386Y-44335427D01*
X152134383Y-44335432D01*
X152132097Y-44340337D01*
X152130698Y-44345557D01*
X152130694Y-44345569D01*
X152072337Y-44563365D01*
X152072335Y-44563371D01*
X152070937Y-44568592D01*
X152050341Y-44804000D01*
X151056499Y-44804000D01*
X151056499Y-44153992D01*
X151045999Y-44051203D01*
X150990814Y-43884666D01*
X150919677Y-43769334D01*
X150902502Y-43741488D01*
X150902500Y-43741485D01*
X150898712Y-43735344D01*
X150774656Y-43611288D01*
X150768515Y-43607500D01*
X150768511Y-43607497D01*
X150631480Y-43522977D01*
X150625334Y-43519186D01*
X150472268Y-43468465D01*
X150465225Y-43466131D01*
X150465224Y-43466130D01*
X150458797Y-43464001D01*
X150452064Y-43463313D01*
X150452059Y-43463312D01*
X150359140Y-43453819D01*
X150359123Y-43453818D01*
X150356009Y-43453500D01*
X150352860Y-43453500D01*
X149059140Y-43453500D01*
X149059120Y-43453500D01*
X149055992Y-43453501D01*
X149052860Y-43453820D01*
X149052858Y-43453821D01*
X148959938Y-43463312D01*
X148959928Y-43463313D01*
X148953203Y-43464001D01*
X148946781Y-43466128D01*
X148946776Y-43466130D01*
X148793521Y-43516914D01*
X148793517Y-43516915D01*
X148786666Y-43519186D01*
X148780522Y-43522975D01*
X148780519Y-43522977D01*
X148643488Y-43607497D01*
X148643480Y-43607503D01*
X148637344Y-43611288D01*
X148632242Y-43616389D01*
X148632238Y-43616393D01*
X148518393Y-43730238D01*
X148518389Y-43730242D01*
X148513288Y-43735344D01*
X148509503Y-43741480D01*
X148509497Y-43741488D01*
X148424977Y-43878519D01*
X148421186Y-43884666D01*
X148418915Y-43891517D01*
X148418914Y-43891521D01*
X148390553Y-43977109D01*
X148366001Y-44051203D01*
X148365313Y-44057933D01*
X148365312Y-44057940D01*
X148355819Y-44150859D01*
X148355818Y-44150877D01*
X148355500Y-44153991D01*
X148355500Y-44157138D01*
X148355500Y-44157139D01*
X148355500Y-45450859D01*
X148355500Y-45450878D01*
X143926468Y-45450878D01*
X144011903Y-45267663D01*
X144073063Y-45039408D01*
X144093659Y-44804000D01*
X144073063Y-44568592D01*
X144011903Y-44340337D01*
X143912035Y-44126171D01*
X143776495Y-43932599D01*
X143609401Y-43765505D01*
X143604970Y-43762402D01*
X143604966Y-43762399D01*
X143420259Y-43633066D01*
X143420257Y-43633064D01*
X143415830Y-43629965D01*
X143410933Y-43627681D01*
X143410927Y-43627678D01*
X143206572Y-43532386D01*
X143206570Y-43532385D01*
X143201663Y-43530097D01*
X143196438Y-43528697D01*
X143196430Y-43528694D01*
X142978634Y-43470337D01*
X142978630Y-43470336D01*
X142973408Y-43468937D01*
X142968020Y-43468465D01*
X142968017Y-43468465D01*
X142743395Y-43448813D01*
X142738000Y-43448341D01*
X142732605Y-43448813D01*
X142507982Y-43468465D01*
X142507977Y-43468465D01*
X142502592Y-43468937D01*
X142497371Y-43470335D01*
X142497365Y-43470337D01*
X142279569Y-43528694D01*
X142279557Y-43528698D01*
X142274337Y-43530097D01*
X142269432Y-43532383D01*
X142269427Y-43532386D01*
X142065081Y-43627675D01*
X142065077Y-43627677D01*
X142060171Y-43629965D01*
X142055738Y-43633068D01*
X142055731Y-43633073D01*
X141871034Y-43762399D01*
X141871029Y-43762402D01*
X141866599Y-43765505D01*
X141862775Y-43769328D01*
X141862769Y-43769334D01*
X141703334Y-43928769D01*
X141703328Y-43928775D01*
X141699505Y-43932599D01*
X141696402Y-43937029D01*
X141696399Y-43937034D01*
X141567073Y-44121731D01*
X141567068Y-44121738D01*
X141563965Y-44126171D01*
X141561677Y-44131077D01*
X141561675Y-44131081D01*
X141466386Y-44335427D01*
X141466383Y-44335432D01*
X141464097Y-44340337D01*
X141462698Y-44345557D01*
X141462694Y-44345569D01*
X141404337Y-44563365D01*
X141404335Y-44563371D01*
X141402937Y-44568592D01*
X141382341Y-44804000D01*
X140388499Y-44804000D01*
X140388499Y-44153992D01*
X140377999Y-44051203D01*
X140322814Y-43884666D01*
X140251677Y-43769334D01*
X140234502Y-43741488D01*
X140234500Y-43741485D01*
X140230712Y-43735344D01*
X140106656Y-43611288D01*
X140100515Y-43607500D01*
X140100511Y-43607497D01*
X139963480Y-43522977D01*
X139957334Y-43519186D01*
X139804268Y-43468465D01*
X139797225Y-43466131D01*
X139797224Y-43466130D01*
X139790797Y-43464001D01*
X139784064Y-43463313D01*
X139784059Y-43463312D01*
X139691140Y-43453819D01*
X139691123Y-43453818D01*
X139688009Y-43453500D01*
X139684860Y-43453500D01*
X138391140Y-43453500D01*
X138391120Y-43453500D01*
X138387992Y-43453501D01*
X138384860Y-43453820D01*
X138384858Y-43453821D01*
X138291938Y-43463312D01*
X138291928Y-43463313D01*
X138285203Y-43464001D01*
X138278781Y-43466128D01*
X138278776Y-43466130D01*
X138125521Y-43516914D01*
X138125517Y-43516915D01*
X138118666Y-43519186D01*
X138112522Y-43522975D01*
X138112519Y-43522977D01*
X137975488Y-43607497D01*
X137975480Y-43607503D01*
X137969344Y-43611288D01*
X137964242Y-43616389D01*
X137964238Y-43616393D01*
X137850393Y-43730238D01*
X137850389Y-43730242D01*
X137845288Y-43735344D01*
X137841503Y-43741480D01*
X137841497Y-43741488D01*
X137756977Y-43878519D01*
X137753186Y-43884666D01*
X137750915Y-43891517D01*
X137750914Y-43891521D01*
X137722553Y-43977109D01*
X137698001Y-44051203D01*
X137697313Y-44057933D01*
X137697312Y-44057940D01*
X137687819Y-44150859D01*
X137687818Y-44150877D01*
X137687500Y-44153991D01*
X137687500Y-44157138D01*
X137687500Y-44157139D01*
X137687500Y-45450859D01*
X137687500Y-45450878D01*
X130837854Y-45450878D01*
X130885972Y-45157371D01*
X130905348Y-44800000D01*
X130885972Y-44442629D01*
X130828071Y-44089448D01*
X130732324Y-43744597D01*
X130599853Y-43412120D01*
X130432211Y-43095915D01*
X130231365Y-42799689D01*
X129999668Y-42526914D01*
X129997235Y-42524609D01*
X129997230Y-42524604D01*
X129742267Y-42283091D01*
X129739837Y-42280789D01*
X129454919Y-42064200D01*
X129452045Y-42062471D01*
X129452041Y-42062468D01*
X129325365Y-41986250D01*
X129281023Y-41940443D01*
X129265301Y-41878657D01*
X129282357Y-41817226D01*
X129327682Y-41772390D01*
X129389294Y-41756000D01*
X185810706Y-41756000D01*
X185872318Y-41772390D01*
G37*
%TD.AperFunction*%
%TD*%
M02*
