%TF.GenerationSoftware,KiCad,Pcbnew,(7.0.0)*%
%TF.CreationDate,2023-04-05T08:28:23-04:00*%
%TF.ProjectId,BREAD_BLDC,42524541-445f-4424-9c44-432e6b696361,rev?*%
%TF.SameCoordinates,Original*%
%TF.FileFunction,Soldermask,Top*%
%TF.FilePolarity,Negative*%
%FSLAX46Y46*%
G04 Gerber Fmt 4.6, Leading zero omitted, Abs format (unit mm)*
G04 Created by KiCad (PCBNEW (7.0.0)) date 2023-04-05 08:28:23*
%MOMM*%
%LPD*%
G01*
G04 APERTURE LIST*
G04 Aperture macros list*
%AMRoundRect*
0 Rectangle with rounded corners*
0 $1 Rounding radius*
0 $2 $3 $4 $5 $6 $7 $8 $9 X,Y pos of 4 corners*
0 Add a 4 corners polygon primitive as box body*
4,1,4,$2,$3,$4,$5,$6,$7,$8,$9,$2,$3,0*
0 Add four circle primitives for the rounded corners*
1,1,$1+$1,$2,$3*
1,1,$1+$1,$4,$5*
1,1,$1+$1,$6,$7*
1,1,$1+$1,$8,$9*
0 Add four rect primitives between the rounded corners*
20,1,$1+$1,$2,$3,$4,$5,0*
20,1,$1+$1,$4,$5,$6,$7,0*
20,1,$1+$1,$6,$7,$8,$9,0*
20,1,$1+$1,$8,$9,$2,$3,0*%
G04 Aperture macros list end*
%ADD10C,5.700000*%
%ADD11RoundRect,0.050000X-0.800000X-0.800000X0.800000X-0.800000X0.800000X0.800000X-0.800000X0.800000X0*%
%ADD12O,1.700000X1.700000*%
%ADD13RoundRect,0.050000X-0.600000X-0.600000X0.600000X-0.600000X0.600000X0.600000X-0.600000X0.600000X0*%
%ADD14C,1.300000*%
%ADD15RoundRect,0.050000X-0.850000X-0.850000X0.850000X-0.850000X0.850000X0.850000X-0.850000X0.850000X0*%
%ADD16O,1.800000X1.800000*%
%ADD17RoundRect,0.200000X-0.587500X-0.150000X0.587500X-0.150000X0.587500X0.150000X-0.587500X0.150000X0*%
%ADD18RoundRect,0.050000X-0.320000X0.950000X-0.320000X-0.950000X0.320000X-0.950000X0.320000X0.950000X0*%
%ADD19RoundRect,0.050000X0.320000X-0.950000X0.320000X0.950000X-0.320000X0.950000X-0.320000X-0.950000X0*%
%ADD20RoundRect,0.300000X-0.600000X0.600000X-0.600000X-0.600000X0.600000X-0.600000X0.600000X0.600000X0*%
%ADD21C,1.800000*%
%ADD22RoundRect,0.050000X1.120000X1.120000X-1.120000X1.120000X-1.120000X-1.120000X1.120000X-1.120000X0*%
%ADD23O,2.340000X2.340000*%
%ADD24RoundRect,0.200000X0.875000X0.150000X-0.875000X0.150000X-0.875000X-0.150000X0.875000X-0.150000X0*%
%ADD25RoundRect,0.200000X0.150000X-0.587500X0.150000X0.587500X-0.150000X0.587500X-0.150000X-0.587500X0*%
%ADD26RoundRect,0.050000X0.600000X-0.600000X0.600000X0.600000X-0.600000X0.600000X-0.600000X-0.600000X0*%
%ADD27C,1.500000*%
%ADD28O,1.500000X1.500000*%
%ADD29RoundRect,0.300000X-0.600000X-0.600000X0.600000X-0.600000X0.600000X0.600000X-0.600000X0.600000X0*%
%ADD30RoundRect,0.300000X0.600000X0.600000X-0.600000X0.600000X-0.600000X-0.600000X0.600000X-0.600000X0*%
G04 APERTURE END LIST*
D10*
%TO.C,H1*%
X127600000Y-44800000D03*
%TD*%
%TO.C,H2*%
X187600000Y-44800000D03*
%TD*%
%TO.C,H3*%
X127600000Y-134800000D03*
%TD*%
%TO.C,H4*%
X187600000Y-134800000D03*
%TD*%
D11*
%TO.C,A1*%
X135000000Y-100000000D03*
D12*
X134999999Y-102539999D03*
X134999999Y-105079999D03*
X134999999Y-107619999D03*
X134999999Y-110159999D03*
X134999999Y-112699999D03*
X134999999Y-115239999D03*
X134999999Y-117779999D03*
X134999999Y-120319999D03*
X134999999Y-122859999D03*
X134999999Y-125399999D03*
X134999999Y-127939999D03*
X134999999Y-130479999D03*
X134999999Y-133019999D03*
X134999999Y-135559999D03*
X150239999Y-135559999D03*
X150239999Y-133019999D03*
X150239999Y-130479999D03*
X150239999Y-127939999D03*
X150239999Y-125399999D03*
X150239999Y-122859999D03*
X150239999Y-120319999D03*
X150239999Y-117779999D03*
X150239999Y-115239999D03*
X150239999Y-112699999D03*
X150239999Y-110159999D03*
X150239999Y-107619999D03*
X150239999Y-105079999D03*
X150239999Y-102539999D03*
X150239999Y-99999999D03*
%TD*%
D13*
%TO.C,C2*%
X140912000Y-92048000D03*
D14*
X142412000Y-92048000D03*
%TD*%
D15*
%TO.C,J1*%
X129600000Y-78800000D03*
D16*
X129599999Y-81339999D03*
X129599999Y-83879999D03*
X129599999Y-86419999D03*
X129599999Y-88959999D03*
X129599999Y-91499999D03*
X129599999Y-94039999D03*
X129599999Y-96579999D03*
X129599999Y-99119999D03*
X129599999Y-101659999D03*
%TD*%
D13*
%TO.C,C1*%
X135593401Y-92048000D03*
D14*
X137093401Y-92048000D03*
%TD*%
D17*
%TO.C,Q6*%
X177535000Y-102802000D03*
X177535000Y-104702000D03*
X179410000Y-103752000D03*
%TD*%
D13*
%TO.C,C5*%
X144976000Y-59028000D03*
D14*
X146476000Y-59028000D03*
%TD*%
D18*
%TO.C,a2*%
X142285000Y-49629000D03*
X141015000Y-49629000D03*
X139745000Y-49629000D03*
X138475000Y-49629000D03*
D19*
X138475000Y-55219000D03*
X139745000Y-55219000D03*
X141015000Y-55219000D03*
X142285000Y-55219000D03*
%TD*%
D20*
%TO.C,J5*%
X190672000Y-89728000D03*
D21*
X190672000Y-93428000D03*
X190672000Y-97128000D03*
%TD*%
D22*
%TO.C,D3*%
X177886000Y-79348000D03*
D23*
X175345999Y-79347999D03*
%TD*%
D17*
%TO.C,Q4*%
X177535000Y-94146000D03*
X177535000Y-96046000D03*
X179410000Y-95096000D03*
%TD*%
D22*
%TO.C,D2*%
X177886000Y-72744000D03*
D23*
X175345999Y-72743999D03*
%TD*%
D24*
%TO.C,U1*%
X177034000Y-133704000D03*
X177034000Y-132434000D03*
X177034000Y-131164000D03*
X177034000Y-129894000D03*
X177034000Y-128624000D03*
X177034000Y-127354000D03*
X177034000Y-126084000D03*
X177034000Y-124814000D03*
X177034000Y-123544000D03*
X177034000Y-122274000D03*
X167734000Y-122274000D03*
X167734000Y-123544000D03*
X167734000Y-124814000D03*
X167734000Y-126084000D03*
X167734000Y-127354000D03*
X167734000Y-128624000D03*
X167734000Y-129894000D03*
X167734000Y-131164000D03*
X167734000Y-132434000D03*
X167734000Y-133704000D03*
%TD*%
D25*
%TO.C,Q5*%
X168886500Y-104669500D03*
X170786500Y-104669500D03*
X169836500Y-102794500D03*
%TD*%
%TO.C,Q1*%
X168886500Y-87397500D03*
X170786500Y-87397500D03*
X169836500Y-85522500D03*
%TD*%
D13*
%TO.C,C4*%
X148532000Y-64108000D03*
D14*
X150032000Y-64108000D03*
%TD*%
D25*
%TO.C,Q3*%
X168886500Y-96033500D03*
X170786500Y-96033500D03*
X169836500Y-94158500D03*
%TD*%
D13*
%TO.C,C6*%
X156152000Y-59028000D03*
D14*
X157652000Y-59028000D03*
%TD*%
D22*
%TO.C,D1*%
X177886000Y-65124000D03*
D23*
X175345999Y-65123999D03*
%TD*%
D13*
%TO.C,C10*%
X185377401Y-81888000D03*
D14*
X186877401Y-81888000D03*
%TD*%
D26*
%TO.C,C7*%
X162224000Y-122528000D03*
D14*
X162224000Y-121028000D03*
%TD*%
D27*
%TO.C,R1*%
X169382000Y-64108000D03*
D28*
X171281999Y-64107999D03*
%TD*%
D29*
%TO.C,J3*%
X149706000Y-44804000D03*
D21*
X153406000Y-44804000D03*
%TD*%
D18*
%TO.C,b1*%
X152953000Y-49629000D03*
X151683000Y-49629000D03*
X150413000Y-49629000D03*
X149143000Y-49629000D03*
D19*
X149143000Y-55219000D03*
X150413000Y-55219000D03*
X151683000Y-55219000D03*
X152953000Y-55219000D03*
%TD*%
D30*
%TO.C,J4*%
X173400000Y-58520000D03*
D21*
X169700000Y-58520000D03*
%TD*%
D27*
%TO.C,R3*%
X169340000Y-78332000D03*
D28*
X171239999Y-78331999D03*
%TD*%
D29*
%TO.C,J2*%
X139038000Y-44804000D03*
D21*
X142738000Y-44804000D03*
%TD*%
D17*
%TO.C,Q2*%
X177535000Y-85510000D03*
X177535000Y-87410000D03*
X179410000Y-86460000D03*
%TD*%
D13*
%TO.C,C9*%
X185377401Y-73252000D03*
D14*
X186877401Y-73252000D03*
%TD*%
D27*
%TO.C,R2*%
X169340000Y-71728000D03*
D28*
X171239999Y-71727999D03*
%TD*%
D13*
%TO.C,C8*%
X185377401Y-65124000D03*
D14*
X186877401Y-65124000D03*
%TD*%
D13*
%TO.C,C3*%
X138372000Y-64108000D03*
D14*
X139872000Y-64108000D03*
%TD*%
M02*
