%TF.GenerationSoftware,KiCad,Pcbnew,(7.0.0)*%
%TF.CreationDate,2023-04-05T08:28:23-04:00*%
%TF.ProjectId,BREAD_BLDC,42524541-445f-4424-9c44-432e6b696361,rev?*%
%TF.SameCoordinates,Original*%
%TF.FileFunction,Copper,L1,Top*%
%TF.FilePolarity,Positive*%
%FSLAX46Y46*%
G04 Gerber Fmt 4.6, Leading zero omitted, Abs format (unit mm)*
G04 Created by KiCad (PCBNEW (7.0.0)) date 2023-04-05 08:28:23*
%MOMM*%
%LPD*%
G01*
G04 APERTURE LIST*
G04 Aperture macros list*
%AMRoundRect*
0 Rectangle with rounded corners*
0 $1 Rounding radius*
0 $2 $3 $4 $5 $6 $7 $8 $9 X,Y pos of 4 corners*
0 Add a 4 corners polygon primitive as box body*
4,1,4,$2,$3,$4,$5,$6,$7,$8,$9,$2,$3,0*
0 Add four circle primitives for the rounded corners*
1,1,$1+$1,$2,$3*
1,1,$1+$1,$4,$5*
1,1,$1+$1,$6,$7*
1,1,$1+$1,$8,$9*
0 Add four rect primitives between the rounded corners*
20,1,$1+$1,$2,$3,$4,$5,0*
20,1,$1+$1,$4,$5,$6,$7,0*
20,1,$1+$1,$6,$7,$8,$9,0*
20,1,$1+$1,$8,$9,$2,$3,0*%
G04 Aperture macros list end*
%TA.AperFunction,ComponentPad*%
%ADD10C,5.600000*%
%TD*%
%TA.AperFunction,ComponentPad*%
%ADD11R,1.600000X1.600000*%
%TD*%
%TA.AperFunction,ComponentPad*%
%ADD12O,1.600000X1.600000*%
%TD*%
%TA.AperFunction,ComponentPad*%
%ADD13R,1.200000X1.200000*%
%TD*%
%TA.AperFunction,ComponentPad*%
%ADD14C,1.200000*%
%TD*%
%TA.AperFunction,ComponentPad*%
%ADD15R,1.700000X1.700000*%
%TD*%
%TA.AperFunction,ComponentPad*%
%ADD16O,1.700000X1.700000*%
%TD*%
%TA.AperFunction,SMDPad,CuDef*%
%ADD17RoundRect,0.150000X-0.587500X-0.150000X0.587500X-0.150000X0.587500X0.150000X-0.587500X0.150000X0*%
%TD*%
%TA.AperFunction,SMDPad,CuDef*%
%ADD18R,0.640000X1.900000*%
%TD*%
%TA.AperFunction,ComponentPad*%
%ADD19RoundRect,0.250000X-0.600000X0.600000X-0.600000X-0.600000X0.600000X-0.600000X0.600000X0.600000X0*%
%TD*%
%TA.AperFunction,ComponentPad*%
%ADD20C,1.700000*%
%TD*%
%TA.AperFunction,ComponentPad*%
%ADD21R,2.240000X2.240000*%
%TD*%
%TA.AperFunction,ComponentPad*%
%ADD22O,2.240000X2.240000*%
%TD*%
%TA.AperFunction,SMDPad,CuDef*%
%ADD23RoundRect,0.150000X0.875000X0.150000X-0.875000X0.150000X-0.875000X-0.150000X0.875000X-0.150000X0*%
%TD*%
%TA.AperFunction,SMDPad,CuDef*%
%ADD24RoundRect,0.150000X0.150000X-0.587500X0.150000X0.587500X-0.150000X0.587500X-0.150000X-0.587500X0*%
%TD*%
%TA.AperFunction,ComponentPad*%
%ADD25C,1.400000*%
%TD*%
%TA.AperFunction,ComponentPad*%
%ADD26O,1.400000X1.400000*%
%TD*%
%TA.AperFunction,ComponentPad*%
%ADD27RoundRect,0.250000X-0.600000X-0.600000X0.600000X-0.600000X0.600000X0.600000X-0.600000X0.600000X0*%
%TD*%
%TA.AperFunction,ComponentPad*%
%ADD28RoundRect,0.250000X0.600000X0.600000X-0.600000X0.600000X-0.600000X-0.600000X0.600000X-0.600000X0*%
%TD*%
%TA.AperFunction,ViaPad*%
%ADD29C,0.800000*%
%TD*%
%TA.AperFunction,Conductor*%
%ADD30C,0.250000*%
%TD*%
G04 APERTURE END LIST*
D10*
%TO.P,H1,1*%
%TO.N,N/C*%
X127600000Y-44800000D03*
%TD*%
%TO.P,H2,1*%
%TO.N,N/C*%
X187600000Y-44800000D03*
%TD*%
%TO.P,H3,1*%
%TO.N,N/C*%
X127600000Y-134800000D03*
%TD*%
%TO.P,H4,1*%
%TO.N,N/C*%
X187600000Y-134800000D03*
%TD*%
D11*
%TO.P,A1,1,D1/TX*%
%TO.N,unconnected-(A1-D1{slash}TX-Pad1)*%
X134999999Y-99999999D03*
D12*
%TO.P,A1,2,D0/RX*%
%TO.N,unconnected-(A1-D0{slash}RX-Pad2)*%
X134999999Y-102539999D03*
%TO.P,A1,3,~{RESET}*%
%TO.N,unconnected-(A1-~{RESET}-Pad3)*%
X134999999Y-105079999D03*
%TO.P,A1,4,GND*%
%TO.N,GND*%
X134999999Y-107619999D03*
%TO.P,A1,5,D2*%
%TO.N,/E_STOP*%
X134999999Y-110159999D03*
%TO.P,A1,6,D3*%
%TO.N,/SYNC*%
X134999999Y-112699999D03*
%TO.P,A1,7,D4*%
%TO.N,/INT*%
X134999999Y-115239999D03*
%TO.P,A1,8,D5*%
%TO.N,unconnected-(A1-D5-Pad8)*%
X134999999Y-117779999D03*
%TO.P,A1,9,D6*%
%TO.N,unconnected-(A1-D6-Pad9)*%
X134999999Y-120319999D03*
%TO.P,A1,10,D7*%
%TO.N,unconnected-(A1-D7-Pad10)*%
X134999999Y-122859999D03*
%TO.P,A1,11,D8*%
%TO.N,D8*%
X134999999Y-125399999D03*
%TO.P,A1,12,D9*%
%TO.N,D9*%
X134999999Y-127939999D03*
%TO.P,A1,13,D10*%
%TO.N,D10*%
X134999999Y-130479999D03*
%TO.P,A1,14,D11*%
%TO.N,D11*%
X134999999Y-133019999D03*
%TO.P,A1,15,D12*%
%TO.N,D12*%
X134999999Y-135559999D03*
%TO.P,A1,16,D13*%
%TO.N,D13*%
X150239999Y-135559999D03*
%TO.P,A1,17,3V3*%
%TO.N,unconnected-(A1-3V3-Pad17)*%
X150239999Y-133019999D03*
%TO.P,A1,18,AREF*%
%TO.N,unconnected-(A1-AREF-Pad18)*%
X150239999Y-130479999D03*
%TO.P,A1,19,A0*%
%TO.N,A0*%
X150239999Y-127939999D03*
%TO.P,A1,20,A1*%
%TO.N,A1*%
X150239999Y-125399999D03*
%TO.P,A1,21,A2*%
%TO.N,unconnected-(A1-A2-Pad21)*%
X150239999Y-122859999D03*
%TO.P,A1,22,A3*%
%TO.N,unconnected-(A1-A3-Pad22)*%
X150239999Y-120319999D03*
%TO.P,A1,23,A4*%
%TO.N,/I2C_DAT*%
X150239999Y-117779999D03*
%TO.P,A1,24,A5*%
%TO.N,/I2C_CLK*%
X150239999Y-115239999D03*
%TO.P,A1,25,A6*%
%TO.N,unconnected-(A1-A6-Pad25)*%
X150239999Y-112699999D03*
%TO.P,A1,26,A7*%
%TO.N,unconnected-(A1-A7-Pad26)*%
X150239999Y-110159999D03*
%TO.P,A1,27,+5V*%
%TO.N,+5V*%
X150239999Y-107619999D03*
%TO.P,A1,28,~{RESET}*%
%TO.N,unconnected-(A1-~{RESET}-Pad28)*%
X150239999Y-105079999D03*
%TO.P,A1,29,GND*%
%TO.N,GND*%
X150239999Y-102539999D03*
%TO.P,A1,30,VIN*%
%TO.N,+12V*%
X150239999Y-99999999D03*
%TD*%
D13*
%TO.P,C2,1*%
%TO.N,+5V*%
X140911999Y-92047999D03*
D14*
%TO.P,C2,2*%
%TO.N,GND*%
X142412000Y-92048000D03*
%TD*%
D15*
%TO.P,J1,1,Pin_1*%
%TO.N,GND*%
X129599999Y-78799999D03*
D16*
%TO.P,J1,2,Pin_2*%
%TO.N,+12V*%
X129599999Y-81339999D03*
%TO.P,J1,3,Pin_3*%
%TO.N,/I2C_CLK*%
X129599999Y-83879999D03*
%TO.P,J1,4,Pin_4*%
%TO.N,/I2C_DAT*%
X129599999Y-86419999D03*
%TO.P,J1,5,Pin_5*%
%TO.N,GND*%
X129599999Y-88959999D03*
%TO.P,J1,6,Pin_6*%
%TO.N,/E_STOP*%
X129599999Y-91499999D03*
%TO.P,J1,7,Pin_7*%
%TO.N,/SYNC*%
X129599999Y-94039999D03*
%TO.P,J1,8,Pin_8*%
%TO.N,/INT*%
X129599999Y-96579999D03*
%TO.P,J1,9,Pin_9*%
%TO.N,+12V*%
X129599999Y-99119999D03*
%TO.P,J1,10,Pin_10*%
%TO.N,GND*%
X129599999Y-101659999D03*
%TD*%
D13*
%TO.P,C1,1*%
%TO.N,+12V*%
X135593400Y-92047999D03*
D14*
%TO.P,C1,2*%
%TO.N,GND*%
X137093401Y-92048000D03*
%TD*%
D17*
%TO.P,Q6,1,G*%
%TO.N,Net-(Q6-G)*%
X177535000Y-102802000D03*
%TO.P,Q6,2,S*%
%TO.N,GND*%
X177535000Y-104702000D03*
%TO.P,Q6,3,D*%
%TO.N,Net-(J5-Pin_3)*%
X179410000Y-103752000D03*
%TD*%
D13*
%TO.P,C5,1*%
%TO.N,Net-(a2-FILTER)*%
X144975999Y-59027999D03*
D14*
%TO.P,C5,2*%
%TO.N,GND*%
X146476000Y-59028000D03*
%TD*%
D18*
%TO.P,a2,1,IP+*%
%TO.N,Net-(J2-Pin_2)*%
X142284999Y-49628999D03*
%TO.P,a2,2,IP+*%
X141014999Y-49628999D03*
%TO.P,a2,3,IP-*%
%TO.N,Net-(J2-Pin_1)*%
X139744999Y-49628999D03*
%TO.P,a2,4,IP-*%
X138474999Y-49628999D03*
%TO.P,a2,5,Vdd*%
%TO.N,Net-(a2-FILTER)*%
X138474999Y-55218999D03*
%TO.P,a2,6,Vout*%
%TO.N,A1*%
X139744999Y-55218999D03*
%TO.P,a2,7,FILTER*%
%TO.N,Net-(a2-FILTER)*%
X141014999Y-55218999D03*
%TO.P,a2,8,GND*%
%TO.N,GND*%
X142284999Y-55218999D03*
%TD*%
D19*
%TO.P,J5,1,Pin_1*%
%TO.N,Net-(J5-Pin_1)*%
X190672000Y-89728000D03*
D20*
%TO.P,J5,2,Pin_2*%
%TO.N,Net-(J5-Pin_2)*%
X190672000Y-93428000D03*
%TO.P,J5,3,Pin_3*%
%TO.N,Net-(J5-Pin_3)*%
X190672000Y-97128000D03*
%TD*%
D21*
%TO.P,D3,1,K*%
%TO.N,Net-(D3-K)*%
X177885999Y-79347999D03*
D22*
%TO.P,D3,2,A*%
%TO.N,Net-(D3-A)*%
X175345999Y-79347999D03*
%TD*%
D17*
%TO.P,Q4,1,G*%
%TO.N,Net-(Q4-G)*%
X177535000Y-94146000D03*
%TO.P,Q4,2,S*%
%TO.N,GND*%
X177535000Y-96046000D03*
%TO.P,Q4,3,D*%
%TO.N,Net-(J5-Pin_2)*%
X179410000Y-95096000D03*
%TD*%
D21*
%TO.P,D2,1,K*%
%TO.N,Net-(D2-K)*%
X177885999Y-72743999D03*
D22*
%TO.P,D2,2,A*%
%TO.N,Net-(D2-A)*%
X175345999Y-72743999D03*
%TD*%
D23*
%TO.P,U1,1,HIN1*%
%TO.N,D13*%
X177034000Y-133704000D03*
%TO.P,U1,2,LIN1*%
%TO.N,D12*%
X177034000Y-132434000D03*
%TO.P,U1,3,HIN2*%
%TO.N,D11*%
X177034000Y-131164000D03*
%TO.P,U1,4,LIN2*%
%TO.N,D10*%
X177034000Y-129894000D03*
%TO.P,U1,5,HIN3*%
%TO.N,D9*%
X177034000Y-128624000D03*
%TO.P,U1,6,LIN3*%
%TO.N,D8*%
X177034000Y-127354000D03*
%TO.P,U1,7,LO3*%
%TO.N,Net-(Q6-G)*%
X177034000Y-126084000D03*
%TO.P,U1,8,VS3*%
%TO.N,Net-(J5-Pin_3)*%
X177034000Y-124814000D03*
%TO.P,U1,9,HO3*%
%TO.N,Net-(Q5-G)*%
X177034000Y-123544000D03*
%TO.P,U1,10,VB3*%
%TO.N,Net-(D3-K)*%
X177034000Y-122274000D03*
%TO.P,U1,11,GND*%
%TO.N,GND*%
X167734000Y-122274000D03*
%TO.P,U1,12,VDD*%
%TO.N,+15V*%
X167734000Y-123544000D03*
%TO.P,U1,13,LO2*%
%TO.N,Net-(Q4-G)*%
X167734000Y-124814000D03*
%TO.P,U1,14,VS2*%
%TO.N,Net-(J5-Pin_2)*%
X167734000Y-126084000D03*
%TO.P,U1,15,HO2*%
%TO.N,Net-(Q3-G)*%
X167734000Y-127354000D03*
%TO.P,U1,16,VB2*%
%TO.N,Net-(D2-K)*%
X167734000Y-128624000D03*
%TO.P,U1,17,LO1*%
%TO.N,Net-(Q2-G)*%
X167734000Y-129894000D03*
%TO.P,U1,18,VS1*%
%TO.N,Net-(J5-Pin_1)*%
X167734000Y-131164000D03*
%TO.P,U1,19,HO1*%
%TO.N,Net-(Q1-G)*%
X167734000Y-132434000D03*
%TO.P,U1,20,VB1*%
%TO.N,Net-(D1-K)*%
X167734000Y-133704000D03*
%TD*%
D24*
%TO.P,Q5,1,G*%
%TO.N,Net-(Q5-G)*%
X168886500Y-104669500D03*
%TO.P,Q5,2,S*%
%TO.N,Net-(J5-Pin_3)*%
X170786500Y-104669500D03*
%TO.P,Q5,3,D*%
%TO.N,+15V*%
X169836500Y-102794500D03*
%TD*%
%TO.P,Q1,1,G*%
%TO.N,Net-(Q1-G)*%
X168886500Y-87397500D03*
%TO.P,Q1,2,S*%
%TO.N,Net-(J5-Pin_1)*%
X170786500Y-87397500D03*
%TO.P,Q1,3,D*%
%TO.N,+15V*%
X169836500Y-85522500D03*
%TD*%
D13*
%TO.P,C4,1*%
%TO.N,+5V*%
X148531999Y-64107999D03*
D14*
%TO.P,C4,2*%
%TO.N,Net-(b1-FILTER)*%
X150032000Y-64108000D03*
%TD*%
D24*
%TO.P,Q3,1,G*%
%TO.N,Net-(Q3-G)*%
X168886500Y-96033500D03*
%TO.P,Q3,2,S*%
%TO.N,Net-(J5-Pin_2)*%
X170786500Y-96033500D03*
%TO.P,Q3,3,D*%
%TO.N,+15V*%
X169836500Y-94158500D03*
%TD*%
D13*
%TO.P,C6,1*%
%TO.N,Net-(b1-FILTER)*%
X156151999Y-59027999D03*
D14*
%TO.P,C6,2*%
%TO.N,GND*%
X157652000Y-59028000D03*
%TD*%
D21*
%TO.P,D1,1,K*%
%TO.N,Net-(D1-K)*%
X177885999Y-65123999D03*
D22*
%TO.P,D1,2,A*%
%TO.N,Net-(D1-A)*%
X175345999Y-65123999D03*
%TD*%
D13*
%TO.P,C10,1*%
%TO.N,Net-(D3-K)*%
X185377400Y-81887999D03*
D14*
%TO.P,C10,2*%
%TO.N,Net-(J5-Pin_3)*%
X186877401Y-81888000D03*
%TD*%
D13*
%TO.P,C7,1*%
%TO.N,+15V*%
X162223999Y-122527999D03*
D14*
%TO.P,C7,2*%
%TO.N,GND*%
X162224000Y-121028000D03*
%TD*%
D25*
%TO.P,R1,1*%
%TO.N,+15V*%
X169382000Y-64108000D03*
D26*
%TO.P,R1,2*%
%TO.N,Net-(D1-A)*%
X171281999Y-64107999D03*
%TD*%
D27*
%TO.P,J3,1,Pin_1*%
%TO.N,Net-(J3-Pin_1)*%
X149706000Y-44804000D03*
D20*
%TO.P,J3,2,Pin_2*%
%TO.N,Net-(J3-Pin_2)*%
X153406000Y-44804000D03*
%TD*%
D18*
%TO.P,b1,1,IP+*%
%TO.N,Net-(J3-Pin_2)*%
X152952999Y-49628999D03*
%TO.P,b1,2,IP+*%
X151682999Y-49628999D03*
%TO.P,b1,3,IP-*%
%TO.N,Net-(J3-Pin_1)*%
X150412999Y-49628999D03*
%TO.P,b1,4,IP-*%
X149142999Y-49628999D03*
%TO.P,b1,5,Vdd*%
%TO.N,Net-(b1-FILTER)*%
X149142999Y-55218999D03*
%TO.P,b1,6,Vout*%
%TO.N,A0*%
X150412999Y-55218999D03*
%TO.P,b1,7,FILTER*%
%TO.N,Net-(b1-FILTER)*%
X151682999Y-55218999D03*
%TO.P,b1,8,GND*%
%TO.N,GND*%
X152952999Y-55218999D03*
%TD*%
D28*
%TO.P,J4,1,Pin_1*%
%TO.N,GND*%
X173400000Y-58520000D03*
D20*
%TO.P,J4,2,Pin_2*%
%TO.N,+15V*%
X169700000Y-58520000D03*
%TD*%
D25*
%TO.P,R3,1*%
%TO.N,+15V*%
X169340000Y-78332000D03*
D26*
%TO.P,R3,2*%
%TO.N,Net-(D3-A)*%
X171239999Y-78331999D03*
%TD*%
D27*
%TO.P,J2,1,Pin_1*%
%TO.N,Net-(J2-Pin_1)*%
X139038000Y-44804000D03*
D20*
%TO.P,J2,2,Pin_2*%
%TO.N,Net-(J2-Pin_2)*%
X142738000Y-44804000D03*
%TD*%
D17*
%TO.P,Q2,1,G*%
%TO.N,Net-(Q2-G)*%
X177535000Y-85510000D03*
%TO.P,Q2,2,S*%
%TO.N,GND*%
X177535000Y-87410000D03*
%TO.P,Q2,3,D*%
%TO.N,Net-(J5-Pin_1)*%
X179410000Y-86460000D03*
%TD*%
D13*
%TO.P,C9,1*%
%TO.N,Net-(D2-K)*%
X185377400Y-73251999D03*
D14*
%TO.P,C9,2*%
%TO.N,Net-(J5-Pin_2)*%
X186877401Y-73252000D03*
%TD*%
D25*
%TO.P,R2,1*%
%TO.N,+15V*%
X169340000Y-71728000D03*
D26*
%TO.P,R2,2*%
%TO.N,Net-(D2-A)*%
X171239999Y-71727999D03*
%TD*%
D13*
%TO.P,C8,1*%
%TO.N,Net-(D1-K)*%
X185377400Y-65123999D03*
D14*
%TO.P,C8,2*%
%TO.N,Net-(J5-Pin_1)*%
X186877401Y-65124000D03*
%TD*%
D13*
%TO.P,C3,1*%
%TO.N,+5V*%
X138371999Y-64107999D03*
D14*
%TO.P,C3,2*%
%TO.N,Net-(a2-FILTER)*%
X139872000Y-64108000D03*
%TD*%
D29*
%TO.N,GND*%
X175940000Y-87476000D03*
X175940000Y-104748000D03*
X175940000Y-96112000D03*
%TO.N,Net-(D3-K)*%
X176956000Y-122020000D03*
%TO.N,Net-(J5-Pin_3)*%
X170860000Y-104748000D03*
X176956000Y-125068000D03*
X179496000Y-103732000D03*
%TO.N,Net-(Q4-G)*%
X177464000Y-94080000D03*
X167812000Y-125068000D03*
%TO.N,Net-(Q5-G)*%
X176956000Y-123544000D03*
X168828000Y-104748000D03*
%TO.N,Net-(Q6-G)*%
X176956000Y-126084000D03*
X177464000Y-102716000D03*
%TD*%
D30*
%TO.N,GND*%
X154691528Y-55219000D02*
X152953000Y-55219000D01*
X166488000Y-121028000D02*
X162224000Y-121028000D01*
X157652000Y-59028000D02*
X157652000Y-58179472D01*
X157652000Y-58179472D02*
X154691528Y-55219000D01*
X175940000Y-87476000D02*
X175940000Y-104748000D01*
X176006000Y-87410000D02*
X175940000Y-87476000D01*
X177535000Y-87410000D02*
X176006000Y-87410000D01*
X175986000Y-104702000D02*
X175940000Y-104748000D01*
X177535000Y-104702000D02*
X175986000Y-104702000D01*
X176006000Y-96046000D02*
X175940000Y-96112000D01*
X177535000Y-96046000D02*
X176006000Y-96046000D01*
X146476000Y-59028000D02*
X146476000Y-58179472D01*
X167734000Y-122274000D02*
X166488000Y-121028000D01*
X143515528Y-55219000D02*
X142285000Y-55219000D01*
X146476000Y-58179472D02*
X143515528Y-55219000D01*
%TO.N,D8*%
X134361208Y-138610000D02*
X176575335Y-138610000D01*
X177923000Y-127481000D02*
X177112000Y-127481000D01*
X132368000Y-136616792D02*
X134361208Y-138610000D01*
X180262000Y-129820000D02*
X177923000Y-127481000D01*
X176575335Y-138610000D02*
X180262000Y-134923335D01*
X135000000Y-125400000D02*
X132368000Y-128032000D01*
X180262000Y-134923335D02*
X180262000Y-129820000D01*
X132368000Y-128032000D02*
X132368000Y-136616792D01*
%TO.N,D9*%
X132818000Y-136430396D02*
X132818000Y-130122000D01*
X176388939Y-138160000D02*
X134547604Y-138160000D01*
X179812000Y-134736939D02*
X176388939Y-138160000D01*
X179812000Y-130894000D02*
X179812000Y-134736939D01*
X134547604Y-138160000D02*
X132818000Y-136430396D01*
X177669000Y-128751000D02*
X179812000Y-130894000D01*
X132818000Y-130122000D02*
X135000000Y-127940000D01*
X177112000Y-128751000D02*
X177669000Y-128751000D01*
%TO.N,D10*%
X133268000Y-132212000D02*
X133268000Y-136244000D01*
X179362000Y-134550543D02*
X179362000Y-131538000D01*
X177845000Y-130021000D02*
X177112000Y-130021000D01*
X133268000Y-136244000D02*
X134734000Y-137710000D01*
X179362000Y-131538000D02*
X177845000Y-130021000D01*
X176202543Y-137710000D02*
X179362000Y-134550543D01*
X135000000Y-130480000D02*
X133268000Y-132212000D01*
X134734000Y-137710000D02*
X176202543Y-137710000D01*
%TO.N,D11*%
X133875000Y-136025991D02*
X133875000Y-134145000D01*
X133875000Y-134145000D02*
X135000000Y-133020000D01*
X178912000Y-132026000D02*
X178912000Y-134364147D01*
X177112000Y-131291000D02*
X178177000Y-131291000D01*
X178177000Y-131291000D02*
X178912000Y-132026000D01*
X178912000Y-134364147D02*
X176016147Y-137260000D01*
X176016147Y-137260000D02*
X135109009Y-137260000D01*
X135109009Y-137260000D02*
X133875000Y-136025991D01*
%TO.N,D12*%
X177239000Y-132688000D02*
X177112000Y-132561000D01*
X178462000Y-134177751D02*
X178462000Y-133100000D01*
X178462000Y-133100000D02*
X178050000Y-132688000D01*
X178050000Y-132688000D02*
X177239000Y-132688000D01*
X175954751Y-136685000D02*
X178462000Y-134177751D01*
X136125000Y-136685000D02*
X175954751Y-136685000D01*
X135000000Y-135560000D02*
X136125000Y-136685000D01*
%TO.N,/I2C_CLK*%
X151365000Y-128405991D02*
X151365000Y-116365000D01*
X136374000Y-115664991D02*
X149774009Y-129065000D01*
X136374000Y-94646000D02*
X136374000Y-115664991D01*
X134668401Y-88948401D02*
X134668401Y-92940401D01*
X151365000Y-116365000D02*
X150240000Y-115240000D01*
X150705991Y-129065000D02*
X151365000Y-128405991D01*
X149774009Y-129065000D02*
X150705991Y-129065000D01*
X129600000Y-83880000D02*
X134668401Y-88948401D01*
X134668401Y-92940401D02*
X136374000Y-94646000D01*
%TO.N,D13*%
X150915000Y-136235000D02*
X150240000Y-135560000D01*
X174708000Y-136235000D02*
X150915000Y-136235000D01*
X177112000Y-133831000D02*
X174708000Y-136235000D01*
%TO.N,A0*%
X135808000Y-89128396D02*
X138348000Y-91668396D01*
X138348000Y-94080000D02*
X136824000Y-95604000D01*
X136770000Y-53494000D02*
X135808000Y-54456000D01*
X149788000Y-56494000D02*
X148006000Y-56494000D01*
X150413000Y-55869000D02*
X149788000Y-56494000D01*
X136824000Y-114524000D02*
X150240000Y-127940000D01*
X145006000Y-53494000D02*
X136770000Y-53494000D01*
X136824000Y-95604000D02*
X136824000Y-114524000D01*
X150413000Y-55219000D02*
X150413000Y-55869000D01*
X138348000Y-91668396D02*
X138348000Y-94080000D01*
X135808000Y-54456000D02*
X135808000Y-89128396D01*
X148006000Y-56494000D02*
X145006000Y-53494000D01*
%TO.N,A1*%
X137274000Y-95790396D02*
X137274000Y-114337604D01*
X147211396Y-124275000D02*
X149115000Y-124275000D01*
X136316000Y-59298000D02*
X136316000Y-89000000D01*
X138798000Y-91482000D02*
X138798000Y-94266396D01*
X149115000Y-124275000D02*
X150240000Y-125400000D01*
X136316000Y-89000000D02*
X138798000Y-91482000D01*
X138798000Y-94266396D02*
X137274000Y-95790396D01*
X139745000Y-55219000D02*
X139745000Y-55869000D01*
X137274000Y-114337604D02*
X147211396Y-124275000D01*
X139745000Y-55869000D02*
X136316000Y-59298000D01*
%TO.N,+12V*%
X134534009Y-116365000D02*
X135465991Y-116365000D01*
X128425000Y-110255991D02*
X134534009Y-116365000D01*
X128425000Y-99160000D02*
X128425000Y-110255991D01*
X152064000Y-130246991D02*
X152064000Y-101192000D01*
X149115000Y-130014009D02*
X149115000Y-130945991D01*
X135465991Y-116365000D02*
X149115000Y-130014009D01*
X135358000Y-87098000D02*
X129600000Y-81340000D01*
X135358000Y-91812599D02*
X135358000Y-87098000D01*
X149774009Y-131605000D02*
X150705991Y-131605000D01*
X129560000Y-99160000D02*
X129600000Y-99120000D01*
X152064000Y-101192000D02*
X150872000Y-100000000D01*
X135593401Y-92048000D02*
X135358000Y-91812599D01*
X150705991Y-131605000D02*
X152064000Y-130246991D01*
X129600000Y-81340000D02*
X129600000Y-82218299D01*
X129600000Y-82218299D02*
X128425000Y-83393299D01*
X128425000Y-83393299D02*
X128425000Y-99160000D01*
X128425000Y-99160000D02*
X129560000Y-99160000D01*
X150872000Y-100000000D02*
X150240000Y-100000000D01*
X149115000Y-130945991D02*
X149774009Y-131605000D01*
%TO.N,Net-(J2-Pin_2)*%
X142285000Y-49629000D02*
X142285000Y-45257000D01*
X142285000Y-45257000D02*
X142738000Y-44804000D01*
X141015000Y-49629000D02*
X142285000Y-49629000D01*
%TO.N,Net-(J2-Pin_1)*%
X139745000Y-49629000D02*
X138475000Y-49629000D01*
X138475000Y-45367000D02*
X138475000Y-49629000D01*
X139038000Y-44804000D02*
X138475000Y-45367000D01*
%TO.N,Net-(a2-FILTER)*%
X139872000Y-64108000D02*
X144952000Y-59028000D01*
X140370000Y-53944000D02*
X139120000Y-53944000D01*
X144952000Y-59028000D02*
X144976000Y-59028000D01*
X141015000Y-55917000D02*
X141015000Y-55219000D01*
X144976000Y-59028000D02*
X144126000Y-59028000D01*
X139120000Y-53944000D02*
X138475000Y-54589000D01*
X141015000Y-54589000D02*
X140370000Y-53944000D01*
X141015000Y-55219000D02*
X141015000Y-54589000D01*
X138475000Y-54589000D02*
X138475000Y-55219000D01*
X144126000Y-59028000D02*
X141015000Y-55917000D01*
%TO.N,Net-(J3-Pin_2)*%
X152953000Y-49629000D02*
X152953000Y-45257000D01*
X151683000Y-49629000D02*
X152953000Y-49629000D01*
X152953000Y-45257000D02*
X153406000Y-44804000D01*
%TO.N,Net-(J3-Pin_1)*%
X149143000Y-45367000D02*
X149143000Y-49629000D01*
X149706000Y-44804000D02*
X149143000Y-45367000D01*
X149143000Y-49629000D02*
X150413000Y-49629000D01*
%TO.N,Net-(b1-FILTER)*%
X156152000Y-59028000D02*
X154292000Y-59028000D01*
X151072000Y-64108000D02*
X156152000Y-59028000D01*
X149788000Y-53944000D02*
X149143000Y-54589000D01*
X151683000Y-56419000D02*
X151683000Y-55219000D01*
X154292000Y-59028000D02*
X151683000Y-56419000D01*
X151038000Y-53944000D02*
X149788000Y-53944000D01*
X150032000Y-64108000D02*
X151072000Y-64108000D01*
X151683000Y-55219000D02*
X151683000Y-54589000D01*
X149143000Y-54589000D02*
X149143000Y-55219000D01*
X151683000Y-54589000D02*
X151038000Y-53944000D01*
%TO.N,Net-(D1-K)*%
X175346000Y-62584000D02*
X167304000Y-62584000D01*
X159176000Y-70712000D02*
X159176000Y-127228396D01*
X159176000Y-127228396D02*
X165651604Y-133704000D01*
X165651604Y-133704000D02*
X167734000Y-133704000D01*
X167304000Y-62584000D02*
X159176000Y-70712000D01*
X177886000Y-65124000D02*
X175346000Y-62584000D01*
%TO.N,Net-(J5-Pin_1)*%
X186877401Y-64275472D02*
X184677929Y-62076000D01*
X169084000Y-131928000D02*
X168320000Y-131164000D01*
X184677929Y-62076000D02*
X184068000Y-62076000D01*
X179496000Y-86374000D02*
X179410000Y-86460000D01*
X167175604Y-62076000D02*
X158668000Y-70583604D01*
X172384000Y-73760000D02*
X172384000Y-73662461D01*
X168414751Y-134720000D02*
X169084000Y-134050751D01*
X169084000Y-134050751D02*
X169084000Y-131928000D01*
X183970461Y-62076000D02*
X184068000Y-62076000D01*
X172265000Y-73879000D02*
X172384000Y-73760000D01*
X172265000Y-85919000D02*
X172265000Y-82904000D01*
X181528000Y-84342000D02*
X181528000Y-80364000D01*
X166031208Y-134720000D02*
X168414751Y-134720000D01*
X168320000Y-131164000D02*
X167734000Y-131164000D01*
X170786500Y-87397500D02*
X172265000Y-85919000D01*
X179410000Y-86460000D02*
X181528000Y-84342000D01*
X172265000Y-82904000D02*
X177464000Y-82904000D01*
X184068000Y-62076000D02*
X167175604Y-62076000D01*
X172265000Y-82904000D02*
X172265000Y-73879000D01*
X158668000Y-70583604D02*
X158668000Y-127356792D01*
X181528000Y-80364000D02*
X183052000Y-78840000D01*
X190672000Y-80872000D02*
X190672000Y-89728000D01*
X177464000Y-82904000D02*
X179496000Y-84936000D01*
X188640000Y-78840000D02*
X190672000Y-80872000D01*
X186877401Y-65124000D02*
X186877401Y-64275472D01*
X179496000Y-84936000D02*
X179496000Y-86374000D01*
X158668000Y-127356792D02*
X166031208Y-134720000D01*
X183052000Y-78840000D02*
X188640000Y-78840000D01*
X172384000Y-73662461D02*
X183970461Y-62076000D01*
%TO.N,Net-(D2-K)*%
X186158000Y-61626000D02*
X166989208Y-61626000D01*
X168160751Y-128624000D02*
X167734000Y-128624000D01*
X188640000Y-64108000D02*
X186158000Y-61626000D01*
X169534000Y-131267249D02*
X168805751Y-130539000D01*
X185592000Y-69696000D02*
X188640000Y-66648000D01*
X177886000Y-72744000D02*
X180934000Y-69696000D01*
X167307249Y-128624000D02*
X167734000Y-128624000D01*
X180934000Y-69696000D02*
X185592000Y-69696000D01*
X168601147Y-135170000D02*
X169534000Y-134237147D01*
X166288000Y-130144751D02*
X166288000Y-129643249D01*
X166989208Y-61626000D02*
X158218000Y-70397208D01*
X158218000Y-127666000D02*
X165722000Y-135170000D01*
X188640000Y-66648000D02*
X188640000Y-64108000D01*
X168805751Y-130539000D02*
X166682249Y-130539000D01*
X166288000Y-129643249D02*
X167307249Y-128624000D01*
X166682249Y-130539000D02*
X166288000Y-130144751D01*
X165722000Y-135170000D02*
X168601147Y-135170000D01*
X169534000Y-134237147D02*
X169534000Y-131267249D01*
X158218000Y-70397208D02*
X158218000Y-127666000D01*
%TO.N,Net-(J5-Pin_2)*%
X178319251Y-86785000D02*
X179410000Y-87875749D01*
X178597500Y-85163249D02*
X178597500Y-85856751D01*
X170786500Y-89453104D02*
X175354604Y-84885000D01*
X189148000Y-89000000D02*
X189148000Y-91904000D01*
X190099802Y-80936198D02*
X190099802Y-88048198D01*
X178319251Y-86135000D02*
X178319251Y-86785000D01*
X169779802Y-125132198D02*
X168828000Y-126084000D01*
X191847000Y-92253000D02*
X190672000Y-93428000D01*
X191847000Y-78221599D02*
X191847000Y-92253000D01*
X186877401Y-73252000D02*
X191847000Y-78221599D01*
X175354604Y-84885000D02*
X178319251Y-84885000D01*
X168828000Y-126084000D02*
X167734000Y-126084000D01*
X182036000Y-92470000D02*
X182036000Y-80492396D01*
X183180396Y-79348000D02*
X188511604Y-79348000D01*
X170786500Y-103253751D02*
X169779802Y-104260449D01*
X179410000Y-87875749D02*
X179410000Y-95096000D01*
X178319251Y-84885000D02*
X178597500Y-85163249D01*
X182036000Y-80492396D02*
X183180396Y-79348000D01*
X170786500Y-96033500D02*
X170786500Y-89453104D01*
X190099802Y-88048198D02*
X189148000Y-89000000D01*
X169779802Y-104260449D02*
X169779802Y-125132198D01*
X170786500Y-96033500D02*
X170786500Y-103253751D01*
X179410000Y-95096000D02*
X182036000Y-92470000D01*
X188511604Y-79348000D02*
X190099802Y-80936198D01*
X189148000Y-91904000D02*
X190672000Y-93428000D01*
X178597500Y-85856751D02*
X178319251Y-86135000D01*
%TO.N,Net-(D3-K)*%
X185377401Y-113930599D02*
X177288000Y-122020000D01*
X177288000Y-122020000D02*
X176956000Y-122020000D01*
X176956000Y-122352000D02*
X177034000Y-122274000D01*
X176956000Y-122020000D02*
X176956000Y-122352000D01*
X185377401Y-81888000D02*
X185377401Y-113930599D01*
%TO.N,Net-(J5-Pin_3)*%
X188698000Y-88813604D02*
X189649802Y-87861802D01*
X179496000Y-103666000D02*
X182544000Y-100618000D01*
X188698000Y-95154000D02*
X188698000Y-88813604D01*
X179496000Y-103732000D02*
X179496000Y-103666000D01*
X183560000Y-79856000D02*
X185693929Y-79856000D01*
X179410000Y-103752000D02*
X179430000Y-103732000D01*
X186877401Y-81039472D02*
X186877401Y-81888000D01*
X185693929Y-79856000D02*
X186877401Y-81039472D01*
X179430000Y-103732000D02*
X179496000Y-103732000D01*
X189649802Y-84660401D02*
X186877401Y-81888000D01*
X182544000Y-80872000D02*
X183560000Y-79856000D01*
X190672000Y-97128000D02*
X188698000Y-95154000D01*
X182544000Y-100618000D02*
X182544000Y-80872000D01*
X189649802Y-87861802D02*
X189649802Y-84660401D01*
%TO.N,Net-(Q1-G)*%
X165018000Y-132434000D02*
X167734000Y-132434000D01*
X159684000Y-127100000D02*
X165018000Y-132434000D01*
X159684000Y-96600000D02*
X159684000Y-127100000D01*
X168886500Y-87397500D02*
X159684000Y-96600000D01*
%TO.N,Net-(Q2-G)*%
X172892000Y-87984000D02*
X172892000Y-126084000D01*
X172892000Y-126084000D02*
X169082000Y-129894000D01*
X177469000Y-85444000D02*
X175432000Y-85444000D01*
X177535000Y-85510000D02*
X177469000Y-85444000D01*
X169082000Y-129894000D02*
X167734000Y-129894000D01*
X175432000Y-85444000D02*
X172892000Y-87984000D01*
%TO.N,Net-(Q3-G)*%
X160192000Y-124560000D02*
X162986000Y-127354000D01*
X168886500Y-96033500D02*
X168886500Y-96561500D01*
X168886500Y-96561500D02*
X160192000Y-105256000D01*
X160192000Y-105256000D02*
X160192000Y-124560000D01*
X162986000Y-127354000D02*
X167734000Y-127354000D01*
%TD*%
%TA.AperFunction,Conductor*%
%TO.N,+15V*%
G36*
X168373041Y-63228073D02*
G01*
X168418763Y-63278229D01*
X168431234Y-63344942D01*
X168406717Y-63408227D01*
X168360820Y-63469002D01*
X168354813Y-63478704D01*
X168260793Y-63667522D01*
X168256670Y-63678167D01*
X168198948Y-63881041D01*
X168196850Y-63892263D01*
X168177388Y-64102291D01*
X168177388Y-64113709D01*
X168196850Y-64323736D01*
X168198948Y-64334958D01*
X168256670Y-64537832D01*
X168260793Y-64548477D01*
X168354813Y-64737295D01*
X168360822Y-64747000D01*
X168362419Y-64749113D01*
X168373549Y-64757385D01*
X168385713Y-64750732D01*
X169294318Y-63842127D01*
X169349905Y-63810033D01*
X169414093Y-63810033D01*
X169469680Y-63842127D01*
X170131783Y-64504230D01*
X170157483Y-64543671D01*
X170157771Y-64543528D01*
X170160324Y-64548655D01*
X170254387Y-64737559D01*
X170254389Y-64737563D01*
X170256942Y-64742689D01*
X170260391Y-64747256D01*
X170260394Y-64747261D01*
X170387561Y-64915658D01*
X170387566Y-64915663D01*
X170391019Y-64920236D01*
X170395255Y-64924097D01*
X170395259Y-64924102D01*
X170474676Y-64996500D01*
X170555438Y-65070124D01*
X170744599Y-65187247D01*
X170952060Y-65267618D01*
X171170757Y-65308500D01*
X171387514Y-65308500D01*
X171393243Y-65308500D01*
X171611940Y-65267618D01*
X171819401Y-65187247D01*
X172008562Y-65070124D01*
X172172981Y-64920236D01*
X172307058Y-64742689D01*
X172406229Y-64543528D01*
X172467115Y-64329536D01*
X172487643Y-64108000D01*
X172467115Y-63886464D01*
X172406229Y-63672472D01*
X172307058Y-63473311D01*
X172257909Y-63408227D01*
X172233392Y-63344941D01*
X172245863Y-63278228D01*
X172291585Y-63228073D01*
X172356863Y-63209500D01*
X175035548Y-63209500D01*
X175083001Y-63218939D01*
X175123229Y-63245819D01*
X175183522Y-63306112D01*
X175216960Y-63367218D01*
X175212178Y-63436709D01*
X175170685Y-63492659D01*
X175105574Y-63517410D01*
X175096576Y-63518118D01*
X175096559Y-63518120D01*
X175091714Y-63518502D01*
X175086986Y-63519636D01*
X175086980Y-63519638D01*
X174848425Y-63576909D01*
X174848413Y-63576912D01*
X174843689Y-63578047D01*
X174839192Y-63579909D01*
X174839188Y-63579911D01*
X174612537Y-63673793D01*
X174612533Y-63673795D01*
X174608033Y-63675659D01*
X174603880Y-63678203D01*
X174603874Y-63678207D01*
X174394707Y-63806385D01*
X174394698Y-63806391D01*
X174390549Y-63808934D01*
X174386849Y-63812093D01*
X174386838Y-63812102D01*
X174200297Y-63971423D01*
X174200290Y-63971429D01*
X174196590Y-63974590D01*
X174193429Y-63978290D01*
X174193423Y-63978297D01*
X174034102Y-64164838D01*
X174034093Y-64164849D01*
X174030934Y-64168549D01*
X174028391Y-64172698D01*
X174028385Y-64172707D01*
X173900207Y-64381874D01*
X173900203Y-64381880D01*
X173897659Y-64386033D01*
X173895795Y-64390533D01*
X173895793Y-64390537D01*
X173830297Y-64548658D01*
X173800047Y-64621689D01*
X173798912Y-64626413D01*
X173798909Y-64626425D01*
X173741638Y-64864980D01*
X173741636Y-64864986D01*
X173740502Y-64869714D01*
X173740120Y-64874564D01*
X173740120Y-64874566D01*
X173733690Y-64956272D01*
X173720489Y-65124000D01*
X173740502Y-65378286D01*
X173741637Y-65383015D01*
X173741638Y-65383019D01*
X173798909Y-65621574D01*
X173798911Y-65621582D01*
X173800047Y-65626311D01*
X173897659Y-65861967D01*
X173900206Y-65866124D01*
X173900207Y-65866125D01*
X174027868Y-66074449D01*
X174030934Y-66079451D01*
X174034098Y-66083156D01*
X174034102Y-66083161D01*
X174123709Y-66188077D01*
X174196590Y-66273410D01*
X174200297Y-66276576D01*
X174386838Y-66435897D01*
X174386841Y-66435899D01*
X174390549Y-66439066D01*
X174608033Y-66572341D01*
X174843689Y-66669953D01*
X175091714Y-66729498D01*
X175346000Y-66749511D01*
X175600286Y-66729498D01*
X175848311Y-66669953D01*
X176083967Y-66572341D01*
X176195083Y-66504248D01*
X176252789Y-66486179D01*
X176312184Y-66497553D01*
X176359135Y-66535666D01*
X176403137Y-66594445D01*
X176403141Y-66594449D01*
X176408454Y-66601546D01*
X176523669Y-66687796D01*
X176658517Y-66738091D01*
X176718127Y-66744500D01*
X178118007Y-66744499D01*
X178174302Y-66758014D01*
X178218325Y-66795614D01*
X178240480Y-66849101D01*
X178235938Y-66906817D01*
X178205688Y-66956180D01*
X171996696Y-73165172D01*
X171988511Y-73172620D01*
X171982123Y-73176675D01*
X171976788Y-73182355D01*
X171976783Y-73182360D01*
X171936096Y-73225686D01*
X171933392Y-73228477D01*
X171916628Y-73245241D01*
X171916621Y-73245248D01*
X171913880Y-73247990D01*
X171911500Y-73251057D01*
X171911489Y-73251070D01*
X171911400Y-73251186D01*
X171903842Y-73260031D01*
X171879280Y-73286188D01*
X171879273Y-73286197D01*
X171873938Y-73291879D01*
X171870182Y-73298710D01*
X171870179Y-73298715D01*
X171864285Y-73309436D01*
X171853609Y-73325688D01*
X171846109Y-73335357D01*
X171846101Y-73335368D01*
X171841327Y-73341525D01*
X171838234Y-73348669D01*
X171838229Y-73348680D01*
X171823974Y-73381621D01*
X171818838Y-73392104D01*
X171801560Y-73423534D01*
X171797803Y-73430369D01*
X171795864Y-73437917D01*
X171795863Y-73437922D01*
X171794270Y-73444129D01*
X171764561Y-73498170D01*
X171760276Y-73502732D01*
X171760271Y-73502738D01*
X171754938Y-73508418D01*
X171751182Y-73515249D01*
X171751179Y-73515254D01*
X171745285Y-73525975D01*
X171734609Y-73542227D01*
X171727109Y-73551896D01*
X171727101Y-73551907D01*
X171722327Y-73558064D01*
X171719234Y-73565208D01*
X171719229Y-73565219D01*
X171704974Y-73598160D01*
X171699838Y-73608643D01*
X171678803Y-73646908D01*
X171676864Y-73654456D01*
X171676863Y-73654461D01*
X171673822Y-73666307D01*
X171667521Y-73684711D01*
X171662658Y-73695948D01*
X171662656Y-73695952D01*
X171659562Y-73703104D01*
X171658342Y-73710803D01*
X171658342Y-73710805D01*
X171652729Y-73746241D01*
X171650361Y-73757676D01*
X171641438Y-73792428D01*
X171641436Y-73792436D01*
X171639500Y-73799981D01*
X171639500Y-73807777D01*
X171639500Y-73820017D01*
X171637974Y-73839402D01*
X171634840Y-73859196D01*
X171635574Y-73866961D01*
X171635574Y-73866964D01*
X171638950Y-73902676D01*
X171639500Y-73914345D01*
X171639500Y-77036057D01*
X171627747Y-77088750D01*
X171594717Y-77131454D01*
X171546670Y-77156075D01*
X171492715Y-77157946D01*
X171356872Y-77132552D01*
X171356869Y-77132551D01*
X171351243Y-77131500D01*
X171128757Y-77131500D01*
X171123131Y-77132551D01*
X171123127Y-77132552D01*
X170915697Y-77171328D01*
X170915694Y-77171328D01*
X170910060Y-77172382D01*
X170904717Y-77174451D01*
X170904713Y-77174453D01*
X170707941Y-77250683D01*
X170707936Y-77250685D01*
X170702599Y-77252753D01*
X170697727Y-77255769D01*
X170697724Y-77255771D01*
X170518309Y-77366859D01*
X170518301Y-77366864D01*
X170513438Y-77369876D01*
X170509207Y-77373732D01*
X170509203Y-77373736D01*
X170353259Y-77515897D01*
X170353249Y-77515907D01*
X170349019Y-77519764D01*
X170345570Y-77524330D01*
X170345561Y-77524341D01*
X170218394Y-77692738D01*
X170218387Y-77692748D01*
X170214942Y-77697311D01*
X170212392Y-77702431D01*
X170212387Y-77702440D01*
X170118322Y-77891347D01*
X170118318Y-77891355D01*
X170117001Y-77893999D01*
X170116998Y-77894006D01*
X170115771Y-77896472D01*
X170115484Y-77896329D01*
X170089783Y-77935768D01*
X169705096Y-78320456D01*
X169698431Y-78332000D01*
X169705095Y-78343542D01*
X170089783Y-78728230D01*
X170115483Y-78767671D01*
X170115771Y-78767528D01*
X170118324Y-78772655D01*
X170212387Y-78961559D01*
X170212389Y-78961563D01*
X170214942Y-78966689D01*
X170218391Y-78971256D01*
X170218394Y-78971261D01*
X170345561Y-79139658D01*
X170345566Y-79139663D01*
X170349019Y-79144236D01*
X170353255Y-79148097D01*
X170353259Y-79148102D01*
X170465603Y-79250517D01*
X170513438Y-79294124D01*
X170702599Y-79411247D01*
X170910060Y-79491618D01*
X171128757Y-79532500D01*
X171345514Y-79532500D01*
X171351243Y-79532500D01*
X171492715Y-79506054D01*
X171546670Y-79507925D01*
X171594717Y-79532546D01*
X171627747Y-79575250D01*
X171639500Y-79627943D01*
X171639500Y-82833151D01*
X171637304Y-82856386D01*
X171637233Y-82856753D01*
X171637232Y-82856760D01*
X171635773Y-82864412D01*
X171636262Y-82872189D01*
X171636262Y-82872195D01*
X171639255Y-82919759D01*
X171639500Y-82927545D01*
X171639500Y-85608548D01*
X171630061Y-85656001D01*
X171603181Y-85696229D01*
X171166813Y-86132595D01*
X171109975Y-86165017D01*
X171051602Y-86164104D01*
X171051383Y-86165308D01*
X171045155Y-86164170D01*
X171039069Y-86162402D01*
X171032758Y-86161905D01*
X171032751Y-86161904D01*
X171004628Y-86159691D01*
X171004614Y-86159690D01*
X171002194Y-86159500D01*
X170760500Y-86159500D01*
X170698500Y-86142887D01*
X170653113Y-86097500D01*
X170636500Y-86035500D01*
X170636500Y-85788826D01*
X170633049Y-85775950D01*
X170620174Y-85772500D01*
X170102826Y-85772500D01*
X170089950Y-85775950D01*
X170086500Y-85788826D01*
X170086500Y-86428185D01*
X170069232Y-86491306D01*
X170038727Y-86542886D01*
X170038724Y-86542891D01*
X170034756Y-86549602D01*
X170032580Y-86557091D01*
X170032579Y-86557094D01*
X169990670Y-86701342D01*
X169990668Y-86701351D01*
X169988902Y-86707431D01*
X169988405Y-86713739D01*
X169988404Y-86713748D01*
X169986191Y-86741871D01*
X169986190Y-86741886D01*
X169986000Y-86744306D01*
X169986000Y-88050694D01*
X169986190Y-88053114D01*
X169986191Y-88053128D01*
X169988404Y-88081251D01*
X169988405Y-88081258D01*
X169988902Y-88087569D01*
X169990668Y-88093650D01*
X169990670Y-88093657D01*
X170023260Y-88205829D01*
X170034756Y-88245398D01*
X170038726Y-88252111D01*
X170038727Y-88252113D01*
X170114446Y-88380148D01*
X170114448Y-88380151D01*
X170118419Y-88386865D01*
X170234635Y-88503081D01*
X170376102Y-88586744D01*
X170478636Y-88616533D01*
X170533089Y-88649316D01*
X170564145Y-88704772D01*
X170563646Y-88768330D01*
X170531722Y-88823289D01*
X170403409Y-88951602D01*
X170399196Y-88955816D01*
X170391011Y-88963263D01*
X170384623Y-88967318D01*
X170379288Y-88972998D01*
X170379283Y-88973003D01*
X170338596Y-89016329D01*
X170335892Y-89019120D01*
X170319128Y-89035884D01*
X170319121Y-89035891D01*
X170316380Y-89038633D01*
X170314000Y-89041700D01*
X170313989Y-89041713D01*
X170313900Y-89041829D01*
X170306342Y-89050674D01*
X170281780Y-89076831D01*
X170281773Y-89076840D01*
X170276438Y-89082522D01*
X170272682Y-89089353D01*
X170272679Y-89089358D01*
X170266785Y-89100079D01*
X170256109Y-89116331D01*
X170248609Y-89126000D01*
X170248601Y-89126011D01*
X170243827Y-89132168D01*
X170240734Y-89139312D01*
X170240729Y-89139323D01*
X170226474Y-89172264D01*
X170221338Y-89182747D01*
X170200303Y-89221012D01*
X170198364Y-89228560D01*
X170198363Y-89228565D01*
X170195322Y-89240411D01*
X170189021Y-89258815D01*
X170184158Y-89270052D01*
X170184156Y-89270056D01*
X170181062Y-89277208D01*
X170179842Y-89284907D01*
X170179842Y-89284909D01*
X170174229Y-89320345D01*
X170171861Y-89331780D01*
X170162938Y-89366532D01*
X170162936Y-89366540D01*
X170161000Y-89374085D01*
X170161000Y-89381881D01*
X170161000Y-89394121D01*
X170159474Y-89413506D01*
X170156340Y-89433300D01*
X170157074Y-89441065D01*
X170157074Y-89441068D01*
X170160450Y-89476780D01*
X170161000Y-89488449D01*
X170161000Y-92811868D01*
X170148213Y-92866711D01*
X170112488Y-92910242D01*
X170103531Y-92914300D01*
X170090624Y-92926232D01*
X170086500Y-92940856D01*
X170086500Y-95064185D01*
X170069232Y-95127306D01*
X170038727Y-95178886D01*
X170038724Y-95178891D01*
X170034756Y-95185602D01*
X170032580Y-95193091D01*
X170032579Y-95193094D01*
X169990670Y-95337342D01*
X169990668Y-95337351D01*
X169988902Y-95343431D01*
X169988405Y-95349739D01*
X169988404Y-95349748D01*
X169986191Y-95377871D01*
X169986190Y-95377886D01*
X169986000Y-95380306D01*
X169986000Y-96686694D01*
X169986190Y-96689114D01*
X169986191Y-96689128D01*
X169988404Y-96717251D01*
X169988405Y-96717258D01*
X169988902Y-96723569D01*
X169990668Y-96729650D01*
X169990670Y-96729657D01*
X170032067Y-96872143D01*
X170034756Y-96881398D01*
X170038726Y-96888111D01*
X170038727Y-96888113D01*
X170114446Y-97016148D01*
X170114448Y-97016151D01*
X170118419Y-97022865D01*
X170123937Y-97028382D01*
X170123937Y-97028383D01*
X170124681Y-97029127D01*
X170125717Y-97030677D01*
X170128717Y-97034545D01*
X170128443Y-97034757D01*
X170151561Y-97069355D01*
X170161000Y-97116808D01*
X170161000Y-101447868D01*
X170148213Y-101502711D01*
X170112488Y-101546242D01*
X170103531Y-101550300D01*
X170090624Y-101562232D01*
X170086500Y-101576856D01*
X170086500Y-102920500D01*
X170069887Y-102982500D01*
X170024500Y-103027887D01*
X169962500Y-103044500D01*
X169052826Y-103044500D01*
X169039950Y-103047950D01*
X169036500Y-103060826D01*
X169036500Y-103307500D01*
X169019887Y-103369500D01*
X168974500Y-103414887D01*
X168912500Y-103431500D01*
X168670806Y-103431500D01*
X168668386Y-103431690D01*
X168668371Y-103431691D01*
X168640248Y-103433904D01*
X168640239Y-103433905D01*
X168633931Y-103434402D01*
X168627851Y-103436168D01*
X168627842Y-103436170D01*
X168483594Y-103478079D01*
X168483591Y-103478080D01*
X168476102Y-103480256D01*
X168469391Y-103484224D01*
X168469386Y-103484227D01*
X168341351Y-103559946D01*
X168341344Y-103559950D01*
X168334635Y-103563919D01*
X168329120Y-103569433D01*
X168329116Y-103569437D01*
X168223937Y-103674616D01*
X168223933Y-103674620D01*
X168218419Y-103680135D01*
X168214450Y-103686844D01*
X168214446Y-103686851D01*
X168138727Y-103814886D01*
X168138724Y-103814891D01*
X168134756Y-103821602D01*
X168132580Y-103829091D01*
X168132579Y-103829094D01*
X168090670Y-103973342D01*
X168090668Y-103973351D01*
X168088902Y-103979431D01*
X168088405Y-103985739D01*
X168088404Y-103985748D01*
X168086191Y-104013871D01*
X168086190Y-104013886D01*
X168086000Y-104016306D01*
X168086000Y-104018751D01*
X168086000Y-104198956D01*
X168069387Y-104260956D01*
X168004069Y-104374089D01*
X168004066Y-104374094D01*
X168000821Y-104379716D01*
X167998815Y-104385888D01*
X167998813Y-104385894D01*
X167944333Y-104553564D01*
X167944331Y-104553573D01*
X167942326Y-104559744D01*
X167941648Y-104566194D01*
X167941646Y-104566204D01*
X167923962Y-104734464D01*
X167922540Y-104748000D01*
X167923219Y-104754460D01*
X167941646Y-104929795D01*
X167941647Y-104929803D01*
X167942326Y-104936256D01*
X167944331Y-104942428D01*
X167944333Y-104942435D01*
X167998813Y-105110105D01*
X168000821Y-105116284D01*
X168004068Y-105121908D01*
X168004069Y-105121910D01*
X168069387Y-105235044D01*
X168086000Y-105297044D01*
X168086000Y-105322694D01*
X168086190Y-105325114D01*
X168086191Y-105325128D01*
X168088404Y-105353251D01*
X168088405Y-105353258D01*
X168088902Y-105359569D01*
X168090668Y-105365650D01*
X168090670Y-105365657D01*
X168129729Y-105500095D01*
X168134756Y-105517398D01*
X168138726Y-105524111D01*
X168138727Y-105524113D01*
X168214446Y-105652148D01*
X168214448Y-105652151D01*
X168218419Y-105658865D01*
X168334635Y-105775081D01*
X168476102Y-105858744D01*
X168633931Y-105904598D01*
X168670806Y-105907500D01*
X168673251Y-105907500D01*
X169030302Y-105907500D01*
X169092302Y-105924113D01*
X169137689Y-105969500D01*
X169154302Y-106031500D01*
X169154302Y-121473352D01*
X169137527Y-121535633D01*
X169091739Y-121581062D01*
X169029329Y-121597348D01*
X168967181Y-121580084D01*
X168876113Y-121526227D01*
X168876111Y-121526226D01*
X168869398Y-121522256D01*
X168861905Y-121520079D01*
X168717657Y-121478170D01*
X168717650Y-121478168D01*
X168711569Y-121476402D01*
X168705258Y-121475905D01*
X168705251Y-121475904D01*
X168677128Y-121473691D01*
X168677114Y-121473690D01*
X168674694Y-121473500D01*
X168672249Y-121473500D01*
X167869452Y-121473500D01*
X167821999Y-121464061D01*
X167781771Y-121437181D01*
X166985286Y-120640695D01*
X166977842Y-120632514D01*
X166973786Y-120626123D01*
X166924775Y-120580098D01*
X166921978Y-120577387D01*
X166905227Y-120560636D01*
X166905227Y-120560635D01*
X166902471Y-120557880D01*
X166899290Y-120555412D01*
X166890414Y-120547830D01*
X166864269Y-120523278D01*
X166864267Y-120523276D01*
X166858582Y-120517938D01*
X166851749Y-120514182D01*
X166851743Y-120514177D01*
X166841025Y-120508285D01*
X166824766Y-120497606D01*
X166815095Y-120490104D01*
X166815092Y-120490102D01*
X166808936Y-120485327D01*
X166801779Y-120482229D01*
X166801776Y-120482228D01*
X166768849Y-120467978D01*
X166758363Y-120462841D01*
X166726932Y-120445562D01*
X166726923Y-120445558D01*
X166720092Y-120441803D01*
X166712535Y-120439862D01*
X166712531Y-120439861D01*
X166700688Y-120436820D01*
X166682284Y-120430519D01*
X166671057Y-120425660D01*
X166671050Y-120425658D01*
X166663896Y-120422562D01*
X166656192Y-120421341D01*
X166656190Y-120421341D01*
X166620759Y-120415729D01*
X166609324Y-120413361D01*
X166574571Y-120404438D01*
X166574563Y-120404437D01*
X166567019Y-120402500D01*
X166559223Y-120402500D01*
X166546983Y-120402500D01*
X166527597Y-120400974D01*
X166507804Y-120397840D01*
X166500038Y-120398574D01*
X166500035Y-120398574D01*
X166464324Y-120401950D01*
X166452655Y-120402500D01*
X163192433Y-120402500D01*
X163137161Y-120389500D01*
X163093479Y-120353227D01*
X163044221Y-120287998D01*
X163044217Y-120287994D01*
X163040764Y-120283421D01*
X163036527Y-120279558D01*
X163036523Y-120279554D01*
X162894275Y-120149879D01*
X162894276Y-120149879D01*
X162890041Y-120146019D01*
X162885171Y-120143004D01*
X162885169Y-120143002D01*
X162721511Y-120041670D01*
X162721512Y-120041670D01*
X162716637Y-120038652D01*
X162711294Y-120036582D01*
X162531803Y-119967047D01*
X162531798Y-119967045D01*
X162526456Y-119964976D01*
X162520818Y-119963922D01*
X162331605Y-119928552D01*
X162331602Y-119928551D01*
X162325976Y-119927500D01*
X162122024Y-119927500D01*
X162116398Y-119928551D01*
X162116394Y-119928552D01*
X161927181Y-119963922D01*
X161927178Y-119963922D01*
X161921544Y-119964976D01*
X161916203Y-119967044D01*
X161916196Y-119967047D01*
X161736705Y-120036582D01*
X161736700Y-120036584D01*
X161731363Y-120038652D01*
X161726491Y-120041668D01*
X161726488Y-120041670D01*
X161562830Y-120143002D01*
X161562822Y-120143007D01*
X161557959Y-120146019D01*
X161553728Y-120149875D01*
X161553724Y-120149879D01*
X161411476Y-120279554D01*
X161411466Y-120279564D01*
X161407236Y-120283421D01*
X161403787Y-120287987D01*
X161403778Y-120287998D01*
X161287779Y-120441607D01*
X161287776Y-120441611D01*
X161284327Y-120446179D01*
X161281774Y-120451304D01*
X161281772Y-120451309D01*
X161195976Y-120623612D01*
X161193418Y-120628750D01*
X161191850Y-120634258D01*
X161191847Y-120634268D01*
X161139173Y-120819395D01*
X161139170Y-120819406D01*
X161137603Y-120824917D01*
X161118785Y-121028000D01*
X161119314Y-121033709D01*
X161127263Y-121119500D01*
X161137603Y-121231083D01*
X161139171Y-121236594D01*
X161139173Y-121236604D01*
X161191848Y-121421733D01*
X161193418Y-121427250D01*
X161195973Y-121432381D01*
X161231602Y-121503935D01*
X161244096Y-121570388D01*
X161219869Y-121633516D01*
X161185962Y-121678811D01*
X161177547Y-121694222D01*
X161133111Y-121813358D01*
X161129573Y-121828332D01*
X161124353Y-121876885D01*
X161124000Y-121883482D01*
X161124000Y-122261674D01*
X161127450Y-122274549D01*
X161140326Y-122278000D01*
X163307674Y-122278000D01*
X163320549Y-122274549D01*
X163324000Y-122261674D01*
X163324000Y-121883482D01*
X163323646Y-121876885D01*
X163318427Y-121828337D01*
X163313153Y-121806020D01*
X163312781Y-121750604D01*
X163336586Y-121700560D01*
X163379813Y-121665883D01*
X163433829Y-121653500D01*
X166164115Y-121653500D01*
X166226396Y-121670276D01*
X166271825Y-121716063D01*
X166288111Y-121778474D01*
X166270847Y-121840620D01*
X166257256Y-121863602D01*
X166255080Y-121871091D01*
X166255079Y-121871094D01*
X166213170Y-122015342D01*
X166213168Y-122015351D01*
X166211402Y-122021431D01*
X166210905Y-122027739D01*
X166210904Y-122027748D01*
X166208691Y-122055871D01*
X166208690Y-122055886D01*
X166208500Y-122058306D01*
X166208500Y-122489694D01*
X166208690Y-122492114D01*
X166208691Y-122492128D01*
X166210904Y-122520251D01*
X166210905Y-122520258D01*
X166211402Y-122526569D01*
X166213168Y-122532650D01*
X166213170Y-122532657D01*
X166255079Y-122676905D01*
X166257256Y-122684398D01*
X166340919Y-122825865D01*
X166346438Y-122831384D01*
X166348008Y-122833408D01*
X166371043Y-122882358D01*
X166371044Y-122936456D01*
X166348012Y-122985407D01*
X166337346Y-122999158D01*
X166261689Y-123127087D01*
X166255541Y-123141294D01*
X166214307Y-123283223D01*
X166215713Y-123290293D01*
X166228856Y-123294000D01*
X167860000Y-123294000D01*
X167922000Y-123310613D01*
X167967387Y-123356000D01*
X167984000Y-123418000D01*
X167984000Y-123670000D01*
X167967387Y-123732000D01*
X167922000Y-123777387D01*
X167860000Y-123794000D01*
X166228856Y-123794000D01*
X166215713Y-123797706D01*
X166214307Y-123804776D01*
X166255541Y-123946705D01*
X166261689Y-123960912D01*
X166337345Y-124088839D01*
X166348008Y-124102586D01*
X166371043Y-124151536D01*
X166371044Y-124205635D01*
X166348012Y-124254585D01*
X166346431Y-124256622D01*
X166340919Y-124262135D01*
X166336949Y-124268847D01*
X166336948Y-124268849D01*
X166261227Y-124396886D01*
X166261224Y-124396891D01*
X166257256Y-124403602D01*
X166255080Y-124411091D01*
X166255079Y-124411094D01*
X166213170Y-124555342D01*
X166213168Y-124555351D01*
X166211402Y-124561431D01*
X166210905Y-124567739D01*
X166210904Y-124567748D01*
X166208691Y-124595871D01*
X166208690Y-124595886D01*
X166208500Y-124598306D01*
X166208500Y-125029694D01*
X166208690Y-125032114D01*
X166208691Y-125032128D01*
X166210904Y-125060251D01*
X166210905Y-125060258D01*
X166211402Y-125066569D01*
X166213168Y-125072650D01*
X166213170Y-125072657D01*
X166255079Y-125216905D01*
X166257256Y-125224398D01*
X166261226Y-125231111D01*
X166261227Y-125231113D01*
X166306753Y-125308094D01*
X166340919Y-125365865D01*
X166346432Y-125371378D01*
X166347691Y-125373001D01*
X166370725Y-125421951D01*
X166370725Y-125476049D01*
X166347691Y-125524999D01*
X166346432Y-125526621D01*
X166340919Y-125532135D01*
X166336951Y-125538844D01*
X166336949Y-125538847D01*
X166261227Y-125666886D01*
X166261224Y-125666891D01*
X166257256Y-125673602D01*
X166255080Y-125681091D01*
X166255079Y-125681094D01*
X166213170Y-125825342D01*
X166213168Y-125825351D01*
X166211402Y-125831431D01*
X166210905Y-125837739D01*
X166210904Y-125837748D01*
X166208691Y-125865871D01*
X166208690Y-125865886D01*
X166208500Y-125868306D01*
X166208500Y-126299694D01*
X166208690Y-126302114D01*
X166208691Y-126302128D01*
X166210904Y-126330251D01*
X166210905Y-126330258D01*
X166211402Y-126336569D01*
X166213168Y-126342650D01*
X166213170Y-126342657D01*
X166238104Y-126428477D01*
X166257256Y-126494398D01*
X166261227Y-126501113D01*
X166261229Y-126501117D01*
X166285040Y-126541380D01*
X166302304Y-126603527D01*
X166286018Y-126665937D01*
X166240589Y-126711725D01*
X166178308Y-126728500D01*
X163296452Y-126728500D01*
X163248999Y-126719061D01*
X163208771Y-126692181D01*
X160853819Y-124337228D01*
X160826939Y-124297000D01*
X160817500Y-124249547D01*
X160817500Y-123172518D01*
X161124000Y-123172518D01*
X161124353Y-123179114D01*
X161129573Y-123227667D01*
X161133111Y-123242641D01*
X161177547Y-123361777D01*
X161185962Y-123377189D01*
X161261498Y-123478092D01*
X161273907Y-123490501D01*
X161374810Y-123566037D01*
X161390222Y-123574452D01*
X161509358Y-123618888D01*
X161524332Y-123622426D01*
X161572885Y-123627646D01*
X161579482Y-123628000D01*
X161957674Y-123628000D01*
X161970549Y-123624549D01*
X161974000Y-123611674D01*
X162474000Y-123611674D01*
X162477450Y-123624549D01*
X162490326Y-123628000D01*
X162868518Y-123628000D01*
X162875114Y-123627646D01*
X162923667Y-123622426D01*
X162938641Y-123618888D01*
X163057777Y-123574452D01*
X163073189Y-123566037D01*
X163174092Y-123490501D01*
X163186501Y-123478092D01*
X163262037Y-123377189D01*
X163270452Y-123361777D01*
X163314888Y-123242641D01*
X163318426Y-123227667D01*
X163323646Y-123179114D01*
X163324000Y-123172518D01*
X163324000Y-122794326D01*
X163320549Y-122781450D01*
X163307674Y-122778000D01*
X162490326Y-122778000D01*
X162477450Y-122781450D01*
X162474000Y-122794326D01*
X162474000Y-123611674D01*
X161974000Y-123611674D01*
X161974000Y-122794326D01*
X161970549Y-122781450D01*
X161957674Y-122778000D01*
X161140326Y-122778000D01*
X161127450Y-122781450D01*
X161124000Y-122794326D01*
X161124000Y-123172518D01*
X160817500Y-123172518D01*
X160817500Y-105566452D01*
X160826939Y-105518999D01*
X160853819Y-105478771D01*
X163804416Y-102528174D01*
X169036500Y-102528174D01*
X169039950Y-102541049D01*
X169052826Y-102544500D01*
X169570174Y-102544500D01*
X169583049Y-102541049D01*
X169586500Y-102528174D01*
X169586500Y-101576856D01*
X169582793Y-101563713D01*
X169575723Y-101562307D01*
X169433794Y-101603541D01*
X169419587Y-101609689D01*
X169291661Y-101685344D01*
X169279425Y-101694835D01*
X169174335Y-101799925D01*
X169164844Y-101812161D01*
X169089189Y-101940087D01*
X169083041Y-101954294D01*
X169041168Y-102098420D01*
X169038902Y-102110826D01*
X169036691Y-102138923D01*
X169036500Y-102143803D01*
X169036500Y-102528174D01*
X163804416Y-102528174D01*
X164884722Y-101447868D01*
X169025234Y-97307356D01*
X169060999Y-97282430D01*
X169103183Y-97271422D01*
X169139069Y-97268598D01*
X169296898Y-97222744D01*
X169438365Y-97139081D01*
X169554581Y-97022865D01*
X169638244Y-96881398D01*
X169684098Y-96723569D01*
X169687000Y-96686694D01*
X169687000Y-95380306D01*
X169684098Y-95343431D01*
X169638244Y-95185602D01*
X169603768Y-95127306D01*
X169586500Y-95064185D01*
X169586500Y-94424826D01*
X169583049Y-94411950D01*
X169570174Y-94408500D01*
X169052826Y-94408500D01*
X169039950Y-94411950D01*
X169036500Y-94424826D01*
X169036500Y-94671500D01*
X169019887Y-94733500D01*
X168974500Y-94778887D01*
X168912500Y-94795500D01*
X168670806Y-94795500D01*
X168668386Y-94795690D01*
X168668371Y-94795691D01*
X168640248Y-94797904D01*
X168640239Y-94797905D01*
X168633931Y-94798402D01*
X168627851Y-94800168D01*
X168627842Y-94800170D01*
X168483594Y-94842079D01*
X168483591Y-94842080D01*
X168476102Y-94844256D01*
X168469391Y-94848224D01*
X168469386Y-94848227D01*
X168341351Y-94923946D01*
X168341344Y-94923950D01*
X168334635Y-94927919D01*
X168329120Y-94933433D01*
X168329116Y-94933437D01*
X168223937Y-95038616D01*
X168223933Y-95038620D01*
X168218419Y-95044135D01*
X168214450Y-95050844D01*
X168214446Y-95050851D01*
X168138727Y-95178886D01*
X168138724Y-95178891D01*
X168134756Y-95185602D01*
X168132580Y-95193091D01*
X168132579Y-95193094D01*
X168090670Y-95337342D01*
X168090668Y-95337351D01*
X168088902Y-95343431D01*
X168088405Y-95349739D01*
X168088404Y-95349748D01*
X168086191Y-95377871D01*
X168086190Y-95377886D01*
X168086000Y-95380306D01*
X168086000Y-95382751D01*
X168086000Y-96426048D01*
X168076561Y-96473501D01*
X168049681Y-96513729D01*
X160521181Y-104042228D01*
X160471818Y-104072478D01*
X160414102Y-104077020D01*
X160360615Y-104054865D01*
X160323015Y-104010842D01*
X160309500Y-103954547D01*
X160309500Y-96910452D01*
X160318939Y-96862999D01*
X160345819Y-96822771D01*
X163276416Y-93892174D01*
X169036500Y-93892174D01*
X169039950Y-93905049D01*
X169052826Y-93908500D01*
X169570174Y-93908500D01*
X169583049Y-93905049D01*
X169586500Y-93892174D01*
X169586500Y-92940856D01*
X169582793Y-92927713D01*
X169575723Y-92926307D01*
X169433794Y-92967541D01*
X169419587Y-92973689D01*
X169291661Y-93049344D01*
X169279425Y-93058835D01*
X169174335Y-93163925D01*
X169164844Y-93176161D01*
X169089189Y-93304087D01*
X169083041Y-93318294D01*
X169041168Y-93462420D01*
X169038902Y-93474826D01*
X169036691Y-93502923D01*
X169036500Y-93507803D01*
X169036500Y-93892174D01*
X163276416Y-93892174D01*
X164356722Y-92811868D01*
X168506187Y-88662402D01*
X168563030Y-88629980D01*
X168621394Y-88630897D01*
X168621615Y-88629692D01*
X168627843Y-88630829D01*
X168633931Y-88632598D01*
X168670806Y-88635500D01*
X169099749Y-88635500D01*
X169102194Y-88635500D01*
X169139069Y-88632598D01*
X169296898Y-88586744D01*
X169438365Y-88503081D01*
X169554581Y-88386865D01*
X169638244Y-88245398D01*
X169684098Y-88087569D01*
X169687000Y-88050694D01*
X169687000Y-86744306D01*
X169684098Y-86707431D01*
X169638244Y-86549602D01*
X169603768Y-86491306D01*
X169586500Y-86428185D01*
X169586500Y-85788826D01*
X169583049Y-85775950D01*
X169570174Y-85772500D01*
X169052826Y-85772500D01*
X169039950Y-85775950D01*
X169036500Y-85788826D01*
X169036500Y-86035500D01*
X169019887Y-86097500D01*
X168974500Y-86142887D01*
X168912500Y-86159500D01*
X168670806Y-86159500D01*
X168668386Y-86159690D01*
X168668371Y-86159691D01*
X168640248Y-86161904D01*
X168640239Y-86161905D01*
X168633931Y-86162402D01*
X168627851Y-86164168D01*
X168627842Y-86164170D01*
X168483594Y-86206079D01*
X168483591Y-86206080D01*
X168476102Y-86208256D01*
X168469391Y-86212224D01*
X168469386Y-86212227D01*
X168341351Y-86287946D01*
X168341344Y-86287950D01*
X168334635Y-86291919D01*
X168329120Y-86297433D01*
X168329116Y-86297437D01*
X168223937Y-86402616D01*
X168223933Y-86402620D01*
X168218419Y-86408135D01*
X168214450Y-86414844D01*
X168214446Y-86414851D01*
X168138727Y-86542886D01*
X168138724Y-86542891D01*
X168134756Y-86549602D01*
X168132580Y-86557091D01*
X168132579Y-86557094D01*
X168090670Y-86701342D01*
X168090668Y-86701351D01*
X168088902Y-86707431D01*
X168088405Y-86713739D01*
X168088404Y-86713748D01*
X168086191Y-86741871D01*
X168086190Y-86741886D01*
X168086000Y-86744306D01*
X168086000Y-86746751D01*
X168086000Y-87262047D01*
X168076561Y-87309500D01*
X168049681Y-87349728D01*
X160403681Y-94995727D01*
X160354318Y-95025977D01*
X160296602Y-95030519D01*
X160243115Y-95008364D01*
X160205515Y-94964341D01*
X160192000Y-94908046D01*
X160192000Y-85256174D01*
X169036500Y-85256174D01*
X169039950Y-85269049D01*
X169052826Y-85272500D01*
X169570174Y-85272500D01*
X169583049Y-85269049D01*
X169586500Y-85256174D01*
X170086500Y-85256174D01*
X170089950Y-85269049D01*
X170102826Y-85272500D01*
X170620174Y-85272500D01*
X170633049Y-85269049D01*
X170636500Y-85256174D01*
X170636500Y-84871803D01*
X170636308Y-84866923D01*
X170634097Y-84838826D01*
X170631831Y-84826420D01*
X170589958Y-84682294D01*
X170583810Y-84668087D01*
X170508155Y-84540161D01*
X170498664Y-84527925D01*
X170393574Y-84422835D01*
X170381338Y-84413344D01*
X170253412Y-84337689D01*
X170239205Y-84331541D01*
X170097276Y-84290307D01*
X170090206Y-84291713D01*
X170086500Y-84304856D01*
X170086500Y-85256174D01*
X169586500Y-85256174D01*
X169586500Y-84304856D01*
X169582793Y-84291713D01*
X169575723Y-84290307D01*
X169433794Y-84331541D01*
X169419587Y-84337689D01*
X169291661Y-84413344D01*
X169279425Y-84422835D01*
X169174335Y-84527925D01*
X169164844Y-84540161D01*
X169089189Y-84668087D01*
X169083041Y-84682294D01*
X169041168Y-84826420D01*
X169038902Y-84838826D01*
X169036691Y-84866923D01*
X169036500Y-84871803D01*
X169036500Y-85256174D01*
X160192000Y-85256174D01*
X160192000Y-79338417D01*
X168690658Y-79338417D01*
X168698595Y-79346263D01*
X168797951Y-79407782D01*
X168808163Y-79412867D01*
X169004851Y-79489064D01*
X169015834Y-79492189D01*
X169223173Y-79530947D01*
X169234533Y-79532000D01*
X169445467Y-79532000D01*
X169456826Y-79530947D01*
X169664165Y-79492189D01*
X169675148Y-79489064D01*
X169871830Y-79412869D01*
X169882055Y-79407777D01*
X169981402Y-79346263D01*
X169989340Y-79338417D01*
X169983410Y-79328963D01*
X169351542Y-78697095D01*
X169339999Y-78690431D01*
X169328457Y-78697095D01*
X168696588Y-79328963D01*
X168690658Y-79338417D01*
X160192000Y-79338417D01*
X160192000Y-78337709D01*
X168135388Y-78337709D01*
X168154850Y-78547736D01*
X168156948Y-78558958D01*
X168214670Y-78761832D01*
X168218793Y-78772477D01*
X168312813Y-78961295D01*
X168318822Y-78971000D01*
X168320419Y-78973113D01*
X168331549Y-78981385D01*
X168343713Y-78974732D01*
X168974904Y-78343542D01*
X168981568Y-78332000D01*
X168974904Y-78320457D01*
X168343715Y-77689268D01*
X168331548Y-77682613D01*
X168320420Y-77690884D01*
X168318821Y-77693001D01*
X168312814Y-77702703D01*
X168218793Y-77891522D01*
X168214670Y-77902167D01*
X168156948Y-78105041D01*
X168154850Y-78116263D01*
X168135388Y-78326291D01*
X168135388Y-78337709D01*
X160192000Y-78337709D01*
X160192000Y-77325581D01*
X168690659Y-77325581D01*
X168696589Y-77335036D01*
X169328457Y-77966904D01*
X169340000Y-77973568D01*
X169351542Y-77966904D01*
X169983409Y-77335036D01*
X169989339Y-77325581D01*
X169981403Y-77317736D01*
X169882049Y-77256218D01*
X169871836Y-77251132D01*
X169675148Y-77174935D01*
X169664165Y-77171810D01*
X169456826Y-77133052D01*
X169445467Y-77132000D01*
X169234533Y-77132000D01*
X169223173Y-77133052D01*
X169015834Y-77171810D01*
X169004851Y-77174935D01*
X168808163Y-77251132D01*
X168797950Y-77256218D01*
X168698594Y-77317736D01*
X168690659Y-77325581D01*
X160192000Y-77325581D01*
X160192000Y-72792234D01*
X160200435Y-72747281D01*
X160208437Y-72734417D01*
X168690658Y-72734417D01*
X168698595Y-72742263D01*
X168797951Y-72803782D01*
X168808163Y-72808867D01*
X169004851Y-72885064D01*
X169015834Y-72888189D01*
X169223173Y-72926947D01*
X169234533Y-72928000D01*
X169445467Y-72928000D01*
X169456826Y-72926947D01*
X169664165Y-72888189D01*
X169675148Y-72885064D01*
X169871830Y-72808869D01*
X169882055Y-72803777D01*
X169981402Y-72742263D01*
X169989340Y-72734417D01*
X169983410Y-72724963D01*
X169351542Y-72093095D01*
X169340000Y-72086431D01*
X169328457Y-72093095D01*
X168696588Y-72724963D01*
X168690658Y-72734417D01*
X160208437Y-72734417D01*
X160224593Y-72708444D01*
X160537344Y-72367261D01*
X161118100Y-71733709D01*
X168135388Y-71733709D01*
X168154850Y-71943736D01*
X168156948Y-71954958D01*
X168214670Y-72157832D01*
X168218793Y-72168477D01*
X168312813Y-72357295D01*
X168318822Y-72367000D01*
X168320419Y-72369113D01*
X168331549Y-72377385D01*
X168343713Y-72370732D01*
X168974904Y-71739542D01*
X168981568Y-71728000D01*
X169698431Y-71728000D01*
X169705095Y-71739542D01*
X170089783Y-72124230D01*
X170115483Y-72163671D01*
X170115771Y-72163528D01*
X170118324Y-72168655D01*
X170212387Y-72357559D01*
X170212389Y-72357563D01*
X170214942Y-72362689D01*
X170218391Y-72367256D01*
X170218394Y-72367261D01*
X170345561Y-72535658D01*
X170345566Y-72535663D01*
X170349019Y-72540236D01*
X170353255Y-72544097D01*
X170353259Y-72544102D01*
X170415475Y-72600819D01*
X170513438Y-72690124D01*
X170702599Y-72807247D01*
X170910060Y-72887618D01*
X171128757Y-72928500D01*
X171345514Y-72928500D01*
X171351243Y-72928500D01*
X171569940Y-72887618D01*
X171777401Y-72807247D01*
X171966562Y-72690124D01*
X172130981Y-72540236D01*
X172265058Y-72362689D01*
X172364229Y-72163528D01*
X172425115Y-71949536D01*
X172445643Y-71728000D01*
X172425115Y-71506464D01*
X172364229Y-71292472D01*
X172265058Y-71093311D01*
X172260205Y-71086884D01*
X172134438Y-70920341D01*
X172134434Y-70920337D01*
X172130981Y-70915764D01*
X172126744Y-70911901D01*
X172126740Y-70911897D01*
X171970796Y-70769736D01*
X171970797Y-70769736D01*
X171966562Y-70765876D01*
X171961692Y-70762861D01*
X171961690Y-70762859D01*
X171782275Y-70651771D01*
X171782276Y-70651771D01*
X171777401Y-70648753D01*
X171569940Y-70568382D01*
X171564302Y-70567328D01*
X171356872Y-70528552D01*
X171356869Y-70528551D01*
X171351243Y-70527500D01*
X171128757Y-70527500D01*
X171123131Y-70528551D01*
X171123127Y-70528552D01*
X170915697Y-70567328D01*
X170915694Y-70567328D01*
X170910060Y-70568382D01*
X170904717Y-70570451D01*
X170904713Y-70570453D01*
X170707941Y-70646683D01*
X170707936Y-70646685D01*
X170702599Y-70648753D01*
X170697727Y-70651769D01*
X170697724Y-70651771D01*
X170518309Y-70762859D01*
X170518301Y-70762864D01*
X170513438Y-70765876D01*
X170509207Y-70769732D01*
X170509203Y-70769736D01*
X170353259Y-70911897D01*
X170353249Y-70911907D01*
X170349019Y-70915764D01*
X170345570Y-70920330D01*
X170345561Y-70920341D01*
X170218394Y-71088738D01*
X170218387Y-71088748D01*
X170214942Y-71093311D01*
X170212392Y-71098431D01*
X170212387Y-71098440D01*
X170118322Y-71287347D01*
X170118318Y-71287355D01*
X170117001Y-71289999D01*
X170116998Y-71290006D01*
X170115771Y-71292472D01*
X170115484Y-71292329D01*
X170089783Y-71331768D01*
X169705096Y-71716456D01*
X169698431Y-71728000D01*
X168981568Y-71728000D01*
X168974904Y-71716457D01*
X168343715Y-71085268D01*
X168331548Y-71078613D01*
X168320420Y-71086884D01*
X168318821Y-71089001D01*
X168312814Y-71098703D01*
X168218793Y-71287522D01*
X168214670Y-71298167D01*
X168156948Y-71501041D01*
X168154850Y-71512263D01*
X168135388Y-71722291D01*
X168135388Y-71733709D01*
X161118100Y-71733709D01*
X162045884Y-70721581D01*
X168690659Y-70721581D01*
X168696589Y-70731036D01*
X169328457Y-71362904D01*
X169340000Y-71369568D01*
X169351542Y-71362904D01*
X169983409Y-70731036D01*
X169989339Y-70721581D01*
X169981403Y-70713736D01*
X169882049Y-70652218D01*
X169871836Y-70647132D01*
X169675148Y-70570935D01*
X169664165Y-70567810D01*
X169456826Y-70529052D01*
X169445467Y-70528000D01*
X169234533Y-70528000D01*
X169223173Y-70529052D01*
X169015834Y-70567810D01*
X169004851Y-70570935D01*
X168808163Y-70647132D01*
X168797950Y-70652218D01*
X168698594Y-70713736D01*
X168690659Y-70721581D01*
X162045884Y-70721581D01*
X165780000Y-66648000D01*
X165780000Y-65114417D01*
X168732658Y-65114417D01*
X168740595Y-65122263D01*
X168839951Y-65183782D01*
X168850163Y-65188867D01*
X169046851Y-65265064D01*
X169057834Y-65268189D01*
X169265173Y-65306947D01*
X169276533Y-65308000D01*
X169487467Y-65308000D01*
X169498826Y-65306947D01*
X169706165Y-65268189D01*
X169717148Y-65265064D01*
X169913830Y-65188869D01*
X169924055Y-65183777D01*
X170023402Y-65122263D01*
X170031340Y-65114417D01*
X170025410Y-65104963D01*
X169393542Y-64473095D01*
X169382000Y-64466431D01*
X169370457Y-64473095D01*
X168738588Y-65104963D01*
X168732658Y-65114417D01*
X165780000Y-65114417D01*
X165780000Y-65043953D01*
X165789439Y-64996500D01*
X165816319Y-64956272D01*
X167526772Y-63245819D01*
X167567000Y-63218939D01*
X167614453Y-63209500D01*
X168307763Y-63209500D01*
X168373041Y-63228073D01*
G37*
%TD.AperFunction*%
%TA.AperFunction,Conductor*%
G36*
X185872318Y-41772390D02*
G01*
X185917643Y-41817226D01*
X185934699Y-41878657D01*
X185918977Y-41940443D01*
X185874635Y-41986250D01*
X185747958Y-42062468D01*
X185747945Y-42062476D01*
X185745081Y-42064200D01*
X185742423Y-42066220D01*
X185742412Y-42066228D01*
X185462822Y-42278767D01*
X185462814Y-42278773D01*
X185460163Y-42280789D01*
X185457739Y-42283084D01*
X185457732Y-42283091D01*
X185202769Y-42524604D01*
X185202754Y-42524619D01*
X185200332Y-42526914D01*
X185198169Y-42529459D01*
X185198158Y-42529472D01*
X184970808Y-42797130D01*
X184970802Y-42797137D01*
X184968635Y-42799689D01*
X184966755Y-42802461D01*
X184966748Y-42802471D01*
X184769679Y-43093126D01*
X184769671Y-43093138D01*
X184767789Y-43095915D01*
X184766214Y-43098885D01*
X184766212Y-43098889D01*
X184601722Y-43409148D01*
X184601717Y-43409157D01*
X184600147Y-43412120D01*
X184598906Y-43415232D01*
X184598902Y-43415243D01*
X184536168Y-43572695D01*
X184467676Y-43744597D01*
X184466775Y-43747841D01*
X184466773Y-43747848D01*
X184372828Y-44086209D01*
X184371929Y-44089448D01*
X184371388Y-44092747D01*
X184371384Y-44092766D01*
X184323124Y-44387145D01*
X184314028Y-44442629D01*
X184313846Y-44445979D01*
X184313845Y-44445992D01*
X184294834Y-44796643D01*
X184294652Y-44800000D01*
X184294834Y-44803357D01*
X184313845Y-45154007D01*
X184313846Y-45154018D01*
X184314028Y-45157371D01*
X184314572Y-45160692D01*
X184314573Y-45160697D01*
X184371384Y-45507233D01*
X184371387Y-45507248D01*
X184371929Y-45510552D01*
X184467676Y-45855403D01*
X184600147Y-46187880D01*
X184767789Y-46504085D01*
X184968635Y-46800311D01*
X185200332Y-47073086D01*
X185202763Y-47075389D01*
X185202769Y-47075395D01*
X185381622Y-47244813D01*
X185460163Y-47319211D01*
X185745081Y-47535800D01*
X186051747Y-47720315D01*
X186376565Y-47870591D01*
X186715726Y-47984868D01*
X187065254Y-48061805D01*
X187421052Y-48100500D01*
X187775590Y-48100500D01*
X187778948Y-48100500D01*
X188134746Y-48061805D01*
X188484274Y-47984868D01*
X188823435Y-47870591D01*
X189148253Y-47720315D01*
X189454919Y-47535800D01*
X189739837Y-47319211D01*
X189999668Y-47073086D01*
X190231365Y-46800311D01*
X190432211Y-46504085D01*
X190438444Y-46492327D01*
X190482923Y-46444858D01*
X190545312Y-46426438D01*
X190608442Y-46442137D01*
X190654936Y-46487635D01*
X190672000Y-46550409D01*
X190672000Y-75862646D01*
X190658485Y-75918941D01*
X190620885Y-75962964D01*
X190567398Y-75985119D01*
X190509682Y-75980577D01*
X190460319Y-75950327D01*
X188005066Y-73495074D01*
X187976117Y-73449504D01*
X187969276Y-73395955D01*
X187982616Y-73252000D01*
X187963798Y-73048917D01*
X187907983Y-72852750D01*
X187817074Y-72670179D01*
X187722179Y-72544517D01*
X187697622Y-72511998D01*
X187697618Y-72511994D01*
X187694165Y-72507421D01*
X187689928Y-72503558D01*
X187689924Y-72503554D01*
X187547676Y-72373879D01*
X187547677Y-72373879D01*
X187543442Y-72370019D01*
X187538572Y-72367004D01*
X187538570Y-72367002D01*
X187412819Y-72289141D01*
X187370038Y-72262652D01*
X187364695Y-72260582D01*
X187185204Y-72191047D01*
X187185199Y-72191045D01*
X187179857Y-72188976D01*
X187174219Y-72187922D01*
X186985006Y-72152552D01*
X186985003Y-72152551D01*
X186979377Y-72151500D01*
X186775425Y-72151500D01*
X186769799Y-72152551D01*
X186769795Y-72152552D01*
X186580582Y-72187922D01*
X186580579Y-72187922D01*
X186574945Y-72188976D01*
X186569606Y-72191044D01*
X186569593Y-72191048D01*
X186388026Y-72261387D01*
X186326359Y-72268607D01*
X186268923Y-72245027D01*
X186226836Y-72213521D01*
X186226830Y-72213518D01*
X186219732Y-72208204D01*
X186113696Y-72168655D01*
X186092153Y-72160620D01*
X186092151Y-72160619D01*
X186084884Y-72157909D01*
X186077171Y-72157079D01*
X186077168Y-72157079D01*
X186028581Y-72151855D01*
X186028570Y-72151854D01*
X186025274Y-72151500D01*
X186021951Y-72151500D01*
X184732840Y-72151500D01*
X184732821Y-72151500D01*
X184729529Y-72151501D01*
X184726251Y-72151853D01*
X184726239Y-72151854D01*
X184677632Y-72157079D01*
X184677626Y-72157080D01*
X184669918Y-72157909D01*
X184662653Y-72160618D01*
X184662647Y-72160620D01*
X184543381Y-72205104D01*
X184543379Y-72205104D01*
X184535070Y-72208204D01*
X184527973Y-72213516D01*
X184527969Y-72213519D01*
X184426951Y-72289141D01*
X184426947Y-72289144D01*
X184419855Y-72294454D01*
X184414545Y-72301546D01*
X184414542Y-72301550D01*
X184338920Y-72402568D01*
X184338917Y-72402572D01*
X184333605Y-72409669D01*
X184330505Y-72417978D01*
X184330505Y-72417980D01*
X184286021Y-72537247D01*
X184286020Y-72537250D01*
X184283310Y-72544517D01*
X184282480Y-72552227D01*
X184282480Y-72552232D01*
X184277256Y-72600819D01*
X184277255Y-72600831D01*
X184276901Y-72604127D01*
X184276901Y-72607448D01*
X184276901Y-72607449D01*
X184276901Y-73896560D01*
X184276902Y-73896576D01*
X184276902Y-73899872D01*
X184277254Y-73903150D01*
X184277255Y-73903161D01*
X184282480Y-73951768D01*
X184282481Y-73951773D01*
X184283310Y-73959483D01*
X184286020Y-73966749D01*
X184286021Y-73966753D01*
X184311658Y-74035488D01*
X184333605Y-74094331D01*
X184338919Y-74101430D01*
X184338920Y-74101431D01*
X184360742Y-74130582D01*
X184419855Y-74209546D01*
X184535070Y-74295796D01*
X184669918Y-74346091D01*
X184729528Y-74352500D01*
X186025273Y-74352499D01*
X186084884Y-74346091D01*
X186219732Y-74295796D01*
X186268922Y-74258971D01*
X186326357Y-74235392D01*
X186388023Y-74242610D01*
X186574945Y-74315024D01*
X186775425Y-74352500D01*
X186973648Y-74352500D01*
X186979377Y-74352500D01*
X186995436Y-74349498D01*
X187011118Y-74346567D01*
X187070583Y-74350004D01*
X187121585Y-74380774D01*
X190635681Y-77894871D01*
X190662561Y-77935099D01*
X190672000Y-77982552D01*
X190672000Y-79688048D01*
X190658485Y-79744343D01*
X190620885Y-79788366D01*
X190567398Y-79810521D01*
X190509682Y-79805979D01*
X190460319Y-79775729D01*
X190097906Y-79413316D01*
X189137286Y-78452695D01*
X189129842Y-78444514D01*
X189125786Y-78438123D01*
X189076775Y-78392098D01*
X189073978Y-78389387D01*
X189057227Y-78372636D01*
X189057227Y-78372635D01*
X189054471Y-78369880D01*
X189051290Y-78367412D01*
X189042414Y-78359830D01*
X189016269Y-78335278D01*
X189016267Y-78335276D01*
X189010582Y-78329938D01*
X189003749Y-78326182D01*
X189003743Y-78326177D01*
X188993025Y-78320285D01*
X188976766Y-78309606D01*
X188967095Y-78302104D01*
X188967092Y-78302102D01*
X188960936Y-78297327D01*
X188953779Y-78294229D01*
X188953776Y-78294228D01*
X188920849Y-78279978D01*
X188910363Y-78274841D01*
X188878932Y-78257562D01*
X188878923Y-78257558D01*
X188872092Y-78253803D01*
X188864535Y-78251862D01*
X188864531Y-78251861D01*
X188852688Y-78248820D01*
X188834284Y-78242519D01*
X188823057Y-78237660D01*
X188823050Y-78237658D01*
X188815896Y-78234562D01*
X188808192Y-78233341D01*
X188808190Y-78233341D01*
X188772759Y-78227729D01*
X188761324Y-78225361D01*
X188726571Y-78216438D01*
X188726563Y-78216437D01*
X188719019Y-78214500D01*
X188711223Y-78214500D01*
X188698983Y-78214500D01*
X188679597Y-78212974D01*
X188659804Y-78209840D01*
X188652038Y-78210574D01*
X188652035Y-78210574D01*
X188616324Y-78213950D01*
X188604655Y-78214500D01*
X183129771Y-78214500D01*
X183118718Y-78213979D01*
X183111332Y-78212328D01*
X183103534Y-78212573D01*
X183044144Y-78214439D01*
X183040250Y-78214500D01*
X183012650Y-78214500D01*
X183008799Y-78214986D01*
X183008768Y-78214988D01*
X183008640Y-78215005D01*
X182997029Y-78215918D01*
X182961171Y-78217045D01*
X182961164Y-78217046D01*
X182953372Y-78217291D01*
X182945888Y-78219465D01*
X182945877Y-78219467D01*
X182934128Y-78222881D01*
X182915083Y-78226825D01*
X182902947Y-78228358D01*
X182902944Y-78228358D01*
X182895208Y-78229336D01*
X182887960Y-78232205D01*
X182887950Y-78232208D01*
X182854592Y-78245415D01*
X182843550Y-78249196D01*
X182809097Y-78259207D01*
X182809092Y-78259208D01*
X182801610Y-78261383D01*
X182794902Y-78265349D01*
X182794897Y-78265352D01*
X182784364Y-78271581D01*
X182766900Y-78280136D01*
X182755524Y-78284640D01*
X182755517Y-78284643D01*
X182748268Y-78287514D01*
X182741962Y-78292094D01*
X182741957Y-78292098D01*
X182712927Y-78313189D01*
X182703169Y-78319598D01*
X182672547Y-78337709D01*
X182665579Y-78341830D01*
X182660063Y-78347344D01*
X182660056Y-78347351D01*
X182651407Y-78356000D01*
X182636624Y-78368626D01*
X182626727Y-78375817D01*
X182626720Y-78375823D01*
X182620413Y-78380406D01*
X182615446Y-78386408D01*
X182615435Y-78386420D01*
X182592570Y-78414059D01*
X182584710Y-78422697D01*
X181140696Y-79866711D01*
X181132511Y-79874159D01*
X181126123Y-79878214D01*
X181120788Y-79883894D01*
X181120783Y-79883899D01*
X181080096Y-79927225D01*
X181077392Y-79930016D01*
X181060628Y-79946780D01*
X181060621Y-79946787D01*
X181057880Y-79949529D01*
X181055500Y-79952596D01*
X181055489Y-79952609D01*
X181055400Y-79952725D01*
X181047842Y-79961570D01*
X181023280Y-79987727D01*
X181023273Y-79987736D01*
X181017938Y-79993418D01*
X181014182Y-80000249D01*
X181014179Y-80000254D01*
X181008285Y-80010975D01*
X180997609Y-80027227D01*
X180990109Y-80036896D01*
X180990101Y-80036907D01*
X180985327Y-80043064D01*
X180982234Y-80050208D01*
X180982229Y-80050219D01*
X180967974Y-80083160D01*
X180962838Y-80093643D01*
X180941803Y-80131908D01*
X180939864Y-80139456D01*
X180939863Y-80139461D01*
X180936822Y-80151307D01*
X180930521Y-80169711D01*
X180925658Y-80180948D01*
X180925656Y-80180952D01*
X180922562Y-80188104D01*
X180921342Y-80195803D01*
X180921342Y-80195805D01*
X180915729Y-80231241D01*
X180913361Y-80242676D01*
X180904438Y-80277428D01*
X180904436Y-80277436D01*
X180902500Y-80284981D01*
X180902500Y-80292777D01*
X180902500Y-80305017D01*
X180900974Y-80324402D01*
X180897840Y-80344196D01*
X180898574Y-80351961D01*
X180898574Y-80351964D01*
X180901950Y-80387676D01*
X180902500Y-80399345D01*
X180902500Y-84031547D01*
X180893061Y-84079000D01*
X180866181Y-84119228D01*
X180270905Y-84714502D01*
X180219684Y-84745340D01*
X180159986Y-84748624D01*
X180105691Y-84723592D01*
X180076059Y-84684762D01*
X180074620Y-84685614D01*
X180074618Y-84685610D01*
X180064417Y-84668360D01*
X180055863Y-84650901D01*
X180048486Y-84632268D01*
X180022808Y-84596925D01*
X180016401Y-84587171D01*
X179998142Y-84556296D01*
X179998141Y-84556294D01*
X179994170Y-84549580D01*
X179980005Y-84535415D01*
X179967370Y-84520622D01*
X179955594Y-84504413D01*
X179949583Y-84499440D01*
X179949581Y-84499438D01*
X179921941Y-84476573D01*
X179913300Y-84468710D01*
X177961286Y-82516695D01*
X177953842Y-82508514D01*
X177949786Y-82502123D01*
X177900775Y-82456098D01*
X177897978Y-82453387D01*
X177881227Y-82436636D01*
X177881227Y-82436635D01*
X177878471Y-82433880D01*
X177875290Y-82431412D01*
X177866414Y-82423830D01*
X177840269Y-82399278D01*
X177840267Y-82399276D01*
X177834582Y-82393938D01*
X177827749Y-82390182D01*
X177827743Y-82390177D01*
X177817025Y-82384285D01*
X177800766Y-82373606D01*
X177791095Y-82366104D01*
X177791092Y-82366102D01*
X177784936Y-82361327D01*
X177777779Y-82358229D01*
X177777776Y-82358228D01*
X177744849Y-82343978D01*
X177734363Y-82338841D01*
X177702932Y-82321562D01*
X177702923Y-82321558D01*
X177696092Y-82317803D01*
X177688535Y-82315862D01*
X177688531Y-82315861D01*
X177676688Y-82312820D01*
X177658284Y-82306519D01*
X177647057Y-82301660D01*
X177647050Y-82301658D01*
X177639896Y-82298562D01*
X177632192Y-82297341D01*
X177632190Y-82297341D01*
X177596759Y-82291729D01*
X177585324Y-82289361D01*
X177550571Y-82280438D01*
X177550563Y-82280437D01*
X177543019Y-82278500D01*
X177535223Y-82278500D01*
X177522983Y-82278500D01*
X177503597Y-82276974D01*
X177483804Y-82273840D01*
X177476038Y-82274574D01*
X177476035Y-82274574D01*
X177440324Y-82277950D01*
X177428655Y-82278500D01*
X173014500Y-82278500D01*
X172952500Y-82261887D01*
X172907113Y-82216500D01*
X172890500Y-82154500D01*
X172890500Y-79348000D01*
X173720489Y-79348000D01*
X173720871Y-79352854D01*
X173733075Y-79507925D01*
X173740502Y-79602286D01*
X173741637Y-79607015D01*
X173741638Y-79607019D01*
X173798909Y-79845574D01*
X173798911Y-79845582D01*
X173800047Y-79850311D01*
X173897659Y-80085967D01*
X173900206Y-80090124D01*
X173900207Y-80090125D01*
X174019615Y-80284981D01*
X174030934Y-80303451D01*
X174034098Y-80307156D01*
X174034102Y-80307161D01*
X174112835Y-80399345D01*
X174196590Y-80497410D01*
X174200297Y-80500576D01*
X174386838Y-80659897D01*
X174386841Y-80659899D01*
X174390549Y-80663066D01*
X174608033Y-80796341D01*
X174843689Y-80893953D01*
X175091714Y-80953498D01*
X175346000Y-80973511D01*
X175600286Y-80953498D01*
X175848311Y-80893953D01*
X176083967Y-80796341D01*
X176195083Y-80728248D01*
X176252789Y-80710179D01*
X176312184Y-80721553D01*
X176359135Y-80759666D01*
X176403137Y-80818445D01*
X176403141Y-80818449D01*
X176408454Y-80825546D01*
X176523669Y-80911796D01*
X176658517Y-80962091D01*
X176718127Y-80968500D01*
X179053872Y-80968499D01*
X179113483Y-80962091D01*
X179248331Y-80911796D01*
X179363546Y-80825546D01*
X179449796Y-80710331D01*
X179500091Y-80575483D01*
X179506500Y-80515873D01*
X179506499Y-78180128D01*
X179500091Y-78120517D01*
X179449796Y-77985669D01*
X179363546Y-77870454D01*
X179316423Y-77835178D01*
X179255431Y-77789519D01*
X179255430Y-77789518D01*
X179248331Y-77784204D01*
X179113483Y-77733909D01*
X179105770Y-77733079D01*
X179105767Y-77733079D01*
X179057180Y-77727855D01*
X179057169Y-77727854D01*
X179053873Y-77727500D01*
X179050550Y-77727500D01*
X176721439Y-77727500D01*
X176721420Y-77727500D01*
X176718128Y-77727501D01*
X176714850Y-77727853D01*
X176714838Y-77727854D01*
X176666231Y-77733079D01*
X176666225Y-77733080D01*
X176658517Y-77733909D01*
X176651252Y-77736618D01*
X176651246Y-77736620D01*
X176531980Y-77781104D01*
X176531978Y-77781104D01*
X176523669Y-77784204D01*
X176516572Y-77789516D01*
X176516568Y-77789519D01*
X176415550Y-77865141D01*
X176415546Y-77865144D01*
X176408454Y-77870454D01*
X176403144Y-77877546D01*
X176403140Y-77877551D01*
X176359135Y-77936334D01*
X176312183Y-77974446D01*
X176252789Y-77985820D01*
X176195079Y-77967749D01*
X176141799Y-77935099D01*
X176083967Y-77899659D01*
X175848311Y-77802047D01*
X175843582Y-77800911D01*
X175843574Y-77800909D01*
X175605019Y-77743638D01*
X175605015Y-77743637D01*
X175600286Y-77742502D01*
X175595433Y-77742120D01*
X175350854Y-77722871D01*
X175346000Y-77722489D01*
X175341146Y-77722871D01*
X175096566Y-77742120D01*
X175096564Y-77742120D01*
X175091714Y-77742502D01*
X175086986Y-77743636D01*
X175086980Y-77743638D01*
X174848425Y-77800909D01*
X174848413Y-77800912D01*
X174843689Y-77802047D01*
X174839192Y-77803909D01*
X174839188Y-77803911D01*
X174612537Y-77897793D01*
X174612533Y-77897795D01*
X174608033Y-77899659D01*
X174603880Y-77902203D01*
X174603874Y-77902207D01*
X174394707Y-78030385D01*
X174394698Y-78030391D01*
X174390549Y-78032934D01*
X174386849Y-78036093D01*
X174386838Y-78036102D01*
X174200297Y-78195423D01*
X174200290Y-78195429D01*
X174196590Y-78198590D01*
X174193429Y-78202290D01*
X174193423Y-78202297D01*
X174034102Y-78388838D01*
X174034093Y-78388849D01*
X174030934Y-78392549D01*
X174028391Y-78396698D01*
X174028385Y-78396707D01*
X173900207Y-78605874D01*
X173900203Y-78605880D01*
X173897659Y-78610033D01*
X173895795Y-78614533D01*
X173895793Y-78614537D01*
X173825867Y-78783353D01*
X173800047Y-78845689D01*
X173798912Y-78850413D01*
X173798909Y-78850425D01*
X173741638Y-79088980D01*
X173741636Y-79088986D01*
X173740502Y-79093714D01*
X173740120Y-79098564D01*
X173740120Y-79098566D01*
X173725033Y-79290263D01*
X173720489Y-79348000D01*
X172890500Y-79348000D01*
X172890500Y-74170024D01*
X172897186Y-74129858D01*
X172916522Y-74094022D01*
X172916909Y-74093522D01*
X172926673Y-74080936D01*
X172944018Y-74040852D01*
X172949151Y-74030371D01*
X172970197Y-73992092D01*
X172972550Y-73982924D01*
X172973284Y-73981637D01*
X172975011Y-73977278D01*
X172975631Y-73977523D01*
X173004974Y-73926075D01*
X173635051Y-73295998D01*
X173686735Y-73265020D01*
X173746921Y-73262064D01*
X173801394Y-73287827D01*
X173837291Y-73336228D01*
X173873455Y-73423534D01*
X173897659Y-73481967D01*
X173900206Y-73486124D01*
X173900207Y-73486125D01*
X173975286Y-73608643D01*
X174030934Y-73699451D01*
X174034098Y-73703156D01*
X174034102Y-73703161D01*
X174174003Y-73866964D01*
X174196590Y-73893410D01*
X174200297Y-73896576D01*
X174386838Y-74055897D01*
X174386841Y-74055899D01*
X174390549Y-74059066D01*
X174608033Y-74192341D01*
X174843689Y-74289953D01*
X175091714Y-74349498D01*
X175346000Y-74369511D01*
X175600286Y-74349498D01*
X175848311Y-74289953D01*
X176083967Y-74192341D01*
X176195083Y-74124248D01*
X176252789Y-74106179D01*
X176312184Y-74117553D01*
X176359135Y-74155666D01*
X176403137Y-74214445D01*
X176403141Y-74214449D01*
X176408454Y-74221546D01*
X176523669Y-74307796D01*
X176658517Y-74358091D01*
X176718127Y-74364500D01*
X179053872Y-74364499D01*
X179113483Y-74358091D01*
X179248331Y-74307796D01*
X179363546Y-74221546D01*
X179449796Y-74106331D01*
X179500091Y-73971483D01*
X179506500Y-73911873D01*
X179506499Y-72059451D01*
X179515938Y-72011999D01*
X179542815Y-71971774D01*
X181156771Y-70357819D01*
X181197000Y-70330939D01*
X181244453Y-70321500D01*
X185514225Y-70321500D01*
X185525280Y-70322021D01*
X185532667Y-70323673D01*
X185599872Y-70321561D01*
X185603768Y-70321500D01*
X185627448Y-70321500D01*
X185631350Y-70321500D01*
X185635313Y-70320999D01*
X185646963Y-70320080D01*
X185690627Y-70318709D01*
X185709861Y-70313119D01*
X185728917Y-70309174D01*
X185748792Y-70306664D01*
X185789395Y-70290587D01*
X185800450Y-70286802D01*
X185842390Y-70274618D01*
X185859629Y-70264422D01*
X185877103Y-70255862D01*
X185888474Y-70251360D01*
X185888476Y-70251358D01*
X185895732Y-70248486D01*
X185931069Y-70222811D01*
X185940824Y-70216403D01*
X185978420Y-70194170D01*
X185992584Y-70180005D01*
X186007379Y-70167368D01*
X186023587Y-70155594D01*
X186051428Y-70121938D01*
X186059279Y-70113309D01*
X189027311Y-67145278D01*
X189035481Y-67137844D01*
X189041877Y-67133786D01*
X189087918Y-67084756D01*
X189090535Y-67082054D01*
X189110120Y-67062471D01*
X189112585Y-67059292D01*
X189120167Y-67050416D01*
X189150062Y-67018582D01*
X189159713Y-67001023D01*
X189170390Y-66984770D01*
X189182673Y-66968936D01*
X189200026Y-66928832D01*
X189205158Y-66918361D01*
X189222435Y-66886935D01*
X189222435Y-66886934D01*
X189226197Y-66880092D01*
X189231177Y-66860691D01*
X189237481Y-66842281D01*
X189245438Y-66823896D01*
X189252272Y-66780741D01*
X189254638Y-66769321D01*
X189257542Y-66758014D01*
X189265500Y-66727019D01*
X189265500Y-66706983D01*
X189267025Y-66687597D01*
X189270160Y-66667804D01*
X189266050Y-66624324D01*
X189265500Y-66612655D01*
X189265500Y-64185772D01*
X189266020Y-64174719D01*
X189267672Y-64167333D01*
X189265561Y-64100145D01*
X189265500Y-64096251D01*
X189265500Y-64072545D01*
X189265500Y-64068650D01*
X189264998Y-64064681D01*
X189264080Y-64053024D01*
X189263202Y-64025082D01*
X189262709Y-64009373D01*
X189257120Y-63990140D01*
X189253174Y-63971083D01*
X189251641Y-63958944D01*
X189250664Y-63951208D01*
X189234582Y-63910591D01*
X189230803Y-63899551D01*
X189220795Y-63865102D01*
X189220793Y-63865099D01*
X189218618Y-63857610D01*
X189208417Y-63840360D01*
X189199863Y-63822901D01*
X189192486Y-63804268D01*
X189166808Y-63768925D01*
X189160401Y-63759171D01*
X189142142Y-63728296D01*
X189142141Y-63728294D01*
X189138170Y-63721580D01*
X189124004Y-63707414D01*
X189111370Y-63692622D01*
X189099594Y-63676413D01*
X189093583Y-63671440D01*
X189093581Y-63671438D01*
X189065941Y-63648573D01*
X189057300Y-63640710D01*
X186655286Y-61238695D01*
X186647842Y-61230514D01*
X186643786Y-61224123D01*
X186594775Y-61178098D01*
X186591978Y-61175387D01*
X186575227Y-61158636D01*
X186572471Y-61155880D01*
X186569290Y-61153412D01*
X186560414Y-61145830D01*
X186534269Y-61121278D01*
X186534267Y-61121276D01*
X186528582Y-61115938D01*
X186521749Y-61112182D01*
X186521743Y-61112177D01*
X186511025Y-61106285D01*
X186494766Y-61095606D01*
X186485095Y-61088104D01*
X186485092Y-61088102D01*
X186478936Y-61083327D01*
X186471779Y-61080229D01*
X186471776Y-61080228D01*
X186438849Y-61065978D01*
X186428363Y-61060841D01*
X186396932Y-61043562D01*
X186396923Y-61043558D01*
X186390092Y-61039803D01*
X186382535Y-61037862D01*
X186382531Y-61037861D01*
X186370688Y-61034820D01*
X186352284Y-61028519D01*
X186341057Y-61023660D01*
X186341050Y-61023658D01*
X186333896Y-61020562D01*
X186326192Y-61019341D01*
X186326190Y-61019341D01*
X186290759Y-61013729D01*
X186279324Y-61011361D01*
X186244571Y-61002438D01*
X186244563Y-61002437D01*
X186237019Y-61000500D01*
X186229223Y-61000500D01*
X186216983Y-61000500D01*
X186197597Y-60998974D01*
X186177804Y-60995840D01*
X186170038Y-60996574D01*
X186170035Y-60996574D01*
X186134324Y-60999950D01*
X186122655Y-61000500D01*
X167066979Y-61000500D01*
X167055926Y-60999979D01*
X167048540Y-60998328D01*
X167040742Y-60998573D01*
X166981352Y-61000439D01*
X166977458Y-61000500D01*
X166949858Y-61000500D01*
X166946007Y-61000986D01*
X166945976Y-61000988D01*
X166945848Y-61001005D01*
X166934237Y-61001918D01*
X166898375Y-61003045D01*
X166898367Y-61003046D01*
X166890581Y-61003291D01*
X166883093Y-61005466D01*
X166883094Y-61005466D01*
X166871342Y-61008880D01*
X166852303Y-61012822D01*
X166840156Y-61014357D01*
X166840148Y-61014358D01*
X166832416Y-61015336D01*
X166825170Y-61018204D01*
X166825165Y-61018206D01*
X166791793Y-61031419D01*
X166780747Y-61035200D01*
X166773256Y-61037377D01*
X166746302Y-61045208D01*
X166746297Y-61045209D01*
X166738818Y-61047383D01*
X166732116Y-61051346D01*
X166732105Y-61051351D01*
X166721572Y-61057581D01*
X166704108Y-61066136D01*
X166692732Y-61070640D01*
X166692725Y-61070643D01*
X166685476Y-61073514D01*
X166679170Y-61078094D01*
X166679165Y-61078098D01*
X166650135Y-61099189D01*
X166640377Y-61105598D01*
X166609506Y-61123856D01*
X166602787Y-61127830D01*
X166597271Y-61133344D01*
X166597264Y-61133351D01*
X166588615Y-61142000D01*
X166573832Y-61154626D01*
X166563935Y-61161817D01*
X166563928Y-61161823D01*
X166557621Y-61166406D01*
X166552654Y-61172408D01*
X166552643Y-61172420D01*
X166529778Y-61200059D01*
X166521918Y-61208697D01*
X165991681Y-61738935D01*
X165942318Y-61769185D01*
X165884602Y-61773727D01*
X165831115Y-61751572D01*
X165793515Y-61707549D01*
X165780000Y-61651254D01*
X165780000Y-59634604D01*
X168942316Y-59634604D01*
X168949747Y-59642713D01*
X169017991Y-59690498D01*
X169027323Y-59695886D01*
X169231602Y-59791143D01*
X169241736Y-59794831D01*
X169459446Y-59853166D01*
X169470077Y-59855041D01*
X169694605Y-59874685D01*
X169705395Y-59874685D01*
X169929922Y-59855041D01*
X169940553Y-59853166D01*
X170158263Y-59794831D01*
X170168397Y-59791143D01*
X170372671Y-59695888D01*
X170382016Y-59690492D01*
X170450248Y-59642715D01*
X170457681Y-59634603D01*
X170451768Y-59625321D01*
X169711542Y-58885095D01*
X169700000Y-58878431D01*
X169688457Y-58885095D01*
X168948230Y-59625321D01*
X168942316Y-59634604D01*
X165780000Y-59634604D01*
X165780000Y-58525395D01*
X168345315Y-58525395D01*
X168364958Y-58749922D01*
X168366833Y-58760553D01*
X168425168Y-58978263D01*
X168428856Y-58988397D01*
X168524110Y-59192668D01*
X168529508Y-59202018D01*
X168577284Y-59270249D01*
X168585395Y-59277682D01*
X168594674Y-59271771D01*
X169334904Y-58531542D01*
X169341568Y-58519999D01*
X170058431Y-58519999D01*
X170065095Y-58531542D01*
X170805321Y-59271768D01*
X170814603Y-59277681D01*
X170822715Y-59270248D01*
X170870492Y-59202016D01*
X170875888Y-59192671D01*
X170887916Y-59166878D01*
X172049500Y-59166878D01*
X172049501Y-59170008D01*
X172049820Y-59173140D01*
X172049821Y-59173141D01*
X172059312Y-59266061D01*
X172059313Y-59266069D01*
X172060001Y-59272797D01*
X172115186Y-59439334D01*
X172118977Y-59445480D01*
X172203497Y-59582511D01*
X172203500Y-59582515D01*
X172207288Y-59588656D01*
X172331344Y-59712712D01*
X172337485Y-59716500D01*
X172337488Y-59716502D01*
X172394558Y-59751702D01*
X172480666Y-59804814D01*
X172647203Y-59859999D01*
X172749991Y-59870500D01*
X174050008Y-59870499D01*
X174152797Y-59859999D01*
X174319334Y-59804814D01*
X174468656Y-59712712D01*
X174592712Y-59588656D01*
X174684814Y-59439334D01*
X174739999Y-59272797D01*
X174750500Y-59170009D01*
X174750499Y-57869992D01*
X174739999Y-57767203D01*
X174684814Y-57600666D01*
X174592712Y-57451344D01*
X174468656Y-57327288D01*
X174462515Y-57323500D01*
X174462511Y-57323497D01*
X174325480Y-57238977D01*
X174319334Y-57235186D01*
X174152797Y-57180001D01*
X174146064Y-57179313D01*
X174146059Y-57179312D01*
X174053140Y-57169819D01*
X174053123Y-57169818D01*
X174050009Y-57169500D01*
X174046860Y-57169500D01*
X172753140Y-57169500D01*
X172753120Y-57169500D01*
X172749992Y-57169501D01*
X172746860Y-57169820D01*
X172746858Y-57169821D01*
X172653938Y-57179312D01*
X172653928Y-57179313D01*
X172647203Y-57180001D01*
X172640781Y-57182128D01*
X172640776Y-57182130D01*
X172487521Y-57232914D01*
X172487517Y-57232915D01*
X172480666Y-57235186D01*
X172474522Y-57238975D01*
X172474519Y-57238977D01*
X172337488Y-57323497D01*
X172337480Y-57323503D01*
X172331344Y-57327288D01*
X172326242Y-57332389D01*
X172326238Y-57332393D01*
X172212393Y-57446238D01*
X172212389Y-57446242D01*
X172207288Y-57451344D01*
X172203503Y-57457480D01*
X172203497Y-57457488D01*
X172118977Y-57594519D01*
X172115186Y-57600666D01*
X172060001Y-57767203D01*
X172059313Y-57773933D01*
X172059312Y-57773940D01*
X172049819Y-57866859D01*
X172049818Y-57866877D01*
X172049500Y-57869991D01*
X172049500Y-57873138D01*
X172049500Y-57873139D01*
X172049500Y-59166859D01*
X172049500Y-59166878D01*
X170887916Y-59166878D01*
X170971143Y-58988397D01*
X170974831Y-58978263D01*
X171033166Y-58760553D01*
X171035041Y-58749922D01*
X171054685Y-58525395D01*
X171054685Y-58514605D01*
X171035041Y-58290077D01*
X171033166Y-58279446D01*
X170974831Y-58061736D01*
X170971143Y-58051602D01*
X170875889Y-57847332D01*
X170870491Y-57837982D01*
X170822714Y-57769749D01*
X170814603Y-57762316D01*
X170805324Y-57768227D01*
X170065095Y-58508457D01*
X170058431Y-58519999D01*
X169341568Y-58519999D01*
X169334904Y-58508457D01*
X168594674Y-57768227D01*
X168585396Y-57762316D01*
X168577283Y-57769750D01*
X168529505Y-57837986D01*
X168524111Y-57847330D01*
X168428856Y-58051602D01*
X168425168Y-58061736D01*
X168366833Y-58279446D01*
X168364958Y-58290077D01*
X168345315Y-58514605D01*
X168345315Y-58525395D01*
X165780000Y-58525395D01*
X165780000Y-57405396D01*
X168942316Y-57405396D01*
X168948227Y-57414674D01*
X169688457Y-58154904D01*
X169700000Y-58161568D01*
X169711542Y-58154904D01*
X170451771Y-57414674D01*
X170457682Y-57405395D01*
X170450249Y-57397284D01*
X170382018Y-57349508D01*
X170372668Y-57344110D01*
X170168397Y-57248856D01*
X170158263Y-57245168D01*
X169940553Y-57186833D01*
X169929922Y-57184958D01*
X169705395Y-57165315D01*
X169694605Y-57165315D01*
X169470077Y-57184958D01*
X169459446Y-57186833D01*
X169241736Y-57245168D01*
X169231602Y-57248856D01*
X169027330Y-57344111D01*
X169017986Y-57349505D01*
X168949750Y-57397283D01*
X168942316Y-57405396D01*
X165780000Y-57405396D01*
X165780000Y-41880000D01*
X165796613Y-41818000D01*
X165842000Y-41772613D01*
X165904000Y-41756000D01*
X185810706Y-41756000D01*
X185872318Y-41772390D01*
G37*
%TD.AperFunction*%
%TD*%
%TA.AperFunction,Conductor*%
%TO.N,+5V*%
G36*
X162162000Y-41772613D02*
G01*
X162207387Y-41818000D01*
X162224000Y-41880000D01*
X162224000Y-65455255D01*
X162214561Y-65502708D01*
X162187682Y-65542934D01*
X159105572Y-68625043D01*
X158578935Y-69151681D01*
X158538707Y-69178561D01*
X158491254Y-69188000D01*
X152064000Y-69188000D01*
X152064000Y-69204326D01*
X152064000Y-100008048D01*
X152050485Y-100064343D01*
X152012885Y-100108366D01*
X151959398Y-100130521D01*
X151901682Y-100125979D01*
X151852320Y-100095730D01*
X151547568Y-99790977D01*
X151515474Y-99735390D01*
X151466739Y-99553504D01*
X151370568Y-99347266D01*
X151240047Y-99160861D01*
X151079139Y-98999953D01*
X150892734Y-98869432D01*
X150686496Y-98773261D01*
X150681271Y-98771861D01*
X150681263Y-98771858D01*
X150471916Y-98715764D01*
X150471907Y-98715762D01*
X150466692Y-98714365D01*
X150461304Y-98713893D01*
X150461301Y-98713893D01*
X150245395Y-98695004D01*
X150240000Y-98694532D01*
X150234605Y-98695004D01*
X150018698Y-98713893D01*
X150018693Y-98713893D01*
X150013308Y-98714365D01*
X150008094Y-98715762D01*
X150008083Y-98715764D01*
X149798736Y-98771858D01*
X149798724Y-98771862D01*
X149793504Y-98773261D01*
X149788599Y-98775547D01*
X149788594Y-98775550D01*
X149592176Y-98867142D01*
X149592172Y-98867144D01*
X149587266Y-98869432D01*
X149582833Y-98872535D01*
X149582826Y-98872540D01*
X149405296Y-98996847D01*
X149405291Y-98996850D01*
X149400861Y-98999953D01*
X149397037Y-99003776D01*
X149397031Y-99003782D01*
X149243782Y-99157031D01*
X149243776Y-99157037D01*
X149239953Y-99160861D01*
X149236850Y-99165291D01*
X149236847Y-99165296D01*
X149112540Y-99342826D01*
X149112535Y-99342833D01*
X149109432Y-99347266D01*
X149107144Y-99352172D01*
X149107142Y-99352176D01*
X149015550Y-99548594D01*
X149015547Y-99548599D01*
X149013261Y-99553504D01*
X149011862Y-99558724D01*
X149011858Y-99558736D01*
X148955764Y-99768083D01*
X148955762Y-99768094D01*
X148954365Y-99773308D01*
X148953893Y-99778693D01*
X148953893Y-99778698D01*
X148951832Y-99802259D01*
X148934532Y-100000000D01*
X148935004Y-100005395D01*
X148948670Y-100161604D01*
X148954365Y-100226692D01*
X148955762Y-100231907D01*
X148955764Y-100231916D01*
X149011858Y-100441263D01*
X149011861Y-100441271D01*
X149013261Y-100446496D01*
X149109432Y-100652734D01*
X149239953Y-100839139D01*
X149400861Y-101000047D01*
X149587266Y-101130568D01*
X149592172Y-101132855D01*
X149592176Y-101132858D01*
X149645274Y-101157618D01*
X149697450Y-101203375D01*
X149716869Y-101270000D01*
X149697450Y-101336625D01*
X149645274Y-101382382D01*
X149592176Y-101407141D01*
X149592163Y-101407148D01*
X149587266Y-101409432D01*
X149582833Y-101412535D01*
X149582826Y-101412540D01*
X149405296Y-101536847D01*
X149405294Y-101536849D01*
X149400861Y-101539953D01*
X149397037Y-101543776D01*
X149397031Y-101543782D01*
X149243782Y-101697031D01*
X149243776Y-101697037D01*
X149239953Y-101700861D01*
X149236850Y-101705291D01*
X149236847Y-101705296D01*
X149112540Y-101882826D01*
X149112535Y-101882833D01*
X149109432Y-101887266D01*
X149107144Y-101892172D01*
X149107142Y-101892176D01*
X149015550Y-102088594D01*
X149015547Y-102088599D01*
X149013261Y-102093504D01*
X149011862Y-102098724D01*
X149011858Y-102098736D01*
X148955764Y-102308083D01*
X148955762Y-102308094D01*
X148954365Y-102313308D01*
X148953893Y-102318693D01*
X148953893Y-102318698D01*
X148951832Y-102342259D01*
X148934532Y-102540000D01*
X148935004Y-102545395D01*
X148948398Y-102698495D01*
X148954365Y-102766692D01*
X148955762Y-102771907D01*
X148955764Y-102771916D01*
X149011858Y-102981263D01*
X149011861Y-102981271D01*
X149013261Y-102986496D01*
X149015549Y-102991403D01*
X149015550Y-102991405D01*
X149026640Y-103015187D01*
X149109432Y-103192734D01*
X149239953Y-103379139D01*
X149400861Y-103540047D01*
X149587266Y-103670568D01*
X149592172Y-103672855D01*
X149592176Y-103672858D01*
X149645274Y-103697618D01*
X149697450Y-103743375D01*
X149716869Y-103810000D01*
X149697450Y-103876625D01*
X149645274Y-103922382D01*
X149592176Y-103947141D01*
X149592163Y-103947148D01*
X149587266Y-103949432D01*
X149582833Y-103952535D01*
X149582826Y-103952540D01*
X149405296Y-104076847D01*
X149405291Y-104076850D01*
X149400861Y-104079953D01*
X149397037Y-104083776D01*
X149397031Y-104083782D01*
X149243782Y-104237031D01*
X149243776Y-104237037D01*
X149239953Y-104240861D01*
X149236850Y-104245291D01*
X149236847Y-104245296D01*
X149112540Y-104422826D01*
X149112535Y-104422833D01*
X149109432Y-104427266D01*
X149107144Y-104432172D01*
X149107142Y-104432176D01*
X149015550Y-104628594D01*
X149015547Y-104628599D01*
X149013261Y-104633504D01*
X149011862Y-104638724D01*
X149011858Y-104638736D01*
X148955764Y-104848083D01*
X148955762Y-104848094D01*
X148954365Y-104853308D01*
X148934532Y-105080000D01*
X148954365Y-105306692D01*
X148955762Y-105311907D01*
X148955764Y-105311916D01*
X149011858Y-105521263D01*
X149011861Y-105521271D01*
X149013261Y-105526496D01*
X149109432Y-105732734D01*
X149239953Y-105919139D01*
X149400861Y-106080047D01*
X149587266Y-106210568D01*
X149592175Y-106212857D01*
X149592180Y-106212860D01*
X149645864Y-106237893D01*
X149698040Y-106283649D01*
X149717460Y-106350274D01*
X149698041Y-106416899D01*
X149645866Y-106462657D01*
X149592416Y-106487581D01*
X149583087Y-106492967D01*
X149405618Y-106617232D01*
X149397352Y-106624169D01*
X149244169Y-106777352D01*
X149237232Y-106785618D01*
X149112967Y-106963087D01*
X149107579Y-106972419D01*
X149016022Y-107168765D01*
X149012330Y-107178907D01*
X148964820Y-107356219D01*
X148964452Y-107367448D01*
X148975395Y-107370000D01*
X150366000Y-107370000D01*
X150428000Y-107386613D01*
X150473387Y-107432000D01*
X150490000Y-107494000D01*
X150490000Y-107746000D01*
X150473387Y-107808000D01*
X150428000Y-107853387D01*
X150366000Y-107870000D01*
X148975395Y-107870000D01*
X148964452Y-107872551D01*
X148964820Y-107883780D01*
X149012330Y-108061092D01*
X149016022Y-108071234D01*
X149107579Y-108267580D01*
X149112967Y-108276912D01*
X149237232Y-108454381D01*
X149244169Y-108462647D01*
X149397352Y-108615830D01*
X149405618Y-108622767D01*
X149583087Y-108747032D01*
X149592423Y-108752422D01*
X149645864Y-108777342D01*
X149698040Y-108823098D01*
X149717460Y-108889723D01*
X149698041Y-108956348D01*
X149645866Y-109002106D01*
X149618868Y-109014695D01*
X149587266Y-109029432D01*
X149582833Y-109032535D01*
X149582826Y-109032540D01*
X149405296Y-109156847D01*
X149405291Y-109156850D01*
X149400861Y-109159953D01*
X149397037Y-109163776D01*
X149397031Y-109163782D01*
X149243782Y-109317031D01*
X149243776Y-109317037D01*
X149239953Y-109320861D01*
X149236850Y-109325291D01*
X149236847Y-109325296D01*
X149112540Y-109502826D01*
X149112535Y-109502833D01*
X149109432Y-109507266D01*
X149107144Y-109512172D01*
X149107142Y-109512176D01*
X149015550Y-109708594D01*
X149015547Y-109708599D01*
X149013261Y-109713504D01*
X149011862Y-109718724D01*
X149011858Y-109718736D01*
X148955764Y-109928083D01*
X148955762Y-109928094D01*
X148954365Y-109933308D01*
X148934532Y-110160000D01*
X148935004Y-110165395D01*
X148953241Y-110373853D01*
X148954365Y-110386692D01*
X148955762Y-110391907D01*
X148955764Y-110391916D01*
X149011858Y-110601263D01*
X149011861Y-110601271D01*
X149013261Y-110606496D01*
X149015549Y-110611403D01*
X149015550Y-110611405D01*
X149067719Y-110723280D01*
X149109432Y-110812734D01*
X149239953Y-110999139D01*
X149400861Y-111160047D01*
X149587266Y-111290568D01*
X149592172Y-111292855D01*
X149592176Y-111292858D01*
X149645274Y-111317618D01*
X149697450Y-111363375D01*
X149716869Y-111430000D01*
X149697450Y-111496625D01*
X149645274Y-111542382D01*
X149592176Y-111567141D01*
X149592163Y-111567148D01*
X149587266Y-111569432D01*
X149582833Y-111572535D01*
X149582826Y-111572540D01*
X149405296Y-111696847D01*
X149405291Y-111696850D01*
X149400861Y-111699953D01*
X149397037Y-111703776D01*
X149397031Y-111703782D01*
X149243782Y-111857031D01*
X149243776Y-111857037D01*
X149239953Y-111860861D01*
X149236850Y-111865291D01*
X149236847Y-111865296D01*
X149112540Y-112042826D01*
X149112535Y-112042833D01*
X149109432Y-112047266D01*
X149107144Y-112052172D01*
X149107142Y-112052176D01*
X149015550Y-112248594D01*
X149015547Y-112248599D01*
X149013261Y-112253504D01*
X149011862Y-112258724D01*
X149011858Y-112258736D01*
X148955764Y-112468083D01*
X148955762Y-112468094D01*
X148954365Y-112473308D01*
X148934532Y-112700000D01*
X148954365Y-112926692D01*
X148955762Y-112931907D01*
X148955764Y-112931916D01*
X149011858Y-113141263D01*
X149011861Y-113141271D01*
X149013261Y-113146496D01*
X149109432Y-113352734D01*
X149239953Y-113539139D01*
X149400861Y-113700047D01*
X149587266Y-113830568D01*
X149592172Y-113832855D01*
X149592176Y-113832858D01*
X149645274Y-113857618D01*
X149697450Y-113903375D01*
X149716869Y-113970000D01*
X149697450Y-114036625D01*
X149645274Y-114082382D01*
X149592176Y-114107141D01*
X149592163Y-114107148D01*
X149587266Y-114109432D01*
X149582833Y-114112535D01*
X149582826Y-114112540D01*
X149405296Y-114236847D01*
X149405291Y-114236850D01*
X149400861Y-114239953D01*
X149397037Y-114243776D01*
X149397031Y-114243782D01*
X149243782Y-114397031D01*
X149243776Y-114397037D01*
X149239953Y-114400861D01*
X149236850Y-114405291D01*
X149236847Y-114405296D01*
X149112540Y-114582826D01*
X149112538Y-114582830D01*
X149109432Y-114587266D01*
X149107144Y-114592172D01*
X149107142Y-114592176D01*
X149015550Y-114788594D01*
X149015547Y-114788599D01*
X149013261Y-114793504D01*
X149011862Y-114798724D01*
X149011858Y-114798736D01*
X148955764Y-115008083D01*
X148955762Y-115008094D01*
X148954365Y-115013308D01*
X148934532Y-115240000D01*
X148954365Y-115466692D01*
X148955762Y-115471907D01*
X148955764Y-115471916D01*
X149011858Y-115681263D01*
X149011861Y-115681271D01*
X149013261Y-115686496D01*
X149109432Y-115892734D01*
X149239953Y-116079139D01*
X149400861Y-116240047D01*
X149587266Y-116370568D01*
X149592172Y-116372855D01*
X149592176Y-116372858D01*
X149645274Y-116397618D01*
X149697450Y-116443375D01*
X149716869Y-116510000D01*
X149697450Y-116576625D01*
X149645274Y-116622382D01*
X149592176Y-116647141D01*
X149592163Y-116647148D01*
X149587266Y-116649432D01*
X149582833Y-116652535D01*
X149582826Y-116652540D01*
X149405296Y-116776847D01*
X149405291Y-116776850D01*
X149400861Y-116779953D01*
X149397037Y-116783776D01*
X149397031Y-116783782D01*
X149243782Y-116937031D01*
X149243776Y-116937037D01*
X149239953Y-116940861D01*
X149236850Y-116945291D01*
X149236847Y-116945296D01*
X149112540Y-117122826D01*
X149112535Y-117122833D01*
X149109432Y-117127266D01*
X149107144Y-117132172D01*
X149107142Y-117132176D01*
X149015550Y-117328594D01*
X149015547Y-117328599D01*
X149013261Y-117333504D01*
X149011862Y-117338724D01*
X149011858Y-117338736D01*
X148955764Y-117548083D01*
X148955762Y-117548094D01*
X148954365Y-117553308D01*
X148934532Y-117780000D01*
X148954365Y-118006692D01*
X148955762Y-118011907D01*
X148955764Y-118011916D01*
X149011858Y-118221263D01*
X149011861Y-118221271D01*
X149013261Y-118226496D01*
X149109432Y-118432734D01*
X149239953Y-118619139D01*
X149400861Y-118780047D01*
X149587266Y-118910568D01*
X149645276Y-118937618D01*
X149697449Y-118983373D01*
X149716869Y-119049997D01*
X149697451Y-119116622D01*
X149645276Y-119162380D01*
X149592178Y-119187141D01*
X149592173Y-119187143D01*
X149587266Y-119189432D01*
X149582833Y-119192535D01*
X149582826Y-119192540D01*
X149405296Y-119316847D01*
X149405291Y-119316850D01*
X149400861Y-119319953D01*
X149397037Y-119323776D01*
X149397031Y-119323782D01*
X149243782Y-119477031D01*
X149243776Y-119477037D01*
X149239953Y-119480861D01*
X149236850Y-119485291D01*
X149236847Y-119485296D01*
X149112540Y-119662826D01*
X149112535Y-119662833D01*
X149109432Y-119667266D01*
X149107144Y-119672172D01*
X149107142Y-119672176D01*
X149015550Y-119868594D01*
X149015547Y-119868599D01*
X149013261Y-119873504D01*
X149011862Y-119878724D01*
X149011858Y-119878736D01*
X148955764Y-120088083D01*
X148955762Y-120088094D01*
X148954365Y-120093308D01*
X148934532Y-120320000D01*
X148954365Y-120546692D01*
X148955762Y-120551907D01*
X148955764Y-120551916D01*
X149011858Y-120761263D01*
X149011861Y-120761271D01*
X149013261Y-120766496D01*
X149109432Y-120972734D01*
X149239953Y-121159139D01*
X149400861Y-121320047D01*
X149587266Y-121450568D01*
X149592172Y-121452855D01*
X149592176Y-121452858D01*
X149645274Y-121477618D01*
X149697450Y-121523375D01*
X149716869Y-121590000D01*
X149697450Y-121656625D01*
X149645274Y-121702382D01*
X149592176Y-121727141D01*
X149592163Y-121727148D01*
X149587266Y-121729432D01*
X149582833Y-121732535D01*
X149582826Y-121732540D01*
X149405296Y-121856847D01*
X149405291Y-121856850D01*
X149400861Y-121859953D01*
X149397037Y-121863776D01*
X149397031Y-121863782D01*
X149243782Y-122017031D01*
X149243776Y-122017037D01*
X149239953Y-122020861D01*
X149236850Y-122025291D01*
X149236847Y-122025296D01*
X149112540Y-122202826D01*
X149112535Y-122202833D01*
X149109432Y-122207266D01*
X149107144Y-122212172D01*
X149107142Y-122212176D01*
X149015550Y-122408594D01*
X149015547Y-122408599D01*
X149013261Y-122413504D01*
X149011862Y-122418724D01*
X149011858Y-122418736D01*
X148955764Y-122628083D01*
X148955762Y-122628094D01*
X148954365Y-122633308D01*
X148934532Y-122860000D01*
X148954365Y-123086692D01*
X148955762Y-123091907D01*
X148955764Y-123091916D01*
X149011858Y-123301263D01*
X149011861Y-123301271D01*
X149013261Y-123306496D01*
X149015549Y-123311403D01*
X149015550Y-123311405D01*
X149090948Y-123473095D01*
X149102301Y-123533610D01*
X149083147Y-123592125D01*
X149038209Y-123634214D01*
X148978566Y-123649500D01*
X147521849Y-123649500D01*
X147474396Y-123640061D01*
X147434168Y-123613181D01*
X137935819Y-114114832D01*
X137908939Y-114074604D01*
X137899500Y-114027151D01*
X137899500Y-96100848D01*
X137908939Y-96053395D01*
X137935819Y-96013167D01*
X138543021Y-95405965D01*
X139185311Y-94763674D01*
X139193481Y-94756240D01*
X139199877Y-94752182D01*
X139245918Y-94703152D01*
X139248535Y-94700450D01*
X139268120Y-94680867D01*
X139270585Y-94677688D01*
X139278167Y-94668812D01*
X139308062Y-94636978D01*
X139317713Y-94619419D01*
X139328390Y-94603166D01*
X139340673Y-94587332D01*
X139358018Y-94547248D01*
X139363151Y-94536767D01*
X139384197Y-94498488D01*
X139389179Y-94479080D01*
X139395482Y-94460672D01*
X139403437Y-94442292D01*
X139410271Y-94399140D01*
X139412633Y-94387734D01*
X139423500Y-94345415D01*
X139423500Y-94325379D01*
X139425027Y-94305981D01*
X139426939Y-94293909D01*
X139426938Y-94293909D01*
X139428160Y-94286200D01*
X139424050Y-94242720D01*
X139423500Y-94231051D01*
X139423500Y-92692518D01*
X139812000Y-92692518D01*
X139812353Y-92699114D01*
X139817573Y-92747667D01*
X139821111Y-92762641D01*
X139865547Y-92881777D01*
X139873962Y-92897189D01*
X139949498Y-92998092D01*
X139961907Y-93010501D01*
X140062810Y-93086037D01*
X140078222Y-93094452D01*
X140197358Y-93138888D01*
X140212332Y-93142426D01*
X140260885Y-93147646D01*
X140267482Y-93148000D01*
X140645674Y-93148000D01*
X140658549Y-93144549D01*
X140662000Y-93131674D01*
X141162000Y-93131674D01*
X141165450Y-93144549D01*
X141178326Y-93148000D01*
X141556518Y-93148000D01*
X141563114Y-93147646D01*
X141611667Y-93142426D01*
X141626641Y-93138888D01*
X141745777Y-93094452D01*
X141761189Y-93086037D01*
X141802970Y-93054760D01*
X141860407Y-93031180D01*
X141922075Y-93038398D01*
X142109544Y-93111024D01*
X142310024Y-93148500D01*
X142508247Y-93148500D01*
X142513976Y-93148500D01*
X142714456Y-93111024D01*
X142904637Y-93037348D01*
X143078041Y-92929981D01*
X143228764Y-92792579D01*
X143351673Y-92629821D01*
X143442582Y-92447250D01*
X143498397Y-92251083D01*
X143517215Y-92048000D01*
X143498397Y-91844917D01*
X143442582Y-91648750D01*
X143351673Y-91466179D01*
X143283481Y-91375878D01*
X143232221Y-91307998D01*
X143232217Y-91307994D01*
X143228764Y-91303421D01*
X143224527Y-91299558D01*
X143224523Y-91299554D01*
X143099427Y-91185515D01*
X143078041Y-91166019D01*
X143073171Y-91163004D01*
X143073169Y-91163002D01*
X142930257Y-91074515D01*
X142904637Y-91058652D01*
X142883370Y-91050413D01*
X142719803Y-90987047D01*
X142719798Y-90987045D01*
X142714456Y-90984976D01*
X142708818Y-90983922D01*
X142519605Y-90948552D01*
X142519602Y-90948551D01*
X142513976Y-90947500D01*
X142310024Y-90947500D01*
X142304398Y-90948551D01*
X142304394Y-90948552D01*
X142115181Y-90983922D01*
X142115178Y-90983922D01*
X142109544Y-90984976D01*
X142104205Y-90987044D01*
X142104192Y-90987048D01*
X141922076Y-91057600D01*
X141860410Y-91064820D01*
X141802973Y-91041240D01*
X141761193Y-91009964D01*
X141745777Y-91001547D01*
X141626641Y-90957111D01*
X141611667Y-90953573D01*
X141563114Y-90948353D01*
X141556518Y-90948000D01*
X141178326Y-90948000D01*
X141165450Y-90951450D01*
X141162000Y-90964326D01*
X141162000Y-93131674D01*
X140662000Y-93131674D01*
X140662000Y-92314326D01*
X140658549Y-92301450D01*
X140645674Y-92298000D01*
X139828326Y-92298000D01*
X139815450Y-92301450D01*
X139812000Y-92314326D01*
X139812000Y-92692518D01*
X139423500Y-92692518D01*
X139423500Y-91781674D01*
X139812000Y-91781674D01*
X139815450Y-91794549D01*
X139828326Y-91798000D01*
X140645674Y-91798000D01*
X140658549Y-91794549D01*
X140662000Y-91781674D01*
X140662000Y-90964326D01*
X140658549Y-90951450D01*
X140645674Y-90948000D01*
X140267482Y-90948000D01*
X140260885Y-90948353D01*
X140212332Y-90953573D01*
X140197358Y-90957111D01*
X140078222Y-91001547D01*
X140062810Y-91009962D01*
X139961907Y-91085498D01*
X139949498Y-91097907D01*
X139873962Y-91198810D01*
X139865547Y-91214222D01*
X139821111Y-91333358D01*
X139817573Y-91348332D01*
X139812353Y-91396885D01*
X139812000Y-91403482D01*
X139812000Y-91781674D01*
X139423500Y-91781674D01*
X139423500Y-91559772D01*
X139424020Y-91548719D01*
X139425672Y-91541333D01*
X139423561Y-91474145D01*
X139423500Y-91470251D01*
X139423500Y-91446545D01*
X139423500Y-91442650D01*
X139422998Y-91438681D01*
X139422080Y-91427024D01*
X139421133Y-91396885D01*
X139420709Y-91383373D01*
X139415120Y-91364140D01*
X139411174Y-91345083D01*
X139409641Y-91332944D01*
X139408664Y-91325208D01*
X139392582Y-91284591D01*
X139388803Y-91273551D01*
X139378795Y-91239102D01*
X139378793Y-91239099D01*
X139376618Y-91231610D01*
X139366417Y-91214360D01*
X139357863Y-91196901D01*
X139350486Y-91178268D01*
X139324808Y-91142925D01*
X139318401Y-91133171D01*
X139300142Y-91102296D01*
X139300141Y-91102294D01*
X139296170Y-91095580D01*
X139282004Y-91081414D01*
X139269370Y-91066622D01*
X139257594Y-91050413D01*
X139251583Y-91045440D01*
X139251581Y-91045438D01*
X139223941Y-91022573D01*
X139215300Y-91014710D01*
X136977819Y-88777228D01*
X136950939Y-88737000D01*
X136941500Y-88689547D01*
X136941500Y-64752518D01*
X137272000Y-64752518D01*
X137272353Y-64759114D01*
X137277573Y-64807667D01*
X137281111Y-64822641D01*
X137325547Y-64941777D01*
X137333962Y-64957189D01*
X137409498Y-65058092D01*
X137421907Y-65070501D01*
X137522810Y-65146037D01*
X137538222Y-65154452D01*
X137657358Y-65198888D01*
X137672332Y-65202426D01*
X137720885Y-65207646D01*
X137727482Y-65208000D01*
X138105674Y-65208000D01*
X138118549Y-65204549D01*
X138122000Y-65191674D01*
X138122000Y-64374326D01*
X138118549Y-64361450D01*
X138105674Y-64358000D01*
X137288326Y-64358000D01*
X137275450Y-64361450D01*
X137272000Y-64374326D01*
X137272000Y-64752518D01*
X136941500Y-64752518D01*
X136941500Y-63841674D01*
X137272000Y-63841674D01*
X137275450Y-63854549D01*
X137288326Y-63858000D01*
X138105674Y-63858000D01*
X138118549Y-63854549D01*
X138122000Y-63841674D01*
X138122000Y-63024326D01*
X138118549Y-63011450D01*
X138105674Y-63008000D01*
X137727482Y-63008000D01*
X137720885Y-63008353D01*
X137672332Y-63013573D01*
X137657358Y-63017111D01*
X137538222Y-63061547D01*
X137522810Y-63069962D01*
X137421907Y-63145498D01*
X137409498Y-63157907D01*
X137333962Y-63258810D01*
X137325547Y-63274222D01*
X137281111Y-63393358D01*
X137277573Y-63408332D01*
X137272353Y-63456885D01*
X137272000Y-63463482D01*
X137272000Y-63841674D01*
X136941500Y-63841674D01*
X136941500Y-59608452D01*
X136950939Y-59560999D01*
X136977819Y-59520771D01*
X139792772Y-56705818D01*
X139833000Y-56678938D01*
X139880453Y-56669499D01*
X140109561Y-56669499D01*
X140112872Y-56669499D01*
X140172483Y-56663091D01*
X140307331Y-56612796D01*
X140314434Y-56607478D01*
X140320572Y-56604127D01*
X140380000Y-56588959D01*
X140439428Y-56604127D01*
X140445566Y-56607478D01*
X140452669Y-56612796D01*
X140587517Y-56663091D01*
X140647127Y-56669500D01*
X140831547Y-56669499D01*
X140878999Y-56678938D01*
X140919227Y-56705817D01*
X143566729Y-59353320D01*
X143598822Y-59408905D01*
X143598822Y-59473093D01*
X143566728Y-59528680D01*
X140116182Y-62979225D01*
X140065182Y-63009995D01*
X140005718Y-63013433D01*
X139979610Y-63008552D01*
X139979597Y-63008550D01*
X139973976Y-63007500D01*
X139770024Y-63007500D01*
X139764398Y-63008551D01*
X139764394Y-63008552D01*
X139575181Y-63043922D01*
X139575178Y-63043922D01*
X139569544Y-63044976D01*
X139564205Y-63047044D01*
X139564192Y-63047048D01*
X139382076Y-63117600D01*
X139320410Y-63124820D01*
X139262973Y-63101240D01*
X139221193Y-63069964D01*
X139205777Y-63061547D01*
X139086641Y-63017111D01*
X139071667Y-63013573D01*
X139023114Y-63008353D01*
X139016518Y-63008000D01*
X138638326Y-63008000D01*
X138625450Y-63011450D01*
X138622000Y-63024326D01*
X138622000Y-65191674D01*
X138625450Y-65204549D01*
X138638326Y-65208000D01*
X139016518Y-65208000D01*
X139023114Y-65207646D01*
X139071667Y-65202426D01*
X139086641Y-65198888D01*
X139205777Y-65154452D01*
X139221189Y-65146037D01*
X139262970Y-65114760D01*
X139320407Y-65091180D01*
X139382075Y-65098398D01*
X139569544Y-65171024D01*
X139770024Y-65208500D01*
X139968247Y-65208500D01*
X139973976Y-65208500D01*
X140174456Y-65171024D01*
X140364637Y-65097348D01*
X140538041Y-64989981D01*
X140688764Y-64852579D01*
X140764326Y-64752518D01*
X147432000Y-64752518D01*
X147432353Y-64759114D01*
X147437573Y-64807667D01*
X147441111Y-64822641D01*
X147485547Y-64941777D01*
X147493962Y-64957189D01*
X147569498Y-65058092D01*
X147581907Y-65070501D01*
X147682810Y-65146037D01*
X147698222Y-65154452D01*
X147817358Y-65198888D01*
X147832332Y-65202426D01*
X147880885Y-65207646D01*
X147887482Y-65208000D01*
X148265674Y-65208000D01*
X148278549Y-65204549D01*
X148282000Y-65191674D01*
X148282000Y-64374326D01*
X148278549Y-64361450D01*
X148265674Y-64358000D01*
X147448326Y-64358000D01*
X147435450Y-64361450D01*
X147432000Y-64374326D01*
X147432000Y-64752518D01*
X140764326Y-64752518D01*
X140811673Y-64689821D01*
X140902582Y-64507250D01*
X140958397Y-64311083D01*
X140977215Y-64108000D01*
X140963875Y-63964041D01*
X140970716Y-63910493D01*
X140999663Y-63864925D01*
X141022914Y-63841674D01*
X147432000Y-63841674D01*
X147435450Y-63854549D01*
X147448326Y-63858000D01*
X148265674Y-63858000D01*
X148278549Y-63854549D01*
X148282000Y-63841674D01*
X148282000Y-63024326D01*
X148278549Y-63011450D01*
X148265674Y-63008000D01*
X147887482Y-63008000D01*
X147880885Y-63008353D01*
X147832332Y-63013573D01*
X147817358Y-63017111D01*
X147698222Y-63061547D01*
X147682810Y-63069962D01*
X147581907Y-63145498D01*
X147569498Y-63157907D01*
X147493962Y-63258810D01*
X147485547Y-63274222D01*
X147441111Y-63393358D01*
X147437573Y-63408332D01*
X147432353Y-63456885D01*
X147432000Y-63463482D01*
X147432000Y-63841674D01*
X141022914Y-63841674D01*
X144699771Y-60164818D01*
X144740000Y-60137938D01*
X144787453Y-60128499D01*
X145620561Y-60128499D01*
X145623872Y-60128499D01*
X145683483Y-60122091D01*
X145818331Y-60071796D01*
X145867521Y-60034971D01*
X145924956Y-60011392D01*
X145986622Y-60018610D01*
X146173544Y-60091024D01*
X146374024Y-60128500D01*
X146572247Y-60128500D01*
X146577976Y-60128500D01*
X146778456Y-60091024D01*
X146968637Y-60017348D01*
X147142041Y-59909981D01*
X147292764Y-59772579D01*
X147415673Y-59609821D01*
X147506582Y-59427250D01*
X147562397Y-59231083D01*
X147581215Y-59028000D01*
X147562397Y-58824917D01*
X147506582Y-58628750D01*
X147415673Y-58446179D01*
X147320200Y-58319752D01*
X147296221Y-58287998D01*
X147296217Y-58287994D01*
X147292764Y-58283421D01*
X147288527Y-58279558D01*
X147288523Y-58279554D01*
X147185535Y-58185669D01*
X147142041Y-58146019D01*
X147141726Y-58145824D01*
X147111862Y-58112601D01*
X147100164Y-58080422D01*
X147098710Y-58080845D01*
X147093118Y-58061600D01*
X147089174Y-58042555D01*
X147086664Y-58022680D01*
X147070579Y-57982055D01*
X147066806Y-57971034D01*
X147054618Y-57929082D01*
X147044417Y-57911832D01*
X147035863Y-57894373D01*
X147028486Y-57875740D01*
X147002808Y-57840397D01*
X146996401Y-57830643D01*
X146978142Y-57799768D01*
X146978141Y-57799766D01*
X146974170Y-57793052D01*
X146960005Y-57778886D01*
X146947370Y-57764094D01*
X146935594Y-57747885D01*
X146929583Y-57742912D01*
X146929581Y-57742910D01*
X146901941Y-57720045D01*
X146893300Y-57712182D01*
X144012814Y-54831695D01*
X144005370Y-54823514D01*
X144001314Y-54817123D01*
X143952303Y-54771098D01*
X143949506Y-54768387D01*
X143932755Y-54751636D01*
X143929999Y-54748880D01*
X143926818Y-54746412D01*
X143917942Y-54738830D01*
X143891797Y-54714278D01*
X143891795Y-54714276D01*
X143886110Y-54708938D01*
X143879277Y-54705182D01*
X143879271Y-54705177D01*
X143868553Y-54699285D01*
X143852294Y-54688606D01*
X143842623Y-54681104D01*
X143842620Y-54681102D01*
X143836464Y-54676327D01*
X143829307Y-54673229D01*
X143829304Y-54673228D01*
X143796377Y-54658978D01*
X143785891Y-54653841D01*
X143754460Y-54636562D01*
X143754451Y-54636558D01*
X143747620Y-54632803D01*
X143740063Y-54630862D01*
X143740059Y-54630861D01*
X143728216Y-54627820D01*
X143709812Y-54621519D01*
X143698585Y-54616660D01*
X143698578Y-54616658D01*
X143691424Y-54613562D01*
X143683720Y-54612341D01*
X143683718Y-54612341D01*
X143648287Y-54606729D01*
X143636852Y-54604361D01*
X143602099Y-54595438D01*
X143602091Y-54595437D01*
X143594547Y-54593500D01*
X143586751Y-54593500D01*
X143574511Y-54593500D01*
X143555125Y-54591974D01*
X143535332Y-54588840D01*
X143527566Y-54589574D01*
X143527563Y-54589574D01*
X143491852Y-54592950D01*
X143480183Y-54593500D01*
X143229499Y-54593500D01*
X143167499Y-54576887D01*
X143122112Y-54531500D01*
X143105499Y-54469500D01*
X143105499Y-54243500D01*
X143122112Y-54181500D01*
X143167499Y-54136113D01*
X143229499Y-54119500D01*
X144695548Y-54119500D01*
X144743001Y-54128939D01*
X144783229Y-54155819D01*
X147508707Y-56881297D01*
X147516156Y-56889483D01*
X147520214Y-56895877D01*
X147525899Y-56901215D01*
X147525901Y-56901218D01*
X147569239Y-56941915D01*
X147572036Y-56944626D01*
X147591530Y-56964120D01*
X147594615Y-56966513D01*
X147594701Y-56966580D01*
X147603573Y-56974158D01*
X147616880Y-56986654D01*
X147635418Y-57004062D01*
X147642248Y-57007817D01*
X147642251Y-57007819D01*
X147652971Y-57013712D01*
X147669222Y-57024386D01*
X147685064Y-57036674D01*
X147692221Y-57039771D01*
X147692223Y-57039772D01*
X147725155Y-57054022D01*
X147735650Y-57059164D01*
X147773908Y-57080197D01*
X147793312Y-57085179D01*
X147811714Y-57091480D01*
X147822941Y-57096338D01*
X147830105Y-57099438D01*
X147867697Y-57105391D01*
X147873239Y-57106269D01*
X147884682Y-57108639D01*
X147919425Y-57117560D01*
X147919426Y-57117560D01*
X147926981Y-57119500D01*
X147947017Y-57119500D01*
X147966402Y-57121025D01*
X147986196Y-57124160D01*
X148024276Y-57120560D01*
X148029676Y-57120050D01*
X148041345Y-57119500D01*
X149710225Y-57119500D01*
X149721280Y-57120021D01*
X149728667Y-57121673D01*
X149795872Y-57119561D01*
X149799768Y-57119500D01*
X149823448Y-57119500D01*
X149827350Y-57119500D01*
X149831313Y-57118999D01*
X149842963Y-57118080D01*
X149886627Y-57116709D01*
X149905861Y-57111119D01*
X149924917Y-57107174D01*
X149944792Y-57104664D01*
X149985395Y-57088587D01*
X149996450Y-57084802D01*
X150038390Y-57072618D01*
X150055629Y-57062422D01*
X150073103Y-57053862D01*
X150084474Y-57049360D01*
X150084476Y-57049358D01*
X150091732Y-57046486D01*
X150127069Y-57020811D01*
X150136824Y-57014403D01*
X150174420Y-56992170D01*
X150188584Y-56978005D01*
X150203379Y-56965368D01*
X150219587Y-56953594D01*
X150247428Y-56919938D01*
X150255269Y-56911319D01*
X150460774Y-56705815D01*
X150501001Y-56678938D01*
X150548453Y-56669499D01*
X150777561Y-56669499D01*
X150780872Y-56669499D01*
X150840483Y-56663091D01*
X150956406Y-56619854D01*
X151013050Y-56612754D01*
X151066876Y-56631787D01*
X151106469Y-56672919D01*
X151114580Y-56686635D01*
X151123136Y-56704099D01*
X151127642Y-56715480D01*
X151127643Y-56715483D01*
X151130514Y-56722732D01*
X151152144Y-56752503D01*
X151156181Y-56758060D01*
X151162593Y-56767822D01*
X151180856Y-56798702D01*
X151180859Y-56798707D01*
X151184830Y-56805420D01*
X151190345Y-56810934D01*
X151190345Y-56810935D01*
X151198990Y-56819580D01*
X151211626Y-56834374D01*
X151218819Y-56844275D01*
X151218823Y-56844279D01*
X151223406Y-56850587D01*
X151229415Y-56855558D01*
X151229416Y-56855559D01*
X151257058Y-56878426D01*
X151265699Y-56886289D01*
X153794707Y-59415298D01*
X153802159Y-59423487D01*
X153806214Y-59429877D01*
X153852234Y-59473093D01*
X153855223Y-59475900D01*
X153858020Y-59478611D01*
X153877529Y-59498120D01*
X153880709Y-59500587D01*
X153889571Y-59508155D01*
X153903005Y-59520771D01*
X153915732Y-59532723D01*
X153915734Y-59532724D01*
X153921418Y-59538062D01*
X153928251Y-59541818D01*
X153928252Y-59541819D01*
X153938973Y-59547713D01*
X153955234Y-59558394D01*
X153971064Y-59570673D01*
X154011155Y-59588021D01*
X154021635Y-59593155D01*
X154059908Y-59614197D01*
X154079316Y-59619180D01*
X154097719Y-59625481D01*
X154108944Y-59630339D01*
X154108946Y-59630339D01*
X154116104Y-59633437D01*
X154159258Y-59640271D01*
X154170644Y-59642629D01*
X154212981Y-59653500D01*
X154233017Y-59653500D01*
X154252415Y-59655027D01*
X154264486Y-59656939D01*
X154264487Y-59656939D01*
X154272196Y-59658160D01*
X154310276Y-59654560D01*
X154315676Y-59654050D01*
X154327345Y-59653500D01*
X154342548Y-59653500D01*
X154398843Y-59667015D01*
X154442866Y-59704615D01*
X154465021Y-59758102D01*
X154460479Y-59815818D01*
X154430229Y-59865181D01*
X150976020Y-63319387D01*
X150922273Y-63350972D01*
X150859949Y-63352412D01*
X150804801Y-63323343D01*
X150702275Y-63229879D01*
X150702276Y-63229879D01*
X150698041Y-63226019D01*
X150693171Y-63223004D01*
X150693169Y-63223002D01*
X150567995Y-63145498D01*
X150524637Y-63118652D01*
X150519294Y-63116582D01*
X150339803Y-63047047D01*
X150339798Y-63047045D01*
X150334456Y-63044976D01*
X150328818Y-63043922D01*
X150139605Y-63008552D01*
X150139602Y-63008551D01*
X150133976Y-63007500D01*
X149930024Y-63007500D01*
X149924398Y-63008551D01*
X149924394Y-63008552D01*
X149735181Y-63043922D01*
X149735178Y-63043922D01*
X149729544Y-63044976D01*
X149724205Y-63047044D01*
X149724192Y-63047048D01*
X149542076Y-63117600D01*
X149480410Y-63124820D01*
X149422973Y-63101240D01*
X149381193Y-63069964D01*
X149365777Y-63061547D01*
X149246641Y-63017111D01*
X149231667Y-63013573D01*
X149183114Y-63008353D01*
X149176518Y-63008000D01*
X148798326Y-63008000D01*
X148785450Y-63011450D01*
X148782000Y-63024326D01*
X148782000Y-65191674D01*
X148785450Y-65204549D01*
X148798326Y-65208000D01*
X149176518Y-65208000D01*
X149183114Y-65207646D01*
X149231667Y-65202426D01*
X149246641Y-65198888D01*
X149365777Y-65154452D01*
X149381189Y-65146037D01*
X149422970Y-65114760D01*
X149480407Y-65091180D01*
X149542075Y-65098398D01*
X149729544Y-65171024D01*
X149930024Y-65208500D01*
X150128247Y-65208500D01*
X150133976Y-65208500D01*
X150334456Y-65171024D01*
X150524637Y-65097348D01*
X150698041Y-64989981D01*
X150848764Y-64852579D01*
X150901066Y-64783318D01*
X150950041Y-64744565D01*
X151009469Y-64734958D01*
X151012667Y-64735673D01*
X151079872Y-64733561D01*
X151083768Y-64733500D01*
X151107448Y-64733500D01*
X151111350Y-64733500D01*
X151115313Y-64732999D01*
X151126963Y-64732080D01*
X151170627Y-64730709D01*
X151189861Y-64725119D01*
X151208917Y-64721174D01*
X151228792Y-64718664D01*
X151269395Y-64702587D01*
X151280450Y-64698802D01*
X151322390Y-64686618D01*
X151339629Y-64676422D01*
X151357103Y-64667862D01*
X151368474Y-64663360D01*
X151368476Y-64663358D01*
X151375732Y-64660486D01*
X151411069Y-64634811D01*
X151420824Y-64628403D01*
X151458420Y-64606170D01*
X151472584Y-64592005D01*
X151487379Y-64579368D01*
X151503587Y-64567594D01*
X151531428Y-64533938D01*
X151539279Y-64525309D01*
X155899771Y-60164818D01*
X155940000Y-60137938D01*
X155987453Y-60128499D01*
X156796561Y-60128499D01*
X156799872Y-60128499D01*
X156859483Y-60122091D01*
X156994331Y-60071796D01*
X157043521Y-60034971D01*
X157100956Y-60011392D01*
X157162622Y-60018610D01*
X157349544Y-60091024D01*
X157550024Y-60128500D01*
X157748247Y-60128500D01*
X157753976Y-60128500D01*
X157954456Y-60091024D01*
X158144637Y-60017348D01*
X158318041Y-59909981D01*
X158468764Y-59772579D01*
X158591673Y-59609821D01*
X158682582Y-59427250D01*
X158738397Y-59231083D01*
X158757215Y-59028000D01*
X158738397Y-58824917D01*
X158682582Y-58628750D01*
X158591673Y-58446179D01*
X158496200Y-58319752D01*
X158472221Y-58287998D01*
X158472217Y-58287994D01*
X158468764Y-58283421D01*
X158464527Y-58279558D01*
X158464523Y-58279554D01*
X158361535Y-58185669D01*
X158318041Y-58146019D01*
X158317726Y-58145824D01*
X158287862Y-58112601D01*
X158276164Y-58080422D01*
X158274710Y-58080845D01*
X158269118Y-58061600D01*
X158265174Y-58042555D01*
X158262664Y-58022680D01*
X158246579Y-57982055D01*
X158242806Y-57971034D01*
X158230618Y-57929082D01*
X158220417Y-57911832D01*
X158211863Y-57894373D01*
X158204486Y-57875740D01*
X158178808Y-57840397D01*
X158172401Y-57830643D01*
X158154142Y-57799768D01*
X158154141Y-57799766D01*
X158150170Y-57793052D01*
X158136005Y-57778886D01*
X158123370Y-57764094D01*
X158111594Y-57747885D01*
X158105583Y-57742912D01*
X158105581Y-57742910D01*
X158077941Y-57720045D01*
X158069300Y-57712182D01*
X155188814Y-54831695D01*
X155181370Y-54823514D01*
X155177314Y-54817123D01*
X155128303Y-54771098D01*
X155125506Y-54768387D01*
X155108755Y-54751636D01*
X155105999Y-54748880D01*
X155102818Y-54746412D01*
X155093942Y-54738830D01*
X155067797Y-54714278D01*
X155067795Y-54714276D01*
X155062110Y-54708938D01*
X155055277Y-54705182D01*
X155055271Y-54705177D01*
X155044553Y-54699285D01*
X155028294Y-54688606D01*
X155018623Y-54681104D01*
X155018620Y-54681102D01*
X155012464Y-54676327D01*
X155005307Y-54673229D01*
X155005304Y-54673228D01*
X154972377Y-54658978D01*
X154961891Y-54653841D01*
X154930460Y-54636562D01*
X154930451Y-54636558D01*
X154923620Y-54632803D01*
X154916063Y-54630862D01*
X154916059Y-54630861D01*
X154904216Y-54627820D01*
X154885812Y-54621519D01*
X154874585Y-54616660D01*
X154874578Y-54616658D01*
X154867424Y-54613562D01*
X154859720Y-54612341D01*
X154859718Y-54612341D01*
X154824287Y-54606729D01*
X154812852Y-54604361D01*
X154778099Y-54595438D01*
X154778091Y-54595437D01*
X154770547Y-54593500D01*
X154762751Y-54593500D01*
X154750511Y-54593500D01*
X154731125Y-54591974D01*
X154711332Y-54588840D01*
X154703566Y-54589574D01*
X154703563Y-54589574D01*
X154667852Y-54592950D01*
X154656183Y-54593500D01*
X153897499Y-54593500D01*
X153835499Y-54576887D01*
X153790112Y-54531500D01*
X153773499Y-54469500D01*
X153773499Y-54224439D01*
X153773499Y-54221128D01*
X153767091Y-54161517D01*
X153716796Y-54026669D01*
X153630546Y-53911454D01*
X153515331Y-53825204D01*
X153380483Y-53774909D01*
X153372770Y-53774079D01*
X153372767Y-53774079D01*
X153324180Y-53768855D01*
X153324169Y-53768854D01*
X153320873Y-53768500D01*
X153317550Y-53768500D01*
X152588439Y-53768500D01*
X152588420Y-53768500D01*
X152585128Y-53768501D01*
X152581850Y-53768853D01*
X152581838Y-53768854D01*
X152533231Y-53774079D01*
X152533225Y-53774080D01*
X152525517Y-53774909D01*
X152518252Y-53777618D01*
X152518246Y-53777620D01*
X152398976Y-53822105D01*
X152398971Y-53822107D01*
X152390669Y-53825204D01*
X152383573Y-53830515D01*
X152377425Y-53833873D01*
X152318000Y-53849040D01*
X152258575Y-53833873D01*
X152252426Y-53830515D01*
X152245331Y-53825204D01*
X152237024Y-53822106D01*
X152237023Y-53822105D01*
X152117752Y-53777620D01*
X152117750Y-53777619D01*
X152110483Y-53774909D01*
X152102770Y-53774079D01*
X152102767Y-53774079D01*
X152054180Y-53768855D01*
X152054169Y-53768854D01*
X152050873Y-53768500D01*
X152047551Y-53768500D01*
X151798453Y-53768500D01*
X151751000Y-53759061D01*
X151710772Y-53732181D01*
X151535286Y-53556695D01*
X151527842Y-53548514D01*
X151523786Y-53542123D01*
X151474775Y-53496098D01*
X151471978Y-53493387D01*
X151455227Y-53476636D01*
X151452471Y-53473880D01*
X151449290Y-53471412D01*
X151440414Y-53463830D01*
X151414269Y-53439278D01*
X151414267Y-53439276D01*
X151408582Y-53433938D01*
X151401749Y-53430182D01*
X151401743Y-53430177D01*
X151391025Y-53424285D01*
X151374766Y-53413606D01*
X151365095Y-53406104D01*
X151365092Y-53406102D01*
X151358936Y-53401327D01*
X151351779Y-53398229D01*
X151351776Y-53398228D01*
X151318849Y-53383978D01*
X151308363Y-53378841D01*
X151276932Y-53361562D01*
X151276923Y-53361558D01*
X151270092Y-53357803D01*
X151262535Y-53355862D01*
X151262531Y-53355861D01*
X151250688Y-53352820D01*
X151232284Y-53346519D01*
X151221057Y-53341660D01*
X151221050Y-53341658D01*
X151213896Y-53338562D01*
X151206192Y-53337341D01*
X151206190Y-53337341D01*
X151170759Y-53331729D01*
X151159324Y-53329361D01*
X151124571Y-53320438D01*
X151124563Y-53320437D01*
X151117019Y-53318500D01*
X151109223Y-53318500D01*
X151096983Y-53318500D01*
X151077597Y-53316974D01*
X151057804Y-53313840D01*
X151050038Y-53314574D01*
X151050035Y-53314574D01*
X151014324Y-53317950D01*
X151002655Y-53318500D01*
X149865775Y-53318500D01*
X149854719Y-53317978D01*
X149847333Y-53316327D01*
X149839545Y-53316571D01*
X149839538Y-53316571D01*
X149780113Y-53318439D01*
X149776219Y-53318500D01*
X149748650Y-53318500D01*
X149744794Y-53318986D01*
X149744791Y-53318987D01*
X149744735Y-53318994D01*
X149744662Y-53319003D01*
X149733044Y-53319917D01*
X149697165Y-53321045D01*
X149697164Y-53321045D01*
X149689373Y-53321290D01*
X149681888Y-53323464D01*
X149681884Y-53323465D01*
X149670125Y-53326881D01*
X149651087Y-53330823D01*
X149638949Y-53332357D01*
X149638941Y-53332358D01*
X149631208Y-53333336D01*
X149623960Y-53336205D01*
X149623954Y-53336207D01*
X149590597Y-53349413D01*
X149579554Y-53353194D01*
X149545100Y-53363205D01*
X149545094Y-53363207D01*
X149537610Y-53365382D01*
X149530898Y-53369351D01*
X149530896Y-53369352D01*
X149520364Y-53375580D01*
X149502904Y-53384134D01*
X149491519Y-53388642D01*
X149491513Y-53388644D01*
X149484268Y-53391514D01*
X149477963Y-53396094D01*
X149477955Y-53396099D01*
X149448932Y-53417185D01*
X149439174Y-53423595D01*
X149408296Y-53441857D01*
X149408290Y-53441861D01*
X149401580Y-53445830D01*
X149396067Y-53451341D01*
X149396060Y-53451348D01*
X149387410Y-53459998D01*
X149372627Y-53472624D01*
X149362726Y-53479817D01*
X149362716Y-53479826D01*
X149356413Y-53484406D01*
X149351444Y-53490411D01*
X149351441Y-53490415D01*
X149328572Y-53518059D01*
X149320711Y-53526697D01*
X149115226Y-53732181D01*
X149074998Y-53759061D01*
X149027545Y-53768500D01*
X148778439Y-53768500D01*
X148778420Y-53768500D01*
X148775128Y-53768501D01*
X148771850Y-53768853D01*
X148771838Y-53768854D01*
X148723231Y-53774079D01*
X148723225Y-53774080D01*
X148715517Y-53774909D01*
X148708252Y-53777618D01*
X148708246Y-53777620D01*
X148588980Y-53822104D01*
X148588978Y-53822104D01*
X148580669Y-53825204D01*
X148573572Y-53830516D01*
X148573568Y-53830519D01*
X148472550Y-53906141D01*
X148472546Y-53906144D01*
X148465454Y-53911454D01*
X148460144Y-53918546D01*
X148460141Y-53918550D01*
X148384519Y-54019568D01*
X148384516Y-54019572D01*
X148379204Y-54026669D01*
X148376104Y-54034978D01*
X148376104Y-54034980D01*
X148331620Y-54154247D01*
X148331619Y-54154250D01*
X148328909Y-54161517D01*
X148328079Y-54169227D01*
X148328079Y-54169232D01*
X148322855Y-54217819D01*
X148322854Y-54217831D01*
X148322500Y-54221127D01*
X148322500Y-54224448D01*
X148322500Y-54224449D01*
X148322500Y-55626548D01*
X148308985Y-55682843D01*
X148271385Y-55726866D01*
X148217898Y-55749021D01*
X148160182Y-55744479D01*
X148110819Y-55714229D01*
X146876266Y-54479676D01*
X145503286Y-53106695D01*
X145495842Y-53098514D01*
X145491786Y-53092123D01*
X145442775Y-53046098D01*
X145439978Y-53043387D01*
X145423227Y-53026636D01*
X145420471Y-53023880D01*
X145417290Y-53021412D01*
X145408414Y-53013830D01*
X145382269Y-52989278D01*
X145382267Y-52989276D01*
X145376582Y-52983938D01*
X145369749Y-52980182D01*
X145369743Y-52980177D01*
X145359025Y-52974285D01*
X145342766Y-52963606D01*
X145333095Y-52956104D01*
X145333092Y-52956102D01*
X145326936Y-52951327D01*
X145319779Y-52948229D01*
X145319776Y-52948228D01*
X145286849Y-52933978D01*
X145276363Y-52928841D01*
X145244932Y-52911562D01*
X145244923Y-52911558D01*
X145238092Y-52907803D01*
X145230535Y-52905862D01*
X145230531Y-52905861D01*
X145218688Y-52902820D01*
X145200284Y-52896519D01*
X145189057Y-52891660D01*
X145189050Y-52891658D01*
X145181896Y-52888562D01*
X145174192Y-52887341D01*
X145174190Y-52887341D01*
X145138759Y-52881729D01*
X145127324Y-52879361D01*
X145092571Y-52870438D01*
X145092563Y-52870437D01*
X145085019Y-52868500D01*
X145077223Y-52868500D01*
X145064983Y-52868500D01*
X145045597Y-52866974D01*
X145025804Y-52863840D01*
X145018038Y-52864574D01*
X145018035Y-52864574D01*
X144982324Y-52867950D01*
X144970655Y-52868500D01*
X136847771Y-52868500D01*
X136836718Y-52867979D01*
X136829332Y-52866328D01*
X136821534Y-52866573D01*
X136762144Y-52868439D01*
X136758250Y-52868500D01*
X136730650Y-52868500D01*
X136726799Y-52868986D01*
X136726768Y-52868988D01*
X136726640Y-52869005D01*
X136715029Y-52869918D01*
X136679171Y-52871045D01*
X136679164Y-52871046D01*
X136671372Y-52871291D01*
X136663888Y-52873465D01*
X136663877Y-52873467D01*
X136652128Y-52876881D01*
X136633083Y-52880825D01*
X136620947Y-52882358D01*
X136620944Y-52882358D01*
X136613208Y-52883336D01*
X136605960Y-52886205D01*
X136605950Y-52886208D01*
X136572592Y-52899415D01*
X136561550Y-52903196D01*
X136527097Y-52913207D01*
X136527092Y-52913208D01*
X136519610Y-52915383D01*
X136512902Y-52919349D01*
X136512897Y-52919352D01*
X136502364Y-52925581D01*
X136484900Y-52934136D01*
X136473524Y-52938640D01*
X136473517Y-52938643D01*
X136466268Y-52941514D01*
X136459962Y-52946094D01*
X136459957Y-52946098D01*
X136430927Y-52967189D01*
X136421169Y-52973598D01*
X136390298Y-52991856D01*
X136383579Y-52995830D01*
X136378063Y-53001344D01*
X136378056Y-53001351D01*
X136369407Y-53010000D01*
X136354624Y-53022626D01*
X136344727Y-53029817D01*
X136344720Y-53029823D01*
X136338413Y-53034406D01*
X136333446Y-53040408D01*
X136333435Y-53040420D01*
X136310570Y-53068059D01*
X136302710Y-53076697D01*
X135420696Y-53958711D01*
X135412511Y-53966159D01*
X135406123Y-53970214D01*
X135400788Y-53975894D01*
X135400783Y-53975899D01*
X135360096Y-54019225D01*
X135357392Y-54022016D01*
X135340628Y-54038780D01*
X135340621Y-54038787D01*
X135337880Y-54041529D01*
X135335500Y-54044596D01*
X135335489Y-54044609D01*
X135335400Y-54044725D01*
X135327842Y-54053570D01*
X135303280Y-54079727D01*
X135303273Y-54079736D01*
X135297938Y-54085418D01*
X135294182Y-54092249D01*
X135294179Y-54092254D01*
X135288285Y-54102975D01*
X135277609Y-54119227D01*
X135270109Y-54128896D01*
X135270101Y-54128907D01*
X135265327Y-54135064D01*
X135262234Y-54142208D01*
X135262229Y-54142219D01*
X135247974Y-54175160D01*
X135242838Y-54185643D01*
X135221803Y-54223908D01*
X135219864Y-54231456D01*
X135219863Y-54231461D01*
X135216822Y-54243307D01*
X135210521Y-54261711D01*
X135205658Y-54272948D01*
X135205656Y-54272952D01*
X135202562Y-54280104D01*
X135201342Y-54287803D01*
X135201342Y-54287805D01*
X135195729Y-54323241D01*
X135193361Y-54334676D01*
X135184438Y-54369428D01*
X135184436Y-54369436D01*
X135182500Y-54376981D01*
X135182500Y-54384777D01*
X135182500Y-54397017D01*
X135180974Y-54416402D01*
X135177840Y-54436196D01*
X135178574Y-54443961D01*
X135178574Y-54443964D01*
X135181950Y-54479676D01*
X135182500Y-54491345D01*
X135182500Y-85738548D01*
X135168985Y-85794843D01*
X135131385Y-85838866D01*
X135077898Y-85861021D01*
X135020182Y-85856479D01*
X134970819Y-85826229D01*
X133029985Y-83885395D01*
X130940237Y-81795646D01*
X130908143Y-81740058D01*
X130908143Y-81675876D01*
X130935063Y-81575408D01*
X130955659Y-81340000D01*
X130935063Y-81104592D01*
X130873903Y-80876337D01*
X130774035Y-80662171D01*
X130638495Y-80468599D01*
X130516569Y-80346673D01*
X130485273Y-80293927D01*
X130483084Y-80232634D01*
X130510537Y-80177789D01*
X130560916Y-80142810D01*
X130692331Y-80093796D01*
X130807546Y-80007546D01*
X130893796Y-79892331D01*
X130944091Y-79757483D01*
X130950500Y-79697873D01*
X130950499Y-77902128D01*
X130944091Y-77842517D01*
X130893796Y-77707669D01*
X130807546Y-77592454D01*
X130692331Y-77506204D01*
X130557483Y-77455909D01*
X130549770Y-77455079D01*
X130549767Y-77455079D01*
X130501180Y-77449855D01*
X130501169Y-77449854D01*
X130497873Y-77449500D01*
X130494550Y-77449500D01*
X128705439Y-77449500D01*
X128705420Y-77449500D01*
X128702128Y-77449501D01*
X128698850Y-77449853D01*
X128698838Y-77449854D01*
X128650231Y-77455079D01*
X128650225Y-77455080D01*
X128642517Y-77455909D01*
X128635252Y-77458618D01*
X128635246Y-77458620D01*
X128515980Y-77503104D01*
X128515978Y-77503104D01*
X128507669Y-77506204D01*
X128500572Y-77511516D01*
X128500568Y-77511519D01*
X128399550Y-77587141D01*
X128399546Y-77587144D01*
X128392454Y-77592454D01*
X128387144Y-77599546D01*
X128387141Y-77599550D01*
X128311519Y-77700568D01*
X128311516Y-77700572D01*
X128306204Y-77707669D01*
X128303104Y-77715978D01*
X128303104Y-77715980D01*
X128258620Y-77835247D01*
X128258619Y-77835250D01*
X128255909Y-77842517D01*
X128255079Y-77850227D01*
X128255079Y-77850232D01*
X128249855Y-77898819D01*
X128249854Y-77898831D01*
X128249500Y-77902127D01*
X128249500Y-77905448D01*
X128249500Y-77905449D01*
X128249500Y-79694560D01*
X128249500Y-79694578D01*
X128249501Y-79697872D01*
X128249853Y-79701150D01*
X128249854Y-79701161D01*
X128255079Y-79749768D01*
X128255080Y-79749773D01*
X128255909Y-79757483D01*
X128258619Y-79764749D01*
X128258620Y-79764753D01*
X128292217Y-79854831D01*
X128306204Y-79892331D01*
X128392454Y-80007546D01*
X128507669Y-80093796D01*
X128617405Y-80134725D01*
X128639082Y-80142810D01*
X128689462Y-80177789D01*
X128716915Y-80232633D01*
X128714726Y-80293926D01*
X128683431Y-80346672D01*
X128561505Y-80468599D01*
X128558402Y-80473029D01*
X128558399Y-80473034D01*
X128429073Y-80657731D01*
X128429068Y-80657738D01*
X128425965Y-80662171D01*
X128423677Y-80667077D01*
X128423675Y-80667081D01*
X128328386Y-80871427D01*
X128328383Y-80871432D01*
X128326097Y-80876337D01*
X128324698Y-80881557D01*
X128324694Y-80881569D01*
X128266337Y-81099365D01*
X128266335Y-81099371D01*
X128264937Y-81104592D01*
X128244341Y-81340000D01*
X128264937Y-81575408D01*
X128266336Y-81580630D01*
X128266337Y-81580634D01*
X128324694Y-81798430D01*
X128324697Y-81798438D01*
X128326097Y-81803663D01*
X128328385Y-81808570D01*
X128328386Y-81808572D01*
X128423678Y-82012927D01*
X128423681Y-82012933D01*
X128425965Y-82017830D01*
X128561505Y-82211401D01*
X128562738Y-82212634D01*
X128588618Y-82266089D01*
X128585971Y-82326728D01*
X128554861Y-82378846D01*
X128037696Y-82896010D01*
X128029511Y-82903458D01*
X128023123Y-82907513D01*
X128017788Y-82913193D01*
X128017783Y-82913198D01*
X127977096Y-82956524D01*
X127974392Y-82959315D01*
X127957628Y-82976079D01*
X127957621Y-82976086D01*
X127954880Y-82978828D01*
X127952500Y-82981895D01*
X127952489Y-82981908D01*
X127952400Y-82982024D01*
X127944842Y-82990869D01*
X127920280Y-83017026D01*
X127920273Y-83017035D01*
X127914938Y-83022717D01*
X127911182Y-83029548D01*
X127911179Y-83029553D01*
X127905285Y-83040274D01*
X127894609Y-83056526D01*
X127887109Y-83066195D01*
X127887101Y-83066206D01*
X127882327Y-83072363D01*
X127879234Y-83079507D01*
X127879229Y-83079518D01*
X127864974Y-83112459D01*
X127859838Y-83122942D01*
X127838803Y-83161207D01*
X127836864Y-83168755D01*
X127836863Y-83168760D01*
X127833822Y-83180606D01*
X127827521Y-83199010D01*
X127822658Y-83210247D01*
X127822656Y-83210251D01*
X127819562Y-83217403D01*
X127818342Y-83225102D01*
X127818342Y-83225104D01*
X127812729Y-83260540D01*
X127810361Y-83271975D01*
X127801438Y-83306727D01*
X127801436Y-83306735D01*
X127799500Y-83314280D01*
X127799500Y-83322076D01*
X127799500Y-83334316D01*
X127797974Y-83353701D01*
X127794840Y-83373495D01*
X127795574Y-83381260D01*
X127795574Y-83381263D01*
X127798950Y-83416975D01*
X127799500Y-83428644D01*
X127799500Y-99089151D01*
X127797304Y-99112386D01*
X127797233Y-99112753D01*
X127797232Y-99112760D01*
X127795773Y-99120412D01*
X127796262Y-99128189D01*
X127796262Y-99128195D01*
X127799255Y-99175759D01*
X127799500Y-99183545D01*
X127799500Y-110178216D01*
X127798978Y-110189271D01*
X127797327Y-110196658D01*
X127797571Y-110204444D01*
X127797571Y-110204452D01*
X127799439Y-110263864D01*
X127799500Y-110267759D01*
X127799500Y-110295341D01*
X127799988Y-110299210D01*
X127799989Y-110299216D01*
X127800004Y-110299334D01*
X127800918Y-110310957D01*
X127802045Y-110346821D01*
X127802046Y-110346828D01*
X127802291Y-110354618D01*
X127804467Y-110362110D01*
X127804468Y-110362112D01*
X127807879Y-110373853D01*
X127811825Y-110392906D01*
X127814336Y-110412783D01*
X127817206Y-110420033D01*
X127817208Y-110420039D01*
X127830414Y-110453395D01*
X127834197Y-110464442D01*
X127846382Y-110506381D01*
X127850353Y-110513096D01*
X127850354Y-110513098D01*
X127856581Y-110523628D01*
X127865136Y-110541090D01*
X127869642Y-110552471D01*
X127869643Y-110552474D01*
X127872514Y-110559723D01*
X127894440Y-110589903D01*
X127898181Y-110595051D01*
X127904593Y-110604813D01*
X127922856Y-110635693D01*
X127922859Y-110635698D01*
X127926830Y-110642411D01*
X127932344Y-110647925D01*
X127932345Y-110647926D01*
X127940990Y-110656571D01*
X127953626Y-110671365D01*
X127960819Y-110681266D01*
X127960823Y-110681270D01*
X127965406Y-110687578D01*
X127971415Y-110692549D01*
X127971416Y-110692550D01*
X127999058Y-110715417D01*
X128007699Y-110723280D01*
X134024934Y-116740516D01*
X134057028Y-116796103D01*
X134057028Y-116860289D01*
X134024936Y-116915876D01*
X134003786Y-116937026D01*
X134003775Y-116937038D01*
X133999953Y-116940861D01*
X133996851Y-116945290D01*
X133996846Y-116945297D01*
X133872540Y-117122826D01*
X133872535Y-117122833D01*
X133869432Y-117127266D01*
X133867144Y-117132172D01*
X133867142Y-117132176D01*
X133775550Y-117328594D01*
X133775547Y-117328599D01*
X133773261Y-117333504D01*
X133771862Y-117338724D01*
X133771858Y-117338736D01*
X133715764Y-117548083D01*
X133715762Y-117548094D01*
X133714365Y-117553308D01*
X133694532Y-117780000D01*
X133714365Y-118006692D01*
X133715762Y-118011907D01*
X133715764Y-118011916D01*
X133771858Y-118221263D01*
X133771861Y-118221271D01*
X133773261Y-118226496D01*
X133869432Y-118432734D01*
X133999953Y-118619139D01*
X134160861Y-118780047D01*
X134347266Y-118910568D01*
X134405276Y-118937618D01*
X134457449Y-118983373D01*
X134476869Y-119049997D01*
X134457451Y-119116622D01*
X134405276Y-119162380D01*
X134352178Y-119187141D01*
X134352173Y-119187143D01*
X134347266Y-119189432D01*
X134342833Y-119192535D01*
X134342826Y-119192540D01*
X134165296Y-119316847D01*
X134165291Y-119316850D01*
X134160861Y-119319953D01*
X134157037Y-119323776D01*
X134157031Y-119323782D01*
X134003782Y-119477031D01*
X134003776Y-119477037D01*
X133999953Y-119480861D01*
X133996850Y-119485291D01*
X133996847Y-119485296D01*
X133872540Y-119662826D01*
X133872535Y-119662833D01*
X133869432Y-119667266D01*
X133867144Y-119672172D01*
X133867142Y-119672176D01*
X133775550Y-119868594D01*
X133775547Y-119868599D01*
X133773261Y-119873504D01*
X133771862Y-119878724D01*
X133771858Y-119878736D01*
X133715764Y-120088083D01*
X133715762Y-120088094D01*
X133714365Y-120093308D01*
X133694532Y-120320000D01*
X133714365Y-120546692D01*
X133715762Y-120551907D01*
X133715764Y-120551916D01*
X133771858Y-120761263D01*
X133771861Y-120761271D01*
X133773261Y-120766496D01*
X133869432Y-120972734D01*
X133999953Y-121159139D01*
X134160861Y-121320047D01*
X134347266Y-121450568D01*
X134352172Y-121452855D01*
X134352176Y-121452858D01*
X134405274Y-121477618D01*
X134457450Y-121523375D01*
X134476869Y-121590000D01*
X134457450Y-121656625D01*
X134405274Y-121702382D01*
X134352176Y-121727141D01*
X134352163Y-121727148D01*
X134347266Y-121729432D01*
X134342833Y-121732535D01*
X134342826Y-121732540D01*
X134165296Y-121856847D01*
X134165291Y-121856850D01*
X134160861Y-121859953D01*
X134157037Y-121863776D01*
X134157031Y-121863782D01*
X134003782Y-122017031D01*
X134003776Y-122017037D01*
X133999953Y-122020861D01*
X133996850Y-122025291D01*
X133996847Y-122025296D01*
X133872540Y-122202826D01*
X133872535Y-122202833D01*
X133869432Y-122207266D01*
X133867144Y-122212172D01*
X133867142Y-122212176D01*
X133775550Y-122408594D01*
X133775547Y-122408599D01*
X133773261Y-122413504D01*
X133771862Y-122418724D01*
X133771858Y-122418736D01*
X133715764Y-122628083D01*
X133715762Y-122628094D01*
X133714365Y-122633308D01*
X133694532Y-122860000D01*
X133714365Y-123086692D01*
X133715762Y-123091907D01*
X133715764Y-123091916D01*
X133771858Y-123301263D01*
X133771861Y-123301271D01*
X133773261Y-123306496D01*
X133869432Y-123512734D01*
X133999953Y-123699139D01*
X134160861Y-123860047D01*
X134347266Y-123990568D01*
X134352172Y-123992855D01*
X134352176Y-123992858D01*
X134405274Y-124017618D01*
X134457450Y-124063375D01*
X134476869Y-124130000D01*
X134457450Y-124196625D01*
X134405274Y-124242382D01*
X134352176Y-124267141D01*
X134352163Y-124267148D01*
X134347266Y-124269432D01*
X134342833Y-124272535D01*
X134342826Y-124272540D01*
X134165296Y-124396847D01*
X134165291Y-124396850D01*
X134160861Y-124399953D01*
X134157037Y-124403776D01*
X134157031Y-124403782D01*
X134003782Y-124557031D01*
X134003776Y-124557037D01*
X133999953Y-124560861D01*
X133996850Y-124565291D01*
X133996847Y-124565296D01*
X133872540Y-124742826D01*
X133872535Y-124742833D01*
X133869432Y-124747266D01*
X133867144Y-124752172D01*
X133867142Y-124752176D01*
X133775550Y-124948594D01*
X133775547Y-124948599D01*
X133773261Y-124953504D01*
X133771862Y-124958724D01*
X133771858Y-124958736D01*
X133715764Y-125168083D01*
X133715762Y-125168094D01*
X133714365Y-125173308D01*
X133694532Y-125400000D01*
X133695004Y-125405395D01*
X133709710Y-125573491D01*
X133714365Y-125626692D01*
X133715763Y-125631911D01*
X133715765Y-125631920D01*
X133732680Y-125695048D01*
X133732680Y-125759234D01*
X133700586Y-125814821D01*
X131980696Y-127534711D01*
X131972511Y-127542159D01*
X131966123Y-127546214D01*
X131960788Y-127551894D01*
X131960783Y-127551899D01*
X131920096Y-127595225D01*
X131917392Y-127598016D01*
X131900628Y-127614780D01*
X131900621Y-127614787D01*
X131897880Y-127617529D01*
X131895500Y-127620596D01*
X131895489Y-127620609D01*
X131895400Y-127620725D01*
X131887842Y-127629570D01*
X131863280Y-127655727D01*
X131863273Y-127655736D01*
X131857938Y-127661418D01*
X131854182Y-127668249D01*
X131854179Y-127668254D01*
X131848285Y-127678975D01*
X131837609Y-127695227D01*
X131830109Y-127704896D01*
X131830101Y-127704907D01*
X131825327Y-127711064D01*
X131822234Y-127718208D01*
X131822229Y-127718219D01*
X131807974Y-127751160D01*
X131802838Y-127761643D01*
X131785560Y-127793073D01*
X131781803Y-127799908D01*
X131779864Y-127807456D01*
X131779863Y-127807461D01*
X131776822Y-127819307D01*
X131770521Y-127837711D01*
X131765658Y-127848948D01*
X131765656Y-127848952D01*
X131762562Y-127856104D01*
X131761342Y-127863803D01*
X131761342Y-127863805D01*
X131755729Y-127899241D01*
X131753361Y-127910676D01*
X131744438Y-127945428D01*
X131744436Y-127945436D01*
X131742500Y-127952981D01*
X131742500Y-127960777D01*
X131742500Y-127973017D01*
X131740974Y-127992402D01*
X131737840Y-128012196D01*
X131738574Y-128019961D01*
X131738574Y-128019964D01*
X131741950Y-128055676D01*
X131742500Y-128067345D01*
X131742500Y-136539017D01*
X131741978Y-136550072D01*
X131740327Y-136557459D01*
X131740571Y-136565245D01*
X131740571Y-136565253D01*
X131742439Y-136624665D01*
X131742500Y-136628560D01*
X131742500Y-136656142D01*
X131742988Y-136660011D01*
X131742989Y-136660017D01*
X131743004Y-136660135D01*
X131743918Y-136671758D01*
X131745045Y-136707622D01*
X131745046Y-136707629D01*
X131745291Y-136715419D01*
X131747467Y-136722911D01*
X131747468Y-136722913D01*
X131750879Y-136734654D01*
X131754825Y-136753707D01*
X131757336Y-136773584D01*
X131760206Y-136780834D01*
X131760208Y-136780840D01*
X131773414Y-136814196D01*
X131777197Y-136825243D01*
X131789382Y-136867182D01*
X131793353Y-136873897D01*
X131793354Y-136873899D01*
X131799581Y-136884429D01*
X131808136Y-136901891D01*
X131812642Y-136913272D01*
X131812643Y-136913275D01*
X131815514Y-136920524D01*
X131837440Y-136950704D01*
X131841181Y-136955852D01*
X131847593Y-136965614D01*
X131865856Y-136996494D01*
X131865859Y-136996499D01*
X131869830Y-137003212D01*
X131875345Y-137008727D01*
X131883990Y-137017372D01*
X131896626Y-137032166D01*
X131903819Y-137042067D01*
X131903823Y-137042071D01*
X131908406Y-137048379D01*
X131914415Y-137053350D01*
X131914416Y-137053351D01*
X131942058Y-137076218D01*
X131950699Y-137084081D01*
X133438937Y-138572319D01*
X133469187Y-138621682D01*
X133473729Y-138679398D01*
X133451574Y-138732885D01*
X133407551Y-138770485D01*
X133351256Y-138784000D01*
X124628562Y-138784000D01*
X124588704Y-138777419D01*
X124553076Y-138758376D01*
X124466066Y-138691611D01*
X124461443Y-138687883D01*
X124298801Y-138550133D01*
X124295170Y-138546934D01*
X124166564Y-138429089D01*
X124136708Y-138387309D01*
X124126339Y-138337020D01*
X124140736Y-135587316D01*
X124154908Y-135530399D01*
X124193658Y-135486361D01*
X124248315Y-135465062D01*
X124306645Y-135471268D01*
X124355596Y-135503591D01*
X124384213Y-135554796D01*
X124459805Y-135827057D01*
X124467676Y-135855403D01*
X124468924Y-135858535D01*
X124543900Y-136046712D01*
X124600147Y-136187880D01*
X124767789Y-136504085D01*
X124769676Y-136506868D01*
X124769679Y-136506873D01*
X124924118Y-136734654D01*
X124968635Y-136800311D01*
X125019073Y-136859691D01*
X125179345Y-137048379D01*
X125200332Y-137073086D01*
X125202763Y-137075389D01*
X125202769Y-137075395D01*
X125211939Y-137084081D01*
X125460163Y-137319211D01*
X125745081Y-137535800D01*
X126051747Y-137720315D01*
X126376565Y-137870591D01*
X126715726Y-137984868D01*
X127065254Y-138061805D01*
X127421052Y-138100500D01*
X127775590Y-138100500D01*
X127778948Y-138100500D01*
X128134746Y-138061805D01*
X128484274Y-137984868D01*
X128823435Y-137870591D01*
X129148253Y-137720315D01*
X129454919Y-137535800D01*
X129739837Y-137319211D01*
X129999668Y-137073086D01*
X130231365Y-136800311D01*
X130432211Y-136504085D01*
X130599853Y-136187880D01*
X130732324Y-135855403D01*
X130828071Y-135510552D01*
X130885972Y-135157371D01*
X130905348Y-134800000D01*
X130885972Y-134442629D01*
X130828071Y-134089448D01*
X130732324Y-133744597D01*
X130599853Y-133412120D01*
X130432211Y-133095915D01*
X130231365Y-132799689D01*
X129999668Y-132526914D01*
X129997235Y-132524609D01*
X129997230Y-132524604D01*
X129742267Y-132283091D01*
X129739837Y-132280789D01*
X129454919Y-132064200D01*
X129452045Y-132062471D01*
X129452041Y-132062468D01*
X129151135Y-131881419D01*
X129151134Y-131881418D01*
X129148253Y-131879685D01*
X129110853Y-131862382D01*
X128826490Y-131730822D01*
X128826483Y-131730819D01*
X128823435Y-131729409D01*
X128735005Y-131699613D01*
X128487457Y-131616204D01*
X128487448Y-131616201D01*
X128484274Y-131615132D01*
X128481006Y-131614412D01*
X128480993Y-131614409D01*
X128138033Y-131538918D01*
X128138023Y-131538916D01*
X128134746Y-131538195D01*
X127778948Y-131499500D01*
X127421052Y-131499500D01*
X127417715Y-131499862D01*
X127417713Y-131499863D01*
X127068600Y-131537831D01*
X127068598Y-131537831D01*
X127065254Y-131538195D01*
X127061979Y-131538915D01*
X127061966Y-131538918D01*
X126719006Y-131614409D01*
X126718988Y-131614413D01*
X126715726Y-131615132D01*
X126712555Y-131616200D01*
X126712542Y-131616204D01*
X126379752Y-131728335D01*
X126379749Y-131728336D01*
X126376565Y-131729409D01*
X126373522Y-131730816D01*
X126373509Y-131730822D01*
X126054802Y-131878271D01*
X126054792Y-131878275D01*
X126051747Y-131879685D01*
X126048873Y-131881414D01*
X126048864Y-131881419D01*
X125747958Y-132062468D01*
X125747945Y-132062476D01*
X125745081Y-132064200D01*
X125742423Y-132066220D01*
X125742412Y-132066228D01*
X125462822Y-132278767D01*
X125462814Y-132278773D01*
X125460163Y-132280789D01*
X125457739Y-132283084D01*
X125457732Y-132283091D01*
X125202769Y-132524604D01*
X125202754Y-132524619D01*
X125200332Y-132526914D01*
X125198169Y-132529459D01*
X125198158Y-132529472D01*
X124970808Y-132797130D01*
X124970802Y-132797137D01*
X124968635Y-132799689D01*
X124966755Y-132802461D01*
X124966748Y-132802471D01*
X124769679Y-133093126D01*
X124769671Y-133093138D01*
X124767789Y-133095915D01*
X124766214Y-133098885D01*
X124766212Y-133098889D01*
X124601722Y-133409148D01*
X124601717Y-133409157D01*
X124600147Y-133412120D01*
X124598906Y-133415232D01*
X124598902Y-133415243D01*
X124494540Y-133677173D01*
X124467676Y-133744597D01*
X124466778Y-133747830D01*
X124466774Y-133747843D01*
X124392623Y-134014914D01*
X124363859Y-134066278D01*
X124314648Y-134098588D01*
X124256081Y-134104561D01*
X124201361Y-134082850D01*
X124162820Y-134038350D01*
X124149145Y-133981093D01*
X124585573Y-50623578D01*
X137654500Y-50623578D01*
X137654501Y-50626872D01*
X137654853Y-50630150D01*
X137654854Y-50630161D01*
X137660079Y-50678768D01*
X137660080Y-50678773D01*
X137660909Y-50686483D01*
X137663619Y-50693749D01*
X137663620Y-50693753D01*
X137697217Y-50783831D01*
X137711204Y-50821331D01*
X137797454Y-50936546D01*
X137912669Y-51022796D01*
X138047517Y-51073091D01*
X138107127Y-51079500D01*
X138842872Y-51079499D01*
X138902483Y-51073091D01*
X139037331Y-51022796D01*
X139044434Y-51017478D01*
X139050572Y-51014127D01*
X139110000Y-50998959D01*
X139169428Y-51014127D01*
X139175566Y-51017478D01*
X139182669Y-51022796D01*
X139317517Y-51073091D01*
X139377127Y-51079500D01*
X140112872Y-51079499D01*
X140172483Y-51073091D01*
X140307331Y-51022796D01*
X140314434Y-51017478D01*
X140320572Y-51014127D01*
X140380000Y-50998959D01*
X140439428Y-51014127D01*
X140445566Y-51017478D01*
X140452669Y-51022796D01*
X140587517Y-51073091D01*
X140647127Y-51079500D01*
X141382872Y-51079499D01*
X141442483Y-51073091D01*
X141577331Y-51022796D01*
X141584434Y-51017478D01*
X141590572Y-51014127D01*
X141650000Y-50998959D01*
X141709428Y-51014127D01*
X141715566Y-51017478D01*
X141722669Y-51022796D01*
X141857517Y-51073091D01*
X141917127Y-51079500D01*
X142652872Y-51079499D01*
X142712483Y-51073091D01*
X142847331Y-51022796D01*
X142962546Y-50936546D01*
X143048796Y-50821331D01*
X143099091Y-50686483D01*
X143105500Y-50626873D01*
X143105500Y-50623578D01*
X148322500Y-50623578D01*
X148322501Y-50626872D01*
X148322853Y-50630150D01*
X148322854Y-50630161D01*
X148328079Y-50678768D01*
X148328080Y-50678773D01*
X148328909Y-50686483D01*
X148331619Y-50693749D01*
X148331620Y-50693753D01*
X148365217Y-50783831D01*
X148379204Y-50821331D01*
X148465454Y-50936546D01*
X148580669Y-51022796D01*
X148715517Y-51073091D01*
X148775127Y-51079500D01*
X149510872Y-51079499D01*
X149570483Y-51073091D01*
X149705331Y-51022796D01*
X149712434Y-51017478D01*
X149718572Y-51014127D01*
X149778000Y-50998959D01*
X149837428Y-51014127D01*
X149843566Y-51017478D01*
X149850669Y-51022796D01*
X149985517Y-51073091D01*
X150045127Y-51079500D01*
X150780872Y-51079499D01*
X150840483Y-51073091D01*
X150975331Y-51022796D01*
X150982434Y-51017478D01*
X150988572Y-51014127D01*
X151048000Y-50998959D01*
X151107428Y-51014127D01*
X151113566Y-51017478D01*
X151120669Y-51022796D01*
X151255517Y-51073091D01*
X151315127Y-51079500D01*
X152050872Y-51079499D01*
X152110483Y-51073091D01*
X152245331Y-51022796D01*
X152252434Y-51017478D01*
X152258572Y-51014127D01*
X152318000Y-50998959D01*
X152377428Y-51014127D01*
X152383566Y-51017478D01*
X152390669Y-51022796D01*
X152525517Y-51073091D01*
X152585127Y-51079500D01*
X153320872Y-51079499D01*
X153380483Y-51073091D01*
X153515331Y-51022796D01*
X153630546Y-50936546D01*
X153716796Y-50821331D01*
X153767091Y-50686483D01*
X153773500Y-50626873D01*
X153773499Y-48631128D01*
X153767091Y-48571517D01*
X153716796Y-48436669D01*
X153630546Y-48321454D01*
X153623446Y-48316139D01*
X153617178Y-48309871D01*
X153618707Y-48308341D01*
X153591619Y-48275935D01*
X153578500Y-48220424D01*
X153578500Y-46251068D01*
X153590118Y-46198663D01*
X153622794Y-46156078D01*
X153670407Y-46131293D01*
X153768359Y-46105046D01*
X153869663Y-46077903D01*
X154083830Y-45978035D01*
X154277401Y-45842495D01*
X154444495Y-45675401D01*
X154580035Y-45481830D01*
X154679903Y-45267663D01*
X154741063Y-45039408D01*
X154761659Y-44804000D01*
X154741063Y-44568592D01*
X154679903Y-44340337D01*
X154580035Y-44126171D01*
X154444495Y-43932599D01*
X154277401Y-43765505D01*
X154272970Y-43762402D01*
X154272966Y-43762399D01*
X154088259Y-43633066D01*
X154088257Y-43633064D01*
X154083830Y-43629965D01*
X154078933Y-43627681D01*
X154078927Y-43627678D01*
X153874572Y-43532386D01*
X153874570Y-43532385D01*
X153869663Y-43530097D01*
X153864438Y-43528697D01*
X153864430Y-43528694D01*
X153646634Y-43470337D01*
X153646630Y-43470336D01*
X153641408Y-43468937D01*
X153636020Y-43468465D01*
X153636017Y-43468465D01*
X153411395Y-43448813D01*
X153406000Y-43448341D01*
X153400605Y-43448813D01*
X153175982Y-43468465D01*
X153175977Y-43468465D01*
X153170592Y-43468937D01*
X153165371Y-43470335D01*
X153165365Y-43470337D01*
X152947569Y-43528694D01*
X152947557Y-43528698D01*
X152942337Y-43530097D01*
X152937432Y-43532383D01*
X152937427Y-43532386D01*
X152733081Y-43627675D01*
X152733077Y-43627677D01*
X152728171Y-43629965D01*
X152723738Y-43633068D01*
X152723731Y-43633073D01*
X152539034Y-43762399D01*
X152539029Y-43762402D01*
X152534599Y-43765505D01*
X152530775Y-43769328D01*
X152530769Y-43769334D01*
X152371334Y-43928769D01*
X152371328Y-43928775D01*
X152367505Y-43932599D01*
X152364402Y-43937029D01*
X152364399Y-43937034D01*
X152235073Y-44121731D01*
X152235068Y-44121738D01*
X152231965Y-44126171D01*
X152229677Y-44131077D01*
X152229675Y-44131081D01*
X152134386Y-44335427D01*
X152134383Y-44335432D01*
X152132097Y-44340337D01*
X152130698Y-44345557D01*
X152130694Y-44345569D01*
X152072337Y-44563365D01*
X152072335Y-44563371D01*
X152070937Y-44568592D01*
X152050341Y-44804000D01*
X152070937Y-45039408D01*
X152072336Y-45044630D01*
X152072337Y-45044634D01*
X152130694Y-45262430D01*
X152130697Y-45262438D01*
X152132097Y-45267663D01*
X152134385Y-45272570D01*
X152134386Y-45272572D01*
X152229678Y-45476927D01*
X152229681Y-45476933D01*
X152231965Y-45481830D01*
X152235062Y-45486253D01*
X152235069Y-45486265D01*
X152305075Y-45586243D01*
X152321761Y-45620079D01*
X152327500Y-45657366D01*
X152327500Y-48087258D01*
X152313376Y-48144733D01*
X152274220Y-48189114D01*
X152218954Y-48210291D01*
X152160167Y-48203440D01*
X152117752Y-48187620D01*
X152117750Y-48187619D01*
X152110483Y-48184909D01*
X152102770Y-48184079D01*
X152102767Y-48184079D01*
X152054180Y-48178855D01*
X152054169Y-48178854D01*
X152050873Y-48178500D01*
X152047550Y-48178500D01*
X151318439Y-48178500D01*
X151318420Y-48178500D01*
X151315128Y-48178501D01*
X151311850Y-48178853D01*
X151311838Y-48178854D01*
X151263231Y-48184079D01*
X151263225Y-48184080D01*
X151255517Y-48184909D01*
X151248252Y-48187618D01*
X151248246Y-48187620D01*
X151128976Y-48232105D01*
X151128971Y-48232107D01*
X151120669Y-48235204D01*
X151113573Y-48240515D01*
X151107425Y-48243873D01*
X151048000Y-48259040D01*
X150988575Y-48243873D01*
X150982426Y-48240515D01*
X150975331Y-48235204D01*
X150967024Y-48232106D01*
X150967023Y-48232105D01*
X150847752Y-48187620D01*
X150847750Y-48187619D01*
X150840483Y-48184909D01*
X150832770Y-48184079D01*
X150832767Y-48184079D01*
X150784180Y-48178855D01*
X150784169Y-48178854D01*
X150780873Y-48178500D01*
X150777550Y-48178500D01*
X150048439Y-48178500D01*
X150048420Y-48178500D01*
X150045128Y-48178501D01*
X150041850Y-48178853D01*
X150041838Y-48178854D01*
X149993231Y-48184079D01*
X149993225Y-48184080D01*
X149985517Y-48184909D01*
X149978252Y-48187618D01*
X149978246Y-48187620D01*
X149935833Y-48203440D01*
X149877046Y-48210291D01*
X149821780Y-48189114D01*
X149782624Y-48144733D01*
X149768500Y-48087258D01*
X149768500Y-46278499D01*
X149785113Y-46216499D01*
X149830500Y-46171112D01*
X149892500Y-46154499D01*
X150352859Y-46154499D01*
X150356008Y-46154499D01*
X150458797Y-46143999D01*
X150625334Y-46088814D01*
X150774656Y-45996712D01*
X150898712Y-45872656D01*
X150990814Y-45723334D01*
X151045999Y-45556797D01*
X151056500Y-45454009D01*
X151056499Y-44153992D01*
X151045999Y-44051203D01*
X150990814Y-43884666D01*
X150919677Y-43769334D01*
X150902502Y-43741488D01*
X150902500Y-43741485D01*
X150898712Y-43735344D01*
X150774656Y-43611288D01*
X150768515Y-43607500D01*
X150768511Y-43607497D01*
X150631480Y-43522977D01*
X150625334Y-43519186D01*
X150472268Y-43468465D01*
X150465225Y-43466131D01*
X150465224Y-43466130D01*
X150458797Y-43464001D01*
X150452064Y-43463313D01*
X150452059Y-43463312D01*
X150359140Y-43453819D01*
X150359123Y-43453818D01*
X150356009Y-43453500D01*
X150352860Y-43453500D01*
X149059140Y-43453500D01*
X149059120Y-43453500D01*
X149055992Y-43453501D01*
X149052860Y-43453820D01*
X149052858Y-43453821D01*
X148959938Y-43463312D01*
X148959928Y-43463313D01*
X148953203Y-43464001D01*
X148946781Y-43466128D01*
X148946776Y-43466130D01*
X148793521Y-43516914D01*
X148793517Y-43516915D01*
X148786666Y-43519186D01*
X148780522Y-43522975D01*
X148780519Y-43522977D01*
X148643488Y-43607497D01*
X148643480Y-43607503D01*
X148637344Y-43611288D01*
X148632242Y-43616389D01*
X148632238Y-43616393D01*
X148518393Y-43730238D01*
X148518389Y-43730242D01*
X148513288Y-43735344D01*
X148509503Y-43741480D01*
X148509497Y-43741488D01*
X148424977Y-43878519D01*
X148421186Y-43884666D01*
X148418915Y-43891517D01*
X148418914Y-43891521D01*
X148390553Y-43977109D01*
X148366001Y-44051203D01*
X148365313Y-44057933D01*
X148365312Y-44057940D01*
X148355819Y-44150859D01*
X148355818Y-44150877D01*
X148355500Y-44153991D01*
X148355500Y-44157138D01*
X148355500Y-44157139D01*
X148355500Y-45450859D01*
X148355500Y-45450878D01*
X148355501Y-45454008D01*
X148355820Y-45457140D01*
X148355821Y-45457141D01*
X148365312Y-45550061D01*
X148365313Y-45550069D01*
X148366001Y-45556797D01*
X148368129Y-45563219D01*
X148368130Y-45563223D01*
X148406572Y-45679232D01*
X148421186Y-45723334D01*
X148424977Y-45729480D01*
X148499039Y-45849555D01*
X148517500Y-45914651D01*
X148517500Y-48220424D01*
X148504381Y-48275935D01*
X148477292Y-48308341D01*
X148478822Y-48309871D01*
X148472551Y-48316140D01*
X148465454Y-48321454D01*
X148460144Y-48328546D01*
X148460140Y-48328551D01*
X148384519Y-48429568D01*
X148384516Y-48429572D01*
X148379204Y-48436669D01*
X148376104Y-48444978D01*
X148376104Y-48444980D01*
X148331620Y-48564247D01*
X148331619Y-48564250D01*
X148328909Y-48571517D01*
X148328079Y-48579227D01*
X148328079Y-48579232D01*
X148322855Y-48627819D01*
X148322854Y-48627831D01*
X148322500Y-48631127D01*
X148322500Y-48634448D01*
X148322500Y-48634449D01*
X148322500Y-50623560D01*
X148322500Y-50623578D01*
X143105500Y-50623578D01*
X143105499Y-48631128D01*
X143099091Y-48571517D01*
X143048796Y-48436669D01*
X142962546Y-48321454D01*
X142955446Y-48316139D01*
X142949178Y-48309871D01*
X142950707Y-48308341D01*
X142923619Y-48275935D01*
X142910500Y-48220424D01*
X142910500Y-46251068D01*
X142922118Y-46198663D01*
X142954794Y-46156078D01*
X143002407Y-46131293D01*
X143100359Y-46105046D01*
X143201663Y-46077903D01*
X143415830Y-45978035D01*
X143609401Y-45842495D01*
X143776495Y-45675401D01*
X143912035Y-45481830D01*
X144011903Y-45267663D01*
X144073063Y-45039408D01*
X144093659Y-44804000D01*
X144073063Y-44568592D01*
X144011903Y-44340337D01*
X143912035Y-44126171D01*
X143776495Y-43932599D01*
X143609401Y-43765505D01*
X143604970Y-43762402D01*
X143604966Y-43762399D01*
X143420259Y-43633066D01*
X143420257Y-43633064D01*
X143415830Y-43629965D01*
X143410933Y-43627681D01*
X143410927Y-43627678D01*
X143206572Y-43532386D01*
X143206570Y-43532385D01*
X143201663Y-43530097D01*
X143196438Y-43528697D01*
X143196430Y-43528694D01*
X142978634Y-43470337D01*
X142978630Y-43470336D01*
X142973408Y-43468937D01*
X142968020Y-43468465D01*
X142968017Y-43468465D01*
X142743395Y-43448813D01*
X142738000Y-43448341D01*
X142732605Y-43448813D01*
X142507982Y-43468465D01*
X142507977Y-43468465D01*
X142502592Y-43468937D01*
X142497371Y-43470335D01*
X142497365Y-43470337D01*
X142279569Y-43528694D01*
X142279557Y-43528698D01*
X142274337Y-43530097D01*
X142269432Y-43532383D01*
X142269427Y-43532386D01*
X142065081Y-43627675D01*
X142065077Y-43627677D01*
X142060171Y-43629965D01*
X142055738Y-43633068D01*
X142055731Y-43633073D01*
X141871034Y-43762399D01*
X141871029Y-43762402D01*
X141866599Y-43765505D01*
X141862775Y-43769328D01*
X141862769Y-43769334D01*
X141703334Y-43928769D01*
X141703328Y-43928775D01*
X141699505Y-43932599D01*
X141696402Y-43937029D01*
X141696399Y-43937034D01*
X141567073Y-44121731D01*
X141567068Y-44121738D01*
X141563965Y-44126171D01*
X141561677Y-44131077D01*
X141561675Y-44131081D01*
X141466386Y-44335427D01*
X141466383Y-44335432D01*
X141464097Y-44340337D01*
X141462698Y-44345557D01*
X141462694Y-44345569D01*
X141404337Y-44563365D01*
X141404335Y-44563371D01*
X141402937Y-44568592D01*
X141382341Y-44804000D01*
X141402937Y-45039408D01*
X141404336Y-45044630D01*
X141404337Y-45044634D01*
X141462694Y-45262430D01*
X141462697Y-45262438D01*
X141464097Y-45267663D01*
X141466385Y-45272570D01*
X141466386Y-45272572D01*
X141561678Y-45476927D01*
X141561681Y-45476933D01*
X141563965Y-45481830D01*
X141567062Y-45486253D01*
X141567069Y-45486265D01*
X141637075Y-45586243D01*
X141653761Y-45620079D01*
X141659500Y-45657366D01*
X141659500Y-48087258D01*
X141645376Y-48144733D01*
X141606220Y-48189114D01*
X141550954Y-48210291D01*
X141492167Y-48203440D01*
X141449752Y-48187620D01*
X141449750Y-48187619D01*
X141442483Y-48184909D01*
X141434770Y-48184079D01*
X141434767Y-48184079D01*
X141386180Y-48178855D01*
X141386169Y-48178854D01*
X141382873Y-48178500D01*
X141379550Y-48178500D01*
X140650439Y-48178500D01*
X140650420Y-48178500D01*
X140647128Y-48178501D01*
X140643850Y-48178853D01*
X140643838Y-48178854D01*
X140595231Y-48184079D01*
X140595225Y-48184080D01*
X140587517Y-48184909D01*
X140580252Y-48187618D01*
X140580246Y-48187620D01*
X140460976Y-48232105D01*
X140460971Y-48232107D01*
X140452669Y-48235204D01*
X140445573Y-48240515D01*
X140439425Y-48243873D01*
X140380000Y-48259040D01*
X140320575Y-48243873D01*
X140314426Y-48240515D01*
X140307331Y-48235204D01*
X140299024Y-48232106D01*
X140299023Y-48232105D01*
X140179752Y-48187620D01*
X140179750Y-48187619D01*
X140172483Y-48184909D01*
X140164770Y-48184079D01*
X140164767Y-48184079D01*
X140116180Y-48178855D01*
X140116169Y-48178854D01*
X140112873Y-48178500D01*
X140109550Y-48178500D01*
X139380439Y-48178500D01*
X139380420Y-48178500D01*
X139377128Y-48178501D01*
X139373850Y-48178853D01*
X139373838Y-48178854D01*
X139325231Y-48184079D01*
X139325225Y-48184080D01*
X139317517Y-48184909D01*
X139310252Y-48187618D01*
X139310246Y-48187620D01*
X139267833Y-48203440D01*
X139209046Y-48210291D01*
X139153780Y-48189114D01*
X139114624Y-48144733D01*
X139100500Y-48087258D01*
X139100500Y-46278499D01*
X139117113Y-46216499D01*
X139162500Y-46171112D01*
X139224500Y-46154499D01*
X139684859Y-46154499D01*
X139688008Y-46154499D01*
X139790797Y-46143999D01*
X139957334Y-46088814D01*
X140106656Y-45996712D01*
X140230712Y-45872656D01*
X140322814Y-45723334D01*
X140377999Y-45556797D01*
X140388500Y-45454009D01*
X140388499Y-44153992D01*
X140377999Y-44051203D01*
X140322814Y-43884666D01*
X140251677Y-43769334D01*
X140234502Y-43741488D01*
X140234500Y-43741485D01*
X140230712Y-43735344D01*
X140106656Y-43611288D01*
X140100515Y-43607500D01*
X140100511Y-43607497D01*
X139963480Y-43522977D01*
X139957334Y-43519186D01*
X139804268Y-43468465D01*
X139797225Y-43466131D01*
X139797224Y-43466130D01*
X139790797Y-43464001D01*
X139784064Y-43463313D01*
X139784059Y-43463312D01*
X139691140Y-43453819D01*
X139691123Y-43453818D01*
X139688009Y-43453500D01*
X139684860Y-43453500D01*
X138391140Y-43453500D01*
X138391120Y-43453500D01*
X138387992Y-43453501D01*
X138384860Y-43453820D01*
X138384858Y-43453821D01*
X138291938Y-43463312D01*
X138291928Y-43463313D01*
X138285203Y-43464001D01*
X138278781Y-43466128D01*
X138278776Y-43466130D01*
X138125521Y-43516914D01*
X138125517Y-43516915D01*
X138118666Y-43519186D01*
X138112522Y-43522975D01*
X138112519Y-43522977D01*
X137975488Y-43607497D01*
X137975480Y-43607503D01*
X137969344Y-43611288D01*
X137964242Y-43616389D01*
X137964238Y-43616393D01*
X137850393Y-43730238D01*
X137850389Y-43730242D01*
X137845288Y-43735344D01*
X137841503Y-43741480D01*
X137841497Y-43741488D01*
X137756977Y-43878519D01*
X137753186Y-43884666D01*
X137750915Y-43891517D01*
X137750914Y-43891521D01*
X137722553Y-43977109D01*
X137698001Y-44051203D01*
X137697313Y-44057933D01*
X137697312Y-44057940D01*
X137687819Y-44150859D01*
X137687818Y-44150877D01*
X137687500Y-44153991D01*
X137687500Y-44157138D01*
X137687500Y-44157139D01*
X137687500Y-45450859D01*
X137687500Y-45450878D01*
X137687501Y-45454008D01*
X137687820Y-45457140D01*
X137687821Y-45457141D01*
X137697312Y-45550061D01*
X137697313Y-45550069D01*
X137698001Y-45556797D01*
X137700129Y-45563219D01*
X137700130Y-45563223D01*
X137738572Y-45679232D01*
X137753186Y-45723334D01*
X137756977Y-45729480D01*
X137831039Y-45849555D01*
X137849500Y-45914651D01*
X137849500Y-48220424D01*
X137836381Y-48275935D01*
X137809292Y-48308341D01*
X137810822Y-48309871D01*
X137804551Y-48316140D01*
X137797454Y-48321454D01*
X137792144Y-48328546D01*
X137792140Y-48328551D01*
X137716519Y-48429568D01*
X137716516Y-48429572D01*
X137711204Y-48436669D01*
X137708104Y-48444978D01*
X137708104Y-48444980D01*
X137663620Y-48564247D01*
X137663619Y-48564250D01*
X137660909Y-48571517D01*
X137660079Y-48579227D01*
X137660079Y-48579232D01*
X137654855Y-48627819D01*
X137654854Y-48627831D01*
X137654500Y-48631127D01*
X137654500Y-48634448D01*
X137654500Y-48634449D01*
X137654500Y-50623560D01*
X137654500Y-50623578D01*
X124585573Y-50623578D01*
X124606277Y-46669060D01*
X124622257Y-46608819D01*
X124665530Y-46563959D01*
X124725162Y-46545819D01*
X124786086Y-46558984D01*
X124832907Y-46600127D01*
X124968635Y-46800311D01*
X125200332Y-47073086D01*
X125202763Y-47075389D01*
X125202769Y-47075395D01*
X125381622Y-47244813D01*
X125460163Y-47319211D01*
X125745081Y-47535800D01*
X126051747Y-47720315D01*
X126376565Y-47870591D01*
X126715726Y-47984868D01*
X127065254Y-48061805D01*
X127421052Y-48100500D01*
X127775590Y-48100500D01*
X127778948Y-48100500D01*
X128134746Y-48061805D01*
X128484274Y-47984868D01*
X128823435Y-47870591D01*
X129148253Y-47720315D01*
X129454919Y-47535800D01*
X129739837Y-47319211D01*
X129999668Y-47073086D01*
X130231365Y-46800311D01*
X130432211Y-46504085D01*
X130599853Y-46187880D01*
X130732324Y-45855403D01*
X130828071Y-45510552D01*
X130885972Y-45157371D01*
X130905348Y-44800000D01*
X130885972Y-44442629D01*
X130828071Y-44089448D01*
X130732324Y-43744597D01*
X130599853Y-43412120D01*
X130432211Y-43095915D01*
X130231365Y-42799689D01*
X129999668Y-42526914D01*
X129997235Y-42524609D01*
X129997230Y-42524604D01*
X129742267Y-42283091D01*
X129739837Y-42280789D01*
X129454919Y-42064200D01*
X129452045Y-42062471D01*
X129452041Y-42062468D01*
X129325365Y-41986250D01*
X129281023Y-41940443D01*
X129265301Y-41878657D01*
X129282357Y-41817226D01*
X129327682Y-41772390D01*
X129389294Y-41756000D01*
X162100000Y-41756000D01*
X162162000Y-41772613D01*
G37*
%TD.AperFunction*%
%TD*%
M02*
